<svg viewBox="0 0 330 200" xmlns="http://www.w3.org/2000/svg"><g><g><g><g><g><line x1="40" y1="173" x2="35" y2="173" style="visibility: inherit;" fill="rgb(0, 0, 0)" stroke="rgb(204, 204, 204)" stroke-width="1px"></line><line x1="40" y1="155.70000000000002" x2="35" y2="155.70000000000002" style="visibility: inherit;" fill="rgb(0, 0, 0)" stroke="rgb(204, 204, 204)" stroke-width="1px"></line><line x1="40" y1="138.4" x2="35" y2="138.4" style="visibility: inherit;" fill="rgb(0, 0, 0)" stroke="rgb(204, 204, 204)" stroke-width="1px"></line><line x1="40" y1="121.1" x2="35" y2="121.1" style="visibility: inherit;" fill="rgb(0, 0, 0)" stroke="rgb(204, 204, 204)" stroke-width="1px"></line><line x1="40" y1="103.8" x2="35" y2="103.8" style="visibility: inherit;" fill="rgb(0, 0, 0)" stroke="rgb(204, 204, 204)" stroke-width="1px"></line><line x1="40" y1="86.5" x2="35" y2="86.5" style="visibility: inherit;" fill="rgb(0, 0, 0)" stroke="rgb(204, 204, 204)" stroke-width="1px"></line><line x1="40" y1="69.2" x2="35" y2="69.2" style="visibility: inherit;" fill="rgb(0, 0, 0)" stroke="rgb(204, 204, 204)" stroke-width="1px"></line><line x1="40" y1="51.900000000000006" x2="35" y2="51.900000000000006" style="visibility: inherit;" fill="rgb(0, 0, 0)" stroke="rgb(204, 204, 204)" stroke-width="1px"></line><line x1="40" y1="34.599999999999994" x2="35" y2="34.599999999999994" style="visibility: inherit;" fill="rgb(0, 0, 0)" stroke="rgb(204, 204, 204)" stroke-width="1px"></line><line x1="40" y1="17.299999999999997" x2="35" y2="17.299999999999997" style="visibility: inherit;" fill="rgb(0, 0, 0)" stroke="rgb(204, 204, 204)" stroke-width="1px"></line><line x1="40" y1="0" x2="35" y2="0" style="visibility: inherit;" fill="rgb(0, 0, 0)" stroke="rgb(204, 204, 204)" stroke-width="1px"></line></g><g transform="translate(30, 0)"><text x="0" y="173" dx="0em" dy="0.3em" style="text-anchor: end; visibility: hidden; font-family: Roboto, sans-serif; font-size: 12px; font-weight: 200;" fill="rgb(33, 33, 33)" stroke="none" stroke-width="1px">-10</text><text x="0" y="155.70000000000002" dx="0em" dy="0.3em" style="text-anchor: end; visibility: inherit; font-family: Roboto, sans-serif; font-size: 12px; font-weight: 200;" fill="rgb(33, 33, 33)" stroke="none" stroke-width="1px">0</text><text x="0" y="138.4" dx="0em" dy="0.3em" style="text-anchor: end; visibility: hidden; font-family: Roboto, sans-serif; font-size: 12px; font-weight: 200;" fill="rgb(33, 33, 33)" stroke="none" stroke-width="1px">10</text><text x="0" y="121.1" dx="0em" dy="0.3em" style="text-anchor: end; visibility: inherit; font-family: Roboto, sans-serif; font-size: 12px; font-weight: 200;" fill="rgb(33, 33, 33)" stroke="none" stroke-width="1px">20</text><text x="0" y="103.8" dx="0em" dy="0.3em" style="text-anchor: end; visibility: hidden; font-family: Roboto, sans-serif; font-size: 12px; font-weight: 200;" fill="rgb(33, 33, 33)" stroke="none" stroke-width="1px">30</text><text x="0" y="86.5" dx="0em" dy="0.3em" style="text-anchor: end; visibility: inherit; font-family: Roboto, sans-serif; font-size: 12px; font-weight: 200;" fill="rgb(33, 33, 33)" stroke="none" stroke-width="1px">40</text><text x="0" y="69.2" dx="0em" dy="0.3em" style="text-anchor: end; visibility: hidden; font-family: Roboto, sans-serif; font-size: 12px; font-weight: 200;" fill="rgb(33, 33, 33)" stroke="none" stroke-width="1px">50</text><text x="0" y="51.900000000000006" dx="0em" dy="0.3em" style="text-anchor: end; visibility: inherit; font-family: Roboto, sans-serif; font-size: 12px; font-weight: 200;" fill="rgb(33, 33, 33)" stroke="none" stroke-width="1px">60</text><text x="0" y="34.599999999999994" dx="0em" dy="0.3em" style="text-anchor: end; visibility: hidden; font-family: Roboto, sans-serif; font-size: 12px; font-weight: 200;" fill="rgb(33, 33, 33)" stroke="none" stroke-width="1px">70</text><text x="0" y="17.299999999999997" dx="0em" dy="0.3em" style="text-anchor: end; visibility: inherit; font-family: Roboto, sans-serif; font-size: 12px; font-weight: 200;" fill="rgb(33, 33, 33)" stroke="none" stroke-width="1px">80</text><text x="0" y="0" dx="0em" dy="0.3em" style="text-anchor: end; visibility: hidden; font-family: Roboto, sans-serif; font-size: 12px; font-weight: 200;" fill="rgb(33, 33, 33)" stroke="none" stroke-width="1px">90</text></g><line x1="40" y1="0" x2="40" y2="173" fill="rgb(0, 0, 0)" stroke="rgb(204, 204, 204)" stroke-width="1px"></line></g></g><g transform="translate(40, 0)" clip-path="url(#clip_0)"><clipPath id="clip_0"><rect width="290" height="172"></rect></clipPath><g><g><g><line x1="0" y1="0" x2="0" y2="173" fill="rgb(0, 0, 0)" stroke="rgb(66, 66, 66)" stroke-width="1px" opacity="0.25"></line><line x1="20.71428571428571" y1="0" x2="20.71428571428571" y2="173" fill="rgb(0, 0, 0)" stroke="rgb(66, 66, 66)" stroke-width="1px" opacity="0.25"></line><line x1="41.42857142857142" y1="0" x2="41.42857142857142" y2="173" fill="rgb(0, 0, 0)" stroke="rgb(66, 66, 66)" stroke-width="1px" opacity="0.25"></line><line x1="62.14285714285714" y1="0" x2="62.14285714285714" y2="173" fill="rgb(0, 0, 0)" stroke="rgb(66, 66, 66)" stroke-width="1px" opacity="0.25"></line><line x1="82.85714285714285" y1="0" x2="82.85714285714285" y2="173" fill="rgb(0, 0, 0)" stroke="rgb(66, 66, 66)" stroke-width="1px" opacity="0.25"></line><line x1="103.57142857142857" y1="0" x2="103.57142857142857" y2="173" fill="rgb(0, 0, 0)" stroke="rgb(66, 66, 66)" stroke-width="1px" opacity="0.25"></line><line x1="124.28571428571428" y1="0" x2="124.28571428571428" y2="173" fill="rgb(0, 0, 0)" stroke="rgb(66, 66, 66)" stroke-width="1px" opacity="0.25"></line><line x1="145" y1="0" x2="145" y2="173" fill="rgb(0, 0, 0)" stroke="rgb(66, 66, 66)" stroke-width="1px" opacity="0.25"></line><line x1="165.7142857142857" y1="0" x2="165.7142857142857" y2="173" fill="rgb(0, 0, 0)" stroke="rgb(66, 66, 66)" stroke-width="1px" opacity="0.25"></line><line x1="186.42857142857144" y1="0" x2="186.42857142857144" y2="173" fill="rgb(0, 0, 0)" stroke="rgb(66, 66, 66)" stroke-width="1px" opacity="0.25"></line><line x1="207.14285714285714" y1="0" x2="207.14285714285714" y2="173" fill="rgb(0, 0, 0)" stroke="rgb(66, 66, 66)" stroke-width="1px" opacity="0.25"></line><line x1="227.85714285714286" y1="0" x2="227.85714285714286" y2="173" fill="rgb(0, 0, 0)" stroke="rgb(66, 66, 66)" stroke-width="1px" opacity="0.25"></line><line x1="248.57142857142856" y1="0" x2="248.57142857142856" y2="173" fill="rgb(0, 0, 0)" stroke="rgb(66, 66, 66)" stroke-width="1px" opacity="0.25"></line><line x1="269.2857142857143" y1="0" x2="269.2857142857143" y2="173" fill="rgb(0, 0, 0)" stroke="rgb(66, 66, 66)" stroke-width="1px" opacity="0.25"></line><line x1="290" y1="0" x2="290" y2="173" fill="rgb(0, 0, 0)" stroke="rgb(66, 66, 66)" stroke-width="1px" opacity="0.25"></line></g><g><line x1="0" y1="173" x2="290" y2="173" fill="rgb(0, 0, 0)" stroke="rgb(66, 66, 66)" stroke-width="1px" opacity="0.25"></line><line x1="0" y1="155.70000000000002" x2="290" y2="155.70000000000002" fill="rgb(0, 0, 0)" stroke="rgb(66, 66, 66)" stroke-width="1px" opacity="0.25"></line><line x1="0" y1="138.4" x2="290" y2="138.4" fill="rgb(0, 0, 0)" stroke="rgb(66, 66, 66)" stroke-width="1px" opacity="0.25"></line><line x1="0" y1="121.1" x2="290" y2="121.1" fill="rgb(0, 0, 0)" stroke="rgb(66, 66, 66)" stroke-width="1px" opacity="0.25"></line><line x1="0" y1="103.8" x2="290" y2="103.8" fill="rgb(0, 0, 0)" stroke="rgb(66, 66, 66)" stroke-width="1px" opacity="0.25"></line><line x1="0" y1="86.5" x2="290" y2="86.5" fill="rgb(0, 0, 0)" stroke="rgb(66, 66, 66)" stroke-width="1px" opacity="0.25"></line><line x1="0" y1="69.2" x2="290" y2="69.2" fill="rgb(0, 0, 0)" stroke="rgb(66, 66, 66)" stroke-width="1px" opacity="0.25"></line><line x1="0" y1="51.900000000000006" x2="290" y2="51.900000000000006" fill="rgb(0, 0, 0)" stroke="rgb(66, 66, 66)" stroke-width="1px" opacity="0.25"></line><line x1="0" y1="34.599999999999994" x2="290" y2="34.599999999999994" fill="rgb(0, 0, 0)" stroke="rgb(66, 66, 66)" stroke-width="1px" opacity="0.25"></line><line x1="0" y1="17.299999999999997" x2="290" y2="17.299999999999997" fill="rgb(0, 0, 0)" stroke="rgb(66, 66, 66)" stroke-width="1px" opacity="0.25"></line><line x1="0" y1="0" x2="290" y2="0" fill="rgb(0, 0, 0)" stroke="rgb(66, 66, 66)" stroke-width="1px" opacity="0.25"></line></g></g></g><g><g><line x1="0" y1="155.70000000000002" x2="290" y2="155.70000000000002" fill="rgb(0, 0, 0)" stroke="rgb(153, 153, 153)" stroke-width="1.5px"></line></g></g><g><g><line x1="20.71428571428571" y1="0" x2="20.71428571428571" y2="173" fill="rgb(0, 0, 0)" stroke="rgb(153, 153, 153)" stroke-width="1.5px"></line></g></g><g><g><g><g><g><path stroke="rgb(255, 112, 67)" stroke-width="2px" d="M20.71428571428571,154.35062696278095L22.785714285714285,155.209199680242L24.857142857142858,152.03104053266367L26.92857142857143,128.27873781189962L29,143.82199928542897L31.07142857142857,148.9930646327205L33.14285714285714,127.58550363729806L35.214285714285715,143.3543027012968L37.285714285714285,124.72240652953049L39.357142857142854,64.12201402093818L41.42857142857142,115.73117532604913L43.5,132.47823269593502L45.57142857142857,141.41581677018436L47.642857142857146,100.52633667612545L49.714285714285715,131.75633609453402L51.785714285714285,108.69995262920962L53.85714285714286,92.22798909647085L55.92857142857143,64.00254976095601L58,116.37332998059519L60.07142857142858,128.58880191950686L62.14285714285714,144.0693628866362L64.21428571428571,51.36679465804674L66.28571428571428,-167.74285977220572L68.35714285714286,6.515214863490482L70.42857142857143,11.391968140665018L72.5,93.35098803772146L74.57142857142857,18.670195213345345L76.64285714285714,95.80498234169832L78.71428571428571,104.54460383343994L80.78571428571429,66.76374088127801L82.85714285714285,117.48988739702496L84.92857142857143,133.24862359539873L87,131.97604008831618L89.07142857142858,121.24343955321301L91.14285714285714,50.885418877202056L93.21428571428572,110.90431749330908L95.28571428571429,136.32742197728115L97.35714285714285,139.07688916305122L99.42857142857143,144.79432927211735L101.5,127.60586914467672L103.57142857142857,97.11673827069674L105.64285714285714,124.58731302992808L107.71428571428572,122.74731265613083L109.78571428571428,141.53880999377893L111.85714285714286,148.2492563507585L113.92857142857143,-760.4170235495785L118.07142857142857,-23.053109412540934L120.14285714285715,10.280843383902905L122.21428571428571,76.29825645427225L124.28571428571428,109.2113582464909L126.35714285714286,135.4718967459823L128.42857142857142,75.18504475718362L130.5,115.46506364392162L132.57142857142856,134.85243357148045L134.64285714285714,55.69679714565753L136.71428571428572,112.45382211002324L138.78571428571428,132.371746188171L140.85714285714286,142.9514521859505L142.92857142857144,146.1469824064132L145,151.38014189043128L147.07142857142856,152.94221247362665L149.14285714285714,154.46694575704072L151.21428571428572,155.0418806089098L153.28571428571428,146.55328112710401L155.35714285714286,150.5307487880748L157.42857142857142,153.4878395756134L159.5,154.2168141436099L161.57142857142858,153.41435821262465L163.64285714285714,154.69764338693938L165.7142857142857,107.487757451275L167.7857142857143,135.03330914297388L169.85714285714286,146.82684692447728L171.92857142857142,149.80337416040246L174,153.12883014608707L176.07142857142856,124.28193741936252L178.14285714285717,142.13148930570694L180.21428571428572,149.25962037608917L182.28571428571428,152.93571895061513L184.35714285714283,144.3906437459391L186.42857142857144,150.43907669739806L188.5,67.95679717778275L190.57142857142858,115.4550632425962L192.64285714285714,138.48246659362772L194.7142857142857,142.26481032718246L196.7857142857143,149.61095421713495L198.85714285714286,147.51902078216327L200.92857142857142,152.15506958751538L203,154.17336277046314L205.07142857142858,153.12936449343448L207.14285714285714,144.23168681674943L209.21428571428572,150.7994748374976L211.28571428571428,153.43893849185045L213.35714285714286,154.6689869335989L215.42857142857144,154.64402500619428L217.5,147.28986271234535L219.57142857142856,152.04758514744L221.64285714285714,153.3540340226612L223.71428571428572,151.92723733686995L225.78571428571428,154.08899354124657L227.85714285714286,154.15841632659496L229.92857142857142,154.99090911736076L232,154.8950343793772L234.07142857142858,151.28123910639235L236.14285714285714,151.93536920544253L238.2142857142857,154.06064220073523L240.2857142857143,135.94533074486807L242.35714285714286,147.25255721749286L244.42857142857142,149.42840738839095L246.5,153.01898869089356L248.57142857142856,154.35159028706988L250.64285714285717,155.10874061901274L252.71428571428572,134.94004831237646L254.78571428571428,146.56671152568362L256.85714285714283,134.0858385707383L258.92857142857144,146.39664398812775L261,151.7019118149779L263.07142857142856,144.36082766382225L265.1428571428571,147.70557075565375" style="fill: none;" fill="none"></path></g></g></g></g><g opacity="0.2"><g><g><g><path stroke="rgb(255, 112, 67)" stroke-width="2px" d="M20.71428571428571,154.35062696278095L22.785714285714285,155.57581023059785L24.857142857142858,150.0944959974289L26.92857142857143,111.95654769897462L29,155.01978991627695L31.07142857142857,152.7918454682827L33.14285714285714,111.72927005767822L35.214285714285715,155.07480922997L37.285714285714285,110.8532490158081L39.357142857142854,18.983870010375977L41.42857142857142,154.1826087665558L43.5,144.95707775115966L45.57142857142857,148.07586596488952L47.642857142857146,70.0559455871582L49.714285714285715,155.02879756599665L51.785714285714285,91.5183687210083L53.85714285714286,79.95308536529541L55.92857142857143,42.9689436340332L58,155.40006326839327L60.07142857142858,137.6917792701721L62.14285714285714,155.60548725761473L64.21428571428571,-17.715222702026377L66.28571428571428,-331.0235260009766L68.35714285714286,136.37245331764223L70.42857142857143,15.026128082275388L72.5,154.42690684378147L74.57142857142857,-36.981983718872065L76.64285714285714,153.28587954998017L78.71428571428571,111.05737586975098L80.78571428571429,38.60941543579102L82.85714285714285,155.29104719117282L84.92857142857143,144.99204481124877L87,131.02770997047423L89.07142857142858,113.24549814224244L91.14285714285714,-1.5454272460937561L93.21428571428572,155.63044264003634L95.28571428571429,155.27273718610405L97.35714285714285,141.12579402923583L99.42857142857143,149.05496963262559L101.5,114.79701665878295L103.57142857142857,74.3962166595459L105.64285714285714,145.05840451717378L107.71428571428572,121.37614309310912L109.78571428571428,155.542246927768L111.85714285714286,153.24988566040994L113.92857142857143,-1437.5557696533203L116,150.40778643608093L118.07142857142857,137.50880027770995L120.14285714285715,35.1213282775879L122.21428571428571,125.49447875976563L124.28571428571428,133.73822467803956L126.35714285714286,155.04126836776734L128.42857142857142,30.259240570068364L130.5,145.48176183700562L132.57142857142856,149.29991517543792L134.64285714285714,-3.2900383758545093L136.71428571428572,154.7491967344284L138.78571428571428,147.21459711551665L140.85714285714286,150.83545648097993L142.92857142857144,148.52829375743866L145,155.27989599108696L147.07142857142856,154.10626856267453L149.14285714285714,155.6031780642271L151.21428571428572,155.4703224618733L153.28571428571428,140.22757086753845L155.35714285714286,153.49476046562197L157.42857142857142,155.69146569477394L159.5,154.76004650056362L161.57142857142858,152.8163674926758L163.64285714285714,155.6539483946748L165.7142857142857,72.30691749572753L167.7857142857143,155.56027349263428L169.85714285714286,155.6153995120898L171.92857142857142,152.02148433446885L174,155.6069622680545L176.07142857142856,102.78521282196046L178.14285714285717,155.43298783183099L180.21428571428572,154.57150862574576L182.28571428571428,155.67515017456375L184.35714285714283,138.022847738266L186.42857142857144,154.94637315511704L188.5,6.490944900512693L190.57142857142858,150.850804271698L192.64285714285714,155.6425036457926L194.7142857142857,145.083415517807L196.7857142857143,155.0853057721257L198.85714285714286,145.9601105260849L200.92857142857142,155.60985639359802L203,155.67739625932649L205.07142857142858,152.35137624859811L207.14285714285714,137.6011312007904L209.21428571428572,155.69379505540243L211.28571428571428,155.40586864963174L213.35714285714286,155.58561989106238L215.42857142857144,154.62542336046695L217.5,141.80953583717346L219.57142857142856,155.59304322734477L221.64285714285714,154.32760063648223L223.71428571428572,150.86398745059967L225.78571428571428,155.69993577382738L227.85714285714286,154.21015023469926L229.92857142857142,155.61128332618625L232,154.8235884577036L234.07142857142858,148.5882363462448L236.14285714285714,152.42282741189004L238.2142857142857,155.64439712043853L240.2857142857143,122.44578800201415L242.35714285714286,155.6787102782447L244.42857142857142,151.04985245466233L246.5,155.69469238403255L248.57142857142856,155.34464592680337L250.64285714285717,155.6729695749283L252.71428571428572,119.91032472610472L254.78571428571428,155.23090906858445L256.85714285714283,124.78508333206176L258.92857142857144,155.57066477909686L261,155.6554011030495L263.07142857142856,138.89024662971497L265.1428571428571,150.19807564258576" style="fill: none;" fill="none"></path></g></g></g></g></g></g><g transform="translate(40, 173)" clip-path="url(#clip_1)"><clipPath id="clip_1"><rect width="290" height="26"></rect></clipPath><g><g><line x1="0" y1="0" x2="0" y2="5" style="visibility: inherit;" fill="rgb(0, 0, 0)" stroke="rgb(204, 204, 204)" stroke-width="1px"></line><line x1="20.71428571428571" y1="0" x2="20.71428571428571" y2="5" style="visibility: inherit;" fill="rgb(0, 0, 0)" stroke="rgb(204, 204, 204)" stroke-width="1px"></line><line x1="41.42857142857142" y1="0" x2="41.42857142857142" y2="5" style="visibility: inherit;" fill="rgb(0, 0, 0)" stroke="rgb(204, 204, 204)" stroke-width="1px"></line><line x1="62.14285714285714" y1="0" x2="62.14285714285714" y2="5" style="visibility: inherit;" fill="rgb(0, 0, 0)" stroke="rgb(204, 204, 204)" stroke-width="1px"></line><line x1="82.85714285714285" y1="0" x2="82.85714285714285" y2="5" style="visibility: inherit;" fill="rgb(0, 0, 0)" stroke="rgb(204, 204, 204)" stroke-width="1px"></line><line x1="103.57142857142857" y1="0" x2="103.57142857142857" y2="5" style="visibility: inherit;" fill="rgb(0, 0, 0)" stroke="rgb(204, 204, 204)" stroke-width="1px"></line><line x1="124.28571428571428" y1="0" x2="124.28571428571428" y2="5" style="visibility: inherit;" fill="rgb(0, 0, 0)" stroke="rgb(204, 204, 204)" stroke-width="1px"></line><line x1="145" y1="0" x2="145" y2="5" style="visibility: inherit;" fill="rgb(0, 0, 0)" stroke="rgb(204, 204, 204)" stroke-width="1px"></line><line x1="165.7142857142857" y1="0" x2="165.7142857142857" y2="5" style="visibility: inherit;" fill="rgb(0, 0, 0)" stroke="rgb(204, 204, 204)" stroke-width="1px"></line><line x1="186.42857142857144" y1="0" x2="186.42857142857144" y2="5" style="visibility: inherit;" fill="rgb(0, 0, 0)" stroke="rgb(204, 204, 204)" stroke-width="1px"></line><line x1="207.14285714285714" y1="0" x2="207.14285714285714" y2="5" style="visibility: inherit;" fill="rgb(0, 0, 0)" stroke="rgb(204, 204, 204)" stroke-width="1px"></line><line x1="227.85714285714286" y1="0" x2="227.85714285714286" y2="5" style="visibility: inherit;" fill="rgb(0, 0, 0)" stroke="rgb(204, 204, 204)" stroke-width="1px"></line><line x1="248.57142857142856" y1="0" x2="248.57142857142856" y2="5" style="visibility: inherit;" fill="rgb(0, 0, 0)" stroke="rgb(204, 204, 204)" stroke-width="1px"></line><line x1="269.2857142857143" y1="0" x2="269.2857142857143" y2="5" style="visibility: inherit;" fill="rgb(0, 0, 0)" stroke="rgb(204, 204, 204)" stroke-width="1px"></line><line x1="290" y1="0" x2="290" y2="5" style="visibility: inherit;" fill="rgb(0, 0, 0)" stroke="rgb(204, 204, 204)" stroke-width="1px"></line></g><g transform="translate(0, 8)"><text x="0" y="0" dx="0em" dy="0.95em" style="text-anchor: middle; visibility: hidden; font-family: Roboto, sans-serif; font-size: 12px; font-weight: 200;" fill="rgb(33, 33, 33)" stroke="none" stroke-width="1px">-10</text><text x="20.71428571428571" y="0" dx="0em" dy="0.95em" style="text-anchor: middle; visibility: inherit; font-family: Roboto, sans-serif; font-size: 12px; font-weight: 200;" fill="rgb(33, 33, 33)" stroke="none" stroke-width="1px">0</text><text x="41.42857142857142" y="0" dx="0em" dy="0.95em" style="text-anchor: middle; visibility: hidden; font-family: Roboto, sans-serif; font-size: 12px; font-weight: 200;" fill="rgb(33, 33, 33)" stroke="none" stroke-width="1px">10</text><text x="62.14285714285714" y="0" dx="0em" dy="0.95em" style="text-anchor: middle; visibility: inherit; font-family: Roboto, sans-serif; font-size: 12px; font-weight: 200;" fill="rgb(33, 33, 33)" stroke="none" stroke-width="1px">20</text><text x="82.85714285714285" y="0" dx="0em" dy="0.95em" style="text-anchor: middle; visibility: hidden; font-family: Roboto, sans-serif; font-size: 12px; font-weight: 200;" fill="rgb(33, 33, 33)" stroke="none" stroke-width="1px">30</text><text x="103.57142857142857" y="0" dx="0em" dy="0.95em" style="text-anchor: middle; visibility: inherit; font-family: Roboto, sans-serif; font-size: 12px; font-weight: 200;" fill="rgb(33, 33, 33)" stroke="none" stroke-width="1px">40</text><text x="124.28571428571428" y="0" dx="0em" dy="0.95em" style="text-anchor: middle; visibility: hidden; font-family: Roboto, sans-serif; font-size: 12px; font-weight: 200;" fill="rgb(33, 33, 33)" stroke="none" stroke-width="1px">50</text><text x="145" y="0" dx="0em" dy="0.95em" style="text-anchor: middle; visibility: inherit; font-family: Roboto, sans-serif; font-size: 12px; font-weight: 200;" fill="rgb(33, 33, 33)" stroke="none" stroke-width="1px">60</text><text x="165.7142857142857" y="0" dx="0em" dy="0.95em" style="text-anchor: middle; visibility: hidden; font-family: Roboto, sans-serif; font-size: 12px; font-weight: 200;" fill="rgb(33, 33, 33)" stroke="none" stroke-width="1px">70</text><text x="186.42857142857144" y="0" dx="0em" dy="0.95em" style="text-anchor: middle; visibility: inherit; font-family: Roboto, sans-serif; font-size: 12px; font-weight: 200;" fill="rgb(33, 33, 33)" stroke="none" stroke-width="1px">80</text><text x="207.14285714285714" y="0" dx="0em" dy="0.95em" style="text-anchor: middle; visibility: hidden; font-family: Roboto, sans-serif; font-size: 12px; font-weight: 200;" fill="rgb(33, 33, 33)" stroke="none" stroke-width="1px">90</text><text x="227.85714285714286" y="0" dx="0em" dy="0.95em" style="text-anchor: middle; visibility: inherit; font-family: Roboto, sans-serif; font-size: 12px; font-weight: 200;" fill="rgb(33, 33, 33)" stroke="none" stroke-width="1px">100</text><text x="248.57142857142856" y="0" dx="0em" dy="0.95em" style="text-anchor: middle; visibility: hidden; font-family: Roboto, sans-serif; font-size: 12px; font-weight: 200;" fill="rgb(33, 33, 33)" stroke="none" stroke-width="1px">110</text><text x="269.2857142857143" y="0" dx="0em" dy="0.95em" style="text-anchor: middle; visibility: inherit; font-family: Roboto, sans-serif; font-size: 12px; font-weight: 200;" fill="rgb(33, 33, 33)" stroke="none" stroke-width="1px">120</text><text x="290" y="0" dx="0em" dy="0.95em" style="text-anchor: middle; visibility: hidden; font-family: Roboto, sans-serif; font-size: 12px; font-weight: 200;" fill="rgb(33, 33, 33)" stroke="none" stroke-width="1px">130</text></g><line x1="0" y1="0" x2="290" y2="0" fill="rgb(0, 0, 0)" stroke="rgb(204, 204, 204)" stroke-width="1px"></line></g></g></g></g></svg>