<svg viewBox="0 0 330 200" xmlns="http://www.w3.org/2000/svg"><g><g><g><g><g><line x1="82.734375" y1="177" x2="77.734375" y2="177" style="visibility: inherit;" fill="rgb(0, 0, 0)" stroke="rgb(204, 204, 204)" stroke-width="1px"></line><line x1="82.734375" y1="160.9090909090909" x2="77.734375" y2="160.9090909090909" style="visibility: inherit;" fill="rgb(0, 0, 0)" stroke="rgb(204, 204, 204)" stroke-width="1px"></line><line x1="82.734375" y1="144.8181818181818" x2="77.734375" y2="144.8181818181818" style="visibility: inherit;" fill="rgb(0, 0, 0)" stroke="rgb(204, 204, 204)" stroke-width="1px"></line><line x1="82.734375" y1="128.72727272727272" x2="77.734375" y2="128.72727272727272" style="visibility: inherit;" fill="rgb(0, 0, 0)" stroke="rgb(204, 204, 204)" stroke-width="1px"></line><line x1="82.734375" y1="112.63636363636364" x2="77.734375" y2="112.63636363636364" style="visibility: inherit;" fill="rgb(0, 0, 0)" stroke="rgb(204, 204, 204)" stroke-width="1px"></line><line x1="82.734375" y1="96.54545454545453" x2="77.734375" y2="96.54545454545453" style="visibility: inherit;" fill="rgb(0, 0, 0)" stroke="rgb(204, 204, 204)" stroke-width="1px"></line><line x1="82.734375" y1="80.45454545454547" x2="77.734375" y2="80.45454545454547" style="visibility: inherit;" fill="rgb(0, 0, 0)" stroke="rgb(204, 204, 204)" stroke-width="1px"></line><line x1="82.734375" y1="64.36363636363636" x2="77.734375" y2="64.36363636363636" style="visibility: inherit;" fill="rgb(0, 0, 0)" stroke="rgb(204, 204, 204)" stroke-width="1px"></line><line x1="82.734375" y1="48.272727272727266" x2="77.734375" y2="48.272727272727266" style="visibility: inherit;" fill="rgb(0, 0, 0)" stroke="rgb(204, 204, 204)" stroke-width="1px"></line><line x1="82.734375" y1="32.18181818181817" x2="77.734375" y2="32.18181818181817" style="visibility: inherit;" fill="rgb(0, 0, 0)" stroke="rgb(204, 204, 204)" stroke-width="1px"></line><line x1="82.734375" y1="16.090909090909097" x2="77.734375" y2="16.090909090909097" style="visibility: inherit;" fill="rgb(0, 0, 0)" stroke="rgb(204, 204, 204)" stroke-width="1px"></line><line x1="82.734375" y1="0" x2="77.734375" y2="0" style="visibility: inherit;" fill="rgb(0, 0, 0)" stroke="rgb(204, 204, 204)" stroke-width="1px"></line></g><g transform="translate(72.734375, 0)"><text x="0" y="177" dx="0em" dy="0.3em" style="text-anchor: end; visibility: hidden; font-family: Roboto, sans-serif; font-size: 12px; font-weight: 200;" fill="rgb(33, 33, 33)" stroke="none" stroke-width="1px">-1.1e+3</text><text x="0" y="160.9090909090909" dx="0em" dy="0.3em" style="text-anchor: end; visibility: inherit; font-family: Roboto, sans-serif; font-size: 12px; font-weight: 200;" fill="rgb(33, 33, 33)" stroke="none" stroke-width="1px">-1e+3</text><text x="0" y="144.8181818181818" dx="0em" dy="0.3em" style="text-anchor: end; visibility: hidden; font-family: Roboto, sans-serif; font-size: 12px; font-weight: 200;" fill="rgb(33, 33, 33)" stroke="none" stroke-width="1px">-900</text><text x="0" y="128.72727272727272" dx="0em" dy="0.3em" style="text-anchor: end; visibility: inherit; font-family: Roboto, sans-serif; font-size: 12px; font-weight: 200;" fill="rgb(33, 33, 33)" stroke="none" stroke-width="1px">-800</text><text x="0" y="112.63636363636364" dx="0em" dy="0.3em" style="text-anchor: end; visibility: hidden; font-family: Roboto, sans-serif; font-size: 12px; font-weight: 200;" fill="rgb(33, 33, 33)" stroke="none" stroke-width="1px">-700</text><text x="0" y="96.54545454545453" dx="0em" dy="0.3em" style="text-anchor: end; visibility: inherit; font-family: Roboto, sans-serif; font-size: 12px; font-weight: 200;" fill="rgb(33, 33, 33)" stroke="none" stroke-width="1px">-600</text><text x="0" y="80.45454545454547" dx="0em" dy="0.3em" style="text-anchor: end; visibility: hidden; font-family: Roboto, sans-serif; font-size: 12px; font-weight: 200;" fill="rgb(33, 33, 33)" stroke="none" stroke-width="1px">-500</text><text x="0" y="64.36363636363636" dx="0em" dy="0.3em" style="text-anchor: end; visibility: inherit; font-family: Roboto, sans-serif; font-size: 12px; font-weight: 200;" fill="rgb(33, 33, 33)" stroke="none" stroke-width="1px">-400</text><text x="0" y="48.272727272727266" dx="0em" dy="0.3em" style="text-anchor: end; visibility: hidden; font-family: Roboto, sans-serif; font-size: 12px; font-weight: 200;" fill="rgb(33, 33, 33)" stroke="none" stroke-width="1px">-300</text><text x="0" y="32.18181818181817" dx="0em" dy="0.3em" style="text-anchor: end; visibility: inherit; font-family: Roboto, sans-serif; font-size: 12px; font-weight: 200;" fill="rgb(33, 33, 33)" stroke="none" stroke-width="1px">-200</text><text x="0" y="16.090909090909097" dx="0em" dy="0.3em" style="text-anchor: end; visibility: hidden; font-family: Roboto, sans-serif; font-size: 12px; font-weight: 200;" fill="rgb(33, 33, 33)" stroke="none" stroke-width="1px">-100</text><text x="0" y="0" dx="0em" dy="0.3em" style="text-anchor: end; visibility: hidden; font-family: Roboto, sans-serif; font-size: 12px; font-weight: 200;" fill="rgb(33, 33, 33)" stroke="none" stroke-width="1px">0</text></g><line x1="82.734375" y1="0" x2="82.734375" y2="177" fill="rgb(0, 0, 0)" stroke="rgb(204, 204, 204)" stroke-width="1px"></line></g></g><g transform="translate(82, 0)" clip-path="url(#clip_0)"><clipPath id="clip_0"><rect width="247" height="176"></rect></clipPath><g><g><g><line x1="0" y1="0" x2="0" y2="177" fill="rgb(0, 0, 0)" stroke="rgb(66, 66, 66)" stroke-width="1px" opacity="0.25"></line><line x1="17.661830357142858" y1="0" x2="17.661830357142858" y2="177" fill="rgb(0, 0, 0)" stroke="rgb(66, 66, 66)" stroke-width="1px" opacity="0.25"></line><line x1="35.323660714285715" y1="0" x2="35.323660714285715" y2="177" fill="rgb(0, 0, 0)" stroke="rgb(66, 66, 66)" stroke-width="1px" opacity="0.25"></line><line x1="52.98549107142857" y1="0" x2="52.98549107142857" y2="177" fill="rgb(0, 0, 0)" stroke="rgb(66, 66, 66)" stroke-width="1px" opacity="0.25"></line><line x1="70.64732142857143" y1="0" x2="70.64732142857143" y2="177" fill="rgb(0, 0, 0)" stroke="rgb(66, 66, 66)" stroke-width="1px" opacity="0.25"></line><line x1="88.30915178571429" y1="0" x2="88.30915178571429" y2="177" fill="rgb(0, 0, 0)" stroke="rgb(66, 66, 66)" stroke-width="1px" opacity="0.25"></line><line x1="105.97098214285714" y1="0" x2="105.97098214285714" y2="177" fill="rgb(0, 0, 0)" stroke="rgb(66, 66, 66)" stroke-width="1px" opacity="0.25"></line><line x1="123.6328125" y1="0" x2="123.6328125" y2="177" fill="rgb(0, 0, 0)" stroke="rgb(66, 66, 66)" stroke-width="1px" opacity="0.25"></line><line x1="141.29464285714286" y1="0" x2="141.29464285714286" y2="177" fill="rgb(0, 0, 0)" stroke="rgb(66, 66, 66)" stroke-width="1px" opacity="0.25"></line><line x1="158.95647321428572" y1="0" x2="158.95647321428572" y2="177" fill="rgb(0, 0, 0)" stroke="rgb(66, 66, 66)" stroke-width="1px" opacity="0.25"></line><line x1="176.61830357142858" y1="0" x2="176.61830357142858" y2="177" fill="rgb(0, 0, 0)" stroke="rgb(66, 66, 66)" stroke-width="1px" opacity="0.25"></line><line x1="194.28013392857142" y1="0" x2="194.28013392857142" y2="177" fill="rgb(0, 0, 0)" stroke="rgb(66, 66, 66)" stroke-width="1px" opacity="0.25"></line><line x1="211.94196428571428" y1="0" x2="211.94196428571428" y2="177" fill="rgb(0, 0, 0)" stroke="rgb(66, 66, 66)" stroke-width="1px" opacity="0.25"></line><line x1="229.60379464285714" y1="0" x2="229.60379464285714" y2="177" fill="rgb(0, 0, 0)" stroke="rgb(66, 66, 66)" stroke-width="1px" opacity="0.25"></line><line x1="247.265625" y1="0" x2="247.265625" y2="177" fill="rgb(0, 0, 0)" stroke="rgb(66, 66, 66)" stroke-width="1px" opacity="0.25"></line></g><g><line x1="0" y1="177" x2="247.265625" y2="177" fill="rgb(0, 0, 0)" stroke="rgb(66, 66, 66)" stroke-width="1px" opacity="0.25"></line><line x1="0" y1="160.9090909090909" x2="247.265625" y2="160.9090909090909" fill="rgb(0, 0, 0)" stroke="rgb(66, 66, 66)" stroke-width="1px" opacity="0.25"></line><line x1="0" y1="144.8181818181818" x2="247.265625" y2="144.8181818181818" fill="rgb(0, 0, 0)" stroke="rgb(66, 66, 66)" stroke-width="1px" opacity="0.25"></line><line x1="0" y1="128.72727272727272" x2="247.265625" y2="128.72727272727272" fill="rgb(0, 0, 0)" stroke="rgb(66, 66, 66)" stroke-width="1px" opacity="0.25"></line><line x1="0" y1="112.63636363636364" x2="247.265625" y2="112.63636363636364" fill="rgb(0, 0, 0)" stroke="rgb(66, 66, 66)" stroke-width="1px" opacity="0.25"></line><line x1="0" y1="96.54545454545453" x2="247.265625" y2="96.54545454545453" fill="rgb(0, 0, 0)" stroke="rgb(66, 66, 66)" stroke-width="1px" opacity="0.25"></line><line x1="0" y1="80.45454545454547" x2="247.265625" y2="80.45454545454547" fill="rgb(0, 0, 0)" stroke="rgb(66, 66, 66)" stroke-width="1px" opacity="0.25"></line><line x1="0" y1="64.36363636363636" x2="247.265625" y2="64.36363636363636" fill="rgb(0, 0, 0)" stroke="rgb(66, 66, 66)" stroke-width="1px" opacity="0.25"></line><line x1="0" y1="48.272727272727266" x2="247.265625" y2="48.272727272727266" fill="rgb(0, 0, 0)" stroke="rgb(66, 66, 66)" stroke-width="1px" opacity="0.25"></line><line x1="0" y1="32.18181818181817" x2="247.265625" y2="32.18181818181817" fill="rgb(0, 0, 0)" stroke="rgb(66, 66, 66)" stroke-width="1px" opacity="0.25"></line><line x1="0" y1="16.090909090909097" x2="247.265625" y2="16.090909090909097" fill="rgb(0, 0, 0)" stroke="rgb(66, 66, 66)" stroke-width="1px" opacity="0.25"></line><line x1="0" y1="0" x2="247.265625" y2="0" fill="rgb(0, 0, 0)" stroke="rgb(66, 66, 66)" stroke-width="1px" opacity="0.25"></line></g></g></g><g><g><line x1="0" y1="0" x2="247.265625" y2="0" fill="rgb(0, 0, 0)" stroke="rgb(153, 153, 153)" stroke-width="1.5px"></line></g></g><g><g><line x1="17.661830357142858" y1="0" x2="17.661830357142858" y2="177" fill="rgb(0, 0, 0)" stroke="rgb(153, 153, 153)" stroke-width="1.5px"></line></g></g><g><g><g><g><g><path stroke="rgb(255, 112, 67)" stroke-width="2px" d="M17.661830357142858,164.1007753684304L19.428013392857142,196.7576985943304L21.194196428571427,162.73440101963732L22.960379464285715,150.88344361058176L24.7265625,222.84799636712157L26.492745535714285,163.12637185801665L28.25892857142857,160.30555445217232L30.025111607142858,139.41802475067544L31.79129464285714,106.56674989687613L33.55747767857142,115.23512310420203L35.323660714285715,145.4529834754151L37.08984375,133.8992716503459L38.856026785714285,126.09712268785981L40.62220982142857,156.19379524314903L42.388392857142854,134.3265872128913L44.154575892857146,133.9332898328975L45.92075892857143,68.2293829055412L47.686941964285715,62.677132899480945L49.453125,55.15476006998822L51.21930803571429,34.343287731856904L52.98549107142857,49.3278462280919L54.751674107142854,45.28168289949572L56.51785714285714,30.460929948162747L58.28404017857143,36.89047384534003L60.050223214285715,39.2553619628537L61.81640625,40.16098593104208L63.58258928571428,28.897848700305765L65.34877232142857,24.31351863575836L67.11495535714285,22.457511452947173L68.88113839285714,20.779812227791503L70.64732142857143,53.695818119777286L72.41350446428572,35.5350101424212L74.1796875,43.86341611579231L75.94587053571429,18.880459481063163L77.71205357142857,19.351506332032482L79.47823660714286,33.12115103955514L81.24441964285714,25.094636034565653L83.01060267857142,21.819791859181592L84.77678571428571,20.794049661801118L86.54296875,30.37335393118057L88.30915178571429,13.497100773640984L90.07533482142857,17.47219503896177L91.84151785714286,18.818625363398812L93.60770089285714,19.570762395960532L95.37388392857143,19.993067207080763L97.14006696428571,31.409547804529083L98.90625,43.67624850319332L100.67243303571429,29.734366766078722L102.43861607142858,24.31342558951362L104.20479910714286,21.343064843497835L105.97098214285714,29.603587544485706L107.73716517857143,35.79031120499003L109.50334821428571,26.536956526255782L111.26953125,32.731217515027645L113.03571428571428,25.61184363739236L114.80189732142857,40.727688357461844L116.56808035714286,17.691013417028856L118.33426339285715,19.10400980578559L120.10044642857143,19.381658032996885L121.86662946428572,30.5061761018437L123.6328125,24.651416055919277L125.39899553571428,43.226135039206035L127.16517857142856,51.471593764163515L128.93136160714286,33.74488550099578L130.69754464285714,14.646660632453255L132.46372767857142,38.33269938399731L134.2299107142857,27.588775118281763L135.99609375,23.39215944371948L137.76227678571428,32.69463389141153L139.52845982142858,24.99334235705336L141.29464285714286,54.98480943030833L143.06082589285717,34.54486808891094L144.82700892857144,26.28318935123326L146.59319196428572,33.00849863148556L148.359375,36.84057039700918L150.12555803571428,27.26325305377731L151.89174107142858,23.30071246404562L153.65792410714286,33.51280715714781L155.42410714285714,25.91534728064713L157.19029017857142,33.51027489356155L158.95647321428572,25.394065818826366L160.72265625,37.682807802581394L162.48883928571428,38.28762109675796L164.25502232142856,28.205570305311618L166.02120535714283,34.24181424238622L167.78738839285714,47.6223933747917L169.55357142857142,43.8955016931319L171.31975446428572,30.21223266258275L173.0859375,24.39545401563232L174.8521205357143,22.338975524331868L176.61830357142858,32.02409153164172L178.38448660714286,24.883977409224364L180.15066964285714,21.636464273656525L181.91685267857144,20.319943313213482L183.68303571428572,19.77660510240236L185.44921875,31.820758354619684L187.21540178571428,57.84929695057912L188.98158482142856,47.99981895622248L190.74776785714286,54.20100778766303L192.51395089285714,69.54707515484984L194.28013392857142,64.15798800188193L196.0463169642857,39.29792068981406L197.8125,28.846721923230245L199.57868303571428,23.98209287090919L201.34486607142858,21.263528334389413L203.11104910714286,20.395110939902818L204.87723214285717,20.78004211110679L206.64341517857144,42.482948641121666L208.40959821428572,40.93046161353781L210.17578125,28.68908523554121L211.94196428571428,12.442509927235431L213.70814732142858,17.37698964959903L215.47433035714286,18.894717195492476L217.24051339285714,19.96795339251912L219.00669642857142,20.14361516844375L220.77287946428572,8.81768303877039L222.5390625,4.19844444108354L224.30524553571428,23.436873861697574L226.07142857142856,21.11987343697953L227.83761160714283,33.16070756345296" style="fill: none;" fill="none"></path></g></g></g></g><g opacity="0.2"><g><g><g><path stroke="rgb(255, 112, 67)" stroke-width="2px" d="M17.661830357142858,164.1007753684304L19.428013392857142,210.70220481178976L21.194196428571427,142.00301913174715L22.960379464285715,142.7396614213423L24.7265625,274.69322820490055L26.492745535714285,119.25352411443536L28.25892857142857,158.216220703125L30.025111607142858,123.8929091574929L31.79129464285714,82.11301200173119L33.55747767857142,121.69175254128196L35.323660714285715,167.96681662819603L37.08984375,125.29017833362927L38.856026785714285,120.28316944469105L40.62220982142857,178.6215047940341L42.388392857142854,118.03123768199573L44.154575892857146,133.640205189098L45.92075892857143,19.266845397949215L47.686941964285715,58.53959447687323L49.453125,49.54908383456144L51.21930803571429,18.834565492109817L52.98549107142857,60.49434922651812L54.751674107142854,42.26647921475497L56.51785714285714,19.416494584517054L58.28404017857143,41.681774430708444L60.050223214285715,41.017678236527885L61.81640625,40.8358575439453L63.58258928571428,20.504550975452766L65.34877232142857,20.89727267178623L67.11495535714285,21.074413604736332L68.88113839285714,19.529589594060724L70.64732142857143,78.224848688299L72.41350446428572,22.001563360040837L74.1796875,50.06975006103516L75.94587053571429,0.2631427567655348L77.71205357142857,19.702530774203208L79.47823660714286,43.38229988791726L81.24441964285714,19.113271449695926L83.01060267857142,19.379375693581327L84.77678571428571,20.029665860262778L86.54296875,37.51185815984552L88.30915178571429,0.9209051396630094L90.07533482142857,20.434438060413704L91.84151785714286,19.821986181085755L93.60770089285714,20.131255437677556L95.37388392857143,20.307769047130243L97.14006696428571,39.917117115367546L98.90625,52.81740242697975L100.67243303571429,19.344866763028232L102.43861607142858,20.273736440485166L104.20479910714286,19.1295499420166L105.97098214285714,35.7593348277699L107.73716517857143,40.400661995627665L109.50334821428571,19.64135016007857L111.26953125,37.347185127951875L113.03571428571428,20.30648125388405L114.80189732142857,51.99202639493076L116.56808035714286,0.5240671699697389L118.33426339285715,20.15697570107199L120.10044642857143,19.588561685735524L121.86662946428572,38.796174732555045L123.6328125,20.28844478260388L125.39899553571428,57.06802859219637L127.16517857142856,57.61611536199396L128.93136160714286,20.534930128617724L130.69754464285714,0.41465012832122194L132.46372767857142,55.98355199640448L134.2299107142857,19.5823952553489L135.99609375,20.264838513461033L137.76227678571428,39.62684434370561L139.52845982142858,19.254334529529917L141.29464285714286,77.33447162974966L143.06082589285717,19.31300953258167L144.82700892857144,20.12658058860085L146.59319196428572,38.02020380193537L148.359375,39.69623295177114L150.12555803571428,20.126229483864527L151.89174107142858,20.34782445040617L153.65792410714286,41.12286725130947L155.42410714285714,20.253714877041908L157.19029017857142,39.170020252574574L158.95647321428572,19.345861150568176L160.72265625,46.84038690740412L162.48883928571428,38.73832838578658L164.25502232142856,20.692419017444966L166.02120535714283,38.74002743807706L167.78738839285714,57.593610284978695L169.55357142857142,41.118219410289406L171.31975446428572,20.01545102899726L173.0859375,20.06078650734641L174.8521205357143,20.8064863170277L176.61830357142858,39.24144674127753L178.38448660714286,19.563159380826075L180.15066964285714,19.21641521800648L181.91685267857144,19.338870974454007L183.68303571428572,19.3717090884122L185.44921875,40.79606976595791L187.21540178571428,77.2457820822976L188.98158482142856,40.65998107910157L190.74776785714286,58.82213803378018L192.51395089285714,80.98297526966442L194.28013392857142,60.1420364934748L196.0463169642857,20.77218117453835L197.8125,21.058481306596235L199.57868303571428,20.356967905217953L201.34486607142858,19.237652143998577L203.11104910714286,19.74796569130638L204.87723214285717,21.066893088600857L206.64341517857144,58.6559697376598L208.40959821428572,39.773547196821724L210.17578125,19.566803013194683L211.94196428571428,0.33555066607215145L213.70814732142858,21.054167383367357L215.47433035714286,20.025728822187943L217.24051339285714,20.76772975574841L219.00669642857142,20.27451844648882L220.77287946428572,0.3775905093279711L222.5390625,0.7561846134879455L224.30524553571428,37.77336489590731L226.07142857142856,19.393243103027345L227.83761160714283,42.13354555996981" style="fill: none;" fill="none"></path></g></g></g></g></g></g><g transform="translate(82, 177)" clip-path="url(#clip_1)"><clipPath id="clip_1"><rect width="247" height="22"></rect></clipPath><g><g><line x1="0" y1="0" x2="0" y2="5" style="visibility: inherit;" fill="rgb(0, 0, 0)" stroke="rgb(204, 204, 204)" stroke-width="1px"></line><line x1="17.661830357142858" y1="0" x2="17.661830357142858" y2="5" style="visibility: inherit;" fill="rgb(0, 0, 0)" stroke="rgb(204, 204, 204)" stroke-width="1px"></line><line x1="35.323660714285715" y1="0" x2="35.323660714285715" y2="5" style="visibility: inherit;" fill="rgb(0, 0, 0)" stroke="rgb(204, 204, 204)" stroke-width="1px"></line><line x1="52.98549107142857" y1="0" x2="52.98549107142857" y2="5" style="visibility: inherit;" fill="rgb(0, 0, 0)" stroke="rgb(204, 204, 204)" stroke-width="1px"></line><line x1="70.64732142857143" y1="0" x2="70.64732142857143" y2="5" style="visibility: inherit;" fill="rgb(0, 0, 0)" stroke="rgb(204, 204, 204)" stroke-width="1px"></line><line x1="88.30915178571429" y1="0" x2="88.30915178571429" y2="5" style="visibility: inherit;" fill="rgb(0, 0, 0)" stroke="rgb(204, 204, 204)" stroke-width="1px"></line><line x1="105.97098214285714" y1="0" x2="105.97098214285714" y2="5" style="visibility: inherit;" fill="rgb(0, 0, 0)" stroke="rgb(204, 204, 204)" stroke-width="1px"></line><line x1="123.6328125" y1="0" x2="123.6328125" y2="5" style="visibility: inherit;" fill="rgb(0, 0, 0)" stroke="rgb(204, 204, 204)" stroke-width="1px"></line><line x1="141.29464285714286" y1="0" x2="141.29464285714286" y2="5" style="visibility: inherit;" fill="rgb(0, 0, 0)" stroke="rgb(204, 204, 204)" stroke-width="1px"></line><line x1="158.95647321428572" y1="0" x2="158.95647321428572" y2="5" style="visibility: inherit;" fill="rgb(0, 0, 0)" stroke="rgb(204, 204, 204)" stroke-width="1px"></line><line x1="176.61830357142858" y1="0" x2="176.61830357142858" y2="5" style="visibility: inherit;" fill="rgb(0, 0, 0)" stroke="rgb(204, 204, 204)" stroke-width="1px"></line><line x1="194.28013392857142" y1="0" x2="194.28013392857142" y2="5" style="visibility: inherit;" fill="rgb(0, 0, 0)" stroke="rgb(204, 204, 204)" stroke-width="1px"></line><line x1="211.94196428571428" y1="0" x2="211.94196428571428" y2="5" style="visibility: inherit;" fill="rgb(0, 0, 0)" stroke="rgb(204, 204, 204)" stroke-width="1px"></line><line x1="229.60379464285714" y1="0" x2="229.60379464285714" y2="5" style="visibility: inherit;" fill="rgb(0, 0, 0)" stroke="rgb(204, 204, 204)" stroke-width="1px"></line><line x1="247.265625" y1="0" x2="247.265625" y2="5" style="visibility: inherit;" fill="rgb(0, 0, 0)" stroke="rgb(204, 204, 204)" stroke-width="1px"></line></g><g transform="translate(0, 8)"><text x="0" y="0" dx="0em" dy="0.95em" style="text-anchor: middle; visibility: hidden; font-family: Roboto, sans-serif; font-size: 12px; font-weight: 200;" fill="rgb(33, 33, 33)" stroke="none" stroke-width="1px">-10</text><text x="17.661830357142858" y="0" dx="0em" dy="0.95em" style="text-anchor: middle; visibility: inherit; font-family: Roboto, sans-serif; font-size: 12px; font-weight: 200;" fill="rgb(33, 33, 33)" stroke="none" stroke-width="1px">0</text><text x="35.323660714285715" y="0" dx="0em" dy="0.95em" style="text-anchor: middle; visibility: hidden; font-family: Roboto, sans-serif; font-size: 12px; font-weight: 200;" fill="rgb(33, 33, 33)" stroke="none" stroke-width="1px">10</text><text x="52.98549107142857" y="0" dx="0em" dy="0.95em" style="text-anchor: middle; visibility: inherit; font-family: Roboto, sans-serif; font-size: 12px; font-weight: 200;" fill="rgb(33, 33, 33)" stroke="none" stroke-width="1px">20</text><text x="70.64732142857143" y="0" dx="0em" dy="0.95em" style="text-anchor: middle; visibility: hidden; font-family: Roboto, sans-serif; font-size: 12px; font-weight: 200;" fill="rgb(33, 33, 33)" stroke="none" stroke-width="1px">30</text><text x="88.30915178571429" y="0" dx="0em" dy="0.95em" style="text-anchor: middle; visibility: inherit; font-family: Roboto, sans-serif; font-size: 12px; font-weight: 200;" fill="rgb(33, 33, 33)" stroke="none" stroke-width="1px">40</text><text x="105.97098214285714" y="0" dx="0em" dy="0.95em" style="text-anchor: middle; visibility: hidden; font-family: Roboto, sans-serif; font-size: 12px; font-weight: 200;" fill="rgb(33, 33, 33)" stroke="none" stroke-width="1px">50</text><text x="123.6328125" y="0" dx="0em" dy="0.95em" style="text-anchor: middle; visibility: inherit; font-family: Roboto, sans-serif; font-size: 12px; font-weight: 200;" fill="rgb(33, 33, 33)" stroke="none" stroke-width="1px">60</text><text x="141.29464285714286" y="0" dx="0em" dy="0.95em" style="text-anchor: middle; visibility: hidden; font-family: Roboto, sans-serif; font-size: 12px; font-weight: 200;" fill="rgb(33, 33, 33)" stroke="none" stroke-width="1px">70</text><text x="158.95647321428572" y="0" dx="0em" dy="0.95em" style="text-anchor: middle; visibility: inherit; font-family: Roboto, sans-serif; font-size: 12px; font-weight: 200;" fill="rgb(33, 33, 33)" stroke="none" stroke-width="1px">80</text><text x="176.61830357142858" y="0" dx="0em" dy="0.95em" style="text-anchor: middle; visibility: hidden; font-family: Roboto, sans-serif; font-size: 12px; font-weight: 200;" fill="rgb(33, 33, 33)" stroke="none" stroke-width="1px">90</text><text x="194.28013392857142" y="0" dx="0em" dy="0.95em" style="text-anchor: middle; visibility: inherit; font-family: Roboto, sans-serif; font-size: 12px; font-weight: 200;" fill="rgb(33, 33, 33)" stroke="none" stroke-width="1px">100</text><text x="211.94196428571428" y="0" dx="0em" dy="0.95em" style="text-anchor: middle; visibility: hidden; font-family: Roboto, sans-serif; font-size: 12px; font-weight: 200;" fill="rgb(33, 33, 33)" stroke="none" stroke-width="1px">110</text><text x="229.60379464285714" y="0" dx="0em" dy="0.95em" style="text-anchor: middle; visibility: inherit; font-family: Roboto, sans-serif; font-size: 12px; font-weight: 200;" fill="rgb(33, 33, 33)" stroke="none" stroke-width="1px">120</text><text x="247.265625" y="0" dx="0em" dy="0.95em" style="text-anchor: middle; visibility: hidden; font-family: Roboto, sans-serif; font-size: 12px; font-weight: 200;" fill="rgb(33, 33, 33)" stroke="none" stroke-width="1px">130</text></g><line x1="0" y1="0" x2="247.265625" y2="0" fill="rgb(0, 0, 0)" stroke="rgb(204, 204, 204)" stroke-width="1px"></line></g></g></g></g></svg>