<svg viewBox="0 0 330 200" xmlns="http://www.w3.org/2000/svg"><g><g><g><g><g><line x1="30.70800018310547" y1="176.95999908447266" x2="25.70800018310547" y2="176.95999908447266" style="visibility: inherit;" fill="rgb(0, 0, 0)" stroke="rgb(204, 204, 204)" stroke-width="1px"></line><line x1="30.70800018310547" y1="160.8727264404297" x2="25.70800018310547" y2="160.8727264404297" style="visibility: inherit;" fill="rgb(0, 0, 0)" stroke="rgb(204, 204, 204)" stroke-width="1px"></line><line x1="30.70800018310547" y1="144.78545379638672" x2="25.70800018310547" y2="144.78545379638672" style="visibility: inherit;" fill="rgb(0, 0, 0)" stroke="rgb(204, 204, 204)" stroke-width="1px"></line><line x1="30.70800018310547" y1="128.69818115234375" x2="25.70800018310547" y2="128.69818115234375" style="visibility: inherit;" fill="rgb(0, 0, 0)" stroke="rgb(204, 204, 204)" stroke-width="1px"></line><line x1="30.70800018310547" y1="112.61090850830078" x2="25.70800018310547" y2="112.61090850830078" style="visibility: inherit;" fill="rgb(0, 0, 0)" stroke="rgb(204, 204, 204)" stroke-width="1px"></line><line x1="30.70800018310547" y1="96.5236358642578" x2="25.70800018310547" y2="96.5236358642578" style="visibility: inherit;" fill="rgb(0, 0, 0)" stroke="rgb(204, 204, 204)" stroke-width="1px"></line><line x1="30.70800018310547" y1="80.43636322021486" x2="25.70800018310547" y2="80.43636322021486" style="visibility: inherit;" fill="rgb(0, 0, 0)" stroke="rgb(204, 204, 204)" stroke-width="1px"></line><line x1="30.70800018310547" y1="64.34909057617188" x2="25.70800018310547" y2="64.34909057617188" style="visibility: inherit;" fill="rgb(0, 0, 0)" stroke="rgb(204, 204, 204)" stroke-width="1px"></line><line x1="30.70800018310547" y1="48.2618179321289" x2="25.70800018310547" y2="48.2618179321289" style="visibility: inherit;" fill="rgb(0, 0, 0)" stroke="rgb(204, 204, 204)" stroke-width="1px"></line><line x1="30.70800018310547" y1="32.17454528808593" x2="25.70800018310547" y2="32.17454528808593" style="visibility: inherit;" fill="rgb(0, 0, 0)" stroke="rgb(204, 204, 204)" stroke-width="1px"></line><line x1="30.70800018310547" y1="16.087272644042976" x2="25.70800018310547" y2="16.087272644042976" style="visibility: inherit;" fill="rgb(0, 0, 0)" stroke="rgb(204, 204, 204)" stroke-width="1px"></line><line x1="30.70800018310547" y1="0" x2="25.70800018310547" y2="0" style="visibility: inherit;" fill="rgb(0, 0, 0)" stroke="rgb(204, 204, 204)" stroke-width="1px"></line></g><g transform="translate(20.70800018310547, 0)"><text style="text-anchor: end; visibility: hidden; font-family: Roboto, sans-serif; font-size: 12px; font-weight: 200;" x="0" y="176.95999908447266" dx="0em" dy="0.3em" fill="rgb(33, 33, 33)" stroke="none" stroke-width="1px">-8</text><text style="text-anchor: end; visibility: inherit; font-family: Roboto, sans-serif; font-size: 12px; font-weight: 200;" x="0" y="160.8727264404297" dx="0em" dy="0.3em" fill="rgb(33, 33, 33)" stroke="none" stroke-width="1px">-7</text><text style="text-anchor: end; visibility: hidden; font-family: Roboto, sans-serif; font-size: 12px; font-weight: 200;" x="0" y="144.78545379638672" dx="0em" dy="0.3em" fill="rgb(33, 33, 33)" stroke="none" stroke-width="1px">-6</text><text style="text-anchor: end; visibility: inherit; font-family: Roboto, sans-serif; font-size: 12px; font-weight: 200;" x="0" y="128.69818115234375" dx="0em" dy="0.3em" fill="rgb(33, 33, 33)" stroke="none" stroke-width="1px">-5</text><text style="text-anchor: end; visibility: hidden; font-family: Roboto, sans-serif; font-size: 12px; font-weight: 200;" x="0" y="112.61090850830078" dx="0em" dy="0.3em" fill="rgb(33, 33, 33)" stroke="none" stroke-width="1px">-4</text><text style="text-anchor: end; visibility: inherit; font-family: Roboto, sans-serif; font-size: 12px; font-weight: 200;" x="0" y="96.5236358642578" dx="0em" dy="0.3em" fill="rgb(33, 33, 33)" stroke="none" stroke-width="1px">-3</text><text style="text-anchor: end; visibility: hidden; font-family: Roboto, sans-serif; font-size: 12px; font-weight: 200;" x="0" y="80.43636322021486" dx="0em" dy="0.3em" fill="rgb(33, 33, 33)" stroke="none" stroke-width="1px">-2</text><text style="text-anchor: end; visibility: inherit; font-family: Roboto, sans-serif; font-size: 12px; font-weight: 200;" x="0" y="64.34909057617188" dx="0em" dy="0.3em" fill="rgb(33, 33, 33)" stroke="none" stroke-width="1px">-1</text><text style="text-anchor: end; visibility: hidden; font-family: Roboto, sans-serif; font-size: 12px; font-weight: 200;" x="0" y="48.2618179321289" dx="0em" dy="0.3em" fill="rgb(33, 33, 33)" stroke="none" stroke-width="1px">0</text><text style="text-anchor: end; visibility: inherit; font-family: Roboto, sans-serif; font-size: 12px; font-weight: 200;" x="0" y="32.17454528808593" dx="0em" dy="0.3em" fill="rgb(33, 33, 33)" stroke="none" stroke-width="1px">1</text><text style="text-anchor: end; visibility: hidden; font-family: Roboto, sans-serif; font-size: 12px; font-weight: 200;" x="0" y="16.087272644042976" dx="0em" dy="0.3em" fill="rgb(33, 33, 33)" stroke="none" stroke-width="1px">2</text><text style="text-anchor: end; visibility: hidden; font-family: Roboto, sans-serif; font-size: 12px; font-weight: 200;" x="0" y="0" dx="0em" dy="0.3em" fill="rgb(33, 33, 33)" stroke="none" stroke-width="1px">3</text></g><line x1="30.70800018310547" y1="0" x2="30.70800018310547" y2="176.95999908447266" fill="rgb(0, 0, 0)" stroke="rgb(204, 204, 204)" stroke-width="1px"></line></g></g><g transform="translate(30, 0)" clip-path="url(#clip_0)"><clipPath id="clip_0"><rect width="299" height="176"></rect></clipPath><g><g><g><line x1="0" y1="0" x2="0" y2="176.95999908447266" fill="rgb(0, 0, 0)" stroke="rgb(66, 66, 66)" stroke-width="1px" opacity="0.25"></line><line x1="24.94099998474121" y1="0" x2="24.94099998474121" y2="176.95999908447266" fill="rgb(0, 0, 0)" stroke="rgb(66, 66, 66)" stroke-width="1px" opacity="0.25"></line><line x1="49.88199996948242" y1="0" x2="49.88199996948242" y2="176.95999908447266" fill="rgb(0, 0, 0)" stroke="rgb(66, 66, 66)" stroke-width="1px" opacity="0.25"></line><line x1="74.82299995422363" y1="0" x2="74.82299995422363" y2="176.95999908447266" fill="rgb(0, 0, 0)" stroke="rgb(66, 66, 66)" stroke-width="1px" opacity="0.25"></line><line x1="99.76399993896484" y1="0" x2="99.76399993896484" y2="176.95999908447266" fill="rgb(0, 0, 0)" stroke="rgb(66, 66, 66)" stroke-width="1px" opacity="0.25"></line><line x1="124.70499992370605" y1="0" x2="124.70499992370605" y2="176.95999908447266" fill="rgb(0, 0, 0)" stroke="rgb(66, 66, 66)" stroke-width="1px" opacity="0.25"></line><line x1="149.64599990844727" y1="0" x2="149.64599990844727" y2="176.95999908447266" fill="rgb(0, 0, 0)" stroke="rgb(66, 66, 66)" stroke-width="1px" opacity="0.25"></line><line x1="174.58699989318848" y1="0" x2="174.58699989318848" y2="176.95999908447266" fill="rgb(0, 0, 0)" stroke="rgb(66, 66, 66)" stroke-width="1px" opacity="0.25"></line><line x1="199.5279998779297" y1="0" x2="199.5279998779297" y2="176.95999908447266" fill="rgb(0, 0, 0)" stroke="rgb(66, 66, 66)" stroke-width="1px" opacity="0.25"></line><line x1="224.4689998626709" y1="0" x2="224.4689998626709" y2="176.95999908447266" fill="rgb(0, 0, 0)" stroke="rgb(66, 66, 66)" stroke-width="1px" opacity="0.25"></line><line x1="249.4099998474121" y1="0" x2="249.4099998474121" y2="176.95999908447266" fill="rgb(0, 0, 0)" stroke="rgb(66, 66, 66)" stroke-width="1px" opacity="0.25"></line><line x1="274.3509998321533" y1="0" x2="274.3509998321533" y2="176.95999908447266" fill="rgb(0, 0, 0)" stroke="rgb(66, 66, 66)" stroke-width="1px" opacity="0.25"></line><line x1="299.29199981689453" y1="0" x2="299.29199981689453" y2="176.95999908447266" fill="rgb(0, 0, 0)" stroke="rgb(66, 66, 66)" stroke-width="1px" opacity="0.25"></line></g><g><line x1="0" y1="176.95999908447266" x2="299.29199981689453" y2="176.95999908447266" fill="rgb(0, 0, 0)" stroke="rgb(66, 66, 66)" stroke-width="1px" opacity="0.25"></line><line x1="0" y1="160.8727264404297" x2="299.29199981689453" y2="160.8727264404297" fill="rgb(0, 0, 0)" stroke="rgb(66, 66, 66)" stroke-width="1px" opacity="0.25"></line><line x1="0" y1="144.78545379638672" x2="299.29199981689453" y2="144.78545379638672" fill="rgb(0, 0, 0)" stroke="rgb(66, 66, 66)" stroke-width="1px" opacity="0.25"></line><line x1="0" y1="128.69818115234375" x2="299.29199981689453" y2="128.69818115234375" fill="rgb(0, 0, 0)" stroke="rgb(66, 66, 66)" stroke-width="1px" opacity="0.25"></line><line x1="0" y1="112.61090850830078" x2="299.29199981689453" y2="112.61090850830078" fill="rgb(0, 0, 0)" stroke="rgb(66, 66, 66)" stroke-width="1px" opacity="0.25"></line><line x1="0" y1="96.5236358642578" x2="299.29199981689453" y2="96.5236358642578" fill="rgb(0, 0, 0)" stroke="rgb(66, 66, 66)" stroke-width="1px" opacity="0.25"></line><line x1="0" y1="80.43636322021486" x2="299.29199981689453" y2="80.43636322021486" fill="rgb(0, 0, 0)" stroke="rgb(66, 66, 66)" stroke-width="1px" opacity="0.25"></line><line x1="0" y1="64.34909057617188" x2="299.29199981689453" y2="64.34909057617188" fill="rgb(0, 0, 0)" stroke="rgb(66, 66, 66)" stroke-width="1px" opacity="0.25"></line><line x1="0" y1="48.2618179321289" x2="299.29199981689453" y2="48.2618179321289" fill="rgb(0, 0, 0)" stroke="rgb(66, 66, 66)" stroke-width="1px" opacity="0.25"></line><line x1="0" y1="32.17454528808593" x2="299.29199981689453" y2="32.17454528808593" fill="rgb(0, 0, 0)" stroke="rgb(66, 66, 66)" stroke-width="1px" opacity="0.25"></line><line x1="0" y1="16.087272644042976" x2="299.29199981689453" y2="16.087272644042976" fill="rgb(0, 0, 0)" stroke="rgb(66, 66, 66)" stroke-width="1px" opacity="0.25"></line><line x1="0" y1="0" x2="299.29199981689453" y2="0" fill="rgb(0, 0, 0)" stroke="rgb(66, 66, 66)" stroke-width="1px" opacity="0.25"></line></g></g></g><g><g><line x1="0" y1="48.2618179321289" x2="299.29199981689453" y2="48.2618179321289" fill="rgb(0, 0, 0)" stroke="rgb(153, 153, 153)" stroke-width="1.5px"></line></g></g><g><g><line x1="24.94099998474121" y1="0" x2="24.94099998474121" y2="176.95999908447266" fill="rgb(0, 0, 0)" stroke="rgb(153, 153, 153)" stroke-width="1.5px"></line></g></g><g><g><g><g><g><path style="fill: none;" stroke="rgb(255, 112, 67)" stroke-width="2px" d="M25.838875984191894,210.99163674435167L25.888757984161376,140.7825001041986L26.237931983947757,204.1857949266854L26.287813983917236,144.6916839427297L26.936279983520507,105.39353389503776L27.285453983306883,82.3071317194501L27.33533598327637,69.784732681504L27.385217983245848,68.4124767817637L27.634627983093264,88.49464483489352L28.03368398284912,72.85947913341067L28.083565982818605,67.54042594531941L28.233211982727052,62.860077566704796L28.283093982696535,64.31493097167426L28.432739982604982,57.16312089616148L28.48262198257446,-23.58039177941289L29.03132398223877,-30.864483707612578L29.380497982025148,0.7334542913824841L29.879317981719968,17.776918077787776L30.0788459815979,28.330191140713488L30.27837398147583,105.64985708287833L30.976721981048584,65.3608026623413L31.176249980926514,60.02452898917477L31.226131980895996,96.07336954571835L31.32589598083496,76.95448676978933L31.425659980773926,55.064529138860145L31.72495198059082,58.77450292015819L32.12400798034668,60.93254030595752L32.22377198028564,55.59700279378995L32.273653980255126,51.33820813380758L32.42329998016358,27.193341468477357L32.77247397994995,38.39637614127346L32.9221199798584,41.192822769061166L33.021883979797366,70.99093207079095L33.12164797973633,62.52691111084737L33.470821979522704,60.06126391359314L33.52070397949219,55.46515751595408L33.7701139793396,4.799892251442648L34.11928797912598,20.75195415212479L34.16916997909546,32.45029688729751L34.46846197891235,36.90447254347575L34.51834397888184,47.132880168959886L35.06704597854614,32.80390378896768L35.166809978485105,37.86606083464679L35.565865978240964,41.66617926747689L35.665629978179936,-26.295282709049683L36.36397797775268,-25.418148674709453L37.11220797729492,2.562311261498983L37.1620899772644,-3.3040158531173196L38.45902197647095,-30.38169631842601L38.608667976379394,1.1808045234692939L38.80819597625733,18.755240484887402L39.00772397613525,31.537727653991624L39.1573699760437,35.24485806209909L39.30701597595215,42.06440575964635L39.40677997589111,43.88549402969677L39.65618997573853,29.908631748653175L39.75595397567749,40.5156455357863L39.80583597564697,9.192073923120736L40.304655975341795,25.73491026592856L40.504183975219725,37.22940866383864L40.70371197509766,44.34270632317929L40.80347597503662,96.32628345073172L40.853357975006105,77.37665295737077L41.003003974914556,64.4980596570954L41.75123397445679,57.2820733723072L42.15028997421265,58.80394874066246L42.200171974182126,50.15616798447351L42.798755973815915,60.10439471473199L43.09804797363281,52.59733701177994L43.147929973602295,54.290032381488174L43.19781197357178,54.7764303105494L43.79639597320557,52.13652900514355L44.19545197296143,55.15734263495434L44.39497997283936,57.963863987241275L44.49474397277832,57.079772936166954L44.74415397262573,91.10987429293385L44.99356397247315,105.22214447910653L45.09332797241211,82.36000170266117L45.642029972076415,70.19664305456033L45.94132197189331,-24.416673502103492L45.991203971862795,5.378421341764167L46.68955197143555,33.523886118051244L46.739433971405035,43.55237090684284L46.83919797134399,48.868563571657916L47.0886079711914,73.63151789088835L47.18837197113037,56.469838428900935L47.48766397094727,53.94139623215008L47.6871919708252,101.86664349876456L47.93660197067261,85.93818413605828L48.136129970550535,70.61634229140677L48.285775970458985,68.84584853259976L48.38553997039794,78.83157087055879L48.58506797027588,77.81310243471194L48.634949970245366,68.69277913782803L48.884359970092774,68.90423027085373L48.93424197006226,59.869145856308734L49.233533969879154,78.18805415357825L49.58270796966553,77.70864885559214L50.380819969177246,76.8024753150103L50.48058396911621,63.44152077666797L50.5304659690857,81.16441571370041L50.58034796905518,68.29834445881393L50.729993968963626,60.409190833181235L50.82975796890259,43.0834599240709L51.52810596847534,61.94895775065667L51.57798796844482,56.45926390818085L51.67775196838379,173.09511184605003L51.77751596832275,119.823137036513L51.87727996826172,74.31964869439861L52.07680796813965,-5.423725783387647L52.17657196807861,2.1022876928397367L52.37609996795654,16.933432700027524L52.47586396789551,20.416242106461105L52.675391967773436,26.688398709933775L52.97468396759033,25.469440741200835L53.0744479675293,37.98074690993078L53.273975967407225,59.42395693691047L54.07208796691894,48.27428843540076L54.12196996688843,62.99604879293308L54.27161596679688,56.535810647518765L54.371379966735844,57.13698082101495L54.57090796661377,44.67337153876884L54.67067196655274,25.29834339613904L55.26925596618653,26.250968152475842L55.518665966033936,33.550971826843245L55.56854796600342,89.95121134705066L55.967603965759274,76.659130844846L56.01748596572876,55.258403357999136L56.266895965576175,173.4876896596851L56.316777965545654,300.06765819206294L56.516305965423584,206.94146701006005L56.71583396530151,144.6969146058282L57.01512596511841,125.36130104100613L57.065007965087894,82.04770017128311L57.3144179649353,68.78792954635706L57.41418196487427,56.928413742148884L57.76335596466065,65.88051210093894L57.863119964599605,59.07713189662682L58.212293964385985,76.74437931050068L58.611349964141844,65.22955466413725L58.66123196411133,67.55872586266838L59.06028796386719,60.12790059548825L59.45934396362304,99.58786214341099L59.55910796356201,79.23068013403041L60.35721996307373,74.94537731978345L60.905921962738034,66.25760143604319L61.005685962677006,66.08508650581894L61.105449962615964,3.6022725378818525L61.15533196258545,-28.15276561509206L61.255095962524415,25.88320215946547L61.3049779624939,44.89377883335865L61.40474196243286,83.7092879857398L61.454623962402344,68.5111564119329L61.50450596237182,59.304215718385976L61.75391596221924,60.422366234614806L62.05320796203613,55.93870806172557L63.05084796142578,63.94034370120408L63.44990396118164,50.9650657066998L63.599549961090084,29.09224899037231L63.64943196105957,76.52606444838729L63.749195960998534,70.90810554606689L63.848959960937506,60.07268786214614L63.948723960876464,76.5871724634736L64.24801596069337,-10.573904015336065L65.04612796020507,40.33951207450373L65.09600996017456,46.121955172978254L65.19577396011353,39.29576027121713L65.34541996002197,68.8896359820123L65.74447595977783,89.80445042246635L65.79435795974732,69.91310110163543L66.24329595947266,52.723693431325174L66.44282395935059,92.99807503863947L66.84187995910645,83.76058396154971L66.9915259590149,79.01965379617859L67.09128995895385,84.71061324895433L67.68987395858764,104.58877213455979L67.93928395843506,75.18483816481694L68.13881195831298,62.801642029110916L68.3882219581604,30.426683486087914L69.03668795776368,40.78651407137929L69.13645195770265,56.45802305672859L69.43574395751953,45.92416303289533L69.58538995742798,87.12200278277442L69.68515395736695,103.62712676907914L69.88468195724488,69.92323226054764L69.93456395721435,59.479656089234716L70.23385595703125,10.08739851676754L71.2314959564209,52.95986055927293L71.33125995635987,80.6022100948504L71.43102395629883,57.24079709417862L71.92984395599366,86.01701719593696L72.27901795578002,101.09363342359111L72.57830995559692,65.92434239428636L72.97736595535278,70.05798451237868L73.7754779548645,59.63000908653581L73.92512395477294,75.08278616842799L74.12465195465089,74.42691668429012L74.42394395446777,64.46463260852671L74.52370795440673,42.265042416657L74.77311795425415,19.82768305196452L74.9227639541626,72.87155784113354L75.02252795410156,69.37226474443177L75.57122995376587,95.31944869003735L75.92040395355224,34.52598747426413L76.11993195343018,37.94579662216951L76.21969595336914,25.15079154573251L76.618751953125,32.653302853030254L76.66863395309448,31.944254468124562L77.61639195251466,404.69113400484633L78.3147399520874,219.14024213408334L78.36462195205688,160.16652108503843L78.46438595199585,138.68757086685818L78.66391395187377,122.71918277981091L79.11285195159911,116.28019843427593L79.7114359512329,109.88012776417327L79.91096395111084,84.06433708179382L80.0107279510498,80.9881347198637L80.16037395095825,80.53969686481248L80.26013795089722,76.37645391569218L80.35990195083619,67.209458403779L80.858721950531,252.0802189129898L80.90860395050048,178.7045762962981L81.05824995040894,133.33899021330822L81.10813195037842,64.23399583865393L81.25777795028687,63.138555704593564L81.40742395019532,67.52966305314474L81.50718795013427,62.19608968313505L81.7565979499817,112.16202302937485L82.10577194976806,137.21065207674536L82.35518194961548,131.1672323075047L82.40506394958496,76.22213235775118L83.00364794921875,86.72163650239638L83.50246794891358,101.82567555806843L83.60223194885253,99.50004679874692L83.65211394882203,96.49557100189615L84.00128794860841,98.14563599142934L84.25069794845581,121.75167159721273L84.45022594833374,131.4686113430633L84.50010794830322,150.906170062024L85.09869194793701,135.0464170030627L85.49774794769287,110.45720665302977L85.6972759475708,72.42548241280824L85.94668594741822,73.77064057729886L86.04644994735717,71.21211770248998L86.24597794723512,70.48412994028124L86.99420794677735,58.253466065037024L87.09397194671631,62.00628063624946L87.34338194656372,70.18280770919706L87.3932639465332,58.99671024158103L87.49302794647217,38.84567078875502L87.64267394638061,1.6144630213864737L87.84220194625854,18.340456565188983L88.14149394607543,27.70941416973691L88.34102194595337,36.9314330964874L88.59043194580077,78.52084945110582L88.88972394561767,80.2710199333507L89.03936994552612,98.35253809749601L89.28877994537353,31.3166015706732L89.43842594528198,69.50221838156395L89.68783594512941,55.05605052272315L89.73771794509888,49.281241820220146L89.88736394500732,54.48979141997002L90.08689194488525,70.8062309142351L90.5358299446106,73.04407486892633L90.88500394439697,68.61121576772105L91.03464994430541,61.26894617830152L91.0845319442749,52.55803835237754L91.53346994400025,130.39857699434802L92.03228994369506,109.74028579026941L92.18193594360352,118.50811166467679L92.48122794342041,103.60027680105672L92.78051994323731,92.43301905123262L92.98004794311522,66.08434734906085L93.52874994277954,81.37618171595777L93.57863194274901,86.21810557573279L93.77815994262696,86.33186242845602L94.07745194244386,61.94874962335746L94.27697994232177,130.8934888465586L94.42662594223023,102.34046428130424L95.62379394149781,80.97628492324893L96.57155194091797,85.5589314959732L96.67131594085694,67.58669966537576L96.72119794082641,75.90355964429452L96.77107994079589,68.1961361132651L97.22001794052123,71.3837750356181L97.6190739402771,72.43934248270831L97.66895594024658,67.10210009056124L97.76871994018555,79.2014883241098L97.81860194015502,47.46105912137346L98.46706793975831,65.78302619611839L98.56683193969725,60.696923920283034L99.11553393936157,67.20908811815049L99.26517993927001,93.92216018526393L99.46470793914794,101.034219364104L99.66423593902589,97.02917490987788L99.86376393890382,86.47684529543953L100.21293793869017,90.0762518771426L100.26281993865967,97.16596149668075L100.31270193862915,101.03773111248789L100.41246593856812,101.32803523257682L100.56211193847656,116.65546057667221L101.16069593811036,122.0607341898619L101.45998793792725,126.07890043451012L101.6096339378357,94.44357913950616L101.65951593780518,107.17670033406351L102.1583359375,81.89947252141431L102.30798193740844,66.15131106009879L102.85668393707276,70.74721863896978L103.0063299369812,158.09857951970818L103.15597593688965,116.38189853334083L103.40538593673705,96.02586701875161L103.5550319366455,98.96944845577453L104.00396993637084,76.45893476304776L104.55267193603515,82.73255108018438L104.80208193588257,86.38328658649621L104.90184593582153,59.65616584229382L106.0990139350891,70.70876351985105L106.49806993484498,45.56337292499867L106.59783393478394,58.01130264765392L106.7474799346924,70.28446351175523L107.04677193450928,66.40962710329815L107.09665393447877,76.08168990118968L107.44582793426514,78.18552194276957L107.844883934021,77.59768493711057L108.04441193389893,78.8093447154233L108.24393993377686,77.2578889409784L108.44346793365479,80.53728502323244L108.59311393356323,81.26356004694932L108.6928779335022,79.28052693360112L108.9921699333191,74.64620753562782L109.44110793304442,74.47292371000364L109.8401639328003,75.3881766496015L109.93992793273927,74.23043294073467L110.08957393264771,70.79293907058074L110.18933793258667,66.80284313105298L110.23921993255615,67.1302280276218L110.28910193252564,62.91641617665692L110.638275932312,62.61571923052868L110.83780393218994,64.39190131476401L110.88768593215943,65.38007967359431L111.2368599319458,66.96697767274142L111.63591593170166,70.52398643861139L111.68579793167113,69.2162941745476L111.88532593154908,71.53101054002033L111.98508993148803,73.37094096926374L112.43402793121338,29.058223383676527L112.98272993087768,38.21433805814472L113.4815499305725,48.302507584481845L113.58131393051147,61.994046244462645L113.93048793029784,64.82242731660793L113.98036993026734,66.73025836580912L114.17989793014526,65.1225543412237L114.32954393005372,64.56509951511411L114.52907192993163,60.24369544195518L114.72859992980958,73.0940941603107L115.67635792922974,84.26882664011252L115.87588592910767,106.63309742959008L116.22505992889404,101.15810036690313L116.52435192871093,97.66425429656462L116.6241159286499,93.6974968238397L117.07305392837524,93.97603315231132L117.27258192825316,88.3778621075732L117.7215199279785,78.30670853126523L117.97092992782592,76.07930757765L118.0208119277954,71.5597295041936L118.07069392776489,72.75064626547254L118.86880592727661,77.30991158860363L119.11821592712403,216.23246562788205L119.4673899269104,176.092385037351L119.66691792678833,137.7939010876274L119.81656392669677,122.44053198349411L120.11585592651367,110.08140835334726L120.16573792648316,103.72744384938817L120.21561992645263,99.23475554415369L120.36526592636109,93.35869604981299L120.6146759262085,78.13678872994126L120.91396792602539,203.04245566424459L121.4626699256897,186.14053982634292L121.51255192565918,145.75951977830644L121.71207992553711,110.49864809434227L121.76196192550658,90.04154623956929L121.96148992538451,95.29802195991914L122.06125392532348,82.71252115986044L122.36054592514039,87.70286227476262L122.51019192504883,73.76911323246883L122.70971992492674,79.6375243304995L122.75960192489624,79.20301500725235L122.8593659248352,75.50918292183286L122.90924792480469,76.01946800844792L123.00901192474365,70.22777344282846L123.55771392440796,78.67846380617509L123.65747792434694,78.12141481033322L124.05653392410278,61.56290892497268L124.10641592407227,63.60273928135958L124.25606192398072,54.62889505943687L126.00193192291259,81.05815452380068L126.50075192260744,88.73239860757165L127.04945392227172,83.95342733682773L127.39862792205811,71.26553869524223L127.4485099220276,97.77772324544382L128.04709392166137,98.30883935296725L128.19673992156982,93.52243540497712L128.64567792129517,86.18063987743527L129.14449792098998,74.7248601576463L129.54355392074586,75.11805819005548L129.59343592071534,67.0044127792112L129.6931999206543,53.21668075893258L129.84284592056275,59.61458768835021L130.14213792037964,79.82215508118297L130.39154792022705,79.61165108052218L130.44142992019653,68.07712969142794L130.64095792007447,83.48732318750905L130.69083992004394,73.91712182699233L131.04001391983033,71.1906155573753L131.48895191955566,67.55549640178458L131.6385979194641,64.83988557889255L132.13741791915893,66.96291106888987L132.63623791885377,51.399288069150856L133.1350579185486,352.0929764972677L134.38210791778565,177.9601437891283L134.731281917572,123.40729561708731L134.83104591751098,102.66334614558346L135.1303379173279,95.94675790082185L135.23010191726684,94.68647044755915L135.37974791717528,81.6265899960713L135.42962991714478,83.05757665179436L135.72892191696167,89.58295805571852L135.9284499168396,84.33582361012643L136.4771519165039,77.89307838378792L136.62679791641236,71.91644272727346L136.87620791625977,65.93243936756639L137.52467391586305,60.55796021010729L138.72184191513063,59.804051328684004L139.6695999145508,58.83132620293953L139.9190099143982,73.13328634577931L139.96889191436767,73.94898688155997L140.4677119140625,65.88539246220557L140.61735791397095,72.50059245674288L140.86676791381836,104.29804793626704L141.26582391357422,97.80220905327093L141.41546991348267,88.92431976568616L141.76464391326905,84.20170119411584L141.96417191314697,74.4837761709694L142.26346391296386,70.31167480242537L142.61263791275024,66.58678771212317L143.310985912323,63.01640483396941L143.85968791198732,63.17833920481977L144.1090979118347,68.32234779385635L144.30862591171265,71.63770496136368L144.35850791168212,71.99574202143911L144.50815391159057,71.80868007654689L144.55803591156004,70.156653472221L146.05449591064453,81.03400863324703L146.20414191055298,71.31566172923479L146.40366991043092,55.91885427274765L146.4535519104004,72.6773158041624L146.7029619102478,73.79096984696318L146.75284391021728,70.25326520106404L147.35142790985108,163.55705391822463L147.7504839096069,123.21903478421545L147.85024790954589,95.73150188560383L147.90012990951539,78.99509064982657L148.89776990890502,78.86793185158868L149.2968259086609,80.55396506028785L149.5462359085083,78.30354655023554L149.64599990844727,96.50172137955558L149.7956459083557,74.84308796371961L149.89540990829468,80.95819762899684L149.94529190826415,87.73549659134811L150.29446590805054,85.76727239835064L150.49399390792848,97.57284739233553L150.54387590789796,99.24670550875422L150.59375790786743,214.7215088971496L150.69352190780637,165.8780905214981L150.79328590774537,134.95176582839798L151.0426959075928,109.39792625310008L151.14245990753173,91.19205165819741L151.5415159072876,83.17054722343329L152.88832990646364,70.3692680825332L152.9382119064331,67.01995732628008L153.03797590637205,68.91110291772145L153.4869139060974,72.52891595054648L153.53679590606689,72.37991891923886L153.88596990585327,66.47895786431029L154.03561590576174,67.03927675956399L154.08549790573122,69.81539908801022L154.23514390563963,67.42291560202621L154.58431790542602,69.70302426482215L154.684081905365,66.18900135299225L154.9334919052124,59.09763060743601L155.5320759048462,59.9094029408316L155.58195790481568,60.03314202273578L155.98101390457154,311.390122070225L156.030895904541,205.88123913173368L156.38006990432737,140.21945108908298L156.52971590423584,122.89576027445375L156.57959790420531,100.91889926273709L156.6294799041748,91.42317639105323L156.77912590408326,90.47724641792993L157.72688390350342,63.55288498016219L158.12593990325928,65.92035749089102L158.17582190322875,62.75072531229129L158.32546790313722,61.79845740824461L158.67464190292358,63.128653206438045L158.82428790283203,66.95774451055985L158.924051902771,67.07590311872765L159.07369790267944,64.28690791201633L159.27322590255739,70.32403045967925L159.7221639022827,69.33514135482926L160.0214559020996,65.15448260558043L160.22098390197755,64.32947540399027L160.27086590194702,47.527375309609575L160.47039390182496,210.49244206655297L160.5701579017639,182.4374469315376L160.81956790161132,166.01668711016129L161.06897790145874,117.45336401822249L161.1188599014282,102.89021796966493L161.31838790130615,84.8117875317716L161.56779790115357,78.77348981641687L161.61767990112307,73.88451158077223L161.66756190109254,71.13313544582793L161.81720790100096,60.7153786677581L162.26614590072631,62.961976760982495L162.31602790069581,65.52112816269721L162.3659099006653,65.14039472608664L162.6153199005127,67.09656991632328L162.86472990036012,62.62585620105263L163.01437590026853,57.94974001975953L163.164021900177,56.18001529162065L163.26378590011595,59.62357386855348L163.36354990005492,48.26143834887906L163.5131958999634,51.39149643991456L163.86236989974975,57.83799459674753L164.46095389938355,58.27147826980184L164.5607178993225,58.727851960112254L165.2091838989258,109.59470771741343L165.25906589889527,123.95358465539768L165.80776789855958,114.91438038639964L166.30658789825438,104.20096504952346L166.40635189819338,90.25132699970396L166.50611589813232,88.84922017025197L166.8054078979492,80.94325331011419L167.1545818977356,78.23806059720415L167.20446389770507,76.82187888534642L167.45387389755248,74.50194496932052L167.65340189743043,78.84588675622267L167.7032838973999,80.70638117681624L167.90281189727784,65.78997808822005L168.55127789688112,91.3885430696076L168.65104189682006,191.11460911219038L168.70092389678953,136.94078519752915L169.1498618965149,108.40426943357899L169.24962589645386,82.75573158886937L169.3493898963928,85.30985232642097L169.7484458961487,81.75114335441828L170.14750189590455,61.17750780354886L170.29714789581297,58.776669471760364L170.34702989578247,65.89236391529802L170.4966758956909,60.302318344180314L170.59643989562986,64.15975532348361L170.64632189559939,62.183983061160326L170.7959678955078,62.99427048620452L171.09525989532472,61.7714575021024L171.29478789520263,61.0835088721156L171.34466989517213,59.36339449783441L172.04301789474488,60.40574247325117L172.19266389465332,192.50777315560896L172.34230989456177,148.98806134753133L172.69148389434812,117.20288690628334L172.8411298942566,94.69123098009335L172.94089389419554,85.35425641803064L173.24018589401246,79.05253085744131L173.48959589385987,62.016973217502766L173.78888789367676,59.438132944780264L173.8886518936157,64.3077635131567L174.23782589340212,60.96988486842646L174.38747189331053,60.11131308470151L174.4872358932495,59.08258673187862L174.537117893219,13.611314464565961L174.68676389312745,37.33475855402461L175.08581989288328,50.30848277067903L175.53475789260864,51.29528573717579L175.78416789245605,60.007307944632615L176.03357789230344,42.44502636969959L176.28298789215086,52.664634777344844L176.93145389175413,62.51376405912503L177.03121789169313,68.08613528588761L177.53003789138793,63.40149845155206L177.87921189117432,62.32657678785956L178.02885789108277,45.83713245538019L178.27826789093018,56.625794315007354L178.7272058906555,60.96697935824017L178.777087890625,63.647343412796765L179.0763798904419,54.09446106764748L179.37567189025881,94.99879959138774L179.52531789016723,87.39689402183836L179.72484589004517,81.51049252628731L179.77472789001465,70.1602842776464L179.82460988998412,78.73337925321641L179.9243738899231,74.62719791610895L180.12390188980103,47.51302191599316L180.27354788970948,59.47498068486187L180.32342988967898,64.95024816385047L180.52295788955686,62.830420434716906L180.5728398895264,62.505760362520974L180.62272188949586,58.416139430663826L180.87213188934325,155.7067507166017L180.97189588928222,120.55362523106409L181.47071588897703,115.69993051563205L181.81988988876344,92.43574146486772L182.1690638885498,81.94912649209375L182.31870988845824,65.93737035223965L183.21658588790893,67.5896615974245L183.46599588775635,76.39092857291755L183.9149338874817,83.03529812338424L184.06457988739012,66.1198800701274L184.1643438873291,62.374350464766756L184.51351788711548,67.6809168822458L184.7130458869934,73.42552097341373L184.76292788696287,74.30530441251992L185.16198388671876,52.85671835327609L185.36151188659667,57.34561647284073L185.41139388656617,50.00955397656834L185.56103988647462,67.07779064917725L185.66080388641356,48.34708461898223L186.00997788619998,61.6745982780557L186.20950588607786,60.047483857883655L186.4090338859558,67.26772630645213L186.60856188583375,42.03207048147831L186.70832588577272,54.162446219900325L187.0076178855896,64.56015512848171L187.8057298851013,62.81658164921046L187.95537588500977,56.943314439697396L188.1050218849182,72.32902094817706L188.25466788482666,60.51831115156579L188.30454988479613,63.722395910528505L188.55395988464355,69.1958889450219L189.2523078842163,77.19736172911598L189.40195388412477,75.37427127529538L189.45183588409424,67.51159178410234L189.8508918838501,71.84626781753606L190.24994788360598,41.037071433989425L190.89841388320923,47.180503236877136L191.24758788299562,41.922776004574544L191.5468798828125,70.09765231424592L191.79628988265992,82.27456528215804L192.34499188232422,68.50205373022753L192.74404788208008,88.63177284694476L192.79392988204955,86.83158850853701L193.04333988189697,98.26086904283294L193.14310388183594,75.01132882388353L193.2428678817749,81.2727291274108L193.39251388168336,82.36180090180936L193.4922778816223,96.0838256054903L193.74168788146972,88.39369648680945L193.7915698814392,84.03397587852064L194.19062588119507,80.05797996578586L194.24050788116455,80.18896290217322L194.390153881073,75.66578164733062L194.73932788085935,70.96620028409826L194.88897388076782,70.36149646188451L194.9388558807373,62.408326516029945L194.98873788070676,64.48157429701762L195.43767588043212,64.96596109653743L195.63720388031004,58.200536977777354L195.83673188018798,63.14822597267662L196.18590587997437,63.24040032948852L196.23578787994384,55.50413089379578L196.48519787979126,61.81493381229279L197.2334278793335,78.59024555350902L197.28330987930298,67.26127018764886L197.48283787918092,78.35825061060774L197.58260187911986,69.06939975087292L197.93177587890625,88.8939300269421L198.1313038787842,92.69147129355746L198.58024187850953,88.34129428617437L198.630123878479,66.0763640957684L198.6800058784485,68.08031786784628L198.72988787841797,74.23934428718958L198.77976987838747,73.44115649105662L198.97929787826538,83.91925431854557L199.07906187820436,84.601584585006L199.1788258781433,90.69664897523229L199.32847187805177,12.47124707064038L199.4781178779602,46.241712094926605L199.5279998779297,63.03325979588948L199.67764587783813,66.14898427877665L200.22634787750246,69.14964047449726L200.52563987731935,84.65451105667434L200.82493187713624,88.31781777908549L201.27386987686157,91.52929557060547L201.32375187683104,65.6000009986996L201.57316187667845,69.26012689549938L201.72280787658693,67.68501072363115L202.02209987640381,66.92208913802047L202.22162787628173,62.83492352385171L202.42115587615967,62.7300723070184L202.82021187591553,55.81270507218651L202.96985787582398,57.36671233280609L203.2691498756409,68.71552239769943L203.31903187561036,64.75150863358579L203.7180878753662,39.55539994135486L203.86773387527467,56.446208798031385L203.91761587524414,63.641241565433006L204.06726187515258,60.96183159745918L204.51619987487794,86.74913016530084L205.1646658744812,80.94573391864252L205.2145478744507,79.16424465011966L205.26442987442016,73.57918086589993L205.31431187438966,78.68860929298518L205.4639578742981,76.43895951971342L206.0126598739624,77.01059794614696L207.20982787322998,69.60596624675243L207.35947387313843,68.28095967400373L207.4592378730774,66.25619895834656L207.55900187301637,62.413705390308394L207.7086478729248,61.3779346651687L207.8084118728638,56.888595213914506L207.90817587280273,53.62661285026785L208.0578218727112,57.40345130128918L208.10770387268067,64.77641226118584L209.00557987213136,53.44695067968387L209.50439987182617,62.588727174901294L209.85357387161255,62.23687486506388L210.05310187149047,55.56804371630394L210.10298387145994,54.24679961103694L210.35239387130736,51.89300771208763L210.40227587127686,57.84502499105511L210.5519218711853,62.841637005391256L211.10062387084963,67.33806455419631L211.1505058708191,69.83949951883282L211.74908987045288,74.12886905862744L211.79897187042235,70.3585698683372L211.89873587036132,68.38448661759841L211.94861787033082,57.55334617570954L212.09826387023926,60.381832615799816L212.14814587020874,57.96697541069025L212.1980278701782,62.047883475147366L212.5472018699646,70.57984098265453L212.64696586990357,72.55631341046704L212.7467298698425,86.27854239722231L213.3453138694763,73.33183936596099L213.4949598693848,58.17109436948135L213.54484186935426,109.94001002653008L213.59472386932373,100.57823605589721L213.6446058692932,93.21355311344504L213.84413386917115,119.16264319308063L213.9937798690796,108.7091154030612L214.74200986862184,58.10992379636129L214.84177386856078,51.63299149950298L215.1410658683777,64.39365311971937L215.24082986831664,91.79134668160937L215.44035786819458,88.97877315449267L215.63988586807253,82.4609816100432L215.689767868042,71.84739403716598L216.43799786758422,73.56437797615727L216.88693586730957,66.32133755641041L216.98669986724852,68.6593201512804L217.08646386718752,72.28053953681292L217.23610986709593,72.08185302993299L217.3358738670349,69.6217336602771L217.48551986694338,60.84380700085805L217.93445786666868,58.02154236362779L218.08410386657715,66.20559540513199L218.2337498664856,64.38808676510321L219.3311538658142,82.25990596321186L219.58056386566162,85.71179344865072L219.87985586547853,130.83228379935662L220.02950186538695,98.82747521022553L220.2290298652649,46.55399349284162L220.52832186508178,68.09532189111248L220.67796786499022,73.88691788943167L220.7777318649292,78.4996595429282L220.87749586486817,75.92141876084831L221.02714186477664,77.36628071005963L221.12690586471558,78.10845115809714L221.276551864624,72.16469322521091L222.12454586410522,67.70837891919183L222.1744278640747,67.60337127127613L222.32407386398316,63.51374378479654L222.72312986373902,62.21880366553113L222.7730118637085,60.56173970270108L223.22194986343385,59.26081667166033L223.27183186340332,54.46332635458539L223.52124186325074,51.771387180846574L223.5711238632202,52.13452682014321L223.62100586318968,58.03926027904192L223.77065186309815,62.07919403522554L224.06994386291504,65.66208501497331L224.31935386276245,60.549288029039815L224.4689998626709,50.974496637058714L224.86805586242676,61.63027243848228L225.0675838623047,64.72967378704233L225.16734786224364,64.56648016450511L225.616285861969,67.12441088303741L225.86569586181642,70.11041535878365L226.1649878616333,68.70662840677707L226.21486986160278,66.8441580153097L226.4642798614502,65.7656659868593L226.81345386123658,60.973906379860665L227.16262786102294,152.22684751318195L227.46191986083986,100.05610693136747L227.61156586074827,89.27708761647885L227.71132986068727,106.04367370175274L227.76121186065674,87.55500548677344L228.1103858604431,154.50352834378438L228.50944186019896,120.5047308275511L228.55932386016846,100.94107071059379L228.65908786010743,91.4787917803558L228.85861585998538,66.82747500893608L229.05814385986326,69.97400100152076L229.30755385971068,60.37445330083232L229.90613785934448,53.94329542155833L230.20542985916137,60.71109866473703L230.50472185897826,68.93783906215741L230.65436785888673,54.48924070278423L230.9536598587036,57.34132791689347L231.5522438583374,46.24530195177264L231.75177185821533,49.14077846798189L232.1009458580017,59.86728703912228L232.25059185791017,61.9918133616715L232.79929385757447,62.97674296840128L233.29811385726927,57.04425583920111L233.34799585723874,54.82130473350204L233.49764185714722,56.423849940955165L233.7969338569641,56.23501619928333L234.04634385681152,59.11038435458106L234.79457385635376,67.15147366420813L234.84445585632324,71.15315298194764L235.24351185607912,70.3602545083493L235.49292185592654,64.81083963659138L235.79221385574343,65.59363302860287L235.89197785568237,64.8528245521946L235.94185985565184,64.06053091532038L236.24115185546876,63.75162062269884L236.7399718551636,62.769184466009186L236.889617855072,63.91023881667557L236.98938185501098,63.61409030491351L237.03926385498048,65.36378180797414L237.08914585494995,58.0530211770632L237.28867385482786,67.09457920469396L237.7874938545227,70.32476306438774L237.83737585449217,70.81324821985717L237.93713985443117,71.13692209329842L238.43595985412597,61.53096362358121L238.48584185409544,59.56891060770645L239.33383585357666,55.224598757119345L239.68300985336302,56.73824183423754L239.88253785324096,47.7769664743285L240.33147585296632,63.39991811376622L240.5808858528137,66.39373821934797L240.83029585266112,54.50872600305969L241.129587852478,62.593663608824954L241.57852585220337,66.99727822010854L241.77805385208129,76.09177307127234L241.97758185195923,72.64047736476059L242.1272278518677,72.61036333250647L242.4265198516846,73.74362520310694L242.67592985153198,68.89536126115055L242.97522185134886,69.8558456610473L243.22463185119628,66.99109294429297L243.37427785110475,62.3736328652558L243.42415985107422,59.36985150593019L243.7733338508606,59.09879574747359L244.17238985061644,61.5021594187947L244.57144585037233,68.59102470901635L244.77097385025024,64.6379038114985L244.9206198501587,66.6936393093572L245.07026585006713,64.29417648535497L245.1201478500366,62.984304543122946L245.5192038497925,58.87675607592122L245.61896784973143,61.179082736541005L246.16766984939576,59.498690463064555L246.5667258491516,62.84555406992174L246.8660178489685,152.07450934049282L247.11542784881593,396.8716617645691L247.7140118484497,211.30955400356393L248.8612978477478,157.72567705934915L249.1605898475647,110.27633544615401L249.36011784744264,102.83462371814002L250.10834784698486,208.63663901579017L250.40763984680177,179.2322529607146L250.5572858467102,170.57684396516584L250.6570498466492,163.64628984435853L251.00622384643555,134.00753682166052L251.155869846344,124.70015355827358L251.35539784622193,86.34169583373398L251.55492584609985,77.30617125458144L251.60480784606935,84.90838937650065L251.65468984603882,86.07156435570067L251.75445384597776,85.6915360380287L252.05374584579465,73.97574104802683L252.40291984558107,74.61186651389498L252.50268384552,123.13234741927424L252.60244784545898,88.52517071252359L252.80197584533693,71.82888653751965L252.95162184524534,71.29084964191634L253.00150384521487,69.14429335399991L253.1012678451538,77.45000926195154L253.50032384490967,74.08897081150823L253.89937984466553,70.71070062026845L253.9991438446045,67.20442807311453L254.69749184417725,73.46968974233528L254.8471378440857,80.3949070440937L254.99678384399414,81.4837002467435L255.49560384368897,72.37800549627751L255.69513184356688,65.97745364940364L255.84477784347536,59.26297686926262L256.5930078430176,62.54907333542999L256.84241784286496,63.097696841666604L256.89229984283446,61.41214860614496L257.0918278427124,62.140265915071204L257.29135584259035,65.56954911217696L257.3412378425598,68.31457264432649L257.3911198425293,69.44913418780956L257.49088384246824,67.15153920695049L257.7402938423157,65.39277822773182L257.7901758422851,63.821077838218336L257.8400578422547,60.964915154885546L258.28899584197995,59.04425045188206L258.68805184173584,60.10540288850588L258.8875798416138,62.421631551735146L258.98734384155273,61.58114589480594L259.2866358413696,63.147288696119055L259.6856918411255,60.29548095710844L259.73557384109495,57.643502330740894L260.0348658409119,57.314763659339164L260.1845118408203,56.931982136396485L260.58356784057617,59.217463063411444L260.63344984054567,62.45732627190155L260.88285984039305,65.73787155380553L261.0325058403015,65.22600183636551L261.082387840271,65.2342152565117L261.23203384017944,62.638343196239376L261.3816798400879,60.31357212316411L261.5313258399963,59.91902444329316L262.12990983963016,58.568786306469086L262.32943783950805,55.85682319280606L262.67861183929443,68.23023638355794L262.9779038391113,172.33709514091336L263.12754983901976,116.16293284555523L263.17743183898926,100.53092851670768L263.2273138389587,90.53539253469279L263.3769598388672,88.64741762471849L263.42684183883665,87.65969453433996L263.77601583862304,79.49640959068515L263.87577983856204,72.57017848789101L263.975543838501,58.36588049585019L264.27483583831787,101.78353853892244L264.5242458381653,93.41270340590921L264.57412783813476,86.25825008743081L264.7237738380432,81.32193591827728L264.87341983795164,397.56175167660587L265.0729478378296,187.01232418615456L265.4720038375855,140.6367083197433L265.8710598373413,112.14102912485332L265.9708238372803,96.35525374779533L266.07058783721925,106.53547314695167L266.1204698371887,111.31142354666693L266.1703518371582,102.0129791066637L266.5195258369446,94.67927644321693L266.5694078369141,95.03946847242005L267.46728383636474,75.53356559326966L267.6169298362732,53.618473133719L268.1656318359375,60.388948616278014L268.4649238357544,67.56355341569018L269.1133898353577,45.43884536967393L269.41268183517457,55.665592995437784L269.462563835144,124.58855333462677L269.76185583496095,100.69590116198987L269.8616198348999,90.8267619684786L270.06114783477784,78.67657187989946L270.6098498344421,157.81826526518836L270.7096138343811,129.1113090398502L270.80937783432006,100.20562634713889L271.008905834198,110.74485145414529L271.108669834137,114.50036884808573L271.35807983398433,113.40802071022871L271.5576078338623,113.97746337258025L271.8070178337097,105.7315797285314L273.2535958328247,92.93234264163956L273.35335983276366,90.15969577621622L273.80229783248905,85.8391492356498L273.8521798324585,76.61751775327245L273.902061832428,85.75125908950712L274.3011178321838,81.26064843385583" fill="none"></path></g></g></g></g><g opacity="0.2"><g><g><g><path style="fill: none;" stroke="rgb(255, 112, 67)" stroke-width="2px" d="M25.14052798461914,1034.359824083076L25.639347984313964,56.526573975892916L25.689229984283447,47.716363978823715L25.838875984191894,186.71669453514914L25.888757984161376,49.117451306814765L26.237931983947757,291.8953768523206L26.287813983917236,59.61415332989737L26.936279983520507,48.09645386326252L27.285453983306883,48.259172813216864L27.33533598327637,51.1904295206275L27.385217983245848,66.36653919216587L27.634627983093264,118.50861064287166L28.03368398284912,49.45778210996553L28.083565982818605,59.57226674210414L28.233211982727052,55.84505657260842L28.283093982696535,66.49618500378983L28.432739982604982,46.43843218923133L28.48262198257446,-144.675160023653L28.781913982391355,7.645871473116136L29.03132398223877,-60.525713756574994L29.380497982025148,48.12862838385956L29.879317981719968,43.34155293495997L30.0788459815979,44.15989237913482L30.27837398147583,221.6284400709701L30.976721981048584,4.927507388891163L31.176249980926514,52.020141236194604L31.226131980895996,150.14653814143094L31.32589598083496,48.27619195788434L31.425659980773926,22.22961285621113L31.72495198059082,64.33946154165913L32.12400798034668,64.1695956690278L32.22377198028564,47.59369758713199L32.273653980255126,44.950016652248564L32.42329998016358,-9.023956800070675L32.77247397994995,55.20092766899734L32.9221199798584,45.38749263863338L33.021883979797366,115.6880955623601L33.12164797973633,49.8308797495033L33.470821979522704,56.36279313144497L33.52070397949219,48.5709979348551L33.7701139793396,-71.19800554373431L34.11928797912598,44.68004698395645L34.16916997909546,49.99781098161225L34.46846197891235,43.585736025813965L34.51834397888184,62.47549160452808L35.06704597854614,11.310439221213532L35.166809978485105,45.459296402691855L35.565865978240964,47.36635691650877L35.665629978179936,-128.23747567155078L36.114567977905274,-152.195234614097L36.36397797775268,51.43752351981869L37.11220797729492,44.53300116560808L37.1620899772644,-12.103506525016194L37.86043797683716,-27.27191114707968L37.91031997680664,49.54024258407338L38.45902197647095,-73.57074846525211L38.608667976379394,48.52455578630154L38.80819597625733,45.116894427010955L39.00772397613525,50.71145840764644L39.1573699760437,40.805553674259954L39.30701597595215,52.293727305966975L39.40677997589111,46.61712643477234L39.65618997573853,8.94333832708799L39.75595397567749,56.426166216485846L39.80583597564697,-37.793283495877404L40.304655975341795,50.54916478014024L40.504183975219725,54.47115626070376L40.70371197509766,55.01265281219025L40.80347597503662,174.30164914206034L40.853357975006105,48.952207217329324L41.003003974914556,45.18016970668237L41.75123397445679,46.45809394512491L42.15028997421265,61.08676179319537L42.200171974182126,37.184496850190044L42.798755973815915,75.0267348101197L43.09804797363281,41.33675045735185L43.147929973602295,56.82907543605051L43.19781197357178,55.50602720414121L43.79639597320557,48.17667704703478L44.19545197296143,59.68856307967052L44.39497997283936,62.173646015671686L44.49474397277832,55.75363635955545L44.74415397262573,142.1550263280842L44.99356397247315,126.39054975836552L45.09332797241211,48.06678753799315L45.642029972076415,51.95160508240905L45.94132197189331,-166.33664833709915L45.991203971862795,50.071063607565634L46.68955197143555,75.74208328248187L46.739433971405035,58.5950980900302L46.83919797134399,56.84285256888051L47.0886079711914,110.775949369734L47.18837197113037,30.72731923591982L47.48766397094727,50.14873293702379L47.6871919708252,173.7545143986863L47.93660197067261,62.04549509199888L48.136129970550535,47.63357952442947L48.285775970458985,66.19010789438924L48.38553997039794,93.81015437749737L48.58506797027588,76.28539978094157L48.634949970245366,55.01229419250216L48.884359970092774,69.22140697039231L48.93424197006226,46.31651923449124L49.233533969879154,105.66641659948253L49.58270796966553,76.989540908613L50.380819969177246,75.44321500413754L50.48058396911621,43.400088969154474L50.5304659690857,107.74875811924903L50.58034796905518,48.99923757648423L50.729993968963626,48.57546039473217L50.82975796890259,17.09486356040544L51.52810596847534,90.24720449053528L51.57798796844482,48.224723144467134L51.67775196838379,348.0488837528537L51.77751596832275,39.91517482220752L51.87727996826172,6.06441618122698L52.07680796813965,-125.03878750006697L52.17657196807861,13.391307907180812L52.37609996795654,39.18015021080919L52.47586396789551,25.640456216111495L52.675391967773436,36.09663361514277L52.97468396759033,23.64100378810145L53.0744479675293,56.747706163025676L53.273975967407225,91.58877197738002L54.07208796691894,31.54978568313617L54.12196996688843,85.07868932923155L54.27161596679688,46.8454534293973L54.371379966735844,58.03873608125923L54.57090796661377,25.977957615399657L54.67067196655274,-3.7641988178056636L55.26925596618653,27.67990528698102L55.518665966033936,44.500977338394364L55.56854796600342,174.5515706273618L55.967603965759274,56.721010091539036L56.01748596572876,23.157312127728808L56.266895965576175,350.831619112214L56.316777965545654,489.93761099062976L56.516305965423584,67.25218023705565L56.71583396530151,51.330085999480396L57.01512596511841,96.35788069377304L57.065007965087894,17.077298866698587L57.3144179649353,48.89827360896802L57.41418196487427,39.13914003583658L57.76335596466065,79.30865963912402L57.863119964599605,48.87206159015864L58.212293964385985,103.24525043131145L58.611349964141844,47.95731769459212L58.66123196411133,71.05248266046509L59.06028796386719,48.98166269471807L59.45934396362304,158.77780446529505L59.55910796356201,48.69490711995953L60.35721996307373,68.517423098413L60.905921962738034,53.22593761043276L61.005685962677006,65.8263141104826L61.105449962615964,-90.12194841402378L61.15533196258545,-75.78532284455287L61.255095962524415,106.93715382130175L61.3049779624939,73.4096438441984L61.40474196243286,141.93255171431156L61.454623962402344,45.71395905122256L61.50450596237182,45.493804678065544L61.75391596221924,62.099592008958105L62.05320796203613,49.213220802391696L63.05084796142578,75.94279716042183L63.44990396118164,31.502148714943356L63.599549961090084,-3.7169760841188797L63.64943196105957,147.6767876354097L63.749195960998534,62.48116719258633L63.848959960937506,43.819561336265004L63.948723960876464,101.35889936546482L64.24801596069337,-141.31551873355056L65.04612796020507,116.70963620926341L65.09600996017456,54.79561982069004L65.19577396011353,29.056467918575432L65.34541996002197,113.28044954820507L65.74447595977783,121.17667208314741L65.79435795974732,40.07607712038907L66.24329595947266,26.939581925859777L66.44282395935059,153.40964744961093L66.84187995910645,69.90434734591508L66.9915259590149,71.90825854812194L67.09128995895385,93.24705242811798L67.68987395858764,134.40601046296797L67.93928395843506,31.078937210202632L68.13881195831298,44.22684782555189L68.3882219581604,-18.13575432844662L69.03668795776368,56.326259949316416L69.13645195770265,79.96528653475252L69.43574395751953,30.12337299714546L69.58538995742798,148.91876240759302L69.68515395736695,128.3848127485362L69.88468195724488,19.367390497750414L69.93456395721435,43.814291832265326L70.23385595703125,-64.00098784193325L71.2314959564209,117.26855362303104L71.33125995635987,122.0657343982166L71.43102395629883,22.19867759317095L71.92984395599366,129.1813473485745L72.27901795578002,123.70855776507233L72.57830995559692,13.170405850329196L72.97736595535278,76.2584476895172L73.7754779548645,43.98804594777153L73.92512395477294,98.26195179126627L74.12465195465089,73.4431124580833L74.42394395446777,49.52120649488159L74.52370795440673,8.965657128852403L74.77311795425415,-13.82835599507418L74.9227639541626,152.43737002488706L75.02252795410156,64.12332509937914L75.57122995376587,134.24022460844571L75.92040395355224,-56.66420434939572L76.11993195343018,43.07551034402764L76.21969595336914,5.9582839310769415L76.618751953125,43.90706981397694L76.66863395309448,30.880681890766024L77.61639195251466,963.8114533099288L77.81591995239258,105.24336043268158L78.3147399520874,120.48256847123776L78.36462195205688,71.70593951147112L78.46438595199585,106.46914553958777L78.66391395187377,98.76660064923999L79.11285195159911,106.62172191597347L79.7114359512329,100.28002175901929L79.91096395111084,45.340651058224694L80.0107279510498,76.37383117696844L80.16037395095825,79.86704008223568L80.26013795089722,70.13158949201168L80.35990195083619,53.458965135909246L80.858721950531,529.386359676806L80.90860395050048,68.64111237126053L81.05824995040894,65.29061108882343L81.10813195037842,-39.42349572332749L81.25777795028687,61.495395503503005L81.40742395019532,74.11632407597155L81.50718795013427,54.19572962812048L81.7565979499817,187.11092304873455L82.10577194976806,174.78359564780112L82.35518194961548,122.10210265364368L82.40506394958496,-6.195517566879058L83.00364794921875,102.4708927193642L83.50246794891358,124.48173414157647L83.60223194885253,96.01160365976466L83.65211394882203,91.98885730662005L84.00128794860841,100.62073347572914L84.25069794845581,157.1607250058878L84.45022594833374,146.04402096183912L84.50010794830322,180.0625081404651L85.09869194793701,111.25678741462069L85.49774794769287,73.57339112798034L85.6972759475708,15.37789605247598L85.94668594741822,75.78837782403481L86.04644994735717,67.37433339027665L86.24597794723512,69.39214829696812L86.99420794677735,39.90747025217069L87.09397194671631,67.63550249306809L87.34338194656372,82.44759831861847L87.3932639465332,42.21756404015696L87.49302794647217,8.619111609516036L87.64267394638061,-54.2323486296664L87.84220194625854,43.42944688089279L88.14149394607543,41.76285057655877L88.34102194595337,50.76446148661319L88.59043194580077,140.90497398303341L88.88972394561767,82.89627565671799L89.03936994552612,125.47481534371401L89.28877994537353,-69.23730321956101L89.43842594528198,126.78064359790005L89.68783594512941,33.38679873446199L89.73771794509888,40.6190287664656L89.88736394500732,62.30261581959484L90.08689194488525,95.28089015563275L90.5358299446106,76.40084080096312L90.88500394439697,61.961927115913106L91.03464994430541,50.255541794172245L91.0845319442749,39.49167661349156L91.53346994400025,247.1593849573037L92.03228994369506,78.75284898415156L92.18193594360352,131.6598504762878L92.48122794342041,81.23852450562663L92.78051994323731,75.68213242649654L92.98004794311522,26.561339795803175L93.52874994277954,104.31393326630315L93.57863194274901,93.48099136539531L93.77815994262696,86.50249770754091L94.07745194244386,25.374080415709606L94.27697994232177,234.31059768136038L94.42662594223023,59.5109274334227L95.62379394149781,48.930015886165926L96.57155194091797,92.4329013550596L96.67131594085694,40.62835191947965L96.72119794082641,88.37884961267264L96.77107994079589,56.635000816720996L97.22001794052123,76.16523341914763L97.6190739402771,74.0226936533436L97.66895594024658,59.09623650234062L97.76871994018555,97.35057067443266L97.81860194015502,-0.14958468273105643L98.46706793975831,93.26597680823578L98.56683193969725,53.06777050652999L99.11553393936157,76.97733441495166L99.26517993927001,133.99176828593409L99.46470793914794,111.70230813236412L99.66423593902589,91.02160822853874L99.86376393890382,70.64835087378196L100.21293793869017,95.47536174969719L100.26281993865967,107.80052592598804L100.31270193862915,106.84538553619858L100.41246593856812,101.7634914127102L100.56211193847656,139.64659859281528L101.16069593811036,130.16864460964644L101.45998793792725,132.1061498014824L101.6096339378357,46.99059719700029L101.65951593780518,126.27638212589954L102.1583359375,43.98363080244053L102.30798193740844,42.529068868125485L102.85668393707276,77.64108000727629L103.0063299369812,289.1256208408158L103.15597593688965,53.80687705378978L103.40538593673705,65.4918197468678L103.5550319366455,103.3848206113089L104.00396993637084,42.69316422395764L104.55267193603515,92.1429755558893L104.80208193588257,91.85938984596395L104.90184593582153,19.56548472599025L106.0990139350891,87.28766003618692L106.49806993484498,7.845287032720083L106.59783393478394,76.68319723163678L106.7474799346924,88.69420480790723L107.04677193450928,60.59737249061255L107.09665393447877,90.58978409802694L107.44582793426514,81.34127000513945L107.844883934021,76.71592942862208L108.04441193389893,80.62683438289241L108.24393993377686,74.93070527931106L108.44346793365479,85.45637914661346L108.59311393356323,82.35297258252469L108.6928779335022,76.30597726357882L108.9921699333191,67.69472843866787L109.44110793304442,74.21299797156733L109.8401639328003,76.76105605899828L109.93992793273927,72.49381737743441L110.08957393264771,65.63669826534989L110.18933793258667,60.81769922176136L110.23921993255615,67.62130537247504L110.28910193252564,56.59569840020958L110.638275932312,62.164673811336336L110.83780393218994,67.05617444111702L110.88768593215943,66.86234721183973L111.2368599319458,69.34732467146205L111.63591593170166,75.8594995874164L111.68579793167113,67.25475577845191L111.88532593154908,75.00308508822947L111.98508993148803,76.13083661312886L112.43402793121338,-37.41085299470434L112.98272993087768,51.94851006984697L113.4815499305725,63.434761873987554L113.58131393051147,82.53135423443383L113.93048793029784,69.06499892482589L113.98036993026734,69.59200493961089L114.17989793014526,62.7109983043456L114.32954393005372,63.728917275949705L114.52907192993163,53.76158933221678L114.72859992980958,92.36969223784399L115.67635792922974,101.03092535981523L115.87588592910767,140.17950361380645L116.22505992889404,92.9456047728727L116.52435192871093,92.4234851910569L116.6241159286499,87.74736061475232L117.07305392837524,94.39383764501873L117.27258192825316,79.98060554046606L117.7215199279785,63.19997816680325L117.97092992782592,72.73820614722716L118.0208119277954,64.78036239400899L118.07069392776489,74.53702140739095L118.86880592727661,84.14880957330023L119.11821592712403,424.61629668679967L119.4673899269104,115.8822641515544L119.66691792678833,80.34617516304205L119.81656392669677,99.41047832729419L120.11585592651367,91.54272290812698L120.16573792648316,94.19649709344957L120.21561992645263,92.49572308630196L120.36526592636109,84.54460680830198L120.6146759262085,55.303927750133646L120.91396792602539,390.40095606569963L120.96384992599488,310.2469780424435L121.4626699256897,96.46495264257099L121.51255192565918,85.18798970625177L121.71207992553711,57.60734056839602L121.76196192550658,59.35589345740982L121.96148992538451,103.1827355404439L122.06125392532348,63.83426995977242L122.36054592514039,95.18837394711592L122.51019192504883,52.86848966902812L122.70971992492674,88.44014097754554L122.75960192489624,78.55125102238162L122.8593659248352,69.96843479370364L122.90924792480469,76.78489563837049L123.00901192474365,61.54023159439931L123.55771392440796,91.35449935119503L123.65747792434694,77.28584131657043L124.05653392410278,36.72515009693189L124.10641592407227,66.66248481593993L124.25606192398072,41.16812872655282L126.00193192291259,120.70204372034641L126.50075192260744,100.2437647332281L127.04945392227172,76.78497043071184L127.39862792205811,52.233705732863996L127.4485099220276,137.54600007074623L128.04709392166137,99.1055135142524L128.19673992156982,86.34282948299189L128.64567792129517,75.16794658612253L129.14449792098998,57.54119057796287L129.54355392074586,75.70785523866927L129.59343592071534,54.833944662944766L129.6931999206543,32.53508272851467L129.84284592056275,69.21144808247664L130.14213792037964,110.13350617043214L130.39154792022705,79.29589507953096L130.44142992019653,50.77534760778655L130.64095792007447,106.60261343163074L130.69083992004394,59.561819786217264L131.04001391983033,67.10085615294976L131.48895191955566,62.10281766839854L131.6385979194641,60.76646934455448L132.13741791915893,70.14744930388588L132.63623791885377,28.05385356954229L133.1350579185486,803.1335091394432L134.0329339179993,73.42782797191194L134.38210791778565,83.95998384213271L134.731281917572,41.5780233590258L134.83104591751098,71.5474219383277L135.1303379173279,85.8718755336795L135.23010191726684,92.79603926766505L135.37974791717528,62.03676931883955L135.42962991714478,85.20405663537895L135.72892191696167,99.37103016160472L135.9284499168396,76.46512194173829L136.4771519165039,68.2289605442802L136.62679791641236,62.9514892425018L136.87620791625977,56.9564343280058L137.52467391586305,52.49624147391864L138.72184191513063,58.67318800654903L139.6695999145508,57.37223851432281L139.9190099143982,94.58622656003901L139.96889191436767,75.17253768523095L140.4677119140625,53.79000083317397L140.61735791397095,82.42339244854884L140.86676791381836,151.99423115555328L141.26582391357422,88.05845072877673L141.41546991348267,75.60748583430906L141.76464391326905,77.11777333676037L141.96417191314697,59.906888636249725L142.26346391296386,64.05352274960933L142.61263791275024,60.999457076669835L143.310985912323,57.66083051673876L143.85968791198732,63.42124076109531L144.1090979118347,76.03836067741122L144.30862591171265,76.61074071262465L144.35850791168212,72.53279761155227L144.50815391159057,71.52808715920855L144.55803591156004,67.67861356573214L146.05449591064453,97.3500413747861L146.20414191055298,56.73814137321643L146.40366991043092,32.82364308801697L146.4535519104004,97.81500810128453L146.7029619102478,75.46145091116432L146.75284391021728,64.9467082322153L147.35142790985108,303.5127369939655L147.7504839096069,62.712006083201686L147.85024790954589,54.500202537686384L147.90012990951539,53.89047379616067L148.89776990890502,78.67719365423181L149.2968259086609,83.08301487333664L149.5462359085083,74.92791878515708L149.64599990844727,123.79898362353559L149.7956459083557,42.35513783996567L149.89540990829468,90.1308621269127L149.94529190826415,97.901445034875L150.29446590805054,82.81493610885444L150.49399390792848,115.28120988331284L150.54387590789796,101.75749268338222L150.59375790786743,387.93371397974255L150.69352190780637,92.61296295802094L150.79328590774537,88.56227878874778L151.0426959075928,71.06716689015319L151.14245990753173,63.883239765843435L151.5415159072876,71.13829057128714L152.88832990646364,51.16734937118303L152.9382119064331,61.99599119190044L153.03797590637205,71.74782130488347L153.4869139060974,77.95563549978397L153.53679590606689,72.15642337227747L153.88596990585327,57.62751628191746L154.03561590576174,67.87975510244449L154.08549790573122,73.97958258067958L154.23514390563963,63.834190373050205L154.58431790542602,73.12318725901605L154.684081905365,60.9179669852474L154.9334919052124,48.460574489101646L155.5320759048462,61.12706144092499L155.58195790481568,60.218750645592074L155.98101390457154,688.4255921414588L156.030895904541,47.617914723996655L156.38006990432737,41.726769025106925L156.52971590423584,96.91022405250988L156.57959790420531,67.9536077451621L156.6294799041748,77.1795920835275L156.77912590408326,89.05835145824494L157.72688390350342,23.166342823510607L158.12593990325928,69.47156625698427L158.17582190322875,57.99627704439171L158.32546790313722,60.37005555217457L158.67464190292358,65.12394690372821L158.82428790283203,72.70138146674253L158.924051902771,67.25314103097934L159.07369790267944,60.103415101949395L159.27322590255739,79.37971428117362L159.7221639022827,67.85180769755426L160.0214559020996,58.8834944817072L160.22098390197755,63.09196460160502L160.27086590194702,22.324225168038534L160.47039390182496,454.940042201968L160.52027590179443,233.74237533322594L160.5701579017639,126.4049942690108L160.81956790161132,141.38554737809682L161.06897790145874,44.60837938031432L161.1188599014282,81.04549889682858L161.31838790130615,57.69414187493157L161.56779790115357,69.71604324338477L161.61767990112307,66.55104422730528L161.66756190109254,67.00607124341148L161.81720790100096,45.088743500653315L162.26614590072631,66.33187390081912L162.31602790069581,69.35985526526929L162.3659099006653,64.56929457117074L162.6153199005127,70.03083270167826L162.86472990036012,55.91978562814666L163.01437590026853,50.93556574781985L163.164021900177,53.52542819941232L163.26378590011595,64.78891173395277L163.36354990005492,31.21823506936745L163.5131958999634,56.08658357646777L163.86236989974975,67.50774183199702L164.46095389938355,58.92170377938327L164.5607178993225,59.41241249557789L165.2091838989258,185.89499135336519L165.25906589889527,145.49190006237404L165.80776789855958,101.35557398290258L166.30658789825438,88.13084204420922L166.40635189819338,69.32686992497473L166.50611589813232,86.74605992607393L166.8054078979492,69.08430301990757L167.1545818977356,74.18027152783907L167.20446389770507,74.6976063175598L167.45387389755248,71.02204409528166L167.65340189743043,85.3617994365759L167.7032838973999,83.49712280770655L167.90281189727784,43.41537345532583L168.55127789688112,129.78639054168892L168.65104189682006,340.70370817606454L168.70092389678953,55.680049325537304L169.1498618965149,65.59949578765372L169.24962589645386,44.28292482180496L169.3493898963928,89.14103343274839L169.7484458961487,76.41307989641427L170.14750189590455,30.31705447724471L170.29714789581297,55.17541197407764L170.34702989578247,76.56590558060454L170.4966758956909,51.91724998750373L170.59643989562986,69.94591079243854L170.64632189559939,59.22032466767541L170.7959678955078,64.2097016237708L171.09525989532472,59.937238025949235L171.29478789520263,60.05158592713542L171.34466989517213,56.78322293641258L172.04301789474488,61.9692644363763L172.19266389465332,390.6608191791457L172.34230989456177,83.70849363541494L172.69148389434812,69.52512524441137L172.8411298942566,60.92374709080832L172.94089389419554,71.34879457493662L173.24018589401246,69.59994251655735L173.48959589385987,36.463636757594934L173.78888789367676,55.56987253569651L173.8886518936157,71.61220936572137L174.23782589340212,55.963066901331096L174.38747189331053,58.82345540911411L174.4872358932495,57.53949720264427L174.537117893219,-54.59559393640301L174.68676389312745,72.91992468821265L175.08581989288328,69.76906909566058L175.53475789260864,52.775490186920926L175.78416789245605,73.07534125581788L176.03357789230344,16.101604007300008L176.28298789215086,67.99404738881275L176.93145389175413,77.28745798179534L177.03121789169313,76.44469212603146L177.53003789138793,56.37454320004873L177.87921189117432,60.71419429232082L178.02885789108277,21.102965956661148L178.27826789093018,72.80878710444813L178.7272058906555,67.47875692308936L178.777087890625,67.66788949463171L179.0763798904419,39.76513754992357L179.37567189025881,156.3553073769981L179.52531789016723,75.99403566751427L179.72484589004517,72.6808902829607L179.77472789001465,53.134971904685024L179.82460988998412,91.59302171657147L179.9243738899231,68.46792591044778L180.12390188980103,6.84175791581948L180.27354788970948,77.41791883816494L180.32342988967898,73.16314938233334L180.52295788955686,59.65067884101654L180.5728398895264,62.018770254227086L180.62272188949586,52.2817080328781L180.87213188934325,301.64266764550854L180.97189588928222,67.82393700275769L181.47071588897703,108.41938844248396L181.81988988876344,57.53945788872125L182.1690638885498,66.2192040329328L182.31870988845824,41.919736142458525L183.21658588790893,70.06809846520174L183.46599588775635,89.59282903615711L183.9149338874817,93.00185244908425L184.06457988739012,40.74675299024215L184.1643438873291,56.756056056725804L184.51351788711548,75.64076650846437L184.7130458869934,82.04242711016558L184.76292788696287,75.62497957117921L185.16198388671876,20.683839264410373L185.36151188659667,64.07896365218767L185.41139388656617,39.00546023215975L185.56103988647462,92.68014565809064L185.66080388641356,20.251025573689727L186.00997788619998,81.66586876666588L186.20950588607786,57.606812227625596L186.4090338859558,78.09808997930486L186.60856188583375,4.1785867440176006L186.70832588577272,72.35800982753337L187.0076178855896,80.15671849135377L187.8057298851013,60.201221430303576L187.95537588500977,48.1334136254278L188.1050218849182,95.40758071089658L188.25466788482666,42.80224645664884L188.30454988479613,68.52852304897262L188.55395988464355,77.40612849676198L189.2523078842163,89.19957090525712L189.40195388412477,72.63963559456442L189.45183588409424,55.71757254731278L189.8508918838501,78.34828186768664L190.24994788360598,-5.176723141330527L190.89841388320923,56.39565094120872L191.24758788299562,34.03618515612061L191.5468798828125,112.35996677875302L191.79628988265992,100.53993473402625L192.34499188232422,47.843286402331756L192.74404788208008,118.82635152202056L192.79392988204955,84.13131200092539L193.04333988189697,115.40478984427682L193.14310388183594,40.13701849545941L193.2428678817749,90.66482958270173L193.39251388168336,83.9954085634072L193.4922778816223,116.6668626610117L193.74168788146972,76.85850280878822L193.7915698814392,77.4943949660874L194.19062588119507,74.0939860966837L194.24050788116455,80.3854373067543L194.390153881073,68.88100976506666L194.73932788085935,63.916828239249746L194.88897388076782,69.4544407285639L194.9388558807373,50.478571597248106L194.98873788070676,67.59144596849909L195.43767588043212,65.69254129581714L195.63720388031004,48.05240079963722L195.83673188018798,70.56975946502551L196.18590587997437,63.37866186470638L196.23578787994384,43.8997267402567L196.48519787979126,71.2811381900383L197.2334278793335,103.75321316533336L197.28330987930298,50.26780713885858L197.48283787918092,95.0037212450461L197.58260187911986,55.13612346127069L197.93177587890625,118.63072544104578L198.1313038787842,98.38778319348056L198.58024187850953,81.81602877509977L198.630123878479,32.67896881015941L198.6800058784485,71.08624852596313L198.72988787841797,83.47788391620452L198.77976987838747,72.2438747968572L198.97929787826538,99.63640105977902L199.07906187820436,85.62507998469663L199.1788258781433,99.83924556057174L199.32847187805177,-104.86685578624747L199.4781178779602,96.8974096313559L199.5279998779297,88.2205813473338L199.67764587783813,70.82257100310746L200.22634787750246,73.65062476807817L200.52563987731935,107.91181692993997L200.82493187713624,93.8127778627022L201.27386987686157,96.34651225788548L201.32375187683104,26.706059140840797L201.57316187667845,74.75031574069907L201.72280787658693,65.32233646582883L202.02209987640381,65.77770675960437L202.22162787628173,56.70417510259858L202.42115587615967,62.57279548176847L202.82021187591553,45.43665421993864L202.96985787582398,59.697723223735466L203.2691498756409,85.73873749503946L203.31903187561036,58.80548798741529L203.7180878753662,1.7612369030084736L203.86773387527467,81.78242208304619L203.91761587524414,74.43379071653544L204.06726187515258,56.94271664549843L204.51619987487794,125.43007801706334L205.1646658744812,72.24063954865505L205.2145478744507,76.49201074733539L205.26442987442016,65.20158518957034L205.31431187438966,86.35275193361304L205.4639578742981,73.06448485980582L206.0126598739624,77.86805558579728L207.20982787322998,58.49901869766064L207.35947387313843,66.29344981488066L207.4592378730774,63.219057884860824L207.55900187301637,56.649965038251146L207.7086478729248,59.82427857745916L207.8084118728638,50.15458603703326L207.90817587280273,48.7336393047978L208.0578218727112,63.068708977821196L208.10770387268067,75.83585370103083L209.00557987213136,36.45275830743093L209.50439987182617,76.30139191772743L209.85357387161255,61.709096400307764L210.05310187149047,45.56479699316401L210.10298387145994,52.26493345313645L210.35239387130736,48.3623198636637L210.40227587127686,66.77305090950631L210.5519218711853,70.33655502689545L211.10062387084963,74.0827058774039L211.1505058708191,73.5916519657876L211.74908987045288,80.56292336831939L211.79897187042235,64.7031210829018L211.89873587036132,65.42336174149024L211.94861787033082,41.30663551287625L212.09826387023926,64.62456227593519L212.14814587020874,54.34468960302593L212.1980278701782,68.169245571833L212.5472018699646,83.37777724391525L212.64696586990357,75.5210220521858L212.7467298698425,106.86188587735522L213.3453138694763,53.911784819069L213.4949598693848,35.4299768747619L213.54484186935426,187.59338351210314L213.59472386932373,86.5355750999479L213.6446058692932,82.16652869976677L213.84413386917115,158.08627831253398L213.9937798690796,93.02882371803206L214.74200986862184,-17.788863613688573L214.84177386856078,41.91759305421555L215.1410658683777,83.53464555004395L215.24082986831664,132.88788702444435L215.44035786819458,84.75991286381759L215.63988586807253,72.68429429336902L215.689767868042,55.92701267785014L216.43799786758422,76.13985388464425L216.88693586730957,55.45677692679009L216.98669986724852,72.16629404358535L217.08646386718752,77.71236861511169L217.23610986709593,71.7838232696131L217.3358738670349,65.93155460579328L217.48551986694338,47.676917011729465L217.93445786666868,53.788145407782395L218.08410386657715,78.48167496738826L218.2337498664856,61.66182380506006L219.3311538658142,109.06763476037486L219.58056386566162,90.88962467680904L219.87985586547853,198.51301932541534L220.02950186538695,50.820262326528905L220.2290298652649,-31.85622908323421L220.52832186508178,100.40731448851875L220.67796786499022,82.57431188691044L220.7777318649292,85.41877202317302L220.87749586486817,72.0540575877285L221.02714186477664,79.53357363387659L221.12690586471558,79.22170683015338L221.276551864624,63.24905632588161L222.12454586410522,61.02390746016317L222.1744278640747,67.44585979940257L222.32407386398316,57.37930255507718L222.72312986373902,60.27639348663296L222.7730118637085,58.07614375845605L223.22194986343385,57.30943212509919L223.27183186340332,47.267090878973L223.52124186325074,47.73347842023836L223.5711238632202,52.67923627908818L223.62100586318968,66.89636046738998L223.77065186309815,68.13909466950099L224.06994386291504,71.03642148459494L224.31935386276245,52.88009255013957L224.4689998626709,36.612309549087065L224.86805586242676,77.61393614061761L225.0675838623047,69.37877580988243L225.16734786224364,64.32168973069929L225.616285861969,70.96130696083583L225.86569586181642,74.58942207240305L226.1649878616333,66.60094797876718L226.21486986160278,64.05045242810866L226.4642798614502,64.14792794418372L226.81345386123658,53.78626696936272L227.16262786102294,289.10625921316387L227.46191986083986,21.799996058645785L227.61156586074827,73.1085586441459L227.71132986068727,131.19355282966353L227.76121186065674,59.822003164304526L228.1103858604431,254.9263126293008L228.50944186019896,69.50653455320116L228.55932386016846,71.59558053515774L228.65908786010743,77.28537338499882L228.85861585998538,29.85049985180648L229.05814385986326,74.69378999039782L229.30755385971068,45.97513174979963L229.90613785934448,44.29655860264733L230.20542985916137,70.86280352950507L230.50472185897826,81.27794965828798L230.65436785888673,32.816343163724476L230.9536598587036,61.61945873805735L231.5522438583374,29.601263004091386L231.75177185821533,53.48399324229582L232.1009458580017,75.95704989583281L232.25059185791017,65.17860284549533L232.79929385757447,64.45413737849596L233.29811385726927,48.14552514540085L233.34799585723874,51.48687807495343L233.49764185714722,58.82766775213486L233.7969338569641,55.951765586775544L234.04634385681152,63.42343658752771L234.79457385635376,79.21310762864867L234.84445585632324,77.15567195855692L235.24351185607912,69.17090679795183L235.49292185592654,56.48671732895446L235.79221385574343,66.76782311662008L235.89197785568237,63.74161183758224L235.94185985565184,62.87209046000908L236.24115185546876,63.28825518376652L236.7399718551636,61.29553023097469L236.889617855072,65.62182034267515L236.98938185501098,63.16986753727043L237.03926385498048,67.9883190625651L237.08914585494995,47.08688023069674L237.28867385482786,80.6569162461401L237.7874938545227,75.17003885392842L237.83737585449217,71.54597595306132L237.93713985443117,71.62243290346032L238.43595985412597,47.12202591900536L238.48584185409544,56.62583108389435L239.33383585357666,48.708130981238675L239.68300985336302,59.00870644991482L239.88253785324096,34.33505343446496L240.33147585296632,86.83434557292274L240.5808858528137,70.88446837772062L240.83029585266112,36.68120767862728L241.129587852478,74.72107001747281L241.57852585220337,73.60270013703393L241.77805385208129,89.73351534801806L241.97758185195923,67.46353380499295L242.1272278518677,72.56519228412526L242.4265198516846,75.44351800900768L242.67592985153198,61.62296534821599L242.97522185134886,71.29657226089239L243.22463185119628,62.693963869161514L243.37427785110475,55.44744274670007L243.42415985107422,54.864179466941785L243.7733338508606,58.69221210978866L244.17238985061644,65.1072049257764L244.57144585037233,79.22432264434883L244.77097385025024,58.70822246522176L244.9206198501587,69.77724255614521L245.07026585006713,60.694982249351604L245.1201478500366,61.01949662977495L245.5192038497925,52.71543337511866L245.61896784973143,64.63257272747069L246.16766984939576,56.97810205284987L246.5667258491516,67.86584948020754L246.8660178489685,285.9179422463494L247.11542784881593,764.0673904006836L247.31495584869387,99.06988167572489L247.7140118484497,111.64746041536273L248.8612978477478,77.349861643027L249.1605898475647,39.10232302636131L249.36011784744264,91.67205612611906L250.10834784698486,367.3396619622653L250.40763984680177,135.12567387810122L250.5572858467102,157.59373047184272L250.6570498466492,153.25045866314758L251.00622384643555,89.54940728761358L251.155869846344,110.73907866319314L251.35539784622193,28.804009246924586L251.55492584609985,63.75288438585266L251.60480784606935,96.3117165593794L251.65468984603882,87.81632682450072L251.75445384597776,85.12149356152075L252.05374584579465,56.40204856302398L252.40291984558107,75.56605471269724L252.50268384552,195.9130687773431L252.60244784545898,36.614405652397636L252.80197584533693,46.78446027501371L252.95162184524534,70.48379429851138L253.00150384521487,65.92445892212528L253.1012678451538,89.90858312387898L253.50032384490967,69.04741313584327L253.89937984466553,65.64329533340877L253.9991438446045,61.94501925238364L254.69749184417725,82.86758224616642L254.8471378440857,90.78273299673127L254.99678384399414,83.11689005071821L255.49560384368897,58.71946337057852L255.69513184356688,56.37662587909289L255.84477784347536,49.191261699051076L256.5930078430176,67.47821803468105L256.84241784286496,63.9206321010215L256.89229984283446,58.8838262528625L257.0918278427124,63.232441878460584L257.29135584259035,70.71347390783558L257.3412378425598,72.43210794255083L257.3911198425293,71.15097650303413L257.49088384246824,63.705146735661856L257.7402938423157,62.754636758903864L257.7901758422851,61.463527253948094L257.8400578422547,56.680671129886385L258.28899584197995,56.16325339737682L258.68805184173584,61.69713154344163L258.8875798416138,65.89597454657904L258.98734384155273,60.32041740941212L259.2866358413696,65.49650289808869L259.6856918411255,56.017769348592545L259.73557384109495,53.66553439118957L260.0348658409119,56.82165565223659L260.1845118408203,56.35780985198244L260.58356784057617,62.645684453933875L260.63344984054567,67.3171210846367L260.88285984039305,70.6586894766615L261.0325058403015,64.45819726020545L261.082387840271,65.246535386731L261.23203384017944,58.744535105830884L261.3816798400879,56.826415513551176L261.5313258399963,59.32720292348676L262.12990983963016,56.54342910123296L262.32943783950805,51.788878522311514L262.67861183929443,86.79035616968577L262.9779038391113,328.4973832769465L263.12754983901976,31.90168940251806L263.17743183898926,77.08292202343637L263.2273138389587,75.54208856167044L263.3769598388672,85.81545525975707L263.42684183883665,86.17810989877216L263.77601583862304,67.25148217520291L263.87577983856204,62.18083183369982L263.975543838501,37.05943350778898L264.27483583831787,166.9100256035308L264.5242458381653,80.85645070638928L264.57412783813476,75.52657010971325L264.7237738380432,73.91746466454697L264.87341983795164,871.9214753140985L264.97318383789064,93.13284260510046L265.0729478378296,53.84552839338084L265.4720038375855,71.07328452012642L265.8710598373413,69.39751033251832L265.9708238372803,72.67659068220838L266.07058783721925,121.80580224568622L266.1204698371887,118.47534914623975L266.1703518371582,88.06531244665894L266.5195258369446,83.67872244804674L266.5694078369141,95.57975651622472L267.46728383636474,46.27471127454408L267.6169298362732,20.745834444393036L268.1656318359375,70.54466184011655L268.4649238357544,78.32546061480842L269.1133898353577,12.251783300649544L269.41268183517457,71.00571443408352L269.462563835144,227.97299384341025L269.76185583496095,64.8569229030345L269.8616198348999,76.02305317821174L270.06114783477784,60.451286747030736L270.6098498344421,276.53080534312176L270.7096138343811,86.05087470184299L270.80937783432006,56.84710230807196L271.008905834198,126.55368911465483L271.108669834137,120.13364493899643L271.35807983398433,111.76949850344317L271.5576078338623,114.83162736610757L271.8070178337097,93.36275426245811L273.2535958328247,73.73348701130182L273.35335983276366,86.00072547808124L273.80229783248905,79.35832942480012L273.8521798324585,62.78507052970645L273.902061832428,99.45187109385914L274.3011178321838,74.5247324503789" fill="none"></path></g></g></g></g></g></g><g transform="translate(30, 176)" clip-path="url(#clip_1)"><clipPath id="clip_1"><rect width="299" height="23"></rect></clipPath><g><g><line x1="0" y1="0" x2="0" y2="5" style="visibility: inherit;" fill="rgb(0, 0, 0)" stroke="rgb(204, 204, 204)" stroke-width="1px"></line><line x1="24.94099998474121" y1="0" x2="24.94099998474121" y2="5" style="visibility: inherit;" fill="rgb(0, 0, 0)" stroke="rgb(204, 204, 204)" stroke-width="1px"></line><line x1="49.88199996948242" y1="0" x2="49.88199996948242" y2="5" style="visibility: inherit;" fill="rgb(0, 0, 0)" stroke="rgb(204, 204, 204)" stroke-width="1px"></line><line x1="74.82299995422363" y1="0" x2="74.82299995422363" y2="5" style="visibility: inherit;" fill="rgb(0, 0, 0)" stroke="rgb(204, 204, 204)" stroke-width="1px"></line><line x1="99.76399993896484" y1="0" x2="99.76399993896484" y2="5" style="visibility: inherit;" fill="rgb(0, 0, 0)" stroke="rgb(204, 204, 204)" stroke-width="1px"></line><line x1="124.70499992370605" y1="0" x2="124.70499992370605" y2="5" style="visibility: inherit;" fill="rgb(0, 0, 0)" stroke="rgb(204, 204, 204)" stroke-width="1px"></line><line x1="149.64599990844727" y1="0" x2="149.64599990844727" y2="5" style="visibility: inherit;" fill="rgb(0, 0, 0)" stroke="rgb(204, 204, 204)" stroke-width="1px"></line><line x1="174.58699989318848" y1="0" x2="174.58699989318848" y2="5" style="visibility: inherit;" fill="rgb(0, 0, 0)" stroke="rgb(204, 204, 204)" stroke-width="1px"></line><line x1="199.5279998779297" y1="0" x2="199.5279998779297" y2="5" style="visibility: inherit;" fill="rgb(0, 0, 0)" stroke="rgb(204, 204, 204)" stroke-width="1px"></line><line x1="224.4689998626709" y1="0" x2="224.4689998626709" y2="5" style="visibility: inherit;" fill="rgb(0, 0, 0)" stroke="rgb(204, 204, 204)" stroke-width="1px"></line><line x1="249.4099998474121" y1="0" x2="249.4099998474121" y2="5" style="visibility: inherit;" fill="rgb(0, 0, 0)" stroke="rgb(204, 204, 204)" stroke-width="1px"></line><line x1="274.3509998321533" y1="0" x2="274.3509998321533" y2="5" style="visibility: inherit;" fill="rgb(0, 0, 0)" stroke="rgb(204, 204, 204)" stroke-width="1px"></line><line x1="299.29199981689453" y1="0" x2="299.29199981689453" y2="5" style="visibility: inherit;" fill="rgb(0, 0, 0)" stroke="rgb(204, 204, 204)" stroke-width="1px"></line></g><g transform="translate(0, 8)"><text style="text-anchor: middle; visibility: hidden; font-family: Roboto, sans-serif; font-size: 12px; font-weight: 200;" x="0" y="0" dx="0em" dy="0.95em" fill="rgb(33, 33, 33)" stroke="none" stroke-width="1px">-500</text><text style="text-anchor: middle; visibility: inherit; font-family: Roboto, sans-serif; font-size: 12px; font-weight: 200;" x="24.94099998474121" y="0" dx="0em" dy="0.95em" fill="rgb(33, 33, 33)" stroke="none" stroke-width="1px">0</text><text style="text-anchor: middle; visibility: inherit; font-family: Roboto, sans-serif; font-size: 12px; font-weight: 200;" x="49.88199996948242" y="0" dx="0em" dy="0.95em" fill="rgb(33, 33, 33)" stroke="none" stroke-width="1px">500</text><text style="text-anchor: middle; visibility: inherit; font-family: Roboto, sans-serif; font-size: 12px; font-weight: 200;" x="74.82299995422363" y="0" dx="0em" dy="0.95em" fill="rgb(33, 33, 33)" stroke="none" stroke-width="1px">1k</text><text style="text-anchor: middle; visibility: inherit; font-family: Roboto, sans-serif; font-size: 12px; font-weight: 200;" x="99.76399993896484" y="0" dx="0em" dy="0.95em" fill="rgb(33, 33, 33)" stroke="none" stroke-width="1px">1.5k</text><text style="text-anchor: middle; visibility: inherit; font-family: Roboto, sans-serif; font-size: 12px; font-weight: 200;" x="124.70499992370605" y="0" dx="0em" dy="0.95em" fill="rgb(33, 33, 33)" stroke="none" stroke-width="1px">2k</text><text style="text-anchor: middle; visibility: inherit; font-family: Roboto, sans-serif; font-size: 12px; font-weight: 200;" x="149.64599990844727" y="0" dx="0em" dy="0.95em" fill="rgb(33, 33, 33)" stroke="none" stroke-width="1px">2.5k</text><text style="text-anchor: middle; visibility: inherit; font-family: Roboto, sans-serif; font-size: 12px; font-weight: 200;" x="174.58699989318848" y="0" dx="0em" dy="0.95em" fill="rgb(33, 33, 33)" stroke="none" stroke-width="1px">3k</text><text style="text-anchor: middle; visibility: inherit; font-family: Roboto, sans-serif; font-size: 12px; font-weight: 200;" x="199.5279998779297" y="0" dx="0em" dy="0.95em" fill="rgb(33, 33, 33)" stroke="none" stroke-width="1px">3.5k</text><text style="text-anchor: middle; visibility: inherit; font-family: Roboto, sans-serif; font-size: 12px; font-weight: 200;" x="224.4689998626709" y="0" dx="0em" dy="0.95em" fill="rgb(33, 33, 33)" stroke="none" stroke-width="1px">4k</text><text style="text-anchor: middle; visibility: inherit; font-family: Roboto, sans-serif; font-size: 12px; font-weight: 200;" x="249.4099998474121" y="0" dx="0em" dy="0.95em" fill="rgb(33, 33, 33)" stroke="none" stroke-width="1px">4.5k</text><text style="text-anchor: middle; visibility: inherit; font-family: Roboto, sans-serif; font-size: 12px; font-weight: 200;" x="274.3509998321533" y="0" dx="0em" dy="0.95em" fill="rgb(33, 33, 33)" stroke="none" stroke-width="1px">5k</text><text style="text-anchor: middle; visibility: hidden; font-family: Roboto, sans-serif; font-size: 12px; font-weight: 200;" x="299.29199981689453" y="0" dx="0em" dy="0.95em" fill="rgb(33, 33, 33)" stroke="none" stroke-width="1px">5.5k</text></g><line x1="0" y1="0" x2="299.29199981689453" y2="0" fill="rgb(0, 0, 0)" stroke="rgb(204, 204, 204)" stroke-width="1px"></line></g></g></g></g></svg>