<svg viewBox="0 0 330 200" xmlns="http://www.w3.org/2000/svg"><g><g><g><g><g><line x1="41.0620002746582" y1="176.95999908447266" x2="36.0620002746582" y2="176.95999908447266" style="visibility: inherit;" fill="rgb(0, 0, 0)" stroke="rgb(204, 204, 204)" stroke-width="1px"></line><line x1="41.0620002746582" y1="151.67999921526228" x2="36.0620002746582" y2="151.67999921526228" style="visibility: inherit;" fill="rgb(0, 0, 0)" stroke="rgb(204, 204, 204)" stroke-width="1px"></line><line x1="41.0620002746582" y1="126.3999993460519" x2="36.0620002746582" y2="126.3999993460519" style="visibility: inherit;" fill="rgb(0, 0, 0)" stroke="rgb(204, 204, 204)" stroke-width="1px"></line><line x1="41.0620002746582" y1="101.11999947684151" x2="36.0620002746582" y2="101.11999947684151" style="visibility: inherit;" fill="rgb(0, 0, 0)" stroke="rgb(204, 204, 204)" stroke-width="1px"></line><line x1="41.0620002746582" y1="75.83999960763114" x2="36.0620002746582" y2="75.83999960763114" style="visibility: inherit;" fill="rgb(0, 0, 0)" stroke="rgb(204, 204, 204)" stroke-width="1px"></line><line x1="41.0620002746582" y1="50.55999973842076" x2="36.0620002746582" y2="50.55999973842076" style="visibility: inherit;" fill="rgb(0, 0, 0)" stroke="rgb(204, 204, 204)" stroke-width="1px"></line><line x1="41.0620002746582" y1="25.27999986921039" x2="36.0620002746582" y2="25.27999986921039" style="visibility: inherit;" fill="rgb(0, 0, 0)" stroke="rgb(204, 204, 204)" stroke-width="1px"></line><line x1="41.0620002746582" y1="0" x2="36.0620002746582" y2="0" style="visibility: inherit;" fill="rgb(0, 0, 0)" stroke="rgb(204, 204, 204)" stroke-width="1px"></line></g><g transform="translate(31.062000274658203, 0)"><text style="text-anchor: end; visibility: hidden; font-family: Roboto, sans-serif; font-size: 12px; font-weight: 200;" x="0" y="176.95999908447266" dx="0em" dy="0.3em" fill="rgb(33, 33, 33)" stroke="none" stroke-width="1px">-50</text><text style="text-anchor: end; visibility: inherit; font-family: Roboto, sans-serif; font-size: 12px; font-weight: 200;" x="0" y="151.67999921526228" dx="0em" dy="0.3em" fill="rgb(33, 33, 33)" stroke="none" stroke-width="1px">0</text><text style="text-anchor: end; visibility: inherit; font-family: Roboto, sans-serif; font-size: 12px; font-weight: 200;" x="0" y="126.3999993460519" dx="0em" dy="0.3em" fill="rgb(33, 33, 33)" stroke="none" stroke-width="1px">50</text><text style="text-anchor: end; visibility: inherit; font-family: Roboto, sans-serif; font-size: 12px; font-weight: 200;" x="0" y="101.11999947684151" dx="0em" dy="0.3em" fill="rgb(33, 33, 33)" stroke="none" stroke-width="1px">100</text><text style="text-anchor: end; visibility: inherit; font-family: Roboto, sans-serif; font-size: 12px; font-weight: 200;" x="0" y="75.83999960763114" dx="0em" dy="0.3em" fill="rgb(33, 33, 33)" stroke="none" stroke-width="1px">150</text><text style="text-anchor: end; visibility: inherit; font-family: Roboto, sans-serif; font-size: 12px; font-weight: 200;" x="0" y="50.55999973842076" dx="0em" dy="0.3em" fill="rgb(33, 33, 33)" stroke="none" stroke-width="1px">200</text><text style="text-anchor: end; visibility: inherit; font-family: Roboto, sans-serif; font-size: 12px; font-weight: 200;" x="0" y="25.27999986921039" dx="0em" dy="0.3em" fill="rgb(33, 33, 33)" stroke="none" stroke-width="1px">250</text><text style="text-anchor: end; visibility: hidden; font-family: Roboto, sans-serif; font-size: 12px; font-weight: 200;" x="0" y="0" dx="0em" dy="0.3em" fill="rgb(33, 33, 33)" stroke="none" stroke-width="1px">300</text></g><line x1="41.0620002746582" y1="0" x2="41.0620002746582" y2="176.95999908447266" fill="rgb(0, 0, 0)" stroke="rgb(204, 204, 204)" stroke-width="1px"></line></g></g><g transform="translate(41, 0)" clip-path="url(#clip_0)"><clipPath id="clip_0"><rect width="288" height="176"></rect></clipPath><g><g><g><line x1="0" y1="0" x2="0" y2="176.95999908447266" fill="rgb(0, 0, 0)" stroke="rgb(66, 66, 66)" stroke-width="1px" opacity="0.25"></line><line x1="24.07816664377848" y1="0" x2="24.07816664377848" y2="176.95999908447266" fill="rgb(0, 0, 0)" stroke="rgb(66, 66, 66)" stroke-width="1px" opacity="0.25"></line><line x1="48.15633328755696" y1="0" x2="48.15633328755696" y2="176.95999908447266" fill="rgb(0, 0, 0)" stroke="rgb(66, 66, 66)" stroke-width="1px" opacity="0.25"></line><line x1="72.23449993133545" y1="0" x2="72.23449993133545" y2="176.95999908447266" fill="rgb(0, 0, 0)" stroke="rgb(66, 66, 66)" stroke-width="1px" opacity="0.25"></line><line x1="96.31266657511392" y1="0" x2="96.31266657511392" y2="176.95999908447266" fill="rgb(0, 0, 0)" stroke="rgb(66, 66, 66)" stroke-width="1px" opacity="0.25"></line><line x1="120.39083321889242" y1="0" x2="120.39083321889242" y2="176.95999908447266" fill="rgb(0, 0, 0)" stroke="rgb(66, 66, 66)" stroke-width="1px" opacity="0.25"></line><line x1="144.4689998626709" y1="0" x2="144.4689998626709" y2="176.95999908447266" fill="rgb(0, 0, 0)" stroke="rgb(66, 66, 66)" stroke-width="1px" opacity="0.25"></line><line x1="168.5471665064494" y1="0" x2="168.5471665064494" y2="176.95999908447266" fill="rgb(0, 0, 0)" stroke="rgb(66, 66, 66)" stroke-width="1px" opacity="0.25"></line><line x1="192.62533315022785" y1="0" x2="192.62533315022785" y2="176.95999908447266" fill="rgb(0, 0, 0)" stroke="rgb(66, 66, 66)" stroke-width="1px" opacity="0.25"></line><line x1="216.70349979400635" y1="0" x2="216.70349979400635" y2="176.95999908447266" fill="rgb(0, 0, 0)" stroke="rgb(66, 66, 66)" stroke-width="1px" opacity="0.25"></line><line x1="240.78166643778485" y1="0" x2="240.78166643778485" y2="176.95999908447266" fill="rgb(0, 0, 0)" stroke="rgb(66, 66, 66)" stroke-width="1px" opacity="0.25"></line><line x1="264.8598330815633" y1="0" x2="264.8598330815633" y2="176.95999908447266" fill="rgb(0, 0, 0)" stroke="rgb(66, 66, 66)" stroke-width="1px" opacity="0.25"></line><line x1="288.9379997253418" y1="0" x2="288.9379997253418" y2="176.95999908447266" fill="rgb(0, 0, 0)" stroke="rgb(66, 66, 66)" stroke-width="1px" opacity="0.25"></line></g><g><line x1="0" y1="176.95999908447266" x2="288.9379997253418" y2="176.95999908447266" fill="rgb(0, 0, 0)" stroke="rgb(66, 66, 66)" stroke-width="1px" opacity="0.25"></line><line x1="0" y1="151.67999921526228" x2="288.9379997253418" y2="151.67999921526228" fill="rgb(0, 0, 0)" stroke="rgb(66, 66, 66)" stroke-width="1px" opacity="0.25"></line><line x1="0" y1="126.3999993460519" x2="288.9379997253418" y2="126.3999993460519" fill="rgb(0, 0, 0)" stroke="rgb(66, 66, 66)" stroke-width="1px" opacity="0.25"></line><line x1="0" y1="101.11999947684151" x2="288.9379997253418" y2="101.11999947684151" fill="rgb(0, 0, 0)" stroke="rgb(66, 66, 66)" stroke-width="1px" opacity="0.25"></line><line x1="0" y1="75.83999960763114" x2="288.9379997253418" y2="75.83999960763114" fill="rgb(0, 0, 0)" stroke="rgb(66, 66, 66)" stroke-width="1px" opacity="0.25"></line><line x1="0" y1="50.55999973842076" x2="288.9379997253418" y2="50.55999973842076" fill="rgb(0, 0, 0)" stroke="rgb(66, 66, 66)" stroke-width="1px" opacity="0.25"></line><line x1="0" y1="25.27999986921039" x2="288.9379997253418" y2="25.27999986921039" fill="rgb(0, 0, 0)" stroke="rgb(66, 66, 66)" stroke-width="1px" opacity="0.25"></line><line x1="0" y1="0" x2="288.9379997253418" y2="0" fill="rgb(0, 0, 0)" stroke="rgb(66, 66, 66)" stroke-width="1px" opacity="0.25"></line></g></g></g><g><g><line x1="0" y1="151.67999921526228" x2="288.9379997253418" y2="151.67999921526228" fill="rgb(0, 0, 0)" stroke="rgb(153, 153, 153)" stroke-width="1.5px"></line></g></g><g><g><line x1="24.07816664377848" y1="0" x2="24.07816664377848" y2="176.95999908447266" fill="rgb(0, 0, 0)" stroke="rgb(153, 153, 153)" stroke-width="1.5px"></line></g></g><g><g><g><g><g><path style="fill: none;" stroke="rgb(255, 112, 67)" stroke-width="2px" d="M25.37838764254252,-77.16485675967043L26.00441997528076,15.904051816076228L26.341514308293657,70.35609580128178L26.38967064158122,74.99280394678026L26.437826974868774,87.15893590937337L26.67860864130656,79.67726911563018L27.063859307607014,106.28311054759412L27.112015640894572,123.82601548176562L27.256484640757243,134.37224133206672L27.3046409740448,140.94311472041767L27.449109973907472,145.20879233288107L27.497266307195027,105.42391772364577L27.786204306920368,122.9365797458234L28.026985973358155,123.3408587490247L28.364080306371054,104.49748762398825L28.84564363924662,122.88524292957675L29.038268972396853,134.17138295554142L29.23089430554708,124.26049530021685L29.905082971572874,135.06522562646762L30.097708304723106,97.31415405931135L30.14586463801066,118.27697625738368L30.242177304585777,131.63787238768975L30.338489971160886,136.14995421830253L30.62742797088623,106.76390242820582L31.01267863718669,120.94532034838326L31.108991303761798,128.93185757745493L31.15714763704936,137.94786204879443L31.30161663691203,137.38255486998074L31.638710969924926,142.8147868118475L31.783179969787597,126.01064606064186L31.879492636362713,133.51709745159016L31.975805302937825,39.64535356611606L32.31289963595073,19.728679694419352L32.36105596923828,72.08601093003716L32.60183763567606,68.99479329735699L32.93893196868897,101.60539077355259L32.98708830197652,118.46042745766128L33.27602630170186,124.6195322728689L33.32418263498942,135.3002202456791L33.853902301152544,125.11124191948826L33.95021496772766,132.3310285519874L34.33546563402812,139.98226736152057L34.431778300603234,134.54698166894408L34.86518530019124,134.06419317854625L35.105966966629026,139.43283719373528L35.82831196594238,141.04440786896743L35.87646829922994,124.18508600106487L36.502500631968175,15.352988156587436L36.55065696525574,55.90147773054735L36.5988132985433,93.23693747573682L37.12853296470642,104.73085570959206L37.27300196456909,120.2090703408568L37.46562729771932,125.40483640152235L37.65825263086955,134.41733811191506L37.802721630732215,130.4589336250825L37.94719063059489,137.93448863836744L38.04350329717,142.1407044834757L38.28428496360779,123.66024014779263L38.380597630182905,121.48061251591774L38.42875396347046,111.58702494605647L38.91031729634602,126.9931784820768L39.102942629496255,124.0516211190016L39.29556796264649,129.52049910513756L39.391880629221596,129.51595360913157L39.44003696250916,138.3306656361795L39.58450596237183,143.60097993975378L40.306850961685186,146.77133127255806L40.692101627985636,146.80009366716874L40.74025796127319,134.18404090318208L41.31813396072388,123.47898412429288L41.60707196044922,129.0957528950604L41.655228293736776,128.43743522328413L41.703384627024334,137.3693496696206L42.28126062647502,141.49212317414128L42.666511292775475,132.89326971084793L42.8591366259257,121.08998051880796L42.955449292500816,114.10512145620653L43.1962309589386,126.57196714096051L43.43701262537639,128.9677184770433L43.5333252919515,138.04401340943755L44.063044958114624,143.2389642882855L44.351982957839965,138.33962066517324L44.40013929112752,143.3885262495978L45.07432795715332,132.85386806611868L45.12248429044088,132.17900408385248L45.21879695701599,133.05830166441118L45.45957862345377,120.73980600186361L45.555891290028896,133.0087092449614L45.84482928975424,140.41075368160682L46.037454622904455,48.56530004981551L46.278236289342246,88.1395397246427L46.47086162249247,112.64264090842698L46.615330622355145,126.97556024121181L46.711643288930254,96.01551795619537L46.90426862208049,117.65332319439435L46.952424955368045,130.30174419487807L47.19320662180583,137.80028711668146L47.241362955093386,143.11629842095715L47.53030095481873,126.40877388190263L47.86739528783162,128.2977892921461L48.637896620432535,136.47809127283017L48.734209287007644,141.81565095999574L48.78236562029521,136.98183562979023L48.83052195358277,140.20130338731022L48.974990953445435,144.7886210520468L49.07130362002055,143.98313138361326L49.74549228604634,140.01099045704848L49.79364861933391,144.67850558148783L49.88996128590902,52.878368680677745L49.986273952484126,88.26155985634699L50.08258661905925,106.84614221703607L50.27521195220947,105.23993621116819L50.37152461878459,87.51649847560617L50.56414995193481,112.8359508588297L50.66046261850993,128.27306439992077L50.85308795166015,137.10664146661261L51.1420259513855,136.8519874539942L51.238338617960615,140.75428836284593L51.43096395111084,135.30077231518416L52.201465283711755,133.00380581630765L52.24962161699931,132.33299993675956L52.39409061686198,139.90527678387937L52.4904032834371,144.26895949296488L52.683028616587315,145.52027967785617L52.77934128316244,137.88532135366015L53.35721728261312,142.46831689888967L53.597998949050904,146.14935329447647L53.64615528233846,118.55159443420457L54.03140594863891,126.92083969219847L54.07956228192648,134.72564863923583L54.32034394836426,133.131522692277L54.36850028165182,33.789276978817384L54.56112561480204,68.57344768545111L54.75375094795227,100.8624692544576L55.04268894767761,86.72581782333205L55.090845280965176,111.35599036512367L55.33162694740295,122.238970944042L55.42793961397807,133.3103871048103L55.76503394699097,134.77644744817135L55.86134661356608,140.6635500284276L56.198440946578984,144.36118807535956L56.583691612879434,147.17613444596557L56.63184794616699,146.0969012011079L57.01709861246745,147.8021409392865L57.4023492787679,110.84574972233843L57.498661945343024,127.13094805102415L58.269163277943925,135.6522389152822L58.79888294410705,134.45651253751987L58.89519561068217,140.29100667452371L58.99150827725728,98.15701760424925L59.03966461054484,91.33495555096282L59.135977277119956,104.08484225528821L59.184133610407514,117.94352619888657L59.28044627698262,100.64145915851766L59.32860261027018,118.03778720367112L59.37675894355774,129.06923199644189L59.61754060999553,137.47412410273225L59.90647860972087,143.15345299818418L60.869605275472004,143.5955153480299L61.25485594177246,145.8430014219983L61.39932494163513,132.0166919315094L61.44748127492269,103.63974975907749L61.5437939414978,107.51452176935942L61.64010660807292,124.96367044690254L61.73641927464803,128.1665682527297L62.02535727437338,126.84141312489923L62.79585860697428,120.60801330875869L62.84401494026184,123.76742526814469L62.94032760683695,133.61150918121842L63.084796606699626,125.09863051064546L63.470047273000084,116.08876930505245L63.518203606287635,130.08765155662056L63.95161060587565,134.4601579126477L64.14423593902588,102.71526775856587L64.52948660532633,120.37930038780854L64.67395560518901,129.5718515180378L64.77026827176411,110.12563351672463L65.3481442712148,102.83511216594691L65.58892593765259,120.81487724275802L65.78155127080281,132.51203853145472L66.0223329372406,110.76635955871181L66.64836526997884,126.82320877467421L66.74467793655396,135.8064468113422L67.0336159362793,137.46375653253708L67.17808493614197,93.99795979742343L67.27439760271709,88.40382969724642L67.46702293586732,61.22463019789041L67.51517926915487,84.87241568218742L67.8041172688802,12.861909996854159L68.76724393463134,40.21313543936496L68.86355660120647,67.44138539499924L68.95986926778157,100.05761754123675L69.44143260065715,99.1816964550214L69.77852693367004,101.28971371154206L70.06746493339539,117.20262452677983L70.45271559969585,120.85832191554645L71.22321693229675,130.75286745251827L71.36768593215942,118.54875967812579L71.56031126530965,129.57834131502784L71.849249265035,131.95313995779242L71.9455619316101,134.6378596789254L72.18634359804788,136.97806865138634L72.33081259791057,101.84142081570857L72.42712526448567,86.36474747592703L72.9568449306488,72.06946459172433L73.2939392636617,68.50304264777888L73.48656459681193,101.59672273189577L73.58287726338705,120.47509904166682L73.9681279296875,132.72561700628432L74.01628426297505,138.79715008079432L74.93125459543865,10.968084485083564L75.12387992858886,49.4555669145443L75.60544326146443,73.23269783352238L75.65359959475198,94.3797521403262L75.74991226132711,105.53890270106945L75.94253759447733,115.9032841708776L76.37594459406534,116.77210174254984L76.95382059351603,115.737468777978L77.14644592666626,130.08631455575195L77.24275859324136,130.86516316724504L77.38722759310404,135.92245177328462L77.48354025967916,139.66005782145368L77.57985292625428,144.27768342430394L78.06141625912984,78.62693728315938L78.1095725924174,75.07075671776654L78.25404159228006,71.76761693926854L78.30219792556763,58.75473476986517L78.4466669254303,67.97261323170127L78.59113592529297,71.49940348323308L78.68744859186808,101.73165347990015L78.92823025830587,60.539903418647185L79.26532459131876,46.62831008381471L79.50610625775656,68.91145456897736L79.55426259104411,55.07546489692212L80.13213859049479,82.13225810802304L80.61370192337037,91.44071189277989L80.71001458994547,102.74096430008134L80.75817092323304,109.23708065804108L81.09526525624594,40.040875714259556L81.3360469226837,46.855809216684904L81.52867225583395,42.352679987592474L81.5768285891215,37.71503398358949L82.15470458857219,67.00994103944903L82.53995525487264,98.74345876905969L82.73258058802287,108.35961818116816L82.97336225446065,117.54881723847632L83.06967492103576,124.17050376673734L83.262300254186,132.02902728468544L83.98464525349935,133.58491096746312L84.08095792007445,137.9177739354217L84.32173958651225,139.23662726725715L84.3698959197998,139.20140948547837L84.46620858637492,-20.4060361147827L84.61067758623759,1.817156227134979L84.80330291938782,60.734338812225644L85.09224091911315,61.94703690537428L85.2848662522634,65.4343479344858L85.52564791870117,67.39221853702365L85.81458591842652,78.4431135037006L85.95905491828918,87.8438780474996L86.19983658472697,51.44038269442431L86.34430558458965,71.00102804181374L86.58508725102743,84.42882375712166L86.63324358431498,79.78998215042596L86.77771258417765,93.43130633971467L86.97033791732788,109.01149988729237L87.4037449169159,105.68016777089105L87.74083924992878,88.62371553207811L87.88530824979145,112.51038298687233L87.93346458307903,126.08525583427144L88.36687158266703,121.8848602144913L88.8484349155426,92.20935122530233L88.99290391540528,93.72850729431113L89.28184191513061,101.0466833439768L89.57077991485596,118.34422046461911L89.76340524800618,125.69603480832767L90.29312491416931,125.72598556612547L90.34128124745686,129.21010106146534L90.5339065806071,109.89880082095678L90.82284458033244,125.75378108643568L91.01546991348266,106.35230380449575L91.15993891334534,97.40836941356625L92.31569091224671,103.43294311460718L93.23066124471029,115.14645792809723L93.3269739112854,128.60606083687213L93.37513024457296,128.6052384332486L93.42328657786051,120.00594297501468L93.85669357744852,129.92912469919L94.24194424374897,70.23248454698032L94.29010057703653,38.124673717709406L94.38641324361166,73.15690835524975L94.43456957689921,96.95435509996355L95.06060190963746,111.60662584017041L95.15691457621256,118.21090492646907L95.68663424237569,103.86328141829112L95.83110324223836,93.18399697253494L96.02372857538859,100.88608853677044L96.21635390853882,115.3848060023343L96.40897924168905,125.7942368048559L96.74607357470194,123.10921689507298L96.7942299079895,123.35162517398929L96.84238624127705,123.25196338479466L96.93869890785219,122.78222343253941L97.08316790771485,-25.92437308146438L97.66104390716553,1.237437079870281L97.94998190689087,39.235937244083296L98.09445090675355,80.60891510296186L98.1426072400411,88.94847125415838L98.62417057291667,91.31809036866052L98.76863957277934,108.94309966368836L99.29835923894247,75.58428447190904L99.44282823880513,100.54196545619877L99.58729723866782,120.36500846504791L99.82807890510558,104.49529428704285L99.97254790496825,108.37999252728552L100.40595490455627,112.36889648238403L100.9356745707194,121.1159611760869L101.1764562371572,98.58782250906046L101.2727689037323,104.58066811415829L102.42852090263366,115.24403252072959L102.81377156893413,127.90002996042085L102.91008423550925,134.67585904125943L103.05455323537191,136.14334294607482L103.34349123509726,120.19595812700203L103.39164756838481,125.72966399336282L103.7287419013977,131.1779758468959L104.11399256769816,136.6562756746363L104.30661790084838,137.4105408504972L104.49924323399863,137.66751053808034L104.69186856714884,137.17413035691018L104.83633756701151,138.3493044280966L104.93265023358664,141.15278039803817L105.22158823331198,143.08106496554578L105.65499523289998,139.3863076281241L106.04024589920044,141.73239985245465L106.13655856577556,143.55214992857333L106.28102756563823,145.76588280657506L106.37734023221333,146.6859446180074L106.4254965655009,147.07698294593413L106.47365289878844,148.66675370453896L106.81074723180134,149.25462105692012L107.00337256495158,148.3548351937009L107.05152889823914,148.49500892249517L107.38862323125203,148.1715541677397L107.77387389755249,146.8362303674217L107.82203023084004,145.18303092806465L108.01465556399027,144.62853075193345L108.11096823056539,144.9674857111392L108.54437523015339,145.2597699459683L109.07409489631652,143.22158074978276L109.55565822919209,141.73680074905124L109.6519708957672,141.97226829942568L109.9890652287801,143.84218242178125L110.03722156206767,139.90707533786187L110.2298468952179,141.7572042371098L110.37431589508057,141.5211418350878L110.56694122823079,139.80076153583153L110.75956656138104,134.38445229497506L111.6745368938446,128.91645322678116L111.86716222699484,111.23324332326833L112.20425656000772,117.98200812143114L112.49319455973307,22.71250840284019L112.58950722630819,59.54620388616854L113.0229142258962,89.52243800065226L113.21553955904642,28.765898632586055L113.64894655863444,73.58480767720745L113.88972822507222,102.70511340494848L113.93788455835977,121.3655321516077L113.98604089164735,131.0443508867019L114.75654222424825,133.67873578919344L114.99732389068605,87.93389815229114L115.33441822369893,94.19317551295359L115.52704355684915,99.36699096498232L115.67151255671183,111.57037057974914L115.96045055643717,121.02086432392544L116.00860688972473,126.27589444953277L116.0567632230123,128.29601781396147L116.20123222287496,133.31603106584748L116.44201388931275,138.16848152454716L116.7309518890381,96.04279747955032L116.77910822232565,91.50727237493903L117.26067155520121,108.15404390142186L117.30882788848878,120.64536568619654L117.501453221639,129.50888929685502L117.54960955492655,96.6428308238872L117.74223488807678,108.24367907415939L117.8385475546519,117.85763059848534L118.12748555437723,124.13898770183317L118.27195455423991,126.46104658070185L118.46457988739013,131.0983744595987L118.5127362206777,135.35345307384887L118.6090488872528,138.97928513430975L118.65720522054036,141.3311703852987L118.75351788711548,63.7802956211709L119.28323755327861,92.66197148581988L119.37955021985373,111.45478566402824L119.76480088615416,121.29891394398463L119.81295721944174,126.72893257946255L119.95742621930441,133.3639950860511L121.64289788436889,110.34546001972936L122.12446121724447,117.54891362707382L122.65418088340759,126.54725575752155L122.9912752164205,92.10681891768637L123.03943154970806,89.15115351904238L123.61730754915874,104.0024324165021L123.7617765490214,117.01652993882692L124.19518354860942,128.46270409502267L124.67674688148499,137.35981447606784L125.06199754778544,140.14679225659071L125.110153881073,142.0767237526725L125.20646654764812,143.747355230677L125.35093554751079,142.750197645891L125.63987354723614,129.033712074021L125.8806552136739,132.31272582760607L125.92881154696147,136.69410906238525L126.12143688011169,128.97325822183737L126.16959321339925,125.37579429418491L126.50668754641215,133.1777967405537L126.94009454600017,139.3496696642858L127.08456354586284,139.95643231271836L127.5661268787384,141.36411152723795L128.04769021161397,138.77637467429335L128.52925354448956,-17.477159517966086L129.39606754366557,45.78613652250109L129.73316187667848,83.32761326514718L130.07025620969137,109.64938481233133L130.1665688762665,124.73965412001026L130.45550687599183,126.32496306503612L130.55181954256693,128.93705630431805L130.6962885424296,137.43604787303565L130.74444487571716,138.71403167986202L131.0333828754425,-11.551126907977528L131.22600820859273,38.691985630896994L131.75572787475588,82.57659216151156L131.90019687461853,108.98510608191945L132.1409785410563,78.43801233165146L132.76701087379456,101.55263704383792L133.92276287269593,114.32827367856311L134.8377332051595,125.82886956533747L135.0785148715973,129.38665379438285L135.12667120488484,134.92432646264166L135.6082345377604,137.742542839644L135.7527035376231,138.54747301222608L135.99348520406087,56.894923083683636L136.3787358703613,89.20439230066265L136.523204870224,111.00196426270773L136.8602992032369,123.87598037556324L137.05292453638714,133.79806935319561L137.34186253611247,140.14478565155775L137.67895686912536,144.12341728943363L138.35314553515116,144.392349234168L138.8828652013143,145.14324647657185L139.12364686775206,144.95699429308212L139.31627220090232,145.0106949425815L139.36442853418987,145.74572062161383L139.50889753405252,145.79113658772053L139.55705386734007,146.38252427725888L141.0017438659668,138.1927240714192L141.14621286582945,131.22772622415215L141.33883819897972,130.35525552602888L141.38699453226727,130.931366695216L141.62777619870502,136.6786884566727L141.6759325319926,139.95403062577014L142.25380853144327,104.87618240793851L142.63905919774373,118.0397717816931L142.73537186431884,127.42154192659046L142.7835281976064,132.62279047082038L143.74665486335755,135.61337706873482L144.131905529658,137.83967039731914L144.37268719609577,130.78959142320667L144.4689998626709,120.5656674877181L144.61346886253355,124.91916714443019L144.70978152910868,130.08350503560467L144.75793786239623,130.19394320080806L145.09503219540915,134.16386339906995L145.28765752855938,122.87914694127257L145.33581386184693,125.17976126770863L145.38397019513448,84.80202694484603L145.48028286170958,102.81072873027426L145.5765955282847,116.83906415009035L145.8173771947225,126.94651379655454L145.9136898612976,134.34530823573286L146.29894052759806,139.16666311259513L147.5991615263621,142.36487680617543L147.64731785964966,144.30543628686016L147.74363052622476,144.96334938267617L148.1770375258128,144.34415133964987L148.22519385910036,144.70493782254542L148.56228819211324,144.6007154243911L148.70675719197592,144.8762840467376L148.75491352526348,145.37697308218003L148.89938252512613,146.77003489989215L149.236476858139,146.52015653837285L149.33278952471417,147.76020973033445L149.57357119115196,148.7556785277555L150.15144719060262,148.63839767367455L150.19960352389018,149.36905193296067L150.58485419019064,70.1847650103347L150.6330105234782,5.976265365023187L150.97010485649108,52.25022494380397L151.11457385635376,84.40146372501702L151.1627301896413,105.81772512727945L151.21088652292886,117.78794812553103L151.35535552279157,122.53851748393704L152.27032585525512,131.0399946532398L152.6555765215556,137.5895538623656L152.70373285484314,140.8471180070413L152.84820185470582,144.03163277288365L153.1852961877187,145.485091621327L153.32976518758136,145.848373373455L153.4260778541565,146.98730382133422L153.57054685401917,82.29813060454528L153.7631721871694,103.03511258708225L154.1965791867574,121.17265389679692L154.48551718648272,132.85559969655105L154.67814251963298,138.07073936464337L154.72629885292054,142.32203503591356L154.91892418607077,63.09818059001963L154.96708051935832,38.57417311593626L155.01523685264587,58.92019835243994L155.25601851908365,65.80462533828866L155.49680018552144,95.84426373462134L155.544956518809,114.23106527151937L155.73758185195925,126.82812866358887L155.97836351839703,134.56302562613925L156.02651985168458,139.27059999473101L156.07467618497213,143.07961344868338L156.2191451848348,145.65156335306844L156.6525521844228,146.9121919958917L156.70070851771038,147.12311179427095L156.74886485099793,147.28027212284715L156.98964651743572,146.95144096622496L157.2304281838735,148.22731376243274L157.37489718373615,148.3688173884542L157.51936618359883,149.01601570678787L157.61567885017394,149.14152782353736L157.71199151674904,113.2007937198625L157.85646051661175,127.0693771417227L158.19355484962463,135.73855343815544L158.7714308490753,141.65001847992013L158.8677435156504,145.0298703189534L159.49377584838868,98.85406009888612L159.54193218167623,68.80023108837024L160.07165184783938,87.0922152714757L160.55321518071491,106.27651098300862L160.64952784729005,116.69355020269536L160.74584051386515,125.71301032662566L161.0347785135905,133.16691816776185L161.3718728466034,138.38067651851006L161.42002917989095,140.55466843086867L161.66081084632873,139.61053727644034L161.85343617947896,139.5773486982118L161.9015925127665,140.42313629386615L162.09421784591677,26.14992520192863L162.720250178655,54.9979339998231L162.8165628452301,2.436184854888612L162.86471917851765,17.580284501416457L163.2981261781057,61.91272525932692L163.3944388446808,97.73245631821105L163.4907515112559,98.28119989442837L163.87600217755636,116.81034694453416L164.26125284385682,129.28254398594825L164.40572184371948,134.87910865366354L164.45387817700706,138.9456622138102L164.5983471768697,143.07078951451945L164.6946598434448,144.8569808838606L164.7428161767324,145.35241076704054L164.88728517659504,146.93056063001887L165.17622317632038,147.88562172452143L165.36884850947064,148.3705318179582L165.4170048427582,148.02685039439342L166.09119350878396,148.84429652336186L166.23566250864667,113.55696708542932L166.38013150850932,124.66543816191022L166.7172258415222,133.69612834927088L166.8616948413849,139.5832027265966L166.95800750796,141.73008794975897L167.24694550768533,144.2609136682916L167.48772717412314,146.86442703325082L167.77666517384847,146.1268837347782L167.87297784042357,146.60164630807782L168.2100721734365,148.15669196987574L168.35454117329914,149.12682496856917L168.45085383987427,149.83672576901603L168.49901017316185,148.60391171044162L168.6434791730245,145.18385126767984L169.02872983932494,145.0890357487328L169.46213683891298,146.61082092260526L169.70291850535077,146.68495803102496L169.94370017178852,147.36927857401648L170.1844818382263,147.54676149672053L170.81051417096455,146.4958472524247L170.90682683753968,145.96456367115397L171.38839017041522,147.56809220934565L171.72548450342816,139.06874202708494L171.86995350329082,25.76722145213557L172.1107351697286,74.19188253080436L172.5441421693166,104.0129751237481L172.5922985026042,121.87865736788633L172.88123650232953,127.90078913247012L173.17017450205486,121.74610822710787L173.31464350191752,116.47841771938214L173.50726883506775,122.53330380652213L173.5554251683553,126.53552342564556L173.60358150164285,130.29349426236652L173.69989416821795,133.7452517386751L173.8925195013682,136.56272853993445L174.0369885012309,139.9341932374816L174.08514483451845,142.5096637450455L174.27777016766865,145.75816053356988L174.32592650095623,147.51651377307658L174.37408283424378,39.859548359295424L174.61486450068153,1.8070977237093553L174.71117716725666,27.163405218051473L175.19274050013223,64.5205185161108L175.52983483314515,95.20102551467983L175.86692916615806,116.43170132763728L176.0113981660207,129.26941479097218L176.87821216519671,135.05714209030592L177.11899383163453,134.2247535336827L177.55240083122254,132.69980011204572L177.6968698310852,128.621827001209L177.7931824976603,125.854296193007L178.13027683067324,133.15836708065157L178.32290216382344,136.85590044685992L178.371058497111,140.33449129014392L178.75630916341146,136.98200708890545L178.94893449656166,133.44175779677477L178.99709082984927,135.48873375167426L179.14155982971192,135.00637607662776L179.23787249628703,119.7231295472194L179.57496682929994,128.9449632336407L179.76759216245014,136.4984769592105L179.96021749560038,138.6172508332588L180.15284282875064,141.18202635705032L180.24915549532574,142.79084794537735L180.53809349505107,143.10408577967675L181.30859482765197,145.56360355273262L181.45306382751465,147.52355099201495L181.5975328273773,140.71722386028523L181.74200182724,140.73916325336515L181.79015816052754,141.9041258603049L182.03093982696532,141.10162029014703L182.70512849299112,139.8255223769679L182.8495974928538,142.6502163033564L182.89775382614135,146.06326975204553L183.28300449244182,145.38316989964235L183.66825515874228,143.4067970202401L184.29428749148053,145.8289285400458L184.63138182449342,-3.396870061968513L184.92031982421875,35.9541735670417L185.16110149065653,63.010878476619034L185.69082115681968,79.37025065999816L186.07607182312012,86.15935929818376L186.12422815640767,95.67100083967868L186.36500982284545,101.04083783663242L186.46132248942058,112.62898580206762L186.5576351559957,119.41893245326547L186.70210415585836,116.26740232706942L186.79841682243347,111.27974444315448L187.03919848887125,121.13892442170567L187.0873548221588,126.05264529487864L187.4726054884593,130.852997320919L187.52076182174685,135.9232358787284L187.6652308216095,140.4462648651275L188.00232515462238,143.06719785315062L188.14679415448506,145.02304014642291L188.19495048777262,145.50562610701556L188.24310682106017,146.72932152985658L188.6765138206482,147.17458046962648L188.86913915379841,148.27586063691223L189.06176448694865,147.66560085872766L189.39885881996153,147.83046607427468L189.44701515324908,148.3324845337928L189.6877968196869,147.97744477305514L190.41014181900024,136.16822564213442L190.4582981522878,79.48652219361222L190.65092348543806,99.85089619084678L190.74723615201316,48.47521371117031L191.08433048502604,73.43983692300814L191.27695581817628,96.79457346302664L191.71036281776426,115.13046972014054L191.75851915105181,126.65699853858729L191.80667548433942,134.92030923332894L191.85483181762697,137.70520354715893L191.90298815091452,138.81876543619214L192.09561348406476,135.06484789034175L192.19192615063986,136.76229367052167L192.28823881721496,134.1578566456545L192.43270781707764,136.3472716378848L192.5771768169403,134.92162264934825L192.62533315022785,136.19861181453007L192.76980215009053,140.72961683468873L193.29952181625367,142.95838841132988L193.588459815979,29.869535367282857L193.87739781570437,71.50148282793295L194.31080481529236,96.12083407962206L194.3589611485799,112.03529053273066L194.5997428150177,125.57396854899203L194.74421181488037,134.38036122191352L195.03314981460574,137.80364982113207L195.22577514775594,141.47433502063873L195.41840048090617,144.77237685427886L195.8036511472066,145.03579464217083L195.9481201470693,146.33079311542033L196.23705814679465,142.32845471799308L196.2852144800822,142.96565551147236L196.67046514638264,144.9885051966017L196.81493414624532,144.0172820661025L196.86309047953287,144.35777581974529L197.00755947939552,141.42674492994888L197.44096647898357,137.5175338632521L198.0669988117218,137.8559523607155L198.11515514500934,139.55428328055902L198.16331147829692,139.0458357417348L198.2114678115845,139.27347370494206L198.35593681144715,140.07833128897929L198.88565647761027,141.49418433799292L200.04140847651163,141.8669552787543L200.1858774763743,144.76457650125204L200.28219014294945,146.1305190047449L200.37850280952455,147.67162413689675L200.5229718093872,147.41693988830497L200.61928447596233,147.80413445354364L200.71559714253743,148.3809467377795L200.86006614240011,148.49106664494226L200.90822247568767,146.99158088127507L201.7750364748637,148.4911620833913L202.25659980773924,147.1809658093806L202.59369414075218,148.25288772530277L202.78631947390238,149.4090587909031L202.83447580718993,150.22420950649345L203.07525747362772,150.08730570988408L203.12341380691527,149.55485311564468L203.26788280677795,148.7121473577065L203.7976024729411,145.2759516060936L203.84575880622864,142.46149222542653L204.4236348056793,142.73756780268167L204.47179113896686,143.65947439756357L204.568103805542,145.64980328113924L204.61626013882957,146.61311047942255L204.76072913869223,146.31835049992927L204.80888547197978,146.37549285819065L204.85704180526733,146.96509185547959L205.19413613828021,141.20850766119807L205.29044880485534,132.70711910433653L205.38676147143045,67.96011902294806L205.96463747088114,30.19882935911668L206.10910647074382,65.05738036091051L206.15726280403138,82.22518146965541L206.20541913731893,93.27054205292463L206.25357547060648,103.8454400719154L206.4462008037567,81.35179394461971L206.59066980361936,99.10100874330855L207.31301480293274,109.6162059923575L207.40932746950784,60.991704870134235L207.6982654692332,92.23461771234632L207.7945781358083,82.65764970483009L207.98720346895854,105.36973943179844L208.17982880210877,121.30358611249129L208.22798513539632,131.71978486110783L208.95033013470967,136.53652994532817L209.3837371342977,142.363675640638L209.4800498008728,142.55703771083736L209.57636246744792,143.3297858455554L209.72083146731057,144.87840752839014L209.81714413388568,144.7570805508501L209.9616131337484,145.76920644123263L210.39502013333637,146.92829388666974L210.53948913319906,145.67233662037557L210.6839581330617,145.54565560940654L211.74339746538797,135.9578798327973L211.98417913182578,129.37062720318085L212.27311713155112,100.54343311738572L212.41758613141377,119.43469180339417L212.610211464564,105.50062537571151L212.89914946428934,114.82516014440309L213.043618464152,125.75288707177698L213.13993113072715,131.7890956869485L213.23624379730225,137.54316122587883L213.38071279716493,139.89811157054004L213.47702546374003,141.54092876589374L213.6214944636027,140.64308685896393L214.44015212949117,144.39475182322445L214.48830846277872,145.80509205613004L214.6327774626414,147.53538975270078L215.01802812894184,148.7315920929702L215.0661844622294,149.2139657767918L215.49959146181743,149.61044689632095L215.54774779510498,139.92037760487577L215.78852946154277,143.87434970872053L215.83668579483032,144.36876691018665L215.88484212811787,144.68945610545367L216.02931112798055,146.00322466319912L216.3182491277059,146.55315093823958L216.5590307941437,147.71923712496343L216.70349979400635,148.74811260787746L217.08875046030678,-88.00955401820224L217.28137579345704,3.18238700156471L217.37768846003215,58.30484637205987L217.81109545962016,92.3000105149791L218.05187712605795,113.36601256660595L218.3408151257833,126.99324513768721L218.38897145907086,135.03161935878413L218.62975312550864,138.7644496832154L218.96684745852153,141.0968556117695L219.3039417915344,53.66506188678359L219.59287979125978,56.727518645793616L219.73734879112243,52.44900097502908L219.83366145769756,70.09111325629637L219.8818177909851,74.22584087327323L220.218912123998,72.7960046511918L220.60416279029846,101.77481678457458L220.65231912358604,119.76663632466025L220.74863179016114,129.8818888847484L220.94125712331137,134.43037124165696L221.13388245646158,138.8883075633616L221.37466412289936,142.54043185376926L221.95254012235006,145.4629090926879L222.2414781220754,146.12908060035585L222.53041612180073,144.73534966169615L222.67488512166344,144.09785048712055L222.96382312138874,146.43030511444718L223.5416991208394,147.6644829765372L223.73432445398967,148.7895012652882L224.07141878700256,147.4345290398127L224.21588778686524,147.73380966972022L224.74560745302838,148.35590688326585L225.22717078590392,148.20253532153973L225.27532711919147,148.82986398844838L225.41979611905415,149.5596625563941L225.7087341187795,150.14259524835202L225.9495157852173,149.53658416443105L226.67186078453062,147.2552315974865L226.72001711781817,146.32932962045803L227.10526778411867,147.02911520753148L227.34604945055645,147.33369362091892L227.63498745028178,147.88229408380664L227.7313001168569,147.9917023424125L227.77945645014444,148.55111021738477L228.0683944498698,148.8753286802202L228.54995778274537,149.29215275725966L228.69442678260802,149.0058712480064L228.79073944918312,148.5737279102078L228.8388957824707,148.3304648664301L228.88705211575825,148.73085259886034L229.07967744890848,146.5385115997807L229.56124078178405,145.7906151468109L229.6093971150716,146.41370533344858L229.70570978164673,146.60087353575253L230.1872731145223,147.69692156630313L230.23542944780985,147.75957102980155L231.0540871136983,148.02691733635064L231.39118144671122,147.98829324264764L231.58380677986145,88.82395258605334L232.01721377944946,109.21633540781971L232.25799544588725,122.3574329770533L232.49877711232503,133.45250911489896L232.78771511205036,138.52501871876802L233.2211221116384,137.25575769920295L233.4137474447886,137.55645791790568L233.60637277793884,140.99032041266625L233.75084177780153,143.25634206617323L234.03977977752686,144.18000679148986L234.28056144396464,145.23263178376914L234.56949944368998,146.04097178554642L234.81028111012776,147.54209688731277L234.95475010999044,149.02467078569407L235.002906443278,149.94808222781913L235.3400007762909,150.26847502203736L235.72525144259134,144.30449695966638L236.1105021088918,144.18860623470118L236.303127442042,144.85429659816438L236.44759644190472,145.66933779895527L236.59206544176737,147.18249307443406L236.64022177505493,148.0718913484596L237.0254724413554,149.33650753535042L237.1217851079305,149.35020452337335L237.65150477409364,148.4008656691392L238.03675544039407,148.2333938596452L238.3256934401194,-29.936101819190565L238.75910043970745,-23.967853711663874L239.1443511060079,23.33026160133618L240.2519467716217,70.00245015738378L240.54088477134704,102.37718017116717L240.7335101044973,113.5955987800608L241.45585510381062,38.54921481184336L241.74479310353598,56.511426175337604L241.88926210339864,52.57874631172592L241.98557476997377,56.787948242386754L242.32266910298665,61.58770657651717L242.4671381028493,85.13453545444693L242.65976343599954,108.53576401985003L242.8523887691498,117.36527987990056L242.90054510243735,123.79190787641836L242.9487014357249,128.6137464613242L243.0450141023,133.3223891829529L243.33395210202534,139.00183052870227L243.67104643503825,138.3598218903066L243.76735910161335,56.335241787845035L243.86367176818848,85.50010956109458L244.0562971013387,109.84490229167697L244.20076610120137,124.4827696144364L244.24892243448895,129.15260711189015L244.34523510106405,29.50586592164482L244.73048576736448,75.45343307745182L245.11573643366498,104.7664602918423L245.21204910024008,82.79900700944748L245.88623776626585,103.51612874158977L246.03070676612856,116.24677613478988L246.1751757659912,126.43898999695048L246.65673909886678,136.17238169457616L246.84936443201698,142.0010661770164L246.9938334318797,145.78053878045606L247.71617843119301,146.95470885895L247.9569600976308,148.00280767184682L248.00511643091835,148.77462547263926L248.1977417640686,149.2214534072272L248.39036709721884,148.39139896638596L248.4385234305064,147.8181207309815L248.48667976379394,147.6340815354934L248.58299243036905,147.59887195824112L248.82377409680683,148.50343237165137L248.87193043009438,149.07247358477136L248.92008676338196,149.62479812722611L249.35349376296998,150.06011854796205L249.7387444292704,150.10465412122664L249.93136976242064,149.55446957827755L250.02768242899575,149.27297316866282L250.3166204287211,149.25259831162754L250.70187109502157,149.8943388560591L250.75002742830912,150.3276816724584L251.03896542803446,150.21197890965192L251.1834344278971,150.57563820065516L251.5686850941976,94.86919445948853L251.61684142748516,114.68936142565121L251.85762309392294,127.82262006816579L252.0020920937856,136.40767918069065L252.05024842707314,141.5214786657322L252.19471742693582,144.68811036674632L252.3391864267985,146.39902701650675L252.4836554266612,148.12427703448648L253.06153142611186,149.2884907872824L253.25415675926206,149.7164974174347L253.591251092275,98.11280770448303L253.88018909200034,73.6703805226685L254.024658091863,97.5069379987592L254.07281442515054,113.5053210986837L254.1209707584381,122.83620382135382L254.26543975830077,129.81503433160378L254.31359609158832,133.30958634739244L254.65069042460124,139.2538441604951L254.74700309117637,143.42819400512428L254.84331575775147,143.8808179789145L255.1322537574768,11.351282269003788L255.3730354239146,64.1046931909607L255.42119175720214,96.37574871554169L255.56566075706482,116.3447889973678L255.7101297569275,-18.29424708327583L255.8064424235026,42.36114702095947L255.90275509007773,81.13573702098506L256.2880057563782,107.70729097947819L256.6732564226786,12.735656574890443L256.76956908925376,-15.805682496259013L256.86588175582887,31.070360800246476L256.9140380891164,61.66161225367476L256.96219442240397,83.87731375028783L257.29928875541685,103.27140029070738L257.34744508870443,114.99191315202422L258.21425908788046,127.19827608130343L258.35872808774315,135.23668779513486L258.88844775390623,136.78325458647876L259.1773857536316,139.761300969038L259.80341808636985,140.1241306614095L260.09235608609515,143.10021722720998L260.14051241938273,7.484749179312007L260.4294504191081,63.152731813955L260.5257630856832,96.11618773489407L260.7183884188334,117.52631467989274L261.24810808499655,33.7857388417137L261.34442075157165,75.39037409408145L261.4407334181468,24.710364015756944L261.633358751297,55.91907729841702L261.7296714178721,77.64042191266849L261.9704530843099,94.43058129849891L262.1630784174601,101.94996969712055L262.40386008389794,111.15591463583498L263.80039374923706,124.92338691774076L263.89670641581216,92.902221042162L264.3301134154002,108.49476735236992L264.3782697486877,117.02387722284837L264.4264260819753,122.61925225399105L264.8116767482758,132.00209056913903" fill="none"></path></g></g></g></g><g opacity="0.2"><g><g><g><path style="fill: none;" stroke="rgb(255, 112, 67)" stroke-width="2px" d="M24.270791976928713,-1408.649980212152L24.75235530980428,151.57627914619974L24.800511643091838,143.31754645090942L24.94498064295451,-578.8321329428309L24.993136976242063,87.90073050226451L25.330231309254966,-295.03123831736457L25.37838764254252,118.25183215187946L26.00441997528076,151.59941398103717L26.341514308293657,150.66228391443627L26.38967064158122,81.87777516233135L26.437826974868774,105.29778793178964L26.67860864130656,68.49548382531651L27.063859307607014,146.10500000704477L27.112015640894572,150.10600450599833L27.256484640757243,150.17918341492148L27.3046409740448,150.79479051393994L27.449109973907472,151.60550365977002L27.497266307195027,45.756707185146276L27.786204306920368,149.20290490129565L28.026985973358155,123.94724030112441L28.364080306371054,76.23346435168924L28.84564363924662,150.46627083103874L29.038268972396853,151.10037016934137L29.23089430554708,109.39428122114273L29.905082971572874,151.27224432044497L30.097708304723106,40.68770769965269L30.14586463801066,149.72115591637564L30.242177304585777,151.67919607102604L30.338489971160886,142.9180728079566L30.62742797088623,62.684840984284946L31.01267863718669,142.2174425259369L31.108991303761798,140.91166183200895L31.15714763704936,151.47186767947386L31.30161663691203,136.53459414225196L31.638710969924926,150.96313449118787L31.783179969787597,100.80443536714601L31.879492636362713,144.77677442187553L31.975805302937825,-101.16226139068539L32.31289963595073,-10.14633100219405L32.36105596923828,150.62200760849228L32.60183763567606,64.35796685453504L32.93893196868897,150.521286948613L32.98708830197652,143.74298247165757L33.27602630170186,133.8581894930128L33.32418263498942,151.3212522021189L33.853902301152544,109.82777443179063L33.95021496772766,143.16070850006068L34.33546563402812,151.4591255753909L34.431778300603234,126.39405313026236L34.86518530019124,133.34001044295928L35.105966966629026,147.48580321645372L35.82831196594238,143.4617638818039L35.87646829922994,98.89610319928464L36.502500631968175,-147.8951586098437L36.55065696525574,116.72421209142342L36.5988132985433,149.24012709348588L37.12853296470642,121.9717330603684L37.27300196456909,143.42639228774863L37.46562729771932,133.1984854925196L37.65825263086955,147.93609067750302L37.802721630732215,124.52132689483396L37.94719063059489,149.14782115829448L38.04350329717,148.45002825113804L38.28428496360779,95.93954364426834L38.380597630182905,118.21117106810544L38.42875396347046,96.74664359126456L38.91031729634602,150.10240878610728L39.102942629496255,119.63928507438877L39.29556796264649,137.72381608434156L39.391880629221596,129.5091353651226L39.44003696250916,151.5527336767514L39.58450596237183,151.50645139511522L40.306850961685186,151.5268582717644L40.692101627985636,146.84323725908476L40.74025796127319,115.25996175720205L41.31813396072388,107.4213989559591L41.60707196044922,137.52090605121165L41.655228293736776,127.44995871561979L41.703384627024334,150.76722133912529L42.28126062647502,147.67628343092235L42.666511292775475,119.99498951590786L42.8591366259257,103.38504673074797L42.955449292500816,103.62783286230439L43.1962309589386,145.27223566809147L43.43701262537639,132.56134548116748L43.5333252919515,151.65845580802892L44.063044958114624,151.03139060655738L44.351982957839965,130.99060523050488L44.40013929112752,150.96188462623462L45.07432795715332,117.05188079090009L45.12248429044088,131.16670811045316L45.21879695701599,134.37724803524924L45.45957862345377,102.26206250804226L45.555891290028896,151.41206410960808L45.84482928975424,151.5138203365749L46.037454622904455,-89.20288039787141L46.278236289342246,147.50089923688344L46.47086162249247,149.39729268410343L46.615330622355145,148.474939240389L46.711643288930254,49.575454528670704L46.90426862208049,150.11003105169286L46.952424955368045,149.27437569560362L47.19320662180583,149.04810149938658L47.241362955093386,151.0903153773707L47.53030095481873,101.34748707332082L47.86739528783162,131.13131240751127L48.637896620432535,148.7485442438563L48.734209287007644,149.8219904907441L48.78236562029521,129.73111263448197L48.83052195358277,145.03050502359014L48.974990953445435,151.6695975491517L49.07130362002055,142.77489688096298L49.74549228604634,134.05277906720136L49.79364861933391,151.6797782681468L49.88996128590902,-84.82183667053735L49.986273952484126,141.33634661985081L50.08258661905925,134.72301575806972L50.27521195220947,102.83062720236636L50.37152461878459,60.93134187226316L50.56414995193481,150.81512943366502L50.66046261850993,151.42873471155735L50.85308795166015,150.35700706665043L51.1420259513855,136.47000643506658L51.238338617960615,146.60773972612347L51.43096395111084,127.12049824369149L52.201465283711755,129.55835606799295L52.24962161699931,131.32679111743744L52.39409061686198,151.26369205455904L52.4904032834371,150.8144835565932L52.683028616587315,147.39725995519305L52.77934128316244,126.43288386736614L53.35721728261312,149.34281021673394L53.597998949050904,151.67090788785666L53.64615528233846,77.15495614379678L54.03140594863891,139.4747075791893L54.07956228192648,146.4328620597919L54.32034394836426,130.74033377183875L54.36850028165182,-115.22409159137202L54.56112561480204,120.74970374540167L54.75375094795227,149.2960016079673L55.04268894767761,65.52084067664376L55.090845280965176,148.30124917781106L55.33162694740295,138.5634418124195L55.42793961397807,149.9175113459628L55.76503394699097,136.97553796321287L55.86134661356608,149.49420389881203L56.198440946578984,149.9076451457575L56.583691612879434,151.39855400187463L56.63184794616699,144.47805133382138L57.01709861246745,150.36000054655437L57.4023492787679,55.41116289691633L57.498661945343024,151.55874554405275L58.269163277943925,148.43417521166924L58.79888294410705,132.66292297087634L58.89519561068217,149.0427478800295L58.99150827725728,34.956033998837555L59.03966461054484,81.10186247103316L59.135977277119956,123.20967231177626L59.184133610407514,138.7315521142841L59.28044627698262,74.68835859796432L59.32860261027018,144.1322792714013L59.37675894355774,145.616399185598L59.61754060999553,150.08146226216778L59.90647860972087,151.67244634136208L60.869605275472004,144.2586088727985L61.25485594177246,149.21423053295092L61.39932494163513,111.27722769577605L61.44748127492269,61.07433650042961L61.5437939414978,113.3266797847823L61.64010660807292,151.13739346321722L61.73641927464803,132.9709149614704L62.02535727437338,124.85368043315357L62.79585860697428,111.25791358454785L62.84401494026184,128.5065432072237L62.94032760683695,148.37763505082899L63.084796606699626,112.32931250478607L63.470047273000084,102.5739774966629L63.518203606287635,151.08597493397275L63.95161060587565,141.01891744668842L64.14423593902588,55.09793252744313L64.52948660532633,146.87534933167254L64.67395560518901,143.3606782133816L64.77026827176411,80.95630651475497L65.3481442712148,91.89933013978033L65.58892593765259,147.78452485797465L65.78155127080281,150.05778046449979L66.0223329372406,78.14784109959746L66.64836526997884,150.90848259861784L66.74467793655396,149.28130386634413L67.0336159362793,139.9497211143294L67.17808493614197,28.799264694752974L67.27439760271709,80.01263454698093L67.46702293586732,20.455830948856384L67.51517926915487,120.34409390863298L67.8041172688802,-95.15384853114573L68.76724393463134,81.23997360313112L68.86355660120647,108.28376032845067L68.95986926778157,148.981965760593L69.44143260065715,97.8678148256984L69.77852693367004,104.45173959632304L70.06746493339539,141.07199074963648L70.45271559969585,126.3418679986964L71.22321693229675,145.59468575797598L71.36768593215942,100.24259801653712L71.56031126530965,146.12271377038087L71.849249265035,135.5153379219393L71.9455619316101,138.66493926062486L72.18634359804788,140.48838211007774L72.33081259791057,49.13644906219196L72.42712526448567,63.149737466254734L72.9568449306488,50.626540265420246L73.2939392636617,63.153409731860734L73.48656459681193,151.23724285807114L73.58287726338705,148.79266350632338L73.9681279296875,151.10139395321062L74.01628426297505,147.9044496925593L74.93125459543865,-180.77551390848257L75.12387992858886,107.18679055873538L75.60544326146443,108.89839421198953L75.65359959475198,126.10033360053195L75.74991226132711,122.27762854218425L75.94253759447733,131.44985637558983L76.37594459406534,118.07532810005826L76.95382059351603,114.18551933112022L77.14644592666626,151.60958322241294L77.24275859324136,132.03343608448466L77.38722759310404,143.50838468234394L77.48354025967916,145.26646689370727L77.57985292625428,151.2041218285794L78.06141625912984,-19.849181928557492L78.1095725924174,69.73648586967727L78.25404159228006,66.81290727152157L78.30219792556763,39.235411515760106L78.4466669254303,81.79943092445542L78.59113592529297,76.7895888605308L78.68744859186808,147.08002847490073L78.92823025830587,-1.2477216732322338L79.26532459131876,25.760920081566017L79.50610625775656,102.33617129672136L79.55426259104411,34.321480388839255L80.13213859049479,122.71744792467442L80.61370192337037,105.40339256991516L80.71001458994547,119.69134291103352L80.75817092323304,118.98125519498069L81.09526525624594,-63.75343170141268L81.3360469226837,57.078209470322875L81.52867225583395,35.59798614395383L81.5768285891215,30.758564977585003L82.15470458857219,110.95230162323836L82.53995525487264,146.34373536347564L82.73258058802287,122.78385729933082L82.97336225446065,131.33261582443856L83.06967492103576,134.10303355912885L83.262300254186,143.81681256160763L83.98464525349935,135.9187364916296L84.08095792007445,144.41706838735956L84.32173958651225,141.21490726501037L84.3698959197998,139.14858281281016L84.46620858637492,-259.81720451517424L84.61067758623759,35.15194474001148L84.80330291938782,149.11011268986167L85.09224091911315,63.76608404509723L85.2848662522634,70.66531447815309L85.52564791870117,70.32902444083044L85.81458591842652,95.01945595371603L85.95905491828918,101.94502486319814L86.19983658472697,-3.1648603351886484L86.34430558458965,100.34199606289788L86.58508725102743,104.57051733008355L86.63324358431498,72.8317197403824L86.77771258417765,113.89329262364772L86.97033791732788,132.38179020865894L87.4037449169159,100.683169596289L87.74083924992878,63.0390371738587L87.88530824979145,148.34038416906367L87.93346458307903,146.4475651053701L88.36687158266703,115.5842667848211L88.8484349155426,47.696087741518866L88.99290391540528,96.00724139782434L89.28184191513061,112.02394741847529L89.57077991485596,144.2905261455826L89.76340524800618,136.72375632389048L90.29312491416931,125.77091170282219L90.34128124745686,134.4362743044751L90.5339065806071,80.931850460194L90.82284458033244,149.53625148465403L91.01546991348266,77.25008788158584L91.15993891334534,83.99246782717195L92.31569091224671,112.46980366616859L93.23066124471029,132.71673014833235L93.3269739112854,148.79546520003444L93.37513024457296,128.6040048278132L93.42328657786051,107.10699978766381L93.85669357744852,144.81389728545298L94.24194424374897,-19.3124756813342L94.29010057703653,-10.037042526196972L94.38641324361166,125.7052603115603L94.43456957689921,132.65052521703424L95.06060190963746,133.5850319504807L95.15691457621256,128.1173235559171L95.68663424237569,82.34184615602418L95.83110324223836,77.16507030390069L96.02372857538859,112.43922588312365L96.21635390853882,137.13288220068006L96.40897924168905,141.4083830086383L96.74607357470194,119.08168703039858L96.7942299079895,123.71523759236375L96.84238624127705,123.10247070100274L96.93869890785219,122.07761350415655L97.08316790771485,-248.98426785247L97.66104390716553,41.9801523218723L97.94998190689087,96.23368749040279L98.09445090675355,142.66838189127967L98.1426072400411,101.45780548095321L98.62417057291667,94.87251904041374L98.76863957277934,135.38061360623004L99.29835923894247,25.546061684240122L99.44282823880513,137.97848693263333L99.58729723866782,150.09957297832165L99.82807890510558,80.69072302003524L99.97254790496825,114.20703988764951L100.40595490455627,118.3522524150318L100.9356745707194,134.23655821664119L101.1764562371572,64.79561450852081L101.2727689037323,113.56993652180502L102.42852090263366,131.23907913058653L102.81377156893413,146.88402611995772L102.91008423550925,144.83960266251725L103.05455323537191,138.34456880329796L103.34349123509726,96.27488089839278L103.39164756838481,134.030222792904L103.7287419013977,139.3504436271955L104.11399256769816,144.87372541624697L104.30661790084838,138.54193861428857L104.49924323399863,138.05296506945507L104.69186856714884,136.4340600851549L104.83633756701151,140.11206553487622L104.93265023358664,145.35799435295053L105.22158823331198,145.97349181680718L105.65499523289998,133.84417162199156L106.04024589920044,145.2515381889505L106.13655856577556,146.2817750427513L106.28102756563823,149.08648212357767L106.37734023221333,148.0660373351559L106.4254965655009,147.66354043782422L106.47365289878844,151.05140984244625L106.81074723180134,150.13642208549183L107.00337256495158,147.00515639887206L107.05152889823914,148.70526951568664L107.38862323125203,147.6863720356065L107.77387389755249,144.8332446669447L107.82203023084004,142.70323176902906L108.01465556399027,143.79678048773667L108.11096823056539,145.47591814994786L108.54437523015339,145.69819629821194L109.07409489631652,140.16429695550443L109.55565822919209,139.50963074795396L109.6519708957672,142.32546962498736L109.9890652287801,146.6470536053146L110.03722156206767,134.00441471198283L110.2298468952179,144.53239758598164L110.37431589508057,141.16704823205484L110.56694122823079,137.22019108694712L110.75956656138104,126.25998843369031L111.6745368938446,120.71445462449029L111.86716222699484,84.70842846799908L112.20425656000772,128.10515531867537L112.49319455973307,-120.1917411750462L112.58950722630819,114.79674711116107L113.0229142258962,134.48678917237783L113.21553955904642,-62.36891041951319L113.64894655863444,140.81317124413957L113.88972822507222,146.38557199656L113.93788455835977,149.3561602715965L113.98604089164735,145.56257898934325L114.75654222424825,137.63031314293076L114.99732389068605,19.316641696937644L115.33441822369893,103.58209155394731L115.52704355684915,107.12771414302539L115.67151255671183,129.87544000189934L115.96045055643717,135.19660494018987L116.00860688972473,134.1584396379438L116.0567632230123,131.32620286060455L116.20123222287496,140.8460509436765L116.44201388931275,145.44715721259664L116.7309518890381,32.854271412055084L116.77910822232565,84.70398471802208L117.26067155520121,133.1242011911461L117.30882788848878,139.38234836335855L117.501453221639,142.80417471284278L117.54960955492655,47.343743114435526L117.74223488807678,125.64495144956763L117.8385475546519,132.27855788497428L118.12748555437723,133.56102335685492L118.27195455423991,129.9441348990049L118.46457988739013,138.0543662779439L118.5127362206777,141.7360709952242L118.6090488872528,144.41803322500104L118.65720522054036,144.85899826178215L118.75351788711548,-52.546016525020825L119.28323755327861,135.98448528279334L119.37955021985373,139.64400693134075L119.76480088615416,136.0651063639192L119.81295721944174,134.87396053267943L119.95742621930441,143.3165888459339L121.64289788436889,75.81765742024673L122.12446121724447,128.35409403809058L122.65418088340759,140.04476895319314L122.9912752164205,40.4461636579336L123.03943154970806,84.71765542107634L123.61730754915874,126.27935076269172L123.7617765490214,136.53767622231413L124.19518354860942,145.6319653293163L124.67674688148499,150.70548004763563L125.06199754778544,144.32725892737497L125.110153881073,144.9716209967952L125.20646654764812,146.25330244768375L125.35093554751079,141.254461268712L125.63987354723614,108.458983716216L125.8806552136739,137.23124645798367L125.92881154696147,143.26618391455406L126.12143688011169,117.3919819610155L126.16959321339925,119.97959840270623L126.50668754641215,144.88080041010684L126.94009454600017,148.60747904988398L127.08456354586284,140.8665762853672L127.5661268787384,143.4756303490173L128.04769021161397,134.89476939487645L128.52925354448956,-251.85746080635514L129.39606754366557,140.6810805832019L129.73316187667848,139.6398283791163L130.07025620969137,149.13204213310757L130.1665688762665,147.37505808152864L130.45550687599183,128.7029264825749L130.55181954256693,132.85519616324098L130.6962885424296,150.18453522611205L130.74444487571716,140.63100739010156L131.0333828754425,-236.94886478973686L131.22600820859273,114.0566544392088L131.75572787475588,148.40350195743343L131.90019687461853,148.5978769625313L132.1409785410563,32.617371706249465L132.76701087379456,136.2245741121176L133.92276287269593,133.4917286306509L134.8377332051595,143.07976339549901L135.0785148715973,134.7233301379509L135.12667120488484,143.2308354650299L135.6082345377604,141.96986740514743L135.7527035376231,139.75486827109924L135.99348520406087,-65.58390180913001L136.3787358703613,137.66859612613112L136.523204870224,143.69832220577536L136.8602992032369,143.18700454484653L137.05292453638714,148.68120281964414L137.34186253611247,149.66486009910096L137.67895686912536,150.0913647462474L138.35314553515116,144.79574715126955L138.8828652013143,146.2695923401776L139.12364686775206,144.6776160178475L139.31627220090232,145.09124591683056L139.36442853418987,146.8482591401623L139.50889753405252,145.85926053688058L139.55705386734007,147.26960581156638L141.0017438659668,125.9080237626597L141.14621286582945,120.78022945325156L141.33883819897972,129.04654947884396L141.38699453226727,131.79553344899674L141.62777619870502,145.29967109885774L141.6759325319926,144.86704387941631L142.25380853144327,52.25941008119111L142.63905919774373,137.78515584232497L142.73537186431884,141.49419714393653L142.7835281976064,140.4246632871652L143.74665486335755,140.09925696560657L144.131905529658,141.17911039019555L144.37268719609577,120.21447296203797L144.4689998626709,105.22978158448522L144.61346886253355,131.44941662949833L144.70978152910868,137.83001187236636L144.75793786239623,130.3596004486132L145.09503219540915,140.11874369646276L145.28765752855938,105.95207225457648L145.33581386184693,128.6306827573627L145.38397019513448,24.235425460552126L145.48028286170958,129.8237814084166L145.5765955282847,137.88156727981448L145.8173771947225,142.10768826625082L145.9136898612976,145.44349989450032L146.29894052759806,146.39869542788858L147.5991615263621,147.16219734654592L147.64731785964966,147.21627550788725L147.74363052622476,145.95021902640025L148.1770375258128,143.41535427511042L148.22519385910036,145.2461175468887L148.56228819211324,144.44438182715965L148.70675719197592,145.28963698025728L148.75491352526348,146.1280066353437L148.89938252512613,148.8596276264603L149.236476858139,146.1453389960939L149.33278952471417,149.62028951827688L149.57357119115196,150.24888172388708L150.15144719060262,148.4624763925531L150.19960352389018,150.46503332188988L150.58485419019064,-48.591665373604215L150.6330105234782,-90.33648410294403L150.97010485649108,121.66116431197517L151.11457385635376,132.6283218968366L151.1627301896413,137.9421172306731L151.21088652292886,135.74328262290842L151.35535552279157,129.66437152154603L152.27032585525512,143.79221040719392L152.6555765215556,147.41389267605427L152.70373285484314,145.73346422405484L152.84820185470582,148.8084049216472L153.1852961877187,147.66527989399196L153.32976518758136,146.39329600164697L153.4260778541565,148.69569949315314L153.57054685401917,-14.735629220638165L153.7631721871694,134.1405855608877L154.1965791867574,148.37896586136895L154.48551718648272,150.38001839618227L154.67814251963298,145.89344886678182L154.72629885292054,148.6989785428188L154.91892418607077,-55.7376010788212L154.96708051935832,1.7881619048111965L155.01523685264587,89.43923620719546L155.25601851908365,76.13126581706173L155.49680018552144,140.90372132912032L155.544956518809,141.8112675768664L155.73758185195925,145.72372375169314L155.97836351839703,146.16537106996483L156.02651985168458,146.33196154761862L156.07467618497213,148.79313362961196L156.2191451848348,149.509488209646L156.6525521844228,148.8031349601266L156.70070851771038,147.43949149183982L156.74886485099793,147.5160126157115L156.98964651743572,146.45819423129169L157.2304281838735,150.14112295674437L157.37489718373615,148.58107282748642L157.51936618359883,149.98681318428834L157.61567885017394,149.3297959986616L157.71199151674904,59.28969256435022L157.85646051661175,147.87225227451296L158.19355484962463,148.74231788280454L158.7714308490753,150.51721604256716L158.8677435156504,150.0996480775034L159.49377584838868,29.59034476878521L159.54193218167623,23.71948757259641L160.07165184783938,114.53019154613389L160.55321518071491,135.05295455030807L160.64952784729005,132.3191090322254L160.74584051386515,139.24220051252112L161.0347785135905,144.34777992946607L161.3718728466034,146.20131404463243L161.42002917989095,143.81565629940658L161.66081084632873,138.19434054479785L161.85343617947896,139.52756583086898L161.9015925127665,141.6918176873477L162.09421784591677,-145.25989143597758L162.720250178655,98.26994719666477L162.8165628452301,-76.4064388625131L162.86471917851765,40.29643397120826L163.2981261781057,128.41138639619257L163.3944388446808,151.46205290653725L163.4907515112559,99.10431525875431L163.87600217755636,144.60406751969285L164.26125284385682,147.99083954806937L164.40572184371948,143.27395565523648L164.45387817700706,145.04549255403018L164.5983471768697,149.25848046558332L164.6946598434448,147.53626793787234L164.7428161767324,146.09555559181044L164.88728517659504,149.29778542448642L165.17622317632038,149.31821336627524L165.36884850947064,149.09789695811332L165.4170048427582,147.51132825904628L166.09119350878396,150.07046571681454L166.23566250864667,60.625972928530544L166.38013150850932,141.32814477663155L166.7172258415222,147.2421636303119L166.8616948413849,148.41381429258516L166.95800750796,144.95041578450255L167.24694550768533,148.05715224609054L167.48772717412314,150.7696970806896L167.77666517384847,145.0205687870693L167.87297784042357,147.31379016802725L168.2100721734365,150.48926046257264L168.35454117329914,150.5820244666093L168.45085383987427,150.9015769696863L168.49901017316185,146.75469062257997L168.6434791730245,140.05376060353726L169.02872983932494,144.9468124703122L169.46213683891298,148.89349868341398L169.70291850535077,146.79616369365448L169.94370017178852,148.39575938850376L170.1844818382263,147.81298588077664L170.81051417096455,144.91947588598097L170.90682683753968,145.16763829924787L171.38839017041522,149.9733850166332L171.72548450342816,126.31971675369381L171.86995350329082,-144.18505941028837L172.1107351697286,146.8288741488075L172.5441421693166,148.74461401316375L172.5922985026042,148.6771807340937L172.88123650232953,136.9339867793458L173.17017450205486,112.51408686906447L173.31464350191752,108.57688195779355L173.50726883506775,131.61563293723216L173.5554251683553,132.53885285433074L173.60358150164285,135.9304505174479L173.69989416821795,138.92288795313797L173.8925195013682,140.78894374182352L174.0369885012309,144.99139028380228L174.08514483451845,146.37286950639134L174.27777016766865,150.6309057163564L174.32592650095623,150.1540436323367L174.37408283424378,-121.62589976137636L174.61486450068153,-55.27157822966974L174.71117716725666,65.19786645956471L175.19274050013223,120.55618846319973L175.52983483314515,141.22178601253339L175.86692916615806,148.27771504707346L176.0113981660207,148.52598498597453L176.87821216519671,143.7387330393065L177.11899383163453,132.97617069874792L177.55240083122254,130.4123699795902L177.6968698310852,122.5048673349539L177.7931824976603,121.70299998070405L178.13027683067324,144.11447341211843L178.32290216382344,142.40220049617244L178.371058497111,145.55237755506985L178.75630916341146,131.95328078704776L178.94893449656166,128.13138385857872L178.99709082984927,138.55919768402347L179.14155982971192,134.28283956405798L179.23787249628703,96.79825975310689L179.57496682929994,142.77771376327263L179.76759216245014,147.8287475475652L179.96021749560038,141.79541164433127L180.15284282875064,145.02918964273758L180.24915549532574,145.20408032786793L180.53809349505107,143.57394253112588L181.30859482765197,149.2528802123164L181.45306382751465,150.46347215093846L181.5975328273773,130.50773316269058L181.74200182724,140.77207234298504L181.79015816052754,143.6515697707145L182.03093982696532,139.89786193491022L182.70512849299112,137.91137550719932L182.8495974928538,146.88725719293905L182.89775382614135,151.1828499250792L183.28300449244182,144.3630201210376L183.66825515874228,140.4422377011368L184.29428749148053,149.46212581975433L184.63138182449342,-227.23556796498994L184.92031982421875,94.98073901055696L185.16110149065653,103.59593584098504L185.69082115681968,103.90930893506687L186.07607182312012,96.34302225546215L186.12422815640767,109.93846315192108L186.36500982284545,109.09559333206305L186.46132248942058,130.01120775022036L186.5576351559957,129.60385243006226L186.70210415585836,111.5401071377754L186.79841682243347,103.79825761728206L187.03919848887125,135.92769438953246L187.0873548221588,133.4232266046381L187.4726054884593,138.0535253599795L187.52076182174685,143.52859371544253L187.6652308216095,147.2308083447261L188.00232515462238,146.99859733518528L188.14679415448506,147.95680358633138L188.19495048777262,146.22950504790452L188.24310682106017,148.56486466411812L188.6765138206482,147.8424688792813L188.86913915379841,149.92778088784078L189.06176448694865,146.7502111914508L189.39885881996153,148.07776389759522L189.44701515324908,149.08551222307L189.6877968196869,147.44488513194864L190.41014181900024,118.45439694575334L190.4582981522878,-5.536032979171041L190.65092348543806,130.3974571866986L190.74723615201316,-28.58831000834438L191.08433048502604,110.88677174076487L191.27695581817628,131.82667827305434L191.71036281776426,142.63431410581137L191.75851915105181,143.94679176625743L191.80667548433942,147.31527527544145L191.85483181762697,141.8825450179039L191.90298815091452,140.48910826974196L192.09561348406476,129.43397157156616L192.19192615063986,139.3084623407916L192.28823881721496,130.2512011083537L192.43270781707764,139.63139412623025L192.5771768169403,132.7831491665434L192.62533315022785,138.11409556230285L192.76980215009053,147.52612436492674L193.29952181625367,146.3015457762916L193.588459815979,-139.7637441987877L193.87739781570437,133.94940401890807L194.31080481529236,133.04986095715572L194.3589611485799,135.90697521239358L194.5997428150177,145.88198557338413L194.74421181488037,147.58995023129575L195.03314981460574,142.93858271995987L195.22577514775594,146.98036281989874L195.41840048090617,149.719439604739L195.8036511472066,145.43092132400878L195.9481201470693,148.2732908252946L196.23705814679465,136.32494712185223L196.2852144800822,143.92145670169126L196.67046514638264,148.02277972429573L196.81493414624532,142.5604473703537L196.86309047953287,144.86851645020946L197.00755947939552,137.0301985952543L197.44096647898357,131.653717263207L198.0669988117218,138.36358010691055L198.11515514500934,142.10177966032435L198.16331147829692,138.28316443349846L198.2114678115845,139.6149306497529L198.35593681144715,141.28561766503515L198.88565647761027,143.61796391151336L200.04140847651163,142.42611168989637L200.1858774763743,149.11100833499862L200.28219014294945,148.17943275998428L200.37850280952455,149.98328183512447L200.5229718093872,147.03491351541734L200.61928447596233,148.38492630140158L200.71559714253743,149.24616516413334L200.86006614240011,148.65624650568634L200.90822247568767,144.74235223577432L201.7750364748637,150.74053388656563L202.25659980773924,145.21567139836458L202.59369414075218,149.86077059918603L202.78631947390238,151.14331538930355L202.83447580718993,151.446935579879L203.07525747362772,149.88195001497002L203.12341380691527,148.7561742242856L203.26788280677795,147.44808872079926L203.7976024729411,140.12165797867425L203.84575880622864,138.2398031544259L204.4236348056793,143.1516811685644L204.47179113896686,145.04233428988636L204.568103805542,148.63529660650275L204.61626013882957,148.0580712768475L204.76072913869223,145.87621053068938L204.80888547197978,146.46120639558276L204.85704180526733,147.84949035141295L205.19413613828021,132.5736313697758L205.29044880485534,119.95503626904424L205.38676147143045,-29.160381099134685L205.96463747088114,-26.443105136630383L206.10910647074382,117.34520686360126L206.15726280403138,107.97688313277273L206.20541913731893,109.83858292782845L206.25357547060648,119.70778710040156L206.4462008037567,47.61132475367613L206.59066980361936,125.72483094134186L207.31301480293274,125.38900186593088L207.40932746950784,-11.945046813200635L207.6982654692332,139.09898697566442L207.7945781358083,68.29219769355576L207.98720346895854,139.43787402225098L208.17982880210877,145.20435613353055L208.22798513539632,147.34408298403264L208.95033013470967,143.76164757165867L209.3837371342977,151.1043941836028L209.4800498008728,142.8470808161364L209.57636246744792,144.4889080476324L209.72083146731057,147.20134005264225L209.81714413388568,144.57509008454005L209.9616131337484,147.2873952768064L210.39502013333637,148.66692505482544L210.53948913319906,143.7884007209343L210.6839581330617,145.35563409295298L211.74339746538797,121.57621616788342L211.98417913182578,119.48974825875618L212.27311713155112,57.302641988693004L212.41758613141377,147.77157983240684L212.610211464564,84.5995257341875L212.89914946428934,128.81196229744046L213.043618464152,142.1444774628378L213.13993113072715,140.8434086097058L213.23624379730225,146.17425953427434L213.38071279716493,143.43053708753186L213.47702546374003,144.00515455892423L213.6214944636027,139.29632399856925L214.44015212949117,150.02224926961523L214.48830846277872,147.9206024054884L214.6327774626414,150.13083629755687L215.01802812894184,150.5258956033743L215.0661844622294,149.93752630252428L215.49959146181743,150.2051685756147L215.54774779510498,125.38527366770798L215.78852946154277,149.80530786448762L215.83668579483032,145.11039271238582L215.88484212811787,145.1704898983542L216.02931112798055,147.9738774998173L216.3182491277059,147.37804035080032L216.5590307941437,149.46836640504918L216.70349979400635,150.2914258322485L217.08875046030678,-443.1460539573218L217.28137579345704,139.97029853121515L217.37768846003215,140.98853542780262L217.81109545962016,143.292756729358L218.05187712605795,144.96501564404616L218.3408151257833,147.43409399430914L218.38897145907086,147.08918069042954L218.62975312550864,144.36369516986224L218.96684745852153,144.59546450460067L219.3039417915344,-77.48262870069527L219.59287979125978,61.321203784308665L219.73734879112243,46.03122446888227L219.83366145769756,96.55428167819726L219.8818177909851,80.42793229873858L220.218912123998,70.65125031806961L220.60416279029846,145.2430349846488L220.65231912358604,146.75436563478868L220.74863179016114,145.05476772488063L220.94125712331137,141.25309477701984L221.13388245646158,145.57521204591853L221.37466412289936,148.01861828938073L221.95254012235006,149.84662495106585L222.2414781220754,147.1283378618578L222.53041612180073,142.64475325370663L222.67488512166344,143.14160172525717L222.96382312138874,149.9289870554371L223.5416991208394,149.51574976967223L223.73432445398967,150.47702869841473L224.07141878700256,145.40207070159943L224.21588778686524,148.18273061458146L224.74560745302838,149.28905270358433L225.22717078590392,147.9724779789505L225.27532711919147,149.77085698881137L225.41979611905415,150.6543604083127L225.7087341187795,151.01699428628888L225.9495157852173,148.62756753854958L226.67186078453062,143.83320274706972L226.72001711781817,144.9404766549153L227.10526778411867,148.07879358814168L227.34604945055645,147.79056124100006L227.63498745028178,148.70519477813818L227.7313001168569,148.1558147303213L227.77945645014444,149.39022202984313L228.0683944498698,149.36165637447334L228.54995778274537,149.9173888728189L228.69442678260802,148.57644898412653L228.79073944918312,147.92551290350988L228.8388957824707,147.96557030076357L228.88705211575825,149.33143419750567L229.07967744890848,143.25000010116122L229.56124078178405,144.66877046735615L229.6093971150716,147.34834061340513L229.70570978164673,146.88162583920843L230.1872731145223,149.34099361212907L230.23542944780985,147.8535452250492L231.0540871136983,148.42793679617418L231.39118144671122,147.9303571020932L231.58380677986145,0.07744160116184581L232.01721377944946,139.80490964046925L232.25799544588725,142.0690793309037L232.49877711232503,150.09512332166742L232.78771511205036,146.13378312457164L233.2211221116384,135.35186616985536L233.4137474447886,138.00750824595977L233.60637277793884,146.14111415480716L233.75084177780153,146.65537454643368L234.03977977752686,145.56550387946484L234.28056144396464,146.81156927218808L234.56949944368998,147.2534817882123L234.81028111012776,149.79378453996227L234.95475010999044,151.24853163326603L235.002906443278,151.3331993910067L235.3400007762909,150.74906421336473L235.72525144259134,135.35852986610993L236.1105021088918,144.0147701472534L236.303127442042,145.85283214335917L236.44759644190472,146.89189960014158L236.59206544176737,149.4522259876522L236.64022177505493,149.4059887594979L237.0254724413554,151.23343181568669L237.1217851079305,149.37075000540773L237.65150477409364,146.97685738778802L238.03675544039407,147.98218614540417L238.3256934401194,-297.19034533744417L238.56647510655722,1.5750162027889254L238.75910043970745,-33.92215236356151L239.1443511060079,94.27743457083623L240.2519467716217,140.01073299145517L240.54088477134704,150.9392751918423L240.7335101044973,130.42322669340123L241.45585510381062,-74.0203611404828L241.74479310353598,83.45474322057895L241.88926210339864,46.6797265163084L241.98557476997377,63.101751138378006L242.32266910298665,68.7873440777128L242.4671381028493,120.45477877134158L242.65976343599954,143.63760686795473L242.8523887691498,130.60955366997632L242.90054510243735,133.43184987119506L242.9487014357249,135.846504338683L243.0450141023,140.38535326539593L243.33395210202534,147.52099254732633L243.67104643503825,137.39680893271304L243.76735910161335,-66.7016283658473L243.86367176818848,129.24741122096887L244.0562971013387,146.3620913875506L244.20076610120137,146.43957059857553L244.24892243448895,136.1573633580708L244.34523510106405,-119.96424586372319L244.73048576736448,144.3747838111623L245.11573643366498,148.73600111342802L245.21204910024008,49.84782708585528L245.88623776626585,134.59181133980323L246.03070676612856,135.34274722459003L246.1751757659912,141.7273107901914L246.65673909886678,150.77246924101465L246.84936443201698,150.74409290067683L246.9938334318797,151.4497476856155L247.71617843119301,148.7159639766909L247.9569600976308,149.57495589119208L248.00511643091835,149.9323521738279L248.1977417640686,149.89169530910905L248.39036709721884,147.14631730512417L248.4385234305064,146.95820337787472L248.48667976379394,147.35802274226128L248.58299243036905,147.5460575923627L248.82377409680683,149.86027299176675L248.87193043009438,149.9260354044514L248.92008676338196,150.45328494090816L249.35349376296998,150.71309917906592L249.7387444292704,150.17145748112355L249.93136976242064,148.7291927638539L250.02768242899575,148.85072855424073L250.3166204287211,149.2220360260746L250.70187109502157,150.85694967270646L250.75002742830912,150.97769589705734L251.03896542803446,150.03842476544222L251.1834344278971,151.12112713716002L251.5686850941976,11.309528847738576L251.61684142748516,144.41961187489522L251.85762309392294,147.52250803193766L252.0020920937856,149.28526784947792L252.05024842707314,149.19217789329448L252.19471742693582,149.43805791826753L252.3391864267985,148.96540199114744L252.4836554266612,150.7121520614561L253.06153142611186,151.03481141647623L253.25415675926206,150.35850736266315L253.591251092275,20.707273135055523L253.88018909200034,37.006739749946696L254.024658091863,133.2617742128953L254.07281442515054,137.50289574857044L254.1209707584381,136.832527905359L254.26543975830077,140.2832800969787L254.31359609158832,138.55141437107548L254.65069042460124,148.17023088014906L254.74700309117637,149.68971877206806L254.84331575775147,144.55975393959986L255.1322537574768,-187.44302129586228L255.3730354239146,143.23480957389606L255.42119175720214,144.78233200241317L255.56566075706482,146.29834942010694L255.7101297569275,-220.2528012042413L255.8064424235026,133.3442381773124L255.90275509007773,139.29762202102344L256.2880057563782,147.56462191721783L256.6732564226786,-129.72179503199112L256.76956908925376,-58.61769110298317L256.86588175582887,101.38442574500472L256.9140380891164,107.5484894338172L256.96219442240397,117.2008659952074L257.29928875541685,132.36253010133672L257.34744508870443,132.57268244399947L258.21425908788046,145.50782047522225L258.35872808774315,147.29430536588197L258.88844775390623,139.10310477349466L259.1773857536316,144.22837054287683L259.80341808636985,140.66837519996682L260.09235608609515,147.56434707591063L260.14051241938273,-195.93845289253497L260.4294504191081,146.65470576591954L260.5257630856832,145.56137161630264L260.7183884188334,149.64150509739073L261.24810808499655,-91.82512491555484L261.34442075157165,137.7973269726331L261.4407334181468,-51.30965110172983L261.633358751297,102.7321472224071L261.7296714178721,110.22243883404563L261.9704530843099,119.61582037724453L262.1630784174601,113.22905229505301L262.40386008389794,124.96483204390664L263.80039374923706,145.57459534059944L263.89670641581216,44.87047222879382L264.3301134154002,131.88358681768182L264.3782697486877,129.81754202856607L264.4264260819753,131.01231480070507L264.8116767482758,146.07634804186097" fill="none"></path></g></g></g></g></g></g><g transform="translate(41, 176)" clip-path="url(#clip_1)"><clipPath id="clip_1"><rect width="288" height="23"></rect></clipPath><g><g><line x1="0" y1="0" x2="0" y2="5" style="visibility: inherit;" fill="rgb(0, 0, 0)" stroke="rgb(204, 204, 204)" stroke-width="1px"></line><line x1="24.07816664377848" y1="0" x2="24.07816664377848" y2="5" style="visibility: inherit;" fill="rgb(0, 0, 0)" stroke="rgb(204, 204, 204)" stroke-width="1px"></line><line x1="48.15633328755696" y1="0" x2="48.15633328755696" y2="5" style="visibility: inherit;" fill="rgb(0, 0, 0)" stroke="rgb(204, 204, 204)" stroke-width="1px"></line><line x1="72.23449993133545" y1="0" x2="72.23449993133545" y2="5" style="visibility: inherit;" fill="rgb(0, 0, 0)" stroke="rgb(204, 204, 204)" stroke-width="1px"></line><line x1="96.31266657511392" y1="0" x2="96.31266657511392" y2="5" style="visibility: inherit;" fill="rgb(0, 0, 0)" stroke="rgb(204, 204, 204)" stroke-width="1px"></line><line x1="120.39083321889242" y1="0" x2="120.39083321889242" y2="5" style="visibility: inherit;" fill="rgb(0, 0, 0)" stroke="rgb(204, 204, 204)" stroke-width="1px"></line><line x1="144.4689998626709" y1="0" x2="144.4689998626709" y2="5" style="visibility: inherit;" fill="rgb(0, 0, 0)" stroke="rgb(204, 204, 204)" stroke-width="1px"></line><line x1="168.5471665064494" y1="0" x2="168.5471665064494" y2="5" style="visibility: inherit;" fill="rgb(0, 0, 0)" stroke="rgb(204, 204, 204)" stroke-width="1px"></line><line x1="192.62533315022785" y1="0" x2="192.62533315022785" y2="5" style="visibility: inherit;" fill="rgb(0, 0, 0)" stroke="rgb(204, 204, 204)" stroke-width="1px"></line><line x1="216.70349979400635" y1="0" x2="216.70349979400635" y2="5" style="visibility: inherit;" fill="rgb(0, 0, 0)" stroke="rgb(204, 204, 204)" stroke-width="1px"></line><line x1="240.78166643778485" y1="0" x2="240.78166643778485" y2="5" style="visibility: inherit;" fill="rgb(0, 0, 0)" stroke="rgb(204, 204, 204)" stroke-width="1px"></line><line x1="264.8598330815633" y1="0" x2="264.8598330815633" y2="5" style="visibility: inherit;" fill="rgb(0, 0, 0)" stroke="rgb(204, 204, 204)" stroke-width="1px"></line><line x1="288.9379997253418" y1="0" x2="288.9379997253418" y2="5" style="visibility: inherit;" fill="rgb(0, 0, 0)" stroke="rgb(204, 204, 204)" stroke-width="1px"></line></g><g transform="translate(0, 8)"><text style="text-anchor: middle; visibility: hidden; font-family: Roboto, sans-serif; font-size: 12px; font-weight: 200;" x="0" y="0" dx="0em" dy="0.95em" fill="rgb(33, 33, 33)" stroke="none" stroke-width="1px">-500</text><text style="text-anchor: middle; visibility: inherit; font-family: Roboto, sans-serif; font-size: 12px; font-weight: 200;" x="24.07816664377848" y="0" dx="0em" dy="0.95em" fill="rgb(33, 33, 33)" stroke="none" stroke-width="1px">0</text><text style="text-anchor: middle; visibility: hidden; font-family: Roboto, sans-serif; font-size: 12px; font-weight: 200;" x="48.15633328755696" y="0" dx="0em" dy="0.95em" fill="rgb(33, 33, 33)" stroke="none" stroke-width="1px">500</text><text style="text-anchor: middle; visibility: inherit; font-family: Roboto, sans-serif; font-size: 12px; font-weight: 200;" x="72.23449993133545" y="0" dx="0em" dy="0.95em" fill="rgb(33, 33, 33)" stroke="none" stroke-width="1px">1k</text><text style="text-anchor: middle; visibility: hidden; font-family: Roboto, sans-serif; font-size: 12px; font-weight: 200;" x="96.31266657511392" y="0" dx="0em" dy="0.95em" fill="rgb(33, 33, 33)" stroke="none" stroke-width="1px">1.5k</text><text style="text-anchor: middle; visibility: inherit; font-family: Roboto, sans-serif; font-size: 12px; font-weight: 200;" x="120.39083321889242" y="0" dx="0em" dy="0.95em" fill="rgb(33, 33, 33)" stroke="none" stroke-width="1px">2k</text><text style="text-anchor: middle; visibility: hidden; font-family: Roboto, sans-serif; font-size: 12px; font-weight: 200;" x="144.4689998626709" y="0" dx="0em" dy="0.95em" fill="rgb(33, 33, 33)" stroke="none" stroke-width="1px">2.5k</text><text style="text-anchor: middle; visibility: inherit; font-family: Roboto, sans-serif; font-size: 12px; font-weight: 200;" x="168.5471665064494" y="0" dx="0em" dy="0.95em" fill="rgb(33, 33, 33)" stroke="none" stroke-width="1px">3k</text><text style="text-anchor: middle; visibility: hidden; font-family: Roboto, sans-serif; font-size: 12px; font-weight: 200;" x="192.62533315022785" y="0" dx="0em" dy="0.95em" fill="rgb(33, 33, 33)" stroke="none" stroke-width="1px">3.5k</text><text style="text-anchor: middle; visibility: inherit; font-family: Roboto, sans-serif; font-size: 12px; font-weight: 200;" x="216.70349979400635" y="0" dx="0em" dy="0.95em" fill="rgb(33, 33, 33)" stroke="none" stroke-width="1px">4k</text><text style="text-anchor: middle; visibility: hidden; font-family: Roboto, sans-serif; font-size: 12px; font-weight: 200;" x="240.78166643778485" y="0" dx="0em" dy="0.95em" fill="rgb(33, 33, 33)" stroke="none" stroke-width="1px">4.5k</text><text style="text-anchor: middle; visibility: inherit; font-family: Roboto, sans-serif; font-size: 12px; font-weight: 200;" x="264.8598330815633" y="0" dx="0em" dy="0.95em" fill="rgb(33, 33, 33)" stroke="none" stroke-width="1px">5k</text><text style="text-anchor: middle; visibility: hidden; font-family: Roboto, sans-serif; font-size: 12px; font-weight: 200;" x="288.9379997253418" y="0" dx="0em" dy="0.95em" fill="rgb(33, 33, 33)" stroke="none" stroke-width="1px">5.5k</text></g><line x1="0" y1="0" x2="288.9379997253418" y2="0" fill="rgb(0, 0, 0)" stroke="rgb(204, 204, 204)" stroke-width="1px"></line></g></g></g></g></svg>