<svg viewBox="0 0 330 200" xmlns="http://www.w3.org/2000/svg"><g><g><g><g><g><line x1="82.68100261688232" y1="176.89999961853027" x2="77.68100261688232" y2="176.89999961853027" style="visibility: inherit;" fill="rgb(0, 0, 0)" stroke="rgb(204, 204, 204)" stroke-width="1px"></line><line x1="82.68100261688232" y1="163.2923073401818" x2="77.68100261688232" y2="163.2923073401818" style="visibility: inherit;" fill="rgb(0, 0, 0)" stroke="rgb(204, 204, 204)" stroke-width="1px"></line><line x1="82.68100261688232" y1="149.6846150618333" x2="77.68100261688232" y2="149.6846150618333" style="visibility: inherit;" fill="rgb(0, 0, 0)" stroke="rgb(204, 204, 204)" stroke-width="1px"></line><line x1="82.68100261688232" y1="136.0769227834848" x2="77.68100261688232" y2="136.0769227834848" style="visibility: inherit;" fill="rgb(0, 0, 0)" stroke="rgb(204, 204, 204)" stroke-width="1px"></line><line x1="82.68100261688232" y1="122.46923050513634" x2="77.68100261688232" y2="122.46923050513634" style="visibility: inherit;" fill="rgb(0, 0, 0)" stroke="rgb(204, 204, 204)" stroke-width="1px"></line><line x1="82.68100261688232" y1="108.86153822678787" x2="77.68100261688232" y2="108.86153822678787" style="visibility: inherit;" fill="rgb(0, 0, 0)" stroke="rgb(204, 204, 204)" stroke-width="1px"></line><line x1="82.68100261688232" y1="95.25384594843938" x2="77.68100261688232" y2="95.25384594843938" style="visibility: inherit;" fill="rgb(0, 0, 0)" stroke="rgb(204, 204, 204)" stroke-width="1px"></line><line x1="82.68100261688232" y1="81.6461536700909" x2="77.68100261688232" y2="81.6461536700909" style="visibility: inherit;" fill="rgb(0, 0, 0)" stroke="rgb(204, 204, 204)" stroke-width="1px"></line><line x1="82.68100261688232" y1="68.0384613917424" x2="77.68100261688232" y2="68.0384613917424" style="visibility: inherit;" fill="rgb(0, 0, 0)" stroke="rgb(204, 204, 204)" stroke-width="1px"></line><line x1="82.68100261688232" y1="54.430769113393936" x2="77.68100261688232" y2="54.430769113393936" style="visibility: inherit;" fill="rgb(0, 0, 0)" stroke="rgb(204, 204, 204)" stroke-width="1px"></line><line x1="82.68100261688232" y1="40.82307683504544" x2="77.68100261688232" y2="40.82307683504544" style="visibility: inherit;" fill="rgb(0, 0, 0)" stroke="rgb(204, 204, 204)" stroke-width="1px"></line><line x1="82.68100261688232" y1="27.215384556696968" x2="77.68100261688232" y2="27.215384556696968" style="visibility: inherit;" fill="rgb(0, 0, 0)" stroke="rgb(204, 204, 204)" stroke-width="1px"></line><line x1="82.68100261688232" y1="13.607692278348473" x2="77.68100261688232" y2="13.607692278348473" style="visibility: inherit;" fill="rgb(0, 0, 0)" stroke="rgb(204, 204, 204)" stroke-width="1px"></line><line x1="82.68100261688232" y1="0" x2="77.68100261688232" y2="0" style="visibility: inherit;" fill="rgb(0, 0, 0)" stroke="rgb(204, 204, 204)" stroke-width="1px"></line></g><g transform="translate(72.68100261688232, 0)"><text style="text-anchor: end; visibility: hidden; font-family: Roboto, sans-serif; font-size: 12px; font-weight: 200;" x="0" y="176.89999961853027" dx="0em" dy="0.3em" fill="rgb(33, 33, 33)" stroke="none" stroke-width="1px">-1.3e+3</text><text style="text-anchor: end; visibility: inherit; font-family: Roboto, sans-serif; font-size: 12px; font-weight: 200;" x="0" y="163.2923073401818" dx="0em" dy="0.3em" fill="rgb(33, 33, 33)" stroke="none" stroke-width="1px">-1.2e+3</text><text style="text-anchor: end; visibility: hidden; font-family: Roboto, sans-serif; font-size: 12px; font-weight: 200;" x="0" y="149.6846150618333" dx="0em" dy="0.3em" fill="rgb(33, 33, 33)" stroke="none" stroke-width="1px">-1.1e+3</text><text style="text-anchor: end; visibility: inherit; font-family: Roboto, sans-serif; font-size: 12px; font-weight: 200;" x="0" y="136.0769227834848" dx="0em" dy="0.3em" fill="rgb(33, 33, 33)" stroke="none" stroke-width="1px">-1e+3</text><text style="text-anchor: end; visibility: hidden; font-family: Roboto, sans-serif; font-size: 12px; font-weight: 200;" x="0" y="122.46923050513634" dx="0em" dy="0.3em" fill="rgb(33, 33, 33)" stroke="none" stroke-width="1px">-900</text><text style="text-anchor: end; visibility: inherit; font-family: Roboto, sans-serif; font-size: 12px; font-weight: 200;" x="0" y="108.86153822678787" dx="0em" dy="0.3em" fill="rgb(33, 33, 33)" stroke="none" stroke-width="1px">-800</text><text style="text-anchor: end; visibility: hidden; font-family: Roboto, sans-serif; font-size: 12px; font-weight: 200;" x="0" y="95.25384594843938" dx="0em" dy="0.3em" fill="rgb(33, 33, 33)" stroke="none" stroke-width="1px">-700</text><text style="text-anchor: end; visibility: inherit; font-family: Roboto, sans-serif; font-size: 12px; font-weight: 200;" x="0" y="81.6461536700909" dx="0em" dy="0.3em" fill="rgb(33, 33, 33)" stroke="none" stroke-width="1px">-600</text><text style="text-anchor: end; visibility: hidden; font-family: Roboto, sans-serif; font-size: 12px; font-weight: 200;" x="0" y="68.0384613917424" dx="0em" dy="0.3em" fill="rgb(33, 33, 33)" stroke="none" stroke-width="1px">-500</text><text style="text-anchor: end; visibility: inherit; font-family: Roboto, sans-serif; font-size: 12px; font-weight: 200;" x="0" y="54.430769113393936" dx="0em" dy="0.3em" fill="rgb(33, 33, 33)" stroke="none" stroke-width="1px">-400</text><text style="text-anchor: end; visibility: hidden; font-family: Roboto, sans-serif; font-size: 12px; font-weight: 200;" x="0" y="40.82307683504544" dx="0em" dy="0.3em" fill="rgb(33, 33, 33)" stroke="none" stroke-width="1px">-300</text><text style="text-anchor: end; visibility: inherit; font-family: Roboto, sans-serif; font-size: 12px; font-weight: 200;" x="0" y="27.215384556696968" dx="0em" dy="0.3em" fill="rgb(33, 33, 33)" stroke="none" stroke-width="1px">-200</text><text style="text-anchor: end; visibility: hidden; font-family: Roboto, sans-serif; font-size: 12px; font-weight: 200;" x="0" y="13.607692278348473" dx="0em" dy="0.3em" fill="rgb(33, 33, 33)" stroke="none" stroke-width="1px">-100</text><text style="text-anchor: end; visibility: hidden; font-family: Roboto, sans-serif; font-size: 12px; font-weight: 200;" x="0" y="0" dx="0em" dy="0.3em" fill="rgb(33, 33, 33)" stroke="none" stroke-width="1px">0</text></g><line x1="82.68100261688232" y1="0" x2="82.68100261688232" y2="176.89999961853027" fill="rgb(0, 0, 0)" stroke="rgb(204, 204, 204)" stroke-width="1px"></line></g></g><g transform="translate(82, 0)" clip-path="url(#clip_0)"><clipPath id="clip_0"><rect width="247" height="176"></rect></clipPath><g><g><g><line x1="0" y1="0" x2="0" y2="176.89999961853027" fill="rgb(0, 0, 0)" stroke="rgb(66, 66, 66)" stroke-width="1px" opacity="0.25"></line><line x1="20.60991644859314" y1="0" x2="20.60991644859314" y2="176.89999961853027" fill="rgb(0, 0, 0)" stroke="rgb(66, 66, 66)" stroke-width="1px" opacity="0.25"></line><line x1="41.21983289718628" y1="0" x2="41.21983289718628" y2="176.89999961853027" fill="rgb(0, 0, 0)" stroke="rgb(66, 66, 66)" stroke-width="1px" opacity="0.25"></line><line x1="61.82974934577942" y1="0" x2="61.82974934577942" y2="176.89999961853027" fill="rgb(0, 0, 0)" stroke="rgb(66, 66, 66)" stroke-width="1px" opacity="0.25"></line><line x1="82.43966579437256" y1="0" x2="82.43966579437256" y2="176.89999961853027" fill="rgb(0, 0, 0)" stroke="rgb(66, 66, 66)" stroke-width="1px" opacity="0.25"></line><line x1="103.0495822429657" y1="0" x2="103.0495822429657" y2="176.89999961853027" fill="rgb(0, 0, 0)" stroke="rgb(66, 66, 66)" stroke-width="1px" opacity="0.25"></line><line x1="123.65949869155884" y1="0" x2="123.65949869155884" y2="176.89999961853027" fill="rgb(0, 0, 0)" stroke="rgb(66, 66, 66)" stroke-width="1px" opacity="0.25"></line><line x1="144.26941514015198" y1="0" x2="144.26941514015198" y2="176.89999961853027" fill="rgb(0, 0, 0)" stroke="rgb(66, 66, 66)" stroke-width="1px" opacity="0.25"></line><line x1="164.87933158874512" y1="0" x2="164.87933158874512" y2="176.89999961853027" fill="rgb(0, 0, 0)" stroke="rgb(66, 66, 66)" stroke-width="1px" opacity="0.25"></line><line x1="185.48924803733826" y1="0" x2="185.48924803733826" y2="176.89999961853027" fill="rgb(0, 0, 0)" stroke="rgb(66, 66, 66)" stroke-width="1px" opacity="0.25"></line><line x1="206.0991644859314" y1="0" x2="206.0991644859314" y2="176.89999961853027" fill="rgb(0, 0, 0)" stroke="rgb(66, 66, 66)" stroke-width="1px" opacity="0.25"></line><line x1="226.70908093452454" y1="0" x2="226.70908093452454" y2="176.89999961853027" fill="rgb(0, 0, 0)" stroke="rgb(66, 66, 66)" stroke-width="1px" opacity="0.25"></line><line x1="247.31899738311768" y1="0" x2="247.31899738311768" y2="176.89999961853027" fill="rgb(0, 0, 0)" stroke="rgb(66, 66, 66)" stroke-width="1px" opacity="0.25"></line></g><g><line x1="0" y1="176.89999961853027" x2="247.31899738311768" y2="176.89999961853027" fill="rgb(0, 0, 0)" stroke="rgb(66, 66, 66)" stroke-width="1px" opacity="0.25"></line><line x1="0" y1="163.2923073401818" x2="247.31899738311768" y2="163.2923073401818" fill="rgb(0, 0, 0)" stroke="rgb(66, 66, 66)" stroke-width="1px" opacity="0.25"></line><line x1="0" y1="149.6846150618333" x2="247.31899738311768" y2="149.6846150618333" fill="rgb(0, 0, 0)" stroke="rgb(66, 66, 66)" stroke-width="1px" opacity="0.25"></line><line x1="0" y1="136.0769227834848" x2="247.31899738311768" y2="136.0769227834848" fill="rgb(0, 0, 0)" stroke="rgb(66, 66, 66)" stroke-width="1px" opacity="0.25"></line><line x1="0" y1="122.46923050513634" x2="247.31899738311768" y2="122.46923050513634" fill="rgb(0, 0, 0)" stroke="rgb(66, 66, 66)" stroke-width="1px" opacity="0.25"></line><line x1="0" y1="108.86153822678787" x2="247.31899738311768" y2="108.86153822678787" fill="rgb(0, 0, 0)" stroke="rgb(66, 66, 66)" stroke-width="1px" opacity="0.25"></line><line x1="0" y1="95.25384594843938" x2="247.31899738311768" y2="95.25384594843938" fill="rgb(0, 0, 0)" stroke="rgb(66, 66, 66)" stroke-width="1px" opacity="0.25"></line><line x1="0" y1="81.6461536700909" x2="247.31899738311768" y2="81.6461536700909" fill="rgb(0, 0, 0)" stroke="rgb(66, 66, 66)" stroke-width="1px" opacity="0.25"></line><line x1="0" y1="68.0384613917424" x2="247.31899738311768" y2="68.0384613917424" fill="rgb(0, 0, 0)" stroke="rgb(66, 66, 66)" stroke-width="1px" opacity="0.25"></line><line x1="0" y1="54.430769113393936" x2="247.31899738311768" y2="54.430769113393936" fill="rgb(0, 0, 0)" stroke="rgb(66, 66, 66)" stroke-width="1px" opacity="0.25"></line><line x1="0" y1="40.82307683504544" x2="247.31899738311768" y2="40.82307683504544" fill="rgb(0, 0, 0)" stroke="rgb(66, 66, 66)" stroke-width="1px" opacity="0.25"></line><line x1="0" y1="27.215384556696968" x2="247.31899738311768" y2="27.215384556696968" fill="rgb(0, 0, 0)" stroke="rgb(66, 66, 66)" stroke-width="1px" opacity="0.25"></line><line x1="0" y1="13.607692278348473" x2="247.31899738311768" y2="13.607692278348473" fill="rgb(0, 0, 0)" stroke="rgb(66, 66, 66)" stroke-width="1px" opacity="0.25"></line><line x1="0" y1="0" x2="247.31899738311768" y2="0" fill="rgb(0, 0, 0)" stroke="rgb(66, 66, 66)" stroke-width="1px" opacity="0.25"></line></g></g></g><g><g><line x1="0" y1="0" x2="247.31899738311768" y2="0" fill="rgb(0, 0, 0)" stroke="rgb(153, 153, 153)" stroke-width="1.5px"></line></g></g><g><g><line x1="20.60991644859314" y1="0" x2="20.60991644859314" y2="176.89999961853027" fill="rgb(0, 0, 0)" stroke="rgb(153, 153, 153)" stroke-width="1.5px"></line></g></g><g><g><g><g><g><path style="fill: none;" stroke="rgb(255, 112, 67)" stroke-width="2px" d="M20.774795780181886,115.15009600882509L21.186994109153748,134.0095485532299L21.22821394205093,133.639005663082L21.35187344074249,137.44264387671666L21.39309327363968,147.5406771359979L21.681632103919984,184.8126498737305L21.722851936817168,168.92460136760693L22.25870976448059,173.3501182031838L22.547248594760894,150.74067823902908L22.588468427658082,179.79684071622725L22.629688260555266,193.17305108392304L22.8357874250412,167.1718190696981L23.165546088218687,153.3043093477837L23.206765921115878,157.0042014708281L23.330425419807437,163.1258556505728L23.37164525270462,166.29864266208014L23.49530475139618,174.56961848125417L23.536524584293364,152.45083464107447L23.783843581676482,153.65415314510687L23.989942746162416,141.50403216468195L24.27848157644272,173.6190649633L24.69067990541458,157.55464287242614L24.855559237003327,147.86742788938352L25.020438568592073,167.15371169350212L25.597516229152678,153.30171368640248L25.762395560741425,150.2630680537786L25.803615393638612,146.9296678006946L25.886055059432984,151.1911122847666L25.968494725227355,170.0702972478425L26.215813722610473,190.77439617350078L26.545572385787963,175.2563098836123L26.628012051582335,198.5913456800344L26.669231884479522,176.40749722583865L26.79289138317108,167.63418492505193L27.081430213451384,183.3206024262278L27.205089712142943,157.67969819968485L27.287529377937318,150.4731962224418L27.36996904373169,147.64731727625593L27.658507874011995,137.39392683997858L27.69972770690918,137.44857832054223L27.90582687139511,143.6436571793789L28.194365701675416,142.91746074143214L28.2355855345726,139.16592766385165L28.482904531955718,144.6434959843854L28.524124364852906,152.10809019017924L28.977542526721955,149.73274247570893L29.059982192516326,162.71671787232776L29.389740855693816,154.8921898432797L29.47218052148819,151.62518439234486L29.84315901756287,146.3870422015706L30.049258182048796,153.02517739643724L30.66755567550659,147.75523971565437L30.708775508403775,131.06500511485905L31.2446333360672,157.71002057421467L31.285853168964387,144.303005919788L31.327073001861574,135.05742327718855L31.780491163730623,144.67699953595658L31.904150662422182,137.4516649819517L32.069029994010926,144.21627478751356L32.23390932559967,141.84484794132675L32.35756882429123,149.75143363290792L32.48122832298279,140.9086126030714L32.563667988777155,140.7574148189312L32.769767153263096,147.69920865957423L32.852206819057464,144.1403847439873L32.893426651954655,165.96173829219347L33.30562498092651,162.01835090481939L33.47050431251526,159.33965383589967L33.635383644104,149.55289030344235L33.71782330989838,147.7037457457557L33.75904314279556,146.1131061613699L33.88270264148712,149.65755969445658L34.50100013494492,136.90150275610742L34.83075879812241,139.8278094732279L34.87197863101959,119.26210119135813L35.366616625785824,120.52504302921704L35.61393562316894,141.8564196128827L35.65515545606613,141.76956494558647L35.69637528896332,142.39699292273974L36.19101328372955,134.99056731896388L36.52077194690705,134.79270728821228L36.68565127849579,136.27317749865958L36.768090944290165,152.75186176979417L36.97419010877609,148.13906626398332L37.18028927326203,155.08746064552452L37.262728939056394,160.19746122223987L37.71614710092545,153.6506767858131L37.963466098308565,166.8651223805604L38.00468593120575,171.0569832212782L38.58176359176636,181.21453319029828L38.70542309045791,178.86276610026846L38.91152225494385,162.57949798187408L38.99396192073822,171.8080249886639L39.24128091812134,173.17525392333434L39.406160249710084,159.64048919858075L39.61225941419602,172.0739066959826L39.77713874578476,160.37599420613887L39.90079824447632,171.37272167713977L39.98323791027069,169.15546520624372L40.14811724185944,167.48079285614935L40.18933707475662,168.12149697709958L40.39543623924255,171.37410603828644L40.43665607213974,172.76703849843872L40.68397506952286,153.37274750170317L40.97251389980316,161.205999880532L41.63203122615814,154.38733214697112L41.714470891952516,161.59795116019754L41.7556907248497,172.27864975545245L41.79691055774689,159.50616952112483L41.92057005643845,160.10328147539528L42.00300972223282,151.60919998165025L42.58008738279342,140.3344003287443L42.621307215690614,143.74788831853755L42.70374688148498,140.47007121554503L42.78618654727936,145.02056856364402L42.86862621307373,136.4098487934588L43.033505544662475,135.79768828570946L43.11594521045685,165.5353480666068L43.28082454204559,147.644270255441L43.36326420783997,141.10890225747764L43.52814353942871,134.54762636936562L43.77546253681183,130.49202940458818L43.857902202606205,144.30097684536906L44.02278153419494,142.6972805212166L44.68229886054993,143.3257275369969L44.72351869344712,142.4289084445246L44.84717819213868,148.5164143192549L44.929617857933046,147.1901502767044L45.09449718952179,136.18450977057662L45.176936855316164,139.01505015734378L45.6715748500824,136.11890785221127L45.87767401456833,152.55429218467566L45.91889384746552,184.13383818954415L46.248652510643005,150.85642552798095L46.289872343540196,142.58427452541665L46.49597150802612,149.16202122621434L46.537191340923314,149.08451983004016L46.70207067251205,156.9979409140229L46.8669500041008,159.83304305396436L47.11426900148392,154.42869632290288L47.1554888343811,140.977717800345L47.36158799886704,163.81814320841954L47.444027664661405,159.43986839535265L47.732566494941715,170.67413872026017L47.81500616073608,174.93120405307215L48.10354499101639,168.59273661628663L48.43330365419388,152.1266752545388L48.47452348709107,139.36114125133045L48.804282150268556,131.92658364752356L49.13404081344604,132.07800960902264L49.21648047924042,126.66708516848934L49.8759978055954,116.87980185240848L50.32941596746444,149.3877983684125L50.411855633258824,173.50806902572424L50.49429529905319,176.61070552440634L50.53551513195038,163.3060359839646L50.61795479774475,139.7056565965626L50.659174630641935,128.35517489969405L50.74161429643631,132.89991041575564L50.782834129333494,130.36559796570418L50.82405396223068,127.29656076005506L51.03015312671661,117.17418328061949L51.27747212409973,119.54239633680378L52.10186878204346,132.27657215918921L52.43162744522095,133.7900281616262L52.555286943912506,140.71589105299614L52.59650677680969,139.3135967054521L52.678946442604065,145.57746864680814L52.76138610839844,155.79488095409351L52.84382577419281,168.50941157621986L53.09114477157593,157.14581137942335L53.750662097930906,135.56076698579713L53.7918819308281,122.0948406887726L53.874321596622465,130.60864307790072L53.997981095314024,127.47216129861287L54.32773975849152,118.45476184791465L54.3689595913887,112.09782346033603L54.73993808746338,125.6491089555461L54.90481741905212,117.65674825055628L55.234576082229616,105.927980058409L55.358235580921175,127.54789118731848L55.44067524671554,124.88823391324618L55.93531324148178,131.7796529018951L56.14141240596771,137.85261707636178L56.30629173755646,110.79559798536145L56.51239090204239,140.75653509963993L57.04824872970581,119.54540202753167L57.13068839550019,121.7922998638164L57.378007392883305,120.71373455001192L57.501666891574864,107.16721070843087L57.58410655736923,85.33320416478405L57.74898588895798,65.12837060867115L57.79020572185516,79.83208731638037L58.03752471923828,107.32759266882753L58.86192137718201,78.50210802543137L58.94436104297638,94.16053174352713L59.02680070877075,91.27522507651216L59.43899903774262,68.74520002946991L59.727537868022914,68.44998988277429L59.97485686540603,77.93289677047035L60.30461552858353,83.0083280137877L60.964132854938505,100.20625781174107L61.087792353630064,67.09369540124383L61.252671685218814,54.39060960059119L61.49999068260193,76.95118768815166L61.5824303483963,95.53820095482666L61.78852951288223,99.24289168892946L61.912189011573794,125.50591376234615L61.99462867736816,149.80594254536743L62.448046839237215,103.65526355331849L62.73658566951752,149.0991765518573L62.90146500110627,168.01692607421202L62.98390466690063,165.8626056394635L63.31366333007813,180.99166745227703L63.354883162975305,180.87982595776785L64.13805998802185,139.2175139993165L64.3029393196106,90.44334564242035L64.71513764858246,83.27481003849216L64.75635748147964,57.00633190447052L64.83879714727402,47.423001939164955L65.00367647886276,41.78576574985266L65.37465497493743,52.52198366674602L65.86929296970366,65.14427609131712L66.03417230129243,53.176887496588705L66.11661196708678,32.10669590246228L66.24027146577835,26.231194193182496L66.32271113157272,15.874484578795146L66.4051507973671,9.733998299926334L66.81734912633895,88.74699172485269L66.85856895923614,130.5771289314096L66.9822284579277,85.58252569388367L67.02344829082489,111.8436343401166L67.14710778951645,136.1287080431194L67.270767288208,129.17791120556188L67.35320695400237,153.00642273240354L67.55930611848831,105.13019707947379L67.84784494876861,69.8127702184474L68.05394411325454,67.6883416972013L68.09516394615173,47.83041487214182L68.58980194091797,49.81993213720314L69.00200026988983,44.19067382856126L69.0844399356842,33.738741748692995L69.1256597685814,40.75851554283695L69.4141985988617,46.72412099455296L69.62029776334762,28.24339259509576L69.78517709493637,23.80215511789069L69.82639692783356,88.30808921143247L70.3210349225998,66.5633038844477L70.65079358577728,54.29414087280276L70.81567291736603,46.79902124181003L71.02177208185196,34.98985551911528L71.10421174764633,34.724732614041315L71.26909107923508,44.04667228955437L71.88738857269287,40.28964057153048L71.96982823848724,50.7436772524946L72.17592740297317,50.60852732664824L72.21714723587036,58.108063142616466L72.29958690166474,110.12061860144227L72.42324640035629,150.76488049596156L72.58812573194503,148.87083110506015L72.83544472932815,164.05573867991512L73.00032406091691,105.44007004126613L73.20642322540283,108.36724969868234L73.45374222278595,129.48196152290177L73.5774017214775,112.18001580608627L73.78350088596345,117.7304129074472L73.907160384655,126.5289136057658L74.11325954914093,82.85764081911007L74.15447938203812,71.47520467065291L74.27813888072967,43.339459397651524L74.44301821231842,67.08389998472549L74.81399670839309,47.329280114166906L75.1025355386734,106.25686974480395L75.22619503736496,135.42935195449033L75.26741487026214,149.62532157589607L75.63839336633683,165.34807674441015L76.05059169530868,106.53063248152209L76.17425119400025,71.08513673476433L76.42157019138337,55.96494401119062L76.66888918876649,33.67999144909275L76.83376852035522,20.327371542903975L77.28718668222427,19.352863939550655L77.32840651512146,11.765465381882839L77.49328584671021,30.460709361959797L77.74060484409333,73.17538771521222L77.90548417568206,117.32768909639906L78.02914367437363,138.8491128069222L79.0184196639061,97.28983997033696L79.80159648895264,65.55908194381507L79.88403615474701,66.63054968397698L79.92525598764419,53.31583581048993L79.96647582054138,38.426045413501086L80.33745431661605,37.1337699395347L80.66721297979355,92.6662562492892L80.70843281269073,127.72278855873988L80.7908724784851,90.23354248551807L80.83209231138228,112.20703210437577L81.36795013904572,88.53533418364482L81.45038980484009,73.2654288358882L81.90380796670914,51.16399050696258L82.02746746540069,30.95114515568916L82.19234679698944,18.867535767224748L82.35722612857819,30.116372328757528L82.52210546016693,37.41189886072829L82.81064429044723,54.019719564984996L82.85186412334443,57.54681243430129L82.89308395624161,34.59164563663107L82.97552362203598,20.860738895693917L83.09918312072755,73.92256335223489L83.59382111549378,79.91390630154504L83.8411401128769,67.86123303242017L83.96479961156845,98.30278593550709L84.00601944446564,85.22037031688471L84.41821777343749,92.70072548465657L84.54187727212906,106.49922463420317L84.99529543399811,137.99834272244692L85.11895493268968,153.93877836542788L85.24261443138123,160.38154278153547L85.44871359586715,109.45110680918508L85.57237309455871,79.52492352876126L85.94335159063338,61.690778324649145L86.39676975250244,58.270080996429535L86.60286891698837,70.67638712886564L86.68530858278274,49.32756966849302L87.67458457231521,49.18521515973341L88.00434323549271,29.73595005824645L88.08678290128708,31.700301977155522L88.21044239997865,25.711626408539356L88.45776139736176,72.72462260407814L88.49898123025895,57.06352601621128L88.78752006053924,40.89243410734021L89.11727872371674,31.399730604349504L89.28215805530547,53.76724963044078L89.44703738689424,45.951525381628215L89.61191671848297,41.74506756469764L89.73557621717453,45.17904486458383L89.81801588296891,33.99218542276846L90.06533488035203,20.519689173448263L90.4363133764267,19.45133875441086L90.76607203960418,18.6304273195291L90.84851170539856,18.112518441067177L90.97217120409012,17.701588306795486L91.05461086988448,24.164932293061963L91.09583070278168,27.943608511132812L91.13705053567887,30.412951261709203L91.42558936595915,18.42531327607267L91.59046869754792,17.875423716364153L91.6316885304451,17.37442997654155L91.92022736072539,10.677214826702398L92.24998602390289,26.318992238560753L92.29120585680008,35.84416708662812L92.45608518838883,54.02446960605839L92.5385248541832,46.10376937027104L92.90950335025786,34.509302466913425L93.36292151212692,34.526628984993344L93.77511984109879,33.81662781957022L93.85755950689315,41.16186440214234L94.14609833717346,38.491118532194115L94.18731817007065,23.460750713271217L94.35219750165939,21.169992409079125L94.47585700035096,12.970525274319172L94.64073633193969,27.692538358210285L94.80561566352844,23.451514669355618L95.58879248857498,14.130738850525974L95.75367182016373,8.529017535353464L96.04221065044402,25.74120368962925L96.28952964782714,91.5408842379339L96.37196931362152,80.8066386590857L96.74294780969619,75.5527295857729L96.90782714128494,111.21947248017551L97.27880563735961,66.80255620624267L97.48490480184554,47.11695065991522L97.52612463474273,28.366035025322827L97.56734446763993,44.52855432426247L98.2268617939949,33.694701058139266L98.43296095848083,67.52922519031033L98.72149978876114,40.54669993352342L98.88637912034989,31.131067527747447L99.01003861904144,25.595154593812147L99.25735761642456,42.88893090774207L99.29857744932175,39.79941178485836L99.33979728221894,58.27868055104835L99.46345678091049,48.78686882094153L99.66955594539643,49.402012705173654L99.91687494277954,77.46680755565447L99.95809477567673,90.42918980595793L100.37029310464858,61.04941633263616L100.41151293754578,55.680729614081095L100.57639226913453,46.42709238280294L100.6176121020317,73.54437792919109L100.78249143362045,51.06058897917197L100.86493109941482,30.668352671222934L101.11225009679794,25.31637869362816L101.2359095954895,22.518354375572635L101.40078892707824,13.637199049605602L101.44200875997544,15.18520879877055L101.5244484257698,15.966268116089255L101.56566825866699,38.022392495894564L101.64810792446136,88.42967450868517L102.10152608633041,74.12372993491194L102.18396575212479,63.975069280636575L102.51372441530228,44.987897258817824L102.55494424819946,48.31009858951993L102.67860374689103,29.02699786159343L104.12129789829254,36.9184469508927L104.53349622726441,34.78083380961672L104.98691438913345,21.206178395296593L105.27545321941376,78.77910641020988L105.31667305231095,67.82178502795162L105.81131104707718,75.04065041047679L105.93497054576873,58.077595641815826L106.30594904184342,48.04065189633859L106.71814737081527,42.42667738166434L107.04790603399277,45.764749628143235L107.08912586688996,27.517485582667117L107.17156553268433,16.62888346074908L107.29522503137589,51.85423563706196L107.54254402875901,44.70495241484412L107.74864319324493,40.95511302468923L107.78986302614213,31.494946814357128L107.95474235773086,43.42981670608387L107.99596219062805,39.457386437344844L108.28450102090837,30.275981931977203L108.65547951698304,18.22544297603599L108.7791390156746,39.38509659867101L109.19133734464646,30.31818724071836L109.60353567361831,38.123344381526564L110.01573400259018,80.49480950195728L110.75769099473953,61.59547057850297L111.04622982501984,56.98696652773008L111.33476865530014,34.2236055677171L111.41720832109452,47.32029264641244L111.66452731847764,28.465154951102228L111.74696698427199,49.7036979953362L111.87062648296356,36.552869604784256L111.91184631586076,45.76612799997278L112.15916531324388,91.63535421192482L112.32404464483261,75.3870334548312L112.77746280670166,58.59168326054901L112.90112230539323,42.08384977551318L113.10722146987915,98.99881275239936L113.64307929754257,73.29510188398199L114.63235528707504,85.73399574775078L115.41553211212158,64.80396271101773L115.62163127660752,45.969862423902214L115.6628511095047,34.23610015741815L116.07504943847655,20.67097290760811L116.19870893716812,32.89082821848768L116.40480810165406,79.77651223881666L116.73456676483154,60.84764411573919L116.8582262635231,43.3722980661115L117.14676509380341,26.24482702603442L117.31164442539215,22.44774738971313L117.55896342277526,20.059731526961528L117.84750225305557,12.103934510161084L118.42457991361618,20.692363134035805L118.87799807548524,32.39202840675467L119.08409723997116,19.460394848717986L119.24897657155991,25.1527558179703L119.29019640445709,22.03913079865774L119.41385590314866,20.111386419804575L119.45507573604583,24.712906124116774L120.69167072296142,28.018373971577724L120.81533022165299,73.66036811176816L120.98020955324174,58.135956119077356L121.02142938613892,55.990752160331326L121.22752855062484,33.648718544759966L121.26874838352204,40.608696290906096L121.76338637828827,86.98106694841215L122.09314504146576,72.8400108407854L122.17558470726013,64.89215346148514L122.21680454015731,46.06661899163243L123.04120119810105,33.92756906396284L123.37095986127854,27.323457713402608L123.57705902576446,65.80970151028808L123.65949869155884,72.18284636150585L123.78315819025039,56.52119150376489L123.86559785604477,40.796172768697275L123.90681768894196,57.99733006129193L124.19535651922226,48.27929725368582L124.36023585081101,86.18879479657724L124.40145568370819,58.63358406611073L124.44267551660538,96.56179255489833L124.52511518239973,58.028969158392705L124.60755484819413,61.37945064598998L124.81365401268006,62.97732779345658L124.89609367847443,44.37104094874937L125.22585234165192,47.95454596443003L126.33878782987595,48.294752812627145L126.38000766277314,35.599665437426715L126.46244732856749,34.909350715452874L126.83342582464219,46.45786073858968L126.87464565753938,48.25283860755598L127.16318448781966,48.17402528823405L127.28684398651124,56.39750329443066L127.32806381940843,47.43187063067629L127.45172331809997,28.61009723622482L127.74026214838027,17.2337032014165L127.82270181417466,23.59891227358755L128.0288009786606,27.3871961614053L128.52343897342683,36.296553468498324L128.56465880632402,34.553122456476316L128.8944174695015,89.25148107102093L128.93563730239867,113.15786974905119L129.22417613267896,97.70510594793261L129.34783563137054,87.56050224771963L129.38905546426773,59.526750775320544L129.4302752971649,92.98304669461561L129.5539347958565,83.53310033806567L130.33711162090302,76.56266437602359L130.6668702840805,52.75521233748446L130.70809011697767,64.30025023435856L130.83174961566925,45.263605909988144L131.12028844594957,34.08752577963241L131.2439479446411,51.000997273523865L131.3263876104355,37.31257638473102L131.45004710912704,80.32557803011896L131.6149264407158,62.17193014599246L131.98590493679046,51.09474772929815L132.23322393417357,43.5285395108889L132.39810326576233,39.64030527245514L132.43932309865951,30.70002864979915L132.60420243024825,86.10128994807725L132.64542226314543,110.59755629743331L132.68664209604262,116.52864673367387L132.89274126052857,106.00905697717397L133.0988404250145,70.46640040779985L133.14006025791167,55.19327859433093L133.30493958950044,60.28120823101935L133.51103875398638,70.73236963571269L133.55225858688357,55.75691573652118L133.59347841978072,53.354057234036304L133.71713791847228,38.95166846312506L134.08811641454696,36.64915531419077L134.12933624744414,35.855201730767156L134.17055608034133,28.54202398961166L134.37665524482728,38.26320291864749L134.5827544093132,29.665472122419448L134.70641390800475,58.98755189895061L134.83007340669633,35.488364545344304L134.9125130724907,35.43900553188826L134.99495273828506,64.8293271397L135.11861223697662,39.09318217748404L135.40715106725693,37.54016482844016L135.90178906202317,35.73071142210829L135.98422872781754,42.13455739757784L136.52008655548096,103.5011183556584L136.56130638837814,136.99578808446225L137.0147245502472,95.46975262364558L137.42692287921906,84.41056516408653L137.50936254501343,63.51512139398124L137.5918022108078,51.19092631112733L137.83912120819093,31.012653500296324L138.12766003847122,25.57273307965551L138.1688798713684,43.38260207323714L138.37497903585435,69.35908463307797L138.5398583674431,48.61958015645722L138.58107820034027,35.869731802293536L138.74595753192904,83.77192837021605L139.28181535959246,96.4023698695995L139.3642550253868,138.28401906274524L139.40547485828398,155.82675999973935L139.7764533543587,150.86732250022592L139.85889302015303,146.41781669690522L139.9413326859474,94.73641361850086L140.27109134912493,63.38924155227347L140.6008500123024,44.88966864493542L140.72450951099395,69.42444489791797L140.76572934389117,48.382815306340966L140.8893888425827,42.63813227720552L140.97182850837706,46.34062491670073L141.01304834127427,41.342291261346915L141.13670783996582,31.06004868741228L141.38402683734893,46.99195498889039L141.5489061689377,35.100902409594966L141.59012600183488,41.50424365058264L142.16720366239548,25.053805393934244L142.29086316108703,72.35454742690263L142.41452265977858,50.168664455601665L142.7030614900589,49.94051967737908L142.82672098875045,56.22016303154722L142.90916065454482,33.771369906472685L143.15647965192795,40.76608770214151L143.36257881641387,31.12680598661218L143.609897813797,38.84644592921835L143.69233747959137,37.21169740519658L143.9808763098717,29.54581531147176L144.10453580856324,24.867734522015308L144.1869754743576,15.323926375049277L144.2281953072548,62.500297679731304L144.35185480594635,37.572221762238534L144.68161346912382,29.783277329309662L145.05259196519853,24.85747983842228L145.25869112968445,46.44629822981433L145.46479029417037,47.55057493661018L145.6708894586563,35.66401152936542L146.2067472863197,41.50388687445131L146.2891869521141,32.1613108870936L146.70138528108595,40.22214822090645L146.9899241113663,43.918609391118L147.11358361005782,91.80954744213318L147.31968277454376,67.97769300610179L147.69066127061842,47.57391203559748L147.73188110351563,35.163107898801826L147.97920010089877,67.30326891022604L148.22651909828187,105.02054613763747L148.35017859697342,77.09131421040293L148.5150579285622,53.040928220611185L148.55627776145934,67.29429254360461L148.59749759435653,47.30072814982818L148.6799372601509,35.082392692329854L148.84481659173966,49.21624569776255L148.96847609043124,29.961329967834374L149.00969592332842,18.36468188952982L149.17457525491713,11.265367629778794L149.21579508781434,28.400971119953184L149.25701492071153,76.62764392418667L149.46311408519745,118.08818618398548L149.54555375099181,137.38335774706226L149.95775207996368,82.60040726828672L150.246290910244,69.73882911970473L150.5348297405243,62.534692233581325L150.65848923921584,56.85402886047009L151.4004462313652,34.357577196098056L151.60654539585113,20.74936602493048L151.9775238919258,12.486996211141415L152.10118339061736,33.10216362510999L152.18362305641173,48.177929082302896L152.47216188669205,43.244449595634705L152.63704121828079,51.88855072513978L152.67826105117797,38.42794732749999L153.00801971435547,29.946524720848068L153.1728990459442,18.524259183180348L153.21411887884142,47.2571077851099L153.33777837753297,42.16938455751579L153.4202180433273,46.638762985485464L153.70875687360765,28.365877299957724L153.87363620519636,24.220148374663474L154.03851553678513,33.79103663763979L154.2033948683739,42.528190448906365L154.28583453416826,45.92827661077018L154.53315353155136,34.67388371046755L155.19267085790634,27.806849171047208L155.3163303565979,56.4652610206598L155.43998985528944,62.4864293553191L155.56364935398102,57.67635420991471L155.6048691868782,41.95275043453487L155.81096835136412,45.77763981026123L156.38804601192473,41.16204594581009L156.5117055106163,38.662382560095246L156.5529253435135,50.15013845667693L156.88268400669097,50.591199375012096L157.2124426698685,44.75807154425566L157.7483004975319,33.42160924633953L158.0368393278122,92.3747803032061L158.2841583251953,81.56109563269952L158.49025748968126,55.88015677964815L158.9436756515503,66.5276780561233L159.27343431472778,46.96890215866689L159.31465414762496,34.9395492576868L159.5207533121109,44.72601934148672L159.60319297790528,39.449684877157516L159.68563264369965,43.78558801257401L159.8092921423912,33.04720866122837L159.89173180818557,33.14460655229893L160.09783097267152,39.205424596225726L160.13905080556867,50.97719916968719L160.4688094687462,37.46860089754068L160.51002930164339,35.68302233115699L160.6336888003349,28.09541862531918L160.92222763061523,49.201699197390575L161.0458871293068,49.0638001375375L161.087106962204,42.72500972306026L161.12832679510115,25.905647926999023L161.49930529117586,29.237850836512973L161.66418462276457,30.252711194245087L161.82906395435333,39.612857732467276L162.11760278463362,30.659404478698043L162.1588226175308,25.280431506225295L162.36492178201675,21.84454787765713L162.98321927547457,20.439548986660593L163.02443910837175,65.84731667315768L163.1893184399605,46.30884127965405L163.27175810575486,92.28678940183751L163.56029693603514,90.6296641337324L163.7251762676239,67.57303997775786L164.09615476369856,47.62841349492757L164.13737459659575,35.66685510540596L164.17859442949296,41.66239542827867L164.21981426239014,53.472064899891016L164.26103409528733,52.37539444192451L164.4259134268761,80.27894492443927L164.50835309267043,48.42701347973607L164.5907927584648,78.56127166047524L164.71445225715638,60.119935785576935L164.83811175584793,84.48517384816716L164.87933158874512,57.596567949921216L165.00299108743667,41.61702000794181L165.45640924930572,31.83423962480412L165.70372824668885,77.89091716823827L165.95104724407196,59.41258653740719L166.32202574014664,48.35123962228849L166.36324557304383,35.65853998049201L166.56934473752975,34.59066116076791L166.69300423622133,27.71487581212263L166.94032323360443,23.645021394056528L167.10520256519317,27.025823990388744L167.27008189678193,29.78349646270637L167.5998405599594,31.93900155728393L167.72350005865098,26.082468945479132L167.9708190560341,65.40470588439364L168.01203888893127,39.497209626601816L168.34179755210877,37.22510942692996L168.46545705080032,29.389064434328557L168.5066768836975,24.542995240311114L168.63033638238906,63.70225369797819L169.00131487846375,67.38834097237216L169.53717270612717,47.25651684452214L169.57839253902435,34.88077857971799L169.61961237192153,42.25901980052618L169.66083220481875,46.830670845612225L169.7844917035103,56.18227078176781L170.23790986537935,46.57840721763932L171.22718585491182,34.7270633042349L171.35084535360335,27.57946328115708L171.43328501939774,29.621925288288434L171.5157246851921,30.944711113338514L171.63938418388366,54.15235058465541L171.72182384967803,39.450381607243L171.8042635154724,30.604640512267927L171.92792301416398,31.31784555120916L171.96914284706116,62.37685332485169L172.7110998392105,94.35845733112565L173.12329816818237,63.713398673013145L173.4118369984627,45.331171518343346L173.57671633005143,34.43079352463614L173.6179361629486,34.75208692517276L173.82403532743453,34.14430309361081L173.8652551603317,33.896740840263185L173.9889146590233,34.16080792039524L174.44233282089235,41.16815400791585L174.48355265378953,45.266392757599796L174.97819064855577,41.367115212827834L175.01941048145295,32.01582229023374L175.10185014724732,26.10185471111225L175.1430699801445,22.354165573840415L175.26672947883606,13.56136265158401L175.30794931173324,14.859405442195143L175.34916914463042,15.786694826615783L175.6377079749107,16.44030066765797L175.7201476407051,34.60789841552134L175.80258730649948,89.68897616029896L176.2972253012657,118.91900402783995L176.4208847999573,78.31373489938974L176.46210463285448,103.07802561059808L176.50332446575166,81.82433451179317L176.54454429864884,68.58163829181908L176.70942363023758,68.6068425885447L176.83308312892913,54.38384239173197L177.45138062238695,45.946819343935935L177.5338202881813,92.04512491834399L177.78113928556442,61.94323685528107L177.8635789513588,86.35907857559747L178.02845828294753,58.81618622656608L178.1933376145363,35.364918971821695L178.23455744743347,34.474751430097704L178.85285494089126,20.728378600255244L179.22383343696595,19.4833633059409L179.30627310276031,52.900558574159696L179.3887127685547,53.0572203054839L179.51237226724623,38.58073141965314L179.5948119330406,48.970858832541325L179.71847143173218,43.10097854508859L180.08944992780684,32.696216247444525L180.21310942649842,74.91472681221626L180.33676892518997,58.100670674353566L181.24360524892808,41.74175773973928L181.449704413414,32.158200040538944L181.69702341079713,88.86045950021264L181.82068290948868,110.16270254569218L181.98556224107742,72.93411857007419L182.23288123846055,50.30168441834422L182.3565407371521,30.22443717670011L182.43898040294647,36.83857155242044L182.52142006874084,35.11587324960161L182.64507956743242,56.064126520406866L182.7275192332268,46.88137423245121L182.8511787319183,48.355825241420845L183.5519158911705,35.76964044231396L183.59313572406768,46.22703838021589L183.71679522275926,34.518749425058964L184.04655388593673,20.759476921191684L184.08777371883392,31.04383533232023L184.4587522149086,31.6616813818068L184.49997204780578,73.43138916354896L184.70607121229173,51.138536064180215L184.74729104518892,73.19600409265605L184.78851087808607,64.14599017207651L184.91217037677765,38.55395988714265L185.15948937416078,29.86846724208182L185.3655885386467,30.79833007380928L185.48924803733826,18.53347059383768L185.81900670051573,73.09408432602635L185.9838860321045,57.05354670597953L186.06632569789886,55.442365886315685L186.43730419397355,40.53456087494451L186.6434033584595,31.457677941649067L186.8907223558426,38.476347959949514L186.93194218873978,35.91511514291078L187.13804135322573,21.64240363995335L187.42658018350602,32.92571625173723L187.7151190137863,94.91032883026331L187.96243801116944,64.04279071124644L188.086097509861,104.45890814477954L188.16853717565536,86.12943173908548L188.20975700855254,118.55971243363089L188.49829583883286,129.64659865687162L188.82805450201033,84.5457124317853L188.86927433490754,57.596896827145386L188.9517140007019,41.49334115609541L189.11659333229065,77.23866412480521L189.28147266387938,46.492697877824725L189.48757182836533,34.76190169880798L189.98220982313157,27.310761836197425L190.22952882051467,45.47312525564218L190.4768478178978,34.012711214408505L190.60050731658936,27.348457163882493L190.84782631397246,29.800804261188173L191.3424643087387,31.145300689823436L191.50734364032746,31.390536725236085L191.79588247060775,44.60385772645435L191.91954196929933,40.140832247122134L192.37296013116838,30.931513615500098L192.78515846014022,44.27180881810419L192.8263782930374,33.463762485923944L192.950037791729,26.838056368015614L193.1973567891121,23.1675657659302L193.40345595359804,27.62189134975962L194.0217534470558,30.718526942438395L194.06297327995298,25.303225429161415L194.3927319431305,29.067919958904334L194.59883110761643,30.429291763383354L194.84615010499957,37.61790097500256L194.9285897707939,45.72966908355137L194.9698096036911,34.08649838614843L195.21712860107422,27.350197953627994L195.6293269300461,22.96102038651525L195.75298642873764,20.57625496955626L195.835426094532,19.24961449638717L195.8766459274292,18.12094522550407L195.91786576032638,10.922083262132803L196.08274509191511,13.351364072024047L196.49494342088698,21.56859397878818L196.53616325378417,19.62139503042278L196.61860291957856,18.545831220097725L197.0308012485504,17.43630983319093L197.0720210814476,35.05232269428052L197.77275824069977,41.64114222465669L198.06129707098006,31.840849329925135L198.22617640256883,83.10189833464972L198.5971548986435,62.89774424095049L198.8032540631294,57.416421052354714L199.00935322761535,47.52583413444679L199.25667222499848,48.62032928816259L199.62765072107317,70.97687538990078L199.79253005266187,42.633542352798365L199.95740938425064,53.516711014747465L200.08106888294222,38.969845013527014L200.32838788032532,42.67423432998302L200.53448704481124,32.56103391560215L200.78180604219435,26.530141971712737L200.9879052066803,22.680756923721738L201.11156470537188,20.04718076059712L201.15278453826906,12.088007239814281L201.44132336854935,14.239978090746652L201.77108203172682,34.6646598093139L202.10084069490435,33.98643704179576L202.26572002649306,27.118194185013046L202.38937952518464,22.66748202831393L202.5130390238762,13.627376577409683L202.55425885677337,21.980836751826505L202.88401751995087,26.09346798443029L202.96645718574524,22.31029048653281L203.4198753476143,39.58433567904789L203.74963401079177,49.32572251081934L203.9969530081749,97.09634454257228L204.20305217266082,125.96588291667614L204.36793150424958,138.9304800152878L204.69769016742706,144.199336642247L205.64574632406234,99.56014900453432L205.89306532144548,66.58709860402082L206.0579446530342,46.64597468658983L206.676242146492,105.50416267213978L206.92356114387513,63.53617941874898L207.04722064256666,51.146763296145004L207.12966030836105,37.41644678881445L207.41819913864137,77.25699485939867L207.5418586373329,65.83830931164921L207.70673796892166,95.90314258300562L207.87161730051042,57.61021725290442L207.9128371334076,41.19489165313151L207.95405696630476,31.435226004988767L208.03649663209913,25.643424463302097L208.28381562948226,22.09842596289814L208.57235445976258,26.563001639983064L208.65479412555695,77.72758749061923L208.73723379135131,46.68663988548413L208.90211312294008,28.061081559447924L209.0257726216316,17.07464357731054L209.06699245452882,31.817154401024204L209.14943212032318,78.39146611174502L209.47919078350066,60.72100803249724L209.80894944667818,36.56164182595773L209.89138911247252,55.73359248400824L210.46846677303313,46.954033261838084L210.5921262717247,47.17616187920132L210.71578577041626,34.94466585921367L211.12798409938813,21.01890358009133L211.29286343097687,12.643981858612477L211.41652292966842,21.98320960789751L212.0348204231262,20.089266193398448L212.24091958761215,18.308126090725843L212.28213942050934,17.862341950311347L212.44701875209807,10.788230676882653L212.61189808368684,6.6406407396731035L212.65311791658402,29.088766103535594L212.6943377494812,24.53670965905354L212.77677741527557,35.45876347419767L212.9828765797615,21.450329880110836L213.02409641265868,26.20427376648142L213.0653162455559,42.38872262242012L213.43629474163055,32.14089523806471L213.76605340480802,26.227938953521402L213.93093273639678,36.74062676112721L214.01337240219115,28.887928601404592L214.26069139957426,24.24936841207849L214.59045006275178,27.90278868390436L214.63166989564897,23.51361926108468L214.87898889303207,20.946644056834376L215.00264839172362,25.388768060224745L215.33240705490113,76.21378831506223L215.3736268877983,65.61124757619446L215.57972605228426,52.69731532041846L215.70338555097578,51.050690366355084L215.74460538387297,30.71637593787149L215.86826488256455,18.599670605318924L215.9919243812561,18.012961437017363L216.11558387994768,17.426407974224354L216.61022187471391,23.443563160974815L216.77510120630262,21.088709583195374L217.06364003658297,76.99346454596869L217.31095903396607,100.12179847495187L217.43461853265762,79.86298914971773L217.4758383655548,54.56305777251655L217.517058198452,46.81343255702278L217.64071769714354,68.56272496300923L217.68193753004073,55.135985297867194L217.97047636032104,33.21469714181015L218.05291602611544,38.22509309633035L218.13535569190978,66.10650277867504L218.3826746892929,47.43983320420417L218.58877385377883,35.523199255632065L218.62999368667602,28.389265897140056L218.75365318536757,38.527045701745855L218.87731268405915,88.7395294091939L218.95975234985352,72.62347173251914L219.0421920156479,57.689706684139956L219.37195067882539,41.582988993201944L219.70170934200286,105.84101914170851L219.78414900779725,124.9538003774551L219.86658867359162,81.40398123048226L219.9078085064888,55.815103481554054L219.949028339386,40.104747248522585L220.23756716966628,31.198675170883945L220.2787870025635,31.349954940546375L221.02074399471283,32.13174257859187L221.14440349340438,32.657481764737454L221.59782165527344,40.75416982657732L221.84514065265657,24.504098878741544L222.38099848032,42.75668701802541L222.6283174777031,32.35773043530721L222.66953731060028,77.24285213137455L222.9168563079834,52.7947092676599L222.99929597377775,38.62042213469644L223.1641753053665,29.624805598211704L223.61759346723557,77.8023541166524L223.70003313302993,68.36929162713714L223.78247279882433,116.32121525110458L223.94735213041304,82.66631616419929L224.02979179620743,70.66452890621275L224.23589096069335,49.535318235884006L224.4007702922821,36.76616831140463L224.60686945676804,22.130689326293542L225.80224461078646,19.84909760870663L225.8846842765808,77.50260170803278L226.2556627726555,46.58861329084088L226.2968826055527,62.19146391179036L226.33810243844985,58.5100035652284L226.66786110162735,42.03360859509858" fill="none"></path></g></g></g></g><g opacity="0.2"><g><g><g><path style="fill: none;" stroke="rgb(255, 112, 67)" stroke-width="2px" d="M20.774795780181886,115.15009600882509L21.186994109153748,145.3252200798728L21.22821394205093,133.28328448854L21.35187344074249,141.91572241595102L21.39309327363968,160.72466935931544L21.681632103919984,236.37320608020025L21.722851936817168,146.2044377950742L22.25870976448059,179.80256423441656L22.547248594760894,117.39614594951952L22.588468427658082,222.94185567346668L22.629688260555266,213.11604539192084L22.8357874250412,128.3114686047676L23.165546088218687,132.54832459022256L23.206765921115878,162.54679118155806L23.330425419807437,172.3011411454996L23.37164525270462,171.05558548412301L23.49530475139618,186.97258221024111L23.536524584293364,119.27827483762584L23.783843581676482,155.45894758769276L23.989942746162416,123.27996126322883L24.27848157644272,221.78985289650376L24.69067990541458,133.45853834276696L24.855559237003327,133.33679667198084L25.020438568592073,196.08290893526194L25.597516229152678,132.52381512982618L25.762395560741425,145.70511256327833L25.803615393638612,141.92957595032624L25.886055059432984,157.58327246855353L25.968494725227355,198.38905730205875L26.215813722610473,221.83053311914745L26.545572385787963,151.97918559474584L26.628012051582335,233.59389473177654L26.669231884479522,143.1317271928511L26.79289138317108,154.4742171022862L27.081430213451384,206.85022800384L27.205089712142943,119.21834252104836L27.287529377937318,139.66344336807353L27.36996904373169,143.40849888320977L27.658507874011995,122.01384124267182L27.69972770690918,137.53055554120505L27.90582687139511,152.936275455212L28.194365701675416,141.82816608538565L28.2355855345726,133.53862805018892L28.482904531955718,152.85984846281372L28.524124364852906,163.30498149693028L28.977542526721955,146.16972090437383L29.059982192516326,182.1926809660413L29.389740855693816,143.15539780014677L29.47218052148819,146.7246762160527L29.84315901756287,138.52982891551505L30.049258182048796,162.9823801886566L30.66755567550659,139.85033319451847L30.708775508403775,106.02965321373894L31.2446333360672,197.67754376317842L31.285853168964387,124.1924839381691L31.327073001861574,121.18904931329809L31.780491163730623,159.10636392410325L31.904150662422182,126.61366315094682L32.069029994010926,154.36318949585495L32.23390932559967,138.2877076720468L32.35756882429123,161.61131217027906L32.48122832298279,127.64438105831701L32.563667988777155,140.53061814272095L32.769767153263096,158.1118994205386L32.852206819057464,138.8021488706069L32.893426651954655,198.69376861450263L33.30562498092651,156.10326982375824L33.47050431251526,155.32160823252016L33.635383644104,134.8727450047564L33.71782330989838,144.9300289092256L33.75904314279556,143.72714678479124L33.88270264148712,154.97423999408653L34.50100013494492,117.76741734858369L34.83075879812241,144.21726954890863L34.87197863101959,88.4135387685535L35.366616625785824,122.41945578600539L35.61393562316894,173.85348448838107L35.65515545606613,141.6392829446421L35.69637528896332,143.33813488846968L36.19101328372955,123.88092891330008L36.52077194690705,134.49591724208494L36.68565127849579,138.49388281433053L36.768090944290165,177.46988817649608L36.97419010877609,141.2198730052671L37.18028927326203,165.51005221783632L37.262728939056394,167.86246208731282L37.71614710092545,143.83050013117295L37.963466098308565,186.68679077268132L38.622983424663545,180.01433726768886L38.70542309045791,176.05523301878944L38.91152225494385,138.15459580428245L38.99396192073822,185.6508154988486L39.24128091812134,175.22609732534002L39.406160249710084,139.33834211145034L39.61225941419602,190.72403294208533L39.77713874578476,142.8291254713732L39.90079824447632,187.86781288364114L39.98323791027069,165.8295804998997L40.14811724185944,164.96878433100773L40.18933707475662,169.08255315852495L40.39543623924255,176.25301963006666L40.43665607213974,174.8564371886672L40.68397506952286,124.28131100659984L40.97251389980316,172.9558784487752L41.63203122615814,144.15933054662972L41.714470891952516,172.41387968003713L41.7556907248497,188.2996976483348L41.79691055774689,140.34744916963336L41.92057005643845,160.9989494068009L42.00300972223282,138.86807774103264L42.58008738279342,123.42220084938542L42.621307215690614,148.8681203032274L42.70374688148498,135.55334556105618L42.78618654727936,151.84631458579258L42.86862621307373,123.49376913818091L43.033505544662475,134.8794475240854L43.11594521045685,210.14183773795287L43.28082454204559,120.80765353869235L43.36326420783997,131.30585026053254L43.52814353942871,124.70571253719757L43.77546253681183,124.40863395742204L43.857902202606205,165.01439800654038L44.02278153419494,140.29173603498788L44.68229886054993,144.26839806066735L44.72351869344712,141.0836798058162L44.84717819213868,157.64767313135036L44.929617857933046,145.20075421287856L45.09449718952179,119.67604901138496L45.176936855316164,143.26086073749448L45.6715748500824,131.7746943945125L45.87767401456833,177.20736868337227L45.91889384746552,231.50315719684696L46.248652510643005,100.94030653563615L46.289872343540196,130.17604802157013L46.49597150802612,159.02864127741088L46.537191340923314,148.96826773577888L46.70207067251205,168.86807253999706L46.8669500041008,164.08569626387657L47.11426900148392,146.3221762263107L47.1554888343811,120.80125001650815L47.36158799886704,198.0787813205313L47.444027664661405,152.8724561757523L47.732566494941715,187.5255442076214L47.81500616073608,181.31680205229006L48.10354499101639,159.0850354611084L48.43330365419388,127.42758321191704L48.47452348709107,120.21284024651797L48.804282150268556,120.77474724181317L49.13404081344604,132.30514855127126L49.21648047924042,118.55069850768939L49.8759978055954,102.19887687828724L50.32941596746444,198.14979314241845L50.49429529905319,181.26466027242955L50.53551513195038,143.34903167330194L50.61795479774475,104.30508751545962L50.659174630641935,111.3294523543912L50.74161429643631,139.71701368984802L50.782834129333494,126.56412929062697L50.82405396223068,122.69300495158139L51.03015312671661,101.9906170614662L51.27747212409973,123.09471592108021L52.10186878204346,151.37783589276734L52.43162744522095,136.06021216528168L52.555286943912506,151.1046853900511L52.59650677680969,137.21015518413606L52.678946442604065,154.9732765588422L52.76138610839844,171.12099941502163L52.84382577419281,187.5812075094094L53.09114477157593,140.10041108422857L53.750662097930906,103.18320039535783L53.7918819308281,101.89595124323583L53.874321596622465,143.37934666159293L53.997981095314024,122.76743862968108L54.32773975849152,104.92866267186733L54.3689595913887,102.56241587896812L54.73993808746338,145.97603719836118L54.90481741905212,105.66820719307155L55.234576082229616,88.33482777018807L55.358235580921175,159.9777578806827L55.44067524671554,120.89874800213772L55.93531324148178,142.11678138486843L56.14141240596771,146.96206333806182L56.30629173755646,70.21006934886091L56.51239090204239,185.6979407710577L57.04824872970581,87.72870241936923L57.13068839550019,125.16264661824349L57.378007392883305,119.0958865793052L57.501666891574864,86.84742494605929L57.58410655736923,52.58219434931381L57.74898588895798,34.82112027450184L57.79020572185516,101.88766237794422L58.03752471923828,148.57085069749826L58.86192137718201,35.26388106033717L58.94436104297638,117.64816732067077L59.02680070877075,86.94726507598973L59.43899903774262,34.95016245890655L59.727537868022914,68.00717466273086L59.97485686540603,92.15725710201446L60.30461552858353,90.62147487876372L60.964132854938505,126.0031525086711L61.087792353630064,17.424851785497975L61.252671685218814,35.33598089961228L61.49999068260193,110.79205481949235L61.5824303483963,123.41872085483917L61.78852951288223,104.79992779008364L61.912189011573794,164.9004468724712L61.99462867736816,186.25598571989934L62.448046839237215,34.42924506524508L62.73658566951752,217.2650460496656L62.90146500110627,196.3935503577441L62.98390466690063,162.63112498734074L63.31366333007813,203.68526017149733L63.354883162975305,180.712063716004L64.13805998802185,76.72404606163948L64.3029393196106,17.28209310707609L64.71513764858246,72.52200663259987L64.75635748147964,17.603614703438055L64.83879714727402,33.048006991206634L65.00367647886276,33.32991146588419L65.37465497493743,68.62631054208609L65.86929296970366,84.07771472817376L66.03417230129243,35.22580460449604L66.11661196708678,0.5014085112726588L66.24027146577835,17.41794162926286L66.32271113157272,0.33942015721414887L66.4051507973671,0.5232688816230888L66.81734912633895,207.26648186224227L66.85856895923614,193.32233474124493L66.9822284579277,18.090620837594823L67.02344829082489,151.23529730946598L67.14710778951645,172.55631859762363L67.270767288208,118.75171594922557L67.35320695400237,188.749190022666L67.55930611848831,33.315858600079146L67.84784494876861,16.836629926907825L68.05394411325454,64.50169891533218L68.09516394615173,18.043524634552593L68.58980194091797,52.80420803479509L69.00200026988983,35.746786365598396L69.0844399356842,18.06084362889063L69.1256597685814,51.28817623405288L69.4141985988617,55.67252917212695L69.62029776334762,0.5222999959099881L69.78517709493637,17.140298902083067L69.82639692783356,185.06699035174518L70.3210349225998,33.94612589397056L70.65079358577728,35.89039635533529L70.81567291736603,35.556341795320975L71.02177208185196,17.27610693507315L71.10421174764633,34.32704825643037L71.26909107923508,58.029581802823905L71.88738857269287,34.65409299449467L71.96982823848724,66.42473227394072L72.17592740297317,50.40580243787871L72.21714723587036,69.35736686656884L72.29958690166474,188.13945178968098L72.42324640035629,211.73127333774053L72.58812573194503,146.0297570187081L72.83544472932815,186.83310004219754L73.00032406091691,17.516567083292593L73.20642322540283,112.7580191848067L73.45374222278595,161.1540292592309L73.5774017214775,86.22709723086302L73.78350088596345,126.0560085594886L73.907160384655,139.7266646532437L74.11325954914093,17.350731639126465L74.15447938203812,54.401550447967146L74.27813888072967,1.1358414881494736L74.44301821231842,102.70056086533641L74.81399670839309,17.69735030832907L75.1025355386734,194.64825419075947L75.22619503736496,179.18807526901992L75.26741487026214,170.91927600800472L75.63839336633683,188.9322094971812L76.05059169530868,18.304466087190015L76.17425119400025,17.916893114627726L76.42157019138337,33.28465492583003L76.66888918876649,0.25256260594595126L76.83376852035522,0.29844168362083173L77.28718668222427,17.891102534520705L77.32840651512146,0.384367545381071L77.49328584671021,58.50357533207521L77.74060484409333,137.24740524509087L77.90548417568206,183.5561411681793L78.02914367437363,171.13124837270686L79.0184196639061,34.95093071545913L79.80159648895264,17.962944904032245L79.88403615474701,68.23775129421982L79.92525598764419,33.34376500025936L79.96647582054138,16.091359818017835L80.33745431661605,35.19535672858514L80.66721297979355,175.96498571392095L80.70843281269073,180.30758702291587L80.7908724784851,33.9996733756854L80.83209231138228,145.16726653266232L81.36795013904572,53.02778730254839L81.45038980484009,50.3605708142533L81.90380796670914,18.01183301357414L82.02746746540069,0.6318771287790291L82.19234679698944,0.7421216845281565L82.35722612857819,46.989627171056696L82.52210546016693,48.3551886586844L82.81064429044723,78.9314506213701L82.85186412334443,62.837451738275696L82.89308395624161,0.15889544012577358L82.97552362203598,0.2643787842881602L83.09918312072755,153.51530003704633L83.59382111549378,88.90092072551033L83.8411401128769,49.78222312873287L83.96479961156845,143.96511529013748L84.00601944446564,65.59674688895113L84.41821777343749,103.92125823631434L84.54187727212906,127.1969733585231L84.99529543399811,185.2470198548125L85.11895493268968,177.84943182989937L85.24261443138123,170.04568940569683L85.44871359586715,33.05545285065948L85.57237309455871,34.63564860812557L85.94335159063338,34.939560518480945L86.39676975250244,53.139035004100116L86.60286891698837,89.28584632751979L86.68530858278274,17.30434347793406L87.67458457231521,48.97168339659402L88.00434323549271,0.562052406016003L88.08678290128708,34.64682985551919L88.21044239997865,16.72861305561506L88.45776139736176,143.24411689738636L88.49898123025895,33.57188113441099L88.78752006053924,16.63579624403356L89.11727872371674,17.160675349863464L89.28215805530547,87.31852816957765L89.44703738689424,34.22793900840942L89.61191671848297,35.43538083930177L89.73557621717453,50.33001081441309L89.81801588296891,17.211896260045414L90.06533488035203,0.3109447994679382L90.4363133764267,17.848813125854754L90.76607203960418,17.39906016720642L90.84851170539856,17.335655123374348L90.97217120409012,17.085193105387933L91.05461086988448,33.85994827246167L91.09583070278168,33.611622838239064L91.13705053567887,34.11696538757377L91.42558936595915,0.4438562976179001L91.59046869754792,17.050589376801383L91.6316885304451,16.622939366807667L91.92022736072539,0.6313921019436798L92.24998602390289,49.78165835634828L92.29120585680008,50.13192935872922L92.45608518838883,81.29492338520376L92.5385248541832,34.222719016590005L92.90950335025786,17.117602111876973L93.36292151212692,34.552618762113205L93.77511984109879,32.75162607143559L93.85755950689315,52.17971927600053L94.14609833717346,34.484999727271784L94.18731817007065,0.9151989848868695L94.35219750165939,17.733854952790992L94.47585700035096,0.6713245721792359L94.64073633193969,49.775557984046976L94.80561566352844,17.089979136073598L95.58879248857498,0.14957512228145953L95.75367182016373,0.126435562594729L96.04221065044402,51.559482921042935L96.28952964782714,190.24040506039086L96.37196931362152,64.70527029081342L96.74294780969619,67.67186597580367L96.90782714128494,164.71958682177947L97.27880563735961,0.1771817953433875L97.48490480184554,17.588542340424045L97.52612463474273,0.23966157343425157L97.56734446763993,68.7723332726719L98.2268617939949,17.44392115895443L98.43296095848083,118.28101138856692L98.72149978876114,0.0729120483430817L98.88637912034989,17.00761891908343L99.01003861904144,17.291285192909257L99.25735761642456,68.82959537863692L99.29857744932175,35.16513310053282L99.33979728221894,85.99758370033332L99.46345678091049,34.54915122578128L99.66955594539643,50.324728531521856L99.91687494277954,119.56399983137568L99.95809477567673,109.87276318141315L100.37029310464858,16.9797561226535L100.41151293754578,47.627699536248514L100.57639226913453,32.54663653588568L100.6176121020317,114.22030624877328L100.78249143362045,17.334905554143326L100.86493109941482,0.07999820929937952L101.11225009679794,17.288417727235977L101.2359095954895,18.321317898489315L101.40078892707824,0.3154660606550762L101.44200875997544,17.507223422517967L101.5244484257698,17.137857092067303L101.56566825866699,71.10657906560255L101.64810792446136,164.04059752787106L102.10152608633041,52.6648130742521L102.18396575212479,48.752078299223534L102.51372441530228,16.50713922608966L102.55494424819946,53.29340058557313L102.67860374689103,0.10234676970363857L104.12129789829254,48.755620584841644L104.53349622726441,31.57441409770273L104.98691438913345,0.8441952738163806L105.27545321941376,165.13849843257984L105.31667305231095,51.38580295456425L105.81131104707718,85.86894848426455L105.93497054576873,32.63301348882442L106.30594904184342,32.985236278122706L106.71814737081527,34.00571560965298L107.04790603399277,50.77185799786159L107.08912586688996,0.1465895144529384L107.17156553268433,0.29598027787205566L107.29522503137589,104.69226390153125L107.54254402875901,33.98102758151737L107.74864319324493,35.3303539394569L107.78986302614213,17.30469749885896L107.95474235773086,61.332121543674006L107.99596219062805,33.49874103423632L108.28450102090837,16.50387517392571L108.65547951698304,0.14963454212419947L108.7791390156746,71.12457703262353L109.19133734464646,16.71782320378944L109.60353567361831,49.831080092738844L110.01573400259018,144.05200718260335L110.75769099473953,33.2464621933215L111.04622982501984,50.07421045157078L111.33476865530014,0.07856412769762192L111.41720832109452,66.96532326445544L111.66452731847764,0.18244840813686863L111.74696698427199,81.56151256168717L111.87062648296356,16.82662701895632L111.91184631586076,59.5860155927556L112.15916531324388,160.4391935298529L112.32404464483261,51.0145523191907L112.77746280670166,33.398657969125736L112.90112230539323,17.322099547959436L113.10722146987915,184.37125721772864L113.64307929754257,34.73953558135594L114.63235528707504,104.39233654340399L115.41553211212158,33.40891315591814L115.62163127660752,17.71871199322892L115.6628511095047,16.635456757692083L116.07504943847655,0.323282032893041L116.19870893716812,51.220611184807055L116.40480810165406,150.1050382693101L116.73456676483154,32.454341931123004L116.8582262635231,17.159278991669918L117.14676509380341,0.5536204659187738L117.31164442539215,16.752127935231197L117.55896342277526,16.477707732834116L117.84750225305557,0.17023898496047776L118.42457991361618,33.57500606984784L118.87799807548524,49.94152631583301L119.08409723997116,0.062944511662984L119.24897657155991,33.6912972718488L119.29019640445709,17.368693269688897L119.41385590314866,17.219769851524838L119.45507573604583,31.61518568058507L120.69167072296142,32.97657574276917L120.81533022165299,142.12335932205377L120.98020955324174,34.849338130041176L121.02142938613892,52.772946222212276L121.22752855062484,0.13566812140295473L121.26874838352204,51.048662910125266L121.76338637828827,156.53962293467126L122.09314504146576,51.628426679345296L122.17558470726013,52.97036739253475L122.21680454015731,17.828317286853355L123.04120119810105,15.718994172458492L123.37095986127854,17.417290687562232L123.57705902576446,123.53906720561628L123.65949869155884,81.74256363833251L123.78315819025039,33.02870921715345L123.86559785604477,17.208644666095843L123.90681768894196,83.79906600018391L124.19535651922226,33.70224804227665L124.36023585081101,143.0530411109144L124.40145568370819,17.30076797041098L124.44267551660538,153.45410528807975L124.52511518239973,0.22973406363428578L124.60755484819413,66.40517287738585L124.81365401268006,65.3741435146565L124.89609367847443,16.461610681688494L125.22585234165192,53.32980348795107L126.33878782987595,48.805063084922814L126.38000766277314,16.557034374626127L126.46244732856749,33.873878632492115L126.83342582464219,63.780625773294865L126.87464565753938,50.94530541100544L127.16318448781966,48.05580530925112L127.28684398651124,68.73272030372563L127.32806381940843,33.98342163504473L127.45172331809997,0.37743714454761457L127.74026214838027,0.1691121492040346L127.82270181417466,33.146725881844105L128.0288009786606,33.06962199313193L128.52343897342683,49.66058942913789L128.56465880632402,31.937975938443305L128.8944174695015,171.2990189928379L128.93563730239867,149.0174527660965L129.22417613267896,74.52596024625478L129.34783563137054,72.34359669740017L129.38905546426773,17.476123566721906L129.4302752971649,143.1674905735582L129.5539347958565,69.35818080324074L130.33711162090302,66.10701043296046L130.6668702840805,17.044034279675724L130.70809011697767,81.61780707966975L130.83174961566925,16.708639423432505L131.12028844594957,17.323405584098822L131.2439479446411,76.371204514361L131.3263876104355,16.77994505154178L131.45004710912704,144.84508049820084L131.6149264407158,34.94145831980272L131.98590493679046,34.478974104256686L132.23322393417357,32.17922718327501L132.39810326576233,33.8079539148045L132.43932309865951,17.289613715815143L132.60420243024825,169.2031818954944L132.64542226314543,147.3419558214674L132.68664209604262,125.4252823880347L132.89274126052857,90.22967234242412L133.0988404250145,17.152415553738685L133.14006025791167,32.28359587412755L133.30493958950044,67.91310268605196L133.51103875398638,86.40911174275267L133.55225858688357,33.2937348877339L133.59347841978072,49.74976948030902L133.71713791847228,17.348085306758197L134.08811641454696,33.195385590789286L134.12933624744414,34.66427135563182L134.17055608034133,17.572257377878422L134.37665524482728,52.84497131220118L134.5827544093132,16.768875928077446L134.70641390800475,102.97067156374732L134.83007340669633,0.23958351493486943L134.9125130724907,35.36496701170421L134.99495273828506,108.91480955141759L135.11861223697662,0.488964734160111L135.40715106725693,35.210638804874314L135.90178906202317,33.01653131261051L135.98422872781754,51.740326360782184L136.52008655548096,195.55095979277922L136.56130638837814,187.237792677668L137.0147245502472,33.18069943242063L137.42692287921906,67.82178397474797L137.50936254501343,32.17195573882329L137.5918022108078,32.704633686846414L137.83912120819093,0.7452442840497907L138.12766003847122,17.412852448694295L138.1688798713684,70.09740556360957L138.37497903585435,108.32380847283926L138.5398583674431,17.510323441526083L138.58107820034027,16.744959271048L138.74595753192904,155.6252232220998L139.28181535959246,115.3480321186747L139.3642550253868,201.10649285246384L139.40547485828398,182.1408714052306L139.7764533543587,143.4281662509558L139.85889302015303,139.74355799192418L139.9413326859474,17.214309000894318L140.27109134912493,16.368483452932377L140.6008500123024,17.140309283928385L140.72450951099395,106.22660927739173L140.76572934389117,16.820370918975453L140.8893888425827,34.02110773350237L140.97182850837706,51.89436387594354L141.01304834127427,33.84479077831618L141.13670783996582,15.636684826510328L141.38402683734893,70.88981444110753L141.5489061689377,17.264323540651827L141.59012600183488,51.10925551206415L142.16720366239548,0.3781480089616213L142.29086316108703,143.30566047635523L142.41452265977858,16.889839998650245L142.7030614900589,49.59830251004521L142.82672098875045,65.63962806279946L142.90916065454482,0.09818021886085382L143.15647965192795,51.25816439564479L143.36257881641387,16.66788341331814L143.609897813797,50.42590584312759L143.69233747959137,34.759574619163914L143.9808763098717,18.04699217088452L144.10453580856324,17.850613337830673L144.1869754743576,1.008214154600238L144.2281953072548,133.26485463675434L144.35185480594635,0.180107885999359L144.68161346912382,18.099860679916397L145.05259196519853,17.468783602091175L145.25869112968445,78.82952581690239L145.46479029417037,49.206989996804L145.6708894586563,17.834166418498278L146.2067472863197,50.26369989208014L146.2891869521141,18.14744690605701L146.70138528108595,52.3134042216257L146.9899241113663,49.46330114643532L147.11358361005782,163.64595451865597L147.31968277454376,32.22991135205469L147.69066127061842,16.96824057984104L147.73188110351563,16.546901693608323L147.97920010089877,115.51351042736232L148.22651909828187,161.5964619787546L148.35017859697342,35.19746631955114L148.5150579285622,16.965349235923558L148.55627776145934,88.67433902809478L148.59749759435653,17.310381559163535L148.6799372601509,16.754889506082364L148.84481659173966,70.41702520591163L148.96847609043124,1.0789563729421157L149.00969592332842,0.9697097720729508L149.17457525491713,0.6163962401522728L149.21579508781434,54.1043763552148L149.25701492071153,148.96765313053683L149.46311408519745,180.27899957368365L149.54555375099181,166.3261150916775L149.95775207996368,0.42598155012336864L150.246290910244,50.44646189683176L150.5348297405243,51.7284869043962L150.65848923921584,48.33303380080324L151.4004462313652,0.6128996995400399L151.60654539585113,0.3370492681791131L151.9775238919258,0.09344149045784346L152.10118339061736,64.02491474606285L152.18362305641173,70.79157726809221L152.47216188669205,35.84423036563243L152.63704121828079,64.85470241939743L152.67826105117797,18.23704223104033L153.00801971435547,17.224390810870137L153.1728990459442,1.390860876678714L153.21411887884142,90.35638068800426L153.33777837753297,34.53779971612466L153.4202180433273,53.342830627439945L153.70875687360765,0.9565487716661606L153.87363620519636,18.001554986722045L154.03851553678513,48.1473690321043L154.2033948683739,55.63392116580619L154.28583453416826,51.02840585356587L154.53315353155136,17.79229436001359L155.19267085790634,17.50629736191675L155.3163303565979,99.45287879507863L155.43998985528944,71.51818185730811L155.56364935398102,50.461241491808146L155.6048691868782,18.3673447714651L155.81096835136412,51.514973873850764L156.38804601192473,34.238655149133386L156.5117055106163,34.91288748152299L156.5529253435135,67.38177230154945L156.88268400669097,51.252790752514855L157.2124426698685,36.008379798121L157.7483004975319,16.416915799465365L158.0368393278122,180.80453688850588L158.2841583251953,65.3405686269397L158.49025748968126,17.358748500071094L158.9436756515503,82.49895997083604L159.27343431472778,17.63073831248224L159.31465414762496,16.895519906216673L159.5207533121109,59.405724467186594L159.60319297790528,31.535183180663694L159.68563264369965,50.28944271569875L159.8092921423912,16.939639634209914L159.89173180818557,33.2907033889048L160.09783097267152,48.29665166211592L160.13905080556867,68.6348610298794L160.4688094687462,17.205703489320907L160.51002930164339,33.00465448158143L160.6336888003349,16.71401306656246L160.92222763061523,80.8611200554977L161.0458871293068,48.8569515477579L161.087106962204,33.216824101344386L161.12832679510115,0.6766052329071488L161.49930529117586,34.23615520078392L161.66418462276457,31.77500173084329L161.82906395435333,53.65307753980052L162.11760278463362,17.229224598044212L162.1588226175308,17.211972047516134L162.36492178201675,16.690722434804908L162.98321927547457,18.332050650165762L163.02443910837175,133.95896820290326L163.1893184399605,17.001128189398663L163.27175810575486,161.2537115851127L163.56029693603514,88.1439762315747L163.7251762676239,32.98810374379599L164.09615476369856,17.711473770682172L164.13737459659575,17.724517521123538L164.17859442949296,50.65570591258773L164.21981426239014,71.18656910730957L164.26103409528733,50.73038875497475L164.4259134268761,122.13427064821143L164.50835309267043,0.6491163126812841L164.5907927584648,123.76265893158396L164.71445225715638,32.45793197322953L164.83811175584793,121.0330309420525L164.87933158874512,17.263659102552285L165.00299108743667,17.647698094972714L165.45640924930572,17.16006905009765L165.70372824668885,146.9759334833895L165.95104724407196,31.695090591160586L166.32202574014664,31.759219249610414L166.36324557304383,16.61949051779731L166.56934473752975,32.988842931181715L166.69300423622133,17.401197789154736L166.94032323360443,17.540239766957377L167.10520256519317,32.09702788488706L167.27008189678193,33.92000517118282L167.5998405599594,35.17225919915026L167.72350005865098,17.29767002777193L167.9708190560341,124.38806129276537L168.01203888893127,0.6359652399140565L168.34179755210877,33.81695912742217L168.46545705080032,17.634996945426405L168.5066768836975,17.273891449285035L168.63033638238906,122.44114138447877L169.00131487846375,72.91747188396312L169.53717270612717,17.058780652747146L169.57839253902435,16.317171182511736L169.61961237192153,53.32638163173849L169.66083220481875,53.688147413241275L169.7844917035103,70.20967068600119L170.23790986537935,32.172611871446584L171.22718585491182,16.950047434128326L171.35084535360335,16.858063246540286L171.43328501939774,32.68561829898553L171.5157246851921,32.92888985091361L171.63938418388366,88.96380979163071L171.72182384967803,17.397428141124447L171.8042635154724,17.336028869805347L171.92792301416398,32.38765310962094L171.96914284706116,108.96536498531546L172.7110998392105,142.33086334053658L173.12329816818237,17.745810685844386L173.4118369984627,17.757830786338673L173.57671633005143,18.080226534075322L173.6179361629486,35.2340270259777L173.82403532743453,33.23262734626787L173.8652551603317,33.525397460241784L173.9889146590233,34.55690854059328L174.44233282089235,51.679173139196806L174.48355265378953,51.41375088212568L174.97819064855577,35.51819889566991L175.01941048145295,17.9888829063426L175.10185014724732,17.230903342430064L175.1430699801445,16.732631867932692L175.26672947883606,0.3721582681993553L175.30794931173324,16.80646962811187L175.34916914463042,17.177628903246752L175.6377079749107,17.420709429221215L175.7201476407051,61.85929503731636L175.80258730649948,172.3105927774654L176.2972253012657,162.76404582915148L176.4208847999573,17.405831206714414L176.46210463285448,140.2244616774106L176.50332446575166,49.94379786358577L176.54454429864884,48.717593961857986L176.70942363023758,68.64464903363309L176.83308312892913,33.04934209651286L177.45138062238695,33.29128477224188L177.5338202881813,161.19258327995607L177.78113928556442,16.790404760686705L177.8635789513588,122.98284115607204L178.02845828294753,17.50184770301897L178.1933376145363,0.1880180897051055L178.23455744743347,33.13950011751174L178.85285494089126,0.10881935549157692L179.22383343696595,17.615840364469378L179.30627310276031,103.02635147648782L179.3887127685547,53.29221290247022L179.51237226724623,16.865998090906988L179.5948119330406,64.55604995187362L179.71847143173218,34.29615811390947L180.08944992780684,17.08907280097846L180.21310942649842,138.24249265937385L180.33676892518997,32.87958646755952L181.24360524892808,17.203388337817845L181.449704413414,17.78286349173842L181.69702341079713,173.91384868972324L181.82068290948868,142.11606711391144L181.98556224107742,17.09124260664723L182.23288123846055,16.35303319074926L182.3565407371521,0.10856631423391226L182.43898040294647,46.759773116000986L182.52142006874084,32.531825795373365L182.64507956743242,87.48650642661477L182.7275192332268,33.107245800517745L182.8511787319183,50.56750175487527L183.5519158911705,16.89036324365362L183.59313572406768,61.9131352870688L183.71679522275926,16.95631599232357L184.04655388593673,0.12056816539073663L184.08777371883392,46.47037294901311L184.4587522149086,32.58845045603665L184.49997204780578,136.08595083616217L184.70607121229173,17.69925641512708L184.74729104518892,106.2822061353698L184.78851087808607,50.5709692912072L184.91217037677765,0.16591445974187857L185.15948937416078,16.84022827449058L185.3655885386467,32.19312432140047L185.48924803733826,0.13618137388023405L185.81900670051573,154.93500492430937L185.9838860321045,32.992740275909256L186.06632569789886,53.02559465681995L186.43730419397355,18.172853357887735L186.6434033584595,17.842353541705915L186.8907223558426,49.004352987400225L186.93194218873978,32.07326591735267L187.13804135322573,0.23333638551719355L187.42658018350602,49.850685169413076L187.7151190137863,187.88724769805236L187.96243801116944,17.7414835327212L188.086097509861,165.08308429507915L188.16853717565536,58.63521713054435L188.20975700855254,167.20513347544903L188.49829583883286,146.27692799173278L188.82805450201033,16.894383094155764L188.86927433490754,17.173673420185484L188.9517140007019,17.338007649520502L189.11659333229065,130.8566485778699L189.28147266387938,0.37374850735397763L189.48757182836533,17.165707430282858L189.98220982313157,16.134052042281606L190.22952882051467,72.71667038480929L190.4768478178978,16.822090152557994L190.60050731658936,17.352076088093497L190.84782631397246,33.479324907146655L191.3424643087387,33.16204533277637L191.50734364032746,31.758390778355057L191.79588247060775,64.42383922828178L191.91954196929933,33.44629402812382L192.37296013116838,17.117535668067017L192.78515846014022,64.28225162201032L192.8263782930374,17.2516929876536L192.950037791729,16.899497191153085L193.1973567891121,17.66182986280207L193.40345595359804,34.30337972550373L194.0217534470558,35.36348033145653L194.06297327995298,17.180273159245957L194.3927319431305,34.71496175351869L194.59883110761643,32.471349470101885L194.84615010499957,48.400814792431426L194.9285897707939,57.89732124637459L194.9698096036911,16.62174234004399L195.21712860107422,17.245747304847345L195.6293269300461,16.377254035846153L195.75298642873764,16.999106844117737L195.835426094532,17.259653786633567L195.8766459274292,16.427941319179414L195.91786576032638,0.12379031707589604L196.08274509191511,16.99528528686093L196.49494342088698,33.894438838934406L196.53616325378417,16.70059660787463L196.61860291957856,16.93248550461016L197.0308012485504,15.772027752830738L197.0720210814476,61.47634198591484L197.77275824069977,51.52437152022097L198.06129707098006,17.140409987827837L198.22617640256883,159.99347184173655L198.5971548986435,32.59151310040166L198.8032540631294,49.19443626946102L199.00935322761535,32.689953757584966L199.25667222499848,50.26207201873629L199.62765072107317,104.51169454250808L199.79253005266187,0.11854279714476998L199.95740938425064,69.8414640076711L200.08106888294222,17.149546011696362L200.32838788032532,48.23081830466699L200.53448704481124,17.391233294030876L200.78180604219435,17.48380405587865L200.9879052066803,16.906679351735168L201.11156470537188,16.09681651591021L201.15278453826906,0.14924695864001628L201.44132336854935,17.46793436714523L201.77108203172682,65.30168238716479L202.10084069490435,32.96910289051853L202.26572002649306,16.815829899838977L202.38937952518464,15.991413793265277L202.5130390238762,0.06721840105326038L202.55425885677337,34.51102701345176L202.88401751995087,32.262414833336L202.96645718574524,16.63552423968655L203.4198753476143,65.4954034678205L203.74963401079177,63.937802758476515L203.9969530081749,168.7522775902017L204.20305217266082,169.27019047783187L204.36793150424958,158.3773756632053L204.69769016742706,152.1026215826858L205.64574632406234,32.60136754796528L205.89306532144548,17.12752300325057L206.0579446530342,16.73428881044338L206.676242146492,193.79144465046468L206.92356114387513,0.5842045386627807L207.04722064256666,32.56263911223901L207.12966030836105,16.82097202781863L207.41819913864137,137.01781696527496L207.5418586373329,48.710280990025055L207.70673796892166,141.00039249004027L207.87161730051042,0.17082925775260777L207.9128371334076,16.571903253472144L207.95405696630476,16.79572753277466L208.03649663209913,16.955722150772115L208.28381562948226,16.78092821229217L208.57235445976258,33.25986515561042L208.65479412555695,154.4744662665735L208.73723379135131,0.12521847778150244L208.90211312294008,0.12274407039363049L209.0257726216316,0.5949866041044357L209.06699245452882,53.93092063659471L209.14943212032318,148.25293367782626L209.47919078350066,34.215320913625575L209.80894944667818,0.3225925161484432L209.89138911247252,84.491518471084L210.46846677303313,33.784694428582874L210.5921262717247,47.509354805246204L210.71578577041626,16.59742182923217L211.12798409938813,0.13026016140779123L211.29286343097687,0.0815992763942055L211.41652292966842,35.99205123182507L212.0348204231262,17.248351071649864L212.24091958761215,15.63641593671691L212.28213942050934,17.193665739689585L212.44701875209807,0.177063766739563L212.61189808368684,0.41925583385877996L212.65311791658402,62.760954149329336L212.6943377494812,17.708624992330442L212.77677741527557,51.84184419691393L212.9828765797615,0.4376794889805447L213.02409641265868,33.3351895960373L213.0653162455559,66.66539590632816L213.43629474163055,16.769154161531628L213.76605340480802,17.358504526706433L213.93093273639678,52.50965847253589L214.01337240219115,17.108881361820668L214.26069139957426,17.291528128089407L214.59045006275178,33.382919091643146L214.63166989564897,16.92986512685514L214.87898889303207,17.09618125045889L215.00264839172362,32.0519540653103L215.33240705490113,152.45131869731847L215.3736268877983,49.707436467892805L215.57972605228426,33.32641693675446L215.70338555097578,48.580752935260044L215.74460538387297,0.2149042951461302L215.86826488256455,0.42461260649009813L215.9919243812561,17.132897684565037L216.11558387994768,16.546577780034795L216.61022187471391,32.469295941100526L216.77510120630262,17.5564292165262L217.06364003658297,160.85059699012862L217.31095903396607,134.81429936842662L217.43461853265762,49.47477516186656L217.4758383655548,16.613160706714766L217.517058198452,35.18899473378216L217.64071769714354,101.1866635719889L217.68193753004073,34.99587580015414L217.97047636032104,0.3327649077245559L218.05291602611544,45.74068702811066L218.13535569190978,107.92861730219205L218.3826746892929,19.43982884249786L218.58877385377883,17.64824833277389L218.62999368667602,17.688365859402005L218.75365318536757,53.733715408654575L218.87731268405915,164.05825497036602L218.95975234985352,48.44938521750696L219.0421920156479,35.289059111571184L219.37195067882539,17.422912456794975L219.70170934200286,202.22806436446837L219.78414900779725,153.62297223107495L219.86658867359162,16.079252510022982L219.9078085064888,17.4317868581618L219.949028339386,16.539212898975347L220.23756716966628,17.839567054426013L220.2787870025635,31.57687459504006L221.02074399471283,33.30442403566006L221.14440349340438,33.44609054395583L221.59782165527344,52.8992019193371L221.84514065265657,0.12899245698787026L222.38099848032,70.13556922695125L222.6283174777031,16.759295561229862L222.66953731060028,144.57053467547556L222.9168563079834,16.122494972087928L222.99929597377775,17.358991435251244L223.1641753053665,16.131380793484603L223.61759346723557,150.0686768943134L223.70003313302993,54.21969789286427L223.78247279882433,188.2491006870557L223.94735213041304,32.18396753384133L224.02979179620743,52.66184801923294L224.23589096069335,17.841502230390883L224.4007702922821,17.612443424685537L224.60686945676804,0.17747084862696827L225.80224461078646,16.42671003232622L225.8846842765808,163.98285785702203L226.2556627726555,0.21763066505305453L226.2968826055527,85.59573984321457L226.33810243844985,52.9878130453855L226.66786110162735,17.319016139903805" fill="none"></path></g></g></g></g></g><g><g opacity="0.63162"><span fill="rgb(0, 0, 0)" stroke="none" stroke-width="1px">Alt + Scroll to Zoom</span></g></g></g><g transform="translate(82, 176)" clip-path="url(#clip_1)"><clipPath id="clip_1"><rect width="247" height="23"></rect></clipPath><g><g><line x1="0" y1="0" x2="0" y2="5" style="visibility: inherit;" fill="rgb(0, 0, 0)" stroke="rgb(204, 204, 204)" stroke-width="1px"></line><line x1="20.60991644859314" y1="0" x2="20.60991644859314" y2="5" style="visibility: inherit;" fill="rgb(0, 0, 0)" stroke="rgb(204, 204, 204)" stroke-width="1px"></line><line x1="41.21983289718628" y1="0" x2="41.21983289718628" y2="5" style="visibility: inherit;" fill="rgb(0, 0, 0)" stroke="rgb(204, 204, 204)" stroke-width="1px"></line><line x1="61.82974934577942" y1="0" x2="61.82974934577942" y2="5" style="visibility: inherit;" fill="rgb(0, 0, 0)" stroke="rgb(204, 204, 204)" stroke-width="1px"></line><line x1="82.43966579437256" y1="0" x2="82.43966579437256" y2="5" style="visibility: inherit;" fill="rgb(0, 0, 0)" stroke="rgb(204, 204, 204)" stroke-width="1px"></line><line x1="103.0495822429657" y1="0" x2="103.0495822429657" y2="5" style="visibility: inherit;" fill="rgb(0, 0, 0)" stroke="rgb(204, 204, 204)" stroke-width="1px"></line><line x1="123.65949869155884" y1="0" x2="123.65949869155884" y2="5" style="visibility: inherit;" fill="rgb(0, 0, 0)" stroke="rgb(204, 204, 204)" stroke-width="1px"></line><line x1="144.26941514015198" y1="0" x2="144.26941514015198" y2="5" style="visibility: inherit;" fill="rgb(0, 0, 0)" stroke="rgb(204, 204, 204)" stroke-width="1px"></line><line x1="164.87933158874512" y1="0" x2="164.87933158874512" y2="5" style="visibility: inherit;" fill="rgb(0, 0, 0)" stroke="rgb(204, 204, 204)" stroke-width="1px"></line><line x1="185.48924803733826" y1="0" x2="185.48924803733826" y2="5" style="visibility: inherit;" fill="rgb(0, 0, 0)" stroke="rgb(204, 204, 204)" stroke-width="1px"></line><line x1="206.0991644859314" y1="0" x2="206.0991644859314" y2="5" style="visibility: inherit;" fill="rgb(0, 0, 0)" stroke="rgb(204, 204, 204)" stroke-width="1px"></line><line x1="226.70908093452454" y1="0" x2="226.70908093452454" y2="5" style="visibility: inherit;" fill="rgb(0, 0, 0)" stroke="rgb(204, 204, 204)" stroke-width="1px"></line><line x1="247.31899738311768" y1="0" x2="247.31899738311768" y2="5" style="visibility: inherit;" fill="rgb(0, 0, 0)" stroke="rgb(204, 204, 204)" stroke-width="1px"></line></g><g transform="translate(0, 8)"><text style="text-anchor: middle; visibility: hidden; font-family: Roboto, sans-serif; font-size: 12px; font-weight: 200;" x="0" y="0" dx="0em" dy="0.95em" fill="rgb(33, 33, 33)" stroke="none" stroke-width="1px">-500</text><text style="text-anchor: middle; visibility: inherit; font-family: Roboto, sans-serif; font-size: 12px; font-weight: 200;" x="20.60991644859314" y="0" dx="0em" dy="0.95em" fill="rgb(33, 33, 33)" stroke="none" stroke-width="1px">0</text><text style="text-anchor: middle; visibility: hidden; font-family: Roboto, sans-serif; font-size: 12px; font-weight: 200;" x="41.21983289718628" y="0" dx="0em" dy="0.95em" fill="rgb(33, 33, 33)" stroke="none" stroke-width="1px">500</text><text style="text-anchor: middle; visibility: inherit; font-family: Roboto, sans-serif; font-size: 12px; font-weight: 200;" x="61.82974934577942" y="0" dx="0em" dy="0.95em" fill="rgb(33, 33, 33)" stroke="none" stroke-width="1px">1k</text><text style="text-anchor: middle; visibility: hidden; font-family: Roboto, sans-serif; font-size: 12px; font-weight: 200;" x="82.43966579437256" y="0" dx="0em" dy="0.95em" fill="rgb(33, 33, 33)" stroke="none" stroke-width="1px">1.5k</text><text style="text-anchor: middle; visibility: inherit; font-family: Roboto, sans-serif; font-size: 12px; font-weight: 200;" x="103.0495822429657" y="0" dx="0em" dy="0.95em" fill="rgb(33, 33, 33)" stroke="none" stroke-width="1px">2k</text><text style="text-anchor: middle; visibility: hidden; font-family: Roboto, sans-serif; font-size: 12px; font-weight: 200;" x="123.65949869155884" y="0" dx="0em" dy="0.95em" fill="rgb(33, 33, 33)" stroke="none" stroke-width="1px">2.5k</text><text style="text-anchor: middle; visibility: inherit; font-family: Roboto, sans-serif; font-size: 12px; font-weight: 200;" x="144.26941514015198" y="0" dx="0em" dy="0.95em" fill="rgb(33, 33, 33)" stroke="none" stroke-width="1px">3k</text><text style="text-anchor: middle; visibility: hidden; font-family: Roboto, sans-serif; font-size: 12px; font-weight: 200;" x="164.87933158874512" y="0" dx="0em" dy="0.95em" fill="rgb(33, 33, 33)" stroke="none" stroke-width="1px">3.5k</text><text style="text-anchor: middle; visibility: inherit; font-family: Roboto, sans-serif; font-size: 12px; font-weight: 200;" x="185.48924803733826" y="0" dx="0em" dy="0.95em" fill="rgb(33, 33, 33)" stroke="none" stroke-width="1px">4k</text><text style="text-anchor: middle; visibility: hidden; font-family: Roboto, sans-serif; font-size: 12px; font-weight: 200;" x="206.0991644859314" y="0" dx="0em" dy="0.95em" fill="rgb(33, 33, 33)" stroke="none" stroke-width="1px">4.5k</text><text style="text-anchor: middle; visibility: inherit; font-family: Roboto, sans-serif; font-size: 12px; font-weight: 200;" x="226.70908093452454" y="0" dx="0em" dy="0.95em" fill="rgb(33, 33, 33)" stroke="none" stroke-width="1px">5k</text><text style="text-anchor: middle; visibility: hidden; font-family: Roboto, sans-serif; font-size: 12px; font-weight: 200;" x="247.31899738311768" y="0" dx="0em" dy="0.95em" fill="rgb(33, 33, 33)" stroke="none" stroke-width="1px">5.5k</text></g><line x1="0" y1="0" x2="247.31899738311768" y2="0" fill="rgb(0, 0, 0)" stroke="rgb(204, 204, 204)" stroke-width="1px"></line></g></g></g></g></svg>