<svg viewBox="0 0 330 200" xmlns="http://www.w3.org/2000/svg"><g><g><g><g><g><line x1="41.149001121520996" y1="176.89999961853027" x2="36.149001121520996" y2="176.89999961853027" style="visibility: inherit;" fill="rgb(0, 0, 0)" stroke="rgb(204, 204, 204)" stroke-width="1px"></line><line x1="41.149001121520996" y1="157.24444410536023" x2="36.149001121520996" y2="157.24444410536023" style="visibility: inherit;" fill="rgb(0, 0, 0)" stroke="rgb(204, 204, 204)" stroke-width="1px"></line><line x1="41.149001121520996" y1="137.58888859219022" x2="36.149001121520996" y2="137.58888859219022" style="visibility: inherit;" fill="rgb(0, 0, 0)" stroke="rgb(204, 204, 204)" stroke-width="1px"></line><line x1="41.149001121520996" y1="117.9333330790202" x2="36.149001121520996" y2="117.9333330790202" style="visibility: inherit;" fill="rgb(0, 0, 0)" stroke="rgb(204, 204, 204)" stroke-width="1px"></line><line x1="41.149001121520996" y1="98.27777756585016" x2="36.149001121520996" y2="98.27777756585016" style="visibility: inherit;" fill="rgb(0, 0, 0)" stroke="rgb(204, 204, 204)" stroke-width="1px"></line><line x1="41.149001121520996" y1="78.62222205268012" x2="36.149001121520996" y2="78.62222205268012" style="visibility: inherit;" fill="rgb(0, 0, 0)" stroke="rgb(204, 204, 204)" stroke-width="1px"></line><line x1="41.149001121520996" y1="58.9666665395101" x2="36.149001121520996" y2="58.9666665395101" style="visibility: inherit;" fill="rgb(0, 0, 0)" stroke="rgb(204, 204, 204)" stroke-width="1px"></line><line x1="41.149001121520996" y1="39.31111102634006" x2="36.149001121520996" y2="39.31111102634006" style="visibility: inherit;" fill="rgb(0, 0, 0)" stroke="rgb(204, 204, 204)" stroke-width="1px"></line><line x1="41.149001121520996" y1="19.65555551317004" x2="36.149001121520996" y2="19.65555551317004" style="visibility: inherit;" fill="rgb(0, 0, 0)" stroke="rgb(204, 204, 204)" stroke-width="1px"></line><line x1="41.149001121520996" y1="0" x2="36.149001121520996" y2="0" style="visibility: inherit;" fill="rgb(0, 0, 0)" stroke="rgb(204, 204, 204)" stroke-width="1px"></line></g><g transform="translate(31.149001121520996, 0)"><text style="text-anchor: end; visibility: hidden; font-family: Roboto, sans-serif; font-size: 12px; font-weight: 200;" x="0" y="176.89999961853027" dx="0em" dy="0.3em" fill="rgb(33, 33, 33)" stroke="none" stroke-width="1px">-20</text><text style="text-anchor: end; visibility: inherit; font-family: Roboto, sans-serif; font-size: 12px; font-weight: 200;" x="0" y="157.24444410536023" dx="0em" dy="0.3em" fill="rgb(33, 33, 33)" stroke="none" stroke-width="1px">-15</text><text style="text-anchor: end; visibility: hidden; font-family: Roboto, sans-serif; font-size: 12px; font-weight: 200;" x="0" y="137.58888859219022" dx="0em" dy="0.3em" fill="rgb(33, 33, 33)" stroke="none" stroke-width="1px">-10</text><text style="text-anchor: end; visibility: inherit; font-family: Roboto, sans-serif; font-size: 12px; font-weight: 200;" x="0" y="117.9333330790202" dx="0em" dy="0.3em" fill="rgb(33, 33, 33)" stroke="none" stroke-width="1px">-5</text><text style="text-anchor: end; visibility: hidden; font-family: Roboto, sans-serif; font-size: 12px; font-weight: 200;" x="0" y="98.27777756585016" dx="0em" dy="0.3em" fill="rgb(33, 33, 33)" stroke="none" stroke-width="1px">0</text><text style="text-anchor: end; visibility: inherit; font-family: Roboto, sans-serif; font-size: 12px; font-weight: 200;" x="0" y="78.62222205268012" dx="0em" dy="0.3em" fill="rgb(33, 33, 33)" stroke="none" stroke-width="1px">5</text><text style="text-anchor: end; visibility: hidden; font-family: Roboto, sans-serif; font-size: 12px; font-weight: 200;" x="0" y="58.9666665395101" dx="0em" dy="0.3em" fill="rgb(33, 33, 33)" stroke="none" stroke-width="1px">10</text><text style="text-anchor: end; visibility: inherit; font-family: Roboto, sans-serif; font-size: 12px; font-weight: 200;" x="0" y="39.31111102634006" dx="0em" dy="0.3em" fill="rgb(33, 33, 33)" stroke="none" stroke-width="1px">15</text><text style="text-anchor: end; visibility: hidden; font-family: Roboto, sans-serif; font-size: 12px; font-weight: 200;" x="0" y="19.65555551317004" dx="0em" dy="0.3em" fill="rgb(33, 33, 33)" stroke="none" stroke-width="1px">20</text><text style="text-anchor: end; visibility: hidden; font-family: Roboto, sans-serif; font-size: 12px; font-weight: 200;" x="0" y="0" dx="0em" dy="0.3em" fill="rgb(33, 33, 33)" stroke="none" stroke-width="1px">25</text></g><line x1="41.149001121520996" y1="0" x2="41.149001121520996" y2="176.89999961853027" fill="rgb(0, 0, 0)" stroke="rgb(204, 204, 204)" stroke-width="1px"></line></g></g><g transform="translate(41, 0)" clip-path="url(#clip_0)"><clipPath id="clip_0"><rect width="288" height="176"></rect></clipPath><g><g><g><line x1="0" y1="0" x2="0" y2="176.89999961853027" fill="rgb(0, 0, 0)" stroke="rgb(66, 66, 66)" stroke-width="1px" opacity="0.25"></line><line x1="24.07091657320658" y1="0" x2="24.07091657320658" y2="176.89999961853027" fill="rgb(0, 0, 0)" stroke="rgb(66, 66, 66)" stroke-width="1px" opacity="0.25"></line><line x1="48.14183314641316" y1="0" x2="48.14183314641316" y2="176.89999961853027" fill="rgb(0, 0, 0)" stroke="rgb(66, 66, 66)" stroke-width="1px" opacity="0.25"></line><line x1="72.21274971961975" y1="0" x2="72.21274971961975" y2="176.89999961853027" fill="rgb(0, 0, 0)" stroke="rgb(66, 66, 66)" stroke-width="1px" opacity="0.25"></line><line x1="96.28366629282633" y1="0" x2="96.28366629282633" y2="176.89999961853027" fill="rgb(0, 0, 0)" stroke="rgb(66, 66, 66)" stroke-width="1px" opacity="0.25"></line><line x1="120.35458286603293" y1="0" x2="120.35458286603293" y2="176.89999961853027" fill="rgb(0, 0, 0)" stroke="rgb(66, 66, 66)" stroke-width="1px" opacity="0.25"></line><line x1="144.4254994392395" y1="0" x2="144.4254994392395" y2="176.89999961853027" fill="rgb(0, 0, 0)" stroke="rgb(66, 66, 66)" stroke-width="1px" opacity="0.25"></line><line x1="168.4964160124461" y1="0" x2="168.4964160124461" y2="176.89999961853027" fill="rgb(0, 0, 0)" stroke="rgb(66, 66, 66)" stroke-width="1px" opacity="0.25"></line><line x1="192.56733258565265" y1="0" x2="192.56733258565265" y2="176.89999961853027" fill="rgb(0, 0, 0)" stroke="rgb(66, 66, 66)" stroke-width="1px" opacity="0.25"></line><line x1="216.63824915885925" y1="0" x2="216.63824915885925" y2="176.89999961853027" fill="rgb(0, 0, 0)" stroke="rgb(66, 66, 66)" stroke-width="1px" opacity="0.25"></line><line x1="240.70916573206586" y1="0" x2="240.70916573206586" y2="176.89999961853027" fill="rgb(0, 0, 0)" stroke="rgb(66, 66, 66)" stroke-width="1px" opacity="0.25"></line><line x1="264.7800823052724" y1="0" x2="264.7800823052724" y2="176.89999961853027" fill="rgb(0, 0, 0)" stroke="rgb(66, 66, 66)" stroke-width="1px" opacity="0.25"></line><line x1="288.850998878479" y1="0" x2="288.850998878479" y2="176.89999961853027" fill="rgb(0, 0, 0)" stroke="rgb(66, 66, 66)" stroke-width="1px" opacity="0.25"></line></g><g><line x1="0" y1="176.89999961853027" x2="288.850998878479" y2="176.89999961853027" fill="rgb(0, 0, 0)" stroke="rgb(66, 66, 66)" stroke-width="1px" opacity="0.25"></line><line x1="0" y1="157.24444410536023" x2="288.850998878479" y2="157.24444410536023" fill="rgb(0, 0, 0)" stroke="rgb(66, 66, 66)" stroke-width="1px" opacity="0.25"></line><line x1="0" y1="137.58888859219022" x2="288.850998878479" y2="137.58888859219022" fill="rgb(0, 0, 0)" stroke="rgb(66, 66, 66)" stroke-width="1px" opacity="0.25"></line><line x1="0" y1="117.9333330790202" x2="288.850998878479" y2="117.9333330790202" fill="rgb(0, 0, 0)" stroke="rgb(66, 66, 66)" stroke-width="1px" opacity="0.25"></line><line x1="0" y1="98.27777756585016" x2="288.850998878479" y2="98.27777756585016" fill="rgb(0, 0, 0)" stroke="rgb(66, 66, 66)" stroke-width="1px" opacity="0.25"></line><line x1="0" y1="78.62222205268012" x2="288.850998878479" y2="78.62222205268012" fill="rgb(0, 0, 0)" stroke="rgb(66, 66, 66)" stroke-width="1px" opacity="0.25"></line><line x1="0" y1="58.9666665395101" x2="288.850998878479" y2="58.9666665395101" fill="rgb(0, 0, 0)" stroke="rgb(66, 66, 66)" stroke-width="1px" opacity="0.25"></line><line x1="0" y1="39.31111102634006" x2="288.850998878479" y2="39.31111102634006" fill="rgb(0, 0, 0)" stroke="rgb(66, 66, 66)" stroke-width="1px" opacity="0.25"></line><line x1="0" y1="19.65555551317004" x2="288.850998878479" y2="19.65555551317004" fill="rgb(0, 0, 0)" stroke="rgb(66, 66, 66)" stroke-width="1px" opacity="0.25"></line><line x1="0" y1="0" x2="288.850998878479" y2="0" fill="rgb(0, 0, 0)" stroke="rgb(66, 66, 66)" stroke-width="1px" opacity="0.25"></line></g></g></g><g><g><line x1="0" y1="98.27777756585016" x2="288.850998878479" y2="98.27777756585016" fill="rgb(0, 0, 0)" stroke="rgb(153, 153, 153)" stroke-width="1.5px"></line></g></g><g><g><line x1="24.07091657320658" y1="0" x2="24.07091657320658" y2="176.89999961853027" fill="rgb(0, 0, 0)" stroke="rgb(153, 153, 153)" stroke-width="1.5px"></line></g></g><g><g><g><g><g><path style="fill: none;" stroke="rgb(255, 112, 67)" stroke-width="2px" d="M24.07091657320658,38.59937468152408L24.26348390579224,26.03957197640549L24.552334904670715,-75.61752833008758L24.88932773669561,-96.39883058072502L25.2263205687205,45.39409273534363L25.467029734452566,-243.84754496735016L25.56331340074539,147.61382697243877L25.948448065916697,415.9591500470991L26.14101539850235,179.99785406811324L26.285440897941587,50.815108396110595L26.62243372996648,33.99454802528117L26.718717396259308,209.11308239057007L26.766859229405718,93.2544190690907L27.248277560869855,59.6520332423002L27.392703060309096,29.038735449105832L27.440844893455505,28.74546048688392L27.48898672660192,39.63966709031033L27.585270392894746,23.755734845903675L27.681554059187572,150.42066221203953L27.777837725480396,103.48169350858238L27.874121391773226,95.45300226885698L27.97040505806605,70.57968466692907L28.162972390651703,94.3473678910381L28.211114223798116,70.00370807292708L28.355539723237356,85.27578699559525L28.499965222676597,93.71015012564912L28.836958054701487,80.86995937651527L28.8850998878479,55.72135712886348L29.703511051336925,115.51023634779546L29.847936550776165,186.1623119203146L29.94422021706899,141.59502549849887L30.040503883361815,112.9811860819197L30.136787549654642,28.527001989345884L30.184929382801055,45.549025935213436L30.52192221482595,73.95744421652437L30.66634771426519,44.20131062077974L30.714489547411603,3.0219362337406626L31.051482379436493,-24.38704956734289L31.29219154516856,-0.23976441241388768L31.340333378314973,25.76380319392945L31.58104254404704,51.92302229263999L32.06246087551117,81.62015847233512L33.07343937158585,76.30865665330131L33.31414853731791,106.11905473918279L33.45857403675715,100.02955615952682L34.80654536485672,148.78402611301917L34.902829031149544,113.97798970311312L34.95097086429596,117.04212837654798L35.239821863174434,93.81918071062857L35.817523860931395,81.19731007110595L35.96194936037064,93.17279848556271L36.106374859809875,84.75057017631262L36.2026585261027,95.47662369062235L36.44336769183477,150.60123387712724L36.73221869071325,116.04653485367011L36.780360523859656,130.65718211109825L36.82850235700607,93.97725743115922L36.87664419015249,105.86833819717339L37.6469135204951,138.00942794892052L38.12833185195923,99.84810251134185L38.22461551825205,104.0747932969665L38.32089918454488,64.9586282598819L38.41718285083771,90.7608985120773L38.70603384971619,116.88740583036024L38.754175682862595,95.83718397046886L39.18745218118031,106.96724441995241L39.331877680619556,39.211588805152516L39.572586846351626,72.33651493693888L40.05400517781575,64.63351545409215L40.43913984298707,104.2724646304942L40.631707175572714,137.9862924957264L40.67984900871913,97.06451275184804L40.727990841865534,129.54671827852138L41.06498367389043,133.4510914641858L41.20940917332967,81.87828156833906L41.594543838500975,138.68727849790142L41.78711117108663,102.00891431213431L42.60552233457565,89.5906680785976L42.65366416772207,96.72289688660958L42.70180600086848,99.68381070259707L43.18322433233261,57.48524678762886L43.27950799862544,42.321242850071705L43.71278449694315,76.0545081604741L43.95349366267522,59.78946009697813L44.43491199413935,79.2341870003909L44.9644721587499,98.5580254793832L45.01261399189631,87.20477117412771L45.54217415650686,85.51996669253313L45.92730882167816,92.13758775700073L45.97545065482458,164.04872371143065L46.071734321117404,142.95411024367627L46.456868986288704,145.55189482487305L46.69757815202077,174.743746500195L46.7938618183136,145.53464197163999L46.98642915089925,85.22626104301008L47.27528014977773,64.75419595970675L47.949265813827516,89.44960978154185L48.14183314641316,144.07241867216203L48.286258645852406,59.592227635168754L48.57510964473089,103.95092166455277L49.10466980934143,109.51995411589617L49.249095308780674,112.99390822386759L49.537946307659155,101.46794031878765L49.58608814080556,109.55238739979636L49.82679730653762,165.53496290499857L50.0675064722697,160.3416207413979L50.211931971708935,126.61585547616714L50.548924803733826,125.1425374606348L50.597066636880236,118.49242953919206L50.64520847002665,105.30201549454948L50.93405946890513,67.85270285083787L50.98220130205154,84.10244593952866L51.27105230093002,94.41479620555873L51.41547780036926,81.41316512686947L51.511761466662094,48.93673837205911L51.60804513295491,71.12517623957419L51.65618696610133,73.54347995747327L51.800612465540574,68.37081500689195L51.84875429868698,80.92607905485292L51.99317979812622,98.51476936158326L52.2820307970047,122.07189284815962L52.52273996273677,92.84644666193675L53.10044196049372,87.73267290255332L53.148583793640135,101.24384542876413L53.63000212510427,124.49235606405692L54.111420456568396,134.62951254805722L54.15956228971481,72.79153439609924L54.30398778915405,131.76310298690305L54.35212962230047,117.88196234053221L54.49655512173971,89.09630669481744L54.59283878803253,73.89648907043848L54.64098062117895,130.51246637994302L54.737264287471774,146.67419025182792L54.78540612061819,149.11148611523814L54.88168978691101,126.82996921893351L55.26682445208231,130.21043576969916L55.31496628522873,129.56029760451764L55.55567545096079,121.46652232628101L57.19249777793885,89.31456680864547L57.24063961108525,64.6592032689835L57.28878144423167,109.17947014674421L57.336923277378084,108.34349615464421L57.914625275135045,89.4813732103473L58.203476274013525,96.61859167412541L58.299759940306345,134.71222798453817L58.54046910603841,98.63736022796411L59.214454770088196,75.40392242147996L59.262596603234606,88.06723956027902L59.40702210267385,23.170904123226435L59.64773126840591,24.45007718528117L59.93658226728439,62.79576342811997L59.9847241004308,94.94463255411452L60.08100776672363,73.96247674788057L60.12914959987005,66.71093554738215L60.273575099309284,79.52376649027502L60.65870976448059,53.2132896454226L60.99570259650548,108.90830192935752L61.33269542853038,92.69154805844893L61.71783009370168,80.09577536617473L61.814113759994505,67.27031185626605L61.86225559314092,127.899443460841L61.91039742628733,140.96528242529868L62.24739025831222,141.61506666172852L62.58438309033712,122.24340965332958L62.776950422922766,118.43387797609428L63.16208508809408,119.04867155623793L63.21022692124048,91.06239191474126L63.69164525270462,110.68784630235699L64.12492175102234,130.52030262065645L64.26934725046158,106.0026517131144L64.46191458304723,75.89195471833872L64.55819824934005,135.86191588844574L64.60634008248647,158.62402590962617L64.84704924821854,162.88844611739398L64.89519108136494,161.01363617648755L65.03961658080418,95.33578020751061L65.13590024709701,106.38506072957692L65.23218391338985,113.5726211596012L65.32846757968267,64.67234988593111L65.66546041170756,32.871973554850086L66.00245324373246,107.17516123416294L66.09873691002528,106.97951786988924L66.29130424261093,129.1145039830068L66.96528990666071,119.7201193849759L67.6392755707105,162.636641194966L68.36140306790669,93.40250088504992L68.45768673419953,111.94147032524066L68.55397040049235,87.34695022447234L68.89096323251724,-9.139163832258658L69.4205233971278,70.87070190593435L69.95008356173834,9.397057638739364L69.99822539488476,61.895575523839476L70.52778555949529,99.61697602623104L70.67221105893454,98.74368464544077L70.96106205781301,139.7304950053221L71.00920389095941,50.16304821852479L71.05734572410583,87.49593799245362L72.26089155276615,106.76623185264079L72.59788438479106,71.14441578121635L72.69416805108388,88.26172039799486L73.1274445494016,76.06947438696854L73.32001188198726,95.12682577820027L73.70514654715855,94.79720717369172L73.75328838030498,93.40783876494896L73.80143021345138,124.01634109592842L73.8495720465978,120.34014429417911L74.1865648786227,123.9201532179498L74.66798321008683,130.21525104678986L74.71612504323323,122.07079738687044L75.24568520784378,53.32328126370477L75.39011070728303,61.2146801006471L75.43825254042943,171.22801703955795L75.91967087189356,183.1043535905359L76.11223820447923,150.8278967522839L76.20852187077203,141.53564237297027L76.25666370391846,145.80848905309767L76.4010892033577,71.06694611483238L77.31578403313955,51.68432051194531L77.60463503201802,105.18879211194348L77.70091869831086,113.90358941748813L78.08605336348215,140.9057432648626L78.42304619550706,190.90065377467909L78.61561352809271,97.68066077108048L78.90446452697118,177.94387342224405L79.67473385731378,121.84794548163286L79.86730118989945,91.57708957920535L80.15615218877792,99.14286997547612L80.34871952136358,47.48815517087963L80.49314502080281,102.29858929855601L80.54128685394923,84.1920941401893L80.73385418653488,49.617685973489436L80.7819960196813,20.458318286168097L80.87827968597414,45.60508097648585L81.02270518541337,44.08424404374371L81.11898885170618,93.40873367165426L81.21527251799901,110.53785050825407L81.26341435114543,110.62493098057226L81.69669084946314,87.8664112482299L82.2262510140737,150.39216986188362L82.32253468036652,151.17770179232525L82.37067651351293,106.64660747511073L82.56324384609859,112.09749342134107L82.85209484497706,125.70966163805664L82.9965203444163,127.94397110630449L83.04466217756271,109.69881139737623L83.18908767700195,92.31941808485577L83.42979684273402,114.59644335375691L83.86307334105173,134.10996679295877L84.34449167251586,43.79498661440715L85.01847733656565,66.47364812046658L85.06661916971206,-2.7572575554071985L85.11476100285849,38.06312359765048L85.54803750117621,52.5117023505725L85.69246300061545,71.0452497201606L85.78874666690827,83.74088150897326L86.07759766578674,89.45997781367092L86.12573949893316,94.10509328644714L86.36644866466521,96.25492086429449L86.46273233095805,113.75728996545543L86.70344149669012,107.64873566184981L86.84786699612935,106.79033275764577L87.23300166130066,113.46769200429885L87.28114349444706,121.11550945500827L87.47371082703273,113.59954274733242L87.56999449332554,106.38297003259696L87.81070365905761,103.28389737392023L88.0514128247897,100.7142685825214L88.0995546579361,99.8694088876845L88.29212199052174,99.87692546640282L89.2068168203036,99.2009821955003L89.54380965232849,98.88652794112686L89.5919514854749,-127.64623380597132L89.68823515176773,-37.32822155586104L89.83266065120696,6.405442529106337L89.97708615064622,43.76315101711192L90.07336981693904,66.68263965244296L90.31407898267109,80.06839180199457L90.50664631525676,91.71820040881445L90.84363914728165,94.39236487288899L90.98806464672089,-70.73712758843675L91.08434831301372,163.32608842069655L91.61390847762425,139.42280672717277L91.80647581020992,228.30435640639726L92.19161047538121,206.63912712305984L92.28789414167404,164.07411263568773L92.48046147425968,136.8028146675656L92.81745430628459,121.99243494187209L94.45427663326264,112.53503367369674L95.12826229731242,106.96713994977749L96.09109896024069,105.3542189583218L97.00579379002252,102.42037457630335L97.15021928946177,13.190727857530652L97.39092845519384,22.180859153846846L97.48721212148666,52.582938611410654L97.53535395463308,70.2720989461935L97.92048861980439,81.4001687393846L98.30562328497568,88.09435045353484L98.35376511812211,92.24035959097128L98.45004878441492,94.70411834538649L98.49819061756135,96.09515564781175L98.54633245070775,97.00246821906278L98.64261611700059,97.49308976534819L98.78704161643982,97.4967397534347L98.88332528273264,97.68907041147396L99.26845994790395,97.89721609466237L99.99058744510015,97.27284706538603L100.1831547776858,97.75819498609484L100.32758027712504,97.99138215731334L100.37572211027145,98.08636298867928L101.19413327376047,98.47453728568632L101.2904169400533,98.36448013548606L101.33855877319972,98.65264337271438L101.53112610578536,98.68336359459931L101.6274097720782,98.60601404587597L101.6755516052246,98.58084562170241L101.77183527151743,98.52510925910298L101.91626077095667,98.4713381421654L102.10882810354232,98.45990984950666L102.49396276871363,98.50015135789553L102.63838826815287,98.42465378650309L102.92723926703135,97.13462298417333L103.16794843276342,105.0785967156098L103.26423209905624,65.94245950627673L103.36051576534908,29.57069350723354L103.40865759849548,53.339716672981986L103.55308309793472,141.04030093972256L103.93821776310602,115.34958292525017L104.03450142939886,124.33342168082271L104.08264326254528,97.91702108514536L104.13078509569168,118.59570320315396L104.37149426142375,139.8542212715699L104.51591976086299,127.66955815733117L104.5640615940094,137.14296930838879L104.75662892659506,123.28155417320326L104.90105442603429,113.0792720609562L105.18990542491278,107.41254832122225L105.38247275749842,103.7942989137622L105.47875642379124,101.61956488840808L106.15274208784103,185.30722379269292L106.20088392098744,167.3047962382014L106.48973491986592,139.72087655698704L106.68230225245158,123.19510254296094L106.730444085598,113.25792896603873L107.06743691762287,107.32197720652177L107.30814608335496,103.67845876109587L107.59699708223343,101.55676210154247L107.69328074852626,100.25360157494117L107.8377062479655,99.5305387497745L108.27098274628322,99.06699810207378L108.31912457942963,98.78679899652063L108.36726641257603,98.53296519837238L108.5598337451617,98.4737739980343L108.99311024347942,102.91928623223363L109.47452857494355,101.06634016383829L109.52267040808995,99.36171788087205L109.61895407438278,98.86132658441133L109.81152140696842,11.14243781207192L110.19665607213975,46.03043132814662L110.29293973843258,66.92032267492839L110.43736523787182,79.40969356077977L110.58179073731105,86.90942815678468L110.67807440360387,91.45659302838531L110.72621623675029,94.07200700604194L111.15949273506801,95.77984741162017L111.25577640136083,96.765153320534L111.64091106653214,97.43210678277487L111.78533656597138,97.92844354915485L112.79631506204605,98.48018514591408L113.6628680586815,98.37717935470297L113.7110098918279,98.45693107902927L113.80729355812073,98.44830403073898L113.85543539126714,98.40175182313084L114.0961445569992,98.34476589299312L114.14428639014562,98.20184321124803L114.28871188958486,98.27842198601009L114.33685372273126,98.26848729700828L114.4812792221705,98.34967774849906L115.10712305307389,124.69451268421379L115.20340671936671,120.25532357364847L115.25154855251313,111.0856086594811L115.34783221880595,92.07250433832564L115.44411588509878,85.34836153754108L115.5403995513916,39.925451598549415L115.63668321768442,41.872742227187025L116.11810154914856,61.227025622982346L116.50323621431986,140.73947726838463L116.6476617137591,123.98547854025027L116.69580354690552,113.77082497490576L116.79208721319834,107.58798713749655L116.88837087949118,103.78939881700056L116.98465454578401,104.70112149522892L117.03279637893041,102.12073778950327L117.12908004522325,100.57884255875126L117.3697892109553,99.5801889147265L117.4179310441017,99.0075740080671L117.85120754241943,98.73315061859074L118.66961870590846,98.5695747898945L118.8621860384941,98.47133017996181L119.05475337107977,98.34828626832804L119.34360436995824,98.85412737191658L120.16201553344726,98.65305610425439L120.21015736659369,98.5162519053568L120.3064410328865,98.44761830002619L120.49900836547216,98.73437592176603L121.0285685300827,98.49702810637831L121.12485219637553,98.41580511675024L121.26927769581476,98.36099445482249L121.3655613621076,98.31583483687211L121.60627052783965,98.19013308997302L121.65441236098609,98.15570472918245L121.99140519301096,98.21903448796333L122.23211435874303,98.25502397334255L122.42468169132869,98.2706204725019L122.66539085706076,98.26381626371001L122.76167452335358,98.13438730880334L122.8098163565,98.27599975459977L123.29123468796412,99.74073771684161L123.33937652111054,98.65560697387787L123.67636935313541,98.49253383240703L123.9652203520139,98.42127230160968L124.01336218516032,98.21050545414367L124.20592951774597,98.38086507413362L124.35035501718521,98.35027669176336L124.39849685033161,98.34828659546272L124.78363151550293,98.29359771544456L125.0724825143814,98.20616664899161L125.3613335132599,98.3275966786264L125.45761717955271,98.33720581170522L125.60204267899196,98.35808791146279L125.7464681784312,98.49859380980222L125.7946100115776,99.17099970893197L126.1316028436025,98.82305358080012L126.22788650989533,98.58505544756353L126.70930484135945,98.41234837632551L127.14258133967716,98.38029924492682L127.23886500597,97.10472182414641L127.52771600484849,97.61305180820197L127.9128506700198,97.72783191869877L128.49055266777674,97.92804220448276L128.53869450092316,98.03999162456498L128.634978167216,98.0554557787076L128.6831200003624,98.02909035785858L128.97197099924088,99.407035901316L129.21268016497294,99.0842814852538L129.5015311638514,98.65364013134014L129.79038216272988,99.37710857961041L129.83852399587633,98.98176610539464L130.07923316160836,98.69339655027244L130.65693515936533,98.49037936207738L130.80136065880455,98.50149913257074L130.8976443250974,98.09262145950487L131.1864953239759,97.91578561224128L131.28277899026872,98.03626913191538L131.3309208234151,98.10441282076975L131.37906265656153,98.17584126451736L131.47534632285436,98.23574722191267L131.95676465431848,98.46712220367228L132.00490648746492,92.71500591738399L132.63075031836829,94.92195701287241L132.87145948410034,96.26574030001655L133.1121686498324,97.10724176921964L133.25659414927165,97.53998435906382L133.30473598241807,97.81363827877985L133.35287781556448,97.98825910370402L133.4973033150037,98.07806058272048L133.64172881444296,98.18547916862319L133.68987064758937,98.28505084971094L133.7861543138822,98.2848494097223L133.97872164646785,97.24978506158308L134.36385631163915,97.66500639296238L134.74899097681046,97.9134711475031L134.8934164762497,97.91161060462235L135.18226747512819,98.0713465063682L135.278551141421,98.13258846627268L135.51926030715308,98.21964381515647L135.9525368054708,98.24586214923619L136.28952963749566,98.27018859441037L136.57838063637416,98.1730039901011L136.674664302667,98.20566617290355L136.72280613581339,98.18603911931113L136.7709479689598,98.18487469438973L137.44493363300958,96.8935709596501L137.493075466156,97.78621488718899L137.78192646503447,97.99365470905276L138.26334479649861,97.71258741983955L138.6003376285235,97.94948622894987L138.8410467942556,98.06554412700501L138.9373304605484,98.16021897956766L139.03361412684123,98.23395481012818L139.17803962628048,98.25336624965011L139.22618145942687,98.21434612681357L139.41874879201254,98.26471712610959L139.5631742914518,98.16502402255146L139.6594579577446,98.09597547544013L139.75574162403743,98.37975918339988L139.80388345718384,98.11647886919322L140.0445926229159,98.18462154444632L140.57415278752646,98.22306688679814L140.91114561955135,98.22818115642114L141.44070578416188,98.21229920717927L141.63327311674755,98.42847269172607L141.92212411562602,98.36884285362812L141.97026594877244,98.31946509417143L142.11469144821166,98.3103711870091L142.30725878079733,98.2858373584949L142.35540061394374,98.22795096395564L142.49982611338297,93.1656738871809L142.5961097796758,95.1059993276021L143.12566994428636,96.39771981416526L143.17381177743275,97.18644206028908L144.13664844036103,97.58626105494307L144.56992493867872,97.92858445485703L145.532761601607,98.06551727697882L145.67718710104623,97.54238556588392L145.82161260048548,97.82459469339166L146.11046359936398,98.34258033683025L146.2067472656568,98.33625785802705L146.39931459824246,98.32613910532471L146.49559826453526,98.3438387626245L146.73630743026735,98.34166038294047L147.16958392858504,101.29950872621303L147.26586759487788,100.16534273241602L147.60286042690277,99.43009607477974L147.65100226004918,99.00711097616944L148.0361369252205,98.71388495257322L148.4694134235382,98.52237545440377L148.9026899218559,98.41242037476556L148.99897358814877,98.35207192852381L149.28782458702725,97.79246545875992L149.48039191961288,98.0581818851075L149.5285337527593,98.14715571659778L149.62481741905214,98.20021910294875L149.8655265847842,98.24049803100053L149.96181025107703,98.24995699481379L150.29880308310192,99.5673068227455L150.44322858254117,99.14862044333181L150.49137041568756,98.98855633475105L150.73207958141964,98.69465767136428L152.08005090951917,98.53668196202185L152.27261824210484,98.33830114766394L152.8984620730082,98.31001058462559L152.99474573930104,98.32157949906838L153.09102940559387,98.49358594917796L153.33173857132596,98.40983965640561L153.37988040447235,98.44663677838501L153.57244773705798,98.38508335454922L154.43900073369343,98.36279958698866L155.06484456459683,98.34036910644514L155.25741189718246,99.16832083372584L156.12396489381788,100.12447432911505L156.60538322528203,99.40630143370774L156.65352505842844,98.95359631803267L156.74980872472125,98.66109189211207L156.79795055786767,98.50322012787394L156.94237605730692,98.39916412607131L156.99051789045333,98.35411802641116L157.47193622191747,98.38679881645785L158.09778005282084,98.34396194153732L158.2903473854065,127.69788592623243L158.3866310516993,115.62988909991303L158.57919838428498,108.67885241105526L158.91619121630987,104.52417009625519L158.9643330494563,102.00328309148857L159.54203504721323,100.63982498920633L159.59017688035965,99.57291905989752L159.92716971238454,99.09950118363017L159.97531154553093,98.79164446211901L160.216020711263,112.015411999773L160.74558087587357,180.36152595773234L160.93814820845924,147.58823500299653L160.98629004160563,127.88429627208535L161.08257370789846,116.01614786515188L161.1788573741913,108.7774332991857L161.612133872509,104.6033419987869L161.70841753880183,102.11644419708813L161.9009848713875,100.57035980193085L161.9972685376803,99.67138573797502L162.7675378680229,99.11713146821329L163.008247033755,98.93787127997578L163.0563888669014,98.85337013270478L163.58594903151194,98.59968477210522L163.73037453095117,98.5317545410739L163.87480003039042,98.4822668742422L163.97108369668325,-40.981770939499285L164.06736736297606,18.917179494591064L164.1155091961225,50.83302702839083L164.16365102926892,70.22785148420375L164.35621836185453,81.51446893296239L164.59692752758662,88.25116282641704L164.98206219275795,92.31339052946726L165.3190550247828,94.71653090980111L165.51162235736845,96.17900386083588L165.9448988556862,97.05278385700093L166.47445902029673,97.53720435751949L166.95587735176085,122.15941349341736L167.29287018378577,112.78728414228267L167.3891538500786,106.88667538640006L167.53357934951782,113.25761580765061L167.91871401468913,113.16588209669244L168.01499768098196,107.23679887406787L168.20756501356763,103.69007397630462L168.25570684671402,101.51437100811872L168.30384867986044,100.21999498495417L168.4964160124461,99.43554515071187L168.5445578455925,98.98381789121171L168.64084151188533,98.72193490791L169.17040167649586,98.52974566778882L169.2666853427887,98.4579987790651L169.3148271759351,98.511487607607L169.79624550739925,98.44707945594139L171.1442168354988,98.44399110901028L171.28864233493803,98.44839703240874L171.3849260012309,98.51911598314673L171.52935150067012,98.45269034701117L172.2033371647199,98.37878878120743L172.25147899786631,98.2993854927003L172.29962083101273,98.29382813971696L172.68475549618404,98.28015918631262L172.73289732933043,98.10559544690149L172.9254646619161,98.17972315715127L173.3105993270874,98.35507261081811L173.40688299338024,98.350549398813L173.45502482652665,98.33031778434356L173.6475921591123,98.38915873522888L173.6957339922587,98.34560004885638L173.93644315799077,98.32557145385331L174.46600332260132,98.32493761673673L174.61042882204057,98.31489607269502L174.65857065518696,98.32149873132893L174.8029961546262,98.33061261339941L174.89927982091905,98.36719686393785L175.18813081979752,98.38899536889208L175.33255631923674,98.35331813335354L175.62140731811522,98.47779000363465L175.81397465070089,98.50667120993197L176.00654198328652,98.40030636921442L176.72866948048275,98.43706964702073L177.11380414565403,98.45743057041513L177.25822964509328,98.52837893607706L177.45079697767892,98.44542366216737L177.49893881082536,98.38260178330694L177.59522247711817,98.35632689978507L177.83593164285026,98.30967723571395L178.50991730690004,98.27287236010714L178.7506264726321,98.49044611611572L179.1357611378034,98.44699934373595L179.37647030353546,97.57555068521353L179.4727539698283,98.07434051648005L179.5208958029747,98.12168575680607L179.56903763612112,98.10955352922281L179.61717946926754,98.07420410810192L179.8578886349996,98.13556199413033L179.906030468146,98.20594985713444L180.2430233001709,98.21559415493067L180.38744879961015,98.22159892392611L180.53187429904938,98.13989445421515L180.5800161321958,98.9367430968985L180.62815796534218,98.80158027485564L180.77258346478146,98.61373656502079L180.82072529792785,98.49709119924151L181.06143446365994,98.39675405087338L181.10957629680632,98.31647295276777L181.25400179624555,98.266065716396L181.3502854625384,98.28338159912514L181.49471096197763,98.30132589034818L181.92798746029536,98.3915904238811L182.0242711265882,98.45831350642686L182.120554792881,98.39064158663696L182.31312212546666,98.39764291215613L183.2278169552485,98.4118197956521L183.27595878839492,98.43744423910807L183.46852612098058,98.4951439343013L183.51666795412697,98.8949097256699L183.5648097872734,98.70619617911257L183.75737711985906,96.98762302731576L183.99808628559114,97.72147953553119L184.38322095076242,104.14529074660683L184.43136278390884,85.98284084440735L184.5757882833481,90.63213784644871L184.6239301164945,93.76408164705096L184.6720719496409,95.35834704219968L184.76835561593376,96.29482633232418L184.86463928222656,160.76478461539588L184.91278111537298,135.82866482334435L185.10534844795865,67.49610665938756L185.15349028110504,81.61488805317394L185.29791578054426,88.35585224631744L185.44234127998354,92.34523628555668L185.63490861256918,94.71637988382992L185.97190144459407,95.91167694073005L186.1163269440333,96.90032117114121L186.21261061032615,97.50131894648608L186.30889427661896,98.00911669547204L186.4051779429118,98.34589772463305L186.93473810752232,98.4134214444661L186.98287994066874,98.4076588588873L187.07916360696154,98.40061976511876L187.41615643898646,98.62086147087103L187.5124401052793,98.59357496346207L187.6087237715721,98.47490821729583L187.65686560471852,98.43735001092148L187.75314927101135,98.21078404414975L187.89757477045057,98.11741894813123L188.04200026988983,98.23505506178175L188.90855326652527,98.7317732295872L189.0529787659645,98.52736083796876L189.29368793169658,98.42550825326741L189.3899715979894,98.38073133592906L189.87138992945353,98.50101810828194L190.1120990951856,98.50855756342266L190.20838276147842,98.44057103677225L190.4009500940641,98.43279832428425L190.64165925979614,98.3860196790195L190.68980109294256,98.62050274007467L190.93051025867464,-0.6341408268140925L191.1712194244067,43.7916024017697L191.2675030906995,65.59352544071683L191.8933469216029,78.71443184091349L192.13405608733495,86.68023509739898L192.23033975362776,91.48587765316104L192.42290708621343,94.17346795498456L192.56733258565265,95.81152108966103L192.85618358453112,96.71330475745928L193.193176416556,97.29829587492037L193.24131824970246,97.68629995169115L193.48202741543452,97.94749412709425L194.5411477446556,98.00345801412959L194.82999874353408,98.1247089469936L194.9262824098269,98.15972263595027L195.16699157555897,98.23046673409043L195.26327524185183,98.15048693682029L195.45584257443744,98.22775505958111L195.50398440758386,98.26641312277552L196.56310473680497,98.34549061309525L196.70753023624422,14.426901289077762L197.52594139973323,47.9956400162707L198.58506172895432,68.08549981132686L199.21090555985768,80.19967281858692L199.88489122390746,87.53043141058488L200.17374222278593,91.9027816014115L200.22188405593238,94.47934158265073L200.41445138851802,96.02528435181168L200.4625932216644,96.9071635095138L200.60701872110366,97.50282807056794L200.7033023873965,97.99267441192374L201.04029521942138,98.11662636945871L201.32914621829985,98.15341674949373L201.4735717177391,98.19503199332563L201.810564549764,96.5941457638627L201.8587063829104,97.47819774577883L202.05127371549608,117.62071709291445L202.09941554864247,105.22946183155696L202.24384104808172,102.45138143284075L202.38826654752094,100.80821698222294L202.62897571325303,99.81797190466422L202.8215430458387,99.24314011020348L203.0141103784243,98.87373999666436L203.20667771100997,98.63429317994347L203.2548195441564,98.50890458590524L203.3029613773028,98.44558521305407L203.83252154191334,98.40085354104046L204.025088874499,98.36089232571635L204.7953582048416,99.32531850458578L205.22863470315934,98.87796047928423L205.8544785340627,98.66614413674203L205.9507622003555,98.54010053058585L206.2877550323804,98.44281737684621L206.57660603125888,98.38444568918302L206.9617406964302,98.32040748530045L207.3950171947479,98.29613531901056L207.7320100267728,98.27960232628341L207.82829369306566,98.32099784042731L207.87643552621205,98.81356890894078L208.16528652509055,98.63014166304028L208.30971202452977,98.50814070958583L208.45413752396902,98.46382466297842L208.69484668970108,98.37341478225623L209.70582518577575,98.3370833384753L209.850250685215,98.32212781405484L210.13910168409348,98.30150208353177L210.33166901667911,98.21561973565574L210.52423634926478,98.2670273290971L210.76494551499684,98.28567500085745L210.86122918128967,98.27419536733063L211.00565468072892,98.28351424709143L211.05379651387534,98.26583864581285L211.82406584421793,98.33236453255627L212.59433517456054,100.12669197075365L212.97946983973185,99.51196431360556L213.60531367063524,99.0275291326176L213.8941646695137,103.24847375593421L213.94230650266013,104.9626245243292L213.99044833580652,101.4976916061509L214.1830156683922,100.19415941693438L214.27929933468502,99.41108404990453L214.6162921667099,98.92732075326269L215.09771049817405,98.73417439427082L215.14585233132044,98.56462910862933L215.43470333019891,98.45295408938867L215.53098699649175,98.37573187937119L215.62727066278458,98.3524928395954L216.1086889942487,98.28346483895885L216.1568308273951,98.20073838794849L217.02338382403056,98.82762401598077L217.6010858217875,98.52600455029965L218.13064598639806,98.71856244026765L218.27507148583732,103.95609984402151L219.14162448247276,102.09313423905701L219.18976631561915,100.34940042422473L219.57490098079046,99.50280212914183L219.62304281393685,152.4367217540507L219.91189381281535,130.7740317231857L220.0563193122546,117.81576461199515L220.44145397742588,110.03342509838795L220.5377376437187,105.44360499462789L220.8265886425972,100.88527566888665L220.87473047574363,98.94492551470495L220.92287230889002,98.90484229564923L221.30800697406133,98.77852642420723L221.5968579729398,99.01765421117899L221.64499980608622,99.10479084567405L221.8375671386719,98.84049576407605L222.75226196845372,-115.11961082970365L223.0411129673322,-29.749082943536344L223.0892548004786,21.471345838048627L223.32996396621067,52.15815844077775L223.3781057993571,70.61989873553975L223.52253129879634,81.68708733368418L223.57067313194275,89.70292708197206L223.71509863138198,93.19157656971915L223.85952413082123,95.1747427926102L224.00394963026045,96.88728483296288L224.4853679617246,97.60235978830151L224.67793529431026,97.87902590524925L224.7742189606031,98.01823274355682L224.82236079374948,98.2150041499643L225.01492812633515,98.24175268588972L225.06306995948157,98.21589174133557L225.9777647892634,98.24490015738141L226.3147576212883,98.25570111559414L226.60360862016677,98.29966083915521L226.79617595275244,100.54188942381677L226.94060145219166,99.80095584574946L227.03688511848452,99.20891233844152L227.47016161680222,99.09778013334832L227.85529628197352,103.05962336695686L228.09600544770558,101.44055768890661L228.28857278029125,100.09600463492673L228.4329982797305,99.36191620818676L228.62556561231614,98.95377391259143L228.72184927860894,98.68187148673981L229.10698394378028,-46.58580095208404L229.15512577692667,12.256286303513532L229.39583494265875,46.565148731951375L229.44397677580517,63.78171085135784L229.49211860895156,78.22390161205244L229.54026044209797,86.02029103185956L229.6365441083908,91.3276542051364L229.9735369404157,93.70568219158689L230.06982060670853,16.816941731607404L230.3105297724406,42.03070667744418L230.79194810390473,64.54511697533705L230.84008993705115,62.364171344083275L230.98451543649037,76.63875349212249L231.0807991027832,84.6822469305662L231.17708276907604,91.17737427280261L231.22522460222243,94.05153687621156L231.75478476683298,95.76666648761416L231.8029265999794,96.74866947703688L231.99549393256507,97.35803793542303L232.33248676458996,97.65331265847279L232.5250540971756,98.43753478902138L232.57319593032202,98.46115385577615L232.8620469292005,98.58938881067002L232.95833059549332,98.44955238772931L233.19903976122538,98.4607848690127L233.53603259325027,98.39025892592137L233.6323162595431,98.34950826667658L233.82488359212874,98.32321028024081L233.92116725842158,98.07855777987409L233.96930909156802,98.075246174145L234.64329475561777,98.17550854821239L235.02842942078908,98.2446546490051L235.17285492022833,98.24357044534261L235.26913858652114,98.28187557540151L235.41356408596036,98.32386408729802L235.4617059191068,98.33400210498309L235.70241508483886,98.30144605674072L235.89498241742453,98.31044803268752L236.2319752494494,98.33997840560453L236.42454258203506,98.3138821835232L236.95410274664562,98.33306816369634L237.09852824608484,98.32020303308536L237.14667007923126,98.35141382161892L238.20579040845234,98.48895978766237L238.25393224159876,98.42677369017842L238.3502159078916,98.35179312106477L238.6390669067701,98.34125452083694L238.68720873991649,98.31904553538446L239.12048523823418,98.3361154168719L239.26491073767346,98.3462412234278L239.45747807025907,98.35610245603856L239.69818723599116,98.34588282874017L240.1796055674553,98.31430426296095L240.42031473318738,97.9163705731343L240.5647402326266,98.11576271333526L240.75730756521224,98.39563077156002L240.94987489779788,98.48045105669142L240.99801673094433,96.45908799367277L241.2868677298228,97.26674719367628L242.58669722477595,115.26153638574296L243.1162573893865,108.50047823002251L243.4532502214114,104.40230309758496L243.69395938714345,101.96843611090682L244.12723588546115,100.52678643089435L244.31980321804681,99.62081660305648L244.41608688433965,117.86210201664267L244.6086542169253,110.1318484002978L245.619632713,105.37170671376305L245.6677745461464,102.67405634585941L245.7640582124392,100.94276678339753L245.81220004558563,99.90172299145907L246.34176021019618,99.59081525419191L246.96760404109955,99.35748194752529L247.16017137368522,104.96591202146334L247.35273870627083,102.27800309974364L247.4490223725637,100.65659177429484L247.64158970514933,99.6771284631915L247.68973153829575,99.06189346014004L247.73787337144216,98.73427964464483L248.02672437032064,98.54795932984986L248.41185903549194,98.44997027577546L249.13398653268814,59.974192904346566L249.18212836583456,83.20396916844572L249.71168853044512,89.18235770047679L250.1449650287628,92.81825972613261L250.33753236134848,95.02616759358223L250.3856741944949,96.33157809621274L250.4819578607877,97.12122257137041L251.1559435248375,97.64968450763776L251.25222719113032,97.88340714683225L251.34851085742315,98.04623865488207L252.11878018776576,98.14376422815256L252.16692202091218,98.2132210383377L252.21506385405857,98.25042555676299L252.74462401866913,98.26838924070636L252.84090768496193,98.28345851804582L253.56303518215816,98.28689218828985L253.65931884845097,98.27158174779781L253.90002801418305,98.21005979412418L254.33330451250075,98.2521767919601L254.47773001194,98.26748264006802L254.5258718450864,98.20205513717711L254.62215551137922,98.25504190740995L255.29614117542903,98.30144134203634L255.63313400745392,98.30652269285041L256.5478288372358,98.209242497202L256.64411250352856,98.22145340390529L256.83667983611423,98.2698526603106L256.9811053355535,98.29119072316384L257.0292471686999,98.2919050047229L257.22181450128556,98.30043797850529L257.510665500164,98.28717852792028L257.5588073333105,98.27567022601312L257.7513746658961,98.27849372956307L257.7995164990425,98.2769790018975L257.94394199848176,98.28596949619198L257.9920838316282,98.28731339656491L258.13650933106743,98.28911174993219L258.66606949567796,98.24872041140415L258.90677866141,98.30215275040841L259.05120416084924,98.25742030939331L259.1956296602885,98.28091789483138L259.34005515972774,98.20454182038145L259.58076432545977,98.21725451552133L259.82147349119185,98.22891646778679L260.2066081563632,98.25383508379439L260.302891822656,98.26509299664463L260.3991754889488,98.26021939914882L260.6880264878273,98.28286288769694L260.88059382041297,98.27196463726294L261.26572848558425,98.25843957984122L261.7952886501948,98.53565390319004L262.03599781592686,98.46197358412536L262.1804233153661,98.41756440236944L262.42113248109814,98.4172911203615L262.46927431424456,98.33482478681928L262.56555798053745,98.30574703350716L262.70998347997664,98.32202112903762L262.75812531312306,98.3038165715126L262.8544089794159,98.28824668740636L263.5283946434657,98.28887965892018L263.76910380919776,98.28871375808185L264.15423847436904,98.24248752227616L264.2505221406619,98.23855831253329L264.44308947324754,98.23155454299786L264.68379863897957,98.29153858577864L264.731940472126,98.2935934081711" fill="none"></path></g></g></g></g><g opacity="0.2"><g><g><g><path style="fill: none;" stroke="rgb(255, 112, 67)" stroke-width="2px" d="M24.07091657320658,38.59937468152408L24.26348390579224,18.503690353334324L24.552334904670715,-173.20834462432086L25.948448065916697,811.716378186669L26.092873565355937,107.8146207619689L26.14101539850235,13.082779258490588L26.285440897941587,-142.25600331465634L26.62243372996648,8.818629517082277L26.718717396259308,471.4478084994221L26.766859229405718,-80.39738840356134L27.248277560869855,9.27215350800697L27.392703060309096,-16.868256719030047L27.440844893455505,28.305622506032197L27.48898672660192,55.97931737272412L27.585270392894746,-0.0687116663828639L27.681554059187572,340.41110665559455L27.777837725480396,33.074785000156L27.874121391773226,83.41012392177198L27.97040505806605,33.27000291219706L28.162972390651703,129.99872379668167L28.211114223798116,33.4883221603496L28.355539723237356,108.18386630253329L28.499965222676597,106.36168187199577L28.836958054701487,61.60968508044489L28.8850998878479,17.99846765663598L29.703511051336925,205.19353534955056L29.847936550776165,292.14041122169516L29.94422021706899,74.7441011862142L30.040503883361815,70.06042900660161L30.136787549654642,-98.15427051994678L30.184929382801055,71.08206141508377L30.52192221482595,116.57007119896603L30.66634771426519,-0.432889496611556L31.051482379436493,-65.50052817737078L31.29219154516856,35.98116327156131L31.340333378314973,64.76915457216016L31.58104254404704,91.16185092182292L32.06246087551117,126.16586272901579L33.07343937158585,68.3414039261309L33.31414853731791,150.83465186335695L33.45857403675715,90.8953082906126L34.80654536485672,221.915731040521L34.902829031149544,61.768935089426314L34.95097086429596,121.63833638663836L35.239821863174434,58.98475921203103L35.817523860931395,62.26450411191383L35.96194936037064,111.13603110719558L36.106374859809875,72.11722771245952L36.2026585261027,111.56570396207007L36.44336769183477,233.2881491568326L36.73221869071325,64.21448631850394L36.780360523859656,152.57315299723552L36.82850235700607,38.957370411258154L36.87664419015249,123.70495934619318L37.6469135204951,186.22106257653894L38.12833185195923,42.6061143549755L38.22461551825205,110.41482947540338L38.32089918454488,6.284380704255614L38.41718285083771,129.4643038903702L38.70603384971619,156.07716680778447L38.754175682862595,64.2618511806319L39.18745218118031,123.66233509417768L39.331877680619556,-62.42189461704726L39.572586846351626,122.02390413461842L40.05400517781575,53.079016229821995L40.43913984298707,163.73088839509728L40.631707175572714,188.55703429357462L40.67984900871913,35.681843136030544L40.727990841865534,178.2700265685314L41.06498367389043,139.3076512426824L41.20940917332967,4.519066724568992L41.594543838500975,223.90077389224493L41.78711117108663,46.99136803348361L42.60552233457565,70.96329872829254L42.65366416772207,107.42124009862752L42.70180600086848,104.12518142657837L43.18322433233261,-5.812599084823487L43.27950799862544,19.575236943736027L43.71278449694315,126.65440612607765L43.95349366267522,35.3918880017342L44.43491199413935,108.40127735551008L44.9644721587499,127.5437831978716L45.01261399189631,70.17488971624452L45.54217415650686,82.99275997014125L45.92730882167816,102.06401935370214L45.97545065482458,271.9154276430756L46.071734321117404,111.31219004204469L46.456868986288704,149.44857169666818L46.69757815202077,218.53152401317791L46.7938618183136,101.72098517880748L46.98642915089925,-5.236310349934733L47.27528014977773,34.04609833475171L47.949265813827516,126.49273051429452L48.14183314641316,226.00663200809228L48.286258645852406,-67.12805892032111L48.57510964473089,170.48896270862872L49.10466980934143,117.87350279291128L49.249095308780674,118.20483938582471L49.537946307659155,84.17898846116778L49.58608814080556,121.67905802130939L49.82679730653762,249.50882616280188L50.0675064722697,152.55160749599685L50.211931971708935,76.02720757832101L50.548924803733826,122.9325604373363L50.597066636880236,108.51726765702792L50.64520847002665,85.51639442758562L50.93405946890513,11.678733885270448L50.98220130205154,108.47706057256484L51.27105230093002,109.88332160460385L51.41547780036926,61.9107185088356L51.511761466662094,0.22209823984359492L51.60804513295491,104.40783304084677L51.65618696610133,77.17093553432194L51.800612465540574,60.61181758101998L51.84875429868698,99.75897512679438L51.99317979812622,124.89780482167875L52.2820307970047,157.40757807802413L52.52273996273677,49.00827738260247L53.10044196049372,80.06201226347812L53.148583793640135,121.5106042180804L53.63000212510427,159.36512201699608L54.111420456568396,149.83524727405768L54.15956228971481,-19.96543283183776L54.30398778915405,220.22045587310876L54.35212962230047,97.06025137097595L54.49655512173971,45.917823226245275L54.59283878803253,51.09676263387005L54.64098062117895,215.4364323441998L54.737264287471774,170.91677605965523L54.78540612061819,152.7674299103535L54.88168978691101,93.40769387447659L55.26682445208231,135.28113559584764L55.31496628522873,128.58509035674535L55.55567545096079,109.32585940892602L57.19249777793885,41.086633532192145L57.24063961108525,27.67615795949056L57.28878144423167,175.95987046338527L57.336923277378084,107.0895351664942L57.914625275135045,61.188188793901965L58.203476274013525,107.32441936979257L58.299759940306345,191.85268245015735L58.54046910603841,44.52505859310295L59.214454770088196,40.55376571175377L59.262596603234606,107.0622152684776L59.40702210267385,-74.17359903235243L59.64773126840591,26.36883677836328L59.93658226728439,120.31429279237814L59.9847241004308,143.16793624310637L60.08100776672363,42.48924303852966L60.12914959987005,55.833623746634466L60.273575099309284,98.74301290461432L60.65870976448059,13.747574378143966L60.99570259650548,192.45082035525994L61.33269542853038,68.36641725208607L61.71783009370168,61.202116327763406L61.814113759994505,48.032116591403046L61.86225559314092,218.84314086770343L61.91039742628733,160.56404087198518L62.24739025831222,142.58974301637335L62.58438309033712,93.18592414073113L62.776950422922766,112.71958046024136L63.16208508809408,119.97086192645341L63.21022692124048,49.08297245249619L63.69164525270462,140.1260278837806L64.12492175102234,160.26898709810564L64.26934725046158,69.22617535180134L64.46191458304723,30.725909226175204L64.55819824934005,225.81685764360626L64.60634008248647,192.76719094139685L64.84704924821854,169.28507642904572L64.89519108136494,158.20142126512795L65.03961658080418,-3.1810037459548326L65.13590024709701,122.95898151267642L65.23218391338985,124.35396180463759L65.32846757968267,-8.678057024574018L66.00245324373246,218.62994275313224L66.09873691002528,106.68605282347863L66.29130424261093,162.31698315268318L66.96528990666071,105.6285424879295L67.6392755707105,227.01142390995113L68.36140306790669,-10.448709579824216L68.45768673419953,139.7499244855268L68.55397040049235,50.455170073319856L68.89096323251724,-153.86833491735516L69.95008356173834,-82.8134087620531L69.99822539488476,140.64335235148963L70.52778555949529,156.1990767798184L70.67221105893454,97.43374757425535L70.96106205781301,201.2107105451441L71.00920389095941,-84.1881219616711L71.05734572410583,143.49527265334683L72.26089155276615,135.6716726429215L72.59788438479106,17.71169167407974L72.69416805108388,113.93767732316266L73.1274445494016,57.781105370429L73.32001188198726,123.71285286504789L73.70514654715855,94.3027792669289L73.75328838030498,91.32378615183481L73.80143021345138,169.9290945923976L73.8495720465978,114.82584909155514L74.1865648786227,129.2901666036058L74.66798321008683,139.65789779004993L74.71612504323323,109.85411689699129L75.24568520784378,-49.79799292104372L75.39011070728303,73.05177835606058L75.43825254042943,336.2480224479242L75.91967087189356,200.91885841700287L76.11223820447923,102.41321149490588L76.20852187077203,127.59726080399986L76.25666370391846,152.21775907328876L76.4010892033577,-41.04536829256556L77.31578403313955,22.610382107614708L77.60463503201802,185.44549951194074L77.70091869831086,126.97578537580509L78.08605336348215,181.40897403592427L78.90446452697118,298.3386923989894L79.67473385731378,37.704053570716056L79.86730118989945,46.170805725564094L80.15615218877792,110.49154056988229L80.34871952136358,-29.993917036015134L80.49314502080281,184.5142404900706L80.54128685394923,57.03235140263919L80.73385418653488,-2.243926276560379L80.7819960196813,-23.280733244813906L80.87827968597414,83.32522501196243L81.02270518541337,41.80298864463055L81.11898885170618,167.39546811352008L81.21527251799901,136.23152576315383L81.26341435114543,110.75555168904954L81.69669084946314,53.72863164971632L82.2262510140737,244.18080778236424L82.32253468036652,152.35599968798766L82.37067651351293,39.84996599928898L82.56324384609859,120.27382234068658L82.85209484497706,146.12791396312997L82.9965203444163,131.29543530867628L83.04466217756271,82.33107183398387L83.18908767700195,66.2503281160751L83.42979684273402,148.01198125710857L83.86307334105173,163.3802519517616L84.34449167251586,-91.67748365342025L85.01847733656565,100.49164037955569L85.06661916971206,-106.6036160692178L85.11476100285849,99.29369532723697L85.54803750117621,74.1845704799555L85.69246300061545,98.84557077454276L85.78874666690827,102.78432919219225L86.07759766578674,98.03862227071737L86.12573949893316,101.07276649561148L86.36644866466521,99.47966223106555L86.46273233095805,140.01084361719683L86.70344149669012,98.48590420644139L86.84786699612935,105.50272840133972L87.23300166130066,123.48373087427845L87.28114349444706,132.58723563107236L87.47371082703273,102.32559268581868L87.56999449332554,95.55811096049378L87.81070365905761,98.63528838590511L88.0514128247897,96.85982539542314L88.0995546579361,98.60211934542917L88.29212199052174,99.8882003344803L89.2068168203036,98.18706728914653L89.54380965232849,98.41484655956671L89.5919514854749,-467.4453764266186L89.68823515176773,98.14879681930441L89.83266065120696,72.00593865655735L89.97708615064622,99.79971374912027L90.07336981693904,101.06187260543953L90.31407898267109,100.14702002632194L90.50664631525676,109.1929133190443L90.84363914728165,98.40361156900082L90.98806464672089,-318.43136628042527L91.08434831301372,514.4209124343964L91.61390847762425,103.56788418688708L91.80647581020992,361.626680925234L92.19161047538121,174.1412831980537L92.28789414167404,100.22659090462957L92.48046147425968,95.89586771538235L92.81745430628459,99.77686535333187L94.45427663326264,98.34893177143374L95.12826229731242,98.61529936389857L96.09109896024069,102.93483747113827L97.00579379002252,98.01960800327566L97.15021928946177,-120.65374222062835L97.39092845519384,35.66605609832114L97.48721212148666,98.18605779775639L97.53535395463308,96.80583944836772L97.92048861980439,98.09227342917124L98.30562328497568,98.13562302476028L98.35376511812211,98.45937329712591L98.45004878441492,98.39975647700929L98.49819061756135,98.18171160144959L98.54633245070775,98.36343707593934L98.64261611700059,98.22902208477632L98.78704161643982,97.50221473556445L98.88332528273264,97.97756639853286L99.26845994790395,98.20943461944496L99.99058744510015,96.33629352147157L100.1831547776858,98.48621686715802L100.32758027712504,98.3411629141411L100.37572211027145,98.2288342357282L101.19413327376047,99.05679873119688L101.2904169400533,98.19939441018566L101.33855877319972,99.08488822855682L101.53112610578536,98.72944392742669L101.6274097720782,98.489989722791L101.6755516052246,98.54309298544202L101.77183527151743,98.44150471520382L101.91626077095667,98.39068146675899L102.10882810354232,98.44276741051858L102.49396276871363,98.56051362047884L102.63838826815287,98.3114074294144L102.92723926703135,95.19957678067873L103.16794843276342,116.99455731276454L103.26423209905624,7.238253692277075L103.36051576534908,-24.986955491331255L103.40865759849548,88.99325142160465L103.55308309793472,272.5911773398334L103.93821776310602,76.81350590354158L104.03450142939886,137.80917981418153L104.08264326254528,58.29242019162932L104.13078509569168,149.61372638016687L104.37149426142375,171.7419983741938L104.51591976086299,109.39256348597303L104.5640615940094,151.35308603497526L104.75662892659506,102.48943147042495L104.90105442603429,97.77584889258563L105.18990542491278,98.91246271162129L105.38247275749842,98.36692480257219L105.47875642379124,98.35746385037687L106.15274208784103,310.83871214912017L106.20088392098744,140.30115490646406L106.48973491986592,98.34499703516555L106.68230225245158,98.40644152192179L106.730444085598,98.35216860065545L107.06743691762287,98.41804956724629L107.30814608335496,98.21318109295704L107.59699708223343,98.37421711221236L107.69328074852626,98.29886078503921L107.8377062479655,98.44594451202448L108.27098274628322,98.37168713052272L108.31912457942963,98.36650033819086L108.36726641257603,98.15221450115L108.5598337451617,98.38498719752722L108.99311024347942,109.58755458353261L109.47452857494355,98.28692106124525L109.52267040808995,96.80478445642271L109.61895407438278,98.11073963972025L109.81152140696842,-120.43589534643719L110.19665607213975,98.36242160225866L110.29293973843258,98.25515969510101L110.43736523787182,98.14374988955684L110.58179073731105,98.15903005079207L110.67807440360387,98.27734033578622L110.72621623675029,97.9951279725269L111.15949273506801,98.34160801998752L111.25577640136083,98.24311218390474L111.64091106653214,98.43253697613615L111.78533656597138,98.67294869872484L112.79631506204605,99.30779754105288L113.6628680586815,98.22267066788636L113.7110098918279,98.57655866551873L113.80729355812073,98.43536345830353L113.85543539126714,98.33192351171868L114.0961445569992,98.25928699778656L114.14428639014562,97.9874591886304L114.28871188958486,98.39329014815316L114.33685372273126,98.2535852635056L114.4812792221705,98.4714634257352L115.10712305307389,164.2117650877859L115.20340671936671,113.59653990780045L115.25154855251313,97.33103628823007L115.34783221880595,63.55284785659249L115.44411588509878,75.26214733636422L115.5403995513916,-28.208913309938136L115.63668321768442,44.79367817014345L116.11810154914856,90.25845071667536L116.50323621431986,260.00815473648805L116.6476617137591,98.85448044804879L116.69580354690552,98.44884462688896L116.79208721319834,98.31373038138271L116.88837087949118,98.09151633625657L116.98465454578401,106.06870551257144L117.03279637893041,98.25016223091481L117.12908004522325,98.26599971262328L117.3697892109553,98.08220844868937L117.4179310441017,98.148651648078L117.85120754241943,98.32151553437618L118.66961870590846,98.32421104685014L118.8621860384941,98.32396326506279L119.05475337107977,98.1637204008774L119.34360436995824,99.61288902729935L120.16201553344726,98.35144920276112L120.21015736659369,98.3110456070104L120.3064410328865,98.34466789203034L120.49900836547216,99.16451235437572L121.0285685300827,98.14100638329674L121.12485219637553,98.29397063230813L121.26927769581476,98.27877846193083L121.3655613621076,98.24809540994657L121.60627052783965,98.00158046962441L121.65441236098609,98.10406218799659L121.99140519301096,98.31402912613466L122.23211435874303,98.30900820141132L122.42468169132869,98.29401522124101L122.66539085706076,98.25360995052215L122.76167452335358,97.94024387644332L122.8098163565,98.48841842329445L123.29123468796412,101.93784466020435L123.33937652111054,97.02791085943227L123.67636935313541,98.2479241202008L123.9652203520139,98.3143800054136L124.01336218516032,97.89435518294471L124.20592951774597,98.63640450411856L124.35035501718521,98.30439411820794L124.39849685033161,98.34530145101175L124.78363151550293,98.21156439541734L125.0724825143814,98.07502004931217L125.3613335132599,98.50974172307863L125.45761717955271,98.35161951132338L125.60204267899196,98.38941106109917L125.7464681784312,98.70935265731133L125.7946100115776,100.17960855762661L126.1316028436025,98.30113438860236L126.22788650989533,98.22805824770862L126.70930484135945,98.15328776946853L127.14258133967716,98.33222554782874L127.23886500597,95.19135569297579L127.52771600484849,98.3755467842853L127.9128506700198,97.90000208444401L128.49055266777674,98.22835763315875L128.53869450092316,98.20791575468826L128.634978167216,98.07865200992151L128.6831200003624,97.98954222658509L128.97197099924088,101.47395421650211L129.21268016497294,98.60014986116047L129.5015311638514,98.0076781004697L129.79038216272988,100.46231125201584L129.83852399587633,98.388752394071L130.07923316160836,98.26084221758911L130.65693515936533,98.1858535797848L130.80136065880455,98.51817878831079L130.8976443250974,97.47930494990605L131.1864953239759,97.65053184134587L131.28277899026872,98.21699441142655L131.3309208234151,98.20662835405132L131.37906265656153,98.28298393013877L131.47534632285436,98.32560615800561L131.95676465431848,98.8141846763117L132.00490648746492,84.08683148795156L132.63075031836829,98.23238365610503L132.87145948410034,98.28141523073278L133.1121686498324,98.36949397302426L133.25659414927165,98.1890982438301L133.30473598241807,98.22411915835389L133.35287781556448,98.25019034109026L133.4973033150037,98.21276280124513L133.64172881444296,98.34660704747728L133.68987064758937,98.43440837134256L133.7861543138822,98.28454724973935L133.97872164646785,95.69718853937427L134.36385631163915,98.28783839003135L134.74899097681046,98.28616827931413L134.8934164762497,97.9088197903013L135.18226747512819,98.31095035898693L135.278551141421,98.22445140612946L135.51926030715308,98.35022683848216L135.9525368054708,98.2851896503558L136.28952963749566,98.30667826217163L136.57838063637416,98.02722708363719L136.674664302667,98.25465944710723L136.72280613581339,98.15659853892247L136.7709479689598,98.18312805700761L137.44493363300958,94.95661535754068L137.493075466156,99.12518077849732L137.78192646503447,98.30481444184841L138.26334479649861,97.29098648601975L138.6003376285235,98.30483444261532L138.8410467942556,98.23963097408775L138.9373304605484,98.30223125841162L139.03361412684123,98.34455855596896L139.17803962628048,98.28248340893298L139.22618145942687,98.15581594255872L139.41874879201254,98.34027362505364L139.5631742914518,98.01548436721433L139.6594579577446,97.99240265477313L139.75574162403743,98.8054347453395L139.80388345718384,97.72155839788326L140.0445926229159,98.28683555732597L140.57415278752646,98.28073490032587L140.91114561955135,98.23585256085562L141.44070578416188,98.1884762833165L141.63327311674755,98.75273291854627L141.92212411562602,98.27939809648119L141.97026594877244,98.24539845498637L142.11469144821166,98.29673032626562L142.30725878079733,98.24903661572363L142.35540061394374,98.14112137214671L142.49982611338297,85.57225827201879L142.5961097796758,98.0164874882339L143.12566994428636,98.33530054401L143.17381177743275,98.36952542947482L144.13664844036103,98.18598954692408L144.56992493867872,98.44206955472798L145.532761601607,98.27091651016153L145.67718710104623,96.75768799924157L145.82161260048548,98.24790838465329L146.11046359936398,99.11955880198816L146.2067472656568,98.32677413982225L146.39931459824246,98.31096097627122L146.49559826453526,98.37038824857422L146.73630743026735,98.33839281341443L147.16958392858504,105.7362812411219L147.26586759487788,98.46409374172049L147.60286042690277,98.32722608832536L147.65100226004918,98.37263332825395L148.0361369252205,98.27404591717888L148.4694134235382,98.23511120714963L148.9026899218559,98.24748775530826L148.99897358814877,98.26154925916119L149.28782458702725,96.95305575411412L149.48039191961288,98.45675652462889L149.5285337527593,98.28061646383317L149.62481741905214,98.27981418247518L149.8655265847842,98.30091642307819L149.96181025107703,98.26414544053365L150.29880308310192,101.54333156464305L150.44322858254117,98.52059087421125L150.49137041568756,98.74846017187993L150.73207958141964,98.25380967628412L152.08005090951917,98.29971839800815L152.27261824210484,98.0407299261271L152.8984620730082,98.26757474006801L152.99474573930104,98.33893287073259L153.09102940559387,98.75159562434236L153.33173857132596,98.28422021724707L153.37988040447235,98.5018324613541L153.57244773705798,98.29275321879557L154.43900073369343,98.32937393564781L155.06484456459683,98.30672338562984L155.25741189718246,100.41024842464691L156.12396489381788,101.55870457219883L156.60538322528203,98.32904209059681L156.65352505842844,98.27453864452L156.74980872472125,98.22233525323115L156.79795055786767,98.26641248151678L156.94237605730692,98.2430801233673L156.99051789045333,98.28654887692093L157.47193622191747,98.43582000152793L158.09778005282084,98.2797066291565L158.2903473854065,171.72877190327506L158.3866310516993,97.52789386043395L158.57919838428498,98.25229737776858L158.91619121630987,98.29214662405514L158.9643330494563,98.22195258433861L159.54203504721323,98.59463783578295L159.59017688035965,97.9725601659343L159.92716971238454,98.38937436922913L159.97531154553093,98.32985937985227L160.216020711263,131.85106330625402L160.74558087587357,282.88069689467136L160.93814820845924,98.42829857089282L160.98629004160563,98.32838817571863L161.08257370789846,98.21392525475167L161.1788573741913,97.91936145023638L161.612133872509,98.34220504818872L161.70841753880183,98.38609749453998L161.9009848713875,98.25123320919494L161.9972685376803,98.32292464204123L162.7675378680229,98.28575006357073L163.008247033755,98.66898099761949L163.0563888669014,98.72661841179831L163.58594903151194,98.21915673120584L163.73037453095117,98.42985919452694L163.87480003039042,98.40803537399462L163.97108369668325,-250.17782766011143L164.06736736297606,108.76560514572648L164.1155091961225,98.70679832909046L164.16365102926892,99.32008816792313L164.35621836185453,98.44439510610034L164.59692752758662,98.35620366659903L164.98206219275795,98.40673208404257L165.3190550247828,98.32124148030188L165.51162235736845,98.37271328738805L165.9448988556862,98.36345385124852L166.47445902029673,98.2638351082973L166.95587735176085,159.0927271972642L167.29287018378577,98.72909011558062L167.3891538500786,98.03576225257618L167.53357934951782,122.81402643952642L167.91871401468913,113.02828153025521L168.01499768098196,98.34317404013099L168.20756501356763,98.36998662965978L168.25570684671402,98.25081655583985L168.30384867986044,98.27843095020734L168.4964160124461,98.25887039934844L168.5445578455925,98.30622700196145L168.64084151188533,98.32911043295744L169.17040167649586,98.24146180760702L169.2666853427887,98.35037844597953L169.3148271759351,98.59172085041985L169.79624550739925,98.35046722844297L171.1442168354988,98.43935858861367L171.28864233493803,98.45500591750637L171.3849260012309,98.62519440925372L171.52935150067012,98.35305189280785L172.2033371647199,98.26793643250184L172.25147899786631,98.1802805599396L172.29962083101273,98.28549211024195L172.68475549618404,98.2596557562061L172.73289732933043,97.84374983778478L172.9254646619161,98.29091472252595L173.3105993270874,98.61809679131832L173.40688299338024,98.34376458080537L173.45502482652665,98.29997036263943L173.6475921591123,98.47742016155684L173.6957339922587,98.28026201929761L173.93644315799077,98.29552856134873L174.46600332260132,98.32398686106183L174.61042882204057,98.29983375663252L174.65857065518696,98.33140271927982L174.8029961546262,98.34428343650512L174.89927982091905,98.42207323974547L175.18813081979752,98.42169312632343L175.33255631923674,98.29980228004574L175.62140731811522,98.6644978090563L175.81397465070089,98.54999301937795L176.00654198328652,98.2407591081381L176.72866948048275,98.49221456373022L177.11380414565403,98.48797195550674L177.25822964509328,98.6348014845699L177.45079697767892,98.32099075130284L177.49893881082536,98.28836896501629L177.59522247711817,98.31691457450229L177.83593164285026,98.23970273960728L178.50991730690004,98.21766504669694L178.7506264726321,98.81680675012858L179.1357611378034,98.38182918516627L179.37647030353546,96.2683776974299L179.4727539698283,98.82252526337986L179.5208958029747,98.19270361729512L179.56903763612112,98.0913551878479L179.61717946926754,98.0211799764206L179.8578886349996,98.22759882317294L179.906030468146,98.31153165164058L180.2430233001709,98.23006060162501L180.38744879961015,98.23060607741928L180.53187429904938,98.01733774964876L180.5800161321958,100.1320160609235L180.62815796534218,98.59883604179132L180.77258346478146,98.33197100026851L180.82072529792785,98.3221231505726L181.06143446365994,98.24624832832119L181.10957629680632,98.19605130560934L181.25400179624555,98.19045486183833L181.3502854625384,98.30935542321888L181.49471096197763,98.32824232718269L181.92798746029536,98.52698722418053L182.0242711265882,98.55839813024552L182.120554792881,98.28913370695207L182.31312212546666,98.40814490043489L183.2278169552485,98.43308512089604L183.27595878839492,98.47588090429204L183.46852612098058,98.58169347709114L183.51666795412697,99.4945584127228L183.5648097872734,98.42312585927661L183.75737711985906,94.40976329962051L183.99808628559114,98.82226429785432L184.38322095076242,113.78100756322031L184.43136278390884,58.73916599110812L184.5757882833481,97.60608334951075L184.6239301164945,98.46199734795437L184.6720719496409,97.74974513492275L184.76835561593376,97.69954526751093L184.86463928222656,257.46972204000343L184.91278111537298,98.42448513526705L185.10534844795865,-35.0027305865476L185.15349028110504,102.7930601438535L185.29791578054426,98.46729853603271L185.44234127998354,98.32931234441554L185.63490861256918,98.27309528123976L185.97190144459407,97.70462252608024L186.1163269440333,98.38328751675797L186.21261061032615,98.40281560950338L186.30889427661896,98.77081331895103L186.4051779429118,98.85106926837453L186.93473810752232,98.51470702421568L186.98287994066874,98.39901498051914L187.07916360696154,98.39006112446596L187.41615643898646,98.95122402949944L187.5124401052793,98.55264520234863L187.6087237715721,98.2969080980465L187.65686560471852,98.38101270135995L187.75314927101135,97.87093509399209L187.89757477045057,97.9773713041035L188.04200026988983,98.41150923225752L188.90855326652527,99.4768504812954L189.0529787659645,98.22074225054108L189.29368793169658,98.27272937621537L189.3899715979894,98.31356595992155L189.87138992945353,98.68144826681126L190.1120990951856,98.51986674613372L190.20838276147842,98.33859124679664L190.4009500940641,98.42113925555229L190.64165925979614,98.31585171112239L190.68980109294256,98.97222733165742L190.93051025867464,-149.51610617714726L191.1712194244067,110.43021724464543L191.2675030906995,98.29640999913751L191.8933469216029,98.39579144120844L192.13405608733495,98.6289399821272L192.23033975362776,98.69434148680412L192.42290708621343,98.20485340771985L192.56733258565265,98.26860079167578L192.85618358453112,98.06598025915665L193.193176416556,98.17578255111202L193.24131824970246,98.26830606684734L193.48202741543452,98.33928539019888L194.5411477446556,98.08740384468263L194.82999874353408,98.30658534628958L194.9262824098269,98.21224316938529L195.16699157555897,98.33658288130066L195.26327524185183,98.0305172409151L195.45584257443744,98.34365724372235L195.50398440758386,98.3244002175671L196.56310473680497,98.46410684857489L196.70753023624422,-111.45098269694846L197.52594139973323,98.34874810706008L198.58506172895432,98.22028950391109L199.21090555985768,98.370932329477L199.88489122390746,98.52656929858189L200.17374222278593,98.46130688765143L200.22188405593238,98.34418155450955L200.41445138851802,98.3441985055531L200.4625932216644,98.22998224606697L200.60701872110366,98.39632491214921L200.7033023873965,98.72744392395738L201.04029521942138,98.30255430576119L201.32914621829985,98.2086023195462L201.4735717177391,98.25745485907353L201.810564549764,94.19281641966829L201.8587063829104,98.80427571865299L202.05127371549608,147.83449611361792L202.09941554864247,86.64257893952072L202.24384104808172,98.28426083476643L202.38826654752094,98.34347030629623L202.62897571325303,98.33260428832611L202.8215430458387,98.38089241851236L203.0141103784243,98.31963982635567L203.20667771100997,98.27512295486214L203.2548195441564,98.32082169484792L203.3029613773028,98.35060615377732L203.83252154191334,98.33375603302004L204.025088874499,98.30095050273019L204.7953582048416,100.77195777288989L205.22863470315934,98.2069234413319L205.8544785340627,98.34841962292872L205.9507622003555,98.35103512135163L206.2877550323804,98.29689264623673L206.57660603125888,98.29688815768826L206.9617406964302,98.22435017947662L207.3950171947479,98.25972706957576L207.7320100267728,98.25480283719267L207.82829369306566,98.38309111164317L207.87643552621205,99.55242551171094L208.16528652509055,98.35500079418955L208.30971202452977,98.32513927940414L208.45413752396902,98.39735059306732L208.69484668970108,98.23779996117298L209.70582518577575,98.28258617280386L209.850250685215,98.29969452742418L210.13910168409348,98.27056348774714L210.33166901667911,98.08679621384168L210.52423634926478,98.34413871925915L210.76494551499684,98.31364650849797L210.86122918128967,98.2569759170404L211.00565468072892,98.29749256673261L211.05379651387534,98.23932524389497L211.82406584421793,98.43215336267143L212.59433517456054,102.8181831280497L212.97946983973185,98.58987282788341L213.60531367063524,98.30087636113566L213.8941646695137,109.57989069090912L213.94230650266013,107.53385067692167L213.99044833580652,96.30029222888341L214.1830156683922,98.23886113310968L214.27929933468502,98.23647099935975L214.6162921667099,98.20167580829994L215.09771049817405,98.44445485578298L215.14585233132044,98.31031118016712L215.43470333019891,98.28544156052772L215.53098699649175,98.25989856434495L215.62727066278458,98.31763427993172L216.1086889942487,98.17992283800402L216.1568308273951,98.07664871143294L217.02338382403056,99.76795245802924L217.6010858217875,98.07357535177793L218.13064598639806,99.00739927521964L218.27507148583732,111.81240594965233L219.14162448247276,99.29868583161027L219.18976631561915,97.73379970197627L219.57490098079046,98.2329046865175L219.62304281393685,231.83760119141405L219.91189381281535,98.27999667688816L220.0563193122546,98.37836394520932L220.44145397742588,98.3599158279772L220.5377376437187,98.55887483898782L220.8265886425972,94.0477816802748L220.87473047574363,96.03440028343242L220.92287230889002,98.84471746706565L221.30800697406133,98.58905261704425L221.5968579729398,99.3763458916366L221.64499980608622,99.23549579741663L221.8375671386719,98.4440531416791L222.75226196845372,-436.05977072037314L223.0411129673322,98.30670888571454L223.0892548004786,98.30198901042604L223.32996396621067,98.18837734487147L223.3781057993571,98.31250917768274L223.52253129879634,98.28787023090082L223.57067313194275,101.72668670440389L223.71509863138198,98.42455080133982L223.85952413082123,98.14949212694678L224.00394963026045,99.45609789349191L224.4853679617246,98.67497222130943L224.67793529431026,98.29402508067085L224.7742189606031,98.22704300101819L224.82236079374948,98.51016125957557L225.01492812633515,98.28187548977785L225.06306995948157,98.17710032450428L225.9777647892634,98.2884127814502L226.3147576212883,98.2719025529132L226.60360862016677,98.36560042449686L226.79617595275244,103.90523230080908L226.94060145219166,98.68955547864849L227.03688511848452,98.32084707747964L227.47016161680222,98.93108182570855L227.85529628197352,109.00238821736961L228.09600544770558,99.01195917183125L228.28857278029125,98.07917505395687L228.4329982797305,98.2607835680768L228.62556561231614,98.34156046919844L228.72184927860894,98.27401784796238L229.10698394378028,-264.48730961031976L229.15512577692667,100.51941718690995L229.39583494265875,98.02844237460815L229.44397677580517,89.60655403046752L229.49211860895156,99.88718775309432L229.54026044209797,97.7148751615702L229.6365441083908,99.28869896505167L229.9735369404157,97.27272417126268L230.06982060670853,-98.5161689583618L230.3105297724406,79.85135409619932L230.79194810390473,98.31673242217636L230.84008993705115,59.09275289720261L230.98451543649037,98.05062671418133L231.0807991027832,96.74748708823174L231.17708276907604,100.92006528615721L231.22522460222243,98.36278078132503L231.75478476683298,98.33936090471809L231.8029265999794,98.22167396117096L231.99549393256507,98.2720906230022L232.33248676458996,98.09622474304746L232.5250540971756,99.61386798484429L232.57319593032202,98.4965824559083L232.8620469292005,98.7817412430108L232.95833059549332,98.23979775331827L233.19903976122538,98.47763359093783L233.53603259325027,98.28447001128437L233.6323162595431,98.2883822778094L233.82488359212874,98.28376330058714L233.92116725842158,97.71157902932404L233.96930909156802,98.07027876555134L234.64329475561777,98.32590210931345L235.02842942078908,98.34837380019418L235.17285492022833,98.24194413984885L235.26913858652114,98.33933327048989L235.41356408596036,98.38684685514279L235.4617059191068,98.34920913151066L235.70241508483886,98.25261198437714L235.89498241742453,98.32395099660772L236.2319752494494,98.38427396498007L236.42454258203506,98.27473785040121L236.95410274664562,98.36184713395603L237.09852824608484,98.30090533716893L237.14667007923126,98.39823000441925L238.20579040845234,98.69527873672749L238.25393224159876,98.33349454395255L238.3502159078916,98.23932226739426L238.6390669067701,98.32544662049523L238.68720873991649,98.28573205720573L239.12048523823418,98.36172023910312L239.26491073767346,98.36142993326162L239.45747807025907,98.3708943049547L239.69818723599116,98.3305533877926L240.1796055674553,98.26693641429208L240.42031473318738,97.31947003839434L240.5647402326266,98.41485092363668L240.75730756521224,98.81543285889715L240.94987489779788,98.60768148438852L240.99801673094433,93.42704339914478L241.2868677298228,98.47823599368155L242.58669722477595,142.25372017384302L243.1162573893865,98.35889099644184L243.4532502214114,98.25504039892861L243.69395938714345,98.31763563088963L244.12723588546115,98.36431191087563L244.31980321804681,98.26186186129969L244.41608688433965,145.22403013702194L244.6086542169253,98.53646797578048L245.619632713,98.23149418396095L245.6677745461464,98.62758079400395L245.7640582124392,98.34583243970467L245.81220004558563,98.34015730355142L246.34176021019618,99.12445364829114L246.96760404109955,99.00748198752538L247.16017137368522,113.3785571323704L247.35273870627083,98.24613971716407L247.4490223725637,98.22447478612169L247.64158970514933,98.20793349653643L247.68973153829575,98.13904095556288L247.73787337144216,98.242858921402L248.02672437032064,98.26847885765743L248.41185903549194,98.30298669466383L249.13398653268814,2.260526847203277L249.18212836583456,118.04863356459444L249.71168853044512,98.1499404985234L250.1449650287628,98.27211276461634L250.33753236134848,98.33802939475663L250.3856741944949,98.28969385015849L250.4819578607877,98.30568928410696L251.1559435248375,98.44237741203874L251.25222719113032,98.23399110562401L251.34851085742315,98.29048591695677L252.11878018776576,98.29005258805833L252.16692202091218,98.31740625361542L252.21506385405857,98.30623233440095L252.74462401866913,98.29533476662141L252.84090768496193,98.30606243405497L253.56303518215816,98.2920426936559L253.65931884845097,98.24861608705979L253.90002801418305,98.1177768636137L254.33330451250075,98.315352288714L254.47773001194,98.29044141222992L254.5258718450864,98.10391388284076L254.62215551137922,98.33452206275918L255.29614117542903,98.37104049397597L255.63313400745392,98.31414471907149L256.5478288372358,98.0633222037294L256.64411250352856,98.2397697639602L256.83667983611423,98.34245154491856L256.9811053355535,98.32319781744371L257.0292471686999,98.2929764270615L257.22181450128556,98.31323743917886L257.510665500164,98.26728935204277L257.5588073333105,98.25840777315236L257.7513746658961,98.282728984888L257.7995164990425,98.27470691039915L257.94394199848176,98.29945523763367L257.9920838316282,98.28932924712431L258.13650933106743,98.2918092799831L258.66606949567796,98.1881334036121L258.90677866141,98.38230125891478L259.05120416084924,98.1903216478707L259.1956296602885,98.31616427298844L259.34005515972774,98.08997770870658L259.58076432545977,98.23632355823119L259.82147349119185,98.24640939618497L260.2066081563632,98.29121300780577L260.302891822656,98.28197986591995L260.3991754889488,98.25290900290513L260.6880264878273,98.3168281205191L260.88059382041297,98.25561726161195L261.26572848558425,98.23815199370867L261.7952886501948,98.95147538821325L262.03599781592686,98.3514531055284L262.1804233153661,98.3509506297355L262.42113248109814,98.41688119734961L262.46927431424456,98.21112528650598L262.56555798053745,98.26213040353895L262.70998347997664,98.34643227233337L262.75812531312306,98.276509735225L262.8544089794159,98.26489186124707L263.5283946434657,98.28982911619087L263.76910380919776,98.28846490682436L264.15423847436904,98.17314816856761L264.2505221406619,98.23266449791898L264.44308947324754,98.22104888869472L264.68379863897957,98.38151464994979L264.731940472126,98.29667564175982" fill="none"></path></g></g></g></g></g></g><g transform="translate(41, 176)" clip-path="url(#clip_1)"><clipPath id="clip_1"><rect width="288" height="23"></rect></clipPath><g><g><line x1="0" y1="0" x2="0" y2="5" style="visibility: inherit;" fill="rgb(0, 0, 0)" stroke="rgb(204, 204, 204)" stroke-width="1px"></line><line x1="24.07091657320658" y1="0" x2="24.07091657320658" y2="5" style="visibility: inherit;" fill="rgb(0, 0, 0)" stroke="rgb(204, 204, 204)" stroke-width="1px"></line><line x1="48.14183314641316" y1="0" x2="48.14183314641316" y2="5" style="visibility: inherit;" fill="rgb(0, 0, 0)" stroke="rgb(204, 204, 204)" stroke-width="1px"></line><line x1="72.21274971961975" y1="0" x2="72.21274971961975" y2="5" style="visibility: inherit;" fill="rgb(0, 0, 0)" stroke="rgb(204, 204, 204)" stroke-width="1px"></line><line x1="96.28366629282633" y1="0" x2="96.28366629282633" y2="5" style="visibility: inherit;" fill="rgb(0, 0, 0)" stroke="rgb(204, 204, 204)" stroke-width="1px"></line><line x1="120.35458286603293" y1="0" x2="120.35458286603293" y2="5" style="visibility: inherit;" fill="rgb(0, 0, 0)" stroke="rgb(204, 204, 204)" stroke-width="1px"></line><line x1="144.4254994392395" y1="0" x2="144.4254994392395" y2="5" style="visibility: inherit;" fill="rgb(0, 0, 0)" stroke="rgb(204, 204, 204)" stroke-width="1px"></line><line x1="168.4964160124461" y1="0" x2="168.4964160124461" y2="5" style="visibility: inherit;" fill="rgb(0, 0, 0)" stroke="rgb(204, 204, 204)" stroke-width="1px"></line><line x1="192.56733258565265" y1="0" x2="192.56733258565265" y2="5" style="visibility: inherit;" fill="rgb(0, 0, 0)" stroke="rgb(204, 204, 204)" stroke-width="1px"></line><line x1="216.63824915885925" y1="0" x2="216.63824915885925" y2="5" style="visibility: inherit;" fill="rgb(0, 0, 0)" stroke="rgb(204, 204, 204)" stroke-width="1px"></line><line x1="240.70916573206586" y1="0" x2="240.70916573206586" y2="5" style="visibility: inherit;" fill="rgb(0, 0, 0)" stroke="rgb(204, 204, 204)" stroke-width="1px"></line><line x1="264.7800823052724" y1="0" x2="264.7800823052724" y2="5" style="visibility: inherit;" fill="rgb(0, 0, 0)" stroke="rgb(204, 204, 204)" stroke-width="1px"></line><line x1="288.850998878479" y1="0" x2="288.850998878479" y2="5" style="visibility: inherit;" fill="rgb(0, 0, 0)" stroke="rgb(204, 204, 204)" stroke-width="1px"></line></g><g transform="translate(0, 8)"><text style="text-anchor: middle; visibility: hidden; font-family: Roboto, sans-serif; font-size: 12px; font-weight: 200;" x="0" y="0" dx="0em" dy="0.95em" fill="rgb(33, 33, 33)" stroke="none" stroke-width="1px">-500</text><text style="text-anchor: middle; visibility: inherit; font-family: Roboto, sans-serif; font-size: 12px; font-weight: 200;" x="24.07091657320658" y="0" dx="0em" dy="0.95em" fill="rgb(33, 33, 33)" stroke="none" stroke-width="1px">0</text><text style="text-anchor: middle; visibility: hidden; font-family: Roboto, sans-serif; font-size: 12px; font-weight: 200;" x="48.14183314641316" y="0" dx="0em" dy="0.95em" fill="rgb(33, 33, 33)" stroke="none" stroke-width="1px">500</text><text style="text-anchor: middle; visibility: inherit; font-family: Roboto, sans-serif; font-size: 12px; font-weight: 200;" x="72.21274971961975" y="0" dx="0em" dy="0.95em" fill="rgb(33, 33, 33)" stroke="none" stroke-width="1px">1k</text><text style="text-anchor: middle; visibility: hidden; font-family: Roboto, sans-serif; font-size: 12px; font-weight: 200;" x="96.28366629282633" y="0" dx="0em" dy="0.95em" fill="rgb(33, 33, 33)" stroke="none" stroke-width="1px">1.5k</text><text style="text-anchor: middle; visibility: inherit; font-family: Roboto, sans-serif; font-size: 12px; font-weight: 200;" x="120.35458286603293" y="0" dx="0em" dy="0.95em" fill="rgb(33, 33, 33)" stroke="none" stroke-width="1px">2k</text><text style="text-anchor: middle; visibility: hidden; font-family: Roboto, sans-serif; font-size: 12px; font-weight: 200;" x="144.4254994392395" y="0" dx="0em" dy="0.95em" fill="rgb(33, 33, 33)" stroke="none" stroke-width="1px">2.5k</text><text style="text-anchor: middle; visibility: inherit; font-family: Roboto, sans-serif; font-size: 12px; font-weight: 200;" x="168.4964160124461" y="0" dx="0em" dy="0.95em" fill="rgb(33, 33, 33)" stroke="none" stroke-width="1px">3k</text><text style="text-anchor: middle; visibility: hidden; font-family: Roboto, sans-serif; font-size: 12px; font-weight: 200;" x="192.56733258565265" y="0" dx="0em" dy="0.95em" fill="rgb(33, 33, 33)" stroke="none" stroke-width="1px">3.5k</text><text style="text-anchor: middle; visibility: inherit; font-family: Roboto, sans-serif; font-size: 12px; font-weight: 200;" x="216.63824915885925" y="0" dx="0em" dy="0.95em" fill="rgb(33, 33, 33)" stroke="none" stroke-width="1px">4k</text><text style="text-anchor: middle; visibility: hidden; font-family: Roboto, sans-serif; font-size: 12px; font-weight: 200;" x="240.70916573206586" y="0" dx="0em" dy="0.95em" fill="rgb(33, 33, 33)" stroke="none" stroke-width="1px">4.5k</text><text style="text-anchor: middle; visibility: inherit; font-family: Roboto, sans-serif; font-size: 12px; font-weight: 200;" x="264.7800823052724" y="0" dx="0em" dy="0.95em" fill="rgb(33, 33, 33)" stroke="none" stroke-width="1px">5k</text><text style="text-anchor: middle; visibility: hidden; font-family: Roboto, sans-serif; font-size: 12px; font-weight: 200;" x="288.850998878479" y="0" dx="0em" dy="0.95em" fill="rgb(33, 33, 33)" stroke="none" stroke-width="1px">5.5k</text></g><line x1="0" y1="0" x2="288.850998878479" y2="0" fill="rgb(0, 0, 0)" stroke="rgb(204, 204, 204)" stroke-width="1px"></line></g></g></g></g></svg>