<svg viewBox="0 0 330 200" xmlns="http://www.w3.org/2000/svg"><g><g><g><g><g><line x1="41.0620002746582" y1="176.95999908447266" x2="36.0620002746582" y2="176.95999908447266" style="visibility: inherit;" fill="rgb(0, 0, 0)" stroke="rgb(204, 204, 204)" stroke-width="1px"></line><line x1="41.0620002746582" y1="163.34769146259015" x2="36.0620002746582" y2="163.34769146259015" style="visibility: inherit;" fill="rgb(0, 0, 0)" stroke="rgb(204, 204, 204)" stroke-width="1px"></line><line x1="41.0620002746582" y1="149.73538384070764" x2="36.0620002746582" y2="149.73538384070764" style="visibility: inherit;" fill="rgb(0, 0, 0)" stroke="rgb(204, 204, 204)" stroke-width="1px"></line><line x1="41.0620002746582" y1="136.1230762188251" x2="36.0620002746582" y2="136.1230762188251" style="visibility: inherit;" fill="rgb(0, 0, 0)" stroke="rgb(204, 204, 204)" stroke-width="1px"></line><line x1="41.0620002746582" y1="122.51076859694261" x2="36.0620002746582" y2="122.51076859694261" style="visibility: inherit;" fill="rgb(0, 0, 0)" stroke="rgb(204, 204, 204)" stroke-width="1px"></line><line x1="41.0620002746582" y1="108.8984609750601" x2="36.0620002746582" y2="108.8984609750601" style="visibility: inherit;" fill="rgb(0, 0, 0)" stroke="rgb(204, 204, 204)" stroke-width="1px"></line><line x1="41.0620002746582" y1="95.28615335317758" x2="36.0620002746582" y2="95.28615335317758" style="visibility: inherit;" fill="rgb(0, 0, 0)" stroke="rgb(204, 204, 204)" stroke-width="1px"></line><line x1="41.0620002746582" y1="81.67384573129507" x2="36.0620002746582" y2="81.67384573129507" style="visibility: inherit;" fill="rgb(0, 0, 0)" stroke="rgb(204, 204, 204)" stroke-width="1px"></line><line x1="41.0620002746582" y1="68.06153810941255" x2="36.0620002746582" y2="68.06153810941255" style="visibility: inherit;" fill="rgb(0, 0, 0)" stroke="rgb(204, 204, 204)" stroke-width="1px"></line><line x1="41.0620002746582" y1="54.44923048753005" x2="36.0620002746582" y2="54.44923048753005" style="visibility: inherit;" fill="rgb(0, 0, 0)" stroke="rgb(204, 204, 204)" stroke-width="1px"></line><line x1="41.0620002746582" y1="40.83692286564753" x2="36.0620002746582" y2="40.83692286564753" style="visibility: inherit;" fill="rgb(0, 0, 0)" stroke="rgb(204, 204, 204)" stroke-width="1px"></line><line x1="41.0620002746582" y1="27.224615243765026" x2="36.0620002746582" y2="27.224615243765026" style="visibility: inherit;" fill="rgb(0, 0, 0)" stroke="rgb(204, 204, 204)" stroke-width="1px"></line><line x1="41.0620002746582" y1="13.612307621882502" x2="36.0620002746582" y2="13.612307621882502" style="visibility: inherit;" fill="rgb(0, 0, 0)" stroke="rgb(204, 204, 204)" stroke-width="1px"></line><line x1="41.0620002746582" y1="0" x2="36.0620002746582" y2="0" style="visibility: inherit;" fill="rgb(0, 0, 0)" stroke="rgb(204, 204, 204)" stroke-width="1px"></line></g><g transform="translate(31.062000274658203, 0)"><text style="text-anchor: end; visibility: hidden; font-family: Roboto, sans-serif; font-size: 12px; font-weight: 200;" x="0" y="176.95999908447266" dx="0em" dy="0.3em" fill="rgb(33, 33, 33)" stroke="none" stroke-width="1px">-14</text><text style="text-anchor: end; visibility: inherit; font-family: Roboto, sans-serif; font-size: 12px; font-weight: 200;" x="0" y="163.34769146259015" dx="0em" dy="0.3em" fill="rgb(33, 33, 33)" stroke="none" stroke-width="1px">-12</text><text style="text-anchor: end; visibility: hidden; font-family: Roboto, sans-serif; font-size: 12px; font-weight: 200;" x="0" y="149.73538384070764" dx="0em" dy="0.3em" fill="rgb(33, 33, 33)" stroke="none" stroke-width="1px">-10</text><text style="text-anchor: end; visibility: inherit; font-family: Roboto, sans-serif; font-size: 12px; font-weight: 200;" x="0" y="136.1230762188251" dx="0em" dy="0.3em" fill="rgb(33, 33, 33)" stroke="none" stroke-width="1px">-8</text><text style="text-anchor: end; visibility: hidden; font-family: Roboto, sans-serif; font-size: 12px; font-weight: 200;" x="0" y="122.51076859694261" dx="0em" dy="0.3em" fill="rgb(33, 33, 33)" stroke="none" stroke-width="1px">-6</text><text style="text-anchor: end; visibility: inherit; font-family: Roboto, sans-serif; font-size: 12px; font-weight: 200;" x="0" y="108.8984609750601" dx="0em" dy="0.3em" fill="rgb(33, 33, 33)" stroke="none" stroke-width="1px">-4</text><text style="text-anchor: end; visibility: hidden; font-family: Roboto, sans-serif; font-size: 12px; font-weight: 200;" x="0" y="95.28615335317758" dx="0em" dy="0.3em" fill="rgb(33, 33, 33)" stroke="none" stroke-width="1px">-2</text><text style="text-anchor: end; visibility: inherit; font-family: Roboto, sans-serif; font-size: 12px; font-weight: 200;" x="0" y="81.67384573129507" dx="0em" dy="0.3em" fill="rgb(33, 33, 33)" stroke="none" stroke-width="1px">0</text><text style="text-anchor: end; visibility: hidden; font-family: Roboto, sans-serif; font-size: 12px; font-weight: 200;" x="0" y="68.06153810941255" dx="0em" dy="0.3em" fill="rgb(33, 33, 33)" stroke="none" stroke-width="1px">2</text><text style="text-anchor: end; visibility: inherit; font-family: Roboto, sans-serif; font-size: 12px; font-weight: 200;" x="0" y="54.44923048753005" dx="0em" dy="0.3em" fill="rgb(33, 33, 33)" stroke="none" stroke-width="1px">4</text><text style="text-anchor: end; visibility: hidden; font-family: Roboto, sans-serif; font-size: 12px; font-weight: 200;" x="0" y="40.83692286564753" dx="0em" dy="0.3em" fill="rgb(33, 33, 33)" stroke="none" stroke-width="1px">6</text><text style="text-anchor: end; visibility: inherit; font-family: Roboto, sans-serif; font-size: 12px; font-weight: 200;" x="0" y="27.224615243765026" dx="0em" dy="0.3em" fill="rgb(33, 33, 33)" stroke="none" stroke-width="1px">8</text><text style="text-anchor: end; visibility: hidden; font-family: Roboto, sans-serif; font-size: 12px; font-weight: 200;" x="0" y="13.612307621882502" dx="0em" dy="0.3em" fill="rgb(33, 33, 33)" stroke="none" stroke-width="1px">10</text><text style="text-anchor: end; visibility: hidden; font-family: Roboto, sans-serif; font-size: 12px; font-weight: 200;" x="0" y="0" dx="0em" dy="0.3em" fill="rgb(33, 33, 33)" stroke="none" stroke-width="1px">12</text></g><line x1="41.0620002746582" y1="0" x2="41.0620002746582" y2="176.95999908447266" fill="rgb(0, 0, 0)" stroke="rgb(204, 204, 204)" stroke-width="1px"></line></g></g><g transform="translate(41, 0)" clip-path="url(#clip_0)"><clipPath id="clip_0"><rect width="288" height="176"></rect></clipPath><g><g><g><line x1="0" y1="0" x2="0" y2="176.95999908447266" fill="rgb(0, 0, 0)" stroke="rgb(66, 66, 66)" stroke-width="1px" opacity="0.25"></line><line x1="24.07816664377848" y1="0" x2="24.07816664377848" y2="176.95999908447266" fill="rgb(0, 0, 0)" stroke="rgb(66, 66, 66)" stroke-width="1px" opacity="0.25"></line><line x1="48.15633328755696" y1="0" x2="48.15633328755696" y2="176.95999908447266" fill="rgb(0, 0, 0)" stroke="rgb(66, 66, 66)" stroke-width="1px" opacity="0.25"></line><line x1="72.23449993133545" y1="0" x2="72.23449993133545" y2="176.95999908447266" fill="rgb(0, 0, 0)" stroke="rgb(66, 66, 66)" stroke-width="1px" opacity="0.25"></line><line x1="96.31266657511392" y1="0" x2="96.31266657511392" y2="176.95999908447266" fill="rgb(0, 0, 0)" stroke="rgb(66, 66, 66)" stroke-width="1px" opacity="0.25"></line><line x1="120.39083321889242" y1="0" x2="120.39083321889242" y2="176.95999908447266" fill="rgb(0, 0, 0)" stroke="rgb(66, 66, 66)" stroke-width="1px" opacity="0.25"></line><line x1="144.4689998626709" y1="0" x2="144.4689998626709" y2="176.95999908447266" fill="rgb(0, 0, 0)" stroke="rgb(66, 66, 66)" stroke-width="1px" opacity="0.25"></line><line x1="168.5471665064494" y1="0" x2="168.5471665064494" y2="176.95999908447266" fill="rgb(0, 0, 0)" stroke="rgb(66, 66, 66)" stroke-width="1px" opacity="0.25"></line><line x1="192.62533315022785" y1="0" x2="192.62533315022785" y2="176.95999908447266" fill="rgb(0, 0, 0)" stroke="rgb(66, 66, 66)" stroke-width="1px" opacity="0.25"></line><line x1="216.70349979400635" y1="0" x2="216.70349979400635" y2="176.95999908447266" fill="rgb(0, 0, 0)" stroke="rgb(66, 66, 66)" stroke-width="1px" opacity="0.25"></line><line x1="240.78166643778485" y1="0" x2="240.78166643778485" y2="176.95999908447266" fill="rgb(0, 0, 0)" stroke="rgb(66, 66, 66)" stroke-width="1px" opacity="0.25"></line><line x1="264.8598330815633" y1="0" x2="264.8598330815633" y2="176.95999908447266" fill="rgb(0, 0, 0)" stroke="rgb(66, 66, 66)" stroke-width="1px" opacity="0.25"></line><line x1="288.9379997253418" y1="0" x2="288.9379997253418" y2="176.95999908447266" fill="rgb(0, 0, 0)" stroke="rgb(66, 66, 66)" stroke-width="1px" opacity="0.25"></line></g><g><line x1="0" y1="176.95999908447266" x2="288.9379997253418" y2="176.95999908447266" fill="rgb(0, 0, 0)" stroke="rgb(66, 66, 66)" stroke-width="1px" opacity="0.25"></line><line x1="0" y1="163.34769146259015" x2="288.9379997253418" y2="163.34769146259015" fill="rgb(0, 0, 0)" stroke="rgb(66, 66, 66)" stroke-width="1px" opacity="0.25"></line><line x1="0" y1="149.73538384070764" x2="288.9379997253418" y2="149.73538384070764" fill="rgb(0, 0, 0)" stroke="rgb(66, 66, 66)" stroke-width="1px" opacity="0.25"></line><line x1="0" y1="136.1230762188251" x2="288.9379997253418" y2="136.1230762188251" fill="rgb(0, 0, 0)" stroke="rgb(66, 66, 66)" stroke-width="1px" opacity="0.25"></line><line x1="0" y1="122.51076859694261" x2="288.9379997253418" y2="122.51076859694261" fill="rgb(0, 0, 0)" stroke="rgb(66, 66, 66)" stroke-width="1px" opacity="0.25"></line><line x1="0" y1="108.8984609750601" x2="288.9379997253418" y2="108.8984609750601" fill="rgb(0, 0, 0)" stroke="rgb(66, 66, 66)" stroke-width="1px" opacity="0.25"></line><line x1="0" y1="95.28615335317758" x2="288.9379997253418" y2="95.28615335317758" fill="rgb(0, 0, 0)" stroke="rgb(66, 66, 66)" stroke-width="1px" opacity="0.25"></line><line x1="0" y1="81.67384573129507" x2="288.9379997253418" y2="81.67384573129507" fill="rgb(0, 0, 0)" stroke="rgb(66, 66, 66)" stroke-width="1px" opacity="0.25"></line><line x1="0" y1="68.06153810941255" x2="288.9379997253418" y2="68.06153810941255" fill="rgb(0, 0, 0)" stroke="rgb(66, 66, 66)" stroke-width="1px" opacity="0.25"></line><line x1="0" y1="54.44923048753005" x2="288.9379997253418" y2="54.44923048753005" fill="rgb(0, 0, 0)" stroke="rgb(66, 66, 66)" stroke-width="1px" opacity="0.25"></line><line x1="0" y1="40.83692286564753" x2="288.9379997253418" y2="40.83692286564753" fill="rgb(0, 0, 0)" stroke="rgb(66, 66, 66)" stroke-width="1px" opacity="0.25"></line><line x1="0" y1="27.224615243765026" x2="288.9379997253418" y2="27.224615243765026" fill="rgb(0, 0, 0)" stroke="rgb(66, 66, 66)" stroke-width="1px" opacity="0.25"></line><line x1="0" y1="13.612307621882502" x2="288.9379997253418" y2="13.612307621882502" fill="rgb(0, 0, 0)" stroke="rgb(66, 66, 66)" stroke-width="1px" opacity="0.25"></line><line x1="0" y1="0" x2="288.9379997253418" y2="0" fill="rgb(0, 0, 0)" stroke="rgb(66, 66, 66)" stroke-width="1px" opacity="0.25"></line></g></g></g><g><g><line x1="0" y1="81.67384573129507" x2="288.9379997253418" y2="81.67384573129507" fill="rgb(0, 0, 0)" stroke="rgb(153, 153, 153)" stroke-width="1.5px"></line></g></g><g><g><line x1="24.07816664377848" y1="0" x2="24.07816664377848" y2="176.95999908447266" fill="rgb(0, 0, 0)" stroke="rgb(153, 153, 153)" stroke-width="1.5px"></line></g></g><g><g><g><g><g><path style="fill: none;" stroke="rgb(255, 112, 67)" stroke-width="2px" d="M24.511573643366496,-52.04699135482617L24.559729976654054,12.082835625711967L25.811794642130533,110.52615198739498L25.85995097541809,215.89973060150305L26.00441997528076,149.31351501823204L26.100732641855878,210.27213394922936L26.485983308156328,199.02736791458221L26.630452308019,104.2441193492112L26.67860864130656,116.81784213124219L27.400953640619914,102.0100229817028L27.497266307195027,153.2388275350989L27.786204306920368,87.70913013172292L28.07514230664571,83.13406842519042L28.604861972808838,46.95603174658706L28.893799972534183,-90.27181542794563L29.71245763842265,-8.316730294118114L29.808770304997765,41.03009494381285L30.723740637461344,74.40129924341676L31.25346030362447,68.2236860024586L31.686867303212484,21.01355817589916L32.69815030225118,70.71378216126672L33.179713635126745,86.40529778101161L33.22786996841431,80.15099255109175L33.80574596786499,49.92557837499134L33.853902301152544,35.704586332571296L34.239152967453,41.60002695039303L34.28730930074056,59.15087920553833L34.431778300603234,33.058128421493436L34.52809096717834,52.34064308794597L34.62440363375346,61.70906969630495L34.720716300328576,94.71835295465138L34.86518530019124,129.74192209287082L35.491217632929484,87.22663087582427L35.63568663279216,137.89383741458997L35.87646829922994,130.44104221145764L35.97278096580505,88.42213163165522L36.213562632242834,103.4612284406403L36.454344298680624,67.69192816875383L36.502500631968175,48.455373859583155L36.55065696525574,85.88596172230736L36.743282298405965,65.63697925839504L37.032220298131314,123.82127733418851L37.12853296470642,101.21259904580272L37.46562729771932,105.0125395193664L37.85087796401978,159.862433414959L38.13981596374512,116.83312090397773L38.18797229703267,90.83194997538716L38.23612863032023,96.55993430106251L38.33244129689534,81.19391363690966L38.476910296758014,115.71626816121862L38.52506663004557,120.52711433580238L38.669535629908246,68.80253042288795L38.81400462977091,79.87596916725049L39.006629962921146,137.2771210020329L39.19925529607137,92.35000585409864L39.24741162935893,44.50529595544085L39.29556796264649,84.77625189533832L39.48819329579671,84.71488410689858L40.16238196182251,81.58723125469028L40.25869462839763,42.303214280190176L40.306850961685186,55.654989659097815L40.88472696113586,115.4041562317396L41.1736649608612,82.96504202667195L41.22182129414876,53.869467990814215L41.41444662729899,101.55335372920246L41.992322626749676,117.67673846418958L42.47388595962524,71.38493518310781L43.003605625788374,131.45000513192554L43.292543625513716,124.25219325057665L43.48516895866394,106.21632674409379L43.5333252919515,85.67483366203713L43.966732291539515,123.30411424174554L44.014888624827066,65.32080283715533L44.351982957839965,64.607495509122L44.448295624415074,30.715698040098562L44.92985895729065,50.4534364447712L45.21879695701599,23.163704275183253L45.315109623591106,-0.8652769735180101L45.652203956604005,-0.574483838947815L46.037454622904455,1.2795498662629219L46.23007995605469,61.73310805048368L46.51901795578003,66.52439717016539L46.615330622355145,84.40792807575689L46.85611228879292,150.83996910502486L47.62661362139384,87.23086443799423L47.77108262125651,108.65109161364305L48.011864287694294,128.9973291798399L48.06002062098185,106.23203478936026L48.637896620432535,91.15147340266999L49.50471061960856,106.5246482434598L49.601023286183676,113.95892471809628L49.697335952758785,97.4167724650787L49.79364861933391,116.5084321221086L49.84180495262146,58.905050400262404L49.938117619196575,47.9035520774049L50.08258661905925,9.060220778858994L50.17889928563436,31.439630472384152L50.37152461878459,100.34756661449191L50.41968095207214,110.97417181899525L50.75677528508504,70.2646148418137L50.85308795166015,55.449753286445656L50.901244284947715,98.09776600884189L51.527276617685956,160.2964809705264L51.57543295097351,153.17491430719033L52.00883995056152,109.47666551329255L52.4904032834371,52.642051640334L52.586715950012206,75.25628402786846L52.683028616587315,112.5835822579927L52.77934128316244,110.86905149555676L52.82749761644999,128.56010031044283L53.35721728261312,120.3588295326305L53.40537361590067,82.09957291352025L53.50168628247579,115.89261371775568L53.597998949050904,108.98698778526929L53.69431161562601,85.05214198304107L54.03140594863891,50.27894327477167L54.07956228192648,43.27691150203817L54.9463762811025,69.58355433406574L55.13900161425273,112.62538325726902L55.37978328069052,138.2737138837777L55.71687761370341,94.43754379214803L55.76503394699097,53.43508928496268L55.86134661356608,51.53306669373779L56.15028461329142,65.64111407959528L56.29475361315409,33.41799237342078L56.487378946304325,29.222200884791018L56.68000427945454,55.357118180881635L56.77631694602967,70.6440062108151L57.11341127904256,63.63042131208045L57.25788027890523,40.957052328723634L57.69128727849324,82.21762935340253L57.93206894493103,118.4109071966144L57.98022527821858,64.41930700531297L58.07653794479371,107.0093337368491L58.221006944656374,52.74975686124867L58.31731961123149,62.2376030104002L58.4136322778066,78.52166107932521L58.509944944381715,26.993940139228943L58.60625761095683,-2.672823947971852L58.7507266108195,0.9267728845013485L58.847039277394614,18.130232904351697L59.232289943695065,84.17156328074746L59.28044627698262,52.8235013860551L59.37675894355774,42.158767426944266L59.4249152768453,28.564283050431694L59.473071610132855,83.7879914778142L59.858322276433306,85.41834314036272L60.24357294273376,44.941848981387196L60.29172927602132,62.582299002770185L60.33988560930888,79.25836084598416L60.532510942459105,54.61789917556441L60.62882360903422,62.297763572382806L60.773292608896895,84.30233788394922L61.11038694190979,101.62350212496872L61.20669960848491,98.195229938778L61.59195027478536,127.78986407084885L61.64010660807292,52.636094460802624L61.68826294136047,76.57944808374081L62.02535727437338,91.52405758680443L62.121669940948486,68.0551530650769L62.50692060724894,85.60353978387728L62.79585860697428,32.15933709505026L62.84401494026184,50.689872305900664L62.94032760683695,75.23336299681924L63.229265606562294,82.8101269523774L63.56635993957519,94.92198845523315L63.71082893943787,89.09196225977837L64.04792327245077,94.1793261754202L64.09607960573832,99.22164046834894L64.72211193847656,88.91341273313158L64.81842460505167,89.32418051097888L65.25183160463969,81.57540671200452L65.29998793792724,33.66142723991451L65.44445693778992,65.66639653510664L65.87786393737794,107.64749737679428L66.26311460367839,127.24224896111582L66.31127093696594,121.85514584485024L66.74467793655396,126.96628752924335L67.22624126942952,133.59777686385283L67.61149193572999,136.9937190703989L67.8041172688802,258.2757591520605L67.90042993545532,-15.481442403887138L68.67093126805624,160.25927409890616L69.00802560106914,162.30196568619903L69.29696360079447,111.83427592273156L69.4895889339447,60.64133491172614L69.58590160051982,86.18962152535731L69.68221426709493,133.81644081601564L69.77852693367004,184.3646550419091L71.36768593215942,178.79642418289433L71.6084675985972,140.07631693509015L71.65662393188477,148.6732847983368L72.13818726476033,123.7549396979097L72.282656264623,112.88842784286825L72.5234379310608,90.64727100602246L72.81237593078613,87.7077473976411L73.00500126393635,70.34049608064693L73.67918992996216,80.80134944713278L73.77550259653728,92.00629622194062L73.87181526311238,89.45413708736794L74.25706592941285,107.33452402566783L74.3052222627004,99.98392960089728L74.40153492927551,70.4919910680231L74.83494192886353,86.06793859722956L74.9794109287262,100.73598020123052L75.55728692817688,133.4111414072075L75.65359959475198,114.39583272587248L75.89438126118978,106.87426554393895L75.9906939277649,98.72266407853635L76.03885026105245,92.77693859944968L76.13516292762756,85.27575803058932L76.23147559420266,95.8801606064907L76.42410092735291,89.763257370575L76.66488259379068,71.2532226757601L76.71303892707824,75.52309867296981L76.95382059351603,78.41974564884399L77.33907125981649,8.976943909158821L78.1095725924174,40.35657415524671L78.4466669254303,50.70900201786223L78.59113592529297,62.47309012434552L78.68744859186808,51.7464557018206L78.88007392501832,64.63725279575262L79.12085559145609,90.88754911718168L79.21716825803121,86.34294496952589L79.69873159090677,89.43989570910577L79.93951325734457,86.85480627009976L80.2284512570699,95.73519568424781L80.51738925679525,149.77804995378918L80.5655455900828,108.13737172439042L81.04710892295839,97.73911362393757L81.19157792282105,108.48342114949384L81.38420325597127,89.23526136135219L81.72129758898417,-12.679107733166981L82.29917358843485,23.30988122370414L82.39548625500997,48.61525627951959L82.53995525487264,140.64435918932654L82.87704958788554,124.21014469833854L82.92520592117309,108.96179299836095L83.31045658747355,104.43576947276726L83.50308192062377,94.93856553466154L83.64755092048644,90.9630020926513L84.46620858637492,87.01567841011254L84.75514658610027,89.71194344320594L85.0440845858256,93.79400746705029L85.14039725240072,88.17866410427943L85.47749158541362,92.01022402061986L85.76642958513895,96.85165931992228L85.95905491828918,185.22481827039996L86.15168025143942,125.17418903460644L86.34430558458965,89.12435450893112L86.63324358431498,76.6355898053338L86.87402525075278,80.9500300953537L87.4037449169159,94.7409209954552L87.45190125020345,89.1642731243844L88.12608991622925,87.20001685109399L88.31871524937947,84.91493981337021L88.51134058252971,83.48261559250467L88.55949691581726,83.15323397122225L88.65580958239238,82.27178262834371L88.70396591567993,86.39500704504673L88.80027858225505,109.33452672853491L89.04106024869283,6.829843745026413L89.28184191513061,-10.58253113008272L89.32999824841816,28.987759831226757L89.42631091499328,45.29911718952935L89.71524891471863,57.522110926400764L89.90787424786885,79.2575576568879L90.34128124745686,76.0446551067834L90.63021924718221,70.52300978026483L90.72653191375733,68.7210453825571L90.82284458033244,80.66949428929605L91.35256424649556,21.976115852797076L91.73781491279603,43.97150856203334L91.88228391265869,60.660992446438044L92.02675291252136,88.13876852592617L92.46015991210938,86.69565528319174L92.74909791183472,85.28935343107764L92.89356691169739,78.35546166120031L93.76038091087342,89.10957614228546L94.3382569103241,86.1275029581651L94.53088224347432,84.46878305118699L94.96428924306234,64.27939623459416L95.15691457621256,90.48984502217851L95.25322724278767,118.7056820096536L95.30138357607522,127.91690441935393L95.49400890922547,115.15295629100844L96.26451024182637,156.44410425529273L96.36082290840149,145.81450862653128L96.50529190826417,106.88132217153561L96.55344824155172,147.5739723427355L96.98685524113974,124.89156043317026L97.08316790771485,122.0739435937713L97.17948057428995,118.9131366226445L97.66104390716553,107.92384927491884L97.94998190689087,95.75329690439762L98.04629457346599,90.06190467466531L98.23891990661622,86.50209166870374L98.8167959060669,83.87457065400355L99.25020290565492,89.21885851362201L99.39467190551757,86.54561909095818L99.44282823880513,84.52881520603312L99.49098457209269,83.38213179411004L99.53914090538024,83.26417177380976L100.02070423825582,82.60510903748315L100.2614859046936,76.9165033490695L100.30964223798117,82.92342299838796L100.35779857126872,83.29893431217023L100.50226757113138,80.0740048134932L100.55042390441893,80.74319530783667L100.88751823743185,81.01895265343114L101.46539423688253,81.23738024955594L101.6098632367452,81.39282973986577L101.65801957003275,81.44481060539948L101.75433223660788,81.48837080923444L101.89880123647055,81.40626863849347L102.04327023633321,81.47563312543514L102.18773923619588,81.44762892381077L102.38036456934611,96.02866049136314L102.717458902359,86.24998415749944L102.9582405687968,57.19081651615548L103.6324292348226,68.78837837592305L104.11399256769816,73.90788290986345L104.16214890098571,57.55747077581729L105.07711923344931,67.15110604270785L105.12527556673686,72.039707044723L105.31790089988708,75.69532009070917L105.4142135664622,77.86175706045171L105.70315156618754,79.19797112860165L105.79946423276265,80.05675167181725L105.94393323262531,-162.18994475423827L106.56996556536357,-6.189707067239862L107.05152889823914,28.85510007353843L107.09968523152669,49.96954660458343L107.72571756426494,62.88218640141902L107.87018656412761,70.44801720193581L107.91834289741516,74.82898077511068L108.39990623029072,77.51144073100672L108.49621889686584,78.36392248504032L108.68884423001607,79.63728341068476L108.73700056330364,278.0254475811776L109.07409489631652,-49.60170820873324L109.31487656275432,10.21067747650952L109.36303289604187,38.46735869814205L109.45934556261699,72.23580637363996L110.56694122823079,74.6218858746401L110.80772289466859,77.31352612118526L111.24112989425659,85.19439755647981L111.72269322713215,318.53486254849923L112.25241289329529,230.02709495537644L112.39688189315797,151.34564124733834L112.92660155932109,108.64756470042525L113.21553955904642,99.78414702767645L113.26369589233398,90.1319686502773L113.36000855890909,86.87747521842431L113.40816489219667,84.6470836265566L113.50447755877177,83.91419194023823L114.08235355822245,-27.10624425709919L114.22682255808512,18.190007769418852L114.27497889137268,23.73844722225537L114.41944789123535,58.4739510508264L114.61207322438558,68.55189849962666L114.66022955767313,51.20347251089404L114.7083858909607,59.22967090752444L114.85285489082337,77.7347787314198L115.09363655726115,84.77767788890151L115.28626189041138,86.33183701508531L115.62335622342428,70.0147560008714L115.8159815565745,-40.144463732858945L115.86413788986206,14.55708499043759L116.10491955629985,37.33107011358587L116.20123222287496,61.12016118662102L116.77910822232565,69.22511749014939L116.97173355547586,74.24413922387264L117.16435888862611,77.23561272674188L117.35698422177633,82.06272864261844L117.45329688835143,-80.63627320020042L117.5977658882141,-16.655158491094472L117.79039122136435,23.538843872474402L117.8385475546519,22.9689773592633L117.88670388793945,47.731287460821946L118.17564188766478,69.68515260705765L118.5127362206777,41.47996453770253L118.75351788711548,57.62424792917614L118.8498305536906,63.231189535314186L119.13876855341593,63.33999937163175L119.33139388656616,70.20278348987603L119.57217555300394,73.06752898134579L119.66848821957906,76.74816442808944L119.95742621930441,85.79254814582379L120.19820788574218,86.25235833321469L120.24636421902974,53.192802617358915L120.39083321889242,67.87602868438542L120.58345855204264,67.93295250265649L120.72792755190531,73.35800965855655L120.87239655176799,76.09351458156047L120.92055288505554,79.4887039149208L121.40211621793112,81.516758067622L121.54658521779379,82.14647244238022L121.93183588409424,72.88072694547436L122.41339921696982,110.94966051808642L122.46155555025737,104.01512589007243L122.55786821683249,94.91460150571778L122.65418088340759,89.8009795985296L122.70233721669516,91.15065454181605L122.7504935499827,82.94789628091246L122.79864988327026,82.53157588162948L122.84680621655782,82.13037751318939L122.89496254984537,81.99840837603054L122.94311888313293,81.88585304424548L123.13574421628317,81.80692310469136L123.18390054957072,81.7591276985954L123.28021321614584,81.77092925098931L123.37652588272094,81.67932956045937L123.42468221600849,81.77420524045303L123.61730754915874,81.81891365417182L124.19518354860942,81.75538453664483L124.82121588134765,81.43902341751L125.06199754778544,81.42488391259086L125.97696788024902,81.46621391940181L126.07328054682414,14.741927709447666L126.16959321339925,50.827109640280604L126.36221854654949,71.89974544479266L126.8919382127126,75.81144664215788L126.98825087928772,78.15141210438748L127.03640721257527,79.54440521945658L127.08456354586284,80.34124387985523L127.18087621243794,80.97029033607494L127.42165787887573,81.25238414970983L127.46981421216329,81.38086345317542L127.85506487846375,81.4640950368582L127.9032212117513,79.30339273964621L128.04769021161397,80.38217954517539L128.38478454462688,99.13654405008019L128.62556621106467,91.03327806861165L128.72187887763977,89.47472742826419L128.96266054407755,86.58432865086154L129.15528587722778,84.66942399649541L129.2515985438029,83.5589695750855L129.34791121037802,82.85151439019717L129.39606754366557,82.4199378635045L129.73316187667848,82.06840720859923L129.87763087654113,83.97798309121339L129.97394354311623,287.31577942671913L130.31103787612915,37.91422715960051L130.40735054270425,72.31158294485653L130.59997587585448,78.20267516891268L131.41863354174296,66.07766551625096L131.7075715414683,74.91520198648715L131.90019687461853,100.38508612443754L131.99650954119363,97.10484500019656L132.33360387420655,24.16739557044612L132.3817602074941,39.04682039046318L132.76701087379456,56.01639411574562L132.86332354036966,66.17590701848037L132.91147987365724,72.29731827859901L133.152261540095,75.94580463617353L133.20041787338258,78.22207481145156L133.24857420667013,79.49743590768462L133.8264502061208,80.45604044317203L133.87460653940838,80.98958928474238L134.30801353899636,81.18787206385727L134.74142053858438,102.39468414457136L135.1748275381724,94.49073237105151L135.22298387145997,89.16219195010487L135.46376553789776,83.61775356356578L135.56007820447286,81.56222028786225L135.65639087104796,81.59985947188495L135.80085987091064,81.59941508388373L136.71583020337422,81.430167574136L136.8602992032369,81.12126455611842L137.1010808696747,81.4139192805203L137.14923720296224,86.4688180214858L137.48633153597513,84.26068685285146L137.91973853556314,83.2061351920748L138.49761453501384,69.88078042887352L139.31627220090232,119.61092683979804L139.70152286720275,111.52012231971699L140.18308620007832,-13.079997239241527L140.5683368663788,22.783612172029304L140.61649319966634,46.14947200938144L140.80911853281657,242.08791087495527L141.7722451985677,190.42812572727314L141.96487053171793,145.88700291982747L142.10933953158062,91.56197840810616L142.49459019788105,86.34316026591719L142.83168453089397,84.49223064755267L142.97615353075665,-3.380579713610102L143.07246619733175,30.65782358600169L143.4577168636322,-46.471162822001084L145.38397019513448,199.80019495314465L145.43212652842203,152.55534699926935L145.48028286170958,-24.652093276410774L145.52843919499716,-4.116732269006792L145.5765955282847,16.01959338125977L145.76922086143492,42.3404743081232L145.86553352801005,51.251867082185605L145.9136898612976,61.95833370092645L146.20262786102296,70.096135335758L146.53972219403585,74.74664791207535L146.63603486061095,77.35023214188037L146.68419119389853,79.00085660609741L147.0212855269114,79.96092205386081L147.21391086006165,80.82356115089324L147.50284885978698,81.19703345733315L147.64731785964966,81.53901435421972L148.6104445254008,207.11878472843088L148.80306985855103,180.9081450322834L148.89938252512613,73.99763810893741L148.99569519170126,79.36547295674356L149.09200785827636,71.15060888634987L149.76619652430216,75.4446642851705L150.10329085731505,47.76538015278942L150.29591619046528,61.47651177277878L150.5366978569031,69.6763200997368L150.58485419019064,74.32989723926245L150.82563585662842,91.76690616170293L150.97010485649108,87.33791428044078L151.40351185607912,85.02767936366047L151.45166818936667,83.67516164499206L151.59613718922932,83.09474975604557L151.93323152224224,82.67296079967102L151.9813878555298,82.57235050916836L152.0777005221049,82.45325281532479L152.84820185470582,81.79572636319853L152.89635818799337,81.76693048345463L153.0889835211436,69.62939057970742L153.13713985443115,102.89356394449321L153.7631721871694,322.86990707277516L154.48551718648272,196.35163825224404L154.67814251963298,164.06620208412767L154.7744551862081,131.1115275520002L154.87076785278322,114.59593910790831L155.15970585250855,102.89887533445459L155.2078621857961,109.24001330941348L155.49680018552144,110.97243380887348L155.83389451853435,99.4761577314695L156.26730151812237,92.279309365552L156.36361418469747,213.396380456044L156.55623951784767,175.19254607071804L156.60439585113525,137.19265801541573L156.79702118428548,114.9054228730673L157.03780285072327,151.85227783103176L157.18227185058595,123.89126793848858L157.3267408504486,107.09786722228169L157.37489718373615,97.02621009674569L157.71199151674904,90.74282081329685L157.8083041833242,87.28190863142079L158.48249284934997,84.95270736260406L158.62696184921265,84.5320802218861L158.6751181825002,83.27152677342168L159.0122125155131,127.55832969693219L159.06036884880066,109.69982645154622L159.10852518208821,99.01965941688884L159.2529941819509,71.07206977850916L159.4456195151011,75.13890551338258L159.68640118153888,77.72844636199628L159.87902651468914,79.4228524990536L160.0234955145518,80.56445203920224L160.4569025141398,80.09975258060199L160.50505884742736,81.47413875482587L160.64952784729005,81.09887101130454L161.66081084632873,81.89095539436677L161.94974884605406,80.65402971071218L162.0460615126292,81.87305486787119L162.28684317906698,80.35869562574652L162.720250178655,22.44646435371809L162.76840651194254,65.15418488920176L163.0573445116679,99.40832592908593L163.10550084495546,77.45612374476909L163.34628251139324,240.43708353107493L163.82784584426878,-35.654421276252094L164.5983471768697,11.8286853649858L164.79097251001994,60.48144443748591L164.98359784317014,133.8478159399081L165.22437950960796,119.74212361098216L165.46516117604574,103.37777693284552L165.60963017590842,97.49120841091892L165.70594284248352,98.16650065917496L165.80225550905863,91.25819308669543L165.9467245089213,87.47188394614828L165.99488084220886,85.11900140636423L166.28381884193422,79.34923537734286L166.47644417508445,79.99564106103047L166.7653821748098,80.85390644343151L166.95800750796,81.34406536688203L167.39141450754803,84.93161800356745L167.9692905069987,-73.38167860714991L168.59532283973695,189.62782343274316L168.69163550631205,146.5205709173673L168.78794817288716,123.9403659054015L168.83610450617473,60.97453263835567L169.0768861726125,67.7413403970212L169.46213683891298,76.07837018648401L169.55844950548808,78.60595523511881L169.84738750521342,9.006012528689107L169.89554383850097,37.8047885470413L170.0881691716512,55.367272131014005L170.1844818382263,51.62335610097229L170.85867050425213,63.85396386038261L171.00313950411478,71.07487679537168L171.29207750384012,-75.17667297892558L171.38839017041522,-12.47855368357957L171.58101550356548,27.150853809953368L171.62917183685303,52.799739327451874L171.67732817014058,65.7017157186215L172.35151683616638,72.1629787232838L172.92939283561708,75.99481338328897L173.12201816876728,78.28119381040632L174.08514483451845,79.90918578963864L174.27777016766865,80.75671056741915L174.32592650095623,81.31265773569348L174.37408283424378,81.68921538921211L174.56670816739398,81.79870728421729L174.6630208339691,81.7362681264427L174.71117716725666,81.80643670186792L174.75933350054424,81.66095631218563L174.95195883369448,81.89094341945602L175.04827150026958,81.90720215970373L175.2408968334198,82.04642711325745L175.3372094999949,81.88327929436686L175.62614749972025,82.25270898475091L175.7706164995829,-172.4870111943088L176.1558671658834,-47.620029836511804L176.20402349917094,74.33851594254887L176.58927416547138,98.36778342536606L177.07083749834698,93.56936804882629L177.55240083122254,89.02221745730992L177.74502616437275,158.66983553567104L177.937651497523,325.9795967545453L177.98580783081056,228.49271165125563L178.0339641640981,172.97349774277504L178.22658949724834,136.80933334842928L178.32290216382344,114.72487892107522L178.41921483039857,101.44644683661244L178.804465496699,93.31793473563052L178.9007781632741,49.70866041470744L179.14155982971192,62.58963942841769L179.33418516286216,70.36482147324654L179.57496682929994,74.57060539067606L180.10468649546306,77.10101837894486L180.2973118286133,78.97536890961801L180.53809349505107,80.03794597835021L180.77887516148886,80.67760345101571L180.8270314947764,81.16525953602643L181.0196568279266,81.3225673833235L181.69384549395244,81.56591067669775L181.74200182724,81.7012575445605L181.93462716039022,81.78992713531163L181.98278349367777,81.75295013426464L182.31987782669069,81.49909240139945L182.56065949312847,81.49218723387038L182.70512849299112,81.5876139947221L182.8495974928538,221.48309441603132L183.23484815915424,165.5926765074016L183.47562982559205,132.0500437369519L183.57194249216715,111.92138377902523L183.81272415860494,99.8019726128391L184.10166215833027,92.67527914926914L184.19797482490537,39.56101724767331L184.29428749148053,56.60961478686859L184.39060015805563,66.78208623746663L184.53506915791831,72.5832860778157L184.72769449106852,141.7898582515626L184.92031982421875,117.89925227080774L185.546352156957,103.37098785218588L186.07607182312012,95.1011475491366L186.17238448969522,89.9719944632105L186.26869715627035,92.65546514287018L186.46132248942058,86.13034349618057L187.37629282188414,83.03535211232946L187.4244491551717,82.98144076555621L187.80969982147218,82.0369328944689L188.00232515462238,81.42792354351648L188.0986378211975,82.89649840929944L188.14679415448506,82.76005951757887L188.58020115407305,82.272682274516L188.62835748736066,82.03052804074818L188.7728264872233,82.01222079397365L188.96545182037354,81.87046780187092L189.20623348681133,81.90056751373616L189.30254615338643,81.8963228189699L189.35070248667398,81.86141124462968L189.39885881996153,81.6732608623335L189.97673481941223,81.86657491976258L190.3619854857127,81.77357578373164L190.41014181900024,82.40714926523951L190.65092348543806,81.99981023906075L190.98801781845094,82.02297823631147L191.22879948488873,81.79449655744033L191.32511215146383,81.71567281842628L191.5658938179016,81.56269886509389L191.6622064844767,81.4190362708423L191.80667548433942,81.88711813990577L192.76980215009053,81.89411301603427L192.8179584833781,81.87716642064025L193.29952181625367,105.23231305557637L194.11817948214212,96.01807333079482L194.84052448145547,90.11870393929202L194.98499348131813,63.798634385063984L195.51471314748127,71.05230439490738L196.47783981323244,75.43590105958329L196.52599614652,78.04570548440155L196.91124681282042,79.62657251935016L197.10387214597068,80.52665087256737L197.24834114583334,86.33945073965313L197.826217145284,76.99202297695673L197.9706861451467,79.83094710845401L198.16331147829692,80.34032563188109L198.2114678115845,80.85395792692798L198.25962414487205,81.3364678908608L198.50040581130983,81.47927638528789L198.83750014432272,81.4864591282935L199.9450958099365,90.99875146926962L199.99325214322408,89.64682310055142L200.13772114308674,86.93265029881356L200.23403380966184,84.93110444460957L200.330346476237,83.62206501546716L200.4266591428121,82.9224203552297L200.57112814267478,48.642111544120375L200.71559714253743,61.83931480839859L200.76375347582498,69.91612666661996L201.24531680870055,78.28557224764738L201.63056747500102,83.40089742799833L201.72688014157615,85.27924636915681L201.7750364748637,77.32562227112255L201.8713491414388,74.44439652711891L202.01581814130148,76.89034572978679L202.16028714116413,79.17108121563527L203.07525747362772,80.23005688056165L203.2197264734904,81.00365702535096L203.3160391400655,81.3546819210942L203.50866447321576,79.91940073519145L203.6531334730784,76.14816144919975L204.13469680595398,76.43278049952455L204.568103805542,78.0780421727518L204.66441647211713,79.70315161405291L204.85704180526733,80.65421875559404L205.2422924715678,80.68168330600295L205.62754313786826,80.22281808997651L206.06095013745625,79.94446667674009L206.10910647074382,80.75321693732029L206.34988813718158,81.3077233708346L206.68698247019452,81.75330892379574L206.87960780334473,81.80654449453814L207.2167021363576,81.81622535148631L207.4574838027954,86.54390857880044L207.98720346895854,84.82878307332142L208.0353598022461,83.61193351251111L208.13167246882122,82.86038183793733L208.27614146868387,81.6334974475721L208.37245413525898,81.72520245265495L208.99848646799725,81.80554523286064L209.52820613416034,81.72505414327418L209.86530046717328,50.064578008169555L210.10608213361104,62.499932555583825L210.44317646662395,70.2479623988182L210.5876454664866,75.48218840104218L210.6839581330617,100.6127551231292L210.73211446634926,108.24569607192947L210.87658346621197,95.97006479482197L210.97289613278707,90.40291314634763L211.69524113210042,87.01077525338184L211.79155379867552,84.88072077195301L212.08049179840089,83.73778932057353L212.610211464564,83.20511193904869L212.7065241311391,82.94655586701299L212.89914946428934,82.2875765417049L213.0917747974396,79.79792383198864L213.23624379730225,80.52171665680588L213.2844001305898,81.05612825864476L213.33255646387735,81.45061455206584L213.52518179702759,81.63165794398203L214.29568312962851,82.06976940781446L214.44015212949117,79.96696155433393L214.58462112935385,31.444419787831897L214.77724646250405,51.536355204452626L215.16249712880455,63.40339905978681L215.25880979537965,70.83360339164818L215.3069661286672,74.4942924369401L215.69221679496766,77.44520457841844L215.74037312825521,79.25431292193898L216.22193646113078,80.26422906450395L216.46271812756856,80.65513828317339L217.2332194601695,81.25542031828469L217.28137579345704,83.73588000716158L217.4258447933197,83.18251671516667L217.81109545962016,89.3840214462016L218.00372079277037,81.00687060830595L218.1000334593455,77.98428891114354L218.14818979263305,79.23497685214916L218.5334404589335,80.30624697622582L218.72606579208374,80.55955135540528L218.82237845865885,81.17110934239231L218.96684745852153,81.53657515288596L219.06316012509663,81.68834522326297L219.3039417915344,96.21016343321494L219.54472345797222,90.33728251947699L219.73734879112243,86.99831481425221L219.92997412427266,84.7980391679923L220.1225994574229,83.78668924129211L220.3152247905731,82.93686327660475L220.4596937904358,82.55017756032932L220.65231912358604,83.24671151902531L220.7004754568736,67.97840965880255L220.74863179016114,76.88037850133232L222.1451654555003,78.91266755720054L222.8193541215261,80.40619060031769L222.86751045481364,80.94831115013038L222.96382312138874,80.99348757364142L223.3490737876892,82.47664814417466L223.49354278755186,82.30704171529828L223.68616812070212,82.12738691425217L223.73432445398967,81.82105309217533L223.87879345385235,83.36185379374534L224.64929478645323,82.62665089353582L224.69745111974078,82.30029378725135L224.74560745302838,82.04667472390379L224.79376378631594,82.05506124677436L225.08270178604127,82.037756650871L225.32348345247905,82.02891956852534L225.7087341187795,81.79099255298132L225.85320311864217,81.9050084662868L226.19029745165508,81.7100297336455L226.57554811795552,81.90708580562746L226.86448611768088,82.05679629802636L227.15342411740622,81.95214167110349L227.24973678398132,81.8556271914619L227.29789311726887,81.83210966776977L228.1647071164449,81.76684331978305L228.35733244959513,81.59520331097626L228.64627044932047,80.04331881877782L228.93520844904583,80.63061561700634L228.98336478233338,81.07490457768876L229.07967744890848,77.34542599832541L229.32045911534627,79.07974291028015L229.46492811520895,80.15420515035352L229.56124078178405,80.76901342467319L229.65755344835915,81.20243438803205L229.85017878150938,81.31203627568514L230.04280411465965,81.28805725322779L230.33174211438498,81.63476521058041L230.42805478096008,81.9225682408855L230.6206801141103,206.38393995830137L231.00593078041075,177.69691960686188L231.198556113561,147.6465840340567L231.2948687801361,114.39947167971677L231.34302511342366,33.6695367794982L231.48749411328635,51.84237950147L232.065370112737,67.24078316989429L232.2098391125997,77.58547453456363L232.30615177917483,78.48558750073197L232.35430811246238,80.39267393720705L232.54693344561258,80.67296829312723L232.6432461121877,81.24644063073507L232.93218411191305,81.72021241349374L233.02849677848815,81.55022543334042L233.0766531117757,81.4774114497623L233.36559111150106,81.34134010261654L233.4619037780762,81.5330709983844L233.6545291112264,81.69885238094363L233.79899811108908,81.65872006638784L233.89531077766418,81.80230852834961L234.95475010999044,81.79752514550215L235.05106277656554,81.92960262937271L235.436313442866,81.52792948919814L235.48446977615356,81.76449266888861L235.62893877601624,81.60098415796207L235.91787677574158,81.8059307101009L236.59206544176737,81.99005321703923L236.73653444163006,83.06171446271755L237.16994144121804,82.3309344383506L237.36256677436828,82.33533902052737L237.41072310765583,82.21715796934454L237.74781744066874,83.35822424992305L237.7959737739563,83.5592555514693L237.89228644053142,82.6781980528444L238.7109441064199,82.32876140005364L238.85541310628255,83.55459917207058L239.09619477272034,80.89156463315577L239.38513277244567,81.77042758104905L239.48144543902077,81.93421837317302L239.52960177230833,81.90359512527445L239.77038343874614,84.82891306682255L239.96300877189637,83.89601858053567L240.20379043833415,82.85484605281174L240.44457210477194,82.18254634050575L240.97429177093505,-50.310584398146545L241.1669171040853,27.805465979089625L241.50401143709817,84.8816137448365L241.69663677024843,-29.799134081082997L241.79294943682353,101.11503151834764L241.84110577011108,137.58611232879738L242.80423243586225,115.31432726542215L242.9487014357249,101.8077997619229L243.23763943545023,179.82486458312923L243.47842110188802,128.18915691908992L243.67104643503825,109.73340803819508L244.34523510106405,98.39623385796544L244.3933914343516,91.84001894651328L244.63417310078938,87.81932533379867L244.73048576736448,85.3331116719706L245.0675801003774,83.97661196383444L245.59729976654052,83.16844266047364L245.9343940995534,84.28326685407905L246.12701943270366,83.78787265437434L247.04198976516724,138.6844393499077L247.18645876502993,-34.49871117545043L248.48667976379394,-58.510775768446656L248.87193043009438,0.29622576612935125L248.92008676338196,28.43820598490179L249.0645557632446,48.26919359691519L249.69058809598286,61.83438802071907L249.9795260957082,70.06054159216421L250.12399509557088,73.34542566799723L250.220307762146,76.69173439322218L250.26846409543356,75.85987606690098L250.60555842844644,75.93333959368915L250.75002742830912,77.44370351323346L250.79818376159668,79.1779825442015L251.03896542803446,79.97489440595197L251.087121761322,80.74465926839686L251.32790342775982,80.92206368618342L251.47237242762247,81.12481187924794L251.52052876091005,81.20069974641959L251.61684142748516,47.93450983182312L252.14656109364827,62.72689184816667L252.43549909337364,69.96040596813047L252.72443709309897,74.75104604188446L252.82074975967407,77.60234460801468L253.06153142611186,78.60334157686025L253.35046942583722,80.37480374978945L253.49493842569987,77.8740716552422L253.591251092275,103.15725252502543L253.63940742556255,105.01418759916095L253.7838764254252,97.7600972887033L254.45806509145103,91.50297306690697L254.74700309117637,87.55921165685001L254.89147209103902,85.40012940715862L255.3730354239146,81.65768827072245L255.42119175720214,81.35864356863328L255.6138170903524,81.71689765951356L255.8064424235026,76.92979162965376L256.4324747562408,78.78573986996335L256.6251000893911,79.98210004083678L257.4919140885671,80.72650680946236L257.7808520882924,81.22707583159554L257.9253210881551,82.78095350053552L258.0697900880178,82.40657785882114L258.55135342089335,81.6090731914025L258.8402914206187,81.42474299736477L259.0329167537689,81.45598221807818L259.46632375335696,81.75236428037874L260.04419975280763,97.00263036801526L260.23682508595783,94.5457347293906L260.4776067523956,90.47003763428071L260.6702320855459,84.44443456881311L261.0554827518463,82.90587333908705L261.24810808499655,82.100057470347L261.34442075157165,82.00534298907526L261.5370460847219,82.01555379867969L261.58520241800943,85.16354001884346L261.9222967510223,82.74822693593875L261.9704530843099,82.32344208821709L262.066765750885,82.11171933906023L262.1630784174601,86.82918130264369L262.3075474173228,84.8616240107769L262.45201641718546,83.64144972608095L262.50017275047304,83.04969721764293L263.02989241663613,3.208703262291423L263.12620508321123,40.12863526117023L263.366986749649,123.54771811766332L263.5596120827993,202.11847998682003L264.4264260819753,177.98780484312596L264.61905141512557,141.34262616983807L264.8116767482758,127.31783538960882" fill="none"></path></g></g></g></g><g opacity="0.2"><g><g><g><path style="fill: none;" stroke="rgb(255, 112, 67)" stroke-width="2px" d="M24.511573643366496,-52.04699135482617L24.559729976654054,50.56073181403483L25.811794642130533,205.0317356946107L25.85995097541809,339.8190590516942L26.00441997528076,62.37855195271339L26.100732641855878,294.59984903361385L26.437826974868774,277.14927870341154L26.485983308156328,142.50610423380343L26.630452308019,-35.542761586509684L26.67860864130656,135.48835507061028L27.400953640619914,79.93260008722456L27.497266307195027,229.8032494730774L27.786204306920368,-10.37145014165435L28.07514230664571,76.28043888754968L28.604861972808838,-7.26849734727371L29.47167597198486,-95.08332714479184L29.616144971847532,27.898388615570248L29.71245763842265,45.43343416623582L29.808770304997765,115.04582230541969L30.723740637461344,124.45627553666881L31.25346030362447,58.95746941801651L31.686867303212484,-49.800701482320534L32.69815030225118,145.26352939278345L33.179713635126745,109.94245968205178L33.22786996841431,70.76956137796682L33.80574596786499,4.587534449391507L33.853902301152544,14.373120101513802L34.239152967453,50.4431824465916L34.28730930074056,85.47714788816705L34.431778300603234,-6.080989101933814L34.52809096717834,81.26441125104978L34.62440363375346,75.76170849044139L34.720716300328576,144.23227547778376L34.86518530019124,182.2772742950001L35.491217632929484,23.453695146556417L35.63568663279216,213.89464643883377L35.87646829922994,119.26184947594335L35.97278096580505,25.393765995988073L36.213562632242834,126.01987360385911L36.454344298680624,14.037977832645993L36.502500631968175,19.600542418970193L36.55065696525574,142.03184348937458L36.743282298405965,35.263505571296555L37.032220298131314,211.0977244327587L37.12853296470642,67.29958161674914L37.46562729771932,110.71245022935645L37.85087796401978,242.1372742552692L38.13981596374512,52.28915213895491L38.18797229703267,51.83019358302675L38.23612863032023,105.15191078950612L38.33244129689534,58.14488264079213L38.476910296758014,167.49979994753141L38.52506663004557,127.74338359766543L38.669535629908246,-8.784345446402435L38.81400462977091,96.48612728378389L39.006629962921146,223.37884875417402L39.19925529607137,24.959333132212535L39.24741162935893,-27.261768892536153L39.29556796264649,145.18268580517963L39.48819329579671,84.62283242423898L40.16238196182251,76.89575197637795L40.25869462839763,-16.62281118155889L40.306850961685186,75.68265272745906L40.88472696113586,205.02790609070172L41.1736649608612,34.30637071907069L41.22182129414876,10.226106937027701L41.41444662729899,173.07918233678467L41.992322626749676,141.86181556667026L42.47388595962524,1.9472302614852357L43.003605625788374,221.5476100551521L43.292543625513716,113.4554754285533L43.48516895866394,79.16252698436952L43.5333252919515,54.86259403895215L43.966732291539515,179.74803511130813L44.014888624827066,-21.654164269729957L44.351982957839965,63.537534517072L44.448295624415074,-20.121998163436604L44.92985895729065,80.06004405178014L45.21879695701599,-17.770893979198593L45.652203956604005,-0.13829413709250266L46.037454622904455,4.0606004240790465L46.23007995605469,152.41344532681475L46.51901795578003,73.711330849688L46.615330622355145,111.23322443414409L46.85611228879292,250.4880306489269L47.62661362139384,-8.182792562551763L47.77108262125651,140.7814323771163L48.011864287694294,159.51668552913515L48.06002062098185,72.08409320364085L48.637896620432535,68.53063132263459L49.50471061960856,129.58441050464452L49.601023286183676,125.11033943005098L49.697335952758785,72.60354408555234L49.79364861933391,145.1459216076535L49.84180495262146,-27.500022182506942L49.938117619196575,31.40130459311862L50.08258661905925,-49.204776168959846L50.17889928563436,65.00874501267187L50.37152461878459,203.70947082765352L50.41968095207214,126.91407962575026L50.75677528508504,9.200279376041387L50.85308795166015,33.22746095339355L50.901244284947715,162.06978509243623L51.527276617685956,253.59455341305312L51.57543295097351,142.4925643121863L52.00883995056152,43.92929232244583L52.4904032834371,-32.60986916910377L52.586715950012206,109.17763260917015L52.683028616587315,168.5745296031791L52.77934128316244,108.29725535190286L52.82749761644999,155.09667353277194L53.35721728261312,108.056923365912L53.40537361590067,24.71068798485486L53.50168628247579,166.58217492410878L53.597998949050904,98.62854888653973L53.69431161562601,49.14987327969873L54.03140594863891,-1.8808547876324155L54.07956228192648,32.773863842937935L54.9463762811025,109.04351858210711L55.13900161425273,177.18812664207397L55.37978328069052,176.7462098235407L55.71687761370341,28.683288654703574L55.76503394699097,-8.06859247581534L55.86134661356608,48.680032806900414L56.15028461329142,86.80318515838157L56.29475361315409,-14.916690185840997L56.487378946304325,22.92851365184637L56.68000427945454,94.55949412501755L56.77631694602967,93.57433825571535L57.11341127904256,53.110043963978505L57.25788027890523,6.9469988536883935L57.69128727849324,144.10849489042084L57.93206894493103,172.70082396143223L57.98022527821858,-16.56809328163916L58.07653794479371,170.8943738341533L58.221006944656374,-28.63960845215198L58.31731961123149,76.46937223412752L58.4136322778066,102.94774818271274L58.509944944381715,-50.297641270915435L58.60625761095683,-47.17297007877307L58.7507266108195,6.326168133211179L58.847039277394614,43.935422934127224L59.232289943695065,183.2335588453411L59.28044627698262,5.801408544016547L59.37675894355774,26.161666488278012L59.4249152768453,8.17255648566284L59.473071610132855,166.62355411888797L59.858322276433306,87.8638706341855L60.24357294273376,-15.772892257076116L60.29172927602132,89.04297403484466L60.33988560930888,104.2724536108051L60.532510942459105,17.657206669934773L60.62882360903422,73.81756016761045L60.773292608896895,117.30919935129882L61.11038694190979,127.60524848649794L61.20669960848491,93.05282165949194L61.59195027478536,172.18181526895512L61.64010660807292,-60.09455995426664L61.68826294136047,112.49447851814806L62.02535727437338,113.94097184139983L62.121669940948486,32.851796282485545L62.50692060724894,111.92611986207785L62.79585860697428,-48.00696693819022L62.84401494026184,78.48567512217625L62.94032760683695,112.04859903319712L63.229265606562294,94.17527288571463L63.56635993957519,113.08978070951679L63.71082893943787,80.3469229665962L64.04792327245077,101.81037204888294L64.09607960573832,106.78511190774203L64.72211193847656,73.45107113030554L64.81842460505167,89.94033217774985L65.25183160463969,69.95224601354298L65.29998793792724,-38.209541968220535L65.44445693778992,113.67385047789489L65.87786393737794,170.61914863932572L66.26311460367839,156.6343763375981L66.31127093696594,113.77449117045188L66.74467793655396,134.63300005583298L67.22624126942952,143.545010865767L67.61149193572999,142.087632380218L67.8041172688802,440.19881927455293L67.85227360216777,-483.820422395475L67.90042993545532,19.140464190712713L68.67093126805624,423.87034885309606L69.00802560106914,165.36600306713837L69.29696360079447,36.13274127753034L69.4895889339447,-16.148076604781966L69.58590160051982,124.51205144580408L69.68221426709493,205.25666975200318L70.26009026654562,762.3030912897419L70.45271559969585,119.48661477112965L70.74165359942118,171.5290690189518L70.88612259928385,426.0481342516096L70.93427893257142,225.5001767038736L71.17506059900919,123.59744142410301L71.36768593215942,114.29488241484866L71.6084675985972,81.99615606338385L71.65662393188477,161.56873659320684L72.13818726476033,86.37742204726902L72.282656264623,96.58866006030607L72.5234379310608,57.285535750753795L72.81237593078613,83.29846198506904L73.00500126393635,44.2896191051557L73.67918992996216,96.49262949686153L73.77550259653728,108.81371638415239L73.87181526311238,85.62589838550889L74.25706592941285,134.15510443311766L74.3052222627004,88.95803796374149L74.40153492927551,26.254083268711838L74.83494192886353,109.43185989103921L74.9794109287262,122.73804260723199L75.55728692817688,182.42388321617292L75.65359959475198,85.87286970386991L75.89438126118978,95.59191477103867L75.9906939277649,86.49526188043245L76.03885026105245,83.85835038081969L76.13516292762756,74.02398717729875L76.23147559420266,111.78676447034277L76.42410092735291,80.58790251670145L76.66488259379068,43.48817063353776L76.71303892707824,81.92791266878437L76.95382059351603,82.76471611265528L77.33907125981649,-95.18725870036893L78.1095725924174,87.4260195243785L78.4466669254303,66.23764381178556L78.59113592529297,80.11922228407045L78.68744859186808,35.65650406803322L78.88007392501832,83.97344843665063L79.12085559145609,130.26299359932526L79.21716825803121,79.52603874804225L79.69873159090677,94.08532181847558L79.93951325734457,82.97717211159073L80.2284512570699,109.0557798054699L80.51738925679525,230.8423313581012L80.5655455900828,45.6763543802923L81.04710892295839,82.14172647325832L81.19157792282105,124.59988243782824L81.38420325597127,60.363021679139756L81.72129758898417,-165.55066137494578L82.29917358843485,77.29336465901088L82.39548625500997,86.57331886324278L82.53995525487264,278.6880135540369L82.87704958788554,99.55882296185659L82.92520592117309,86.08926544839456L83.31045658747355,97.64673418437674L83.50308192062377,80.69275962750292L83.64755092048644,84.99965692963593L84.46620858637492,81.09469288630444L84.75514658610027,93.75634099284606L85.0440845858256,99.91710350281679L85.14039725240072,79.75564906012313L85.47749158541362,97.75756389513055L85.76642958513895,104.11381226887589L85.95905491828918,317.78455669611645L86.15168025143942,35.0982451809162L86.34430558458965,35.04960272041814L86.63324358431498,57.90244274993781L86.87402525075278,87.42169053038351L87.4037449169159,115.4272573456075L87.45190125020345,80.79930131777813L88.12608991622925,84.25363244115846L88.31871524937947,81.48732425678449L88.51134058252971,81.33412926120634L88.55949691581726,82.65916153929867L88.65580958239238,80.9496056140259L88.70396591567993,92.57984367010123L88.80027858225505,143.7438062537672L89.04106024869283,-146.92718073023627L89.28184191513061,-36.70109344274645L89.32999824841816,88.34319627319101L89.42631091499328,69.76615322698322L89.71524891471863,75.8566015317079L89.90787424786885,111.86072775261863L90.34128124745686,71.22530128162659L90.63021924718221,62.24054179048703L90.72653191375733,66.0180987859955L90.82284458033244,98.59216764940447L91.35256424649556,-66.06395180195138L91.73781491279603,76.96459762588773L91.88228391265869,85.6952182730451L92.02675291252136,129.35543264515834L92.46015991210938,84.53098541909011L92.74909791183472,83.17990065290644L92.89356691169739,67.95462400638434L93.76038091087342,105.24074786391317L94.3382569103241,81.65439318198459L94.53088224347432,81.98070319071984L94.96428924306234,33.99531600970491L95.15691457621256,129.80551820355504L95.25322724278767,161.02943749086626L95.30138357607522,141.7337380339044L95.49400890922547,96.00703409849021L96.26451024182637,218.38082620171917L96.36082290840149,129.87011518338912L96.50529190826417,48.48154248904211L96.55344824155172,208.61294759953532L96.98685524113974,90.8679425688224L97.08316790771485,117.84751833467286L97.17948057428995,114.17192616595429L97.66104390716553,91.43991825333033L97.94998190689087,77.49746834861584L98.04629457346599,81.52481633006684L98.23891990661622,81.16237215976138L98.8167959060669,79.93328913195329L99.25020290565492,97.23529030304971L99.39467190551757,82.53575995696244L99.44282823880513,81.50360937864548L99.49098457209269,81.66210667622545L99.53914090538024,83.08723174335933L100.02070423825582,81.61651493299324L100.2614859046936,68.38359481644903L100.30964223798117,91.93380247236564L100.35779857126872,83.86220128284361L100.50226757113138,75.23661056547768L100.55042390441893,81.74698104935186L100.88751823743185,81.43258867182288L101.46539423688253,81.56502164374312L101.6098632367452,81.62600397533056L101.65801957003275,81.5227819037L101.75433223660788,81.55371111498685L101.89880123647055,81.28311538238204L102.04327023633321,81.57967985584762L102.18773923619588,81.40562262137422L102.38036456934611,117.90020784269164L102.717458902359,71.58196965670392L102.9582405687968,13.60206505413953L103.6324292348226,86.18472116557437L104.11399256769816,81.58713971077404L104.16214890098571,33.031852574748115L105.07711923344931,81.54155894304363L105.12527556673686,79.37260854774574L105.31790089988708,81.17873965968845L105.4142135664622,81.11141251506551L105.70315156618754,81.2022922308266L105.79946423276265,81.34492248664064L105.94393323262531,-525.5599893933215L106.32918389892578,81.58375927523535L106.56996556536357,81.54642704557354L107.05152889823914,81.42231078470591L107.09968523152669,81.64121640115091L107.72571756426494,82.25114609667237L107.87018656412761,81.79676340271098L107.91834289741516,81.400426134873L108.39990623029072,81.53513066485077L108.49621889686584,79.6426451160907L108.68884423001607,81.54732479915144L108.73700056330364,575.6076938369168L109.07409489631652,-541.0424418935995L109.31487656275432,99.9292560043737L109.36303289604187,80.85238053059089L109.45934556261699,122.88847788688676L110.56694122823079,78.2010051261403L110.80772289466859,81.350986491003L111.24112989425659,97.01570470942161L111.72269322713215,668.5455600365284L112.25241289329529,97.2654435656923L112.39688189315797,33.3234606852812L112.92660155932109,44.600449880055606L113.21553955904642,86.48902051855326L113.26369589233398,75.65370108417856L113.36000855890909,81.99573507064481L113.40816489219667,81.30149623875506L113.50447755877177,82.81485441076066L114.08235355822245,-193.63689855310523L114.22682255808512,86.13438580919582L114.27497889137268,32.06110640151019L114.41944789123535,110.57720679368293L114.61207322438558,83.66881967282704L114.66022955767313,25.180833527795087L114.7083858909607,71.26896850247L114.85285489082337,105.49244046726281L115.09363655726115,95.34202662512408L115.28626189041138,88.663075704361L115.62335622342428,45.53913447955053L115.8159815565745,-205.38329333345445L115.86413788986206,96.6094080753824L116.10491955629985,71.49204779830825L116.20123222287496,96.80379779617375L116.77910822232565,81.38255194544193L116.97173355547586,81.77267182445749L117.16435888862611,81.72282298104572L117.35698422177633,89.30340251643328L117.45329688835143,-324.6847759644286L117.5977658882141,79.31651357256446L117.79039122136435,83.8298474178277L117.8385475546519,22.114177589446626L117.88670388793945,84.87475261315991L118.17564188766478,102.61595032641121L118.5127362206777,-0.8278175663301476L118.75351788711548,81.84067301638655L118.8498305536906,71.64160194452126L119.13876855341593,63.503214126108105L119.33139388656616,80.49695966724244L119.57217555300394,77.36464721855045L119.66848821957906,82.26911759820489L119.95742621930441,99.35912372242532L120.19820788574218,86.94207361430104L120.24636421902974,3.603469043575243L120.39083321889242,89.90086778492518L120.58345855204264,68.01833823006312L120.72792755190531,81.49559539240661L120.87239655176799,80.19677196606635L120.92055288505554,84.58148791496131L121.40211621793112,84.55883929667381L121.54658521779379,83.09104400451754L121.93183588409424,58.982108700115596L122.41339921696982,168.05306087700453L122.46155555025737,93.6133239480514L122.55786821683249,81.26381492918581L122.65418088340759,82.1305467377473L122.70233721669516,93.17516695674576L122.7504935499827,70.64375888955706L122.79864988327026,81.90709528270503L122.84680621655782,81.52857996052924L122.89496254984537,81.8004546702923L122.94311888313293,81.71702004656784L123.13574421628317,81.68852819536022L123.18390054957072,81.68743458945151L123.28021321614584,81.78863157958011L123.37652588272094,81.54193002466447L123.42468221600849,81.91651876044351L123.61730754915874,81.88597627475002L124.19518354860942,81.66009086035432L124.82121588134765,80.96448173880779L125.06199754778544,81.40367465521216L125.97696788024902,81.5282089296182L126.07328054682414,-85.34450160548353L126.16959321339925,104.95488253653002L126.36221854654949,103.50869915156069L126.8919382127126,81.67899843820571L126.98825087928772,81.66136029773189L127.03640721257527,81.6338948920602L127.08456354586284,81.53650187045325L127.18087621243794,81.91386002040446L127.42165787887573,81.67552487016216L127.46981421216329,81.5735824083738L127.85506487846375,81.5889424123824L127.9032212117513,76.06233929382824L128.04769021161397,82.00035975346916L128.38478454462688,127.26809080743736L128.62556621106467,78.87837909640888L128.72187887763977,87.13690146774302L128.96266054407755,82.24873048475754L129.15528587722778,81.7970670149462L129.2515985438029,81.89328794297064L129.34791121037802,81.79033161286463L129.39606754366557,81.77257307346554L129.73316187667848,81.5411112262413L129.87763087654113,86.84234691513461L129.97394354311623,592.3224739299778L130.31103787612915,-336.18810124107745L130.40735054270425,123.90761662274053L130.59997587585448,87.03931350499693L131.41863354174296,47.89015103725838L131.7075715414683,88.17150669184144L131.90019687461853,138.58991233136308L131.99650954119363,92.1844833138351L132.33360387420655,-85.2387785741795L132.3817602074941,61.36595762048881L132.76701087379456,81.47075470366921L132.86332354036966,81.41517637258255L132.91147987365724,81.47943516877692L133.152261540095,81.41853417253537L133.20041787338258,81.63648007436859L133.24857420667013,81.41047755203422L133.8264502061208,81.89394724640314L133.87460653940838,81.78991254709791L134.30801353899636,81.48529623252959L134.74142053858438,134.20490226564246L135.1748275381724,82.63480471077179L135.22298387145997,81.16938131868487L135.46376553789776,75.3010959837572L135.56007820447286,78.47892037430692L135.65639087104796,81.65631824791902L135.80085987091064,81.59874850188191L136.71583020337422,81.17629630951437L136.8602992032369,80.65791002909208L137.1010808696747,81.85290136712311L137.14923720296224,94.05116613293404L137.48633153597513,80.94849009989997L137.91973853556314,81.62430770090977L138.49761453501384,49.892748284071644L139.31627220090232,194.2061464561848L139.70152286720275,99.38391553959536L140.18308620007832,-199.98017657767923L140.5683368663788,76.57902628893552L140.61649319966634,81.19826176540964L140.80911853281657,535.995569173316L141.53146353212992,308.86781080812887L141.7722451985677,72.87050804584578L141.96487053171793,79.07531870865893L142.10933953158062,10.07444164052419L142.49459019788105,78.51493305263376L142.83168453089397,81.71583622000593L142.97615353075665,-135.1897952553543L143.07246619733175,81.71542853541938L143.4577168636322,-162.16464243400526L144.565312529246,627.4159256151537L144.85425052897133,81.55375750177414L145.38397019513448,82.45073828772105L145.43212652842203,81.68807506845636L145.48028286170958,-290.463253689931L145.52843919499716,26.68630924209916L145.5765955282847,46.22408185665966L145.76922086143492,81.82179569841831L145.86553352801005,64.61895624327923L145.9136898612976,78.0180336290377L146.20262786102296,82.30283778800529L146.53972219403585,81.72241677655138L146.63603486061095,81.25560848658789L146.68419119389853,81.476793302423L147.0212855269114,81.40102022550589L147.21391086006165,82.11751979644188L147.50284885978698,81.75724191699301L147.64731785964966,82.05198569954959L148.6104445254008,395.4884402897475L148.80306985855103,141.59218548806223L148.89938252512613,-86.3681222760816L148.99569519170126,87.41722522845279L149.09200785827636,58.828312780759354L149.76619652430216,81.88574738340145L150.10329085731505,6.246453954217796L150.29591619046528,82.04320920276281L150.5366978569031,81.97603259017383L150.58485419019064,81.31026294855091L150.82563585662842,117.9224195453637L150.97010485649108,80.69442645854751L151.40351185607912,81.56232698848999L151.45166818936667,81.64638506698945L151.59613718922932,82.22413192262586L151.93323152224224,82.04027736510919L151.9813878555298,82.42143507341434L152.0777005221049,82.27460627455945L152.84820185470582,80.80943668500913L152.89635818799337,81.72373666383878L153.0889835211436,51.42308072408657L153.13713985443115,152.78982399167188L153.7631721871694,652.834421765198L154.05211018689474,115.14749504377588L154.48551718648272,131.20768223884696L154.67814251963298,115.63804783195309L154.7744551862081,81.67951575380897L154.87076785278322,89.82255644177047L155.15970585250855,85.353279674274L155.2078621857961,118.75172027185181L155.49680018552144,113.57106455806347L155.83389451853435,82.23174361536353L156.26730151812237,81.48403681667575L156.36361418469747,395.0719870917819L156.55623951784767,117.88679449272912L156.60439585113525,80.19282593246226L156.79702118428548,81.47457015954467L157.03780285072327,207.2725602679784L157.18227185058595,81.94975309967386L157.3267408504486,81.90776614797136L157.37489718373615,81.91872440844169L157.71199151674904,81.3177368881236L157.8083041833242,82.0905403586067L158.48249284934997,81.45890545937894L158.62696184921265,83.90113951080919L158.6751181825002,81.38069660072505L159.0122125155131,193.98853408219796L159.06036884880066,82.91207158346725L159.10852518208821,82.99940886490276L159.2529941819509,29.15068532093966L159.4456195151011,81.23915911569273L159.68640118153888,81.61275763491682L159.87902651468914,81.9644617046396L160.0234955145518,82.2768513494252L160.4569025141398,79.40270339270158L160.50505884742736,83.53571801616175L160.64952784729005,80.5359693960225L161.66081084632873,83.07908196896014L161.94974884605406,78.79864118523027L162.0460615126292,83.7015926036097L162.28684317906698,78.08715676255953L162.720250178655,-64.42188255432455L162.76840651194254,129.21576569242725L163.0573445116679,150.78953748891217L163.10550084495546,44.52782046829382L163.34628251139324,484.9085232105337L163.82784584426878,-449.7916784872426L164.5983471768697,83.05334532684265L164.79097251001994,133.4605830462361L164.98359784317014,243.89737319354137L165.22437950960796,98.58358511759322L165.46516117604574,78.83125691564061L165.60963017590842,88.66135562802901L165.70594284248352,99.17943903155901L165.80225550905863,80.89573172797614L165.9467245089213,81.79242023532758L165.99488084220886,81.58967759668815L166.28381884193422,70.69458633381079L166.47644417508445,80.96524958656188L166.7653821748098,82.14130451703312L166.95800750796,82.07930375205775L167.39141450754803,90.3129469585956L167.9692905069987,-310.8516235232259L168.59532283973695,584.1420764925826L168.69163550631205,81.85969214430357L168.78794817288716,90.0700583874528L168.83610450617473,-33.47421726221307L169.0768861726125,77.89155203501952L169.46213683891298,88.5839148706782L169.55844950548808,82.39733280807101L169.84738750521342,-95.39390153095547L169.89554383850097,81.00295257456958L170.0881691716512,81.71099750697304L170.1844818382263,46.00748205590976L170.85867050425213,82.19987549949809L171.00313950411478,81.9062461978553L171.29207750384012,-294.5539976403715L171.38839017041522,81.56862525943944L171.58101550356548,86.59496505025282L171.62917183685303,91.27306760369964L171.67732817014058,85.05468030537594L172.35151683616638,81.85487323027725L172.92939283561708,81.74256537329673L173.12201816876728,81.71076445108235L174.08514483451845,82.3511737584871L174.27777016766865,82.0279977340899L174.32592650095623,82.14657848810495L174.37408283424378,82.25405186949006L174.56670816739398,81.96294512672507L174.6630208339691,81.64260938978079L174.71117716725666,81.91168956500574L174.75933350054424,81.44273572766224L174.95195883369448,82.23592408036157L175.04827150026958,81.93159027007526L175.2408968334198,82.25526454358804L175.3372094999949,81.63855756603098L175.62614749972025,82.80685352032701L175.7706164995829,-554.5965914628982L176.05955449930826,-203.61344513234954L176.1558671658834,158.35630256300814L176.20402349917094,257.2763346111399L176.58927416547138,134.41168464959182L177.07083749834698,86.37174498401667L177.55240083122254,82.20149157003536L177.74502616437275,263.14126265321266L177.937651497523,576.9442385828565L177.98580783081056,82.26238399632113L178.0339641640981,89.69467688005415L178.22658949724834,82.56308675691068L178.32290216382344,81.5981972800441L178.41921483039857,81.5287987099183L178.804465496699,81.1251665841576L178.9007781632741,-15.70525106667711L179.14155982971192,81.91110794898306L179.33418516286216,82.02759454048979L179.57496682929994,80.87928126682034L180.10468649546306,80.89663786134808L180.2973118286133,81.78689470562769L180.53809349505107,81.63181158144856L180.77887516148886,81.63708966001398L180.8270314947764,81.89674366354248L181.0196568279266,81.55852915426917L181.69384549395244,81.93092561675913L181.74200182724,81.90427784635462L181.93462716039022,81.92293152143833L181.98278349367777,81.69748463269414L182.31987782669069,81.11830580210164L182.56065949312847,81.48182948257679L182.70512849299112,81.7307541359997L182.8495974928538,431.32631504799514L183.23484815915424,81.75704964445698L183.47562982559205,81.73609458127736L183.57194249216715,81.72839384213525L183.81272415860494,81.62285586355988L184.10166215833027,81.98523895391422L184.19797482490537,-40.11037560472042L184.29428749148053,82.18251109566151L184.39060015805563,82.0407934133637L184.53506915791831,81.2850858383393L184.72769449106852,245.599716512183L184.92031982421875,82.06334329967542L185.546352156957,81.57859122425312L186.07607182312012,82.69638709456268L186.17238448969522,82.27826483432136L186.26869715627035,96.68067116235972L186.46132248942058,76.34266102614612L187.37629282188414,78.3928650365528L187.4244491551717,82.90057374539637L187.80969982147218,80.62017108783793L188.00232515462238,80.51440951708783L188.0986378211975,85.09936070797389L188.14679415448506,82.55540117999801L188.58020115407305,81.54161640992167L188.62835748736066,81.66729669009642L188.7728264872233,81.98475992381191L188.96545182037354,81.65783831371682L189.20623348681133,81.94571708153406L189.30254615338643,81.88995577682047L189.35070248667398,81.80904388311937L189.39885881996153,81.39103528888923L189.97673481941223,82.15654600590616L190.3619854857127,81.63407707968526L190.41014181900024,83.35750948750133L190.65092348543806,81.38880169979262L190.98801781845094,82.05773023218755L191.22879948488873,81.45177403913362L191.32511215146383,81.5974372099052L191.5658938179016,81.33323793509528L191.6622064844767,81.20354237946495L191.80667548433942,82.58924094350098L192.76980215009053,81.90460533022703L192.8179584833781,81.85174652754921L193.29952181625367,140.26503300798058L194.11817948214212,82.19671374362248L194.84052448145547,81.26964985203784L194.98499348131813,24.31853005372194L195.51471314748127,81.93280940967243L196.47783981323244,82.01129605659716L196.52599614652,81.96041212162899L196.91124681282042,81.99787307177311L197.10387214597068,81.87676840239315L197.24834114583334,95.05865054028177L197.826217145284,62.97088133291213L197.9706861451467,84.08933330569995L198.16331147829692,81.1043934170217L198.2114678115845,81.6244063694983L198.25962414487205,82.06023283676002L198.50040581130983,81.69348912692855L198.83750014432272,81.49723324280193L199.9450958099365,105.26718998073383L199.99325214322408,87.61893054747408L200.13772114308674,82.86139109620675L200.23403380966184,81.92878566330363L200.330346476237,81.65850587175356L200.4266591428121,81.87295336487351L200.57112814267478,-2.778351672543645L200.71559714253743,81.63511970481596L200.76375347582498,82.03134445395196L201.24531680870055,90.83974061918852L201.63056747500102,91.07388519852475L201.72688014157615,88.09676978089459L201.7750364748637,65.39518612407119L201.8713491414388,70.12255791111343L202.01581814130148,80.55926953378861L202.16028714116413,82.59218444440803L203.07525747362772,81.81852037795119L203.2197264734904,82.16405724253494L203.3160391400655,81.88121926470905L203.50866447321576,77.76647895633732L203.6531334730784,70.49130252021219L204.13469680595398,76.85970907501178L204.568103805542,80.54593468259264L204.66441647211713,82.14081577600459L204.85704180526733,82.08081946790574L205.2422924715678,80.72288013161631L205.62754313786826,79.53452026593682L206.06095013745625,79.52693955688545L206.10910647074382,81.96634232819058L206.34988813718158,82.13948302110609L206.68698247019452,82.42168725323742L206.87960780334473,81.88639785065173L207.2167021363576,81.83074663690857L207.4574838027954,93.63543341977164L207.98720346895854,82.25609481510288L208.0353598022461,81.78665917129564L208.13167246882122,81.73305432607665L208.27614146868387,79.79317086202428L208.37245413525898,81.86275996027923L208.99848646799725,81.92605940316916L209.52820613416034,81.60431750889445L209.86530046717328,2.5738638055126386L210.10608213361104,81.15296437670523L210.44317646662395,81.87000716366977L210.5876454664866,83.33352740437816L210.6839581330617,138.30860520625973L210.73211446634926,119.69510749512988L210.87658346621197,77.55661787916074L210.97289613278707,82.05218567363613L211.69524113210042,81.92256841393316L211.79155379867552,81.68563904980974L212.08049179840089,82.02339214350432L212.610211464564,82.40609586676146L212.7065241311391,82.55872175895945L212.89914946428934,81.29910755374273L213.0917747974396,76.06344476741425L213.23624379730225,81.60740589403174L213.2844001305898,81.85774566140307L213.33255646387735,82.04234399219747L213.52518179702759,81.90322303185634L214.29568312962851,82.7269366035631L214.44015212949117,76.81274977411313L214.58462112935385,-41.33939286192113L214.77724646250405,81.67425832938368L215.16249712880455,81.20396484278811L215.25880979537965,81.9789098894402L215.3069661286672,79.98532600487795L215.69221679496766,81.87157279063595L215.74037312825521,81.96797543721982L216.22193646113078,81.77910327835143L216.46271812756856,81.2415021111775L217.2332194601695,82.15584337095169L217.28137579345704,87.45656954047693L217.4258447933197,82.35247177717432L217.81109545962016,98.68627854275397L218.00372079277037,68.44114435146247L218.1000334593455,73.45041636539992L218.14818979263305,81.11100876365762L218.5334404589335,81.91315216234084L218.72606579208374,80.93950792417445L218.82237845865885,82.08844632287287L218.96684745852153,82.08477386862641L219.06316012509663,81.91600032882855L219.3039417915344,117.99289074814288L219.54472345797222,81.52796114887006L219.73734879112243,81.98986325641508L219.92997412427266,81.4976256986024L220.1225994574229,82.26966435124179L220.3152247905731,81.66212432957373L220.4596937904358,81.97014898591617L220.65231912358604,84.29151245706929L220.7004754568736,45.075956868468396L220.74863179016114,90.23333176512698L222.1451654555003,81.96110114100284L222.8193541215261,82.64647516499342L222.86751045481364,81.76149197484942L222.96382312138874,81.06125220890799L223.3490737876892,84.7013889999745L223.49354278755186,82.05263207198372L223.68616812070212,81.857904712683L223.73432445398967,81.36155235906008L223.87879345385235,85.6730548461003L224.64929478645323,81.52384654322157L224.69745111974078,81.81075812782466L224.74560745302838,81.6662461288824L224.79376378631594,82.06764103108023L225.08270178604127,82.01179975701596L225.32348345247905,82.01566394500685L225.7087341187795,81.43410202966527L225.85320311864217,82.07603233624502L226.19029745165508,81.41756163468355L226.57554811795552,82.2026699136004L226.86448611768088,82.28136203662471L227.15342411740622,81.79515973071919L227.24973678398132,81.71085547199955L227.29789311726887,81.79683338223155L228.1647071164449,81.66894379780298L228.35733244959513,81.33774329776605L228.64627044932047,77.71549208048017L228.93520844904583,81.51156081434911L228.98336478233338,81.74133801871236L229.07967744890848,71.7512081292804L229.32045911534627,81.6812182782123L229.46492811520895,81.76589851046356L229.56124078178405,81.6912258361527L229.65755344835915,81.85256583307034L229.85017878150938,81.47643910716475L230.04280411465965,81.25208871954177L230.33174211438498,82.1548271466093L230.42805478096008,82.35427278634316L230.6206801141103,393.07599753442514L231.00593078041075,657.2488256636335L231.198556113561,102.57108067484891L231.2948687801361,64.52880314820686L231.34302511342366,-87.42536557082964L231.48749411328635,79.10164358442768L232.065370112737,90.3383886725307L232.2098391125997,93.10251158156763L232.30615177917483,79.8357569499845L232.35430811246238,83.25330359191965L232.54693344561258,81.09340982700752L232.6432461121877,82.10664913714677L232.93218411191305,82.43087008763177L233.02849677848815,81.29524496311045L233.0766531117757,81.3681904743951L233.36559111150106,81.1372330818979L233.4619037780762,81.82066734203617L233.6545291112264,81.94752445478248L233.79899811108908,81.59852159455417L233.89531077766418,82.01769122129224L234.95475010999044,81.79035007123093L235.05106277656554,82.1277188551786L235.436313442866,80.92541977893626L235.48446977615356,82.11933743842432L235.62893877601624,81.35572139157226L235.91787677574158,82.1133505383091L236.59206544176737,82.26623697744678L236.73653444163006,84.66920633123499L237.16994144121804,81.23476440180015L237.36256677436828,82.34194589379257L237.41072310765583,82.0398863925703L237.74781744066874,85.0698236707908L237.7959737739563,83.86080250378875L237.89228644053142,81.35661180490698L238.7109441064199,81.8046064208675L238.85541310628255,85.39335583009601L239.09619477272034,76.89701282478357L239.38513277244567,83.08872200288896L239.48144543902077,82.17990456135901L239.52960177230833,81.85766025342659L239.77038343874614,89.2168899791447L239.96300877189637,82.49667685110535L240.20379043833415,81.29308726122584L240.44457210477194,81.17409677204678L240.97429177093505,-249.05028050612484L241.1669171040853,144.9795415449438L241.50401143709817,170.4958353934568L241.69663677024843,-201.8202558199622L241.84110577011108,192.29273354447204L242.80423243586225,81.90664967035929L242.9487014357249,81.54800850667401L243.23763943545023,296.85046181493874L243.47842110188802,50.73559542303099L243.67104643503825,82.04978471685278L244.34523510106405,81.390472587621L244.3933914343516,82.00569657933502L244.63417310078938,81.7882849147268L244.73048576736448,81.60379117922852L245.0675801003774,81.94186240163019L245.59729976654052,81.95618870543244L245.9343940995534,85.95550314448714L246.12701943270366,83.04478135481729L247.04198976516724,221.0292893932078L248.1977417640686,-176.7973123177362L248.48667976379394,79.58957569026887L248.87193043009438,88.50672806799338L248.92008676338196,70.65117631306042L249.0645557632446,78.01567501493531L249.69058809598286,82.18217965642489L249.9795260957082,82.39977194933189L250.12399509557088,78.2727517817468L250.220307762146,81.71119748105959L250.26846409543356,74.61208857741916L250.60555842844644,76.0435348838714L250.75002742830912,79.70924939254995L250.79818376159668,81.77940109065354L251.03896542803446,81.17026219857766L251.087121761322,81.89930656206421L251.32790342775982,81.18817031286328L251.47237242762247,81.42893416884476L251.52052876091005,81.31453154717705L251.61684142748516,-1.9647750400715926L252.14656109364827,84.91546487268204L252.43549909337364,80.81067714807617L252.72443709309897,81.93700615251547L252.82074975967407,81.87929245721L253.06153142611186,80.10483703012858L253.35046942583722,83.03199700918323L253.49493842569987,74.12297351342134L253.591251092275,141.08202382970026L253.63940742556255,107.79959021036422L253.7838764254252,86.87896182301684L254.45806509145103,82.11728673421247L254.74700309117637,81.64356954176453L254.89147209103902,82.16150603262153L255.3730354239146,76.04402656606818L255.42119175720214,80.91007651549958L255.6138170903524,82.25427879583397L255.8064424235026,69.74913258486407L256.4324747562408,81.56966223042772L256.6251000893911,81.77664029714698L257.4919140885671,81.84311696240074L257.7808520882924,81.97792936479529L257.9253210881551,85.11177000394545L258.0697900880178,81.8450143962496L258.55135342089335,80.41281619027455L258.8402914206187,81.14824770630818L259.0329167537689,81.5028410491483L259.46632375335696,82.19693737382957L260.04419975280763,119.87802949947007L260.23682508595783,90.86039127145358L260.4776067523956,84.35649199161588L260.6702320855459,75.40602997061173L261.0554827518463,80.59803149449797L261.24810808499655,80.89133366723694L261.34442075157165,81.86327126716766L261.5370460847219,82.03087001308633L261.58520241800943,89.88551934908915L261.9222967510223,79.12525731158166L261.9704530843099,81.68626481663458L262.066765750885,81.79413521532493L262.1630784174601,93.9053742480189L262.3075474173228,81.9102880729767L262.45201641718546,81.81118829903706L262.50017275047304,82.16206845498587L263.02989241663613,-116.55278767073581L263.12620508321123,95.50853325948839L263.366986749649,248.67634240240295L263.6559247493744,496.59699360904614L263.94486274909974,83.53420868974825L264.4264260819753,106.93009000182651L264.61905141512557,86.37485815990622L264.8116767482758,106.28064921926497" fill="none"></path></g></g></g></g></g></g><g transform="translate(41, 176)" clip-path="url(#clip_1)"><clipPath id="clip_1"><rect width="288" height="23"></rect></clipPath><g><g><line x1="0" y1="0" x2="0" y2="5" style="visibility: inherit;" fill="rgb(0, 0, 0)" stroke="rgb(204, 204, 204)" stroke-width="1px"></line><line x1="24.07816664377848" y1="0" x2="24.07816664377848" y2="5" style="visibility: inherit;" fill="rgb(0, 0, 0)" stroke="rgb(204, 204, 204)" stroke-width="1px"></line><line x1="48.15633328755696" y1="0" x2="48.15633328755696" y2="5" style="visibility: inherit;" fill="rgb(0, 0, 0)" stroke="rgb(204, 204, 204)" stroke-width="1px"></line><line x1="72.23449993133545" y1="0" x2="72.23449993133545" y2="5" style="visibility: inherit;" fill="rgb(0, 0, 0)" stroke="rgb(204, 204, 204)" stroke-width="1px"></line><line x1="96.31266657511392" y1="0" x2="96.31266657511392" y2="5" style="visibility: inherit;" fill="rgb(0, 0, 0)" stroke="rgb(204, 204, 204)" stroke-width="1px"></line><line x1="120.39083321889242" y1="0" x2="120.39083321889242" y2="5" style="visibility: inherit;" fill="rgb(0, 0, 0)" stroke="rgb(204, 204, 204)" stroke-width="1px"></line><line x1="144.4689998626709" y1="0" x2="144.4689998626709" y2="5" style="visibility: inherit;" fill="rgb(0, 0, 0)" stroke="rgb(204, 204, 204)" stroke-width="1px"></line><line x1="168.5471665064494" y1="0" x2="168.5471665064494" y2="5" style="visibility: inherit;" fill="rgb(0, 0, 0)" stroke="rgb(204, 204, 204)" stroke-width="1px"></line><line x1="192.62533315022785" y1="0" x2="192.62533315022785" y2="5" style="visibility: inherit;" fill="rgb(0, 0, 0)" stroke="rgb(204, 204, 204)" stroke-width="1px"></line><line x1="216.70349979400635" y1="0" x2="216.70349979400635" y2="5" style="visibility: inherit;" fill="rgb(0, 0, 0)" stroke="rgb(204, 204, 204)" stroke-width="1px"></line><line x1="240.78166643778485" y1="0" x2="240.78166643778485" y2="5" style="visibility: inherit;" fill="rgb(0, 0, 0)" stroke="rgb(204, 204, 204)" stroke-width="1px"></line><line x1="264.8598330815633" y1="0" x2="264.8598330815633" y2="5" style="visibility: inherit;" fill="rgb(0, 0, 0)" stroke="rgb(204, 204, 204)" stroke-width="1px"></line><line x1="288.9379997253418" y1="0" x2="288.9379997253418" y2="5" style="visibility: inherit;" fill="rgb(0, 0, 0)" stroke="rgb(204, 204, 204)" stroke-width="1px"></line></g><g transform="translate(0, 8)"><text style="text-anchor: middle; visibility: hidden; font-family: Roboto, sans-serif; font-size: 12px; font-weight: 200;" x="0" y="0" dx="0em" dy="0.95em" fill="rgb(33, 33, 33)" stroke="none" stroke-width="1px">-500</text><text style="text-anchor: middle; visibility: inherit; font-family: Roboto, sans-serif; font-size: 12px; font-weight: 200;" x="24.07816664377848" y="0" dx="0em" dy="0.95em" fill="rgb(33, 33, 33)" stroke="none" stroke-width="1px">0</text><text style="text-anchor: middle; visibility: hidden; font-family: Roboto, sans-serif; font-size: 12px; font-weight: 200;" x="48.15633328755696" y="0" dx="0em" dy="0.95em" fill="rgb(33, 33, 33)" stroke="none" stroke-width="1px">500</text><text style="text-anchor: middle; visibility: inherit; font-family: Roboto, sans-serif; font-size: 12px; font-weight: 200;" x="72.23449993133545" y="0" dx="0em" dy="0.95em" fill="rgb(33, 33, 33)" stroke="none" stroke-width="1px">1k</text><text style="text-anchor: middle; visibility: hidden; font-family: Roboto, sans-serif; font-size: 12px; font-weight: 200;" x="96.31266657511392" y="0" dx="0em" dy="0.95em" fill="rgb(33, 33, 33)" stroke="none" stroke-width="1px">1.5k</text><text style="text-anchor: middle; visibility: inherit; font-family: Roboto, sans-serif; font-size: 12px; font-weight: 200;" x="120.39083321889242" y="0" dx="0em" dy="0.95em" fill="rgb(33, 33, 33)" stroke="none" stroke-width="1px">2k</text><text style="text-anchor: middle; visibility: hidden; font-family: Roboto, sans-serif; font-size: 12px; font-weight: 200;" x="144.4689998626709" y="0" dx="0em" dy="0.95em" fill="rgb(33, 33, 33)" stroke="none" stroke-width="1px">2.5k</text><text style="text-anchor: middle; visibility: inherit; font-family: Roboto, sans-serif; font-size: 12px; font-weight: 200;" x="168.5471665064494" y="0" dx="0em" dy="0.95em" fill="rgb(33, 33, 33)" stroke="none" stroke-width="1px">3k</text><text style="text-anchor: middle; visibility: hidden; font-family: Roboto, sans-serif; font-size: 12px; font-weight: 200;" x="192.62533315022785" y="0" dx="0em" dy="0.95em" fill="rgb(33, 33, 33)" stroke="none" stroke-width="1px">3.5k</text><text style="text-anchor: middle; visibility: inherit; font-family: Roboto, sans-serif; font-size: 12px; font-weight: 200;" x="216.70349979400635" y="0" dx="0em" dy="0.95em" fill="rgb(33, 33, 33)" stroke="none" stroke-width="1px">4k</text><text style="text-anchor: middle; visibility: hidden; font-family: Roboto, sans-serif; font-size: 12px; font-weight: 200;" x="240.78166643778485" y="0" dx="0em" dy="0.95em" fill="rgb(33, 33, 33)" stroke="none" stroke-width="1px">4.5k</text><text style="text-anchor: middle; visibility: inherit; font-family: Roboto, sans-serif; font-size: 12px; font-weight: 200;" x="264.8598330815633" y="0" dx="0em" dy="0.95em" fill="rgb(33, 33, 33)" stroke="none" stroke-width="1px">5k</text><text style="text-anchor: middle; visibility: hidden; font-family: Roboto, sans-serif; font-size: 12px; font-weight: 200;" x="288.9379997253418" y="0" dx="0em" dy="0.95em" fill="rgb(33, 33, 33)" stroke="none" stroke-width="1px">5.5k</text></g><line x1="0" y1="0" x2="288.9379997253418" y2="0" fill="rgb(0, 0, 0)" stroke="rgb(204, 204, 204)" stroke-width="1px"></line></g></g></g></g></svg>