<svg viewBox="0 0 330 200" xmlns="http://www.w3.org/2000/svg"><g><g><g><g><g><line x1="72.1240005493164" y1="176.95999908447266" x2="67.1240005493164" y2="176.95999908447266" style="visibility: inherit;" fill="rgb(0, 0, 0)" stroke="rgb(204, 204, 204)" stroke-width="1px"></line><line x1="72.1240005493164" y1="154.83999919891357" x2="67.1240005493164" y2="154.83999919891357" style="visibility: inherit;" fill="rgb(0, 0, 0)" stroke="rgb(204, 204, 204)" stroke-width="1px"></line><line x1="72.1240005493164" y1="132.7199993133545" x2="67.1240005493164" y2="132.7199993133545" style="visibility: inherit;" fill="rgb(0, 0, 0)" stroke="rgb(204, 204, 204)" stroke-width="1px"></line><line x1="72.1240005493164" y1="110.59999942779541" x2="67.1240005493164" y2="110.59999942779541" style="visibility: inherit;" fill="rgb(0, 0, 0)" stroke="rgb(204, 204, 204)" stroke-width="1px"></line><line x1="72.1240005493164" y1="88.47999954223633" x2="67.1240005493164" y2="88.47999954223633" style="visibility: inherit;" fill="rgb(0, 0, 0)" stroke="rgb(204, 204, 204)" stroke-width="1px"></line><line x1="72.1240005493164" y1="66.35999965667725" x2="67.1240005493164" y2="66.35999965667725" style="visibility: inherit;" fill="rgb(0, 0, 0)" stroke="rgb(204, 204, 204)" stroke-width="1px"></line><line x1="72.1240005493164" y1="44.239999771118164" x2="67.1240005493164" y2="44.239999771118164" style="visibility: inherit;" fill="rgb(0, 0, 0)" stroke="rgb(204, 204, 204)" stroke-width="1px"></line><line x1="72.1240005493164" y1="22.119999885559082" x2="67.1240005493164" y2="22.119999885559082" style="visibility: inherit;" fill="rgb(0, 0, 0)" stroke="rgb(204, 204, 204)" stroke-width="1px"></line><line x1="72.1240005493164" y1="0" x2="67.1240005493164" y2="0" style="visibility: inherit;" fill="rgb(0, 0, 0)" stroke="rgb(204, 204, 204)" stroke-width="1px"></line></g><g transform="translate(62.124000549316406, 0)"><text style="text-anchor: end; visibility: hidden; font-family: Roboto, sans-serif; font-size: 12px; font-weight: 200;" x="0" y="176.95999908447266" dx="0em" dy="0.3em" fill="rgb(33, 33, 33)" stroke="none" stroke-width="1px">-200</text><text style="text-anchor: end; visibility: inherit; font-family: Roboto, sans-serif; font-size: 12px; font-weight: 200;" x="0" y="154.83999919891357" dx="0em" dy="0.3em" fill="rgb(33, 33, 33)" stroke="none" stroke-width="1px">0</text><text style="text-anchor: end; visibility: hidden; font-family: Roboto, sans-serif; font-size: 12px; font-weight: 200;" x="0" y="132.7199993133545" dx="0em" dy="0.3em" fill="rgb(33, 33, 33)" stroke="none" stroke-width="1px">200</text><text style="text-anchor: end; visibility: inherit; font-family: Roboto, sans-serif; font-size: 12px; font-weight: 200;" x="0" y="110.59999942779541" dx="0em" dy="0.3em" fill="rgb(33, 33, 33)" stroke="none" stroke-width="1px">400</text><text style="text-anchor: end; visibility: hidden; font-family: Roboto, sans-serif; font-size: 12px; font-weight: 200;" x="0" y="88.47999954223633" dx="0em" dy="0.3em" fill="rgb(33, 33, 33)" stroke="none" stroke-width="1px">600</text><text style="text-anchor: end; visibility: inherit; font-family: Roboto, sans-serif; font-size: 12px; font-weight: 200;" x="0" y="66.35999965667725" dx="0em" dy="0.3em" fill="rgb(33, 33, 33)" stroke="none" stroke-width="1px">800</text><text style="text-anchor: end; visibility: hidden; font-family: Roboto, sans-serif; font-size: 12px; font-weight: 200;" x="0" y="44.239999771118164" dx="0em" dy="0.3em" fill="rgb(33, 33, 33)" stroke="none" stroke-width="1px">1e+3</text><text style="text-anchor: end; visibility: inherit; font-family: Roboto, sans-serif; font-size: 12px; font-weight: 200;" x="0" y="22.119999885559082" dx="0em" dy="0.3em" fill="rgb(33, 33, 33)" stroke="none" stroke-width="1px">1.2e+3</text><text style="text-anchor: end; visibility: hidden; font-family: Roboto, sans-serif; font-size: 12px; font-weight: 200;" x="0" y="0" dx="0em" dy="0.3em" fill="rgb(33, 33, 33)" stroke="none" stroke-width="1px">1.4e+3</text></g><line x1="72.1240005493164" y1="0" x2="72.1240005493164" y2="176.95999908447266" fill="rgb(0, 0, 0)" stroke="rgb(204, 204, 204)" stroke-width="1px"></line></g></g><g transform="translate(72, 0)" clip-path="url(#clip_0)"><clipPath id="clip_0"><rect width="257" height="176"></rect></clipPath><g><g><g><line x1="0" y1="0" x2="0" y2="176.95999908447266" fill="rgb(0, 0, 0)" stroke="rgb(66, 66, 66)" stroke-width="1px" opacity="0.25"></line><line x1="21.489666620890297" y1="0" x2="21.489666620890297" y2="176.95999908447266" fill="rgb(0, 0, 0)" stroke="rgb(66, 66, 66)" stroke-width="1px" opacity="0.25"></line><line x1="42.979333241780594" y1="0" x2="42.979333241780594" y2="176.95999908447266" fill="rgb(0, 0, 0)" stroke="rgb(66, 66, 66)" stroke-width="1px" opacity="0.25"></line><line x1="64.4689998626709" y1="0" x2="64.4689998626709" y2="176.95999908447266" fill="rgb(0, 0, 0)" stroke="rgb(66, 66, 66)" stroke-width="1px" opacity="0.25"></line><line x1="85.95866648356119" y1="0" x2="85.95866648356119" y2="176.95999908447266" fill="rgb(0, 0, 0)" stroke="rgb(66, 66, 66)" stroke-width="1px" opacity="0.25"></line><line x1="107.4483331044515" y1="0" x2="107.4483331044515" y2="176.95999908447266" fill="rgb(0, 0, 0)" stroke="rgb(66, 66, 66)" stroke-width="1px" opacity="0.25"></line><line x1="128.9379997253418" y1="0" x2="128.9379997253418" y2="176.95999908447266" fill="rgb(0, 0, 0)" stroke="rgb(66, 66, 66)" stroke-width="1px" opacity="0.25"></line><line x1="150.42766634623212" y1="0" x2="150.42766634623212" y2="176.95999908447266" fill="rgb(0, 0, 0)" stroke="rgb(66, 66, 66)" stroke-width="1px" opacity="0.25"></line><line x1="171.91733296712238" y1="0" x2="171.91733296712238" y2="176.95999908447266" fill="rgb(0, 0, 0)" stroke="rgb(66, 66, 66)" stroke-width="1px" opacity="0.25"></line><line x1="193.4069995880127" y1="0" x2="193.4069995880127" y2="176.95999908447266" fill="rgb(0, 0, 0)" stroke="rgb(66, 66, 66)" stroke-width="1px" opacity="0.25"></line><line x1="214.896666208903" y1="0" x2="214.896666208903" y2="176.95999908447266" fill="rgb(0, 0, 0)" stroke="rgb(66, 66, 66)" stroke-width="1px" opacity="0.25"></line><line x1="236.38633282979328" y1="0" x2="236.38633282979328" y2="176.95999908447266" fill="rgb(0, 0, 0)" stroke="rgb(66, 66, 66)" stroke-width="1px" opacity="0.25"></line><line x1="257.8759994506836" y1="0" x2="257.8759994506836" y2="176.95999908447266" fill="rgb(0, 0, 0)" stroke="rgb(66, 66, 66)" stroke-width="1px" opacity="0.25"></line></g><g><line x1="0" y1="176.95999908447266" x2="257.8759994506836" y2="176.95999908447266" fill="rgb(0, 0, 0)" stroke="rgb(66, 66, 66)" stroke-width="1px" opacity="0.25"></line><line x1="0" y1="154.83999919891357" x2="257.8759994506836" y2="154.83999919891357" fill="rgb(0, 0, 0)" stroke="rgb(66, 66, 66)" stroke-width="1px" opacity="0.25"></line><line x1="0" y1="132.7199993133545" x2="257.8759994506836" y2="132.7199993133545" fill="rgb(0, 0, 0)" stroke="rgb(66, 66, 66)" stroke-width="1px" opacity="0.25"></line><line x1="0" y1="110.59999942779541" x2="257.8759994506836" y2="110.59999942779541" fill="rgb(0, 0, 0)" stroke="rgb(66, 66, 66)" stroke-width="1px" opacity="0.25"></line><line x1="0" y1="88.47999954223633" x2="257.8759994506836" y2="88.47999954223633" fill="rgb(0, 0, 0)" stroke="rgb(66, 66, 66)" stroke-width="1px" opacity="0.25"></line><line x1="0" y1="66.35999965667725" x2="257.8759994506836" y2="66.35999965667725" fill="rgb(0, 0, 0)" stroke="rgb(66, 66, 66)" stroke-width="1px" opacity="0.25"></line><line x1="0" y1="44.239999771118164" x2="257.8759994506836" y2="44.239999771118164" fill="rgb(0, 0, 0)" stroke="rgb(66, 66, 66)" stroke-width="1px" opacity="0.25"></line><line x1="0" y1="22.119999885559082" x2="257.8759994506836" y2="22.119999885559082" fill="rgb(0, 0, 0)" stroke="rgb(66, 66, 66)" stroke-width="1px" opacity="0.25"></line><line x1="0" y1="0" x2="257.8759994506836" y2="0" fill="rgb(0, 0, 0)" stroke="rgb(66, 66, 66)" stroke-width="1px" opacity="0.25"></line></g></g></g><g><g><line x1="0" y1="154.83999919891357" x2="257.8759994506836" y2="154.83999919891357" fill="rgb(0, 0, 0)" stroke="rgb(153, 153, 153)" stroke-width="1.5px"></line></g></g><g><g><line x1="21.489666620890297" y1="0" x2="21.489666620890297" y2="176.95999908447266" fill="rgb(0, 0, 0)" stroke="rgb(153, 153, 153)" stroke-width="1.5px"></line></g></g><g><g><g><g><g><path style="fill: none;" stroke="rgb(255, 112, 67)" stroke-width="2px" d="M21.876480620066324,112.16253156692824L21.919459953308106,137.39202480669448L23.036922617594403,127.75101584956246L23.07990195083618,67.0902798632103L23.208839950561522,104.76411247224036L23.294798617045085,80.35189437187333L23.59565394973755,73.46432665433346L23.638633282979328,102.97541220685193L23.76757128270467,110.67441854202319L23.810550615946454,125.66797138215831L24.455240614573164,137.37636408467017L24.54119928105672,123.36684414532165L24.799075280507406,127.87049796347831L25.05695127995809,138.63895751183352L25.529723945617675,137.54743572181613L25.78759994506836,7.929749561392749L26.303351943969727,36.866036536051624L26.432289943695068,81.29604726652583L26.51824861017863,109.45103090867696L26.60420727666219,126.54365369693961L27.420814608256023,136.114237694215L27.893587273915607,143.11222041932217L28.280401273091634,131.29281073079133L29.182967271169026,136.8493098887098L29.612760603586832,143.28239353234164L29.655739936828613,147.7919764331372L30.171491935729982,144.93475577802263L30.21447126897176,144.56455731218355L30.558305934906006,147.74269633828473L30.601285268147787,150.5677778104478L30.73022326787313,144.89123319258601L30.81618193435669,148.87057968726722L30.90214060084025,151.2249800780707L30.988099267323815,148.9338535754847L31.117037267049156,141.6385805543426L31.675768599192303,143.68122301703255L31.804706598917644,131.55021472370893L32.01960326512655,139.51643862359592L32.105561931610104,142.62041452485053L32.320458597819005,145.63060397431494L32.53535526402791,144.94508660708365L32.578334597269695,145.22807301672458L32.62131393051148,145.59371407777388L32.7932312634786,147.23442312800506L33.051107262929285,134.28702586430973L33.13706592941284,142.30969285329655L33.43792126210531,146.51667115758508L33.78175592803955,125.26467186604864L34.039631927490234,136.2704347779426L34.08261126073201,142.84757642160437L34.1255905939738,147.1204688461122L34.21154926045735,149.67775340766377L34.3404872601827,144.70667857940427L34.38346659342448,146.732731586844L34.51240459314982,142.15826136986715L34.64134259287516,147.0215291431808L34.81325992584229,130.98518154928453L34.98517725880941,137.45544136794865L35.02815659205119,133.05793103611276L35.07113592529297,137.92257227133777L35.24305325826009,144.68117886836504L35.844763923645026,148.722926455329L35.93072259012858,141.93282486812944L35.97370192337036,147.06140386578588L36.48945392227173,135.6158096744474L36.74732992172241,141.16211484072088L36.79030925496419,141.75719785971327L36.96222658793132,138.97431544248053L37.477978586832684,141.86106700128215L37.907771919250486,141.0000569367951L38.380544584910076,127.85489198028417L38.63842058436076,137.6833846881L38.81033791732788,144.54000811685148L38.85331725056966,147.97252664170355L39.24013124974569,141.53039598800765L39.28311058298746,136.6616804696339L39.58396591567993,143.6189330364799L39.66992458216349,138.21478832094454L40.0997179145813,144.86238456511046L40.35759391403198,139.3788211182847L40.443552580515544,132.13398579159667L40.74440791320801,134.82562832625882L41.08824257914225,137.07388457498095L41.26015991210937,139.40765760378713L41.51803591156006,145.51998531536867L41.60399457804362,148.40796517428006L41.81889124425252,123.81688698619313L42.50656057612101,128.52051974317862L42.635498575846356,135.7138568900139L42.85039524205526,137.57016858720294L42.89337457529704,144.39042834367996L43.4091265741984,148.40549441813982L44.18275457255046,148.78892845024097L44.268713239034014,149.41581952754382L44.35467190551758,151.50512915399955L44.44063057200114,148.9911429352812L44.483609905242915,139.94701983800803L44.569568571726485,143.48784343111433L44.69850657145182,131.72492382551363L44.784465237935386,140.70338580044614L44.956382570902505,132.1551524003059L44.99936190414429,139.2773033829596L45.30021723683675,140.49006723087857L45.38617590332031,143.98803410928176L45.429155236562096,142.15699657721177L45.98788656870524,119.02927422198923L46.03086590194702,129.81639039011662L46.417679901123044,138.4660580049905L46.84747323354085,132.53901622923814L46.93343190002441,140.73739331107205L47.01939056650797,139.1678611429667L47.105349232991536,144.759767615796L47.14832856623331,143.64457077066837L47.62110123189291,147.45716328196082L47.66408056513468,147.2782402021775L47.750039231618246,143.42068669902707L47.83599789810181,147.71064115304785L47.921956564585365,149.55344230645412L48.22281189727783,144.9998618935911L48.26579123051962,146.6404072121177L49.039419228871665,149.2043780174977L49.211336561838785,142.7481515326875L49.42623322804769,138.95180053886196L49.72708856074015,142.76388739122328L49.77006789398194,139.83660351673976L49.856026560465494,144.78841258452903L50.11390255991618,148.78239851505342L50.24284055964152,142.2945681620917L50.41475789260864,144.01676034912168L50.58667522557576,148.1875334246677L50.67263389205933,150.7155650395621L50.97348922475179,151.5855641541143L51.10242722447713,147.58094744875496L51.48924122365315,146.75960958166422L51.70413788986206,142.09771139591862L51.74711722310384,137.991297737827L51.833075889587406,137.13591470432817L51.96201388931275,132.59226402373315L52.047972555796306,141.46551836394326L52.13393122227986,146.38327101205627L52.21988988876343,133.12722384749142L52.30584855524699,125.99160891366101L52.434786554972334,132.23101899561175L52.52074522145589,139.91377213515096L52.864579887390136,136.0373466822547L52.90755922063192,138.0403675575545L52.99351788711547,141.82090102032072L53.03649722035726,141.86530683519422L53.079476553599044,140.1559086979681L53.42331121953328,145.99296349888976L53.76714588546753,140.4626304796284L53.81012521870931,146.16164765842038L53.85310455195109,149.1471553823863L54.02502188491821,147.5079637379747L54.110980551401774,150.38181378925918L54.23991855112712,150.95857496085836L54.540773883819575,150.49815631780106L54.626732550303146,152.11142034247072L54.970567216237384,145.34480833195255L55.01354654947917,129.97324778572627L55.05652588272095,139.01315585554002L55.35738121541341,144.34645269420463L55.443339881896975,146.26889414629807L55.78717454783121,148.82308220656583L56.045050547281896,135.16796408660335L56.088029880523685,143.02711493351524L56.17398854700724,146.87066516919907L56.43186454645792,149.90963721683679L56.73271987915039,150.94000105857683L56.86165787887573,152.49832033095262L57.162513211568196,153.04186255499087L57.20549254480998,153.15992526887769L57.764223876953125,153.76741573797545L57.85018254343669,154.13548372263787L58.23699654261271,154.27982728448387L58.2799758758545,140.75058765705495L58.408913875579834,145.3556759993761L58.79572787475586,141.4039362433356L59.13956254069011,141.5372124835664L59.18254187393189,145.8768044066864L59.56935587310792,146.78367641977079L59.99914920552571,146.40107994400043L60.342983871459964,146.2943087143971L60.51490120442708,26.881359625719476L60.557880537668865,-227.26778210594696L61.5893845354716,-2.981444388691575L61.847260534922285,58.16694111140485L62.019177867889404,87.69213185587448L62.10513653437297,112.79842676358452L62.19109520085653,113.80699187907169L62.277053867340086,99.79193430525362L62.44897120030721,39.40465600155918L62.706847199757895,-356.96541646118465L63.308557865142824,-3.6241550063635826L63.523454531351724,58.040672887042824L63.695371864318844,95.75657416664889L63.910268530527745,119.38984598912158L63.95324786376953,127.86508450714292L64.38304119618734,138.63354698701028L64.51197919591267,144.897153445605L64.72687586212159,148.2852382780674L64.98475186157226,150.90460438124586L65.15666919453939,151.10220223883564L65.75837985992432,152.38719526326514L65.84433852640788,152.6735081946501L65.93029719289143,153.525312668093L66.27413185882568,151.42771634367676L66.31711119206746,152.7406856495038L66.40306985855102,150.63078219231613L66.78988385772705,151.57823129780587L66.9188218574524,151.29729703517808L67.43457385635377,143.16692543175682L67.52053252283731,147.81928676716987L67.73542918904622,150.44229655264687L67.82138785552979,152.17933279878622L67.86436718877157,153.23908381485606L67.95032585525513,153.82357039188486L68.03628452173868,153.3195894816631L68.20820185470582,153.92656673194327L68.4230985209147,152.89443204041473L68.4660778541565,153.67259762787333L68.6809745203654,154.13841781741695L69.02480918629963,125.02613925255271L69.71247851816813,136.92054143044447L70.0133338508606,143.8595741389683L70.14227185058594,148.24943781265594L70.22823051706949,148.89828757519487L70.40014785003663,151.26992396335032L70.61504451624552,150.44665120758975L70.70100318272908,152.19962593626292L71.13079651514688,153.10566196563727L71.3456931813558,153.79778548724374L71.60356918080647,153.49767419141097L71.86144518025716,133.47552240624606L71.90442451349894,140.79796652289173L72.33421784591675,146.41457043636052L72.46315584564209,148.00191200614748L72.63507317860922,150.30335620510877L72.93592851130167,93.71653696649766L73.45168051020305,118.14761244427078L73.53763917668661,132.80164465558298L73.66657717641195,105.10904184245823L73.96743250910441,124.69696704873101L74.01041184234619,136.7357013886064L74.35424650828044,143.7337987671635L74.52616384124755,148.17536251394932L74.65510184097289,150.83065430014346L75.38575050608317,152.43407218051723L75.64362650553386,153.25698974570403L75.90150250498453,153.57047291565826L75.9874611714681,154.07477319320105L76.28831650416056,154.13428545249755L76.54619250361125,153.93748550935922L76.71810983657836,101.05789782312863L76.8900271695455,120.5763626501182L77.06194450251262,132.20284206493812L77.3198205019633,140.72047292278785L77.53471716817221,146.33674505194872L78.00748983383178,148.6507117320767L78.05046916707356,151.12569299825668L78.6521798324585,152.6050521156118L78.82409716542561,153.49899768641052L78.99601449839274,154.03528830727734L79.03899383163451,154.35625099155664L79.12495249811809,154.54924868965534L79.16793183135987,154.55272161252452L79.25389049784343,150.96211109825802L79.46878716405232,102.57005446800218L79.68368383026123,109.46851053587432L79.726663163503,127.57441858460956L79.81262182998657,138.3458978581966L80.07049782943726,144.91086632143123L80.24241516240437,147.99253864603494L80.6292291615804,150.62745921786058L80.88710516103109,151.95787733652125L80.97306382751465,152.87198152147982L81.05902249399821,153.38615275459438L81.53179515965779,133.266742633269L81.87562982559204,141.87490237171963L82.00456782531738,147.0455030168087L82.13350582504273,148.02085178149665L82.52031982421875,150.74069864441933L82.77819582366944,152.37825405995315L82.90713382339477,153.18550595472746L83.68076182174683,153.31432765045352L84.19651382064819,153.92459590508108L84.36843115361532,154.290667470044L84.75524515279135,152.25720734365922L84.92716248575846,151.08345244312576L85.01312115224202,146.56674313214913L85.0561004854838,146.44500932538514L85.22801781845094,149.6063959123341L85.91568715031941,133.8516529613958L86.00164581680298,140.0277014468276L86.13058381652833,144.90299244625035L86.1735631497701,133.27349342628887L86.56037714894613,141.81966979078757L86.6463358154297,145.81189483547513L86.73229448191324,148.41502887625774L87.16208781433106,150.89338643688927L87.41996381378175,152.4550168174132L87.5059224802653,153.4089892711053L87.67783981323242,153.98114346837465L88.19359181213379,154.32179808465403L88.58040581130982,154.30064422310616L88.70934381103515,154.51567701769807L88.75232314427694,154.64537817671638L88.79530247751872,154.72322645359583L88.83828181076049,154.76803473981556L89.26807514317831,154.7968173843512L89.4829718093872,154.64661455762538L89.525951142629,154.62343362473615L89.56893047587077,154.70547239465327L89.69786847559611,154.7197619504661L89.74084780883788,154.7678517270974L90.04170314153036,154.79665518396277L90.55745514043173,154.81398147972462L90.68639314015707,154.8243863815508L90.72937247339884,154.830609717228L90.8153311398824,154.83435172730816L90.94426913960775,154.8364649723982L91.07320713933309,154.8378701947975L91.20214513905843,154.83865312950326L91.37406247202556,153.60346962426848L91.674917804718,154.0002509946946L91.88981447092692,149.87613104408564L92.49152513631185,151.8422451046112L92.92131846872965,153.041339573512L92.96429780197143,151.6654596350747L93.78090513356527,152.9352587363055L93.82388446680704,153.69210497635L93.99580179977417,154.15102768948663L94.08176046625773,154.42631420579764L94.33963646570842,154.59157584670885L94.42559513219197,154.69084184469827L94.55453313191731,-197.50669151616367L94.89836779785156,-56.568022982036936L95.11326446406046,27.995170386823286L95.54305779647827,78.73304140998617L95.58603712972004,109.17582350892096L96.14476846186321,127.4411755020959L96.27370646158855,138.40069058249895L96.31668579483032,144.97634269841296L96.74647912724812,148.92178692191385L96.83243779373169,151.285125604739L97.00435512669881,152.70705975667468L97.0473344599406,-79.42555415948269L97.60606579208374,-29.232459630915308L97.6920244585673,42.718415640044846L98.68054912312826,87.55554713476211L98.89544578933716,114.46922840571845L99.28225978851319,130.39388530542954L99.71205312093099,-188.75459481823987L100.18482578659058,-51.54831602430552L100.31376378631592,28.757293073447514L100.7865364519755,77.86548504129169L101.04441245142618,108.63314827490291L101.08739178466797,127.08123361816956L101.17335045115152,138.18464084040835L101.21632978439331,144.84665178048635L101.30228845087687,148.84274622423487L101.81804044977824,77.61669130087475L101.94697844950358,108.48720359832588L101.98995778274536,124.66396130513901L102.1188957824707,135.94213359290728L102.29081311543783,143.49747926098507L102.3337924486796,144.99245058807654L102.37677178192139,148.8261939953965L102.50570978164673,150.68922093632997L102.72060644785563,152.1683781639315L102.89252378082276,153.19038569317493L103.19337911351522,152.58827912781715L103.36529644648233,74.71686636262233L103.40827577972412,106.57212696144508L103.62317244593302,125.78018657860957L103.70913111241659,137.1856491829075L104.22488311131795,144.24730817304754L104.39680044428508,148.48437525611726L104.5687177772522,151.02662254192046L104.74063511021932,152.49638137823263L104.82659377670288,-4.204264271682244L104.95553177642822,59.40814427640512L105.12744910939534,97.57645159818425L105.17042844263712,117.08082851190672L105.2134077758789,132.17470313880804L105.47128377532958,140.82066054237998L105.77213910802206,139.80491009443674L105.98703577423095,145.81891915542292L106.07299444071452,149.33132762923333L106.3308704401652,151.2131802563432L106.50278777313231,152.66258856399554L106.71768443934123,153.51596915408945L106.80364310582479,154.04524279096142L107.06151910527548,154.06444299973063L107.27641577148437,154.3481356281426L107.31939510472615,148.91614878149485L107.4483331044515,151.2210467898498L107.62025043741862,152.4921744840101L107.74918843714396,153.43127402439154L107.87812643686931,153.9926795719415L107.92110577011108,154.3235266004712L108.3508991025289,154.5221780920875L108.47983710225424,154.64737659758623L108.82367176818848,154.22987010249832L109.25346510060629,147.28126841401883L109.29644443384807,150.1682864762681L109.38240310033163,152.03681100671028L109.46836176681518,153.15788699299867L109.51134110005697,153.70448970785827L109.55432043329876,154.04246928283197L109.59729976654053,154.36142929437636L109.64027909978232,154.55283710226257L109.6832584330241,154.66768662978794L109.72623776626587,154.73660987733038L109.898155099233,154.77796540007873L109.94113443247477,154.8027787431842L110.02709309895835,154.81765433692294L110.1130517654419,154.82657563809897L110.15603109868367,154.8318888221003L110.3279484316508,154.835089997657L110.84370043055216,154.837053497472L111.40243176269531,154.83775092479283L111.61732842890422,154.83858048424057L112.43393576049804,154.83912769646176L112.51989442698161,128.19894175265384L112.60585309346517,138.3421192874935L112.7777704264323,144.49096322613198L113.25054309209187,148.63057758993426L113.33650175857544,151.11434608465856L113.37948109181721,152.60460580587153L113.422460425059,153.49874515577002L113.50841909154256,154.03519161951652L113.72331575775146,154.35711464858278L113.76629509099324,154.55025887126268L114.11012975692749,154.66614812308717L114.15310909016927,154.70600971541361L114.2820470898946,154.75950383495092L114.58290242258708,152.80721892897438L114.79779908879598,153.61286760089772L114.88375775527955,154.07525729424168L115.09865442148845,154.3808385691746L115.27057175445557,154.56448831859214L115.35653042093914,154.67464668288048L115.44248908742269,154.7407747269446L115.48546842066447,154.78045520391774L115.78632375335694,154.8042559736607L115.91526175308228,154.79322329069112L116.00122041956583,-94.37820325992483L116.38803441874185,-36.52962353859707L116.559951751709,39.99076070451184L117.29060041681925,84.83955230924094L117.54847641626993,112.79901203299016L117.72039374923706,126.54430231136647L117.80635241572061,137.75982693794583L118.10720774841309,117.8179446478439L118.15018708165486,132.2404113444619L118.49402174758912,141.2802070960374L118.57998041407266,146.70406002781385L118.62295974731445,149.95839960050387L118.83785641352335,151.9109771887184L118.88083574676514,153.0825846593381L118.92381508000692,153.78548423578093L119.43956707890828,154.20724395493798L119.48254641215006,154.4603331895602L119.86936041132608,154.61216564107065L120.25617441050211,152.03848256829005L120.64298840967814,153.15820796984394L120.68596774291993,153.83068190146054L120.90086440912883,154.19564476663476L120.98682307561239,154.4436120731836L121.07278174209594,154.60216663007336L121.20171974182128,154.6972942707169L122.01832707341512,154.75413900703757L122.14726507314046,154.78749804614856L122.36216173934936,154.80846788854848L122.40514107259115,154.67466302932345L122.70599640528361,154.7402984433777L123.09281040445964,154.78017640217638L123.608562403361,153.84842463943255L124.33921106847127,142.17013211358687L124.68304573440551,146.93857663935344L125.11283906682333,74.34767774454146L125.45667373275757,106.51985854591412L125.49965306599935,125.84769170951341L125.67157039896648,-57.39460873982351L126.31626039759318,-21.81696508457503L126.53115706380207,48.773412239159384L126.70307439676921,91.19304195834522L126.83201239649455,111.80397589649928L127.17584706242879,129.0088361198441L127.47670239512126,139.34129966608083L127.6056403948466,100.5894078563074L127.69159906133015,122.28964274183546L128.0354337272644,78.5706247197772L128.0784130605062,88.22408172137513L128.8950203921,-299.1379243019292L129.7546070569356,-45.732851165166025L129.7975863901774,34.496288787115034L129.8405657234192,-49.73634585551773L129.88354505666098,29.17191458005526L129.92652438990277,78.26593745023939L130.09844172286986,108.89554124681825L130.18440038935344,126.99648911967853L130.2273797225952,138.121130344725L130.4852557220459,144.80830001640797L130.78611105473837,148.82097743743498L130.87206972122192,151.2284188311093L130.9150490544637,152.67301385940402L131.21590438715617,153.53973685967185L131.38782172012327,154.05965399867256L131.64569771957397,154.37178543618478L131.7746357192993,154.55893439383266L132.63422238413492,60.58605775575349L132.80613971710204,94.85460164264893L132.89209838358562,92.24731954789824L132.9780570500692,117.25317040807586L133.06401571655275,131.7901636601556L133.66572638193765,141.0100549877271L133.9665817146301,141.11199730600762L134.13849904759724,146.6030677679314L134.35339571380615,149.89775311129716L134.39637504704794,151.8745253351217L134.61127171325685,151.83834271319546L134.74020971298216,153.03808775330086L135.1270237121582,153.75884045431212L135.1700030454,154.1913032320004L135.2989410451253,154.45049243924558L135.5997963778178,154.6061670046086L135.64277571105958,154.69916518078767L135.72873437754313,154.7551542415152L136.41640370941164,154.7883767126861L136.4593830426534,154.80902333573508L136.63130037562053,153.94739792808204L136.67427970886231,149.47432436106212L137.23301104100545,-160.50917248738776L137.49088704045613,-35.43848033245267L137.87770103963214,38.32879228567848L138.04961837259927,83.82862346672178L138.13557703908285,112.2331737288983L138.22153570556642,129.21289867258432L138.4794117050171,139.45070313656137L138.5223910382589,144.29019819978166L138.78026703770956,147.53032801169954L139.08112237040203,150.45389910924314L139.46793636957807,152.20830473419207L139.55389503606162,63.79602733840889L139.72581236902872,98.9597037776967L139.7687917022705,121.30972773229342L139.94070903523763,134.72179838297384L140.15560570144652,127.71648629210925L140.28454370117188,138.56581873849865L140.41348170089722,145.0754386236391L140.45646103413898,148.9812054330108L140.75731636683145,151.32460180113108L140.84327503331502,152.730594676901L141.44498569869995,153.57431228274967L141.57392369842532,154.075855599042L141.61690303166708,154.38143099646575L141.91775836435954,142.58370020954825L141.9607376976013,147.48475585940832L142.0037170308431,150.42517571206577L142.13265503056846,149.52508668645484L142.30457236353556,151.6508712375876L142.51946902974447,152.92651885806188L142.6913863627116,153.69183029131437L142.8203243624369,154.15075064379042L143.20713836161295,154.4215247055843L143.25011769485474,154.58560352686894L143.3790556945801,154.6861281757675L144.28162169265747,154.74578390007358L144.53949769210814,154.77554047618762L144.62545635859172,154.79739382146218L144.8403530248006,154.80215687519478L145.22716702397665,134.42977297510137L145.27014635721844,140.3857919227053L145.5280223566691,141.3332335093223L145.5710016899109,145.41809579997246L145.7858983561198,-6.085227291035461L146.9033610204061,-64.38823244213275L147.07527835337322,20.740956616091026L147.24719568634032,49.513781194864066L147.46209235254923,91.37119203460017L147.67698901875815,116.75094300189937L147.8059270184835,131.93987029671584L147.89188568496704,140.80751640081002L147.97784435145059,146.4199313684619L148.10678235117595,149.78794507344415L148.14976168441774,151.80875996421773L148.40763768386842,152.90529181563647L148.57955501683554,153.67869551876765L148.83743101628622,154.14300877202842L149.00934834925334,154.42164819543802L149.39616234842936,154.51769575171903L149.91191434733074,6.567950162327561L150.47064567947388,-175.55374030208844L150.55660434595742,-43.39627738037452L150.64256301244097,35.82982629269502L150.6855423456828,70.77121484442505L150.90043901189168,104.38505289074314L151.24427367782593,124.52142432434631L151.33023234430948,136.64835474471766L151.58810834376015,113.98232544498059L151.63108767700194,130.32496583527123L151.80300500996907,140.13097785827847L151.88896367645262,144.793380289553L152.49067434183758,148.81176351412358L152.6196123415629,151.22300576336593L152.8774883410136,17.41176065376767L152.96344700749714,72.38304543162465L153.13536434046426,105.34264582255128L153.17834367370605,125.05353740115565L153.2213230069478,136.95720689521596L153.82303367233277,144.11029251788003L154.33878567123415,148.40217068045368L154.51070300420125,150.97730078280372L155.37028966903688,152.52194280582216L155.54220700200398,153.44904557109405L155.5851863352458,154.0052135893684L155.62816566848755,154.33880630078545L155.80008300145465,154.53920362093294L155.88604166793823,154.65952091955006L155.92902100118002,154.7316596959163L155.9720003344218,154.7749445117959L156.14391766738893,154.80066464706985L156.22987633387248,154.8163350278187L156.4017936668396,154.8254774986267L156.48775233332316,154.83128498951638L156.74562833277383,154.8335536486633L156.87456633249917,-233.15099909268085L157.21840099843342,-37.066994203803844L157.2613803316752,10.2470817031949L157.60521499760944,65.43298431700569L158.03500833002727,101.17465817219524L158.46480166244507,122.64052872750659L158.6367189954122,104.12814609703584L158.80863632837932,-136.76577107659367L158.85161566162108,-20.12379440953359L158.89459499486287,49.80018339963071L159.06651232783,91.81535458411764L159.15247099431355,117.02520696042396L159.23842966079712,132.15110376319151L159.58226432673138,141.22637454430162L159.66822299321493,137.61685988268104L159.88311965942384,144.5060618661985L160.05503699239097,148.6395172939293L160.26993365859985,151.1191077698547L160.74270632425944,152.60688767685843L160.91462365722657,153.5001200807888L161.12952032343546,154.03607004056374L161.34441698964437,154.3576404130668L161.38739632288616,154.55053647824877L161.55931365585326,154.6663088460428L162.16102432123822,154.73572186473888L162.20400365447998,154.7773823113778L162.3759209874471,154.8023698247393L162.4189003206889,154.8174210404367L162.71975565338136,154.82615757841293L162.93465231959027,154.83165992577204L163.06359031931558,154.83499254190133L163.19252831904095,38.06175713698429L163.53636298497517,84.77304731891367L163.75125965118409,112.79982436961268L163.83721831766763,129.61589145915053L164.05211498387655,139.7055320746624L164.30999098332722,145.7592263172971L164.39594964981077,135.20278008192543L164.48190831629435,143.05742063701567L164.5678669827779,147.7703234761394L164.69680498250327,150.59804944792504L164.86872231547036,126.6319842174189L165.0406396484375,137.91504541154947L165.59937098058066,144.68501826306039L166.07214364624025,148.74601217237202L166.1581023127238,151.18325817458148L166.24406097920738,152.42904990003458L166.41597831217447,153.36629390145723L167.2325856437683,153.94550478274644L167.27556497701008,154.30186575080464L167.61939964294433,154.5160589504597L167.79131697591146,154.6443500907778L167.87727564239503,154.71140320894077L167.9202549756368,154.7621032235552L168.3070689748128,154.79324489183625L168.35004830805462,154.81194657371378L168.47898630777993,154.8230753000309L168.6509036407471,154.8298446149519L168.86580030695598,154.83383585566833L168.95175897343952,154.83625659705388L168.9947383066813,154.8377361875755L169.0377176399231,154.8385649600279L169.55346963882445,154.8389162906717L169.89730430475873,154.83934793807367L169.9402836380005,154.83690122848213L170.1551803042094,154.83806285987848L170.45603563690187,154.83869654277913L170.67093230311076,154.83917049227182L170.75689096959434,154.8394963919107L170.97178763580322,154.83958670676986L171.05774630228677,154.839540272353L171.18668430201214,154.83892282618544L172.04627096684774,154.8393021206939L172.08925030008953,154.839550745746L172.51904363250733,151.56095081841474L173.24969229761757,152.87231132921147L173.89438229624432,153.65923045468165L174.02332029596963,151.05602630812976L174.49609296162922,152.56955146282897L175.35567962646485,153.4776220394458L175.39865895970664,154.02249433115898L175.74249362564086,154.3493959959653L175.914410958608,154.54559793932484L176.04334895833333,154.48760572670815L176.5591009572347,154.2967914482623L176.68803895696004,154.50841806721095L176.85995628992717,154.6407410069158L176.90293562316896,154.7204419500384L176.94591495641075,154.76812242338175L177.16081162261963,154.79687276495298L177.4616669553121,154.81409358890394L178.45019161987304,154.29414123123559L178.49317095311483,154.47871092662683L178.62210895284016,154.6218765773497L178.7080676193237,154.70906360942843L178.7940262858073,154.76143762088637L178.87998495229084,154.79282437232104L179.0089229520162,148.00051646710287L179.13786095174154,150.7363081278194L179.1808402849833,152.37766274704637L179.61063361740113,153.28363206760073L179.95446828333536,153.81993173949985L180.04042694981894,154.18874207559054L180.08340628306073,154.19409918882064L180.16936494954427,154.32290769341745L180.2983029492696,154.52855804250143L180.42724094899495,154.65232838783237L181.2438482805888,154.72737672402624L181.37278628031413,154.77219605230957L181.45874494679768,154.79927632141406L181.6306622797648,154.80097780970667L181.75960027949014,154.69649111864672L182.18939361190797,154.7317849973899L182.576207611084,154.773855160958L182.66216627756756,154.80010452839844L182.83408361053466,154.8159043116362L183.17791827646892,154.82467443310628L183.52175294240317,154.82645571313608L183.90856694157918,154.82746130937304L183.95154627482097,154.83239477023167L184.16644294102986,154.83522947474185L184.46729827372235,154.83660327203492L184.63921560668945,154.83791861385214L184.9400709393819,154.8387273930897L185.15496760559083,154.70319398988713L185.62774027125042,154.75759230178375L185.67071960449218,154.79054290588516L185.75667827097575,154.81032207483597L185.8856162707011,154.8188120419722L185.97157493718464,154.82725289258994L186.5303062693278,154.83229065918013L187.00307893498737,154.83536945767923L187.30393426767986,148.99167250990402L187.51883093388875,151.33074412017376L187.81968626658124,152.73440940160575L187.94862426630655,153.57401415045592L188.0345829327901,151.00022687534994L188.0775622660319,151.15498177490315L188.20650026575726,152.61283092087092L188.2924589322408,153.50356153488642L188.93714893086752,154.03807742289766L189.02310759735107,154.35884600101292L189.28098359680175,154.5511903656742L189.75375626246134,154.6662018420931L189.8397149289449,154.7349730328592L190.01163226191204,154.77684929793477L190.18354959487917,154.77184980449954L190.31248759460448,154.7991053413556L190.35546692784627,154.8154306030575L190.39844626108805,154.8251284101784L190.57036359405518,154.8310265389247L191.2580329259237,154.83355199576144L191.386970925649,154.81677227510409L191.51590892537436,140.3769480754371L191.68782625834146,146.16216852466545L192.0316609242757,149.63309029066443L192.1176195907593,151.7157650138986L192.16059892400105,152.9627282493969L192.5044335899353,153.71359929574143L192.5474129231771,154.16407664914644L192.9772062555949,154.43443510314953L193.19210292180378,154.5964822211389L193.8797722536723,154.6936670767425L193.92275158691407,154.72035977903857L194.05168958663938,154.7677766006929L194.39552425257367,154.53342606847474L194.56744158554076,154.48847956553962L194.65340025202434,154.5646648831927L194.6963795852661,154.67449669131912L195.04021425120035,154.74064299686134L195.21213158416748,154.7798699926583L195.29809025065103,154.80375641865328L195.4270282503764,154.8180922606394L195.51298691685994,154.82679898294296L195.72788358306886,153.57286383399412L195.94278024927775,154.07969762223152L196.11469758224487,154.38372288425273L196.286614915212,154.56620378316705L196.45853224817913,154.67538291035484L196.63044958114622,154.74122929439764L196.7593875808716,154.78065342921244L196.93130491383872,154.79786754446204L196.9742842470805,153.54286881633837L197.01726358032226,153.99177748884767L198.2636642443339,154.33098736814952L198.86537490971884,154.5336883368154L198.9083542429606,154.65620534632683L198.99431290944415,154.72936446099186L199.33814757537843,154.76491245055593L199.46708557510374,154.79481013560905L199.6390029080709,154.81285340035294L199.68198224131265,154.82361960789416L199.81092024103802,154.8148237847315L200.4985895729065,154.82487226574065L200.54156890614826,154.83090512679408L200.58454823939007,154.83454270048034L200.62752757263183,154.83657717965295L200.88540357208254,154.83783696091535L201.10030023829142,154.83858971074451L201.44413490422568,154.8390984210042L201.573072903951,154.83930441853641L201.87392823664348,154.839519768362L202.21776290257773,154.83944409002063L202.4756389020284,154.8393137307334L202.73351490147908,154.8395738586763L202.81947356796263,154.83974268382997L202.86245290120442,154.83983071147122L203.63608089955648,154.83989808421347L203.8079982325236,154.83983066662145L204.06587423197428,154.82507395461118L204.32375023142498,154.83101894100204L204.36672956466674,154.83460669662878L204.4526882311503,154.74178248208028L204.6675848973592,154.781069116832L204.79652289708457,154.80463305160234L204.88248156356812,154.81877922261276L204.96844023005167,154.82723676414975L205.1403575630188,154.83230451894846L205.31227489598592,154.83521260737916L205.5701508954366,154.83690632445905L205.65610956192018,154.83770119744617L205.8280268948873,61.97128953083902L205.91398556137085,-441.4795939613198L206.4297375602722,-43.330094641608305L206.472716893514,8.461765409799165L206.60165489323936,67.00667960857577L207.1174068921407,102.0682938648741L207.24634489186604,123.05211743847836L207.33230355834962,135.76405242453458L207.3752828915914,143.39203979211845L207.5472002245585,147.97090181379005L207.6331588910421,150.71836188486574L207.89103489049276,152.36646947567348L207.9769935569763,153.3557444164169L208.0199728902181,153.94935705539308L208.27784888966877,154.305338805849L208.36380755615235,154.51918236332045L208.53572488911945,154.64743756177285L208.66466288884482,154.72445679814842L208.75062155532837,154.77056077165275L209.69616688664755,154.79832319591097L209.7821255531311,154.8147968367161L210.12596021906535,154.82433081805232L210.1689395523071,154.8304084145183L210.29787755203247,154.83414805300524L210.55575355148315,154.83630403660172L211.15746421686808,154.8374472112425L211.28640221659344,154.82989331727697L211.67321621576943,154.83375115703257L211.84513354873658,154.83582339250725L211.88811288197834,154.83736574283512L212.1889682146708,154.82752946242405L212.2319475479126,154.8279424321448L212.31790621439617,154.83266902338877L213.04855487950644,154.83558477975438L213.17749287923178,154.82414234171017L213.39238954544066,154.8087043099249L213.65026554489137,154.81928769260185L213.73622421137492,154.8273283323412L213.77920354461668,154.83236442328663L213.9941002108256,154.78113690339262L214.16601754379272,154.8040353221008L214.38091421000163,154.81828260539623L214.59581087621055,154.82673092450798L215.0685835418701,56.751991144044844L215.24050087483724,92.15968136882672L215.5413562075297,109.67257395989212L215.71327354049683,49.424019284895756L215.79923220698038,46.75170257623225L215.84221154022217,78.4478230232857L216.7017982050578,109.0046417123653L216.8307362047831,127.33876958345L217.0886122042338,94.12096042793624L217.3035088704427,117.49460075260973L217.47542620340985,132.43262481849257L218.07713686879475,141.39549787245116L218.12011620203654,146.77319319147097L218.33501286824546,149.99990308645462L218.420971534729,151.93593684265042L218.72182686742147,153.09749309551285L219.19459953308106,153.79441946386837L219.4954548657735,154.1951841372985L219.66737219874065,154.45131558320904L220.48397953033447,136.05432092479106L220.61291753005983,8.197055141834904L221.0856901957194,-58.83114215148895L221.5154835281372,-38.2257996019214L221.7733595275879,38.99623234679178L222.11719419352212,85.28875469359947L222.16017352676394,112.99188298011227L222.28911152648925,129.7183118370004L222.8478428586324,139.76674003914218L223.1057188580831,145.79554041299147L223.23465685780843,149.40217833729145L223.32061552429198,151.57730535111548L223.36359485753377,152.83570933417698L223.66445019022623,153.60735553869677L223.79338818995157,154.0967184902315L223.83636752319336,154.39402013464823L224.05126418940227,154.57216947635337L224.09424352264404,154.67925256542776L224.30914018885295,154.74332623195835L224.4380781885783,154.7819381356676L224.48105752182008,154.80503927175894L224.56701618830363,148.13826618978229L225.03978885396322,150.80892392115805L225.29766485341392,152.4206427810583L225.5555408528646,153.3883191912319L225.64149951934814,153.96895087812698L225.85639618555706,154.31501996034322L226.11427218500774,154.52324440003258L226.24321018473307,154.59499279395416L226.32916885121665,151.32256433089483L226.3721481844584,152.07462181428178L226.50108618418375,153.1549214147755L227.1027968495687,153.82876442476143L227.36067284901938,154.23325745879643L227.48961084874472,154.47572702064943L227.91940418116252,154.5916426832765L227.9623835144043,154.69042762623394L228.13430084737143,154.7499346221872L228.30621818033853,154.65196087742203L228.86494951248167,154.72716585934853L229.0368668454488,154.77228912106472L229.81049484380085,154.799345835344L230.06837084325156,154.81551902075088L230.1973088429769,154.81404502155337L230.32624684270223,154.82439870983302L230.75604017512003,154.8291202600235L231.01391617457074,154.83320797397494L231.18583350753784,154.83589652795462L231.57264750671388,154.83727634226625L232.08839950561523,153.44483586933205L232.26031683858236,153.92223376844413L232.47521350479124,154.28246069011843L232.6471308377584,154.46809428404214L232.99096550369262,154.6157508408949L233.16288283665975,154.70486540715416L233.2488415031433,154.75888465282105L233.42075883611042,154.79120870244563L233.4637381693522,154.7465985377343L233.76459350204468,154.77775600598991L233.80757283528644,154.8026531359705L233.89353150177,154.81757774379875L233.9794901682536,154.68365299267205L234.10842816797893,154.74613786666006L234.23736616770427,154.78366439532815L234.28034550094603,154.8059719927795L234.75311816660562,117.262420657431L234.8390768330892,132.11067745750748L235.05397349929808,114.56445569618197L235.22589083226524,75.12979267175321L235.31184949874878,-56.79213320584687L235.56972549819946,27.857405738005582L235.99951883061726,78.03961321128338L236.17143616358442,108.73864110692064L236.34335349655152,126.60093524224781" fill="none"></path></g></g></g></g><g opacity="0.2"><g><g><g><path style="fill: none;" stroke="rgb(255, 112, 67)" stroke-width="2px" d="M21.876480620066324,112.16253156692824L21.919459953308106,152.52972075055425L23.036922617594403,118.4956472507157L23.07990195083618,-4.246745656739817L23.208839950561522,153.95106832658996L23.294798617045085,46.5810083405496L23.59565394973755,63.61499461716797L23.638633282979328,146.0028582488452L23.76757128270467,122.02895743141023L23.810550615946454,147.9316499411368L24.455240614573164,154.83275887836388L24.54119928105672,102.42880342514836L24.799075280507406,134.6112734795951L25.05695127995809,154.77055030108858L25.529723945617675,135.91143607968004L25.78759994506836,-186.40536324459012L26.303351943969727,80.25822213115957L26.432289943695068,147.9297825873257L26.51824861017863,151.6792172435256L26.60420727666219,152.18102554590683L27.420814608256023,150.46958881655624L27.893587273915607,153.60896423538045L28.280401273091634,113.56392955162126L29.182967271169026,145.18399280355777L29.612760603586832,152.9319732741842L29.655739936828613,154.55633155301942L30.171491935729982,140.64893210619536L30.21447126897176,144.00926018176676L30.558305934906006,152.5099019499213L30.601285268147787,154.80539845731278L30.73022326787313,136.37641814819725L30.81618193435669,154.83959863753228L30.90214060084025,154.75658038320785L30.988099267323815,145.4971639857144L31.117037267049156,130.69567133615672L31.675768599192303,146.74518665839577L31.804706598917644,113.35370247141007L32.01960326512655,151.46577439947606L32.105561931610104,147.27637835944395L32.320458597819005,150.1458881384519L32.53535526402791,143.91681055761129L32.578334597269695,145.65255263084555L32.62131393051148,146.14217566908388L32.7932312634786,149.69548670264123L33.051107262929285,114.86592997213127L33.13706592941284,154.34369333552593L33.43792126210531,152.82713861362427L33.78175592803955,93.3866729299369L34.039631927490234,152.77907914541282L34.08261126073201,152.71328888696414L34.1255905939738,153.52980748282218L34.21154926045735,153.51368024997257L34.3404872601827,137.2500663370367L34.38346659342448,149.77181109799832L34.51240459314982,135.29655604440907L34.64134259287516,154.3164308031467L34.81325992584229,106.93066015844919L34.98517725880941,147.16083109594263L35.02815659205119,126.46166553835981L35.07113592529297,145.2195341241747L35.24305325826009,154.81908876390546L35.844763923645026,154.7855478357748L35.93072259012858,131.74767248733028L35.97370192337036,154.75427236227043L36.48945392227173,118.44741838743982L36.74732992172241,149.481572590131L36.79030925496419,142.64982238820187L36.96222658793132,134.79999181663143L37.477978586832684,146.19119433948458L37.907771919250486,139.7085418400645L38.380544584910076,108.1371445455178L38.63842058436076,152.42612374982374L38.81033791732788,154.8249432599787L38.85331725056966,153.12130442898163L39.24013124974569,131.86720000746382L39.28311058298746,129.35860719207326L39.58396591567993,154.0548118867489L39.66992458216349,130.10857124764144L40.0997179145813,154.83377893135935L40.35759391403198,131.15347594804604L40.443552580515544,121.26673280156464L40.74440791320801,138.86309212825202L41.08824257914225,140.44626894806416L41.26015991210937,142.90831714699632L41.51803591156006,154.68847688274099L41.60399457804362,152.7399349626472L41.81889124425252,86.93026970406265L42.50656057612101,135.57596887865685L42.635498575846356,146.50386261026685L42.85039524205526,140.35463613298649L42.89337457529704,154.6208179783955L43.4091265741984,154.42809352982957L44.18275457255046,149.3640794983927L44.268713239034014,150.35615614349808L44.35467190551758,154.63909359368316L44.44063057200114,145.22016360720363L44.483609905242915,126.38083519209832L44.569568571726485,148.79907882077381L44.69850657145182,114.08054441711253L44.784465237935386,154.1710787628449L44.956382570902505,119.3328023000955L44.99936190414429,149.96052985694018L45.30021723683675,142.30921300275702L45.38617590332031,149.2349844268865L45.429155236562096,139.41044027910675L45.98788656870524,84.33769068915542L46.03086590194702,145.99706464230778L46.417679901123044,151.44055942730122L46.84747323354085,123.64845356560969L46.93343190002441,153.03495893382288L47.01939056650797,136.8135628908087L47.105349232991536,153.1476273250399L47.14832856623331,141.97177550297693L47.62110123189291,153.1760520488995L47.66408056513468,147.00985558250252L47.750039231618246,137.63435644430146L47.83599789810181,154.14557283407902L47.921956564585365,152.31764403656356L48.22281189727783,138.16949127429652L48.26579123051962,149.10122518990764L49.039419228871665,153.05033422556767L49.211336561838785,133.06381180547223L49.42623322804769,133.25727404812366L49.72708856074015,148.48201766976524L49.77006789398194,135.44567770501453L49.856026560465494,152.21612618621293L50.11390255991618,154.77337741083997L50.24284055964152,132.56282263264913L50.41475789260864,146.60004862966667L50.58667522557576,154.44369303798672L50.67263389205933,154.50761246190373L50.97348922475179,152.89056282594262L51.10242722447713,141.5740223907159L51.48924122365315,145.52760278102812L51.70413788986206,135.10486411730025L51.74711722310384,131.8316772506896L51.833075889587406,135.8528401540799L51.96201388931275,125.77678800284062L52.047972555796306,154.77539987425848L52.13393122227986,153.75989998422574L52.21988988876343,113.24315310064412L52.30584855524699,115.28818651291543L52.434786554972334,141.59013411853783L52.52074522145589,151.43790184445973L52.864579887390136,130.22270850291034L52.90755922063192,141.0448988705042L52.99351788711547,147.49170121447008L53.03649722035726,141.93191555750445L53.079476553599044,137.59181149212898L53.42331121953328,154.74854570027222L53.76714588546753,132.16713095073632L53.81012521870931,154.71017342660838L53.85310455195109,153.6254169683352L54.02502188491821,145.0491762713573L54.110980551401774,154.69258886618584L54.23991855112712,151.82371671825715L54.540773883819575,149.80752835321516L54.626732550303146,154.5313163794752L54.970567216237384,135.1948903161753L55.01354654947917,106.91590696638681L55.05652588272095,152.57301796026064L55.35738121541341,152.34639795220153L55.443339881896975,149.15255632443822L55.78717454783121,152.6543642969675L56.045050547281896,114.6852869066596L56.088029880523685,154.81584120388308L56.17398854700724,152.63599052272477L56.43186454645792,154.46809528829343L56.73271987915039,152.48554682118683L56.86165787887573,154.8357992395164L57.162513211568196,153.8571758910482L57.20549254480998,153.33701933970795L57.764223876953125,154.67865144162207L57.85018254343669,154.68758569963154L58.23699654261271,154.4963426272529L58.2799758758545,120.45672821591157L58.408913875579834,152.26330851285786L58.79572787475586,135.4763266092749L59.13956254069011,141.7371268439126L59.18254187393189,152.38619229136637L59.56935587310792,148.1439844393974L59.99914920552571,145.82718523034487L60.342983871459964,146.1341518699921L60.51490120442708,-152.2380640072969L60.557880537668865,-608.4914947034465L60.60085987091064,144.9556043785309L61.28852920277913,-125.04283104252652L61.5893845354716,138.1126724147272L61.847260534922285,149.8895193615495L62.019177867889404,131.97991797257893L62.10513653437297,150.45786912514959L62.19109520085653,115.31983955230244L62.277053867340086,78.76934794452653L62.44897120030721,-51.17626145398245L62.706847199757895,-951.5205251553003L62.87876453272502,151.37907534749542L63.1366405321757,135.5474058752646L63.265578531901035,-134.29218802592368L63.308557865142824,105.67677384291484L63.523454531351724,150.53791472715247L63.695371864318844,152.33042608605797L63.910268530527745,154.83975372283064L63.95324786376953,140.57794228417492L64.38304119618734,154.78624070681133L64.51197919591267,154.29256313349705L64.72687586212159,153.36736552676103L64.98475186157226,154.83365353601354L65.15666919453939,151.39859902522034L65.75837985992432,154.3146847999094L65.84433852640788,153.1029775917275L65.93029719289143,154.8030193782574L66.27413185882568,148.28132185705235L66.31711119206746,154.7101396082444L66.40306985855102,147.46592700653457L66.78988385772705,152.9994049560405L66.9188218574524,150.87589564123638L67.43457385635377,130.9713680266249L67.52053252283731,154.79782877028944L67.73542918904622,154.37681123086242L67.82138785552979,154.7848871679952L67.86436718877157,154.8287103389609L67.95032585525513,154.70030025742804L68.03628452173868,152.56361811633042L68.20820185470582,154.83703260736362L68.4230985209147,151.3462300031219L68.4660778541565,154.83984600906126L68.6809745203654,154.83714810173237L69.02480918629963,81.3577214052563L69.71247851816813,154.76214469728217L70.0133338508606,154.268123201754L70.14227185058594,154.8342333231874L70.22823051706949,149.87156221900324L70.40014785003663,154.8273785455835L70.61504451624552,149.2117420739489L70.70100318272908,154.82908802927267L71.13079651514688,154.46471600969878L71.3456931813558,154.83597076965344L71.60356918080647,153.04750724766177L71.86144518025716,103.44229472849868L71.90442451349894,151.78163269786023L72.33421784591675,154.8394763065637L72.46315584564209,150.38292436082784L72.63507317860922,153.75552250355076L72.93592851130167,8.836308108581001L73.45168051020305,154.79422566093046L73.53763917668661,154.78269297255125L73.66657717641195,63.570137622771156L73.96743250910441,154.07885485814018L74.01041184234619,154.79380289841947L74.35424650828044,154.23094483499918L74.52616384124755,154.8377081341281L74.65510184097289,154.81359197943462L75.38575050608317,154.83919900107787L75.64362650553386,154.49136609348423L75.90150250498453,154.04069767058962L75.9874611714681,154.83122360951523L76.28831650416056,154.22355384144228L76.54619250361125,153.64228559465175L76.71810983657836,21.738516293782745L76.8900271695455,149.85405989060257L77.06194450251262,149.64256118716798L77.3198205019633,153.49691920956244L77.53471716817221,154.7611532456901L78.00748983383178,152.12166175226866L78.05046916707356,154.8381648975266L78.6521798324585,154.8240907916445L78.82409716542561,154.8399160426086L78.99601449839274,154.83972423857762L79.03899383163451,154.83769501797556L79.12495249811809,154.83874523680336L79.16793183135987,154.55793099682828L79.25389049784343,145.57619532685825L79.46878716405232,29.98196952261845L79.68368383026123,119.8161946376825L79.726663163503,154.73328065771238L79.81262182998657,154.50311676857717L80.07049782943726,154.75831901628314L80.24241516240437,152.61504713294053L80.6292291615804,154.57984007559907L80.88710516103109,153.95350451451225L80.97306382751465,154.2431377989177L81.05902249399821,154.15740960426618L81.53179515965779,103.08762745128085L81.87562982559204,154.7871419793956L82.00456782531738,154.80140398444237L82.13350582504273,149.48387492852854L82.52031982421875,154.82046893880337L82.77819582366944,154.8345871832539L82.90713382339477,154.39638379688893L83.68076182174683,153.5075601940426L84.19651382064819,154.83999828702244L84.36843115361532,154.83977481748838L84.75524515279135,149.207017154082L84.92716248575846,149.32282009232563L85.01312115224202,139.79167916568417L85.0561004854838,146.2624086152392L85.22801781845094,154.3484757927575L85.91568715031941,110.2195385349884L86.00164581680298,149.29177417497527L86.13058381652833,152.21592894538446L86.1735631497701,115.82924489634665L86.56037714894613,154.63893433753563L86.6463358154297,151.80023240250645L86.73229448191324,152.31972993743167L87.16208781433106,154.61092277783655L87.41996381378175,154.7974623881991L87.5059224802653,154.83994795164344L87.67783981323242,154.8393747642787L88.19359181213379,154.83278000907313L88.58040581130982,154.26891343078435L88.70934381103515,154.83822620958597L88.75232314427694,154.83992991524383L88.79530247751872,154.839998868915L88.83828181076049,154.8352471691452L89.26807514317831,154.83999135115457L89.4829718093872,154.42131031753672L89.525951142629,154.58866222540235L89.56893047587077,154.82853054952892L89.69786847559611,154.7411962841854L89.74084780883788,154.83998639204427L90.04170314153036,154.8398603692608L90.55745514043173,154.83997092336742L90.68639314015707,154.8399937342901L90.72937247339884,154.83994472074374L90.8153311398824,154.83996474242846L90.94426913960775,154.83963484003323L91.07320713933309,154.8399780283964L91.20214513905843,154.83982753156192L91.37406247202556,151.7506943664163L91.674917804718,154.5954230503338L91.88981447092692,143.6899511181722L92.49152513631185,154.7914161953996L92.92131846872965,154.8399812768632L92.96429780197143,149.60163972741876L93.78090513356527,154.83995738815167L93.82388446680704,154.82737433641677L93.99580179977417,154.83941175919153L94.08176046625773,154.8392439802642L94.33963646570842,154.83946830807565L94.42559513219197,154.83974084168239L94.55453313191731,-725.8029915574565L94.89836779785156,154.83997981915311L95.11326446406046,154.83996044011366L95.54305779647827,154.8398479447305L95.58603712972004,154.8399966573231L96.14476846186321,154.8392034918583L96.27370646158855,154.8399632031036L96.31668579483032,154.83982087228398L96.74647912724812,154.83995325716518L96.83243779373169,154.83013362897674L97.00435512669881,154.83996098457817L97.0473344599406,-427.6244750337187L97.34818979263305,-770.6886620283592L97.56308645884197,154.03031510323763L97.60606579208374,154.8383794370992L97.6920244585673,150.6447285464851L98.68054912312826,154.81124437683798L98.89544578933716,154.83975031215306L99.28225978851319,154.28087065499614L99.71205312093099,-667.4773150037439L100.18482578659058,154.26110216659592L100.31376378631592,149.21570672007707L100.7865364519755,151.52777299305788L101.04441245142618,154.78464312531977L101.08739178466797,154.75336163306952L101.17335045115152,154.83975167376659L101.21632978439331,154.83966819060328L101.30228845087687,154.83688788985768L101.81804044977824,-29.22239108416542L101.94697844950358,154.79297204450262L101.98995778274536,148.9290978653587L102.1188957824707,152.8593920245597L102.29081311543783,154.83049776310173L102.3337924486796,147.2349075787137L102.37677178192139,154.57680910637646L102.50570978164673,153.4837613477302L102.72060644785563,154.38711400533379L102.89252378082276,154.7233969870401L103.19337911351522,151.68511927978045L103.36529644648233,-42.09025278516986L103.40827577972412,154.35501785967924L103.62317244593302,154.59227600435628L103.70913111241659,154.2938430893544L104.22488311131795,154.8397966582576L104.39680044428508,154.83997588072182L104.5687177772522,154.83999347062527L104.74063511021932,154.70101963270088L104.82659377670288,-239.25523274655458L104.95553177642822,154.82675709853615L105.12744910939534,154.82891258085294L105.17042844263712,146.3373938824904L105.2134077758789,154.81551507916004L105.47128377532958,153.78959664773788L105.77213910802206,138.28128442252185L105.98703577423095,154.83993274690218L106.07299444071452,154.59994033994894L106.3308704401652,154.03595919700803L106.50278777313231,154.836701025474L106.71768443934123,154.79604003923032L106.80364310582479,154.83915324626938L107.06151910527548,154.09324331288443L107.27641577148437,154.77367457076056L107.31939510472615,140.7681685115233L107.4483331044515,154.6783938023822L107.62025043741862,154.39886602525056L107.74918843714396,154.83992333496371L107.87812643686931,154.83478789326637L107.92110577011108,154.81979714326582L108.3508991025289,154.8201553295119L108.47983710225424,154.83517435583434L108.82367176818848,153.60361035986648L109.25346510060629,136.85836588129953L109.29644443384807,154.49881356964198L109.38240310033163,154.83959780237362L109.46836176681518,154.83950097243124L109.51134110005697,154.5243937801477L109.55432043329876,154.54943864529255L109.59729976654053,154.83986931169295L109.64027909978232,154.83994881409183L109.6832584330241,154.83996092107603L109.72623776626587,154.83999474864402L109.898155099233,154.8399986842013L109.94113443247477,154.83999875784244L110.02709309895835,154.83996772753102L110.1130517654419,154.83995758986302L110.15603109868367,154.8398585981023L110.3279484316508,154.83989176099212L110.84370043055216,154.83999874719444L111.40243176269531,154.83879706577403L111.61732842890422,154.83982482341213L112.43393576049804,154.83994851479358L112.51989442698161,88.23866283694194L112.60585309346517,153.556885589753L112.7777704264323,153.7142291340897L113.25054309209187,154.83999913563764L113.33650175857544,154.83999882674502L113.37948109181721,154.83999538769098L113.422460425059,154.83995418061784L113.50841909154256,154.8398613151362L113.72331575775146,154.83999919218218L113.76629509099324,154.83997520528257L114.11012975692749,154.8399820008239L114.15310909016927,154.76580210390333L114.2820470898946,154.83974501425686L114.58290242258708,149.87879157000953L114.79779908879598,154.82134060878275L114.88375775527955,154.7688418342576L115.09865442148845,154.83921048157399L115.27057175445557,154.83996294271844L115.35653042093914,154.839884229313L115.44248908742269,154.83996679304082L115.48546842066447,154.8399759193774L115.78632375335694,154.8399571282751L115.91526175308228,154.77667426623682L116.00122041956583,-468.1353430858488L116.3020757522583,-261.56351725028014L116.38803441874185,150.55443443760777L116.559951751709,154.77133706917522L117.29060041681925,152.11273971633457L117.54847641626993,154.73820161861394L117.72039374923706,147.16223772893096L117.80635241572061,154.58311387781484L118.10720774841309,87.90512121269101L118.15018708165486,153.87411138938896L118.49402174758912,154.8399007234006L118.57998041407266,154.83983942547857L118.62295974731445,154.83990895953886L118.83785641352335,154.83984357104018L118.88083574676514,154.8399958652677L118.92381508000692,154.83983360044513L119.43956707890828,154.8398835336736L119.48254641215006,154.83996704149357L119.86936041132608,154.83991431833633L120.25617441050211,148.1779579591191L120.64298840967814,154.83779607217483L120.68596774291993,154.8393927988854L120.90086440912883,154.74308906439612L120.98682307561239,154.81556303300687L121.07278174209594,154.83999846540794L121.20171974182128,154.83998573168225L122.01832707341512,154.83940611151857L122.14726507314046,154.83753660481503L122.36216173934936,154.83992265214837L122.40514107259115,154.47395574048593L122.70599640528361,154.83875156445905L123.09281040445964,154.83999334037435L123.608562403361,152.4507969953168L124.33921106847127,124.65269332481839L124.68304573440551,154.09124342800328L125.11283906682333,-34.53867059767654L125.45667373275757,154.77812974797308L125.49965306599935,154.83944145491233L125.67157039896648,-332.2580594138289L126.31626039759318,31.549500398297674L126.53115706380207,154.65897822476103L126.70307439676921,154.82248653712392L126.83201239649455,142.7203768037304L127.17584706242879,154.8161264548613L127.47670239512126,154.83999498543594L127.6056403948466,42.46157014164725L127.69159906133015,154.8399950701276L128.0354337272644,12.992097686689815L128.0784130605062,102.70426722377204L128.8950203921,-880.1809333368856L129.02395839182535,-557.0560685047112L129.28183439127602,154.8399647589188L129.7546070569356,154.8385570164714L129.7975863901774,154.83999871553664L129.8405657234192,-176.0852978194668L129.88354505666098,147.5343052334147L129.92652438990277,151.90697175551563L130.09844172286986,154.83994694168652L130.18440038935344,154.14791092896897L130.2273797225952,154.8080921822947L130.4852557220459,154.83905452393242L130.78611105473837,154.83999356897544L130.87206972122192,154.8395809216208L130.9150490544637,154.83990640184612L131.21590438715617,154.83982136007359L131.38782172012327,154.83952970717363L131.64569771957397,154.8399825924531L131.7746357192993,154.83965783030442L132.63422238413492,-80.37325720136519L132.80613971710204,146.25741747299207L132.89209838358562,88.33639640577223L132.9780570500692,154.76194669834226L133.06401571655275,153.59565353827526L133.66572638193765,154.83989197908434L133.9665817146301,141.2649107834284L134.13849904759724,154.83967346081707L134.35339571380615,154.8397811263458L134.39637504704794,154.83968367085842L134.61127171325685,151.78406878030614L134.74020971298216,154.837705313459L135.1270237121582,154.839969505829L135.1700030454,154.83999739853283L135.2989410451253,154.83927625011336L135.5997963778178,154.83967885265315L135.64277571105958,154.83866244505626L135.72873437754313,154.83913783260647L136.41640370941164,154.83821041944245L136.4593830426534,154.83999327030853L136.63130037562053,152.65495981660246L136.67427970886231,142.76471401053226L137.23301104100545,-625.4844177600626L137.49088704045613,152.1675578999499L137.87770103963214,148.97970121287523L138.04961837259927,152.07837023828668L138.13557703908285,154.83999912216308L138.22153570556642,154.6824860881133L138.4794117050171,154.807409832527L138.5223910382589,151.54944079461205L138.78026703770956,152.3905227295764L139.08112237040203,154.83925575555855L139.46793636957807,154.83991317161548L139.55389503606162,-68.82238875526583L139.72581236902872,151.70521843662837L139.7687917022705,154.8347636641885L139.94070903523763,154.8399043589945L140.15560570144652,117.20851815581234L140.28454370117188,154.83981740808278L140.41348170089722,154.8398684513497L140.45646103413898,154.8398556470684L140.75731636683145,154.83969635331147L140.84327503331502,154.83958399055595L141.44498569869995,154.83988869152262L141.57392369842532,154.82817057348055L141.61690303166708,154.83979409260135L141.91775836435954,124.88710402917204L141.9607376976013,154.83633933419839L142.0037170308431,154.8358054910519L142.13265503056846,148.17495314803844L142.30457236353556,154.83954806428673L142.51946902974447,154.8399902887733L142.6913863627116,154.8397974411931L142.8203243624369,154.8391311725045L143.20713836161295,154.8276857982751L143.25011769485474,154.83172175879588L143.3790556945801,154.83691514911533L144.28162169265747,154.83526748653267L144.53949769210814,154.82017534035867L144.62545635859172,154.83017383937405L144.8403530248006,154.80930145579364L145.22716702397665,103.87119712496133L145.27014635721844,149.31982034411118L145.5280223566691,142.75439588924775L145.5710016899109,151.5453892359477L145.7858983561198,-233.34021192754733L146.2156916885376,-517.2155509373941L146.9033610204061,154.83545401903655L147.07527835337322,148.4347402034266L147.24719568634032,92.67301806302362L147.46209235254923,154.1573082942043L147.67698901875815,154.82056945284825L147.8059270184835,154.72326123894052L147.89188568496704,154.10898555695124L147.97784435145059,154.8385538199397L148.10678235117595,154.83996563091762L148.14976168441774,154.83998230037804L148.40763768386842,154.5500895927646L148.57955501683554,154.83880107346442L148.83743101628622,154.8394786519196L149.00934834925334,154.8396073305524L149.39616234842936,154.66176708614054L149.91191434733074,-215.35666822175958L150.47064567947388,-448.73627599871253L150.55660434595742,154.83991700219644L150.64256301244097,154.66898180229927L150.6855423456828,123.18329767202013L150.90043901189168,154.8058099602203L151.24427367782593,154.72598147475105L151.33023234430948,154.8387503752747L151.58810834376015,79.98328149537497L151.63108767700194,154.83892642070722L151.80300500996907,154.83999589278935L151.88896367645262,151.78698393646476L152.49067434183758,154.8393383509795L152.6196123415629,154.83986913722944L152.8774883410136,-183.3051070106297L152.96344700749714,154.8399725984101L153.13536434046426,154.78204640894114L153.17834367370605,154.6198747690622L153.2213230069478,154.81271113630643L153.82303367233277,154.83992095187608L154.33878567123415,154.83998792431416L154.51070300420125,154.83999593632876L155.37028966903688,154.83890584034984L155.54220700200398,154.8396997190019L155.5851863352458,154.83946561677993L155.62816566848755,154.83919536791106L155.80008300145465,154.83979960115417L155.88604166793823,154.83999686747578L155.92902100118002,154.8398678604657L155.9720003344218,154.83987173561533L156.14391766738893,154.83924484998082L156.22987633387248,154.83984059894192L156.4017936668396,154.83919120483873L156.48775233332316,154.83999622585085L156.74562833277383,154.83695663738374L156.87456633249917,-815.1278282046969L157.13244233194985,-39.388396866531124L157.21840099843342,140.8014517938218L157.2613803316752,81.218195563693L157.60521499760944,148.21183823772188L158.03500833002727,154.78716895497953L158.46480166244507,154.83933456047362L158.6367189954122,76.35957215132977L158.80863632837932,-498.106646837038L158.85161566162108,154.83917059105644L158.89459499486287,154.6861501133772L159.06651232783,154.83811136084805L159.15247099431355,154.83998552488345L159.23842966079712,154.83994896734285L159.58226432673138,154.8392807159668L159.66822299321493,132.20258789025016L159.88311965942384,154.83986484147474L160.05503699239097,154.8397004355254L160.26993365859985,154.83849348374287L160.74270632425944,154.83855753736404L160.91462365722657,154.8399686866843L161.12952032343546,154.83999498022618L161.34441698964437,154.8399959718214L161.38739632288616,154.8398805760217L161.55931365585326,154.83996739773386L162.16102432123822,154.839841392783L162.20400365447998,154.83987298133616L162.3759209874471,154.83985109478155L162.4189003206889,154.83999786398277L162.71975565338136,154.83926238537728L162.93465231959027,154.8399134468107L163.06359031931558,154.83999146609528L163.19252831904095,-137.09809597039128L163.53636298497517,154.8399825918077L163.75125965118409,154.83998994566122L163.83721831766763,154.8399920934573L164.05211498387655,154.8399929979302L164.30999098332722,154.83976768124913L164.39594964981077,119.36811072886789L164.48190831629435,154.83938146965104L164.5678669827779,154.83967773482502L164.69680498250327,154.83963840560352L164.86872231547036,90.68288637165969L165.0406396484375,154.8396372027453L165.59937098058066,154.83997754032671L166.07214364624025,154.83750303633946L166.1581023127238,154.83912717789565L166.24406097920738,154.29773748821427L166.41597831217447,154.7721599035912L167.2325856437683,154.81432110468023L167.27556497701008,154.83640720289196L167.61939964294433,154.83734874994227L167.79131697591146,154.836786801255L167.87727564239503,154.81198288618515L167.9202549756368,154.83815324547686L168.3070689748128,154.83995739425788L168.35004830805462,154.83999909653008L168.47898630777993,154.83976838950653L168.6509036407471,154.8399985873334L168.86580030695598,154.83982271674293L168.95175897343952,154.8398877091322L168.9947383066813,154.83995557335797L169.0377176399231,154.83980811870651L169.55346963882445,154.8394432866374L169.89730430475873,154.83999540917662L169.9402836380005,154.8332311640948L170.1551803042094,154.83980530697303L170.45603563690187,154.83964706713007L170.67093230311076,154.83988141651085L170.75689096959434,154.83998524136902L170.97178763580322,154.8397221790586L171.05774630228677,154.83947062072767L171.18668430201214,154.8379966569341L172.04627096684774,154.8398710624566L172.08925030008953,154.83992368332417L172.51904363250733,146.64305092741782L173.24969229761757,154.83935209540658L173.89438229624432,154.8396091428869L174.02332029596963,147.15122008830193L174.49609296162922,154.83983919487775L175.35567962646485,154.83972790437105L175.39865895970664,154.8398027687288L175.74249362564086,154.83974849317477L175.914410958608,154.83990085436412L176.04334895833333,154.40061740778316L176.5591009572347,154.0105700305935L176.68803895696004,154.82585799563392L176.85995628992717,154.83922541647303L176.90293562316896,154.8399933647224L176.94591495641075,154.83964313339678L177.16081162261963,154.83999827730977L177.4616669553121,154.83992482483043L178.45019161987304,153.51421269473298L178.49317095311483,154.75556546971376L178.62210895284016,154.83662505343403L178.7080676193237,154.83984415754654L178.7940262858073,154.83999863807324L178.87998495229084,154.839904499473L179.0089229520162,137.81205460927566L179.13786095174154,154.83999561889414L179.1808402849833,154.83969467588682L179.61063361740113,154.6425860484323L179.95446828333536,154.6243812473485L180.04042694981894,154.74195757972657L180.08340628306073,154.20213485866583L180.16936494954427,154.51612045031263L180.2983029492696,154.83703356612742L180.42724094899495,154.83798390582874L181.2438482805888,154.83994922831707L181.37278628031413,154.83942504473458L181.45874494679768,154.83989672507076L181.6306622797648,154.80353004214558L181.75960027949014,154.53976108205677L182.18939361190797,154.78472581550466L182.576207611084,154.8369604063102L182.66216627756756,154.83947857955908L182.83408361053466,154.83960398649285L183.17791827646892,154.83782961531136L183.52175294240317,154.82912763318083L183.90856694157918,154.8289697037284L183.95154627482097,154.8397949615197L184.16644294102986,154.83948153150712L184.46729827372235,154.8386639679745L184.63921560668945,154.83989162657795L184.9400709393819,154.8399405619461L185.15496760559083,154.49989388508325L185.62774027125042,154.83918976962863L185.67071960449218,154.83996881203728L185.75667827097575,154.83999082826222L185.8856162707011,154.8315469926765L185.97157493718464,154.8399141685166L186.5303062693278,154.83984730906536L187.00307893498737,154.83998765542793L187.30393426767986,140.22612708824118L187.51883093388875,154.83935153557834L187.81968626658124,154.8399073237537L187.94862426630655,154.8334212737312L188.0345829327901,147.13954596269093L188.0775622660319,151.387114124233L188.20650026575726,154.7996046398226L188.2924589322408,154.83965745590962L188.93714893086752,154.83985125491455L189.02310759735107,154.8399988681858L189.28098359680175,154.83970691266606L189.75375626246134,154.83871905672152L189.8397149289449,154.83812981900832L190.01163226191204,154.83966369554815L190.18354959487917,154.7643505643467L190.31248759460448,154.8399886466397L190.35546692784627,154.83991849561036L190.39844626108805,154.83967512085974L190.57036359405518,154.8398737320442L191.2580329259237,154.83734018101651L191.386970925649,154.79160269411807L191.51590892537436,118.71721177593659L191.68782625834146,154.83999919850797L192.0316609242757,154.83947293966293L192.1176195907593,154.83977709874983L192.16059892400105,154.83317310264437L192.5044335899353,154.8399058652582L192.5474129231771,154.83979267925392L192.9772062555949,154.83997278415418L193.19210292180378,154.83955289812292L193.8797722536723,154.83944436014795L193.92275158691407,154.76039883248265L194.05168958663938,154.83890183317448L194.39552425257367,154.18190027014748L194.56744158554076,154.42105981113696L194.65340025202434,154.67894285967228L194.6963795852661,154.83924440350876L195.04021425120035,154.83986245517465L195.21213158416748,154.8387104863537L195.29809025065103,154.83958605764576L195.4270282503764,154.83959602361853L195.51298691685994,154.83985906639833L195.72788358306886,151.69196111057087L195.94278024927775,154.8399483045876L196.11469758224487,154.8397607772845L196.286614915212,154.83992513153854L196.45853224817913,154.83915160113656L196.63044958114622,154.8399988704618L196.7593875808716,154.83978963143463L196.93130491383872,154.8236887173364L196.9742842470805,151.6603707241529L197.01726358032226,154.66514049761162L198.2636642443339,154.83980218710226L198.86537490971884,154.83773978981426L198.9083542429606,154.83998086059393L198.99431290944415,154.83910313298944L199.33814757537843,154.81823443490202L199.46708557510374,154.83965666318872L199.6390029080709,154.83991829746876L199.68198224131265,154.83976891920602L199.81092024103802,154.80163004998747L200.4985895729065,154.8399449872544L200.54156890614826,154.83995441837425L200.58454823939007,154.83999906100973L200.62752757263183,154.8396288984118L200.88540357208254,154.83972663280898L201.10030023829142,154.8397188354883L201.44413490422568,154.8398614863937L201.573072903951,154.83961341483476L201.87392823664348,154.8398427931004L202.21776290257773,154.83933057250857L202.4756389020284,154.8391181918026L202.73351490147908,154.83996405059057L202.81947356796263,154.83999592156053L202.86245290120442,154.83996275293305L203.63608089955648,154.83999914332682L203.8079982325236,154.83972954023344L204.06587423197428,154.80293888659577L204.32375023142498,154.83993642058834L204.36672956466674,154.83998833006893L204.4526882311503,154.6025461602575L204.6675848973592,154.83999906895954L204.79652289708457,154.83997895375785L204.88248156356812,154.83999847912844L204.96844023005167,154.83992307645516L205.1403575630188,154.83990615114658L205.31227489598592,154.83957474002517L205.5701508954366,154.8394469000789L205.65610956192018,154.8388935069268L205.8280268948873,-77.3283279690717L205.91398556137085,-1196.655919199558L206.04292356109622,40.42176160727861L206.17186156082153,-612.2917495665979L206.34377889378865,153.79492520892094L206.4297375602722,154.13112605089722L206.472716893514,86.14955548691039L206.60165489323936,154.82405090674067L207.1174068921407,154.66071524932156L207.24634489186604,154.52785279888474L207.33230355834962,154.8319549036189L207.3752828915914,154.83402084349433L207.5472002245585,154.8391948462974L207.6331588910421,154.83955199147925L207.89103489049276,154.8386308618851L207.9769935569763,154.83965682753205L208.0199728902181,154.83977601385732L208.27784888966877,154.83931143153293L208.36380755615235,154.8399476995276L208.53572488911945,154.83982035945144L208.66466288884482,154.83998565271176L208.75062155532837,154.83971673190922L209.69616688664755,154.83996683229833L209.7821255531311,154.8395072979238L210.12596021906535,154.8386317900566L210.1689395523071,154.8395248092173L210.29787755203247,154.83975751073567L210.55575355148315,154.8395380119964L211.15746421686808,154.8391619732037L211.28640221659344,154.81856247632865L211.67321621576943,154.83953791666596L211.84513354873658,154.8389317457193L211.88811288197834,154.83967926832693L212.1889682146708,154.81277504180747L212.2319475479126,154.82856188672588L212.31790621439617,154.83975891025474L213.04855487950644,154.8399584143028L213.17749287923178,154.80697868464387L213.39238954544066,154.78554726224698L213.65026554489137,154.83516276661723L213.73622421137492,154.8393892919503L213.77920354461668,154.83991855970478L213.9941002108256,154.70429562355153L214.16601754379272,154.83838295016307L214.38091421000163,154.8396535303394L214.59581087621055,154.83940340317565L215.0685835418701,-90.36011852664987L215.24050087483724,145.27121670599956L215.5413562075297,135.94191284649014L215.71327354049683,-40.94881272759872L215.79923220698038,42.743227513236924L215.84221154022217,125.99200369386585L216.7017982050578,154.8398697459847L216.8307362047831,154.83996139007704L217.0886122042338,44.294246694665624L217.3035088704427,152.5550612396199L217.47542620340985,154.83966091731682L218.07713686879475,154.839807453389L218.12011620203654,154.8397361700007L218.33501286824546,154.83996792893012L218.420971534729,154.83998747694406L218.72182686742147,154.83982747480658L219.19459953308106,154.83980901640166L219.4954548657735,154.79633114744368L219.66737219874065,154.83551275207486L220.48397953033447,108.45882893716407L220.61291753005983,-183.5888435325993L221.5154835281372,-7.3177857775701005L221.7733595275879,154.82928026986153L222.11719419352212,154.72753821381102L222.16017352676394,154.5465754098814L222.28911152648925,154.80795512233266L222.8478428586324,154.83938234235478L223.1057188580831,154.8387409737654L223.23465685780843,154.81213522374145L223.32061552429198,154.83999587185153L223.36359485753377,154.72331530876923L223.66445019022623,154.76482484547645L223.79338818995157,154.83076291753363L223.83636752319336,154.8399726012733L224.05126418940227,154.83939348891104L224.09424352264404,154.83987719903936L224.30914018885295,154.83943673175426L224.4380781885783,154.83985599123145L224.48105752182008,154.83969097589596L224.56701618830363,138.1381065668173L225.03978885396322,154.81491051822172L225.29766485341392,154.83822107090865L225.5555408528646,154.83983380649232L225.64149951934814,154.83989840846965L225.85639618555706,154.83412358366758L226.11427218500774,154.83558105956664L226.24321018473307,154.7026153848365L226.32916885121665,146.4139216363059L226.3721481844584,153.20270803936216L226.50108618418375,154.77537081551608L227.1027968495687,154.8395289397403L227.36067284901938,154.839997009849L227.48961084874472,154.8394313634289L227.91940418116252,154.76551617721708L227.9623835144043,154.83860504067013L228.13430084737143,154.8391951161171L228.30621818033853,154.50500026027427L228.86494951248167,154.83997333223832L229.0368668454488,154.83997401363897L229.81049484380085,154.839930906763L230.06837084325156,154.83977879886118L230.1973088429769,154.8118340227571L230.32624684270223,154.8399292422525L230.75604017512003,154.83620258530928L231.01391617457074,154.83933954490206L231.18583350753784,154.83992935892417L231.57264750671388,154.8393460637337L232.08839950561523,151.35617515993079L232.26031683858236,154.63833061711222L232.47521350479124,154.82280107262986L232.6471308377584,154.7465446749277L232.99096550369262,154.837235676174L233.16288283665975,154.83853725654308L233.2488415031433,154.83991352132142L233.42075883611042,154.8396947768825L233.4637381693522,154.67968329066727L233.76459350204468,154.8244922083733L233.80757283528644,154.8399988309414L233.89353150177,154.83996465554114L233.9794901682536,154.48276586598203L234.10842816797893,154.83986517764205L234.23736616770427,154.83995418833027L234.28034550094603,154.83943338895648L234.75311816660562,60.94709365440823L234.8390768330892,154.3830626576222L235.05397349929808,88.24512305419368L235.22589083226524,15.977798135110065L235.31184949874878,-254.67502202224688L235.56972549819946,154.83171415378416L235.99951883061726,153.3129244212001L236.17143616358442,154.78718295037655L236.34335349655152,153.39437644523855" fill="none"></path></g></g></g></g></g></g><g transform="translate(72, 176)" clip-path="url(#clip_1)"><clipPath id="clip_1"><rect width="257" height="23"></rect></clipPath><g><g><line x1="0" y1="0" x2="0" y2="5" style="visibility: inherit;" fill="rgb(0, 0, 0)" stroke="rgb(204, 204, 204)" stroke-width="1px"></line><line x1="21.489666620890297" y1="0" x2="21.489666620890297" y2="5" style="visibility: inherit;" fill="rgb(0, 0, 0)" stroke="rgb(204, 204, 204)" stroke-width="1px"></line><line x1="42.979333241780594" y1="0" x2="42.979333241780594" y2="5" style="visibility: inherit;" fill="rgb(0, 0, 0)" stroke="rgb(204, 204, 204)" stroke-width="1px"></line><line x1="64.4689998626709" y1="0" x2="64.4689998626709" y2="5" style="visibility: inherit;" fill="rgb(0, 0, 0)" stroke="rgb(204, 204, 204)" stroke-width="1px"></line><line x1="85.95866648356119" y1="0" x2="85.95866648356119" y2="5" style="visibility: inherit;" fill="rgb(0, 0, 0)" stroke="rgb(204, 204, 204)" stroke-width="1px"></line><line x1="107.4483331044515" y1="0" x2="107.4483331044515" y2="5" style="visibility: inherit;" fill="rgb(0, 0, 0)" stroke="rgb(204, 204, 204)" stroke-width="1px"></line><line x1="128.9379997253418" y1="0" x2="128.9379997253418" y2="5" style="visibility: inherit;" fill="rgb(0, 0, 0)" stroke="rgb(204, 204, 204)" stroke-width="1px"></line><line x1="150.42766634623212" y1="0" x2="150.42766634623212" y2="5" style="visibility: inherit;" fill="rgb(0, 0, 0)" stroke="rgb(204, 204, 204)" stroke-width="1px"></line><line x1="171.91733296712238" y1="0" x2="171.91733296712238" y2="5" style="visibility: inherit;" fill="rgb(0, 0, 0)" stroke="rgb(204, 204, 204)" stroke-width="1px"></line><line x1="193.4069995880127" y1="0" x2="193.4069995880127" y2="5" style="visibility: inherit;" fill="rgb(0, 0, 0)" stroke="rgb(204, 204, 204)" stroke-width="1px"></line><line x1="214.896666208903" y1="0" x2="214.896666208903" y2="5" style="visibility: inherit;" fill="rgb(0, 0, 0)" stroke="rgb(204, 204, 204)" stroke-width="1px"></line><line x1="236.38633282979328" y1="0" x2="236.38633282979328" y2="5" style="visibility: inherit;" fill="rgb(0, 0, 0)" stroke="rgb(204, 204, 204)" stroke-width="1px"></line><line x1="257.8759994506836" y1="0" x2="257.8759994506836" y2="5" style="visibility: inherit;" fill="rgb(0, 0, 0)" stroke="rgb(204, 204, 204)" stroke-width="1px"></line></g><g transform="translate(0, 8)"><text style="text-anchor: middle; visibility: hidden; font-family: Roboto, sans-serif; font-size: 12px; font-weight: 200;" x="0" y="0" dx="0em" dy="0.95em" fill="rgb(33, 33, 33)" stroke="none" stroke-width="1px">-500</text><text style="text-anchor: middle; visibility: inherit; font-family: Roboto, sans-serif; font-size: 12px; font-weight: 200;" x="21.489666620890297" y="0" dx="0em" dy="0.95em" fill="rgb(33, 33, 33)" stroke="none" stroke-width="1px">0</text><text style="text-anchor: middle; visibility: hidden; font-family: Roboto, sans-serif; font-size: 12px; font-weight: 200;" x="42.979333241780594" y="0" dx="0em" dy="0.95em" fill="rgb(33, 33, 33)" stroke="none" stroke-width="1px">500</text><text style="text-anchor: middle; visibility: inherit; font-family: Roboto, sans-serif; font-size: 12px; font-weight: 200;" x="64.4689998626709" y="0" dx="0em" dy="0.95em" fill="rgb(33, 33, 33)" stroke="none" stroke-width="1px">1k</text><text style="text-anchor: middle; visibility: hidden; font-family: Roboto, sans-serif; font-size: 12px; font-weight: 200;" x="85.95866648356119" y="0" dx="0em" dy="0.95em" fill="rgb(33, 33, 33)" stroke="none" stroke-width="1px">1.5k</text><text style="text-anchor: middle; visibility: inherit; font-family: Roboto, sans-serif; font-size: 12px; font-weight: 200;" x="107.4483331044515" y="0" dx="0em" dy="0.95em" fill="rgb(33, 33, 33)" stroke="none" stroke-width="1px">2k</text><text style="text-anchor: middle; visibility: hidden; font-family: Roboto, sans-serif; font-size: 12px; font-weight: 200;" x="128.9379997253418" y="0" dx="0em" dy="0.95em" fill="rgb(33, 33, 33)" stroke="none" stroke-width="1px">2.5k</text><text style="text-anchor: middle; visibility: inherit; font-family: Roboto, sans-serif; font-size: 12px; font-weight: 200;" x="150.42766634623212" y="0" dx="0em" dy="0.95em" fill="rgb(33, 33, 33)" stroke="none" stroke-width="1px">3k</text><text style="text-anchor: middle; visibility: hidden; font-family: Roboto, sans-serif; font-size: 12px; font-weight: 200;" x="171.91733296712238" y="0" dx="0em" dy="0.95em" fill="rgb(33, 33, 33)" stroke="none" stroke-width="1px">3.5k</text><text style="text-anchor: middle; visibility: inherit; font-family: Roboto, sans-serif; font-size: 12px; font-weight: 200;" x="193.4069995880127" y="0" dx="0em" dy="0.95em" fill="rgb(33, 33, 33)" stroke="none" stroke-width="1px">4k</text><text style="text-anchor: middle; visibility: hidden; font-family: Roboto, sans-serif; font-size: 12px; font-weight: 200;" x="214.896666208903" y="0" dx="0em" dy="0.95em" fill="rgb(33, 33, 33)" stroke="none" stroke-width="1px">4.5k</text><text style="text-anchor: middle; visibility: inherit; font-family: Roboto, sans-serif; font-size: 12px; font-weight: 200;" x="236.38633282979328" y="0" dx="0em" dy="0.95em" fill="rgb(33, 33, 33)" stroke="none" stroke-width="1px">5k</text><text style="text-anchor: middle; visibility: hidden; font-family: Roboto, sans-serif; font-size: 12px; font-weight: 200;" x="257.8759994506836" y="0" dx="0em" dy="0.95em" fill="rgb(33, 33, 33)" stroke="none" stroke-width="1px">5.5k</text></g><line x1="0" y1="0" x2="257.8759994506836" y2="0" fill="rgb(0, 0, 0)" stroke="rgb(204, 204, 204)" stroke-width="1px"></line></g></g></g></g></svg>