<svg viewBox="0 0 330 200" xmlns="http://www.w3.org/2000/svg"><g><g><g><g><g><line x1="72.29800224304199" y1="176.89999961853027" x2="67.29800224304199" y2="176.89999961853027" style="visibility: inherit;" fill="rgb(0, 0, 0)" stroke="rgb(204, 204, 204)" stroke-width="1px"></line><line x1="72.29800224304199" y1="154.787499666214" x2="67.29800224304199" y2="154.787499666214" style="visibility: inherit;" fill="rgb(0, 0, 0)" stroke="rgb(204, 204, 204)" stroke-width="1px"></line><line x1="72.29800224304199" y1="132.6749997138977" x2="67.29800224304199" y2="132.6749997138977" style="visibility: inherit;" fill="rgb(0, 0, 0)" stroke="rgb(204, 204, 204)" stroke-width="1px"></line><line x1="72.29800224304199" y1="110.56249976158142" x2="67.29800224304199" y2="110.56249976158142" style="visibility: inherit;" fill="rgb(0, 0, 0)" stroke="rgb(204, 204, 204)" stroke-width="1px"></line><line x1="72.29800224304199" y1="88.44999980926514" x2="67.29800224304199" y2="88.44999980926514" style="visibility: inherit;" fill="rgb(0, 0, 0)" stroke="rgb(204, 204, 204)" stroke-width="1px"></line><line x1="72.29800224304199" y1="66.33749985694885" x2="67.29800224304199" y2="66.33749985694885" style="visibility: inherit;" fill="rgb(0, 0, 0)" stroke="rgb(204, 204, 204)" stroke-width="1px"></line><line x1="72.29800224304199" y1="44.22499990463257" x2="67.29800224304199" y2="44.22499990463257" style="visibility: inherit;" fill="rgb(0, 0, 0)" stroke="rgb(204, 204, 204)" stroke-width="1px"></line><line x1="72.29800224304199" y1="22.112499952316284" x2="67.29800224304199" y2="22.112499952316284" style="visibility: inherit;" fill="rgb(0, 0, 0)" stroke="rgb(204, 204, 204)" stroke-width="1px"></line><line x1="72.29800224304199" y1="0" x2="67.29800224304199" y2="0" style="visibility: inherit;" fill="rgb(0, 0, 0)" stroke="rgb(204, 204, 204)" stroke-width="1px"></line></g><g transform="translate(62.29800224304199, 0)"><text style="text-anchor: end; visibility: hidden; font-family: Roboto, sans-serif; font-size: 12px; font-weight: 200;" x="0" y="176.89999961853027" dx="0em" dy="0.3em" fill="rgb(33, 33, 33)" stroke="none" stroke-width="1px">-500</text><text style="text-anchor: end; visibility: inherit; font-family: Roboto, sans-serif; font-size: 12px; font-weight: 200;" x="0" y="154.787499666214" dx="0em" dy="0.3em" fill="rgb(33, 33, 33)" stroke="none" stroke-width="1px">0</text><text style="text-anchor: end; visibility: hidden; font-family: Roboto, sans-serif; font-size: 12px; font-weight: 200;" x="0" y="132.6749997138977" dx="0em" dy="0.3em" fill="rgb(33, 33, 33)" stroke="none" stroke-width="1px">500</text><text style="text-anchor: end; visibility: inherit; font-family: Roboto, sans-serif; font-size: 12px; font-weight: 200;" x="0" y="110.56249976158142" dx="0em" dy="0.3em" fill="rgb(33, 33, 33)" stroke="none" stroke-width="1px">1e+3</text><text style="text-anchor: end; visibility: hidden; font-family: Roboto, sans-serif; font-size: 12px; font-weight: 200;" x="0" y="88.44999980926514" dx="0em" dy="0.3em" fill="rgb(33, 33, 33)" stroke="none" stroke-width="1px">1.5e+3</text><text style="text-anchor: end; visibility: inherit; font-family: Roboto, sans-serif; font-size: 12px; font-weight: 200;" x="0" y="66.33749985694885" dx="0em" dy="0.3em" fill="rgb(33, 33, 33)" stroke="none" stroke-width="1px">2e+3</text><text style="text-anchor: end; visibility: hidden; font-family: Roboto, sans-serif; font-size: 12px; font-weight: 200;" x="0" y="44.22499990463257" dx="0em" dy="0.3em" fill="rgb(33, 33, 33)" stroke="none" stroke-width="1px">2.5e+3</text><text style="text-anchor: end; visibility: inherit; font-family: Roboto, sans-serif; font-size: 12px; font-weight: 200;" x="0" y="22.112499952316284" dx="0em" dy="0.3em" fill="rgb(33, 33, 33)" stroke="none" stroke-width="1px">3e+3</text><text style="text-anchor: end; visibility: hidden; font-family: Roboto, sans-serif; font-size: 12px; font-weight: 200;" x="0" y="0" dx="0em" dy="0.3em" fill="rgb(33, 33, 33)" stroke="none" stroke-width="1px">3.5e+3</text></g><line x1="72.29800224304199" y1="0" x2="72.29800224304199" y2="176.89999961853027" fill="rgb(0, 0, 0)" stroke="rgb(204, 204, 204)" stroke-width="1px"></line></g></g><g transform="translate(72, 0)" clip-path="url(#clip_0)"><clipPath id="clip_0"><rect width="257" height="176"></rect></clipPath><g><g><g><line x1="0" y1="0" x2="0" y2="176.89999961853027" fill="rgb(0, 0, 0)" stroke="rgb(66, 66, 66)" stroke-width="1px" opacity="0.25"></line><line x1="21.4751664797465" y1="0" x2="21.4751664797465" y2="176.89999961853027" fill="rgb(0, 0, 0)" stroke="rgb(66, 66, 66)" stroke-width="1px" opacity="0.25"></line><line x1="42.950332959493" y1="0" x2="42.950332959493" y2="176.89999961853027" fill="rgb(0, 0, 0)" stroke="rgb(66, 66, 66)" stroke-width="1px" opacity="0.25"></line><line x1="64.4254994392395" y1="0" x2="64.4254994392395" y2="176.89999961853027" fill="rgb(0, 0, 0)" stroke="rgb(66, 66, 66)" stroke-width="1px" opacity="0.25"></line><line x1="85.900665918986" y1="0" x2="85.900665918986" y2="176.89999961853027" fill="rgb(0, 0, 0)" stroke="rgb(66, 66, 66)" stroke-width="1px" opacity="0.25"></line><line x1="107.37583239873251" y1="0" x2="107.37583239873251" y2="176.89999961853027" fill="rgb(0, 0, 0)" stroke="rgb(66, 66, 66)" stroke-width="1px" opacity="0.25"></line><line x1="128.850998878479" y1="0" x2="128.850998878479" y2="176.89999961853027" fill="rgb(0, 0, 0)" stroke="rgb(66, 66, 66)" stroke-width="1px" opacity="0.25"></line><line x1="150.32616535822552" y1="0" x2="150.32616535822552" y2="176.89999961853027" fill="rgb(0, 0, 0)" stroke="rgb(66, 66, 66)" stroke-width="1px" opacity="0.25"></line><line x1="171.801331837972" y1="0" x2="171.801331837972" y2="176.89999961853027" fill="rgb(0, 0, 0)" stroke="rgb(66, 66, 66)" stroke-width="1px" opacity="0.25"></line><line x1="193.2764983177185" y1="0" x2="193.2764983177185" y2="176.89999961853027" fill="rgb(0, 0, 0)" stroke="rgb(66, 66, 66)" stroke-width="1px" opacity="0.25"></line><line x1="214.75166479746503" y1="0" x2="214.75166479746503" y2="176.89999961853027" fill="rgb(0, 0, 0)" stroke="rgb(66, 66, 66)" stroke-width="1px" opacity="0.25"></line><line x1="236.2268312772115" y1="0" x2="236.2268312772115" y2="176.89999961853027" fill="rgb(0, 0, 0)" stroke="rgb(66, 66, 66)" stroke-width="1px" opacity="0.25"></line><line x1="257.701997756958" y1="0" x2="257.701997756958" y2="176.89999961853027" fill="rgb(0, 0, 0)" stroke="rgb(66, 66, 66)" stroke-width="1px" opacity="0.25"></line></g><g><line x1="0" y1="176.89999961853027" x2="257.701997756958" y2="176.89999961853027" fill="rgb(0, 0, 0)" stroke="rgb(66, 66, 66)" stroke-width="1px" opacity="0.25"></line><line x1="0" y1="154.787499666214" x2="257.701997756958" y2="154.787499666214" fill="rgb(0, 0, 0)" stroke="rgb(66, 66, 66)" stroke-width="1px" opacity="0.25"></line><line x1="0" y1="132.6749997138977" x2="257.701997756958" y2="132.6749997138977" fill="rgb(0, 0, 0)" stroke="rgb(66, 66, 66)" stroke-width="1px" opacity="0.25"></line><line x1="0" y1="110.56249976158142" x2="257.701997756958" y2="110.56249976158142" fill="rgb(0, 0, 0)" stroke="rgb(66, 66, 66)" stroke-width="1px" opacity="0.25"></line><line x1="0" y1="88.44999980926514" x2="257.701997756958" y2="88.44999980926514" fill="rgb(0, 0, 0)" stroke="rgb(66, 66, 66)" stroke-width="1px" opacity="0.25"></line><line x1="0" y1="66.33749985694885" x2="257.701997756958" y2="66.33749985694885" fill="rgb(0, 0, 0)" stroke="rgb(66, 66, 66)" stroke-width="1px" opacity="0.25"></line><line x1="0" y1="44.22499990463257" x2="257.701997756958" y2="44.22499990463257" fill="rgb(0, 0, 0)" stroke="rgb(66, 66, 66)" stroke-width="1px" opacity="0.25"></line><line x1="0" y1="22.112499952316284" x2="257.701997756958" y2="22.112499952316284" fill="rgb(0, 0, 0)" stroke="rgb(66, 66, 66)" stroke-width="1px" opacity="0.25"></line><line x1="0" y1="0" x2="257.701997756958" y2="0" fill="rgb(0, 0, 0)" stroke="rgb(66, 66, 66)" stroke-width="1px" opacity="0.25"></line></g></g></g><g><g><line x1="0" y1="154.787499666214" x2="257.701997756958" y2="154.787499666214" fill="rgb(0, 0, 0)" stroke="rgb(153, 153, 153)" stroke-width="1.5px"></line></g></g><g><g><line x1="21.4751664797465" y1="0" x2="21.4751664797465" y2="176.89999961853027" fill="rgb(0, 0, 0)" stroke="rgb(153, 153, 153)" stroke-width="1.5px"></line></g></g><g><g><g><g><g><path style="fill: none;" stroke="rgb(255, 112, 67)" stroke-width="2px" d="M21.4751664797465,144.58999518495392L21.646967811584474,139.57653217186405L21.90466980934143,39.05167727130167L21.990570475260416,53.40709300272141L22.20532214005788,35.098555169350405L22.505974470774333,60.66148149692471L22.720726135571798,-571.8156868283215L23.880385125478107,-47.26496220163513L24.30988845507304,24.496918068700744L24.43873945395152,61.438738462383135L24.481689786911012,93.08784857236795L24.524640119870504,115.71909614997799L24.61054078578949,120.31859185655405L24.696441451708477,67.75308568310939L24.78234211762746,97.70868501607805L24.86824278354645,120.28630755863931L24.95414344946543,129.2804467956254L25.125944781303406,138.32501111026662L25.1688951142629,140.06019515791795L25.29774611314138,145.83877167274068L25.426597112019856,149.34323594267784L25.72724944273631,149.97991258339417L25.7701997756958,144.52836593365086L26.500355436007183,135.55122528743215L26.62920643488566,100.21737703398608L26.715107100804648,121.39684664969363L26.801007766723632,133.8412101201026L26.88690843264262,98.11082468212892L26.92985876560211,119.93295349329742L27.230511096318565,133.4922158098674L27.359362095197042,130.868943002555L27.402312428156534,112.21803003057809L27.702964758872984,98.51247476384007L27.917716423670452,116.58004948793517L27.960666756629944,130.58094090732635L28.17541842142741,140.20579001618773L28.60492175102234,145.1498443857917L29.506878743171693,147.98029748149L29.721630407969155,147.53445711218487L29.850481406847635,150.37342603025863L31.05309072971344,135.00589318725756L31.138991395632427,141.39296668561252L31.18194172859192,146.12478970181968L31.439643726348876,147.81693058349867L31.955047721862794,149.1212130971842L32.083898720741274,151.20494626447004L32.21274971961975,151.85286313890813L32.298650385538735,152.82445162276673L32.513402050336204,132.47644799752635L32.771104048093164,140.07194102390216L32.81405438105265,142.58970409197286L32.85700471401215,143.4480453436455L32.89995504697164,147.24503197016313L33.587160374323524,141.40356045867702L34.01666370391846,143.25042242153162L34.102564369837445,147.69703108251417L34.18846503575642,140.7735557050087L34.274365701675414,145.2780258739957L34.532067699432375,145.20684432898761L34.57501803239186,147.71560100103395L34.9615710290273,149.80983643499084L35.09042202790578,122.62022754235886L35.30517369270325,134.84477143993988L35.73467702229818,140.5179343136343L36.078279685974124,141.3280241865412L36.25008101781209,137.35266206338747L36.293031350771585,139.87491735978423L36.33598168373108,138.47110057565123L36.63663401444753,143.07982908174986L36.76548501332601,137.35831718111177L37.10908767700195,126.22600167354294L37.28088900883993,134.64871050370212L38.0110446691513,141.8507271964339L38.0539950021108,146.92957104366636L38.096945335070295,150.03358679081788L38.52644866466522,139.52853866816957L38.61234933058421,138.52940723095813L38.99890232721964,144.10884687726437L39.213653992017115,143.91265067124053L39.64315732161204,148.1446558508155L40.115610984166466,149.833418118443L40.15856131712595,150.9105486039199L40.63101497968038,152.19469754633448L40.974617643356325,153.21538679961196L41.01756797631582,119.38389607818073L41.1034686422348,133.35095930605334L41.44707130591075,138.92832487522105L41.66182297070821,128.90749128137466L41.7477236366272,139.2458504002343L41.91952496846517,132.91291922304376L42.17722696622212,136.91835365846754L42.778531627655035,143.1545635338685L42.950332959493,129.22415980910716L43.07918395837148,108.27507305794438L43.336885956128434,120.91868268902195L43.80933961868286,134.02465022654798L43.93819061756135,141.8775727103369L44.1958926153183,146.81388282825785L44.23884294827779,149.37679980134075L44.45359461307525,126.41875111616145L44.66834627787272,134.39595733635795L44.7971972767512,141.9841207253291L45.09784960746765,146.3065690971909L45.140799940427144,149.579303019766L45.183750273386636,151.47684526582955L45.441452271143596,144.1965038224925L45.48440260410309,148.31414670501027L45.74210460186004,150.7484737009356L45.870955600738526,150.85138219051342L45.95685626665752,141.6208681158368L46.042756932576495,146.84456980457412L46.085707265535994,149.51400391611935L46.21455826441447,150.0013609984941L46.25750859737396,151.91328897176373L46.38635959625244,152.22654742432115L46.6440615940094,149.298389405804L46.85881325880687,148.7147667827154L47.374217254320776,150.76911129888433L47.417167587280275,151.76602479364743L47.846670916875205,148.37654009896394L48.276174246470134,147.90059824424876L48.31912457942963,134.51164019306225L48.4479755783081,125.59715026110096L48.4909259112676,137.27158937144458L48.61977691014608,141.12053709982925L48.705677576065064,144.04066178519514L48.748627909024556,132.60197714915137L48.83452857494354,135.5050494320973L48.87747890790304,139.82317611906322L48.963379573822024,145.78176603638298L49.30698223749796,147.80610979117182L49.34993257045746,149.54447808408392L49.56468423525492,151.50196247216107L51.02499555587769,149.0850252641697L51.06794588883717,145.63350273144087L51.11089622179667,142.3549190218419L51.153846554756164,147.23903101463242L51.669250550270085,148.65674264871708L51.92695254802704,151.01542909345568L52.01285321394602,142.5014773563793L52.22760487874349,144.1042033521213L52.82890954017639,144.55580382691755L52.87185987313588,148.5593681315659L53.000710872014366,116.81404005509324L53.21546253681183,126.0863191988613L53.47316453456878,137.02134613251923L53.51611486752828,141.8203908499231L53.602015533447265,143.46641660590717L53.64496586640676,145.90027620326006L53.77381686528524,149.45491782137933L54.11741952896118,143.41060879411003L54.41807185967763,137.5440552050885L54.718724190394084,143.41716084289033L55.06232685407003,146.37367306846204L55.148227519989014,146.8535804983008L55.191177852948506,133.05780407852387L55.234128185908,137.56374774285356L55.53478051662445,142.2033758722435L55.835432847340904,147.20756338790156L56.00723417917887,150.00959399838382L56.35083684285482,151.3975621539427L56.39378717581431,150.03348534190184L56.82329050540924,149.92723477697575L57.20984350204468,147.5279115545678L57.33869450092316,149.4442736638816L57.51049583276113,146.3592836714129L57.596396498680114,131.15283529250007L57.639346831639614,130.31290258884155L57.854098496437075,134.92883212003454L57.89704882939656,138.75626781620542L58.025899828275044,133.37113719297753L58.111800494194036,141.2386536117733L58.19770116011301,145.88267505165564L58.283601826032,136.42486857789868L58.58425415674845,129.29198732923527L58.88490648746491,122.84973490367024L58.97080715338389,135.543925898994L59.142608485221864,138.5725985015821L59.74391314665476,144.99667893589438L60.34521780808767,129.93916502040253L60.98947280248006,126.37609570410855L61.07537346839904,135.78685272224106L61.161274134318035,140.7676899127664L61.46192646503448,74.21241172854829L61.93438012758891,96.63940666657527L62.40683379014333,80.26884603196714L62.44978412310283,107.9572250733196L62.922237785657245,122.83919695262385L63.05108878453573,135.61770220170294L63.30879078229268,131.15928385159623L63.351741115252175,102.44426569431602L63.39469144821167,121.042168538303L64.468449772199,132.93968328059296L64.76910210291545,134.24969924691874L64.85500276883442,142.1932778916037L65.24155576546987,145.3570460051317L65.41335709730785,148.3809018174918L65.75695976098378,150.92545466689742L65.79991009394328,152.41491731307806L65.84286042690277,147.48241504301643L65.88581075986227,150.0940484869475L66.18646309057873,150.72893387565534L66.61596642017365,150.39230976168776L66.65891675313314,151.99696709609012L67.13137041568757,128.00488774786362L67.26022141456605,137.97533669180055L67.30317174752552,79.86490952626049L67.73267507712046,97.71114106370594L67.90447640895844,120.52160387074025L67.99037707487741,133.24362055553908L68.03332740783692,138.52931566433034L68.1621784067154,121.62854872107019L68.97823473294577,128.3414710428801L69.23593673070272,130.21383711547972L69.3218373966217,139.08202159673152L69.66544006029764,137.64151561125843L69.9660923910141,112.19077410271721L70.13789372285207,106.69015857593875L70.39559572060902,80.11833949804287L71.08280104796091,105.78613909133574L71.2546023797989,122.27230721777345L71.51230437755585,135.10723263436068L71.68410570939382,124.05412098571536L71.8129567082723,127.49396596669169L71.85590704123179,136.44626827161528L72.02770837306977,132.21880008046568L72.07065870602926,124.32909671027866L72.15655937194825,136.25571776906665L72.28541037082672,139.99082270565583L72.37131103674571,140.80499131094513L72.4572117026647,144.74719868272024L72.50016203562419,148.5852580487841L72.88671503225962,148.79082244892314L73.35916869481404,126.95318277775144L73.44506936073303,134.60527185219829L73.48801969369252,138.73636530655617L73.65982102553049,144.6126680343083L73.91752302328746,146.0755212868698L74.04637402216594,148.3391056955164L74.08932435512543,150.62340423507334L74.2181753540039,151.09782729703073L74.43292701880137,149.72299307809132L74.81948001543681,146.8966211284668L75.24898334503173,108.703664388103L75.85028800646464,127.13158621218653L75.89323833942413,91.35999197066985L75.93618867238364,116.72984094084467L76.32274166901907,131.2924664512688L76.45159266789754,140.69010639719824L76.53749333381653,146.30568381707857L76.79519533157348,149.69834260244966L76.83814566453299,151.72489468704342L77.05289732933043,152.94828394634337L77.13879799524943,151.677700306367L77.35354966004691,152.92157341596408L77.48240065892539,153.60952577410495L77.82600332260131,153.37510510656378L77.8689536555608,152.60585144915484L78.04075498739878,153.4600498765408L78.12665565331777,153.98281707657492L78.34140731811523,154.3045451081884L78.5561589829127,154.49544685741347L78.59910931587218,154.61214889148255L78.77091064771015,154.67932645818206L79.58696697394053,154.72258631905558L79.88761930465698,154.748530049959L79.93056963761647,-206.8499205620305L80.01647030353546,-62.19497124681716L80.14532130241393,23.837607533052346L80.27417230129242,76.21491773432173L80.36007296721141,107.63500576132901L80.57482463200887,126.49220520387333L80.74662596384685,137.6754895690669L81.0472782945633,144.5202754836414L81.17612929344178,-50.170635859951624L81.90628495375316,-40.53096080998923L82.2498876174291,30.938179050367577L82.33578828334808,80.47354523395899L82.50758961518605,110.19255841495861L82.80824194590251,128.02793334196497L84.26855326652527,138.73175407939655L84.86985792795817,145.15392187132935L85.72886458714802,148.9825967641035L86.54492091337839,151.30448234525392L86.67377191225687,96.10248614128612L86.88852357705434,115.08959160396267L86.97442424297333,130.96874523717952L87.01737457593282,140.49380123461592L87.36097723960877,146.21124085857696L87.70457990328471,149.64172120110948L87.7475302362442,151.69999486488524L87.83343090216319,152.93497979386942L87.8763812351227,153.6759771563315L87.91933156808217,154.12057775137217L88.00523223400117,154.3873437908182L88.13408323287965,154.5467180345914L88.21998389879862,154.64292885047723L88.56358656247457,154.70075183416952L89.20784155686697,154.73137715015275L89.37964288870494,154.7537762512658L89.50849388758341,154.76726103165635L89.5514442205429,154.77535374462292L90.28159988085429,154.77952094777837L90.36750054677327,154.78270556556723L90.41045087973276,154.78387379244424L90.58225221157073,154.78507276952922L90.66815287748973,154.7859920855757L90.71110321044921,154.78651453457636L90.79700387636821,154.7868776760544L90.92585487524669,154.7871118893041L91.09765620708465,154.78723582227659L91.4412588707606,154.78724985058486L91.57010986963908,154.7873484823223L91.82781186739604,154.7765381400972L92.04256353219351,154.37764579647657L92.12846419811248,144.99715322615936L92.21436486403148,131.61137053333897L92.25731519699096,140.78314679189015L92.38616619586944,110.24122073928697L92.72976885954539,127.46391029702987L92.81566952546439,136.6104011642862L92.85861985842386,142.052105474092L92.90157019138336,143.96190174087647L93.11632185618083,142.1144099505173L93.24517285505931,147.0360555617694L93.2881231880188,146.9070456307081L93.45992451985678,150.0381800600081L93.58877551873526,151.93761920957553L93.84647751649221,153.07710981001776L94.01827884833018,153.76125670619075L94.10417951424915,154.17174659281255L94.70548417568206,102.84362600711941L94.74843450864155,121.57979763031067L95.00613650639852,134.8628732722419L95.17793783823649,142.83270520609355L95.22088817119598,147.6146164531422L95.52154050191243,150.48374708490343L95.7362921667099,152.2052433337367L95.99399416446686,153.23813522110115L96.07989483038585,153.85788047995212L96.20874582926433,154.22969581288314L96.59529882589976,154.45280722017986L96.63824915885925,154.58667518197305L96.68119949181875,154.66698689112098L96.85300082365673,154.71517893524944L97.23955382029216,154.59794797578368L97.66905714988708,154.67376855622499L97.71200748284657,154.71677714537378L97.79790814876557,154.7450342138443L97.96970948060353,96.71438879877552L98.31331214427948,119.94362494382653L98.39921281019848,133.88117424762078L98.52806380907695,142.2436838185908L98.65691480795543,147.26119397256312L98.7428154738744,150.27171624980474L98.78576580683391,152.07793846340863L99.17231880346935,153.16175827991978L99.25821946938832,153.81205345576936L99.60182213306427,154.2022044273519L99.73067313194275,154.43614350389066L100.6326301240921,154.57546750285633L101.40573611736298,154.66027689273304L101.44868645032247,154.71106386145436L101.53458711624145,154.74160954252358L101.57753744920095,154.75996229392513L101.79228911399842,154.7709768518893L101.8352394469579,154.7774898818257L101.96409044583639,154.7814785123148L102.00704077879587,154.7838863262634L102.13589177767435,154.7852887633788L102.69424610614777,149.93877194600103L102.78014677206674,151.61656634113476L102.82309710502625,152.88390437525766L102.90899777094523,152.25451672117137L102.99489843686422,152.66234694437048L103.0807991027832,135.19074853038066L103.16669976870219,139.8270121175353L103.59620309829712,145.73930026379261L103.93980576197306,119.27929184743707L104.06865676085154,133.48219305351577L104.11160709381105,142.0042822155999L104.19750775973002,147.11756772241665L104.28340842564901,150.18550076754715L104.369309091568,151.95670615453844L104.41225942452749,153.0890226686866L104.49816009044648,153.76841330904784L104.71291175524394,154.17600453732922L104.75586208820343,154.42058333606707L105.14241508483886,154.56734757872198L105.87257074515024,154.65540596211196L106.04437207698821,154.70824105837403L106.2161734088262,154.73992960441493L106.47387540658315,154.7569110253208L107.20403106689453,154.76914025058247L107.24698139985404,154.7764828171555L107.332882065773,154.7808844265065L107.50468339761099,154.7826297019501L107.9771370601654,154.7845562819399L108.06303772608439,154.78573333544304L108.19188872496287,154.78643986660526L108.27778939088186,154.78686277759655L108.49254105567931,154.7870294696256L108.53549138863882,154.787183504713L108.83614371935526,154.7873084756554L109.05089538415274,154.78738383593574L109.22269671599071,154.78742986592192L109.43744838078817,154.78745711743693L109.52334904670715,154.78733966679982L109.56629937966666,154.78735239709957L109.99580270926158,154.77197814835566L110.03875304222106,154.77599425389977L110.33940537293752,154.78059540309772L110.59710737069447,154.7833555759937L110.64005770365398,154.78484583770677L110.81185903549193,154.7857554233822L110.94071003437043,154.78645230873488L110.9836603673299,154.78686606356217L111.32726303100586,154.78711448324523L111.58496502876281,154.787221187936L111.84266702651978,154.78727197277996L111.92856769243876,154.78735680713925L112.05741869131724,154.78739965815356L112.18626969019573,154.7872276308917L112.22922002315521,154.7832995867037L112.52987235387165,154.78497899400784L112.61577301979065,154.78598443192635L113.04527634938557,154.7865727781549L113.43182934602102,154.7869400979217L113.51773001194,154.77622435057648L113.77543200969696,154.78072353287396L114.11903467337291,154.783270759704L114.63443866888683,154.78495951459865L114.67738900184632,154.78596999799223L114.7632896677653,154.78653643562708L114.8062400007248,154.7868265440391L115.06394199848175,154.77560818537128L115.27869366327923,154.78024592605058L115.53639566103617,154.78306434213457L115.79409765879312,154.77938881779377L115.83704799175263,154.782619043716L116.05179965655009,154.78457095471992L116.567203652064,154.78573278384025L116.69605465094247,154.78637427941516L116.78195531686147,154.78609464654673L117.03965731461842,154.78621310765317L117.12555798053742,154.78672350430736L117.1685083134969,154.7870281949323L117.21145864645639,154.78721675243074L117.29735931237539,154.78732729943007L117.72686264197031,154.78706508425265L117.76981297492982,154.53607596097862L118.32816730340322,154.6366430813273L118.5429189682007,154.6969857002082L118.75767063299814,154.73318165727608L118.88652163187662,154.75489986176646L118.92947196483613,154.76793644170345L118.97242229779562,154.77576086481594L119.1012732966741,154.78045156596878L119.23012429555257,154.78326538377132L119.27307462851206,154.78493101534832L119.35897529443105,154.78595842322915L119.53077662626902,154.7777626017612L119.87437928994497,154.78165731150477L120.21798195362092,154.78399417236966L120.3468329524994,154.7852404264484L120.60453495025635,154.78614286177307L120.69043561617534,154.78668231541008L120.9051872809728,154.78700324716002L121.29174027760824,154.78720175192328L121.59239260832469,154.78731996167983L121.85009460608164,154.7873199914962L121.93599527200064,154.7873912493719L121.97894560496012,154.78741798299566L122.02189593791961,154.78744039988476L122.62320059935251,154.7746404734814L122.66615093231201,154.77895264185375L122.92385293006896,154.7823706147201L123.35335625966391,154.78330697528833L123.65400859038036,154.78498321370714L123.86876025517782,154.78598812742345L123.9546609210968,154.78659205742363L124.04056158701579,154.78694999600813L124.16941258589426,154.78716983871462L124.21236291885376,154.78728471850968L124.38416425069174,154.78736622711673L124.51301524957022,154.787341167697L124.59891591548919,154.78731134249952L124.68481658140819,154.78706738811155L124.72776691436768,154.7868911971031L124.94251857916514,154.78713449115813L125.41497224171957,154.78728055115442L125.71562457243601,154.78736616960913L126.18807823499043,154.78741035701032L126.35987956682841,154.78718359980337L126.61758156458536,154.78731002338975L126.66053189754486,154.78738468025807L126.78938289642333,154.7874302503463L126.9611842282613,154.78745728360616L127.00413456122081,154.78745286385694L127.13298556009929,154.60912205506924L127.21888622601827,154.6803947757825L127.69133988857268,154.72323294492253L127.73429022153218,154.74892999714191L128.59329688072205,154.7643487100097L128.97984987735748,154.773578183695L129.83885653654735,154.77914672381505L129.9677075354258,154.77985780638295L130.0965585343043,154.78291352688694L130.35426053206126,154.78393302774433L130.44016119798025,154.78535693284422L130.61196252981821,154.78621276571738L130.6978631957372,154.78671771789993L130.91261486053466,154.7870262908853L131.2991678571701,154.72440473332102L131.3850685230891,154.74960301705272L131.68572085380555,154.7647588791079L131.72867118676504,154.77384517042657L132.07227385044098,154.77930695280406L132.4588268470764,154.78258195386715L132.84537984371184,154.78454798871616L132.93128050963085,154.7857283656451L133.1889825073878,154.7844410539563L133.36078383922575,154.78562779811932L133.40373417218527,154.78637653610542L133.48963483810425,154.78682578331782L133.7043865029017,154.7870947137699L133.7902871688207,154.78725648221712L134.09093949953714,154.77514898443613L134.21979049841565,154.7800205714493L134.26274083137514,154.78275971275406L134.4774924961726,154.78465503636923L135.68010181903838,154.785792337226L135.85190315087635,154.78641129105912L136.41025747934978,154.78684651556856L136.49615814526874,154.7871033620944L136.58205881118775,154.7870048944647L136.7968104759852,154.78720275577763L136.8397608089447,154.78726389193932L137.01156214078267,154.78735794488102L137.78466813405353,154.7874115643653L138.34302246252696,154.78744584563057L138.51482379436493,154.7822731060267L139.2879297876358,154.77218274823375L139.71743311723074,154.7783065078821L139.76038345019023,154.7819837591893L139.8462841161092,154.78418659861705L139.88923444906868,154.7855116778045L140.0180854479472,154.78630549242357L140.06103578090668,154.78678307067133L140.4905391105016,154.78704112055374L141.04889343897503,154.78722453460844L141.220694770813,148.61245838505113L141.30659543673198,151.08182838172098L141.47839676856995,152.56409615263775L141.7790490992864,153.45345732159464L141.8219994322459,153.98707080123881L142.3374034277598,154.30712349764696L142.3803537607193,154.49916564135674L142.68100609143573,154.6144852785223L142.72395642439523,154.68368793136537L142.93870808919272,153.43439530562435L143.41116175174713,114.97146748553189L143.5829630835851,130.8978544217546L143.6259134165446,140.45370958761015L143.71181408246358,146.1872209540638L143.7977147483826,149.62718710494914L144.184267745018,151.69130733827106L144.27016841093698,152.92977082911304L144.44196974277497,153.67286173606905L144.52787040869393,154.1187145841314L145.21507573604583,154.38622854572674L145.4298274008433,154.54656299683796L145.4727777338028,154.64270720814045L145.94523139635723,154.70062023024184L146.07408239523568,154.73534553548356L146.20293339411418,154.7561877528501L146.28883406003317,15.776024727101188L146.37473472595212,71.25400812260932L146.41768505891164,104.66719420011653L146.46063539187114,124.7140719965665L146.6324367237091,136.7434113819277L146.84718838850657,143.96103965495524L147.19079105218253,148.29160473047304L147.49144338289898,150.88996054254406L147.66324471473692,152.44896418203854L148.04979771137238,153.38437021654804L148.5222513739268,153.94562177408304L148.95175470352171,150.07283720743845L149.2524070342382,151.95846913492824L149.33830770015717,153.09001362651387L149.46715869903562,153.07989412897055L149.8107613627116,153.51763544744713L149.89666202863057,154.02557625097387L150.06846336046857,154.33033581468828L150.11141369342803,154.51320052521686L150.15436402638753,154.62292018112493L150.32616535822552,154.6887515640999L150.36911569118502,154.7282498763043L150.45501635710397,154.75194677607033L150.92747001965841,154.766166422723L151.01337068557737,154.77469367690836L151.05632101853686,154.77970302313102L151.4858243481318,154.78281557795867L152.68843367099763,154.7846593012757L152.8172846698761,154.78575953272315L152.9031853357951,154.78631827148027L153.03203633467356,154.7867843266445L153.63334099610645,154.7870703512183L153.67629132906598,154.78723136163683L153.71924166202547,154.78733861528576L154.0628443257014,154.7874026596293L154.10579465866087,154.7872258762207L154.27759599049887,154.78733518348778L154.6211986541748,154.7872698743519L154.70709932009382,154.7873568109722L154.75004965305328,154.78741339080892L154.92185098489125,154.78740222400947L154.96480131785077,154.78744119385502L155.1795529826482,154.7874642231082L155.65200664520262,154.78747594166325L155.78085764408112,154.78748487475607L155.82380797704062,154.78748750113508L155.95265897591906,154.78748732822189L156.03855964183808,154.78746842925935L156.29626163959503,154.78745493196342L156.4251126384735,154.78747221686675L156.68281463623046,154.78731222034617L156.85461596806846,154.7873022498182L157.0264172999064,154.78737964693502L157.6706722942988,154.78737499596352L158.01427495797475,154.78737398269752L158.14312595685323,154.78727317729624L158.3149272886912,154.78736162692735L158.35787762165072,154.78741671389238L158.44377828756967,154.78744814429132L158.65852995236716,154.78746706785319L159.25983461380005,154.78747597009385L159.4745862785975,154.7871528941758L159.81818894227345,154.78727938475177L160.0329406070709,154.7827659844853L160.1188412729899,154.78431969090315L160.16179160594942,154.7855833679333L160.2047419389089,154.78631003253778L160.2476922718684,154.78671048010204L160.46244393666586,154.78702326434615L160.50539426962536,154.78721252071063L160.8060466003418,154.78732471279554L160.93489759922028,154.78739233250266L161.06374859809875,154.78735774644144L161.10669893105825,154.7835642761713L161.14964926401774,154.78502246518812L161.27850026289622,154.78600997146245L161.3214505958557,154.7866036101802L161.53620226065317,154.78696088170193L161.57915259361266,154.78716875022184L161.70800359249114,154.78729238547973L161.79390425841015,154.78737415359063L161.9227552572886,154.78742144863418L162.30930825392406,154.78738155455943L162.39520891984304,154.7873391373071L162.481109585762,154.78740320116788L162.6529109176,154.78742256840982L163.46896724383035,154.78742613409693L163.51191757678984,154.7874105785267L163.68371890862784,154.7873383613277L163.7266692415873,154.78578224123834L163.7696195745468,154.78644502084057L163.9414209063848,154.76974356118555L164.15617257118225,154.77650661146814L164.4997752348582,154.52041810480603L164.54272556781768,152.8319436874185L164.67157656669616,153.6136821110876L164.71452689965565,154.0831704256531L164.75747723261514,154.36458777977472L164.84337789853416,154.53333741734568L164.92927856445314,125.67177347309972L164.9722288974126,137.31804053103926L165.1440302292506,123.97145643232761L165.1869805622101,136.27378357118496L165.31583156108854,143.67922949384567L165.44468255996705,148.12253457199876L165.61648389180502,150.78852058456846L165.91713622252146,152.38776940938664L166.04598722139994,153.34764874626975L166.13188788731895,153.92357125064856L166.2177885532379,154.26887356143436L166.3036892191569,154.47595368150226L166.77614288171134,154.60050773822064L166.8190932146708,154.67528759033945L166.90499388058979,154.72015758918562L167.20564621130626,154.74657519758352L167.29154687722524,154.7628588740979L167.37744754314423,154.77271477409968L167.4203978761037,154.77861722033208L167.5062985420227,154.78197956732248L167.63514954090118,154.7840842648934L167.76400053977966,154.78542992012962L168.53710653305055,154.78461232522062L168.665957531929,154.78576358174664L168.88070919672649,154.7864579848021L168.96660986264544,154.78687318545795L169.3961131922404,154.78693724429812L169.61086485703785,154.78709577124167L169.69676552295684,154.78725324324452L169.86856685479484,154.7873282392632L170.0833185195923,154.78739515349818L170.1262688525518,154.78687029738336L170.34102051734925,84.4995782169925L170.5557721821467,112.43268479563554L170.6416728480657,129.3746103278101L171.2000271765391,139.53974965574065L171.41477884133658,145.6387087134711L171.50067950725554,149.29802761806693L171.67248083909354,151.49381035085113L171.801331837972,152.81128598059468L172.05903383572894,153.60171979056315L172.3596861664454,154.0760207941383L172.4026364994049,154.3606122399186L172.61738816420237,154.53136286102315L173.56229548931123,154.63377610730404L173.81999748706818,154.6952645780604L173.90589815298716,154.73215405018198L174.12064981778462,154.75428835447235L174.20655048370364,154.76750443962956L174.37835181554158,154.7754975691212L174.42130214850107,154.7802959570962L175.36620947360993,154.7831374448728L175.4950604724884,104.39711141667557L176.22521613279977,124.55326095832483L177.17012345790863,136.64695265895128L177.72847778638203,143.90316149590174L178.32978244781492,148.25683009869033L178.58748444557187,150.86905937155257L178.6304347785314,152.43643044187343L178.80223611036936,153.37685304235663L178.84518644332886,153.9411090505529L178.97403744220733,154.27964928055556L179.05993810812632,154.4825585967089L179.36059043884276,154.60453432170328L179.61829243659972,154.67771498549308L179.74714343547822,154.72162838447508L180.04779576619467,154.72911938067816L180.09074609915416,154.75215620982115L180.26254743099213,151.94818800809276L180.30549776395162,152.92594553818847L180.4343487628301,153.6705671414233L180.56319976170857,154.1173352223527L180.77795142650604,154.3853974471392L180.94975275834403,154.5462262355892L181.12155409018197,154.64273360791069L181.29335542201997,154.70064002316863L181.33630575497946,154.73538177073831L181.37925608793893,154.75622284775275L181.85170975049337,154.76872987507312L182.02351108233134,154.77623718882242L182.71071640968322,154.77359968356416L183.09726940631867,154.77915312415033L183.65562373479207,154.78248605853798L183.74152440071106,154.784485359069L184.0421767314275,154.785690653943L184.29987872918446,154.78641384071594L184.64348139286042,154.78684488377306L185.03003438949585,154.7871064247022L185.3306867202123,154.78726311815055L185.41658738613128,154.7873450272675L185.45953771909078,154.78555758518112L185.71723971684773,154.78632758664352L185.8460907157262,154.78679384888517L185.9749417146047,154.78705980538976L186.18969337940217,154.78723391875988L187.0916503715515,154.78734019128152L187.22050137043001,154.7874034412226L187.47820336818697,154.78744187143872L187.6500047000249,154.78742338663332L187.8218060318629,154.7874489001551L188.03655769666037,154.78746773416958L188.12245836257935,154.78748001793184L188.25130936145783,154.7874874329159L188.29425969441732,154.78749065133425L188.9814650217692,154.7874669501394L189.6686703491211,154.76388118453286L190.01227301279704,154.7732170617761L190.57062734127047,154.77892944654096L190.82832933902742,154.63269546092994L190.8712796719869,154.6116485538117L190.9142300049464,154.67751199810917L191.08603133678437,154.721505327192L191.17193200270336,154.7479011247926L191.4725843334198,154.76373391146527L191.90208766301473,154.77320842725715L191.94503799597422,154.77892371190677L192.20273999373117,154.78235402640485L192.28864065965016,154.78441191658885L192.37454132556917,154.78564519716392L192.8040446551641,154.786376029992L192.84699498812356,154.7867792404094L193.62010098139444,154.7845094524828L194.13550497690835,154.7856580153829L194.6079586394628,154.78577170072387L194.73680963834127,154.57684557504552L195.50991563161216,154.65992769663094L195.55286596457165,154.71061839716756L195.8964686282476,154.74136859354715L195.93941896120705,134.33719113989574L196.19712095896404,142.51731454462376L196.3259719578425,147.42537701579369L196.66957462151845,150.37021837986975L196.75547528743743,152.13704073998676L197.0131772851944,153.1760170582844L197.0561276181539,153.81520340979003L197.0990779511134,154.20375587529279L197.44268061478934,154.43714243592405L197.7003826125463,154.57589433144096L197.74333294550578,154.6594823145504L197.91513427734375,154.71065668393808L198.7311906035741,-172.31467684366436L198.9888926013311,-41.4738072187772L199.03184293429055,37.030714863261935L199.24659459908804,84.13341964493044L199.28954493204753,112.39505027086342L199.418395930926,129.35202990874262L199.4613462638855,139.51268630216362L199.59019726276398,145.62258704437127L199.71904826164246,149.2885335192866L199.84789926052093,151.48653270071972L200.27740259011586,152.80673888653274L200.44920392195385,153.59904289659815L200.53510458787284,154.07442264940815L200.5780549208323,154.3595916696262L200.7498562526703,154.53075484903954L200.7928065856298,154.63344117825704L201.60886291186014,154.69506444469306L201.9095152425766,154.73203849380147L202.16721724033354,154.75421413308277L202.33901857217154,154.73260117379147L202.46786957105,154.7543667790957L202.553770236969,154.76761782683857L202.94032323360443,154.77508215338315L203.2839258972804,154.64876832837237L203.49867756207783,154.70363635290678L203.6704788939158,154.73713655700197L203.7993298927943,154.75728146810818L203.97113122463224,154.76936409593088L204.05703189055123,154.7766183078968L204.4006345542272,4.084041820719957L204.4435848871867,64.35964759656372L204.65833655198415,100.5307167691227L204.70128688494364,122.14404753786741L204.74423721790313,135.1984447856414L204.78718755086263,143.03370479898385L204.87308821678164,147.73405376266632L205.17374054749808,150.55427905871844L205.25964121341704,107.91523107651476L205.47439287821453,126.27596841502215L205.90389620780945,137.68057914370704L205.94684654076895,142.76532708191894L206.07569753964742,147.5741377630082L206.1615982055664,150.45680061427112L206.2474988714854,152.1811622963811L206.29044920444488,153.22368897014607L206.7629028669993,153.84920894353715L206.8058531999588,154.22452152972213L206.9776545317968,154.44971274724165L207.27830686251323,154.58478973884337L207.4501081943512,154.66380811150984L207.4930585273107,154.71323014511628L207.75076052506765,154.74264808000208L207.83666119098663,154.76058706320222L208.0514128557841,154.77130639272005L208.35206518650054,154.77778366139194L208.43796585241952,154.78166993520185L208.6097671842575,154.7840017867866L208.69566785017648,154.78503574158884L208.738618183136,154.7859721431944L209.3399228445689,154.78658049413724L209.68352550824483,154.78694246099218L209.81237650712333,154.7871638737774L209.8982771730423,154.78729382888017L210.02712817192076,154.78736253141392L210.07007850488029,154.78741152473236L210.28483016967772,154.78744605071319L210.45663150151572,154.7874650561805L210.75728383223216,154.7874660750213L210.92908516407013,154.7874795009701L211.40153882662455,154.787479475113L211.53038982550302,154.78748693836926L211.5733401584625,154.7874754014694L212.51824748357137,154.78728525037928L212.56119781653086,154.78736743072002L212.64709848244985,154.78741863183862L212.90480048020683,154.78744844221595L212.9477508131663,154.78746885999016L213.33430380980172,154.7874731199954L213.46315480868023,154.7874757048531L213.63495614051817,154.78747536991293L213.84970780531566,154.7874818969997L214.27921113491058,154.78748887011983L214.49396279970807,154.78640385690292L214.62281379858652,154.78682075007333L214.79461513042452,154.78676467338965L214.96641646226246,154.7869340807915L215.00936679522198,154.76045485128202L215.26706879297893,154.77122686005345L216.42672778288522,152.60609373416412L216.89918144543967,153.47864856899116L217.1998337761561,154.002188414785L217.41458544095357,154.3163111203372L217.801138437589,154.50477798379026L217.97293976942697,154.61786636701552L218.05884043534596,151.95492959492736L218.23064176718393,153.08788105581084L219.13259875933332,153.76772606416594L219.17554909229278,154.17549533073048L219.26144975821177,154.4202917536463L219.30440009117126,154.56717046439272L219.77685375372567,154.65451309358042L220.3352080821991,154.7070969144351L220.50700941403707,154.47152215606292L220.67881074587504,154.59791201461724L220.76471141179402,154.67374382550665L220.936512743632,154.71924065642145L220.97946307659151,154.74652223246747L221.02241340955098,154.76291181353392L221.28011540730796,154.77274685560252L221.62371807098387,154.77864725291687L222.26797306537628,144.28546870840032L222.31092339833577,148.0388278595538L222.78337706089022,150.7382779463674L223.16993005752562,152.3579665976231L223.34173138936362,153.3297756639112L223.3846817223231,153.91286510200956L223.4705823882421,154.2627180332073L224.071887049675,154.4725996599114L224.15778771559397,154.59855751281347L224.24368838151295,154.67413418929135L224.93089370886486,154.71948022816414L224.97384404182435,154.7466862056764L225.01679437478384,154.7630106628003L225.48924803733826,154.7728059117883L225.57514870325724,154.7786824934311L226.21940369764965,154.7822091294816L226.3053043635686,154.78432438274248L226.5200560283661,154.78556505857935L226.9066090250015,154.78633728088994L227.03546002388,154.78680204960853L227.0784103568395,154.78704649421138L227.16431102275848,154.78722407513754L227.7656156841914,154.7873244026925L228.06626801490785,154.78739261897476L228.8823243411382,154.78737933865594L228.96822500705719,154.78742580106172L229.14002633889515,154.7874505561466L229.26887733777366,154.78746784115035L229.31182767073315,154.78748029464256L229.4836290025711,154.78748660433828L229.74133100032805,154.78749170313125L229.78428133328757,154.78749446646287L229.95608266512554,154.78749651856435L229.999032998085,154.78749776681917L230.1278839969635,154.7874979889602L230.170834329923,154.78749850691312L230.29968532880147,154.78749874549348L230.7721389913559,154.7874895667311L230.98689065615335,154.78748107850683L231.11574165503185,154.78747985323702L231.2445926539103,154.78748609391008L231.3734436527888,154.7874498128715L231.58819531758624,154.78746779492505L231.80294698238373,154.78747943263363L232.1465496460597,154.7874873154734L232.23245031197865,154.78749223556736L232.31835097789764,154.78749449661947L232.5760529756546,154.78749482047695L232.7478543074926,154.78749619761692L233.0914569711685,154.787495902297L233.56391063372294,154.78699193905845L233.7786622985204,154.7871888332894L233.90751329739888,154.78730690552572L234.12226496219634,154.78736182172204L234.16521529515583,154.78741186976487L234.25111596107485,154.7874467080256L234.3799669599533,154.7874624949295L234.42291729291279,154.7874773616032L234.5088179588318,154.787486093358L235.1101226202647,154.78749135507434L235.32487428506215,154.7874945494659L235.6684769487381,154.78748392494512L235.7543776146571,154.78748788299242L235.92617894649504,154.7874889235388L236.14093061129253,154.7874808238475L236.183880944252,154.78748795202765" fill="none"></path></g></g></g></g><g opacity="0.2"><g><g><g><path style="fill: none;" stroke="rgb(255, 112, 67)" stroke-width="2px" d="M21.4751664797465,144.58999518495392L21.646967811584474,136.5684543640101L21.90466980934143,-57.45218343323817L21.990570475260416,70.28906190287101L22.20532214005788,11.194928174101273L22.505974470774333,96.02421126143787L22.720726135571798,-1476.2681571681164L23.150229465166728,-1305.5080041183774L23.279080464045208,154.52833415961123L23.3220307970047,134.04265324717286L23.450881795883177,-11.072445654834155L23.75153412659963,131.86303476203534L23.837434792518614,-242.52864701118736L23.880385125478107,63.71541947930236L24.30988845507304,132.0891264363525L24.43873945395152,116.83583651257987L24.481689786911012,140.5534780317168L24.524640119870504,149.66251987360803L24.61054078578949,127.21741500429201L24.696441451708477,-11.092290759771826L24.78234211762746,142.64109831377507L24.86824278354645,154.15229561670904L24.95414344946543,142.7715491069508L25.125944781303406,151.89179329733625L25.1688951142629,142.66296382962759L25.29774611314138,154.50662165918123L25.426597112019856,154.59992696740542L25.72724944273631,150.93492695799952L25.7701997756958,136.35104897202285L26.500355436007183,122.08551729502157L26.62920643488566,47.216611684070095L26.715107100804648,153.16604854485166L26.801007766723632,152.5077544343518L26.88690843264262,44.51524806074495L26.92985876560211,152.66614614734337L27.230511096318565,153.83110907493835L27.359362095197042,126.93403381593826L27.402312428156534,84.24166067649436L27.702964758872984,77.95414190953528L27.917716423670452,143.6814115378501L27.960666756629944,151.58227801956897L28.17541842142741,154.64306367253218L28.60492175102234,152.56592593805632L29.506878743171693,152.22597712430195L29.721630407969155,146.8656965582967L29.850481406847635,154.63187940710367L31.05309072971344,111.95459392361856L31.138991395632427,150.97357693292992L31.18194172859192,153.2225242260348L31.439643726348876,150.35514190599662L31.955047721862794,151.07763686770306L32.083898720741274,154.33054601538967L32.21274971961975,152.82473845056356L32.298650385538735,154.28183434855308L32.513402050336204,101.95444255968496L32.771104048093164,151.4651805634616L32.81405438105265,146.36634869407806L32.85700471401215,144.73555722115432L32.89995504697164,152.94051190993912L33.587160374323524,132.6413531914483L34.01666370391846,146.0207153658134L34.102564369837445,154.36694407398792L34.18846503575642,130.38834263875057L34.274365701675414,152.0347311274762L34.532067699432375,145.10007201147545L34.57501803239186,151.47873600910344L34.9615710290273,152.95118958592624L35.09042202790578,81.83581420341088L35.30517369270325,153.18158728631136L35.73467702229818,149.02767862417593L36.078279685974124,142.54315899590156L36.25008101781209,131.38961887865682L36.293031350771585,143.6583003043794L36.33598168373108,136.3653753994517L36.63663401444753,149.99292184089788L36.76548501332601,128.7760493301546L37.10908767700195,109.52752841218971L37.28088900883993,147.28277374894088L38.0110446691513,152.65375223553156L38.0539950021108,154.54783681451505L38.096945335070295,154.68961041154512L38.52644866466522,123.77096648419713L38.61234933058421,137.03071007514097L38.99890232721964,152.4780063467237L39.213653992017115,143.61835636220482L39.64315732161204,154.49266362017792L40.115610984166466,152.36656151988424L40.15856131712595,152.52624433213526L40.63101497968038,154.1209209599564L40.974617643356325,154.7464206795282L41.01756797631582,68.63665999603387L41.1034686422348,154.30155414786225L41.44707130591075,147.2943732289726L41.66182297070821,113.87624089060505L41.7477236366272,154.75338907852375L41.91952496846517,123.41352245725795L42.17722696622212,142.92650531160322L42.778531627655035,152.50887834696994L42.950332959493,108.32855422196513L43.07918395837148,76.85144293120025L43.336885956128434,139.88409713563829L43.80933961868286,153.683601532837L43.93819061756135,153.6569564360202L44.1958926153183,154.2183480051393L44.23884294827779,153.22117526096508L44.45359461307525,91.98167808839253L44.66834627787272,146.36176666665267L44.7971972767512,153.36636580878584L45.09784960746765,152.79024165498365L45.140799940427144,154.48840390362864L45.183750273386636,154.32315863492485L45.441452271143596,133.27599165748697L45.48440260410309,154.49061102878696L45.74210460186004,154.39996419482353L45.870955600738526,151.0057449248802L45.95685626665752,127.77509700382184L46.042756932576495,154.68012233768016L46.085707265535994,153.51815508343716L46.21455826441447,150.73239662205626L46.25750859737396,154.7811809316682L46.38635959625244,152.69643510315726L46.6440615940094,144.90615237802825L46.85881325880687,147.8393328480825L47.374217254320776,153.8506280731377L47.417167587280275,153.26139503579213L47.846670916875205,143.29231305693864L48.276174246470134,147.18668546217603L48.31912457942963,114.42820311628246L48.4479755783081,112.22541536315906L48.4909259112676,154.78324803696L48.61977691014608,146.89395869240627L48.705677576065064,148.4208488132439L48.748627909024556,115.44395019508575L48.83452857494354,139.85965785651618L48.87747890790304,146.30036614951212L48.963379573822024,154.7196509123626L49.30698223749796,150.84262542335512L49.34993257045746,152.15203052345203L49.56468423525492,154.4381890542768L51.02499555587769,145.45961945218264L51.06794588883717,140.45621893234767L51.11089622179667,137.43704345744345L51.153846554756164,154.56519900381818L51.669250550270085,150.7833100998441L51.92695254802704,154.55345876056356L52.01285321394602,129.73054975076474L52.22760487874349,146.50829234573425L52.82890954017639,145.23320453911194L52.87185987313588,154.5647145885384L53.000710872014366,69.19604794038425L53.21546253681183,139.99473791451348L53.47316453456878,153.42388653300605L53.51611486752828,149.01895792602886L53.602015533447265,145.93545523988337L53.64496586640676,149.55106559928936L53.77381686528524,154.78688024855828L54.11741952896118,134.34414525320605L54.41807185967763,128.7442248215562L54.718724190394084,152.22681929959307L55.06232685407003,150.80844140681964L55.148227519989014,147.57344164305894L55.191177852948506,112.36413944885847L55.234128185908,144.32266323934815L55.53478051662445,149.16281806632836L55.835432847340904,154.71384466138866L56.00723417917887,154.21263991410717L56.35083684285482,153.47951438728103L56.39378717581431,147.98737012384055L56.82329050540924,149.76785892958662L57.20984350204468,143.92892672095587L57.33869450092316,152.31881682785234L57.51049583276113,141.73179868270978L57.596396498680114,108.34316272413092L57.639346831639614,129.05300353335372L57.854098496437075,141.85272641682403L57.89704882939656,144.49742136046177L58.025899828275044,125.29344125813572L58.111800494194036,153.0399282399669L58.19770116011301,152.8487072114791L58.283601826032,122.23815886726324L58.58425415674845,118.59266545624017L58.88490648746491,113.18635626532273L58.97080715338389,154.5852123919796L59.142608485221864,143.11560740546426L59.74391314665476,154.63279958736283L60.34521780808767,107.35289414716478L60.98947280248006,121.03149172966755L61.07537346839904,149.9029882494399L61.161274134318035,148.23894569855437L61.46192646503448,-25.620505547778894L61.93438012758891,130.27989907361575L62.40683379014333,55.71300508005497L62.44978412310283,149.48979363534832L62.922237785657245,145.1621547715802L63.05108878453573,154.78546007532154L63.30879078229268,124.47165632643616L63.351741115252175,59.371738458395704L63.39469144821167,148.9390228042835L64.468449772199,150.78595539402784L64.76910210291545,136.21472319640742L64.85500276883442,154.10864585863112L65.24155576546987,150.1026981754237L65.41335709730785,152.91668553603193L65.75695976098378,154.7422839410058L65.79991009394328,154.64911128234903L65.84286042690277,140.083661637924L65.88581075986227,154.0114986528441L66.18646309057873,151.68126195871707L66.61596642017365,149.8873735907364L66.65891675313314,154.4039530976937L67.13137041568757,92.01676872552389L67.26022141456605,152.9310101077059L67.30317174752552,-7.3007312220495555L67.73267507712046,124.48048836987414L67.90447640895844,154.7372980812917L67.99037707487741,152.32664558273734L68.03332740783692,146.45785832751722L68.1621784067154,96.27739830617996L68.97823473294577,138.410854525595L69.23593673070272,133.02238622437906L69.3218373966217,152.38429831860927L69.66544006029764,135.48075663304874L69.9660923910141,74.01466183990543L70.13789372285207,98.43923528577108L70.39559572060902,40.26061088119901L71.08280104796091,144.28783848127506L71.2546023797989,147.00155940742997L71.51230437755585,154.3596207592416L71.68410570939382,107.47445351274737L71.8129567082723,132.65373343815622L71.85590704123179,149.87472172900064L72.02770837306977,125.87759779374126L72.07065870602926,112.49454165499816L72.15655937194825,154.14564935724863L72.28541037082672,145.59348011053962L72.37131103674571,142.02624421887901L72.4572117026647,150.66050974038296L72.50016203562419,154.34234709787995L72.88671503225962,149.09916904913163L73.35916869481404,94.1967232709939L73.44506936073303,146.08340546386853L73.48801969369252,144.93300548809302L73.65982102553049,153.42712212593656L73.91752302328746,148.26980116571195L74.04637402216594,151.73448230848635L74.08932435512543,154.04985204440877L74.2181753540039,151.8094618899668L74.43292701880137,147.6607417496822L74.81948001543681,142.65706320402995L75.24898334503173,51.41422927755734L75.85028800646464,154.7734689483118L75.89323833942413,37.70260060839484L75.93618867238364,154.7846143961069L76.32274166901907,153.13640471690502L76.45159266789754,154.78656631609235L76.53749333381653,154.7290499468991L76.79519533157348,154.78733078050627L76.83814566453299,154.76472281393401L77.05289732933043,154.78336783529332L77.13879799524943,149.77182484640244L77.35354966004691,154.78738308035972L77.48240065892539,154.64145431131624L77.82600332260131,153.02347410525203L77.8689536555608,151.45197096304148L78.04075498739878,154.74134751761972L78.12665565331777,154.76696787662613L78.34140731811523,154.78713715560858L78.5561589829127,154.78179948125108L78.59910931587218,154.78720194258622L78.77091064771015,154.78009280823127L79.58696697394053,154.78747611036584L79.88761930465698,154.78744564631415L79.93056963761647,-749.2475964800147L80.01647030353546,154.78745272600284L80.14532130241393,152.88647570285656L80.27417230129242,154.78088303622576L80.36007296721141,154.76513780183996L80.57482463200887,154.7780043676898L80.74662596384685,154.45041611685724L81.0472782945633,154.78745435550314L81.17612929344178,-342.2070028753411L81.26202995936076,-340.7892979467576L81.73448362191517,154.70722593774522L81.90628495375316,-44.375446962413626L82.2498876174291,138.14188884090277L82.33578828334808,154.7765945093461L82.50758961518605,154.771078186458L82.80824194590251,154.78099573247457L84.26855326652527,154.78748518554391L84.86985792795817,154.78717355922853L85.72886458714802,154.72560910326476L86.54492091337839,154.78731071697953L86.67377191225687,13.299491835334464L86.88852357705434,143.57024979797748L86.97442424297333,154.7874756870048L87.01737457593282,154.78138523077047L87.36097723960877,154.78740029451853L87.70457990328471,154.78744171490828L87.7475302362442,154.7874053605489L87.83343090216319,154.78745718734567L87.8763812351227,154.78747320002464L87.91933156808217,154.78747864393318L88.00523223400117,154.7874928499872L88.13408323287965,154.78577940025124L88.21998389879862,154.78724507430599L88.56358656247457,154.78748630970796L89.20784155686697,154.77731512412763L89.37964288870494,154.78737490293537L89.50849388758341,154.7874882022422L89.5514442205429,154.78749281407278L90.28159988085429,154.78577175251152L90.36750054677327,154.78748249225052L90.41045087973276,154.78562613275977L90.58225221157073,154.78687123515667L90.66815287748973,154.78737105964547L90.71110321044921,154.78729820807732L90.79700387636821,154.7874223882714L90.92585487524669,154.78746320917872L91.09765620708465,154.78742172173534L91.4412588707606,154.78727089304724L91.57010986963908,154.78749642992844L91.82781186739604,154.7603226267596L92.04256353219351,153.77930728104562L92.12846419811248,130.92641437068352L92.21436486403148,111.53269649410842L92.25731519699096,154.54081117971688L92.38616619586944,64.42833166038221L92.72976885954539,153.29794463364422L92.81566952546439,150.3301374651707L92.85861985842386,150.21466193880076L92.90157019138336,146.8265961410531L93.11632185618083,139.34317226497856L93.24517285505931,154.41852397864753L93.2881231880188,146.71353073411615L93.45992451985678,154.73488170395814L93.58877551873526,154.78677793392666L93.84647751649221,154.7863457106811L94.01827884833018,154.7874770504503L94.10417951424915,154.78748142274517L94.70548417568206,25.851445128579734L94.74843450864155,149.68405506509754L95.00613650639852,154.7874867351387L95.17793783823649,154.78745310687103L95.22088817119598,154.78748332371518L95.52154050191243,154.78744303254527L95.7362921667099,154.78748770698664L95.99399416446686,154.78747305214776L96.07989483038585,154.7874983682286L96.20874582926433,154.78741881227967L96.59529882589976,154.78747433112494L96.63824915885925,154.78747712466287L96.68119949181875,154.78745445484282L96.85300082365673,154.7874670014421L97.23955382029216,154.42210153658507L97.66905714988708,154.78749942688697L97.71200748284657,154.78129002909694L97.79790814876557,154.78741981655006L97.96970948060353,9.668420676172358L98.31331214427948,154.78747916140307L98.39921281019848,154.78749820331214L98.52806380907695,154.7874481750458L98.65691480795543,154.7874592035216L98.7428154738744,154.78749966566718L98.78576580683391,154.7872717838145L99.17231880346935,154.78748800468648L99.25821946938832,154.78749621954373L99.60182213306427,154.7874308847257L99.73067313194275,154.7870521186988L100.6326301240921,154.78445350130485L101.40573611736298,154.7874909775481L101.44868645032247,154.7872443145363L101.53458711624145,154.78742806412743L101.57753744920095,154.78749142102743L101.79228911399842,154.78749868883557L101.8352394469579,154.7872594267303L101.96409044583639,154.78746145804843L102.00704077879587,154.78749804718635L102.13589177767435,154.78739241905183L102.69424610614777,142.6689967199344L102.78014677206674,154.13325793383538L102.82309710502625,154.78491142644202L102.90899777094523,151.31043524004193L102.99489843686422,153.27409227916914L103.0807991027832,108.98335090939591L103.16669976870219,146.78140749826724L103.59620309829712,154.60773248317858L103.93980576197306,79.58927922290377L104.06865676085154,154.7865448626338L104.11160709381105,154.78741595872606L104.19750775973002,154.7874959826418L104.28340842564901,154.78740033524292L104.369309091568,154.61351423502532L104.41225942452749,154.7874974399088L104.49816009044648,154.7874992695898L104.71291175524394,154.78739137975126L104.75586208820343,154.78745153417378L105.14241508483886,154.7874939427044L105.87257074515024,154.78749353719692L106.04437207698821,154.78749370276714L106.2161734088262,154.78746242347623L106.47387540658315,154.7823831566796L107.20403106689453,154.78748408847497L107.24698139985404,154.78749666701506L107.332882065773,154.787486840533L107.50468339761099,154.78524761511554L107.9771370601654,154.78744615192457L108.06303772608439,154.78749891569774L108.19188872496287,154.7874996633486L108.27778939088186,154.7874971440835L108.49254105567931,154.78727950766915L108.53549138863882,154.78741455734405L108.83614371935526,154.78749593206905L109.05089538415274,154.78749687635624L109.22269671599071,154.7874989109012L109.43744838078817,154.78749799470944L109.52334904670715,154.7871634908441L109.56629937966666,154.78737149254923L109.99580270926158,154.74891677523976L110.03875304222106,154.7820184122159L110.33940537293752,154.7874971268947L110.59710737069447,154.78749583533772L110.64005770365398,154.78708123027636L110.81185903549193,154.78711980189541L110.94071003437043,154.78749763676385L110.9836603673299,154.78748669580312L111.32726303100586,154.7874871127698L111.58496502876281,154.78738124497218L111.84266702651978,154.78734815004586L111.92856769243876,154.78748405867822L112.05741869131724,154.787463934675L112.18626969019573,154.78696958999885L112.22922002315521,154.77740752042175L112.52987235387165,154.78749810496404L112.61577301979065,154.78749258880416L113.04527634938557,154.78745529749767L113.43182934602102,154.78749107757187L113.51773001194,154.76015072955872L113.77543200969696,154.78747230632015L114.11903467337291,154.7870915999491L114.63443866888683,154.78749264694065L114.67738900184632,154.78748572308257L114.7632896677653,154.7873860920794L114.8062400007248,154.7872617066571L115.06394199848175,154.75878064736958L115.27869366327923,154.78720253706948L115.53639566103617,154.78729196626054L115.79409765879312,154.77387553128258L115.83704799175263,154.7874643825994L116.05179965655009,154.78749882122577L116.567203652064,154.78747552752068L116.69605465094247,154.78733652277754L116.78195531686147,154.78567519724407L117.03965731461842,154.7863907993128L117.12555798053742,154.78748909928865L117.1685083134969,154.78748523086975L117.21145864645639,154.7874995886784L117.29735931237539,154.78749311992908L117.72686264197031,154.7866717614865L117.76981297492982,154.15959227606754L118.32816730340322,154.7874937618503L118.5429189682007,154.7874996285295L118.75767063299814,154.7874755928779L118.88652163187662,154.78747716850205L118.92947196483613,154.787491311609L118.97242229779562,154.78749749948463L119.1012732966741,154.78748761769805L119.23012429555257,154.78748611047513L119.27307462851206,154.7874294627138L119.35897529443105,154.7874995350504L119.53077662626902,154.7654688695593L119.87437928994497,154.7874993761201L120.21798195362092,154.78749946366696L120.3468329524994,154.78710980756654L120.60453495025635,154.78749651476008L120.69043561617534,154.78749149586557L120.9051872809728,154.78748464478494L121.29174027760824,154.78749950906817L121.59239260832469,154.78749727631464L121.85009460608164,154.78732003622073L121.93599527200064,154.78749813618546L121.97894560496012,154.7874580834313L122.02189593791961,154.78747402521844L122.62320059935251,154.75544058387638L122.66615093231201,154.78542089441225L122.92385293006896,154.78749757401962L123.35335625966391,154.78471151614065L123.65400859038036,154.78749757133536L123.86876025517782,154.7874954979979L123.9546609210968,154.78749795242393L124.04056158701579,154.78748690388488L124.16941258589426,154.78749960277432L124.21236291885376,154.78745703820226L124.38416425069174,154.78748849002736L124.51301524957022,154.78730357856742L124.59891591548919,154.78726660470323L124.68481658140819,154.78670145652958L124.72776691436768,154.78662691059043L124.94251857916514,154.78749943224065L125.41497224171957,154.7874996411489L125.71562457243601,154.7874945972912L126.18807823499043,154.78747663811208L126.35987956682841,154.78684346399294L126.61758156458536,154.78749965876932L126.66053189754486,154.7874966655606L126.78938289642333,154.7874986054786L126.9611842282613,154.78749783349596L127.00413456122081,154.78744623423313L127.13298556009929,154.34162584188766L127.21888622601827,154.7873038568524L127.69133988857268,154.78749019863258L127.73429022153218,154.78747557547095L128.59329688072205,154.7874767793114L128.97984987735748,154.78742239422303L129.83885653654735,154.7874995339951L129.9677075354258,154.78092443023476L130.0965585343043,154.78749710764296L130.35426053206126,154.7854622790304L130.44016119798025,154.78749279049407L130.61196252981821,154.78749651502713L130.6978631957372,154.7874751461737L130.91261486053466,154.78748915036337L131.2991678571701,154.63047239697462L131.3850685230891,154.78740044265027L131.68572085380555,154.78749267219067L131.72867118676504,154.7874746074046L132.07227385044098,154.78749962637028L132.4588268470764,154.78749445546185L132.84537984371184,154.78749704098962L132.93128050963085,154.7874989310385L133.1889825073878,154.78251008642312L133.36078383922575,154.78740791436385L133.40373417218527,154.78749964308457L133.48963483810425,154.78749965413644L133.7043865029017,154.78749810944802L133.7902871688207,154.78749913488795L134.09093949953714,154.75698773776463L134.21979049841565,154.78732795196905L134.26274083137514,154.78686842471117L134.4774924961726,154.787498021792L135.68010181903838,154.78749828851124L135.85190315087635,154.78733972180876L136.41025747934978,154.78749935233276L136.49615814526874,154.7874886318831L136.58205881118775,154.78685719302018L136.7968104759852,154.78749954774696L136.8397608089447,154.78735559618187L137.01156214078267,154.78749902429357L137.78466813405353,154.78749199359174L138.34302246252696,154.78749726752847L138.51482379436493,154.77451399662093L139.2879297876358,154.75704721154432L139.71743311723074,154.78749214735458L139.76038345019023,154.7874996361501L139.8462841161092,154.7874908577587L139.88923444906868,154.78749929658565L140.0180854479472,154.78749621435213L140.06103578090668,154.78749943804303L140.4905391105016,154.7874281953773L141.04889343897503,154.7874996556905L141.220694770813,139.35030916071514L141.30659543673198,154.78588337672582L141.47839676856995,154.7874978090129L141.7790490992864,154.78749907502998L141.8219994322459,154.78749102070512L142.3374034277598,154.78720254225914L142.3803537607193,154.7872288569214L142.68100609143573,154.78746473427063L142.72395642439523,154.78749191062997L142.93870808919272,151.56045636701288L143.41116175174713,57.277075755393135L143.5829630835851,154.7874348260887L143.6259134165446,154.78749233639343L143.71181408246358,154.7874880037443L143.7977147483826,154.78713633127714L144.184267745018,154.78748768825392L144.27016841093698,154.78746606537607L144.44196974277497,154.78749809650301L144.52787040869393,154.78749385622496L145.21507573604583,154.7874994881198L145.4298274008433,154.78706467350474L145.4727777338028,154.78692352509412L145.94523139635723,154.78748976339398L146.07408239523568,154.7874334933461L146.20293339411418,154.78745107889995L146.28883406003317,-192.69421981152217L146.37473472595212,154.4709832158715L146.41768505891164,154.78697331637733L146.46063539187114,154.78438869124147L146.6324367237091,154.7874204599695L146.84718838850657,154.78748206449654L147.19079105218253,154.78745234374972L147.49144338289898,154.7874942606506L147.66324471473692,154.78746964128027L148.04979771137238,154.7874792683123L148.5222513739268,154.78749911038554L148.95175470352171,144.2636603574716L149.2524070342382,154.78691702616288L149.33830770015717,154.78733036389227L149.46715869903562,153.0647148826556L149.8107613627116,154.17424742516198L149.89666202863057,154.787487456264L150.06846336046857,154.7874751602599L150.11141369342803,154.78749759100972L150.15436402638753,154.787499664987L150.32616535822552,154.7874986385624L150.36911569118502,154.7874973446108L150.45501635710397,154.78749212571944L150.92747001965841,154.78749589270194L151.01337068557737,154.78748455818643L151.05632101853686,154.78721704246504L151.4858243481318,154.78748441020016L152.68843367099763,154.78742488625124L152.8172846698761,154.78740987989434L152.9031853357951,154.7871563796159L153.03203633467356,154.78748340939083L153.63334099610645,154.78749938807897L153.67629132906598,154.78747287726463L153.71924166202547,154.78749949575916L154.0628443257014,154.78749872614458L154.10579465866087,154.78696070110777L154.27759599049887,154.78749914438848L154.6211986541748,154.78717191064803L154.70709932009382,154.78748721590262L154.75004965305328,154.7874982605641L154.92185098489125,154.78738547381022L154.96480131785077,154.78749964862337L155.1795529826482,154.78749876698794L155.65200664520262,154.78749351949585L155.78085764408112,154.78749827439526L155.82380797704062,154.7874914407036L155.95265897591906,154.7874870688521L156.03855964183808,154.78744008081554L156.29626163959503,154.7874346860195L156.4251126384735,154.78749814422176L156.68281463623046,154.78707222556534L156.85461596806846,154.7872872940262L157.0264172999064,154.78749574261028L157.6706722942988,154.78736801950626L158.01427495797475,154.78737246279854L158.14312595685323,154.78712196919432L158.3149272886912,154.787494301374L158.35787762165072,154.78749934433995L158.44377828756967,154.78749528988976L158.65852995236716,154.7874954531959L159.25983461380005,154.78748932345485L159.4745862785975,154.78666828029867L159.81818894227345,154.78746912061573L160.0329406070709,154.77599588408566L160.1188412729899,154.7866502505299L160.16179160594942,154.7874788834785L160.2047419389089,154.7874000294445L160.2476922718684,154.7873111514484L160.46244393666586,154.78749244071236L160.50539426962536,154.78749640525731L160.8060466003418,154.7874930009229L160.93489759922028,154.78749376206332L161.06374859809875,154.78730586734957L161.10669893105825,154.77787407076607L161.14964926401774,154.7872097487134L161.27850026289622,154.78749123087394L161.3214505958557,154.78749406825685L161.53620226065317,154.78749678898453L161.57915259361266,154.7874805530017L161.70800359249114,154.7874778383666L161.79390425841015,154.78749680575692L161.9227552572886,154.78749239119952L162.30930825392406,154.7873217134473L162.39520891984304,154.78727551142862L162.481109585762,154.78749929695897L162.6529109176,154.78745161927282L163.46896724383035,154.78743148262754L163.51191757678984,154.78738724517137L163.68371890862784,154.78723003552918L163.7266692415873,154.7834480611043L163.7696195745468,154.7874391902439L163.9414209063848,154.74469137170306L164.15617257118225,154.786651186892L164.4997752348582,154.13628534481288L164.54272556781768,150.2992320613372L164.67157656669616,154.78628974659122L164.71452689965565,154.78740289750138L164.75747723261514,154.7867138109572L164.84337789853416,154.78646187370205L164.92927856445314,82.3794275567308L164.9722288974126,154.7874411179486L165.1440302292506,103.95158028426016L165.1869805622101,154.72727427947098L165.31583156108854,154.78739837783672L165.44468255996705,154.78749218922835L165.61648389180502,154.78749960342302L165.91713622252146,154.78664264661393L166.04598722139994,154.78746775159442L166.13188788731895,154.78745500721678L166.2177885532379,154.7868270276131L166.3036892191569,154.7865738616041L166.77614288171134,154.7873388232982L166.8190932146708,154.78745736851766L166.90499388058979,154.7874625874549L167.20564621130626,154.78620161018037L167.29154687722524,154.7872843888695L167.37744754314423,154.78749862410237L167.4203978761037,154.7874708896807L167.5062985420227,154.78702308780802L167.63514954090118,154.78724131124983L167.76400053977966,154.78744840298393L168.53710653305055,154.7833859328571L168.665957531929,154.78749046653567L168.88070919672649,154.7874995893853L168.96660986264544,154.78749598644168L169.3961131922404,154.78703333255837L169.61086485703785,154.787333561657L169.69676552295684,154.78748945124883L169.86856685479484,154.78744073329113L170.0833185195923,154.7874955248507L170.1262688525518,154.78608301321108L170.34102051734925,-20.931359903593776L170.5557721821467,154.33234466360014L170.6416728480657,154.78749862607197L171.2000271765391,154.78745864763644L171.41477884133658,154.78714730006678L171.50067950725554,154.78700597496075L171.67248083909354,154.7874844500274L171.801331837972,154.78749942520994L172.05903383572894,154.78737050551592L172.3596861664454,154.78747229950102L172.4026364994049,154.787499408589L172.61738816420237,154.78748879268002L173.56229548931123,154.7873959767253L173.81999748706818,154.787497284195L173.90589815298716,154.78748825836433L174.12064981778462,154.7874898109079L174.20655048370364,154.7873285673654L174.37835181554158,154.78748726335863L174.42130214850107,154.78749353905874L175.36620947360993,154.7873996765377L175.4950604724884,28.818072374379724L176.22521613279977,154.7874852707987L177.17012345790863,154.787490209891L177.72847778638203,154.78747475132744L178.32978244781492,154.7873330028732L178.58748444557187,154.78740328084598L178.6304347785314,154.78748704735466L178.80223611036936,154.78748694308146L178.84518644332886,154.78749306284737L178.97403744220733,154.7874596255595L179.05993810812632,154.78692257093894L179.36059043884276,154.78749790919483L179.61829243659972,154.7874859811778L179.74714343547822,154.78749848294802L180.04779576619467,154.7403558749828L180.09074609915416,154.78671145353564L180.26254743099213,147.74223570550012L180.30549776395162,154.39258183333203L180.4343487628301,154.78749954627557L180.56319976170857,154.78748734374682L180.77795142650604,154.78749078431903L180.94975275834403,154.7874694182641L181.12155409018197,154.78749466639294L181.29335542201997,154.7874996460555L181.33630575497946,154.7874943920929L181.37925608793893,154.7874844632744L181.85170975049337,154.78749041605363L182.02351108233134,154.7874981594464L182.71071640968322,154.76964342567675L183.09726940631867,154.7874832850296L183.65562373479207,154.78748546011943L183.74152440071106,154.78748430986553L184.0421767314275,154.78749859625398L184.29987872918446,154.78749862087534L184.64348139286042,154.78749144835874L185.03003438949585,154.78749873609593L185.3306867202123,154.78749815832307L185.41658738613128,154.78746789094288L185.45953771909078,154.78287642205163L185.71723971684773,154.78748258883707L185.8460907157262,154.78749324224765L185.9749417146047,154.78745874014666L186.18969337940217,154.78749508881506L187.0916503715515,154.787499600064L187.22050137043001,154.78749831613422L187.47820336818697,154.78749951676292L187.6500047000249,154.78739565942524L187.8218060318629,154.78748717043777L188.03655769666037,154.78749598519127L188.12245836257935,154.7874984435752L188.25130936145783,154.78749855539203L188.29425969441732,154.78749547896174L188.9814650217692,154.7874313983471L189.6686703491211,154.72850253612305L190.01227301279704,154.78722087764095L190.57062734127047,154.78749802368824L190.82832933902742,154.41334448251345L190.8712796719869,154.5800781931343L190.9142300049464,154.77630716455533L191.08603133678437,154.78749532081628L191.17193200270336,154.78749482119352L191.4725843334198,154.78748309147423L191.90208766301473,154.78742020094492L191.94503799597422,154.78749663888127L192.20273999373117,154.78749949815193L192.28864065965016,154.7874987518649L192.37454132556917,154.7874951180265L192.8040446551641,154.78747227923407L192.84699498812356,154.7873840560355L193.62010098139444,154.78110477059298L194.13550497690835,154.78738085973296L194.6079586394628,154.78594222873534L194.73680963834127,154.26345638652796L195.50991563161216,154.7845508790091L195.55286596457165,154.78665444797255L195.8964686282476,154.78749388811647L195.93941896120705,103.7309249594186L196.19712095896404,154.78749965171582L196.3259719578425,154.78747072254853L196.66957462151845,154.78748042598383L196.75547528743743,154.78727428016228L197.0131772851944,154.73448153573085L197.0561276181539,154.77398293704846L197.0990779511134,154.78658457354695L197.44268061478934,154.78722227687086L197.7003826125463,154.78402217471643L197.74333294550578,154.78486428921445L197.91513427734375,154.7874182380196L198.7311906035741,-662.852677135068L198.9888926013311,154.78749721855348L199.03184293429055,154.78749798632066L199.24659459908804,154.7874768174332L199.28954493204753,154.7874962097629L199.418395930926,154.78749936556136L199.4613462638855,154.75367089229516L199.59019726276398,154.78743815768271L199.71904826164246,154.78745323165958L199.84789926052093,154.78353147286938L200.27740259011586,154.78704816525232L200.44920392195385,154.78749891169625L200.53510458787284,154.78749227862312L200.5780549208323,154.78734519995334L200.7498562526703,154.7874996181596L200.7928065856298,154.7874706720833L201.60886291186014,154.78749934434708L201.9095152425766,154.78749956746407L202.16721724033354,154.78747759200473L202.33901857217154,154.70018173485454L202.46786957105,154.78701518705202L202.553770236969,154.78749439845285L202.94032323360443,154.78627864320006L203.2839258972804,154.4592975908562L203.49867756207783,154.78593838970838L203.6704788939158,154.7873868631448L203.7993298927943,154.78749883476743L203.97113122463224,154.78748803766499L204.05703189055123,154.78749962584564L204.4006345542272,-221.95482291004527L204.4435848871867,154.77305626032933L204.65833655198415,154.78732052796116L204.70128688494364,154.5640436909845L204.74423721790313,154.78004065730244L204.78718755086263,154.78659481899746L204.87308821678164,154.78457720819L205.17374054749808,154.78461700279664L205.25964121341704,43.956659103209276L205.47439287821453,153.81707442278318L205.90389620780945,154.7874952367344L205.94684654076895,150.39244898923675L206.07569753964742,154.78735378464205L206.1615982055664,154.7807948911655L206.2474988714854,154.7677048195461L206.29044920444488,154.78747898079357L206.7629028669993,154.7874889036237L206.8058531999588,154.7874904089996L206.9776545317968,154.7874995735209L207.27830686251323,154.78740522624594L207.4501081943512,154.78233567050953L207.4930585273107,154.78736319552598L207.75076052506765,154.7867749823308L207.83666119098663,154.78749553800245L208.0514128557841,154.78738538699676L208.35206518650054,154.78749956439978L208.43796585241952,154.78749934591676L208.6097671842575,154.78749956416365L208.69566785017648,154.78658667379224L208.738618183136,154.7873767456028L209.3399228445689,154.7874930205514L209.68352550824483,154.78748541127462L209.81237650712333,154.78749599295514L209.8982771730423,154.78748876153438L210.02712817192076,154.78746558521453L210.07007850488029,154.78748501471006L210.28483016967772,154.78749783968442L210.45663150151572,154.7874935643815L210.75728383223216,154.78746760328252L210.92908516407013,154.78749963989327L211.40153882662455,154.7874794363274L211.53038982550302,154.7874981332536L211.5733401584625,154.7874580961197L212.51824748357137,154.78700002374407L212.56119781653086,154.78749070123112L212.64709848244985,154.78749543351657L212.90480048020683,154.78749315778188L212.9477508131663,154.78749948665148L213.33430380980172,154.78747951000327L213.46315480868023,154.78747958213972L213.63495614051817,154.7874748675026L213.84970780531566,154.78749168762988L214.27921113491058,154.78749932980006L214.49396279970807,154.78477633707757L214.62281379858652,154.7874460898289L214.79461513042452,154.78668055836417L214.96641646226246,154.78718819189422L215.00936679522198,154.72073600701782L215.26706879297893,154.78738487321056L216.42672778288522,149.35839404533013L216.89918144543967,154.78748082123172L217.1998337761561,154.78749818347575L217.41458544095357,154.7874951786655L217.801138437589,154.7874782789699L217.97293976942697,154.7874989418534L218.05884043534596,147.96052443679514L218.23064176718393,154.78730824713605L219.13259875933332,154.78749357669852L219.17554909229278,154.78714923057737L219.26144975821177,154.78748638802003L219.30440009117126,154.78748853051235L219.77685375372567,154.785527037362L220.3352080821991,154.78597264571715L220.50700941403707,154.1181600185046L220.67881074587504,154.78749680244871L220.76471141179402,154.78749154184075L220.936512743632,154.7874859027937L220.97946307659151,154.78744459653646L221.02241340955098,154.78749618513362L221.28011540730796,154.7874994187054L221.62371807098387,154.78749784888845L222.26797306537628,128.54570089162544L222.31092339833577,153.66886658628408L222.78337706089022,154.78745307658775L223.16993005752562,154.78749957450668L223.34173138936362,154.78748926334328L223.3846817223231,154.78749925915713L223.4705823882421,154.78749743000395L224.071887049675,154.7874220999675L224.15778771559397,154.7874942921666L224.24368838151295,154.78749920400818L224.93089370886486,154.78749928647332L224.97384404182435,154.78749517194478L225.01679437478384,154.78749734848617L225.48924803733826,154.78749878527032L225.57514870325724,154.78749736589523L226.21940369764965,154.78749908355732L226.3053043635686,154.78749726263388L226.5200560283661,154.78742607233463L226.9066090250015,154.78749561435583L227.03546002388,154.78749920268638L227.0784103568395,154.7874131611157L227.16431102275848,154.7874904465268L227.7656156841914,154.78747489402494L228.06626801490785,154.7874949433982L228.8823243411382,154.7873594181777L228.96822500705719,154.78749549467037L229.14002633889515,154.78748768877392L229.26887733777366,154.78749376865593L229.31182767073315,154.78749897488092L229.4836290025711,154.78749606888184L229.74133100032805,154.7874993513207L229.78428133328757,154.7874986114603L229.95608266512554,154.7874995967166L229.999032998085,154.78749963920143L230.1278839969635,154.78749832217176L230.170834329923,154.7874992838425L230.29968532880147,154.78749910336404L230.7721389913559,154.7874757985875L230.98689065615335,154.78746834617036L231.11574165503185,154.7874780153323L231.2445926539103,154.7874954549197L231.3734436527888,154.78739539131362L231.58819531758624,154.78749476800536L231.80294698238373,154.78749688919652L232.1465496460597,154.78749913973306L232.23245031197865,154.78749961570833L232.31835097789764,154.78749788819763L232.5760529756546,154.78749530626317L232.7478543074926,154.78749826332688L233.0914569711685,154.78749545931714L233.56391063372294,154.78623599420064L233.7786622985204,154.7874841746359L233.90751329739888,154.78748401388015L234.12226496219634,154.7874441960166L234.16521529515583,154.7874869418291L234.25111596107485,154.78749896541672L234.3799669599533,154.78748617528535L234.42291729291279,154.78749966161374L234.5088179588318,154.78749919099025L235.1101226202647,154.7874992476488L235.32487428506215,154.78749934105326L235.6684769487381,154.78746798816394L235.7543776146571,154.7874938200634L235.92617894649504,154.78749048435836L236.14093061129253,154.78746867431053L236.183880944252,154.78749864429787" fill="none"></path></g></g></g></g></g></g><g transform="translate(72, 176)" clip-path="url(#clip_1)"><clipPath id="clip_1"><rect width="257" height="23"></rect></clipPath><g><g><line x1="0" y1="0" x2="0" y2="5" style="visibility: inherit;" fill="rgb(0, 0, 0)" stroke="rgb(204, 204, 204)" stroke-width="1px"></line><line x1="21.4751664797465" y1="0" x2="21.4751664797465" y2="5" style="visibility: inherit;" fill="rgb(0, 0, 0)" stroke="rgb(204, 204, 204)" stroke-width="1px"></line><line x1="42.950332959493" y1="0" x2="42.950332959493" y2="5" style="visibility: inherit;" fill="rgb(0, 0, 0)" stroke="rgb(204, 204, 204)" stroke-width="1px"></line><line x1="64.4254994392395" y1="0" x2="64.4254994392395" y2="5" style="visibility: inherit;" fill="rgb(0, 0, 0)" stroke="rgb(204, 204, 204)" stroke-width="1px"></line><line x1="85.900665918986" y1="0" x2="85.900665918986" y2="5" style="visibility: inherit;" fill="rgb(0, 0, 0)" stroke="rgb(204, 204, 204)" stroke-width="1px"></line><line x1="107.37583239873251" y1="0" x2="107.37583239873251" y2="5" style="visibility: inherit;" fill="rgb(0, 0, 0)" stroke="rgb(204, 204, 204)" stroke-width="1px"></line><line x1="128.850998878479" y1="0" x2="128.850998878479" y2="5" style="visibility: inherit;" fill="rgb(0, 0, 0)" stroke="rgb(204, 204, 204)" stroke-width="1px"></line><line x1="150.32616535822552" y1="0" x2="150.32616535822552" y2="5" style="visibility: inherit;" fill="rgb(0, 0, 0)" stroke="rgb(204, 204, 204)" stroke-width="1px"></line><line x1="171.801331837972" y1="0" x2="171.801331837972" y2="5" style="visibility: inherit;" fill="rgb(0, 0, 0)" stroke="rgb(204, 204, 204)" stroke-width="1px"></line><line x1="193.2764983177185" y1="0" x2="193.2764983177185" y2="5" style="visibility: inherit;" fill="rgb(0, 0, 0)" stroke="rgb(204, 204, 204)" stroke-width="1px"></line><line x1="214.75166479746503" y1="0" x2="214.75166479746503" y2="5" style="visibility: inherit;" fill="rgb(0, 0, 0)" stroke="rgb(204, 204, 204)" stroke-width="1px"></line><line x1="236.2268312772115" y1="0" x2="236.2268312772115" y2="5" style="visibility: inherit;" fill="rgb(0, 0, 0)" stroke="rgb(204, 204, 204)" stroke-width="1px"></line><line x1="257.701997756958" y1="0" x2="257.701997756958" y2="5" style="visibility: inherit;" fill="rgb(0, 0, 0)" stroke="rgb(204, 204, 204)" stroke-width="1px"></line></g><g transform="translate(0, 8)"><text style="text-anchor: middle; visibility: hidden; font-family: Roboto, sans-serif; font-size: 12px; font-weight: 200;" x="0" y="0" dx="0em" dy="0.95em" fill="rgb(33, 33, 33)" stroke="none" stroke-width="1px">-500</text><text style="text-anchor: middle; visibility: inherit; font-family: Roboto, sans-serif; font-size: 12px; font-weight: 200;" x="21.4751664797465" y="0" dx="0em" dy="0.95em" fill="rgb(33, 33, 33)" stroke="none" stroke-width="1px">0</text><text style="text-anchor: middle; visibility: hidden; font-family: Roboto, sans-serif; font-size: 12px; font-weight: 200;" x="42.950332959493" y="0" dx="0em" dy="0.95em" fill="rgb(33, 33, 33)" stroke="none" stroke-width="1px">500</text><text style="text-anchor: middle; visibility: inherit; font-family: Roboto, sans-serif; font-size: 12px; font-weight: 200;" x="64.4254994392395" y="0" dx="0em" dy="0.95em" fill="rgb(33, 33, 33)" stroke="none" stroke-width="1px">1k</text><text style="text-anchor: middle; visibility: hidden; font-family: Roboto, sans-serif; font-size: 12px; font-weight: 200;" x="85.900665918986" y="0" dx="0em" dy="0.95em" fill="rgb(33, 33, 33)" stroke="none" stroke-width="1px">1.5k</text><text style="text-anchor: middle; visibility: inherit; font-family: Roboto, sans-serif; font-size: 12px; font-weight: 200;" x="107.37583239873251" y="0" dx="0em" dy="0.95em" fill="rgb(33, 33, 33)" stroke="none" stroke-width="1px">2k</text><text style="text-anchor: middle; visibility: hidden; font-family: Roboto, sans-serif; font-size: 12px; font-weight: 200;" x="128.850998878479" y="0" dx="0em" dy="0.95em" fill="rgb(33, 33, 33)" stroke="none" stroke-width="1px">2.5k</text><text style="text-anchor: middle; visibility: inherit; font-family: Roboto, sans-serif; font-size: 12px; font-weight: 200;" x="150.32616535822552" y="0" dx="0em" dy="0.95em" fill="rgb(33, 33, 33)" stroke="none" stroke-width="1px">3k</text><text style="text-anchor: middle; visibility: hidden; font-family: Roboto, sans-serif; font-size: 12px; font-weight: 200;" x="171.801331837972" y="0" dx="0em" dy="0.95em" fill="rgb(33, 33, 33)" stroke="none" stroke-width="1px">3.5k</text><text style="text-anchor: middle; visibility: inherit; font-family: Roboto, sans-serif; font-size: 12px; font-weight: 200;" x="193.2764983177185" y="0" dx="0em" dy="0.95em" fill="rgb(33, 33, 33)" stroke="none" stroke-width="1px">4k</text><text style="text-anchor: middle; visibility: hidden; font-family: Roboto, sans-serif; font-size: 12px; font-weight: 200;" x="214.75166479746503" y="0" dx="0em" dy="0.95em" fill="rgb(33, 33, 33)" stroke="none" stroke-width="1px">4.5k</text><text style="text-anchor: middle; visibility: inherit; font-family: Roboto, sans-serif; font-size: 12px; font-weight: 200;" x="236.2268312772115" y="0" dx="0em" dy="0.95em" fill="rgb(33, 33, 33)" stroke="none" stroke-width="1px">5k</text><text style="text-anchor: middle; visibility: hidden; font-family: Roboto, sans-serif; font-size: 12px; font-weight: 200;" x="257.701997756958" y="0" dx="0em" dy="0.95em" fill="rgb(33, 33, 33)" stroke="none" stroke-width="1px">5.5k</text></g><line x1="0" y1="0" x2="257.701997756958" y2="0" fill="rgb(0, 0, 0)" stroke="rgb(204, 204, 204)" stroke-width="1px"></line></g></g></g></g></svg>