<svg viewBox="0 0 330 200" xmlns="http://www.w3.org/2000/svg"><g><g><g><g><g><line x1="82.68100261688232" y1="176.89999961853027" x2="77.68100261688232" y2="176.89999961853027" style="visibility: inherit;" fill="rgb(0, 0, 0)" stroke="rgb(204, 204, 204)" stroke-width="1px"></line><line x1="82.68100261688232" y1="163.2923073401818" x2="77.68100261688232" y2="163.2923073401818" style="visibility: inherit;" fill="rgb(0, 0, 0)" stroke="rgb(204, 204, 204)" stroke-width="1px"></line><line x1="82.68100261688232" y1="149.6846150618333" x2="77.68100261688232" y2="149.6846150618333" style="visibility: inherit;" fill="rgb(0, 0, 0)" stroke="rgb(204, 204, 204)" stroke-width="1px"></line><line x1="82.68100261688232" y1="136.0769227834848" x2="77.68100261688232" y2="136.0769227834848" style="visibility: inherit;" fill="rgb(0, 0, 0)" stroke="rgb(204, 204, 204)" stroke-width="1px"></line><line x1="82.68100261688232" y1="122.46923050513634" x2="77.68100261688232" y2="122.46923050513634" style="visibility: inherit;" fill="rgb(0, 0, 0)" stroke="rgb(204, 204, 204)" stroke-width="1px"></line><line x1="82.68100261688232" y1="108.86153822678787" x2="77.68100261688232" y2="108.86153822678787" style="visibility: inherit;" fill="rgb(0, 0, 0)" stroke="rgb(204, 204, 204)" stroke-width="1px"></line><line x1="82.68100261688232" y1="95.25384594843938" x2="77.68100261688232" y2="95.25384594843938" style="visibility: inherit;" fill="rgb(0, 0, 0)" stroke="rgb(204, 204, 204)" stroke-width="1px"></line><line x1="82.68100261688232" y1="81.6461536700909" x2="77.68100261688232" y2="81.6461536700909" style="visibility: inherit;" fill="rgb(0, 0, 0)" stroke="rgb(204, 204, 204)" stroke-width="1px"></line><line x1="82.68100261688232" y1="68.0384613917424" x2="77.68100261688232" y2="68.0384613917424" style="visibility: inherit;" fill="rgb(0, 0, 0)" stroke="rgb(204, 204, 204)" stroke-width="1px"></line><line x1="82.68100261688232" y1="54.430769113393936" x2="77.68100261688232" y2="54.430769113393936" style="visibility: inherit;" fill="rgb(0, 0, 0)" stroke="rgb(204, 204, 204)" stroke-width="1px"></line><line x1="82.68100261688232" y1="40.82307683504544" x2="77.68100261688232" y2="40.82307683504544" style="visibility: inherit;" fill="rgb(0, 0, 0)" stroke="rgb(204, 204, 204)" stroke-width="1px"></line><line x1="82.68100261688232" y1="27.215384556696968" x2="77.68100261688232" y2="27.215384556696968" style="visibility: inherit;" fill="rgb(0, 0, 0)" stroke="rgb(204, 204, 204)" stroke-width="1px"></line><line x1="82.68100261688232" y1="13.607692278348473" x2="77.68100261688232" y2="13.607692278348473" style="visibility: inherit;" fill="rgb(0, 0, 0)" stroke="rgb(204, 204, 204)" stroke-width="1px"></line><line x1="82.68100261688232" y1="0" x2="77.68100261688232" y2="0" style="visibility: inherit;" fill="rgb(0, 0, 0)" stroke="rgb(204, 204, 204)" stroke-width="1px"></line></g><g transform="translate(72.68100261688232, 0)"><text style="text-anchor: end; visibility: hidden; font-family: Roboto, sans-serif; font-size: 12px; font-weight: 200;" x="0" y="176.89999961853027" dx="0em" dy="0.3em" fill="rgb(33, 33, 33)" stroke="none" stroke-width="1px">-1.4e+3</text><text style="text-anchor: end; visibility: inherit; font-family: Roboto, sans-serif; font-size: 12px; font-weight: 200;" x="0" y="163.2923073401818" dx="0em" dy="0.3em" fill="rgb(33, 33, 33)" stroke="none" stroke-width="1px">-1.3e+3</text><text style="text-anchor: end; visibility: hidden; font-family: Roboto, sans-serif; font-size: 12px; font-weight: 200;" x="0" y="149.6846150618333" dx="0em" dy="0.3em" fill="rgb(33, 33, 33)" stroke="none" stroke-width="1px">-1.2e+3</text><text style="text-anchor: end; visibility: inherit; font-family: Roboto, sans-serif; font-size: 12px; font-weight: 200;" x="0" y="136.0769227834848" dx="0em" dy="0.3em" fill="rgb(33, 33, 33)" stroke="none" stroke-width="1px">-1.1e+3</text><text style="text-anchor: end; visibility: hidden; font-family: Roboto, sans-serif; font-size: 12px; font-weight: 200;" x="0" y="122.46923050513634" dx="0em" dy="0.3em" fill="rgb(33, 33, 33)" stroke="none" stroke-width="1px">-1e+3</text><text style="text-anchor: end; visibility: inherit; font-family: Roboto, sans-serif; font-size: 12px; font-weight: 200;" x="0" y="108.86153822678787" dx="0em" dy="0.3em" fill="rgb(33, 33, 33)" stroke="none" stroke-width="1px">-900</text><text style="text-anchor: end; visibility: hidden; font-family: Roboto, sans-serif; font-size: 12px; font-weight: 200;" x="0" y="95.25384594843938" dx="0em" dy="0.3em" fill="rgb(33, 33, 33)" stroke="none" stroke-width="1px">-800</text><text style="text-anchor: end; visibility: inherit; font-family: Roboto, sans-serif; font-size: 12px; font-weight: 200;" x="0" y="81.6461536700909" dx="0em" dy="0.3em" fill="rgb(33, 33, 33)" stroke="none" stroke-width="1px">-700</text><text style="text-anchor: end; visibility: hidden; font-family: Roboto, sans-serif; font-size: 12px; font-weight: 200;" x="0" y="68.0384613917424" dx="0em" dy="0.3em" fill="rgb(33, 33, 33)" stroke="none" stroke-width="1px">-600</text><text style="text-anchor: end; visibility: inherit; font-family: Roboto, sans-serif; font-size: 12px; font-weight: 200;" x="0" y="54.430769113393936" dx="0em" dy="0.3em" fill="rgb(33, 33, 33)" stroke="none" stroke-width="1px">-500</text><text style="text-anchor: end; visibility: hidden; font-family: Roboto, sans-serif; font-size: 12px; font-weight: 200;" x="0" y="40.82307683504544" dx="0em" dy="0.3em" fill="rgb(33, 33, 33)" stroke="none" stroke-width="1px">-400</text><text style="text-anchor: end; visibility: inherit; font-family: Roboto, sans-serif; font-size: 12px; font-weight: 200;" x="0" y="27.215384556696968" dx="0em" dy="0.3em" fill="rgb(33, 33, 33)" stroke="none" stroke-width="1px">-300</text><text style="text-anchor: end; visibility: hidden; font-family: Roboto, sans-serif; font-size: 12px; font-weight: 200;" x="0" y="13.607692278348473" dx="0em" dy="0.3em" fill="rgb(33, 33, 33)" stroke="none" stroke-width="1px">-200</text><text style="text-anchor: end; visibility: hidden; font-family: Roboto, sans-serif; font-size: 12px; font-weight: 200;" x="0" y="0" dx="0em" dy="0.3em" fill="rgb(33, 33, 33)" stroke="none" stroke-width="1px">-100</text></g><line x1="82.68100261688232" y1="0" x2="82.68100261688232" y2="176.89999961853027" fill="rgb(0, 0, 0)" stroke="rgb(204, 204, 204)" stroke-width="1px"></line></g></g><g transform="translate(82, 0)" clip-path="url(#clip_0)"><clipPath id="clip_0"><rect width="247" height="176"></rect></clipPath><g><g><g><line x1="0" y1="0" x2="0" y2="176.89999961853027" fill="rgb(0, 0, 0)" stroke="rgb(66, 66, 66)" stroke-width="1px" opacity="0.25"></line><line x1="20.60991644859314" y1="0" x2="20.60991644859314" y2="176.89999961853027" fill="rgb(0, 0, 0)" stroke="rgb(66, 66, 66)" stroke-width="1px" opacity="0.25"></line><line x1="41.21983289718628" y1="0" x2="41.21983289718628" y2="176.89999961853027" fill="rgb(0, 0, 0)" stroke="rgb(66, 66, 66)" stroke-width="1px" opacity="0.25"></line><line x1="61.82974934577942" y1="0" x2="61.82974934577942" y2="176.89999961853027" fill="rgb(0, 0, 0)" stroke="rgb(66, 66, 66)" stroke-width="1px" opacity="0.25"></line><line x1="82.43966579437256" y1="0" x2="82.43966579437256" y2="176.89999961853027" fill="rgb(0, 0, 0)" stroke="rgb(66, 66, 66)" stroke-width="1px" opacity="0.25"></line><line x1="103.0495822429657" y1="0" x2="103.0495822429657" y2="176.89999961853027" fill="rgb(0, 0, 0)" stroke="rgb(66, 66, 66)" stroke-width="1px" opacity="0.25"></line><line x1="123.65949869155884" y1="0" x2="123.65949869155884" y2="176.89999961853027" fill="rgb(0, 0, 0)" stroke="rgb(66, 66, 66)" stroke-width="1px" opacity="0.25"></line><line x1="144.26941514015198" y1="0" x2="144.26941514015198" y2="176.89999961853027" fill="rgb(0, 0, 0)" stroke="rgb(66, 66, 66)" stroke-width="1px" opacity="0.25"></line><line x1="164.87933158874512" y1="0" x2="164.87933158874512" y2="176.89999961853027" fill="rgb(0, 0, 0)" stroke="rgb(66, 66, 66)" stroke-width="1px" opacity="0.25"></line><line x1="185.48924803733826" y1="0" x2="185.48924803733826" y2="176.89999961853027" fill="rgb(0, 0, 0)" stroke="rgb(66, 66, 66)" stroke-width="1px" opacity="0.25"></line><line x1="206.0991644859314" y1="0" x2="206.0991644859314" y2="176.89999961853027" fill="rgb(0, 0, 0)" stroke="rgb(66, 66, 66)" stroke-width="1px" opacity="0.25"></line><line x1="226.70908093452454" y1="0" x2="226.70908093452454" y2="176.89999961853027" fill="rgb(0, 0, 0)" stroke="rgb(66, 66, 66)" stroke-width="1px" opacity="0.25"></line><line x1="247.31899738311768" y1="0" x2="247.31899738311768" y2="176.89999961853027" fill="rgb(0, 0, 0)" stroke="rgb(66, 66, 66)" stroke-width="1px" opacity="0.25"></line></g><g><line x1="0" y1="176.89999961853027" x2="247.31899738311768" y2="176.89999961853027" fill="rgb(0, 0, 0)" stroke="rgb(66, 66, 66)" stroke-width="1px" opacity="0.25"></line><line x1="0" y1="163.2923073401818" x2="247.31899738311768" y2="163.2923073401818" fill="rgb(0, 0, 0)" stroke="rgb(66, 66, 66)" stroke-width="1px" opacity="0.25"></line><line x1="0" y1="149.6846150618333" x2="247.31899738311768" y2="149.6846150618333" fill="rgb(0, 0, 0)" stroke="rgb(66, 66, 66)" stroke-width="1px" opacity="0.25"></line><line x1="0" y1="136.0769227834848" x2="247.31899738311768" y2="136.0769227834848" fill="rgb(0, 0, 0)" stroke="rgb(66, 66, 66)" stroke-width="1px" opacity="0.25"></line><line x1="0" y1="122.46923050513634" x2="247.31899738311768" y2="122.46923050513634" fill="rgb(0, 0, 0)" stroke="rgb(66, 66, 66)" stroke-width="1px" opacity="0.25"></line><line x1="0" y1="108.86153822678787" x2="247.31899738311768" y2="108.86153822678787" fill="rgb(0, 0, 0)" stroke="rgb(66, 66, 66)" stroke-width="1px" opacity="0.25"></line><line x1="0" y1="95.25384594843938" x2="247.31899738311768" y2="95.25384594843938" fill="rgb(0, 0, 0)" stroke="rgb(66, 66, 66)" stroke-width="1px" opacity="0.25"></line><line x1="0" y1="81.6461536700909" x2="247.31899738311768" y2="81.6461536700909" fill="rgb(0, 0, 0)" stroke="rgb(66, 66, 66)" stroke-width="1px" opacity="0.25"></line><line x1="0" y1="68.0384613917424" x2="247.31899738311768" y2="68.0384613917424" fill="rgb(0, 0, 0)" stroke="rgb(66, 66, 66)" stroke-width="1px" opacity="0.25"></line><line x1="0" y1="54.430769113393936" x2="247.31899738311768" y2="54.430769113393936" fill="rgb(0, 0, 0)" stroke="rgb(66, 66, 66)" stroke-width="1px" opacity="0.25"></line><line x1="0" y1="40.82307683504544" x2="247.31899738311768" y2="40.82307683504544" fill="rgb(0, 0, 0)" stroke="rgb(66, 66, 66)" stroke-width="1px" opacity="0.25"></line><line x1="0" y1="27.215384556696968" x2="247.31899738311768" y2="27.215384556696968" fill="rgb(0, 0, 0)" stroke="rgb(66, 66, 66)" stroke-width="1px" opacity="0.25"></line><line x1="0" y1="13.607692278348473" x2="247.31899738311768" y2="13.607692278348473" fill="rgb(0, 0, 0)" stroke="rgb(66, 66, 66)" stroke-width="1px" opacity="0.25"></line><line x1="0" y1="0" x2="247.31899738311768" y2="0" fill="rgb(0, 0, 0)" stroke="rgb(66, 66, 66)" stroke-width="1px" opacity="0.25"></line></g></g></g><g><g><line x1="0" y1="-13.607692278348473" x2="247.31899738311768" y2="-13.607692278348473" fill="rgb(0, 0, 0)" stroke="rgb(153, 153, 153)" stroke-width="1.5px"></line></g></g><g><g><line x1="20.60991644859314" y1="0" x2="20.60991644859314" y2="176.89999961853027" fill="rgb(0, 0, 0)" stroke="rgb(153, 153, 153)" stroke-width="1.5px"></line></g></g><g><g><g><g><g><path style="fill: none;" stroke="rgb(255, 112, 67)" stroke-width="2px" d="M20.60991644859314,122.93311626979856L20.774795780181886,114.91782298381325L21.022114777565005,139.79436106461378L21.104554443359373,149.1438661451306L21.310653607845307,122.73436276506348L21.59919243812561,139.2374524260252L21.805291602611543,133.7911205237723L21.887731268405915,132.66705499471107L22.217489931583405,146.86234058554479L22.341149430274964,166.4598683460683L22.382369263172148,177.0330056534691L22.506028761863707,171.70330709963662L22.794567592144013,193.78637354995232L22.877007257938384,180.7797072180139L22.91822709083557,167.08246530330683L23.330425419807437,169.31924132843503L23.454084918498996,144.89717395694345L23.49530475139618,159.57540403124315L23.536524584293364,148.48734416732148L23.61896425008774,171.70872470244564L23.70140391588211,155.61094472541095L23.783843581676482,136.17702455274917L23.866283247470857,130.13282428053816L23.948722913265225,126.44539875955178L24.113602244853976,124.37861648583592L24.15482207775116,128.60370310537843L24.27848157644272,157.758878884487L24.48458074092865,179.74087858944063L24.69067990541458,166.98849651612886L24.731899738311768,142.1696670206137L25.432636897563935,126.7178029468781L25.556296396255494,123.8346573332682L25.638736062049865,147.05143196906477L25.721175727844237,164.15685245401534L25.803615393638612,146.52314211475624L25.844835226535796,131.05772794936877L26.133374056816102,124.74805609101905L26.25703355550766,154.2108020686863L26.298253388404845,137.77676225185147L26.58679221868515,148.06149030677201L26.79289138317108,157.31774511427685L26.83411121606827,162.48761223745993L27.0402103805542,141.89018825941884L27.49362854242325,152.0213157428574L28.318025200366975,152.2442128830889L28.524124364852906,139.37178466612815L28.647783863544465,156.76694166122917L29.801939184665677,138.06739863602016L29.884378850460052,134.79938561023818L30.090478014945987,131.4751973252202L30.214137513637546,123.28237055483726L30.708775508403775,161.62614285087074L30.832435007095334,143.8191796881282L30.91487467288971,158.87370921511936L30.99731433868408,174.4373816986249L31.2446333360672,184.01287596720672L31.450732500553134,168.07786962663278L31.491952333450314,153.2398984358328L31.533172166347505,151.43178641669266L31.574391999244693,148.56508890932133L32.23390932559967,157.87911485977085L32.687327487468714,151.7207432258038L32.728547320365905,151.72593615541325L32.852206819057464,147.35930830781825L32.893426651954655,137.4230641533494L33.140745649337774,133.36143787141447L33.22318531513214,150.48672902972058L33.55294397830963,142.31455728386538L33.67660347700119,141.27698167693438L33.923922474384305,149.016296774011L34.50100013494492,140.45901571348796L34.624659633636476,139.1595844562241L34.78953896522522,146.87656743159042L34.83075879812241,149.29239100689176L34.91319846391678,143.3439781968717L35.242957127094265,139.57491470975847L35.284176959991456,128.777327398368L35.65515545606613,122.07743074743769L35.77881495475769,121.35812556038401L36.479552114009856,126.58905336405103L36.52077194690705,119.07515571412922L36.56199177980423,120.78644609776822L36.97419010877609,146.53062991632734L37.139069440364835,157.5030731760951L37.42760827064514,155.35562981709936L37.63370743513107,146.9495234812632L38.04590576410293,139.98469671440316L38.499323925971986,152.042348917802L38.66420325756073,147.67262849728692L39.11762141942978,140.16984061022083L39.32372058391571,153.0899208902924L39.3649404168129,151.18365033291872L39.44738008260727,147.28662262357233L39.859578411579136,146.223602242961L39.98323791027069,160.2671079516852L40.06567757606506,156.43431515185262L40.230556907653806,146.87747379499433L40.477875905036925,139.5719595867319L41.09617339849472,127.30106983817336L41.26105273008346,146.2012790983454L41.302272562980654,136.12334218185475L41.59081139326096,133.36112346688475L42.08544938802719,131.85241375200536L42.12666922092438,144.13905490559816L42.373988218307495,135.28222207152692L42.58008738279342,122.6654991615462L42.70374688148498,132.64982033939202L42.82740638017654,120.80193442433527L43.157165043354034,115.8870379479442L43.23960470914841,120.04624223991549L43.28082454204559,132.08852438360404L43.32204437494278,131.188872169159L43.569363372325896,134.4959183059045L43.61058320522309,131.55412816128472L43.857902202606205,139.28901062328782L44.02278153419494,146.871866029392L44.06400136709213,139.29608892961082L44.1464410328865,126.63091335168964L44.27010053157806,136.20978864510263L44.31132036447525,142.6148344514929L44.39376003026962,134.67981956288887L44.476199696064,136.96568829256532L44.72351869344712,133.60904143660073L44.97083769083024,151.9641673678898L45.42425585269928,133.13186619564965L45.54791535139084,124.42498674685626L45.91889384746552,129.7864244262227L46.289872343540196,152.48158891867226L46.413531842231755,136.67097667249212L46.45475167512893,152.5258598448073L46.57841117382049,156.9724160173848L46.660850839614874,184.8998610659505L46.70207067251205,155.38873251802914L46.74329050540924,147.3847054246935L46.82573017120361,139.81252579575863L46.90816983699799,150.02630183197795L47.1554888343811,167.42163699446718L47.27914833307266,152.57222431686174L47.40280783176422,163.0100308001879L47.89744582653045,149.01022302714716L48.927941648960115,124.53973351516511L48.9691614818573,120.84573437750474L49.051601147651674,108.85435745016707L49.17526064634323,111.52472946585041L49.50501930952072,118.2164422075546L49.79355813980103,114.51517412665356L49.999657304286956,104.65990988224132L50.288196134567265,107.25234304651924L50.61795479774475,146.90057738592898L50.74161429643631,138.29825698107342L50.782834129333494,117.68605107143337L51.11259279251099,114.54468309094067L51.23625229120255,125.63143483326668L51.318691956996915,129.66869604806288L51.359911789894106,122.65783239088232L51.483571288585665,117.93021200606609L51.52479112148285,126.66699866886421L52.019429116249086,131.63855133870095L52.18430844783783,130.49407984328343L52.47284727811813,114.19588892493518L52.76138610839844,123.7312563916967L52.84382577419281,116.53954432560587L52.88504560708999,113.84114149277174L52.96748527288437,117.19826608530036L53.25602410316467,124.99028857850853L53.62700259923935,123.11866723653787L53.66822243213654,109.52755003779428L53.997981095314024,117.51755280385069L54.16286042690277,106.57061057840812L54.575058755874636,113.71604231017496L54.822377753257754,103.66331523044346L54.9872570848465,98.57126089914813L55.15213641643524,107.99984678870004L55.19335624933243,107.1789029281224L55.2757959151268,99.2078266707211L55.44067524671554,88.33252938569866L55.52311491250992,75.07463131297024L55.64677441120148,66.9490023123249L55.72921407699585,69.04082814116684L55.81165374279022,70.02220836337113L55.93531324148178,78.14195731503925L56.14141240596771,77.6460737329968L56.4711710691452,82.38752253173932L56.51239090204239,77.43066595641436L56.677270233631134,69.45615698369103L57.62532639026642,120.6046813660103L58.32606354951859,94.62811292386156L58.49094288110733,91.85082416718956L58.532162714004514,114.70423335542873L58.77948171138763,104.78535513815541L58.94436104297638,86.74443081048422L59.56265853643418,118.4150015598195L59.85119736671447,93.48977317566117L59.892417199611664,98.56817240567646L60.3870551943779,112.48821321418427L60.42827502727509,89.72165305429168L60.6755940246582,82.41924507621965L60.71681385755539,90.68197759083631L60.75803369045258,128.80541692291882L61.99462867736816,112.98959217223138L62.11828817605972,103.6913192846728L62.40682700634003,103.59647148269443L62.53048650503159,70.80248003424904L62.86024516820907,80.37619014173238L63.025124499797826,88.8151678399096L63.06634433269501,101.9936758317911L63.10756416559219,113.41996373231194L63.272443497180944,142.19589488388917L63.43732282876969,119.25440720157764L63.84952115774154,80.19203060978342L64.09684015512467,94.9316431353321L64.42659881830215,95.20769397743014L64.46781865119934,95.22384252124748L64.71513764858246,100.74744430466804L64.92123681306839,140.26436570831086L65.12733597755431,118.12205725364028L65.16855581045151,146.083261860523L65.25099547624588,102.6401856146377L65.99295246839523,114.36885468945202L66.28149129867555,77.27483502307554L66.44637063026428,85.70420784007118L66.6936896276474,91.36402506863341L66.85856895923614,88.01605473822198L67.06466812372207,61.09568922248841L67.43564661979676,107.75806415015255L67.51808628559112,86.25290056603818L68.17760361194611,91.52263625558814L68.34248294353485,59.490970570292525L68.54858210802078,95.96708458224509L68.71346143960953,114.53757895810395L68.83712093830108,77.30251130336312L68.96078043699264,127.4822431493486L69.04322010278702,130.31824703930698L69.0844399356842,117.8308933567038L69.20809943437575,128.95818283099848L69.33175893306732,91.7653299913354L69.4141985988617,100.88025462488328L69.45541843175887,62.12532160364852L69.90883659362794,103.99562178465837L70.27981508970261,70.33671734453988L70.36225475549698,123.47075665875852L70.40347458839416,82.43342597713429L70.52713408708573,116.88272903614177L70.65079358577728,110.42271191787941L70.8981125831604,141.46359485963754L70.98055224895477,85.93296195008207L71.02177208185196,53.25541572511795L71.26909107923508,71.41814502867904L71.59884974241257,89.34986984023863L72.05226790428162,95.539955935194L72.58812573194503,51.95419317840581L72.7117852306366,46.06966659419491L72.75300506353379,22.288883674615043L73.12398355960846,71.32863779463712L73.28886289119721,44.481802356517925L73.33008272409438,21.363041354656755L73.41252238988876,14.403307005889516L73.65984138727188,10.325280820903675L73.74228105306626,50.45493512073262L73.86594055175782,31.718296244118125L73.98960005044938,27.78243480955526L74.15447938203812,17.77003781488779L74.56667771100997,12.261516220451949L74.64911737680436,63.709904911982726L74.73155704259872,82.18636360058986L74.81399670839309,50.68037418744143L75.06131570577621,89.09666645697197L75.1025355386734,55.12109342058935L75.30863470315933,34.457967131942155L75.34985453605651,22.07787587503538L75.84449253082275,75.49503411975442L76.38035035848618,60.187069976815366L76.5864495229721,44.591401518867585L76.6276693558693,21.369324960340588L76.79254868745804,14.485423557258121L76.9162081861496,23.254441621730642L76.95742801904677,29.513341818426948L77.03986768484116,33.29108678916079L77.28718668222427,21.569247035126995L77.41084618091583,40.90273132258918L77.69938501119613,33.08234938022936L77.8230445098877,44.66896328555386L77.98792384147644,88.88792246635424L78.35890233755113,47.99341417939285L78.81232049942017,92.36476836003835L78.89476016521454,56.977323833801144L78.93597999811172,92.33150527766013L79.10085932970047,102.67121552709729L80.74965264558793,70.06443489070973L80.7908724784851,57.16184847975119L81.4091699719429,56.33115883375563L82.35722612857819,42.5553698635143L82.97552362203598,46.561480151947116L83.26406245231628,64.55702186135872L83.34650211811066,40.3825436791975L83.38772195100785,32.69489781918401L83.59382111549378,21.274092161306775L83.75870044708252,36.306274555663606L84.08845911026002,23.364066800960167L84.17089877605439,15.765109142783865L84.21211860895157,16.958077494833624L84.25333844184875,19.121983902486242L84.29455827474594,6.127950973498617L84.41821777343749,12.090872490909803L84.50065743923187,1.8678959983210015L84.87163593530656,9.56440118739891L85.44871359586715,7.464502065012732L85.53115326166153,6.079703875560472L85.73725242614746,-1.7354734031386627L85.81969209194183,8.986267918727313L86.1906705880165,13.23389357828209L86.56164908409119,9.418962159077083L86.64408874988555,21.290014324147727L86.68530858278274,21.349062325433874L86.89140774726867,20.904714493845464L86.93262758016586,14.18999150872962L86.97384741306306,10.021581697734993L87.05628707885742,26.88516728699571L87.30360607624054,38.38832989244831L87.50970524072648,17.638697256311L87.7570242381096,32.24807805297412L87.88068373680115,27.594937259653033L88.08678290128708,45.5823527059865L88.25166223287583,35.732701044084514L88.3341018986702,22.8614604363823L88.41654156446457,74.44227944368073L88.54020106315612,82.19397436112254L88.66386056184768,57.82747787506286L88.9111795592308,29.30116433279569L88.99361922502518,76.91335979234456L89.03483905792235,47.377608826715935L89.11727872371674,87.54220771662865L89.36459772109986,66.84585267902408L89.40581755399704,91.60851400912738L89.44703738689424,108.15014910358792L89.69435638427736,73.24802724695785L89.73557621717453,45.503951161621835L89.98289521455764,35.03273091636845L90.1477745461464,22.51482734265486L90.31265387773513,14.892942561149509L90.80729187250137,17.353311724498774L90.88973153829575,59.8799184841407L91.17827036857605,44.24750428627975L91.26071003437042,27.827435450526615L91.3019298672676,38.49135981105752L91.71412819623947,24.460397307405223L91.83778769493104,29.24147898554645L92.08510669231416,18.979408417662768L92.12632652521134,13.060976757569932L92.5385248541832,23.672780463376345L92.62096451997758,15.880270681543008L92.66218435287475,29.919817516320137L92.74462401866913,19.51056843940495L92.86828351736068,19.94535688684678L93.23926201343536,27.200030641665165L93.65146034240722,10.964601810849091L93.7339000082016,20.85044629085998L93.81633967399598,14.136596299779995L94.10487850427627,10.08576849793896L94.26975783586502,31.143105480127137L94.43463716745377,26.6718560996938L94.47585700035096,17.545888263516915L94.59951649904251,12.211163455625119L94.68195616483689,14.992493181543972L94.92927516222001,34.624903266143725L95.13537432670593,29.415966088438438L95.42391315698623,19.091590142601095L95.54757265567778,19.56388787873398L96.4131891465187,13.362871422373795L96.61928831100464,9.739017855158652L97.23758580446243,7.285163732869675L97.27880563735961,5.394510234913876L97.36124530315399,18.77585685300737L97.40246513605118,19.130616563950817L97.60856430053711,20.093894593958023L97.6497841334343,13.216522088533424L97.77344363212585,9.403955472888736L97.81466346502305,7.310329686480348L97.9383229637146,56.37950897906595L98.47418079137802,42.74837324023567L98.5566204571724,84.34772481290521L98.59784029006958,52.155709236495326L98.68027995586395,32.68551638174384L98.76271962165832,80.0910303792159L98.8451592874527,49.60005224472353L98.92759895324707,90.79557430040248L99.50467661380767,55.9372915762763L99.66955594539643,48.560561751426775L99.79321544408799,44.18479025984166L99.83443527698518,21.180544383057438L99.91687494277954,27.906984376694798L99.99931460857391,39.32536195840724L100.0817542743683,46.88202509132472L100.12297410726546,50.008136776507534L100.20541377305985,24.666105156533668L100.41151293754578,41.140128849919705L100.57639226913453,26.404979462659874L101.11225009679794,23.99408006818434L101.60688809156417,15.939372973731274L101.77176742315292,4.192839334336804L101.97786658763886,17.819734585666662L102.10152608633041,24.995051882477917L102.80226324558258,16.72571717453079L102.88470291137695,11.619643421043811L102.92592274427415,1.5829928320955964L103.29690124034882,16.700712800207736L103.54422023773193,11.744873779546028L103.6266599035263,15.683772403024262L103.75031940221785,24.20089971832578L103.83275906801224,29.34491461310548L104.03885823249817,25.720150745278474L104.28617722988129,23.628693525382737L104.36861689567566,22.08317320502082L104.61593589305878,14.507238826072252L104.90447472333909,10.190353706679826L104.94569455623626,14.170116381910196L105.02813422203064,16.039935686727002L105.06935405492783,17.950921431546018L105.48155238389968,12.414675867044611L105.68765154838562,15.407615338644945L105.93497054576873,17.324654755173995L106.0586300444603,17.813401207843746L106.14106971025467,18.84478000859304L106.26472920894622,19.29568800088684L106.38838870763779,13.227427713496702L106.42960854053497,2.5344880769696534L106.75936720371246,23.717681086138917L107.08912586688996,22.28477198176489L107.2540051984787,28.60564477429537L107.37766469717025,18.725249944329686L107.54254402875901,19.703316371019486L107.5837638616562,26.356945335138473L107.62498369455336,17.18564301834424L107.91352252483368,4.905023494240054L108.1608415222168,10.964609162629579L108.40816051959992,14.159921988985793L108.7791390156746,10.115241996990964L108.86157868146896,21.4796723218516L109.10889767885207,14.316484423824832L109.43865634202957,29.772898182608934L109.93329433679581,19.37132404096733L109.974514169693,6.221913598850618L110.05695383548736,5.019756543940132L110.09817366838455,17.573475000920233L110.42793233156205,25.21168395198311L110.5515918302536,23.304969316332752L111.00500999212264,37.19998031715306L111.04622982501984,30.029769931197144L111.08744965791702,19.469841926665932L111.37598848819732,6.277685963559429L111.78818681716919,18.453605477691884L111.91184631586076,26.1266994264019L112.07672564744949,30.379634474457067L112.24160497903823,12.830239974346892L112.32404464483261,22.75638270570453L112.3652644777298,8.506272302058612L112.406484310627,13.348614632048111L112.48892397642135,29.59894697316964L112.90112230539323,12.376675530331992L113.02478180408478,22.040714996907663L113.47819996595382,34.66884973014674L113.8491784620285,15.455076972919784L113.93161812782287,17.537279924475683L114.01405779361725,12.019884357236652L114.05527762651444,8.584361976645013L114.09649745941162,6.67731903206003L114.22015695810317,5.728287737450477L114.34381645679474,-1.9516012940216096L114.42625612258911,7.092065348064952L114.4674759554863,5.957885094214852L114.63235528707504,11.883437300349414L114.96211395025253,22.612883691285905L115.3743122792244,8.15342334985734L115.58041144371032,13.1458079007134L115.6628511095047,9.35908058216902L115.74529077529908,14.08645605714622L115.951389939785,3.1033761836917133L116.52846760034562,3.112173469406971L116.61090726613998,17.003572752053987L116.8582262635231,18.50732671203015L116.94066592931748,18.7643158414919L116.98188576221466,12.772398760194447L117.35286425828933,15.976490925108097L117.60018325567245,10.784361073053997L117.64140308856965,14.59092312562681L117.88872208595276,9.994037403070559L118.30092041492462,7.6925501894618415L118.58945924520492,12.820451126351244L118.83677824258804,2.2840407526707143L118.87799807548524,3.077047829551574L118.96043774127959,19.436954963133388L119.08409723997116,13.367228281914327L119.16653690576554,9.636924001325877L119.29019640445709,0.36543453548625476L119.41385590314866,1.7874343018944814L119.53751540184021,2.7390499024940143L119.5787352347374,9.199073670977803L119.74361456632614,26.334568966144143L119.82605423212051,17.31911283308667L120.40313189268112,12.025974627573575L120.56801122426987,8.776359838908649L121.0626492190361,6.843543273271541L121.18630871772766,26.926029905513957L121.43362771511077,31.253492058136942L121.55728721380234,20.10690902097615L121.59850704669952,27.414388067472487L121.76338637828827,18.049341463177296L121.80460621118546,12.422640901645877L121.92826570987701,44.19124744441312L122.01070537567139,44.74460106217748L122.46412353754043,42.402761499569614L123.04120119810105,33.107089889146415L123.32974002838134,45.69670360734967L123.70071852445602,49.753632125071604L124.52511518239973,37.979118510165904L124.64877468109131,36.74752321410437L124.81365401268006,34.97549767932015L125.01975317716597,29.59790637992269L125.22585234165192,32.56663390081432L125.3082920074463,21.06984740355826L125.34951184034348,20.947257612457594L125.55561100482942,13.941450783150902L125.92658950090409,52.500270896801666L126.00902916669844,52.08266752299346L126.29756799697877,25.886903975592567L126.33878782987595,23.9598237458253L126.83342582464219,15.862821583108968L127.03952498912813,10.828464041258313L127.41050348520278,8.087849545122692L127.53416298389436,6.4508851795129525L127.86392164707185,18.57690500553199L127.90514147996902,19.70654587416982L127.98758114576339,20.144367745160093L128.0288009786606,13.590694223141991L128.23490014314652,2.7615291904821637L128.3173398089409,-3.752287812416068L128.6058786392212,-7.615106131918989L128.72953813791275,3.077124691248023L128.77075797080994,3.2820341875917394L129.59515462875368,3.5857710006368397L130.1310124564171,3.43777489478377L130.6668702840805,9.721021660514932L130.83174961566925,7.231286756626664L130.91418928146362,-1.0617259963617072L131.0378487801552,0.7464586588431389L131.2027281117439,20.835065278671376L131.3263876104355,20.588691008048258L131.40882727622986,27.4071510892309L132.35688343286515,31.992147165796705L132.68664209604262,26.663894790659256L132.97518092632293,30.302096166905617L133.59347841978072,19.40957783721814L134.0056767487526,27.570718346738552L134.04689658164978,31.59792559978849L134.12933624744414,20.192084944944522L134.2529957461357,13.596817532938735L134.2942155790329,9.725907795435127L134.3354354119301,7.182207053695312L134.74763374090193,21.67593220445809L135.32471140146257,7.654311033460236L135.44837090015412,25.29031015473263L135.53081056594849,23.948293850736896L135.69568989753722,16.021413100279474L135.98422872781754,11.174454300704216L136.02544856071472,8.158755910228995L136.52008655548096,20.76620969524387L136.56130638837814,13.323915188357832L136.84984521865846,2.614834491531805L136.93228488445283,-3.834618550266266L137.3444832134247,35.02076343103624L137.55058237791062,71.48259139329683L137.71546170949935,44.59677039438349L137.75668154239656,42.474011621497496L137.83912120819093,33.91584157808296L137.92156087398527,37.74550101623283L138.29253937005998,24.234315993749856L138.37497903585435,15.86846290905088L138.5398583674431,10.871744607235875L138.78717736482622,8.068278127915157L139.28181535959246,12.35381747043033L139.48791452407835,15.276940285949298L139.52913435697556,16.697285982440224L139.98255251884459,18.743614908426853L140.10621201753617,18.65942940364186L140.22987151622772,12.657771121698195L140.3123111820221,15.738035123438468L140.39475084781645,49.404065216781305L140.43597068071364,31.12058716201875L140.47719051361082,33.62826422878974L140.6420698451996,33.56398593948308L140.97182850837706,27.63200418274685L141.177927672863,38.0643516360561L141.4664665031433,24.027599290133054L141.67256566762924,28.172257100193594L142.33208299398422,18.319656809035802L142.82672098875045,5.669656185475787L143.07403998613358,4.2700486131184645L143.15647965192795,11.20115466475386L143.23891931772232,8.179290154997437L143.44501848220824,55.651661900490254L143.69233747959137,78.20629714131005L143.77477714538574,69.7556221789856L143.93965647697448,49.968581887867124L143.9808763098717,31.482581152046766L144.06331597566606,20.299716815393815L144.1869754743576,6.767828396276321L144.2281953072548,-1.3406134438762218L144.31063497304916,21.450032608716402L144.7640531349182,7.465915990858812L144.84649280071258,5.948736432871697L145.1350316309929,18.623469035793505L145.4235704612732,12.523673554655437L146.45406628370284,26.69308529354654L146.57772578239442,24.30581112951786L146.66016544818876,16.064005507854553L146.78382494688034,11.021859771455988L147.36090260744095,13.839325368775283L147.40212244033813,15.8638202514428L147.44334227323532,22.883763520030953L147.77310093641282,39.59014575720047L147.81432076931,44.91449079848836L147.97920010089877,28.595289196940257L148.30895876407624,18.233575697615063L148.3913984298706,19.381123846505638L148.4326182627678,13.06043459393475L148.59749759435653,15.822266856740352L148.6799372601509,25.94908325126018L148.84481659173966,17.114805896473413L149.2982347536087,23.633418049328995L149.42189425230026,21.6855244992786L149.46311408519745,7.670252200997803L149.586773583889,18.689230704471395L149.66921324968337,18.903472567007594L149.9165322470665,12.724325746320936L150.04019174575805,9.114384641848362L150.36995040893555,13.621457359137215L150.5348297405243,16.0517323973842L150.61726940631866,23.73052055943095L151.23556689977647,28.49383176104758L151.56532556295394,18.509357901801074L151.6889850616455,25.809608289413305L151.85386439323426,10.080647930026908L151.89508422613144,7.644672222967084L151.9775238919258,5.80671749834839L152.18362305641173,5.051906743562233L152.84314038276673,10.74055287115927L153.09045938014984,1.0707812831695451L153.2965585446358,-4.685227180701146L153.5026577091217,4.603289408482103L153.58509737491607,11.090839771397109L153.62631720781326,21.265672086476275L153.66753704071044,14.316678386560982L153.70875687360765,10.041685511096588L153.91485603809355,18.6250483240709L153.95607587099076,5.779359592265486L154.24461470127108,5.024304523411666L154.3682741999626,4.135491033773418L154.49193369865418,3.962206299434262L154.53315353155136,3.6282904588101386L154.57437336444855,3.6149308618693876L154.6980328631401,3.697393716086781L154.7392526960373,3.558345423352243L154.9453518605232,9.68520092998134L154.98657169342042,19.201777453316733L155.11023119211197,12.967306525305395L155.19267085790634,26.61011946558662L155.3163303565979,17.403173217155917L155.68730885267257,12.015863105647943L155.76974851846697,21.17500175285722L155.8521881842613,14.23904826097765L156.01706751585007,22.28097237272598L156.8002443408966,14.41865392120218L156.84146417379378,22.071738995956537L157.00634350538255,14.779487567281292L157.04756333827973,16.376542386143228L157.0887831711769,23.433449939414285L157.25366250276565,8.697271767713548L157.4597616672516,6.834151936538374L157.78952033042907,5.421028662831403L157.83074016332625,4.415193261194306L157.95439966201783,10.574923134731193L157.99561949491502,23.532349608874718L158.0368393278122,15.638876711041636L158.11927899360657,24.27297852982318L158.20171865940094,30.351490834224705L158.24293849229812,12.851918880575184L158.40781782388686,16.332513072636974L158.44903765678407,11.051274340094125L158.57269715547562,25.05215144834675L158.69635665416718,9.647804503898678L158.8612359857559,7.215760360864156L159.1909946489334,19.192250470638534L159.27343431472778,19.615015164068016L159.35587398052215,26.60437534781229L159.43831364631654,17.25989782481457L159.5207533121109,11.89265279257404L159.97417147397996,20.795550315897085L160.01539130687715,13.882695256792022L160.09783097267152,15.60286140249492L160.3863698029518,23.553855516571886L160.4688094687462,29.788930033617902L160.55124913454057,26.91381741793088L160.59246896743775,30.711499532372535L160.6749086332321,34.76433460287562L160.79856813192367,65.97632973031327L161.0458871293068,41.14616510166888L161.66418462276457,32.41719384977202L161.78784412145615,20.76492951456668L161.9939432859421,14.134252830296386L162.07638295173643,3.090497722574911L162.48858128070833,17.455971309674403L162.69468044519425,11.85002361676453L162.77712011098862,14.801143472415003L162.94199944257738,25.072080794815186L163.14809860706328,37.973007291625734L163.1893184399605,37.05958417911432L163.3954176044464,23.836745669092792L163.60151676893233,15.539606135030583L163.68395643472672,23.635938082058917L164.21981426239014,8.773547249558657L164.4259134268761,6.485894635505771L164.50835309267043,5.347746313028432L164.6732324242592,18.18920206741181L164.83811175584793,24.68658551738727L165.04421092033385,27.63258676017456L165.33274975061417,18.104729016739384L165.4976290822029,12.102190126487281L165.58006874799727,8.418447976078888L166.48690507173538,6.57356432327652L166.7342240691185,5.427506202461492L166.81666373491288,4.225479133722195L167.0227628993988,16.643701971481907L167.10520256519317,10.918865119852196L167.27008189678193,7.624117920493714L167.31130172967912,18.30912718489317L168.21813805341722,26.61069335112218L168.34179755210877,65.4990803419613L169.04253471136093,47.35783653102372L169.94937103509903,43.3710590237194L170.48522886276245,34.43550063562952L171.06230652332306,21.542860240879957L171.30962552070616,14.217784133966779L171.35084535360335,9.93830211210087L171.5157246851921,13.953662520217874L171.5569445180893,22.556414423964032L171.68060401678088,14.837579193559227L171.76304368257522,23.712570435295753L172.05158251285553,37.05038301912842L172.29890151023864,23.79221415118267L172.42256100893022,15.701277019739177L172.7110998392105,17.86133185761074L172.87597917079924,55.71324487465685L172.91719900369645,41.60637346824953L172.95841883659364,32.74782272702475L173.0820783352852,34.21315684474174L173.4118369984627,36.03768828257167L173.57671633005143,22.929339709278867L173.74159566164016,21.16432787434895L173.90647499322893,27.11229394506742L173.9476948261261,24.833076470639586L173.9889146590233,16.39967452952134L174.52477248668671,11.282291526313445L174.60721215248108,21.882840070622038L175.43160881042482,14.560573566077405L176.13234596967695,23.2805519527092L176.17356580257416,21.902206289263646L176.25600546836853,20.93646338546708L176.62698396444318,21.24909887999742L176.79186329603195,14.366666779251178L177.12162195920942,10.198342873266736L177.49260045528413,49.66503959001767L177.78113928556442,44.710275478729265L177.8635789513588,21.48333409857007L177.904798784256,21.20658693882294L178.1933376145363,30.61761901360485L178.27577728033066,26.49986441525342L178.39943677902224,23.41449013751106L178.60553594350813,22.11713950953756L179.47115243434905,14.536125077551528L179.5948119330406,23.143571433137158L179.84213093042374,36.41646142232525L180.00701026201247,23.581550378244145L180.17188959360124,31.225200343931572L180.37798875808716,20.15241027640401L180.46042842388152,25.8496901509726L180.58408792257308,29.612467903509227L181.24360524892808,40.65892473383285L181.82068290948868,25.8286371048528L181.94434240818023,17.127904385108813L182.7275192332268,11.739883913263576L182.80995889902115,8.595316899976291L183.05727789640426,50.437161603716596L183.09849772930144,45.8484782640689L183.13971756219865,28.882304434070857L183.3045968937874,25.493093561088617L183.38703655958176,23.37283128778678L183.67557538986208,22.321647763661232L184.08777371883392,29.173539698386094L184.12899355173113,12.185392215507862L184.37631254911423,21.74465971693779L184.4587522149086,14.485955464979916L184.54119188070297,17.380651232193305L184.95339020967484,11.944883493989748L185.15948937416078,8.539016781432725L185.73656703472136,20.32471227935609L186.2312050294876,6.9441158236608205L186.68462319135668,-1.1925738543264315L186.8082826900482,-6.022781409521231L187.55023968219757,11.617993202646405L187.79755867958067,8.315748200463396L187.92121817827226,20.21371577258945L187.96243801116944,28.80247632513312L188.20975700855254,32.67187047774971L188.3334165072441,21.08733746899612L188.6631751704216,26.712731587383352L188.74561483621596,28.641685647171503L188.9929338335991,18.860436075288703L189.03415366649628,12.80135928437045L189.07537349939346,48.287946701130394L189.40513216257096,30.32468900939641L189.65245115995407,68.97216962877302L189.69367099285125,42.70712284820531L189.85855032444002,69.67052979821102L190.64172714948654,36.435838812715986L190.88904614686967,23.222172849749516L190.93026597976686,15.148458421256153L191.13636514425278,16.651232767253347L191.21880481004715,18.8352047686084L191.30124447584151,12.858216105910504L191.3836841416359,9.291801569419505L191.46612380743028,6.760994978119307L191.5897833061218,5.633307766505649L191.71344280481338,46.54970404172145L192.12564113378525,29.418946559113248L192.290520465374,19.095093090576583L192.37296013116838,26.40972034471299L192.41417996406557,30.37569314022646L192.57905929565428,19.43696103556662L192.6202791285515,26.19719359439099L193.40345595359804,30.773584839426107L193.69199478387833,19.73207238200996L193.93931378126146,25.94808648302876L194.1041931128502,65.70397885690046L194.22785261154175,47.10673851733375L194.31029227733612,42.23303024974847L194.6812707734108,69.58349208726891L195.01102943658827,94.01635759082549L195.21712860107422,58.0459800858228L195.382007932663,47.84979408748992L195.5881070971489,29.72482018410754L195.67054676294327,19.413616968087773L195.75298642873764,25.86129015001549L196.08274509191511,30.73551281733262L196.12396492481233,26.386088728893814L196.33006408929825,65.73208737890396L196.37128392219543,40.937639243803986L196.41250375509262,26.158055566204265L196.4537235879898,17.01061221801688L196.53616325378417,26.406992748474014L196.82470208406448,17.3871147680717L196.90714174985885,32.62615251378007L197.1132409143448,71.88342142852379L197.52543924331664,44.46945334039448L197.56665907621382,21.37375256052863L197.6903185749054,14.02691024344054L197.77275824069977,3.0514612379160493L197.85519790649414,3.2395465590009254L197.89641773939132,2.943695232250753L198.34983590126038,16.361025235882792L198.47349539995193,11.200895096242544L198.5559350657463,20.496227526274108L198.8444738960266,13.611818169988299L199.00935322761535,9.490551515265476L199.05057306051253,49.646615518030785L199.29789205789564,31.394152072904767L199.38033172369003,26.62358035752833L199.58643088817598,17.049892184975572L199.87496971845627,4.813641141887696L199.95740938425064,-2.530798234282196L200.1222887158394,6.415495012236106L200.20472838163377,5.136690259476483L200.24594821453093,39.7278683247091L200.82302587509156,52.60221970457998L201.15278453826906,26.19840971948925L201.27644403696058,17.2003470376996L201.35888370275498,11.607309952538413L201.48254320144653,8.316461442099397L201.52376303434372,6.334189207190591L201.85352169752122,12.028034568396322L201.8947415304184,8.208963863992231L202.1832803606987,6.434561838700491L202.34815969228745,5.188238745959364L202.80157785415648,10.72897194208979L202.92523735284806,14.668565263264249L202.96645718574524,10.365833574562645L203.87329350948335,7.729697763692142L203.91451334238053,6.026057002906072L203.9969530081749,-1.7911699631146847L204.244272005558,0.15891871414499284L204.2854918384552,1.666119439868373L204.65647033452987,2.5045616682817955L204.78012983322142,14.971634804706996L204.9450091648102,17.660436152573542L205.1511083292961,11.99237653463103L205.56330665826798,8.20405749044666L205.7694058227539,6.326930393432831L205.89306532144548,19.426493110707586L206.0579446530342,19.63638297783986L206.22282398462295,13.283722344688163L206.26404381752013,22.847304774596548L206.75868181228637,15.209531252070729L207.6242983031273,3.810343520441946L208.07771646499634,31.601573860046695L208.36625529527666,13.610332550726376L208.57235445976258,22.616676721893306L208.94333295583723,29.264146898481606L209.108212287426,35.6525329092654L209.19065195322037,22.52026968068153L209.35553128480913,14.75044436423851L210.22114777565002,3.4504815544090603L210.2623676085472,3.222907975945682L210.3448072743416,10.648112913936076L210.38602710723876,1.195915808400826L210.83944526910784,-4.695370316676042L211.37530309677123,4.969781377374526L211.54018242835997,33.01768016114424L211.70506175994873,42.611170245160324L211.7875014257431,27.018701632913043L211.95238075733184,17.694966487412486L211.99360059022902,11.744781757456511L212.0348204231262,1.639922097066389L212.28213942050934,-4.38198360312245L212.61189808368684,5.064179957973481L213.23019557714463,19.688381585777595L213.2714154100418,26.50411080643013L213.72483357191086,17.322656410933774L214.09581206798555,5.0866585498779076L214.26069139957426,4.290722028735409L214.30191123247147,17.9496853221943L214.38435089826584,26.418144034985453L214.96142855882644,16.776185410037872L215.04386822462084,17.911741002522156L215.1263078904152,12.048014400390526L215.78582521677018,8.699890372995828L215.82704504966736,6.608250639964972L215.86826488256455,-1.4429296287980087L216.3216830444336,6.623669712298801L216.40412271022797,5.510861108921373L217.02242020368575,-2.0981408940166615L217.10485986948015,0.17120551834868317L217.31095903396607,13.501816909105903L217.68193753004073,22.665535081942682L217.8055970287323,14.783778305100007L217.8468168616295,16.72785380975311L217.92925652742386,18.586904404207957L218.50633418798446,5.753437822372048L218.79487301826478,4.868069152114788L219.5780498433113,4.406554150981961L219.66048950910567,4.1936247254535255L219.82536884069444,10.451629654491873L219.949028339386,14.681202703195009L219.99024817228317,10.240802084057606L220.1551275038719,7.72654574005557L220.40244650125504,19.766923798123386L220.44366633415223,6.465541151592962L220.60854566574096,5.236454043826639L220.64976549863815,4.359317372776736L220.77342499732973,17.724627098566646L220.8146448302269,18.48163324107336L220.93830432891846,12.396042640893937L221.39172249078752,8.403121417509205L221.59782165527344,6.572406843317599L221.721481153965,5.321326767626372L221.84514065265657,-2.191935243513309L221.9688001513481,6.739498851452987L222.17489931583404,5.599481951465955L222.38099848032,17.086076671327856L222.71075714349746,11.74020494921868L222.79319680929186,1.6570376923262555L222.87563647508622,8.464150507847435L223.12295547246933,11.839599785321017L223.2878348040581,14.28301935043398L223.61759346723557,23.40948175742156L224.07101162910462,28.43420240984361L224.27711079359057,25.54734942490071L224.4007702922821,23.094862151902163L224.60686945676804,28.730425609616237L224.64808928966522,25.077826783941752L224.7305289554596,9.81314209603304L224.85418845415117,13.42404517038018L224.89540828704833,30.13321512646953L224.9778479528427,26.0559038220536L225.55492561340333,17.092201940449158L225.76102477788928,11.49792464411507L226.09078344106675,8.495168647397021L226.17322310686112,6.414041587585288L226.33810243844985,5.053681612643667L226.5442016029358,4.3565067728640985L226.58542143583298,-2.707356803890471L226.66786110162735,6.716357944169475" fill="none"></path></g></g></g></g><g opacity="0.2"><g><g><g><path style="fill: none;" stroke="rgb(255, 112, 67)" stroke-width="2px" d="M20.60991644859314,122.93311626979856L20.774795780181886,110.10864701222208L21.022114777565005,163.67583762218226L21.104554443359373,160.1388841198184L21.310653607845307,88.25411515204783L21.59919243812561,162.06716653941325L21.805291602611543,126.0027787622401L21.887731268405915,131.02815666231078L22.217489931583405,167.7976295397513L22.341149430274964,195.55991309617036L22.382369263172148,192.79681403737516L22.506028761863707,163.73776325305835L22.794567592144013,226.83886818196518L22.877007257938384,161.2951891334758L22.91822709083557,146.55270302494216L23.330425419807437,172.672827818376L23.454084918498996,108.2744075001393L23.49530475139618,181.58902234166698L23.536524584293364,131.8569435257579L23.61896425008774,206.53867297897096L23.70140391588211,131.46515760037082L23.783843581676482,107.02678377517795L23.866283247470857,121.0666432044124L23.948722913265225,120.91430415914296L24.113602244853976,121.27845776506591L24.15482207775116,134.94131501662778L24.27848157644272,201.49156795304572L24.48458074092865,212.71384439932362L24.69067990541458,147.8599351529075L24.731899738311768,104.94143649433076L25.432636897563935,103.540011960281L25.556296396255494,119.50993948650277L25.638736062049865,181.87659115114303L25.721175727844237,189.81498195621506L25.803615393638612,120.07257736370747L25.844835226535796,107.85960710007976L26.133374056816102,115.28354840111544L26.25703355550766,198.40492076168502L26.298253388404845,113.12570261813343L26.58679221868515,163.48858235478258L26.79289138317108,171.2021273069741L26.83411121606827,170.24241291601479L27.0402103805542,110.99405230722535L27.49362854242325,167.21800696362743L28.318025200366975,152.57855859337823L28.524124364852906,120.06314234269416L28.647783863544465,182.85967715225325L29.801939184665677,110.0180840992563L29.884378850460052,129.8973660716753L30.090478014945987,126.4889148977603L30.214137513637546,110.99313039936224L30.708775508403775,219.14180129464197L30.832435007095334,117.10873494409212L30.91487467288971,181.4555035055667L31.2446333360672,198.37611737007043L31.450732500553134,144.17536011578085L31.491952333450314,130.98294164963784L31.533172166347505,148.71961838798273L31.574391999244693,144.26504264826477L32.23390932559967,171.85015378544446L32.687327487468714,142.48318577485355L32.728547320365905,151.73372554982743L32.852206819057464,140.80936653642576L32.893426651954655,122.51869792164625L33.140745649337774,127.26899844851202L33.22318531513214,176.17466576717973L33.55294397830963,130.05629966508258L33.67660347700119,139.72061826653797L33.923922474384305,160.62526941962594L34.50100013494492,127.62309412270338L34.624659633636476,137.21043757032837L34.78953896522522,158.45204189463985L34.83075879812241,152.9161263698438L34.91319846391678,134.42135898184156L35.242957127094265,133.92131947908874L35.284176959991456,112.5809464312823L35.65515545606613,112.02758577104228L35.77881495475769,120.27916777980343L36.479552114009856,134.43544506955158L36.52077194690705,107.80430923924648L36.56199177980423,123.35338167322675L36.97419010877609,185.14690564416603L37.139069440364835,173.9617380657468L37.42760827064514,152.13446477860572L37.63370743513107,134.340363977509L38.04590576410293,129.53745656411306L38.499323925971986,170.12882722290036L38.66420325756073,141.1180478665143L39.11762141942978,128.9156587796216L39.32372058391571,172.4700413103998L39.3649404168129,148.32424449685817L39.44738008260727,141.4410810595527L39.859578411579136,144.62907167204403L39.98323791027069,181.3323665147715L40.06567757606506,150.68512595210368L40.230556907653806,132.5422117597069L40.477875905036925,128.61368827433827L41.09617339849472,108.89473521533557L41.26105273008346,174.55159298860343L41.302272562980654,121.00643680711886L41.59081139326096,129.2177953944298L42.08544938802719,129.58934917968628L42.12666922092438,162.5690166359873L42.373988218307495,121.99697282042004L42.58008738279342,103.74041479657512L42.70374688148498,147.6263021061607L42.82740638017654,103.03010555175015L43.157165043354034,108.51469323335762L43.23960470914841,126.28504867787241L43.28082454204559,150.15194759913683L43.32204437494278,129.8393938474914L43.569363372325896,139.45648751102283L43.61058320522309,127.14144294435499L43.857902202606205,150.89133431629241L44.02278153419494,158.2461491385484L44.06400136709213,127.93242327993896L44.1464410328865,107.63314998480787L44.27010053157806,150.5781015852221L44.31132036447525,152.22240316107835L44.39376003026962,122.77729722998285L44.476199696064,140.39449138708L44.72351869344712,128.57407115265386L44.97083769083024,179.49685626482338L45.42425585269928,104.88341443728942L45.54791535139084,111.36466757366621L45.91889384746552,137.82858094527242L46.289872343540196,186.52433565734654L46.413531842231755,112.95505830322193L46.45475167512893,176.30818460328004L46.57841117382049,163.64225027625108L46.660850839614874,226.79102863879908L46.70207067251205,111.12203969614704L46.74329050540924,135.37866478469007L46.82573017120361,128.45425635235634L46.90816983699799,165.346965886307L47.1554888343811,193.514639738201L47.27914833307266,130.29810530045356L47.40280783176422,178.6667405251772L47.89744582653045,128.01051136758608L48.927941648960115,87.83399924719205L48.9691614818573,115.30473567101416L49.051601147651674,90.86729205916063L49.17526064634323,115.53028748937541L49.50501930952072,128.2540113201109L49.79355813980103,108.96327200530196L49.999657304286956,89.877013515623L50.288196134567265,111.14099279293612L50.61795479774475,206.37292889504354L50.74161429643631,125.39477637379008L50.782834129333494,86.76774220697331L51.11259279251099,109.83263112020158L51.23625229120255,142.26156244675576L51.318691956996915,135.7245878702572L51.359911789894106,112.14153690511147L51.483571288585665,110.8387814288417L51.52479112148285,139.7721786630614L52.019429116249086,139.0958803434561L52.18430844783783,128.77737260015718L52.47284727811813,89.74860254741283L52.76138610839844,138.034307591839L52.84382577419281,105.75197622646964L52.88504560708999,109.79353724352056L52.96748527288437,122.23395297409321L53.25602410316467,136.67832231832077L53.62700259923935,120.31123522358193L53.66822243213654,89.14087423967885L53.997981095314024,129.50255695293532L54.16286042690277,90.15019724024422L54.575058755874636,124.43418990782517L54.822377753257754,88.58422461084618L54.9872570848465,90.93317940220516L55.15213641643524,122.14272562302793L55.19335624933243,105.94748713725595L55.2757959151268,87.25121228461916L55.44067524671554,72.01958345816497L55.52311491250992,55.18778420387763L55.64677441120148,54.760558811356894L55.72921407699585,72.17856688442971L55.81165374279022,71.49427869667755L55.93531324148178,90.32158074254144L56.14141240596771,76.9022483599331L56.4711710691452,89.49969572985313L56.51239090204239,69.99538109342693L56.677270233631134,57.494393524606004L57.62532639026642,197.3274679394892L58.32606354951859,55.66326026063851L58.49094288110733,87.68489103218157L58.532162714004514,148.9843471377875L58.77948171138763,89.90703781224545L58.94436104297638,59.68304431897741L59.56265853643418,165.92085768382245L59.85119736671447,56.101930599423625L59.892417199611664,106.18577125069943L60.3870551943779,133.368274426946L60.42827502727509,55.57181281445274L60.6755940246582,71.46563310911164L60.71681385755539,103.0760763627613L60.75803369045258,185.9905759210426L61.99462867736816,89.26585504620023L62.11828817605972,89.74390995333489L62.40682700634003,103.45419977972686L62.53048650503159,21.611492861581013L62.86024516820907,94.73675530295739L63.025124499797826,101.47363438717537L63.06634433269501,121.76143781961336L63.10756416559219,130.55939558309325L63.272443497180944,185.359791611255L63.43732282876969,84.8421756781103L63.84952115774154,21.598465722092133L64.09684015512467,117.04106192365512L64.42659881830215,95.62177024057716L64.46781865119934,95.2480653369735L64.71513764858246,109.03284697979885L64.92123681306839,199.5397478137751L65.12733597755431,84.90859457163445L65.16855581045151,188.0250687708471L65.25099547624588,37.475571245809725L65.99295246839523,131.96185830167352L66.28149129867555,21.633805523510812L66.44637063026428,98.34826706556461L66.6936896276474,99.85375091147682L66.85856895923614,82.99409924260483L67.06466812372207,20.715140948888017L67.43564661979676,177.75162654164873L67.51808628559112,53.99515518986665L68.17760361194611,99.42723978991306L68.34248294353485,11.443472042349125L68.54858210802078,150.68125560017393L68.71346143960953,142.3933205218923L68.83712093830108,21.44990982125186L68.96078043699264,202.75184091832685L69.04322010278702,134.57225287424453L69.0844399356842,99.09986283279902L69.20809943437575,145.64911704244054L69.33175893306732,35.9760507318408L69.4141985988617,114.55264157520509L69.45541843175887,3.9929220717963725L69.90883659362794,166.80107205617313L70.27981508970261,19.848360684362177L70.36225475549698,203.17181563008646L70.40347458839416,20.877429954697906L70.52713408708573,168.55668362465292L70.65079358577728,100.7326862404859L70.8981125831604,188.02491927227473L70.98055224895477,2.6370125857488724L71.02177208185196,4.239096387671781L71.26909107923508,98.66223898402066L71.59884974241257,116.247457057578L72.05226790428162,104.82508507762704L72.58812573194503,-13.424450956776413L72.7117852306366,37.24287671787853L72.75300506353379,-13.382290704754725L73.12398355960846,144.8882689746702L73.28886289119721,4.211549199339125L73.33008272409438,-13.315100148135018L73.41252238988876,3.963705482738668L73.65984138727188,4.208241543424912L73.74228105306626,110.64941657047602L73.86594055175782,3.6133379291963834L73.98960005044938,21.878642657710913L74.15447938203812,2.7514423228866027L74.56667771100997,3.9987338287982L74.64911737680436,140.88248794927887L74.73155704259872,109.90105163350057L74.81399670839309,3.4213900677187725L75.06131570577621,146.72110486126775L75.1025355386734,4.1577338660154215L75.30863470315933,3.463277698971413L75.34985453605651,3.507738989675197L75.84449253082275,155.62077148683298L76.38035035848618,37.22512376240675L76.5864495229721,21.19789883194591L76.6276693558693,-13.463789877449921L76.79254868745804,4.159571452634434L76.9162081861496,36.40796871843945L76.95742801904677,38.90169211347136L77.03986768484116,38.95770424526162L77.28718668222427,3.986487404076266L77.41084618091583,69.90295775378249L77.69938501119613,21.3517764666896L77.8230445098877,62.048884143540626L77.98792384147644,155.2163612375548L78.35890233755113,-13.348348251049215L78.81232049942017,158.92179963100665L78.89476016521454,3.8961570444453253L78.93597999811172,145.36277744344866L79.10085932970047,118.180780901253L80.74965264558793,21.15426393612844L80.7908724784851,37.80796886331335L81.4091699719429,55.08512436476231L82.35722612857819,21.891686408152275L82.97552362203598,52.570645584596384L83.26406245231628,91.55033442547617L83.34650211811066,4.1208264059556585L83.38772195100785,21.163429029163805L83.59382111549378,4.1428836744909505L83.75870044708252,58.85454814719878L84.08845911026002,3.9507551689050393L84.17089877605439,4.366672655519413L84.21211860895157,18.747530022908265L84.25333844184875,22.367843513965184L84.29455827474594,-13.36309841998284L84.41821777343749,21.03525476702659L84.50065743923187,-13.46656874056216L84.87163593530656,21.109158971015727L85.44871359586715,4.3146533814335015L85.53115326166153,4.002506591382084L85.73725242614746,-13.458239321187316L85.81969209194183,25.068879901526284L86.1906705880165,19.605332067614228L86.56164908409119,3.6965650302695527L86.64408874988555,39.09659257175373L86.68530858278274,21.437634327363067L86.89140774726867,20.238192746462865L86.93262758016586,4.117907031055865L86.97384741306306,3.76896698124303L87.05628707885742,52.18054567088683L87.30360607624054,55.6430738006272L87.50970524072648,-13.48575169789495L87.7570242381096,54.162149247968834L87.88068373680115,20.615226069671383L88.08678290128708,72.56347587548672L88.25166223287583,20.95822355123154L88.3341018986702,3.554599524828994L88.41654156446457,151.81350795462836L88.54020106315612,93.82151673728528L88.66386056184768,21.277733145973365L88.9111795592308,-13.488305980605114L88.99361922502518,148.3316529816679L89.03483905792235,3.0739823782730085L89.11727872371674,147.78910605149773L89.36459772109986,35.80132012261722L89.40581755399704,128.7525060042823L89.44703738689424,132.96260174527873L89.69435638427736,20.89484446201274L89.73557621717453,3.887837033617798L89.98289521455764,19.325900548488363L90.1477745461464,3.7379719820845496L90.31265387773513,3.460115388891469L90.80729187250137,21.043865469522675L90.88973153829575,123.66982862360355L91.17827036857605,20.79888298948831L91.26071003437042,3.197332196896912L91.3019298672676,54.48724635185388L91.71412819623947,3.4139535519267104L91.83778769493104,36.413101502758316L92.08510669231416,3.586302565837277L92.12632652521134,4.1833292674307L92.5385248541832,39.59048602208594L92.62096451997758,4.1915060087930405L92.66218435287475,50.979137768485806L92.74462401866913,3.8966948240321413L92.86828351736068,20.597539558009558L93.23926201343536,38.0820412738927L93.65146034240722,-13.388541435374984L93.7339000082016,35.67921301087634L93.81633967399598,4.065821313159997L94.10487850427627,4.009526795177416L94.26975783586502,62.729110953409425L94.43463716745377,19.96498202904382L94.47585700035096,3.856936509251584L94.59951649904251,4.209076243787437L94.68195616483689,19.16448777042222L94.92927516222001,64.07351839304337L95.13537432670593,21.60256032188046L95.42391315698623,3.6050262238450883L95.54757265567778,20.27233448293334L96.4131891465187,4.06134673783348L96.61928831100464,4.303237504335966L97.23758580446243,3.604382549436179L97.27880563735961,2.55852998798015L97.36124530315399,38.84787678014764L97.40246513605118,19.662756130366L97.60856430053711,21.538811638968802L97.6497841334343,2.9004633303965432L97.77344363212585,3.6851055494217353L97.81466346502305,4.169891006867746L97.9383229637146,129.98327791794438L98.47418079137802,22.301669631990247L98.5566204571724,146.74675217190955L98.59784029006958,3.867685871880517L98.68027995586395,3.4802270996165734L98.76271962165832,151.19930137542397L98.8451592874527,3.8635850429849987L98.92759895324707,152.58885738392092L99.50467661380767,3.649867490087041L99.66955594539643,37.495467014152496L99.79321544408799,37.621133022463994L99.83443527698518,-13.325824432118912L99.91687494277954,37.99664436715077L99.99931460857391,56.45292833097593L100.0817542743683,58.21701979070097L100.12297410726546,54.697304304281765L100.20541377305985,-13.346942273427146L100.41151293754578,65.8511643899988L100.57639226913453,4.302255381770109L101.11225009679794,20.37773097647108L101.60688809156417,3.8573123320516265L101.77176742315292,-13.426961124754893L101.97786658763886,38.26007746266143L102.10152608633041,35.758027827694804L102.80226324558258,4.321715112610052L102.88470291137695,3.96053279081341L102.92592274427415,-13.471983051326774L103.29690124034882,39.37729275237591L103.54422023773193,4.311115248553515L103.6266599035263,21.592120338241614L103.75031940221785,36.97659069127802L103.83275906801224,37.06093695527506L104.03885823249817,20.283004943537957L104.28617722988129,20.491507695539138L104.36861689567566,19.76489272447794L104.61593589305878,3.1433372576494385L104.90447472333909,3.715026027591135L104.94569455623626,20.139760394755793L105.02813422203064,18.844664643952186L105.06935405492783,20.81740004877455L105.48155238389968,4.110307520292499L105.68765154838562,19.897024546045465L105.93497054576873,20.200213879967617L106.0586300444603,18.546520886848338L106.14106971025467,20.391848209716994L106.26472920894622,19.97204998932756L106.38838870763779,4.125037282411416L106.42960854053497,-13.50492137782084L106.75936720371246,55.492470599892776L107.08912586688996,20.13540832520389L107.2540051984787,38.086953963091084L107.37766469717025,3.9046576993811732L107.54254402875901,21.17041601105417L107.5837638616562,36.33738878131701L107.62498369455336,3.428689543152817L107.91352252483368,-13.515905791916149L108.1608415222168,20.05398766521383L108.40816051959992,18.952891228520112L108.7791390156746,4.048222008998719L108.86157868146896,38.5263178091426L109.10889767885207,3.5717025767846766L109.43865634202957,52.957518820785104L109.93329433679581,3.768962828504924L109.974514169693,-13.50220206432441L110.05695383548736,3.2165209615743944L110.09817366838455,36.40405268639036L110.42793233156205,36.66899737857743L110.5515918302536,20.44489736285719L111.00500999212264,58.042496818383505L111.04622982501984,19.27445435226328L111.08744965791702,3.6299499198691465L111.37598848819732,-13.510547981100299L111.78818681716919,36.71748474889055L111.91184631586076,37.63634034946696L112.07672564744949,36.75903704653982L112.24160497903823,-13.493851775818342L112.32404464483261,37.64559680274102L112.3652644777298,-12.868893303410237L112.406484310627,20.61212812703233L112.48892397642135,53.97444548485197L112.90112230539323,-13.456731633924536L113.02478180408478,36.53677419677121L113.47819996595382,53.61105183000533L113.8491784620285,-13.365582162920632L113.93161812782287,20.660584351809522L114.01405779361725,3.7437910063780775L114.05527762651444,3.431078405757534L114.09649745941162,3.8167546151825755L114.22015695810317,4.304740795536156L114.34381645679474,-13.471434841229758L114.42625612258911,20.657565311194784L114.4674759554863,4.256614713439663L114.63235528707504,20.771765609551295L114.96211395025253,38.70705327769065L115.3743122792244,-13.535767162285511L115.58041144371032,20.63438472699747L115.6628511095047,3.678989604352479L115.74529077529908,21.177519269611942L115.951389939785,-13.371243626490056L116.52846760034562,3.125369397979838L116.61090726613998,37.84067167602452L116.8582262635231,20.7629576519944L116.94066592931748,19.149799535684505L116.98188576221466,3.78452313824826L117.35286425828933,20.782629172478593L117.60018325567245,2.9961662949728876L117.64140308856965,20.30076620448599L117.88872208595276,3.0987088192362426L118.30092041492462,4.240319369048725L118.58945924520492,20.512302531685307L118.83677824258804,-13.52057480785011L118.87799807548524,4.266558444872933L118.96043774127959,43.9768156635061L119.08409723997116,4.262638260085695L119.16653690576554,4.041467580443191L119.29019640445709,-13.541799663273128L119.41385590314866,3.920433951506861L119.53751540184021,4.166473303393294L119.5787352347374,18.889109323703465L119.74361456632614,52.03781190889368L119.82605423212051,3.79592863350048L120.40313189268112,4.086267319303924L120.56801122426987,3.9019376559112278L121.0626492190361,3.94431842481585L121.18630871772766,57.04975985387761L121.43362771511077,37.744685287071356L121.55728721380234,3.3870344652350317L121.59850704669952,38.375606637217L121.76338637828827,4.001771556734484L121.80460621118546,3.982590059348702L121.92826570987701,91.84415725856402L122.01070537567139,45.57463148882406L122.46412353754043,38.89000215565777L123.04120119810105,19.163582473511614L123.32974002838134,64.58112418465458L123.70071852445602,55.83902490165447L124.52511518239973,20.31734808780734L124.64877468109131,34.90013027001204L124.81365401268006,32.31745937714384L125.01975317716597,21.531519430826478L125.22585234165192,37.01972518215181L125.3082920074463,3.824667657674155L125.34951184034348,20.76337292580662L125.55561100482942,3.432740539190883L125.92658950090409,110.33850106727779L126.00902916669844,51.45626246228115L126.29756799697877,-13.406741345508783L126.33878782987595,21.069203401174384L126.83342582464219,3.717318339034523L127.03952498912813,3.2769277284823404L127.41050348520278,3.9769278009192903L127.53416298389436,3.9954386310983443L127.86392164707185,36.765934744560546L127.90514147996902,21.401007177126548L127.98758114576339,20.80110055164549L128.0288009786606,3.760183940114895L128.23490014314652,-13.482218358507597L128.6058786392212,-13.409333611173333L128.72953813791275,19.11547092599854L128.77075797080994,3.5893984321072847L129.59515462875368,4.041376220204519L130.1310124564171,3.215780736004136L130.6668702840805,19.145891809111664L130.83174961566925,3.4966844007942837L130.91418928146362,-13.501245125844205L131.0378487801552,3.458735641650428L131.2027281117439,50.96797520841374L131.3263876104355,20.219129602113576L131.40882727622986,37.6348412110049L132.35688343286515,38.869641280645325L132.68664209604262,18.671516227953123L132.97518092632293,35.75939823127508L133.59347841978072,3.0708003426869666L134.0056767487526,39.812429111019135L134.04689658164978,37.63873647936338L134.12933624744414,3.08332396267857L134.2529957461357,3.703916414930112L134.2942155790329,3.9195431891796755L134.3354354119301,3.3666559410855723L134.74763374090193,43.41651993060224L135.32471140146257,-13.378120723036503L135.44837090015412,51.74430883664123L135.53081056594849,21.935269394743234L135.69568989753722,4.131091974593374L135.98422872781754,3.9040161013413073L136.02544856071472,3.6352083245161855L136.52008655548096,39.677390372766176L136.56130638837814,2.160473428028732L136.84984521865846,-13.448786553707214L136.93228488445283,-13.508798112963314L137.3444832134247,93.30383640298996L137.55058237791062,126.17533333668771L137.71546170949935,4.2680388960134295L137.75668154239656,39.28987346216853L137.83912120819093,21.078586512961166L137.92156087398527,43.489990173457635L138.29253937005998,3.96753846002532L138.37497903585435,3.3196832820024738L138.5398583674431,3.37666715451331L138.78717736482622,3.8630784089341077L139.28181535959246,18.782126484203093L139.48791452407835,19.661624509227746L139.52913435697556,18.827804527176635L139.98255251884459,21.813108297406757L140.10621201753617,18.533151146464384L140.22987151622772,3.6552836987827275L140.3123111820221,20.358431126048828L140.39475084781645,99.90311035679555L140.43597068071364,3.6953700798749183L140.47719051361082,37.38977982894622L140.6420698451996,33.46756850552311L140.97182850837706,18.734031547642523L141.177927672863,53.712872816019996L141.4664665031433,2.9724707712484313L141.67256566762924,34.38924381528439L142.33208299398422,3.5407563722991164L142.82672098875045,-13.305344749864265L143.07403998613358,2.17063725458246L143.15647965192795,21.597813742206952L143.23891931772232,3.646493390362872L143.44501848220824,126.86021951872945L143.69233747959137,112.03825000253973L143.77477714538574,57.07960973549895L143.93965647697448,20.288021451189394L143.9808763098717,3.7535800483162944L144.06331597566606,3.5254203104143644L144.1869754743576,-13.530004232399902L144.2281953072548,-13.503276204105095L144.31063497304916,55.63600168760535L144.7640531349182,-13.510258935927542L144.84649280071258,3.6729670958909773L145.1350316309929,37.635567940176244L145.4235704612732,3.3739803329483524L146.45406628370284,47.94720290188315L146.57772578239442,20.72489988347484L146.66016544818876,3.701297075359622L146.78382494688034,3.4586411668581416L147.36090260744095,18.065523764754182L147.40212244033813,18.900562575444095L147.44334227323532,33.41367842291319L147.77310093641282,64.6497191129547L147.81432076931,52.901008360420185L147.97920010089877,4.116486794618115L148.30895876407624,2.691005448627283L148.3913984298706,21.102446069841438L148.4326182627678,3.579400715078436L148.59749759435653,19.965015250948806L148.6799372601509,41.13930784303991L148.84481659173966,3.863389864293257L149.2982347536087,33.411336278612374L149.42189425230026,18.763684174203057L149.46311408519745,-13.352656246423493L149.586773583889,35.2176984596818L149.66921324968337,19.224835360811912L149.9165322470665,3.4556055152909204L150.04019174575805,3.6994729851395194L150.36995040893555,20.3820664350705L150.5348297405243,19.697144954754727L150.61726940631866,35.248702802501064L151.23556689977647,35.63879856347249L151.56532556295394,3.5326471129312833L151.6889850616455,36.75998387083164L151.85386439323426,-13.512792609052616L151.89508422613144,3.9907086623773185L151.9775238919258,3.0497854114203187L152.18362305641173,3.919690611383008L152.84314038276673,19.273522062554875L153.09045938014984,-13.433876098815052L153.2965585446358,-13.319239876507192L153.5026577091217,18.536064292257006L153.58509737491607,20.82216531576961L153.62631720781326,36.527920559094994L153.66753704071044,3.8931878366880603L153.70875687360765,3.6291961978999794L153.91485603809355,31.500092543532332L153.95607587099076,-13.489173505442622L154.24461470127108,3.891721920130965L154.3682741999626,2.8022707993160263L154.49193369865418,3.7022791979254994L154.53315353155136,3.1274166978740126L154.57437336444855,3.594891466458222L154.6980328631401,3.821087997412949L154.7392526960373,3.3497729842503676L154.9453518605232,18.875484189925004L154.98657169342042,33.476642238319805L155.11023119211197,3.615600133288378L155.19267085790634,47.07433887600849L155.3163303565979,3.592753844509887L155.68730885267257,3.9348979383859746L155.76974851846697,34.913709723671154L155.8521881842613,3.8351180231582966L156.01706751585007,34.34385854034845L156.8002443408966,2.625176243916481L156.84146417379378,33.551366608088045L157.00634350538255,3.841110424268425L157.04756333827973,18.772124614436137L157.0887831711769,34.01881126932088L157.25366250276565,-13.406995489837533L157.4597616672516,4.039472189775552L157.78952033042907,3.3013437522709568L157.83074016332625,2.906440158738699L157.95439966201783,19.814517945036474L157.99561949491502,42.96848932009003L158.0368393278122,3.7986673642919726L158.11927899360657,37.22413125799558L158.20171865940094,39.46925929082691L158.24293849229812,-13.397439049899075L158.40781782388686,21.5534043607297L158.44903765678407,3.1294162412797784L158.57269715547562,46.05346711072569L158.69635665416718,-13.458715912773348L158.8612359857559,3.5676941463123617L159.1909946489334,37.156985635300074L159.27343431472778,20.249162204212276L159.35587398052215,37.0884156234287L159.43831364631654,3.2431815403179893L159.5207533121109,3.8417852442132587L159.97417147397996,34.149896600881654L160.01539130687715,3.513412668134455L160.09783097267152,18.18311062104922L160.3863698029518,35.48034668768738L160.4688094687462,39.14154180918686L160.55124913454057,22.60114849440032L160.59246896743775,36.40802270403505L160.6749086332321,40.84358720863028L160.79856813192367,112.79432242146972L161.0458871293068,3.9009181587022566L161.66418462276457,19.323736971926763L161.78784412145615,3.2865330117586424L161.9939432859421,4.188237803890984L162.07638295173643,-13.475134939007322L162.48858128070833,39.00418169032365L162.69468044519425,3.4411020773996497L162.77712011098862,19.227823255890744L162.94199944257738,40.47848677841548L163.14809860706328,57.324397036841575L163.1893184399605,35.68944951034719L163.3954176044464,4.002487904060538L163.60151676893233,3.093896833937308L163.68395643472672,35.78043600260142L164.21981426239014,-13.520038999191742L164.4259134268761,3.054415714426401L164.50835309267043,3.640523829312417L164.6732324242592,37.45138569898688L164.83811175584793,34.43266069235047L165.04421092033385,32.051588624355546L165.33274975061417,3.812942401586534L165.4976290822029,3.0983817911091407L165.58006874799727,2.892834750466334L166.48690507173538,3.8062388440730093L166.7342240691185,3.70841902123896L166.81666373491288,2.4224385306132485L167.0227628993988,35.27103622812145L167.10520256519317,2.3316098424076683L167.27008189678193,2.6819971214560323L167.31130172967912,34.33664108149234L168.21813805341722,39.06304260046566L168.34179755210877,123.83166082822002L169.04253471136093,20.145970814617336L169.94937103509903,37.39089276276292L170.48522886276245,21.032163053494727L171.06230652332306,2.2038996487555926L171.30962552070616,3.2301699735970617L171.35084535360335,3.519079079301993L171.5157246851921,19.976703132393336L171.5569445180893,35.4605422795833L171.68060401678088,3.259326347952019L171.76304368257522,37.025057297900524L172.05158251285553,57.057101894877405L172.29890151023864,3.9049608492640906L172.42256100893022,3.564871322573898L172.7110998392105,21.10141411441811L172.87597917079924,112.49111440022601L172.91719900369645,20.44606635863854L172.95841883659364,19.459996615187627L173.0820783352852,36.41115802131719L173.4118369984627,38.77448543931658L173.57671633005143,3.266816849339659L173.74159566164016,18.5168101219541L173.90647499322893,36.03424305114514L173.9476948261261,21.41425025899778L173.9889146590233,3.7495716178439795L174.52477248668671,3.6062170215015965L174.60721215248108,37.78366288708497L175.43160881042482,3.5771738092604726L176.13234596967695,36.36051953265685L176.17356580257416,19.834687794095306L176.25600546836853,19.487849029772242L176.62698396444318,21.718052121792933L176.79186329603195,4.043018628131789L177.12162195920942,3.94585701429007L177.49260045528413,108.86508466514411L177.78113928556442,37.27812931179665L177.8635789513588,-13.357077971668753L177.904798784256,20.791466199202304L178.1933376145363,44.734167125777674L178.27577728033066,20.32323251772629L178.39943677902224,18.786428720897543L178.60553594350813,20.17111356757732L179.47115243434905,3.164603429572469L179.5948119330406,36.0547409665156L179.84213093042374,56.32579640610736L180.00701026201247,4.3291838121225705L180.17188959360124,42.6906752924627L180.37798875808716,3.5432251751126795L180.46042842388152,34.395609962825496L180.58408792257308,35.25663453231417L181.24360524892808,57.22860997931826L181.82068290948868,3.5832056613827574L181.94434240818023,4.0768053054928295L182.7275192332268,3.657853205495746L182.80995889902115,3.878466380045375L183.05727789640426,113.19992865932703L183.09849772930144,38.96545325459738L183.13971756219865,3.4330436890738003L183.3045968937874,20.40927725161527L183.38703655958176,20.192437877834053L183.67557538986208,20.744872477472864L184.08777371883392,39.45137760047334L184.12899355173113,-13.296829008809436L184.37631254911423,36.083560969082654L184.4587522149086,3.5978990870431127L184.54119188070297,21.722694883013393L184.95339020967484,3.7912318866844417L185.15948937416078,3.4302167125972103L185.73656703472136,38.00325552624108L186.2312050294876,-13.12677885988211L186.8082826900482,-13.268092742313431L187.55023968219757,38.07915512089787L187.79755867958067,3.3623806971889225L187.92121817827226,38.06066713077849L187.96243801116944,41.685617153948684L188.20975700855254,38.47596170667457L188.3334165072441,3.710537955865728L188.6631751704216,35.150822764964225L188.74561483621596,31.535116736853738L188.9929338335991,4.188561717464491L189.03415366649628,3.712744097993062L189.07537349939346,101.51782782627028L189.40513216257096,3.379802471795475L189.65245115995407,126.94339055783796L189.69367099285125,3.309552677353733L189.85855032444002,110.11564022321961L190.64172714948654,-13.416197665526623L190.88904614686967,3.401673905299789L190.93026597976686,3.037886778516097L191.13636514425278,18.90539428624911L191.21880481004715,22.111162770640973L191.30124447584151,3.8927331118636843L191.3836841416359,3.9421797646830035L191.46612380743028,2.9647850911690496L191.5897833061218,3.941776949085162L191.71344280481338,107.92429845454512L192.12564113378525,3.722810335200929L192.290520465374,3.6093128877715843L192.37296013116838,37.3816612259176L192.41417996406557,36.324652333496665L192.57905929565428,3.028862878576874L192.6202791285515,36.33754243262753L193.40345595359804,37.63817170697878L193.69199478387833,3.1698036958858236L193.93931378126146,35.27210763455696L194.1041931128502,125.337817417708L194.22785261154175,19.210878007983688L194.31029227733612,34.92246784837057L194.6812707734108,110.60918484354956L195.01102943658827,130.66565584616038L195.21712860107422,4.0904138283187885L195.382007932663,32.555515089990635L195.5881070971489,2.5373593290339174L195.67054676294327,3.9468121440581485L195.75298642873764,35.53279992290706L196.08274509191511,38.04684681830828L196.12396492481233,19.86195259623565L196.33006408929825,124.75108535391914L196.37128392219543,3.745967041154038L196.41250375509262,3.9886800498047106L196.4537235879898,3.2894471957357982L196.53616325378417,40.501563544159744L196.82470208406448,3.8572977974682052L196.90714174985885,55.48470913234265L197.1132409143448,130.76932480063934L197.52543924331664,3.3485012082004824L197.56665907621382,-13.26979860927011L197.6903185749054,3.0066467678084225L197.77275824069977,-13.411712270370687L197.85519790649414,3.5216745406282786L197.89641773939132,2.4999182421254837L198.34983590126038,36.48702024133087L198.47349539995193,3.460699886782143L198.5559350657463,34.439226171321444L198.8444738960266,3.2852041355595847L199.00935322761535,3.3086515331812527L199.05057306051253,109.88071152217873L199.29789205789564,4.015456905215713L199.38033172369003,19.467722784463696L199.58643088817598,2.6893599261464183L199.87496971845627,-13.540735422744142L199.95740938425064,-13.547457298537074L200.1222887158394,19.83493488201356L200.20472838163377,3.218483130337066L200.24594821453093,91.61463542255807L200.82302587509156,71.9137467743863L201.15278453826906,-13.407305258146838L201.27644403696058,3.7032530150151244L201.35888370275498,3.217754324796654L201.48254320144653,3.3801886764408122L201.52376303434372,3.3607808548274036L201.85352169752122,20.568802610204926L201.8947415304184,2.4803578073860653L202.1832803606987,3.772958800762861L202.34815969228745,3.3187541068476625L202.80157785415648,19.04007173628547L202.92523735284806,20.577955245025937L202.96645718574524,3.9117360415102085L203.87329350948335,3.77549404738638L203.91451334238053,3.470595861727004L203.9969530081749,-13.5170104121458L204.244272005558,3.0840517300344503L204.2854918384552,3.9269205284535023L204.65647033452987,3.7622250109018807L204.78012983322142,33.67224450934481L204.9450091648102,21.693638174373362L205.1511083292961,3.4902871077172515L205.56330665826798,2.5215789241701234L205.7694058227539,3.5112397479120894L205.89306532144548,39.07583718661972L206.0579446530342,19.951217778538275L206.22282398462295,3.754731394960626L206.26404381752013,37.19267841945913L206.75868181228637,3.752870968281961L207.6242983031273,-13.28843807700118L208.07771646499634,73.28841936945378L208.36625529527666,-13.376529413254072L208.57235445976258,36.12619297864368L208.94333295583723,39.23535216336406L209.108212287426,45.23511192544112L209.19065195322037,2.8218748378057277L209.35553128480913,3.09570638957399L210.22114777565002,-13.499462660335112L210.2623676085472,2.881547608250585L210.3448072743416,21.785920320921658L210.38602710723876,-12.982379849902001L210.83944526910784,-13.532299504291345L211.37530309677123,19.467508918450427L211.54018242835997,75.08952833679881L211.70506175994873,57.001405371184404L211.7875014257431,3.6299987145420674L211.95238075733184,3.7093637691617234L211.99360059022902,2.819504662522557L212.0348204231262,-13.517367393518775L212.28213942050934,-13.414842153405708L212.61189808368684,19.233425299617387L213.23019557714463,41.62468402748377L213.2714154100418,36.72770463740891L213.72483357191086,3.5504748176892518L214.09581206798555,-13.267338241705884L214.26069139957426,3.0968172470216526L214.30191123247147,38.43813026238265L214.38435089826584,39.12083210417217L214.96142855882644,2.3132474726164785L215.04386822462084,19.615074391248566L215.1263078904152,3.252424497193158L215.78582521677018,3.677704331903704L215.82704504966736,3.4707910404187454L215.86826488256455,-13.519700031942529L216.3216830444336,18.723568723944005L216.40412271022797,3.8416482038552404L217.02242020368575,-13.511643898423713L217.10485986948015,3.57522513689671L217.31095903396607,33.497733995241724L217.68193753004073,36.41111234119784L217.8055970287323,2.9611431398359938L217.8468168616295,19.643967066732763L217.92925652742386,21.375480295890288L218.50633418798446,-13.496762050381856L218.79487301826478,3.5400161467288584L219.5780498433113,3.7142816492827704L219.66048950910567,3.874230587160882L219.82536884069444,19.83863704804938L219.949028339386,21.025562276249723L219.99024817228317,3.5802011553514617L220.1551275038719,3.955161224052538L220.40244650125504,37.82749088522512L220.44366633415223,-13.486532818202724L220.60854566574096,3.3928233821771663L220.64976549863815,3.0436123662018897L220.77342499732973,37.77259168725157L220.8146448302269,19.617142454833353L220.93830432891846,3.2676567406248607L221.39172249078752,2.413739582432065L221.59782165527344,3.8263349820301613L221.721481153965,3.444706654089592L221.84514065265657,-13.461828260222791L221.9688001513481,20.136649993902385L222.17489931583404,3.8894566014853957L222.38099848032,34.31596875112074L222.71075714349746,3.7213973660549L222.79319680929186,-13.467713193012381L222.87563647508622,18.67481973112921L223.12295547246933,16.90277370153139L223.2878348040581,17.948148698103374L223.61759346723557,37.099175367902944L224.07101162910462,35.97128338847668L224.27711079359057,21.21706994748638L224.4007702922821,19.41613124240436L224.60686945676804,37.18377079618731L224.64808928966522,19.598928545430027L224.7305289554596,-13.08388493582998L224.85418845415117,18.84039978190083L224.89540828704833,55.19697006060362L224.9778479528427,19.939936865429715L225.55492561340333,3.6466491180424563L225.76102477788928,3.1065086996139892L226.09078344106675,3.9910346523199087L226.17322310686112,3.2923509978676586L226.33810243844985,3.0131416502313155L226.5442016029358,3.3107445131947535L226.58542143583298,-13.303152169022335L226.66786110162735,20.851930066259424" fill="none"></path></g></g></g></g></g></g><g transform="translate(82, 176)" clip-path="url(#clip_1)"><clipPath id="clip_1"><rect width="247" height="23"></rect></clipPath><g><g><line x1="0" y1="0" x2="0" y2="5" style="visibility: inherit;" fill="rgb(0, 0, 0)" stroke="rgb(204, 204, 204)" stroke-width="1px"></line><line x1="20.60991644859314" y1="0" x2="20.60991644859314" y2="5" style="visibility: inherit;" fill="rgb(0, 0, 0)" stroke="rgb(204, 204, 204)" stroke-width="1px"></line><line x1="41.21983289718628" y1="0" x2="41.21983289718628" y2="5" style="visibility: inherit;" fill="rgb(0, 0, 0)" stroke="rgb(204, 204, 204)" stroke-width="1px"></line><line x1="61.82974934577942" y1="0" x2="61.82974934577942" y2="5" style="visibility: inherit;" fill="rgb(0, 0, 0)" stroke="rgb(204, 204, 204)" stroke-width="1px"></line><line x1="82.43966579437256" y1="0" x2="82.43966579437256" y2="5" style="visibility: inherit;" fill="rgb(0, 0, 0)" stroke="rgb(204, 204, 204)" stroke-width="1px"></line><line x1="103.0495822429657" y1="0" x2="103.0495822429657" y2="5" style="visibility: inherit;" fill="rgb(0, 0, 0)" stroke="rgb(204, 204, 204)" stroke-width="1px"></line><line x1="123.65949869155884" y1="0" x2="123.65949869155884" y2="5" style="visibility: inherit;" fill="rgb(0, 0, 0)" stroke="rgb(204, 204, 204)" stroke-width="1px"></line><line x1="144.26941514015198" y1="0" x2="144.26941514015198" y2="5" style="visibility: inherit;" fill="rgb(0, 0, 0)" stroke="rgb(204, 204, 204)" stroke-width="1px"></line><line x1="164.87933158874512" y1="0" x2="164.87933158874512" y2="5" style="visibility: inherit;" fill="rgb(0, 0, 0)" stroke="rgb(204, 204, 204)" stroke-width="1px"></line><line x1="185.48924803733826" y1="0" x2="185.48924803733826" y2="5" style="visibility: inherit;" fill="rgb(0, 0, 0)" stroke="rgb(204, 204, 204)" stroke-width="1px"></line><line x1="206.0991644859314" y1="0" x2="206.0991644859314" y2="5" style="visibility: inherit;" fill="rgb(0, 0, 0)" stroke="rgb(204, 204, 204)" stroke-width="1px"></line><line x1="226.70908093452454" y1="0" x2="226.70908093452454" y2="5" style="visibility: inherit;" fill="rgb(0, 0, 0)" stroke="rgb(204, 204, 204)" stroke-width="1px"></line><line x1="247.31899738311768" y1="0" x2="247.31899738311768" y2="5" style="visibility: inherit;" fill="rgb(0, 0, 0)" stroke="rgb(204, 204, 204)" stroke-width="1px"></line></g><g transform="translate(0, 8)"><text style="text-anchor: middle; visibility: hidden; font-family: Roboto, sans-serif; font-size: 12px; font-weight: 200;" x="0" y="0" dx="0em" dy="0.95em" fill="rgb(33, 33, 33)" stroke="none" stroke-width="1px">-500</text><text style="text-anchor: middle; visibility: inherit; font-family: Roboto, sans-serif; font-size: 12px; font-weight: 200;" x="20.60991644859314" y="0" dx="0em" dy="0.95em" fill="rgb(33, 33, 33)" stroke="none" stroke-width="1px">0</text><text style="text-anchor: middle; visibility: hidden; font-family: Roboto, sans-serif; font-size: 12px; font-weight: 200;" x="41.21983289718628" y="0" dx="0em" dy="0.95em" fill="rgb(33, 33, 33)" stroke="none" stroke-width="1px">500</text><text style="text-anchor: middle; visibility: inherit; font-family: Roboto, sans-serif; font-size: 12px; font-weight: 200;" x="61.82974934577942" y="0" dx="0em" dy="0.95em" fill="rgb(33, 33, 33)" stroke="none" stroke-width="1px">1k</text><text style="text-anchor: middle; visibility: hidden; font-family: Roboto, sans-serif; font-size: 12px; font-weight: 200;" x="82.43966579437256" y="0" dx="0em" dy="0.95em" fill="rgb(33, 33, 33)" stroke="none" stroke-width="1px">1.5k</text><text style="text-anchor: middle; visibility: inherit; font-family: Roboto, sans-serif; font-size: 12px; font-weight: 200;" x="103.0495822429657" y="0" dx="0em" dy="0.95em" fill="rgb(33, 33, 33)" stroke="none" stroke-width="1px">2k</text><text style="text-anchor: middle; visibility: hidden; font-family: Roboto, sans-serif; font-size: 12px; font-weight: 200;" x="123.65949869155884" y="0" dx="0em" dy="0.95em" fill="rgb(33, 33, 33)" stroke="none" stroke-width="1px">2.5k</text><text style="text-anchor: middle; visibility: inherit; font-family: Roboto, sans-serif; font-size: 12px; font-weight: 200;" x="144.26941514015198" y="0" dx="0em" dy="0.95em" fill="rgb(33, 33, 33)" stroke="none" stroke-width="1px">3k</text><text style="text-anchor: middle; visibility: hidden; font-family: Roboto, sans-serif; font-size: 12px; font-weight: 200;" x="164.87933158874512" y="0" dx="0em" dy="0.95em" fill="rgb(33, 33, 33)" stroke="none" stroke-width="1px">3.5k</text><text style="text-anchor: middle; visibility: inherit; font-family: Roboto, sans-serif; font-size: 12px; font-weight: 200;" x="185.48924803733826" y="0" dx="0em" dy="0.95em" fill="rgb(33, 33, 33)" stroke="none" stroke-width="1px">4k</text><text style="text-anchor: middle; visibility: hidden; font-family: Roboto, sans-serif; font-size: 12px; font-weight: 200;" x="206.0991644859314" y="0" dx="0em" dy="0.95em" fill="rgb(33, 33, 33)" stroke="none" stroke-width="1px">4.5k</text><text style="text-anchor: middle; visibility: inherit; font-family: Roboto, sans-serif; font-size: 12px; font-weight: 200;" x="226.70908093452454" y="0" dx="0em" dy="0.95em" fill="rgb(33, 33, 33)" stroke="none" stroke-width="1px">5k</text><text style="text-anchor: middle; visibility: hidden; font-family: Roboto, sans-serif; font-size: 12px; font-weight: 200;" x="247.31899738311768" y="0" dx="0em" dy="0.95em" fill="rgb(33, 33, 33)" stroke="none" stroke-width="1px">5.5k</text></g><line x1="0" y1="0" x2="247.31899738311768" y2="0" fill="rgb(0, 0, 0)" stroke="rgb(204, 204, 204)" stroke-width="1px"></line></g></g></g></g></svg>