<svg viewBox="0 0 330 200" xmlns="http://www.w3.org/2000/svg"><g><g><g><g><g><line x1="82.68100261688232" y1="176.89999961853027" x2="77.68100261688232" y2="176.89999961853027" style="visibility: inherit;" fill="rgb(0, 0, 0)" stroke="rgb(204, 204, 204)" stroke-width="1px"></line><line x1="82.68100261688232" y1="162.15833298365274" x2="77.68100261688232" y2="162.15833298365274" style="visibility: inherit;" fill="rgb(0, 0, 0)" stroke="rgb(204, 204, 204)" stroke-width="1px"></line><line x1="82.68100261688232" y1="147.41666634877524" x2="77.68100261688232" y2="147.41666634877524" style="visibility: inherit;" fill="rgb(0, 0, 0)" stroke="rgb(204, 204, 204)" stroke-width="1px"></line><line x1="82.68100261688232" y1="132.6749997138977" x2="77.68100261688232" y2="132.6749997138977" style="visibility: inherit;" fill="rgb(0, 0, 0)" stroke="rgb(204, 204, 204)" stroke-width="1px"></line><line x1="82.68100261688232" y1="117.9333330790202" x2="77.68100261688232" y2="117.9333330790202" style="visibility: inherit;" fill="rgb(0, 0, 0)" stroke="rgb(204, 204, 204)" stroke-width="1px"></line><line x1="82.68100261688232" y1="103.19166644414264" x2="77.68100261688232" y2="103.19166644414264" style="visibility: inherit;" fill="rgb(0, 0, 0)" stroke="rgb(204, 204, 204)" stroke-width="1px"></line><line x1="82.68100261688232" y1="88.44999980926514" x2="77.68100261688232" y2="88.44999980926514" style="visibility: inherit;" fill="rgb(0, 0, 0)" stroke="rgb(204, 204, 204)" stroke-width="1px"></line><line x1="82.68100261688232" y1="73.7083331743876" x2="77.68100261688232" y2="73.7083331743876" style="visibility: inherit;" fill="rgb(0, 0, 0)" stroke="rgb(204, 204, 204)" stroke-width="1px"></line><line x1="82.68100261688232" y1="58.9666665395101" x2="77.68100261688232" y2="58.9666665395101" style="visibility: inherit;" fill="rgb(0, 0, 0)" stroke="rgb(204, 204, 204)" stroke-width="1px"></line><line x1="82.68100261688232" y1="44.22499990463257" x2="77.68100261688232" y2="44.22499990463257" style="visibility: inherit;" fill="rgb(0, 0, 0)" stroke="rgb(204, 204, 204)" stroke-width="1px"></line><line x1="82.68100261688232" y1="29.48333326975504" x2="77.68100261688232" y2="29.48333326975504" style="visibility: inherit;" fill="rgb(0, 0, 0)" stroke="rgb(204, 204, 204)" stroke-width="1px"></line><line x1="82.68100261688232" y1="14.741666634877529" x2="77.68100261688232" y2="14.741666634877529" style="visibility: inherit;" fill="rgb(0, 0, 0)" stroke="rgb(204, 204, 204)" stroke-width="1px"></line><line x1="82.68100261688232" y1="0" x2="77.68100261688232" y2="0" style="visibility: inherit;" fill="rgb(0, 0, 0)" stroke="rgb(204, 204, 204)" stroke-width="1px"></line></g><g transform="translate(72.68100261688232, 0)"><text style="text-anchor: end; visibility: hidden; font-family: Roboto, sans-serif; font-size: 12px; font-weight: 200;" x="0" y="176.89999961853027" dx="0em" dy="0.3em" fill="rgb(33, 33, 33)" stroke="none" stroke-width="1px">-1.3e+3</text><text style="text-anchor: end; visibility: inherit; font-family: Roboto, sans-serif; font-size: 12px; font-weight: 200;" x="0" y="162.15833298365274" dx="0em" dy="0.3em" fill="rgb(33, 33, 33)" stroke="none" stroke-width="1px">-1.2e+3</text><text style="text-anchor: end; visibility: hidden; font-family: Roboto, sans-serif; font-size: 12px; font-weight: 200;" x="0" y="147.41666634877524" dx="0em" dy="0.3em" fill="rgb(33, 33, 33)" stroke="none" stroke-width="1px">-1.1e+3</text><text style="text-anchor: end; visibility: inherit; font-family: Roboto, sans-serif; font-size: 12px; font-weight: 200;" x="0" y="132.6749997138977" dx="0em" dy="0.3em" fill="rgb(33, 33, 33)" stroke="none" stroke-width="1px">-1e+3</text><text style="text-anchor: end; visibility: hidden; font-family: Roboto, sans-serif; font-size: 12px; font-weight: 200;" x="0" y="117.9333330790202" dx="0em" dy="0.3em" fill="rgb(33, 33, 33)" stroke="none" stroke-width="1px">-900</text><text style="text-anchor: end; visibility: inherit; font-family: Roboto, sans-serif; font-size: 12px; font-weight: 200;" x="0" y="103.19166644414264" dx="0em" dy="0.3em" fill="rgb(33, 33, 33)" stroke="none" stroke-width="1px">-800</text><text style="text-anchor: end; visibility: hidden; font-family: Roboto, sans-serif; font-size: 12px; font-weight: 200;" x="0" y="88.44999980926514" dx="0em" dy="0.3em" fill="rgb(33, 33, 33)" stroke="none" stroke-width="1px">-700</text><text style="text-anchor: end; visibility: inherit; font-family: Roboto, sans-serif; font-size: 12px; font-weight: 200;" x="0" y="73.7083331743876" dx="0em" dy="0.3em" fill="rgb(33, 33, 33)" stroke="none" stroke-width="1px">-600</text><text style="text-anchor: end; visibility: hidden; font-family: Roboto, sans-serif; font-size: 12px; font-weight: 200;" x="0" y="58.9666665395101" dx="0em" dy="0.3em" fill="rgb(33, 33, 33)" stroke="none" stroke-width="1px">-500</text><text style="text-anchor: end; visibility: inherit; font-family: Roboto, sans-serif; font-size: 12px; font-weight: 200;" x="0" y="44.22499990463257" dx="0em" dy="0.3em" fill="rgb(33, 33, 33)" stroke="none" stroke-width="1px">-400</text><text style="text-anchor: end; visibility: hidden; font-family: Roboto, sans-serif; font-size: 12px; font-weight: 200;" x="0" y="29.48333326975504" dx="0em" dy="0.3em" fill="rgb(33, 33, 33)" stroke="none" stroke-width="1px">-300</text><text style="text-anchor: end; visibility: inherit; font-family: Roboto, sans-serif; font-size: 12px; font-weight: 200;" x="0" y="14.741666634877529" dx="0em" dy="0.3em" fill="rgb(33, 33, 33)" stroke="none" stroke-width="1px">-200</text><text style="text-anchor: end; visibility: hidden; font-family: Roboto, sans-serif; font-size: 12px; font-weight: 200;" x="0" y="0" dx="0em" dy="0.3em" fill="rgb(33, 33, 33)" stroke="none" stroke-width="1px">-100</text></g><line x1="82.68100261688232" y1="0" x2="82.68100261688232" y2="176.89999961853027" fill="rgb(0, 0, 0)" stroke="rgb(204, 204, 204)" stroke-width="1px"></line></g></g><g transform="translate(82, 0)" clip-path="url(#clip_0)"><clipPath id="clip_0"><rect width="247" height="176"></rect></clipPath><g><g><g><line x1="0" y1="0" x2="0" y2="176.89999961853027" fill="rgb(0, 0, 0)" stroke="rgb(66, 66, 66)" stroke-width="1px" opacity="0.25"></line><line x1="20.60991644859314" y1="0" x2="20.60991644859314" y2="176.89999961853027" fill="rgb(0, 0, 0)" stroke="rgb(66, 66, 66)" stroke-width="1px" opacity="0.25"></line><line x1="41.21983289718628" y1="0" x2="41.21983289718628" y2="176.89999961853027" fill="rgb(0, 0, 0)" stroke="rgb(66, 66, 66)" stroke-width="1px" opacity="0.25"></line><line x1="61.82974934577942" y1="0" x2="61.82974934577942" y2="176.89999961853027" fill="rgb(0, 0, 0)" stroke="rgb(66, 66, 66)" stroke-width="1px" opacity="0.25"></line><line x1="82.43966579437256" y1="0" x2="82.43966579437256" y2="176.89999961853027" fill="rgb(0, 0, 0)" stroke="rgb(66, 66, 66)" stroke-width="1px" opacity="0.25"></line><line x1="103.0495822429657" y1="0" x2="103.0495822429657" y2="176.89999961853027" fill="rgb(0, 0, 0)" stroke="rgb(66, 66, 66)" stroke-width="1px" opacity="0.25"></line><line x1="123.65949869155884" y1="0" x2="123.65949869155884" y2="176.89999961853027" fill="rgb(0, 0, 0)" stroke="rgb(66, 66, 66)" stroke-width="1px" opacity="0.25"></line><line x1="144.26941514015198" y1="0" x2="144.26941514015198" y2="176.89999961853027" fill="rgb(0, 0, 0)" stroke="rgb(66, 66, 66)" stroke-width="1px" opacity="0.25"></line><line x1="164.87933158874512" y1="0" x2="164.87933158874512" y2="176.89999961853027" fill="rgb(0, 0, 0)" stroke="rgb(66, 66, 66)" stroke-width="1px" opacity="0.25"></line><line x1="185.48924803733826" y1="0" x2="185.48924803733826" y2="176.89999961853027" fill="rgb(0, 0, 0)" stroke="rgb(66, 66, 66)" stroke-width="1px" opacity="0.25"></line><line x1="206.0991644859314" y1="0" x2="206.0991644859314" y2="176.89999961853027" fill="rgb(0, 0, 0)" stroke="rgb(66, 66, 66)" stroke-width="1px" opacity="0.25"></line><line x1="226.70908093452454" y1="0" x2="226.70908093452454" y2="176.89999961853027" fill="rgb(0, 0, 0)" stroke="rgb(66, 66, 66)" stroke-width="1px" opacity="0.25"></line><line x1="247.31899738311768" y1="0" x2="247.31899738311768" y2="176.89999961853027" fill="rgb(0, 0, 0)" stroke="rgb(66, 66, 66)" stroke-width="1px" opacity="0.25"></line></g><g><line x1="0" y1="176.89999961853027" x2="247.31899738311768" y2="176.89999961853027" fill="rgb(0, 0, 0)" stroke="rgb(66, 66, 66)" stroke-width="1px" opacity="0.25"></line><line x1="0" y1="162.15833298365274" x2="247.31899738311768" y2="162.15833298365274" fill="rgb(0, 0, 0)" stroke="rgb(66, 66, 66)" stroke-width="1px" opacity="0.25"></line><line x1="0" y1="147.41666634877524" x2="247.31899738311768" y2="147.41666634877524" fill="rgb(0, 0, 0)" stroke="rgb(66, 66, 66)" stroke-width="1px" opacity="0.25"></line><line x1="0" y1="132.6749997138977" x2="247.31899738311768" y2="132.6749997138977" fill="rgb(0, 0, 0)" stroke="rgb(66, 66, 66)" stroke-width="1px" opacity="0.25"></line><line x1="0" y1="117.9333330790202" x2="247.31899738311768" y2="117.9333330790202" fill="rgb(0, 0, 0)" stroke="rgb(66, 66, 66)" stroke-width="1px" opacity="0.25"></line><line x1="0" y1="103.19166644414264" x2="247.31899738311768" y2="103.19166644414264" fill="rgb(0, 0, 0)" stroke="rgb(66, 66, 66)" stroke-width="1px" opacity="0.25"></line><line x1="0" y1="88.44999980926514" x2="247.31899738311768" y2="88.44999980926514" fill="rgb(0, 0, 0)" stroke="rgb(66, 66, 66)" stroke-width="1px" opacity="0.25"></line><line x1="0" y1="73.7083331743876" x2="247.31899738311768" y2="73.7083331743876" fill="rgb(0, 0, 0)" stroke="rgb(66, 66, 66)" stroke-width="1px" opacity="0.25"></line><line x1="0" y1="58.9666665395101" x2="247.31899738311768" y2="58.9666665395101" fill="rgb(0, 0, 0)" stroke="rgb(66, 66, 66)" stroke-width="1px" opacity="0.25"></line><line x1="0" y1="44.22499990463257" x2="247.31899738311768" y2="44.22499990463257" fill="rgb(0, 0, 0)" stroke="rgb(66, 66, 66)" stroke-width="1px" opacity="0.25"></line><line x1="0" y1="29.48333326975504" x2="247.31899738311768" y2="29.48333326975504" fill="rgb(0, 0, 0)" stroke="rgb(66, 66, 66)" stroke-width="1px" opacity="0.25"></line><line x1="0" y1="14.741666634877529" x2="247.31899738311768" y2="14.741666634877529" fill="rgb(0, 0, 0)" stroke="rgb(66, 66, 66)" stroke-width="1px" opacity="0.25"></line><line x1="0" y1="0" x2="247.31899738311768" y2="0" fill="rgb(0, 0, 0)" stroke="rgb(66, 66, 66)" stroke-width="1px" opacity="0.25"></line></g></g></g><g><g><line x1="0" y1="-14.74166663487751" x2="247.31899738311768" y2="-14.74166663487751" fill="rgb(0, 0, 0)" stroke="rgb(153, 153, 153)" stroke-width="1.5px"></line></g></g><g><g><line x1="20.60991644859314" y1="0" x2="20.60991644859314" y2="176.89999961853027" fill="rgb(0, 0, 0)" stroke="rgb(153, 153, 153)" stroke-width="1.5px"></line></g></g><g><g><g><g><g><path style="fill: none;" stroke="rgb(255, 112, 67)" stroke-width="2px" d="M20.980894944667817,132.8490852644663L21.022114777565005,183.63280642392732L22.093830432891846,185.3455671554408L22.13505026578903,152.53274598082405L22.25870976448059,187.7185768737105L22.341149430274964,162.16058737757137L22.629688260555266,148.05642666477024L22.670908093452454,163.13274420846793L22.794567592144013,139.43426232084678L22.8357874250412,176.35378603147367L23.454084918498996,205.6374938731741L23.536524584293364,193.17627337622446L23.783843581676482,173.03261582929943L24.0311625790596,190.93343178216784L25.226537733078,181.54311180627428L25.35019723176956,165.28460181636646L25.432636897563935,162.66488873675158L25.556296396255494,173.77945006386432L26.298253388404845,180.4520945596121L26.91655088186264,178.0850450871006L27.12265004634857,167.32408745120196L28.02948637008667,158.46488735290583L28.400464866161347,154.60788035506454L28.482904531955718,149.37587912299196L28.93632269382477,161.61369055184886L29.059982192516326,157.8286284567017L29.307301189899444,147.66001900372933L29.348521022796632,154.36798123701385L29.47218052148819,148.6624789656307L29.554620187282563,140.60403206581944L29.637059853076934,141.53078244578614L29.71949951887131,148.27643971454634L29.884378850460052,181.86075023276425L30.37901684522629,161.15969057115507L30.502676343917848,152.76997580722264L30.708775508403775,147.35832699045633L30.873654839992525,157.77616450052963L30.99731433868408,150.04367636190463L31.203413503170015,144.45529306711512L31.2446333360672,137.2327663486969L31.285853168964387,139.91893253332248L31.450732500553134,115.0138506352187L31.69805149793625,126.70283875321287L31.780491163730623,144.0861663223825L32.069029994010926,139.76123016740527L32.39878865718842,138.8866310481625L32.64610765457154,140.30076064311248L32.687327487468714,159.1234761218724L32.769767153263096,168.8835185999933L32.81098698616027,169.1940861235173L32.93464648485183,171.7200831714897L33.05830598354339,160.08898679563097L33.18196548223495,170.07356044804013L33.30562498092651,156.53541133034966L33.511724145412444,147.32940165740283L33.55294397830963,144.93321379733194L33.59416381120682,134.99208595883803L33.635383644104,134.5451042267542L33.800262975692746,138.85779451925987L34.37734063625336,142.75014696506165L34.45978030204773,139.90095098726124L34.50100013494492,141.35665565734593L34.995638129711146,143.74747678783035L35.242957127094265,145.19418460688243L35.284176959991456,156.22680438544407L35.4490562915802,159.98107996969733L35.943694286346435,151.83974101730476L36.39711244821549,157.2319523372494L36.80931077718735,141.45104023386236L37.05662977457047,147.6854559140423L37.22150910615921,147.66998912745055L37.34516860485077,153.38651489845424L37.63370743513107,137.63325360798973L37.674927268028256,134.09933458543497L38.00468593120575,145.53162786110147L38.04590576410293,135.2728300902219L38.4581040930748,134.24734909729622L38.70542309045791,135.38483242769277L38.82908258914947,134.68117747652724L39.07640158653259,112.10909772904797L39.406160249710084,132.318259677161L39.57103958129883,131.19436724243852L39.859578411579136,137.16861700896717L39.90079824447632,155.50641521353506L40.14811724185944,167.27517133188948L40.76641473531723,195.0277361561997L40.890074234008786,163.08506973565324L41.09617339849472,153.79554435340214L41.137393231391904,137.25062085710124L41.67325105905533,127.82859043580349L42.373988218307495,140.1793199774528L42.497647716999055,131.2271771591136L42.53886754989624,123.80764558019301L42.621307215690614,117.14420876244725L42.6625270485878,123.41149687549351L42.74496671438217,132.4579017265513L42.909846045970916,124.9714868138789L42.9510658788681,126.37822640742934L43.11594521045685,129.0194146502441L43.19838487625122,128.0888631177143L43.40448404073715,116.27774586178508L43.48692370653153,146.27209676615604L43.569363372325896,148.82380990962986L44.06400136709213,148.43089914019498L44.18766086578369,137.4838310687382L44.476199696064,135.13372234567436L44.929617857933046,126.23824116728433L45.012057523727414,125.90570509431477L45.09449718952179,126.8201834135442L45.13571702241897,121.2040177084149L45.176936855316164,118.7751180615475L45.63035501718521,116.85391604094755L45.6715748500824,116.76430077111927L45.79523434877396,114.92544750459187L45.87767401456833,105.2850622028961L45.91889384746552,117.45024616668464L46.207432677745814,108.82831698985323L46.248652510643005,133.60742603293446L47.11426900148392,127.21407186148252L47.1554888343811,134.27308315306968L47.36158799886704,125.80253012672661L47.65012682914734,121.55247264384285L47.732566494941715,118.09748841241168L47.81500616073608,115.9478815162963L48.0623251581192,115.14342988775311L48.14476482391357,113.9826998300581L48.30964415550232,107.21928858261255L48.47452348709107,91.81841472237458L48.55696315288544,100.65609718690914L48.804282150268556,98.7473611937131L48.927941648960115,98.1760476625572L49.463799476623535,90.48870281531678L49.50501930952072,104.911706886839L49.587458975315094,101.07756495767437L49.66989864110947,107.98153027267725L49.79355813980103,96.37014607401976L49.8759978055954,90.95782718070484L49.95843747138977,92.61027287231715L50.04087713718415,94.25322765770584L50.164536635875706,101.56081454525449L50.20575646877289,100.39036766022156L50.288196134567265,108.04587231187884L50.61795479774475,104.72883853545854L50.659174630641935,107.41342533960363L50.74161429643631,110.52498417748063L50.782834129333494,112.05914866997067L50.94771346092224,99.87328719882184L51.23625229120255,98.11788143696374L51.483571288585665,82.669584061916L51.52479112148285,89.60669633476905L51.56601095438003,86.12896180048652L51.77211011886597,82.63152990660832L51.81332995176315,80.98251524969959L52.22552828073502,87.2422706366995L52.266748113632204,82.21921665312989L52.39040761232376,73.49186374206504L52.63772660970688,68.09631865531516L52.678946442604065,65.16571616315069L52.88504560708999,70.13014489586791L53.04992493867874,73.2277000112184L53.09114477157593,67.62853693969093L53.42090343475342,72.1501586598576L53.66822243213654,75.18089450662069L53.70944226503372,61.99060803699313L53.997981095314024,49.782346302415874L54.039200928211216,39.2439434718868L54.32773975849152,25.382502565989004L54.49261909008026,31.079490652346212L54.73993808746338,57.40505117021689L55.11091658353806,50.09492507043706L55.31701574802399,40.60856386655448L55.52311491250992,40.49046296777699L55.770433909893036,32.51201642719095L55.894093408584595,51.032587868573685L55.93531324148178,68.4327554187374L56.30629173755646,64.98396737608401L56.63605040073395,71.0770826656216L56.75970989942551,66.10262377974831L57.213128061294555,108.78421259535443L57.46044705867767,66.80354031940978L57.91386522054672,48.09719641353848L57.95508505344391,89.51389855228544L57.99630488634109,69.39515678146324L58.65582221269607,128.0971992209758L58.82070154428482,135.41892801633057L59.109240374565125,162.20675232614292L59.31533953905106,183.983651318675L59.480218870639796,133.15175416070076L59.52143870353699,90.37592972600797L59.603878369331355,134.36679298586648L59.727537868022914,74.86138032103231L59.85119736671447,128.33913508873545L60.057296531200414,158.3890769836972L60.42827502727509,112.2294995466912L60.551934525966644,76.90385009190761L60.59315435886383,102.08665420940771L60.6755940246582,131.14725830102827L60.88169318914414,102.92359194516074L61.005352687835696,70.46051114095702L61.21145185232162,58.670765722096945L61.33511135101318,51.98233063527368L61.66487001419067,40.07966798326995L61.912189011573794,25.40821890378862L61.99462867736816,23.788228323463702L62.24194767475128,8.473709946802204L62.53048650503159,6.8074353820899685L62.98390466690063,5.32316926771035L63.06634433269501,11.918287823652815L63.43732282876969,24.13335286285221L63.478542661666864,40.114600307858964L63.56098232746125,39.814809030765254L63.602202160358424,47.63227041873156L64.05562032222748,50.80773328688283L64.22049965381622,47.09356218668018L64.5914781498909,22.502210400425707L64.88001698017119,15.368696989198995L64.92123681306839,25.82973551610296L64.96245664596557,31.732994253167703L65.08611614465714,13.527630071404431L65.12733597755431,9.789297428578857L65.20977564334869,7.773277580248042L65.33343514204024,13.837311420233338L65.53953430652619,9.772337240612424L65.62197397232055,0.024741177870468978L65.99295246839523,60.089331658068716L66.11661196708678,100.40085148873162L66.94100862503052,61.212130146209674L67.14710778951645,51.83078677606296L67.18832762241364,38.63625763694828L67.35320695400237,32.123918737792366L67.55930611848831,21.009296225404714L67.68296561717987,56.12221104594394L67.93028461456299,27.820671632006167L68.17760361194611,31.971121918017534L68.34248294353485,27.735830601034987L68.75468127250672,25.846825199290976L68.83712093830108,16.683361085617307L68.91956060409547,11.706030821602253L69.37297876596452,15.648865608252532L69.4141985988617,18.089699133380645L69.57907793045044,19.332717944003477L69.99127625942229,34.51295124413178L70.40347458839416,29.242161004157733L70.44469442129135,19.17264289466007L70.69201341867446,36.64939954162072L70.85689275026321,30.115897980255646L70.8981125831604,43.669652176959346L71.22787124633788,27.78094960584037L71.5164100766182,34.69384906626836L71.59884974241257,29.13557159782629L72.25836706876755,25.30232976637475L72.62934556484223,9.366689297226314L72.7117852306366,14.104897245341606L72.83544472932815,17.09967719627672L73.24764305830003,18.791131993135206L73.45374222278595,19.71629610730399L73.53618188858033,41.808810271854306L73.78350088596345,26.648480472282383L73.907160384655,17.390825172538253L74.11325954914093,40.416155009980116L74.27813888072967,39.74298309302082L74.73155704259872,45.43592698475163L74.89643637418747,50.750379313213664L75.34985453605651,32.257276631882995L75.55595370054245,21.080134310369264L75.67961319923401,14.26290311997076L75.7208330321312,24.779772716721112L75.80327269792556,9.022300788240825L75.84449253082275,7.238774722039593L76.09181152820587,29.058183609273858L76.13303136110306,107.14193937478807L76.33913052558898,102.57545502586429L76.38035035848618,108.5480477554697L76.46279002428054,59.42537858286546L76.75132885456085,63.483804740669605L77.24596684932709,54.05604766592999L77.28718668222427,34.00640490206447L77.49328584671021,37.09100647947299L77.57572551250458,23.59087109544474L77.78182467699051,8.300681960887353L78.11158334016801,13.655257357288745L78.52378166913986,2.3499601835583905L78.64744116783142,10.338875105162872L78.7298808336258,21.500498078002906L79.18329899549484,21.55211767224072L79.38939815998077,14.497942934509888L79.88403615474701,33.06305889053946L80.29623448371888,14.105404896436463L80.66721297979355,17.72001265056645L81.0794113087654,59.436472404123904L81.28551047325134,29.82154316930838L81.4091699719429,27.025128351272915L81.45038980484009,70.18082029445632L81.49160963773728,51.07342745651568L81.65648896932602,57.11043712565854L82.35722612857819,90.43165944838734L82.48088562726974,55.80659803843682L82.56332529306411,35.17984252810461L82.64576495885849,60.74834427212048L82.9343037891388,38.26856766876424L83.01674345493316,32.37751512827555L83.47016161680222,27.75287034085024L83.5113814496994,10.828927548658271L83.75870044708252,14.956630329414349L83.8411401128769,25.903582048063566L84.00601944446564,17.388287443037424L84.50065743923187,11.971116109000151L84.91285576820373,31.946474197773796L84.99529543399811,28.338637182400703L85.0365152668953,18.77562478710431L85.07773509979248,13.037835345124972L85.24261443138123,9.60437432182428L85.53115326166153,7.3419421502663145L85.73725242614746,26.752059901394432L85.77847225904465,17.72967869946496L85.81969209194183,27.305096860657954L85.94335159063338,100.5323710330785L86.2318904209137,85.67627331589965L86.64408874988555,121.79388226223301L86.76774824857712,82.08551483036427L86.89140774726867,50.83210611058931L86.97384741306306,32.017962147880894L87.0975069117546,20.95078522056394L87.13872674465179,21.041435513282035L87.26238624334336,35.966301954860356L87.38604574203491,30.103214154210626L87.55092507362366,19.429640960076718L87.96312340259553,13.38175788623224L88.58142089605332,2.1650139421005417L88.78752006053924,2.9945627581697782L89.03483905792235,9.900680964249332L89.07605889081955,60.71746178887808L89.85923571586609,116.54497135857459L89.98289521455764,79.31385241465375L90.06533488035203,64.21140848122397L90.35387371063233,64.22750125076102L90.39509354352951,40.372450983008775L90.47753320932388,48.524039122608244L90.724852206707,115.50701064078234L91.0133910369873,70.78076955852124L91.3431497001648,51.50625147595883L91.54924886465072,47.540004207651464L91.59046869754792,37.80412460642641L92.12632652521134,24.22790466291786L92.24998602390289,30.921838933478863L92.29120585680008,27.644072511626007L92.70340418577194,41.14903652651823L92.82706368446351,48.14626217192821L92.95072318315506,53.1850183184703L92.99194301605225,33.65274646197633L93.28048184633255,61.92882958039602L93.48658101081848,101.27819223887263L93.56902067661287,54.94601180007335L93.61024050951004,50.0654660367042L94.55829666614532,71.12415697279825L95.01171482801438,59.236603688776356L95.38269332408905,51.15247302351583L95.54757265567778,32.39628234050324L96.00099081754685,35.9772715414875L96.4544089794159,22.963653336859824L96.70172797679902,22.08919526381634L96.82538747549057,44.792247607857334L96.86660730838776,28.56882181291397L96.94904697418214,25.716921142375877L96.99026680707931,42.003503995309885L97.07270647287369,26.788963991460925L97.56734446763993,32.91356590332124L97.6910039663315,35.83237755255586L97.77344363212585,36.54015717028275L97.85588329792023,30.728752647034057L98.02076262950897,20.2394770192096L98.06198246240616,37.22707467265366L98.10320229530335,24.158500690063878L98.2268617939949,29.891218228534857L98.43296095848083,26.39419188740502L98.68027995586395,24.796906624656312L98.96881878614425,16.62476514208855L99.05125845193864,19.139457391092666L99.133698117733,61.01609181644995L99.29857744932175,38.37475102773442L99.38101711511612,31.652105996087652L99.99931460857391,48.748818499710175L100.0817542743683,23.417563739894476L100.32907327175141,22.883672190953234L100.37029310464858,15.34734003085198L100.45273277044296,17.483898254714457L100.57639226913453,4.664122242860298L100.74127160072327,4.53310071319141L100.78249143362045,10.984301113421756L100.86493109941482,15.289189708946925L101.11225009679794,33.32183758005707L101.35956909418105,28.471845353542054L101.56566825866699,18.934998491294234L101.85420708894729,29.935900347649408L101.89542692184448,51.471122796241204L102.06030625343323,32.34024246986933L102.30762525081634,37.96638891214924L102.55494424819946,43.49751286499157L102.67860374689103,69.43604921489671L102.80226324558258,66.4250237707853L102.92592274427415,48.80413356232601L102.96714257717133,46.13996822970597L103.17324174165726,43.7411397736404L103.25568140745162,35.330048411141114L103.37934090614318,36.67483193282523L103.42056073904038,45.35597803491833L103.87397890090942,50.96820802318484L103.9564185667038,39.57111545512817L104.65715572595597,41.122376227176204L104.69837555885316,48.598211335348736L104.73959539175033,45.23857243710777L104.82203505754471,36.165407845579914L104.90447472333909,23.36305467029248L104.94569455623626,15.817979787734565L104.98691438913345,11.250005678905707L105.02813422203064,23.090759373896336L105.06935405492783,15.371770275098223L105.11057388782501,11.0487128457331L105.15179372072221,22.645469060841666L105.31667305231095,36.695085022335796L105.35789288520813,38.78432017788719L105.4403325510025,32.4706787435907L105.52277221679688,13.639470613794751L105.56399204969406,9.763170429954632L106.14106971025467,30.956057579013518L106.30594904184342,20.083971110059L106.80058703660966,13.82374919714373L107.08912586688996,9.58580585578229L107.74864319324493,7.899518175788824L107.83108285903931,6.4023034932373175L107.91352252483368,45.49490772023146L108.4493803524971,36.48005189942531L108.53182001829148,23.541264424664334L108.61425968408584,30.18988936356374L108.65547951698304,19.815874507005592L108.69669934988022,33.81703221612266L108.90279851436615,22.23037795738679L108.98523818016052,14.91248273213757L109.02645801305772,28.390801383243392L109.35621667623519,25.598397609370945L109.39743650913239,24.481209591890515L109.52109600782396,16.19233256341533L109.80963483810424,34.04006004264268L110.05695383548736,29.141280894076015L110.09817366838455,11.65696274500652L110.30427283287048,24.084980686320957L110.51037199735642,24.057523600224005L110.5515918302536,36.32753027503336L110.63403149604798,23.332604957005845L110.71647116184235,8.158248953430576L110.96379015922547,6.89178477729824L111.08744965791702,52.89205714836432L111.21110915660859,40.010838295932906L111.4584281539917,102.58208387501276L111.66452731847764,71.00570195866834L111.70574715137481,74.20504124458735L112.406484310627,115.32308910416927L112.77746280670166,134.62995942897885L112.81868263959885,154.61298063325958L113.06600163698197,101.168396933211L113.18966113567352,117.45566291546979L113.2308809685707,72.35414792833167L113.5606396317482,68.13004922819313L113.64307929754257,42.72838942469006L113.68429913043975,46.638851958727884L113.89039829492569,38.51115913939142L113.93161812782287,40.04384292127313L113.97283796072006,39.58701845012486L114.4674759554863,17.899733123368392L114.71479495286941,5.024254333773014L114.87967428445816,34.08286336700787L115.25065278053285,82.22195837772082L115.62163127660752,57.99275967999661L115.6628511095047,44.03159247936563L115.86895027399063,27.50533641992837L115.951389939785,10.82710805422683L116.11626927137374,7.83025474792322L116.15748910427094,13.735563790670938L116.94066592931748,17.00427205219796L117.06432542800903,42.34286237058844L117.27042459249496,27.07580501030438L117.55896342277526,25.766936895969465L117.60018325567245,39.92820478501373L118.383360080719,40.914500257536375L119.08409723997116,18.837334333682584L119.16653690576554,42.22735801643268L119.53751540184021,105.81667230232647L120.07337322950363,153.4281557224454L120.23825256109238,183.3851388704775L120.27947239398956,173.22242503579193L120.4443517255783,159.98633181710582L121.0626492190361,90.15021491657262L121.26874838352204,145.01361918356235L121.43362771511077,81.348765278588L121.68094671249389,99.16054805800489L121.88704587697983,95.58879465866532L122.21680454015731,97.33296463216351L122.2992442059517,59.751078726030116L122.58778303623198,37.3267947205839L122.71144253492355,105.01620096652435L122.75266236782075,128.46495184338838L123.61827885866165,141.4265763058146L123.65949869155884,166.98677327158245L123.90681768894196,109.1379072369121L124.36023585081101,67.17350931296822L124.40145568370819,34.5701278721127L124.44267551660538,14.887430376226474L124.48389534950256,10.090630552695993L124.52511518239973,93.29931167619618L124.6899945139885,57.62230839550622L124.77243417978285,62.56647473320531L124.81365401268006,101.43424137531755L125.22585234165192,129.56830744965183L125.34951184034348,78.8432344679228L125.43195150613785,41.58339704393698L125.47317133903503,88.20869637852451L125.76171016931532,54.433434555378895L125.96780933380126,26.800741254553525L126.1739084982872,103.37862948879744L126.792205991745,126.8298310773001L127.24562415361403,98.47124439993233L127.28684398651124,74.23675885296791L127.36928365230561,80.58210832040785L127.45172331809997,91.01449507398752L127.61660264968873,48.758784348383145L128.3173398089409,51.280398473928784L128.39977947473525,88.78503266855891L128.56465880632402,74.77758702810627L128.77075797080994,59.516506322438715L128.8944174695015,43.902922435768836L129.01807696819304,85.17517635298398L129.14173646688462,144.04929848245794L129.51271496295928,94.33433444606571L129.5539347958565,65.5138708327449L129.67759429454804,40.95424163621403L129.96613312482833,32.58586627080416L130.00735295772552,13.708298152254253L130.70809011697767,10.237369346200826L130.74930994987486,0.5795825039218065L130.79052978277207,16.496611869873202L130.9554091143608,105.02561080513564L130.996628947258,99.39508966106064L131.53248677492144,131.67703052117116L132.06834460258486,130.52417191458062L132.1507842683792,87.11698407459079L132.31566359996796,77.59636292635493L132.39810326576233,82.92298641722206L132.4805429315567,58.213817849851154L132.7278619289398,88.88977632963133L132.8103015947342,70.5196348982924L133.0988404250145,56.7024890164636L133.428599088192,49.085479243686294L133.6759180855751,46.07366297118247L133.7583577513695,36.58907111547141L133.92323708295822,37.30823810939744L133.9644569158554,31.10219313268845L134.12933624744414,103.8507368751086L134.3354354119301,71.11666695196149L134.45909491062164,50.707641971064476L134.5827544093132,52.311981397037066L134.62397424221038,53.634366655848694L134.9125130724907,40.886985864728985L134.99495273828506,18.685359832785515L135.57203039884567,20.239585154087514L135.69568989753722,13.668221983787918L135.7369097304344,31.556802387344344L136.02544856071472,105.3896805867928L136.0666683936119,64.75317760462815L136.1078882265091,125.79149737871707L136.23154772520064,121.00383041726712L136.3964270567894,74.15704696298049L136.6849658870697,53.25275493146393L136.7674055528641,47.46667764669432L136.97350471734998,36.95086029848934L137.26204354763033,23.810953528308808L137.3032633805275,66.01972669903067L137.42692287921906,90.34818616839196L138.29253937005998,48.42157673150137L138.5398583674431,51.814714553659776L138.62229803323746,32.505397713872206L138.8283971977234,13.726485341639457L139.19937569379806,53.73773682219488L139.24059552669524,90.57188271053623L139.48791452407835,121.7087383637033L139.52913435697556,148.6825209760045L139.73523352146148,103.95148693837507L140.14743185043335,141.1528419972075L140.8893888425827,86.17933047079202L140.97182850837706,59.994344916318596L141.13670783996582,37.09207320795745L141.34280700445174,51.77268529382121L141.63134583473206,46.13239093098895L141.67256566762924,21.929620983867213L141.75500533342364,34.808807270601115L141.83744499921798,35.91166922884264L141.96110449790953,22.850859842395945L142.00232433080674,21.93710549035875L142.24964332818985,21.194939319068762L142.45574249267577,27.812325853404367L142.66184165716172,17.923997662391134L142.82672098875045,42.69595876415114L143.19769948482514,40.6485273063593L143.69233747959137,18.65125048215396L144.2281953072548,19.2353868228481L144.35185480594635,5.907813403175009L144.39307463884353,18.702723981304572L144.4342944717407,13.098430122955813L144.64039363622666,9.500262918205966L144.97015229940413,14.493665371019539L145.17625146389005,16.580157528262838L145.29991096258163,19.086206589842472L145.34113079547882,12.866099320881151L145.50601012706758,60.979076937803L146.00064812183382,58.62602183944134L146.16552745342253,50.51567047618425L146.2891869521141,52.45161051127821L146.53650594949724,48.72532230695358L146.74260511398316,84.44582290785603L146.78382494688034,86.78020056788134L146.82504477977753,83.3055355870887L146.8662646126747,78.85508780000347L147.44334227323532,48.977521267212765L147.93798026800155,36.99128095936238L148.7623769259453,23.53560521416484L148.92725625753403,23.25872570136495L149.09213558912276,22.666629150507738L149.13335542201995,22.20447254265227L149.17457525491713,35.68825175433946L149.3394545865059,22.429551103817232L149.42189425230026,28.68195654091893L149.46311408519745,18.822712500885523L149.50433391809463,40.81429360915444L149.66921324968337,33.07030639194131L149.83409258127213,35.28954297747236L149.9165322470665,93.16500750379896L150.12263141155242,57.359123663915504L150.246290910244,49.89895510266394L150.36995040893555,67.53970335771372L150.61726940631866,110.75029301797602L150.69970907211302,132.17613403900762L150.8233685708046,93.32746713633188L151.0706875681877,107.00922588305751L151.48288589715958,73.55627796877687L151.89508422613144,73.86369185550244L152.05996355772018,46.153935907072366L152.22484288930895,108.35594692124332L152.26606272220613,94.81968849659336L152.3072825551033,111.47555468760761L152.47216188669205,61.03958357636577L152.55460155248642,38.34589874287482L152.63704121828079,46.11908223381001L152.9667998814583,29.30293407823311L153.04923954725265,40.87206053913169L153.2553387117386,48.382209882462114L153.4202180433273,30.507245941498187L153.79119653940202,71.6918763275402L154.0797353696823,37.28299010030655L154.3682741999626,37.800347486585366L154.450713865757,46.98567891683347L154.65681303024292,88.5704594375085L154.82169236183165,69.5078991939051L155.0277915263176,90.09160775306538L155.43998985528944,55.79859501713848L155.48120968818665,27.6540420422859L155.6460890197754,25.812382160445555L155.68730885267257,67.50873739331635L155.9758476829529,109.81341845840765L156.1819468474388,134.11622006447237L156.30560634613036,126.31740938122309L156.4292658448219,90.97545097216869L156.7590245079994,77.30574731551576L156.96512367248536,47.94607135092596L157.04756333827973,69.10649321591856L157.25366250276565,35.68740953415546L157.50098150014878,45.23352678993406L157.58342116594315,35.904636128506134L157.66586083173752,75.41176477830636L157.7483004975319,53.971302068182126L157.99561949491502,41.11675624547201L158.16049882650375,60.38679062298123L158.44903765678407,72.33825613796985L158.73757648706436,51.970908584756714L159.1909946489334,40.489699619919676L159.31465414762496,33.09270525712815L159.35587398052215,34.61026792633346L159.5207533121109,22.34804982684157L160.30393013715744,15.122239124994755L160.34514997005462,32.473174942074564L160.6749086332321,42.46507633902766L160.83978796482086,54.5333267527264L160.92222763061523,54.737299604214385L160.96344746351244,83.64480828050031L161.3344259595871,79.22753995328392L161.37564579248428,49.200599364093186L161.49930529117586,75.59949120447432L161.66418462276457,54.17216208395062L161.87028378725051,41.92336259260563L161.9527234530449,26.381725579038985L161.9939432859421,17.586655180059005L162.03516311883928,4.747822681312267L162.52980111360552,45.49033918333821L162.859559776783,36.17525867070195L162.90077960968017,23.247308625711014L163.1068787741661,15.265089802866813L163.3954176044464,47.5334404444768L163.60151676893233,65.05180008471842L163.68395643472672,40.56979684108186L163.89005559921264,61.26194670789547L164.0137150979042,38.628753249176306L164.09615476369856,53.06405196643766L164.9205514216423,25.97459040052905L164.96177125453949,9.728977998660511L165.37396958351135,21.61697329674451L166.0747067427635,21.806763105821602L166.69300423622133,14.815835691281164L167.18764223098756,10.060258233940033L167.31130172967912,7.316877268585745L168.09447855472564,5.64159614452452L168.13569838762282,11.762869795825408L168.46545705080032,36.63330213394915L168.63033638238906,30.147583504272866L168.87765537977216,19.527171750157265L169.24863387584688,70.7433902681851L169.3722933745384,43.74960544258487L169.53717270612717,41.700505505181944L169.57839253902435,26.670941230610513L169.61961237192153,17.547302722044893L169.82571153640745,25.239737155702382L170.11425036668777,66.18561774894667L171.06230652332306,33.86965207052346L171.10352635622024,49.0409332132613L171.22718585491182,44.525941583827816L171.35084535360335,28.365034989413502L171.39206518650053,39.06193711229282L171.47450485229493,45.859024875681776L171.59816435098648,36.20872617985603L171.72182384967803,29.93611818379887L171.76304368257522,19.16214904922097L172.34012134313582,65.76060851417851L172.50500067472458,48.00722907067907L172.58744034051895,73.39204137050916L172.62866017341614,45.671610102691986L172.7110998392105,28.871431396329026L172.83475933790206,11.60911853645353L173.49427666425706,1.1882082055424332L173.74159566164016,1.759423996894783L173.8652551603317,9.441480795560539L173.9476948261261,43.21559881302809L174.11257415771485,79.75551741556046L174.2362336564064,104.03848074647202L174.64843198537827,70.71095168379533L175.01941048145295,71.25063578576706L175.10185014724732,51.44609868395053L175.26672947883606,45.091258475759545L175.59648814201353,55.433323528084635L175.92624680519106,88.08616702108377L176.2972253012657,74.8686060713413L176.3384451341629,39.063458793863035L176.70942363023758,58.116388423786354L176.83308312892913,43.41525436864872L176.9979624605179,20.256529692273936L177.28650129079818,48.69468722305821L177.49260045528413,52.67926889131307L177.9460186171532,46.210933069450874L177.98723845005037,22.03619413633955L178.0696781158447,14.860788895210534L178.1933376145363,23.300368432451435L178.27577728033066,8.283629085742636L178.97651443958281,6.6053665010098435L179.26505326986313,12.970253147886286L179.55359210014342,9.469773098369735L179.75969126462937,6.838146240256451L180.04823009490966,51.68376543492544L180.17188959360124,32.53848934926336L180.2543292593956,42.087377417101244L180.2955490922928,79.24395685344525L180.46042842388152,48.885525050392374L180.5016482567787,31.045875951831064L181.1199457502365,20.239921902206216L181.2023854160309,13.384417511156501L181.449704413414,9.066455483657444L181.90312257528305,6.982778462902901L181.98556224107742,12.668950638965365L182.15044157266618,15.648570332965395L182.31532090425492,66.97446850789308L182.43898040294647,48.598446847395486L182.48020023584365,23.361152264431585L182.52142006874084,65.02306665963813L182.6862994003296,88.23455534577869L183.34581672668455,53.889300611122394L183.46947622537613,33.841052093718496L183.59313572406768,14.59992742659225L184.00533405303955,48.79750245522978L184.08777371883392,30.52475444845743L184.1702133846283,25.958046015527945L184.2114332175255,23.400848573784206L184.54119188070297,15.661476588437388L184.58241171360015,45.21409002214732L184.99461004257202,64.13364710365586L185.20070920705797,67.07441116399282L185.8602265334129,78.41373683825529L185.90144636631013,41.18882660302471L186.18998519659044,32.955969655181164L186.35486452817915,76.02308132594558L186.5197438597679,110.74081164747687L186.60218352556228,74.92448225981155L186.6434033584595,53.38970292920961L186.97316202163697,41.18465283673075L187.13804135322573,62.03974360721884L187.26170085191725,31.393538161624868L187.34414051771162,47.48168610017717L187.42658018350602,50.57998935498202L187.63267934799197,24.51011965207537L187.83877851247786,22.570229979954973L188.00365784406662,14.789289373579107L188.16853717565536,57.6644016764863L188.3334165072441,28.83827300822968L188.49829583883286,68.80520759850003L188.6219553375244,49.66590077037305L188.78683466911315,37.70436689984897L188.82805450201033,90.35290517451888L188.86927433490754,97.76557968885109L190.06464948892594,95.8416460485599L190.64172714948654,87.52759381032574L190.68294698238373,61.31813835187133L190.7653866481781,31.048876582984658L191.09514531135557,53.86194159850545L191.21880481004715,61.230694663599415L191.3836841416359,52.7321569553209L191.4249039745331,39.58579479133084L191.54856347322462,25.050231741586057L192.20808079957962,52.950571531538856L192.2493006324768,61.20589533754441L192.290520465374,72.77545264602402L192.33174029827117,52.60602581943306L192.57905929565428,40.30532123351059L192.78515846014022,88.43489072980827L193.11491712331772,61.54198512760413L193.23857662200928,65.72901845178673L193.52711545228956,76.26012565027702L193.8568741154671,74.06555666660296L194.1041931128502,45.934126760003366L194.35151211023333,28.75895987706667L194.43395177602767,25.142065003267852L194.47517160892485,16.664800843952484L195.21712860107422,39.42994492247948L195.382007932663,25.404540433506327L195.6293269300461,23.378280634466904L195.8766459274292,35.52661845333654L195.91786576032638,42.6904141523339L196.00030542612075,19.779726624754044L196.2064045906067,6.0423619112627085L196.33006408929825,11.578556193633265L196.41250375509262,1.1236804852675415L196.49494342088698,8.788219014324964L196.65982275247575,13.223363077851907L196.82470208406448,29.68982777090663L197.0720210814476,54.429490105720994L197.15446074724198,61.49165259907366L197.31934007883072,105.80078054659694L197.4017797446251,124.92726192103933L197.52543924331664,137.9740452003251L197.64909874200822,145.62149376122224L197.81397807359696,109.81627932296014L197.89641773939132,67.01437257716029L197.9376375722885,104.52403173686983L198.06129707098006,121.58627247962289L198.5559350657463,101.23730755112734L198.67959456443788,68.83047227060005L198.76203423023225,42.77586821380833L198.8032540631294,34.214525086689L198.96813339471817,14.848047633989593L199.05057306051253,39.01884103987814L199.29789205789564,38.31733040456816L199.38033172369003,17.32793568136757L199.42155155658722,47.54977425798387L199.66887055397035,58.24747011611374L199.7513102197647,49.96169085178737L199.91618955135345,31.15860309011825L200.039849050045,43.352607565059444L200.1222887158394,27.48117931705553L201.02912503957748,18.149210035688217L201.11156470537188,40.441230248458695L201.44132336854935,39.168084444655534L201.48254320144653,38.341037414576874L201.6062027001381,61.352077397384505L201.85352169752122,38.39921248801542L202.43059935808182,61.57835417972311L202.55425885677337,38.21436080450889L202.92523735284806,24.502254305341378L203.09011668443682,36.31962160600419L203.13133651733398,22.925068728116244L203.4198753476143,59.696545544539106L203.46109518051148,64.76617696726129L203.54353484630585,33.225564813896995L204.244272005558,28.585053175309195L204.36793150424958,18.896064996210118L204.5740306687355,20.172130682471607L204.82134966611864,34.0674673340836L204.903789331913,14.586851710003305L204.98622899770737,9.661037256697803L205.1511083292961,35.47200398151391L205.31598766088487,36.472217062575425L205.5220868253708,23.223676057052785L205.7281859898567,35.767160974520564L206.26404381752013,91.81659934640643L206.34648348331453,49.357077195239825L206.63502231359482,100.83254068261073L206.79990164518355,119.21859861155706L206.88234131097795,137.09037388558744L206.92356114387513,134.42863197844568L207.74795780181884,88.88730482849952L207.87161730051042,61.835672053160884L208.11893629789353,46.31309497228621L208.32503546237947,70.88442477577294L208.48991479396818,44.20427671040618L209.06699245452882,28.376273920704183L209.108212287426,40.58861972153311L209.31431145191195,46.714464402497505L209.39675111770632,36.72280597819876L209.6852899479866,30.077034363540122L210.13870810985566,19.868947978797184L210.42724694013594,28.53958372234913L210.5921262717247,25.616172988838972L211.37530309677123,70.71560682336874L211.49896259546279,104.2669342202767L211.95238075733184,136.7064176598736L212.3645790863037,147.56410557340732L212.61189808368684,90.11609340147406L212.9416567468643,55.587515046400384L212.9828765797615,27.630807271080936L213.10653607845308,25.788160640802992L213.6423939061165,17.115024382598822L213.8897129034996,11.69553090710242L214.01337240219115,36.77387651232055L214.09581206798555,16.276324236841145L214.13703190088273,18.265474761100894L214.42557073116302,19.12276887938056L214.5492302298546,32.98553913768513L214.59045006275178,21.417177073058504L214.7965492272377,74.98485473045272L214.8377690601349,89.74715259771568L215.04386822462084,62.52729842976576L215.1675277233124,45.361333670459075L215.20874755620954,28.348615861710186L215.29118722200394,18.316010976152604L215.74460538387297,26.4000179863796L215.9919243812561,9.976161000836184L216.2392433786392,7.807741943150573L216.3216830444336,6.220075583009819L216.52778220891952,48.93275571579471L216.77510120630262,31.112473042904877L216.8987607049942,19.56130173763384L216.98120037078857,63.030831186282235L217.02242020368575,68.0983390578504L217.1460797023773,41.849396178546215L217.7231573629379,19.344923208259708L217.97047636032104,26.745592839861104L218.0941358590126,68.93115927029717L218.50633418798446,35.53222495823506L218.54755402088168,69.82961068413488L218.71243335247038,79.0965338514238L218.87731268405915,48.36905500228956L219.41317051172257,37.308072563785885L219.5780498433113,23.535185254591784L220.32000683546067,36.191444755878436L220.56732583284378,36.20019728391991L220.69098533153533,23.362013330647983L220.8146448302269,15.545085830685718L221.22684315919875,10.944638994414598L221.47416215658188,21.087393413757532L221.63904148817062,50.084248508226125L222.01001998424528,51.95935420702389L222.5046579790115,80.30917712773466L222.66953731060028,63.579590633703546L222.87563647508622,40.00741508635597L223.04051580667496,25.422897182096293L223.37027446985246,58.795125815055265L223.5351538014412,43.329313194447515L223.61759346723557,50.0886257563605L223.78247279882433,31.80900926299793L223.8236926317215,27.42852664983358L224.1122314620018,17.720470252261677L224.15345129489899,18.965177471827754L224.23589096069335,12.939481844416912L224.31833062648775,15.530803688493146L224.44199012517927,45.89194889651673L224.56564962387085,28.782876775150704L224.60686945676804,25.71625296643187L225.0602876186371,75.19886021217006L225.14272728443146,116.21415623278115L225.34882644891738,139.929526730376L225.51370578050614,176.72982422440097L225.5961454463005,167.23690864013759L225.84346444368362,94.52618806399859L226.2556627726555,137.63705424104765L226.42054210424422,76.77577983467575L226.66786110162735,54.344936376603826" fill="none"></path></g></g></g></g><g opacity="0.2"><g><g><g><path style="fill: none;" stroke="rgb(255, 112, 67)" stroke-width="2px" d="M20.980894944667817,132.8490852644663L21.022114777565005,214.10303911960392L22.093830432891846,186.98981745769365L22.13505026578903,113.9448682794748L22.25870976448059,233.6571976874631L22.341149430274964,126.80468702819226L22.629688260555266,127.8872511788933L22.670908093452454,185.11415991982756L22.794567592144013,104.48360472972747L22.8357874250412,231.17497599278323L23.454084918498996,249.29745456088142L23.536524584293364,174.55225604245692L23.783843581676482,142.88290204580775L24.0311625790596,217.74958614950089L24.48458074092865,238.5426061648839L24.731899738311768,157.02541854566545L25.226537733078,170.66711067526523L25.35019723176956,140.90096486542996L25.432636897563935,158.73571820424948L25.556296396255494,190.45027613960323L26.298253388404845,190.4606953595515L26.91655088186264,174.53454876710447L27.12265004634857,151.18286345369086L28.02948637008667,145.17619215113268L28.400464866161347,148.82239727225758L28.482904531955718,141.5278995869784L28.93632269382477,179.9703763819288L29.059982192516326,152.1510411249429L29.307301189899444,132.4071141909972L29.348521022796632,164.4299208795518L29.47218052148819,140.10422745056277L29.554620187282563,128.51636331946375L29.637059853076934,142.92090790510082L29.71949951887131,158.39492513450912L29.884378850460052,232.23721456674588L30.37901684522629,130.1081016125401L30.502676343917848,140.18540379112665L30.708775508403775,139.24085381554306L30.873654839992525,173.4029207076144L30.99731433868408,138.44494417980818L31.203413503170015,136.07271813613625L31.2446333360672,126.39897627975888L31.285853168964387,143.94818180832178L31.450732500553134,77.65622779884957L31.69805149793625,144.2363209271666L31.780491163730623,170.1611576734266L32.069029994010926,133.273825935344L32.39878865718842,137.57473236934746L32.64610765457154,142.42195503548993L32.687327487468714,187.3575493396318L32.769767153263096,183.5235823170563L32.81098698616027,169.65993740880106L32.93464648485183,175.50907874343721L33.05830598354339,142.64234223187339L33.18196548223495,185.05042092663817L33.30562498092651,136.2281876538267L33.511724145412444,133.5203871479878L33.55294397830963,141.3389320072264L33.59416381120682,120.08039420109922L33.635383644104,133.87463162862852L33.800262975692746,145.32682995801812L34.37734063625336,148.58867563376415L34.45978030204773,135.62715702056062L34.50100013494492,143.540212662473L34.995638129711146,147.333708483557L35.242957127094265,147.36424633546054L35.284176959991456,172.77573405328653L35.4490562915802,165.6124933460772L35.943694286346435,139.62773258871593L36.39711244821549,165.32026931716632L36.80931077718735,117.77967207878189L37.05662977457047,157.03707943431218L37.22150910615921,147.64678894756284L37.34516860485077,161.96130355495978L37.63370743513107,114.00336167229301L37.674927268028256,128.79845605160284L38.00468593120575,162.68006777460124L38.04590576410293,119.88463343390254L38.4581040930748,132.70912760790776L38.70542309045791,137.09105742328762L38.82908258914947,133.62569504977893L39.07640158653259,78.2509781078291L39.406160249710084,162.63200259933055L39.57103958129883,129.50852859035484L39.859578411579136,146.12999165876013L39.90079824447632,183.01311252038693L40.76641473531723,236.65658339266508L40.890074234008786,115.17107010483352L41.09617339849472,139.86125628002551L41.137393231391904,112.43323561264988L41.67325105905533,113.69554480385686L42.373988218307495,158.7054142899268L42.497647716999055,117.79896293160486L42.53886754989624,112.67834821181206L42.621307215690614,107.14905353582861L42.6625270485878,132.81242904506294L42.74496671438217,146.027509003138L42.909846045970916,113.74186444487025L42.9510658788681,128.48833579775498L43.11594521045685,132.98119701446626L43.19838487625122,126.6930358189197L43.40448404073715,98.56106997789115L43.48692370653153,191.2636231227126L43.569363372325896,152.65137962484053L44.06400136709213,147.84153298604264L44.18766086578369,121.06322896155307L44.476199696064,131.6085592610786L44.929617857933046,112.89501939969932L45.012057523727414,125.40690098486046L45.09449718952179,128.19190089238836L45.13571702241897,112.77976915072097L45.176936855316164,115.1317685912464L45.63035501718521,113.97211301004755L45.6715748500824,116.62987786637689L45.79523434877396,112.16716760480077L45.87767401456833,90.82448425035244L45.91889384746552,135.69802211236743L46.207432677745814,95.8954232246062L46.248652510643005,170.77608959755628L47.11426900148392,117.62404060430464L47.1554888343811,144.86160009045037L47.36158799886704,113.09670058721203L47.65012682914734,115.17738641951718L47.732566494941715,112.91501206526493L47.81500616073608,112.7234711721233L48.0623251581192,113.93675244493828L48.14476482391357,112.2416047435156L48.30964415550232,97.07417171144422L48.47452348709107,68.71710393201764L48.55696315288544,113.91262088371101L48.804282150268556,95.884257203919L48.927941648960115,97.31907736582333L49.463799476623535,78.95768554445618L49.50501930952072,126.54621299412236L49.587458975315094,95.32635206392744L49.66989864110947,118.33747824518156L49.79355813980103,78.95306977603352L49.8759978055954,82.83934884073251L49.95843747138977,95.0889414097356L50.04087713718415,96.71765983578884L50.164536635875706,112.52219487657752L50.20575646877289,98.63469733267218L50.288196134567265,119.52912928936479L50.61795479774475,99.75328787082807L50.659174630641935,111.44030554582132L50.74161429643631,115.19232243429617L50.782834129333494,114.36039540870571L50.94771346092224,81.59449499209857L51.23625229120255,95.48477279417665L51.483571288585665,59.49713799934437L51.52479112148285,100.01236474404868L51.56601095438003,80.9123599990627L51.77211011886597,77.38538206579106L51.81332995176315,78.5089932643365L52.22552828073502,96.63190371719936L52.266748113632204,74.68463567777546L52.39040761232376,60.40083437546772L52.63772660970688,60.00300102519037L52.678946442604065,60.76981242490398L52.88504560708999,77.57678799494373L53.04992493867874,77.87403268424416L53.09114477157593,59.22979233239971L53.42090343475342,78.93259124010761L53.66822243213654,79.72699827676533L53.70944226503372,42.205178332551775L53.997981095314024,31.46995370055L54.039200928211216,23.43633922609321L54.32773975849152,4.590341207142342L54.49261909008026,39.62497278188204L54.73993808746338,96.89339194702285L55.11091658353806,39.12973592076736L55.31701574802399,26.379022060730634L55.52311491250992,40.31331161961075L55.770433909893036,20.544346616311888L55.894093408584595,78.81344503064776L55.93531324148178,94.53300674398294L56.30629173755646,59.810785312103896L56.63605040073395,80.21675559992796L56.75970989942551,58.64093545093842L57.213128061294555,172.80659581876358L57.46044705867767,3.8325319054927944L57.91386522054672,20.037680554731526L57.95508505344391,151.6389517604059L57.99630488634109,39.21704412522997L58.65582221269607,216.1502628802446L58.82070154428482,146.40152120936273L59.109240374565125,202.38848879086143L59.31533953905106,216.64899980747316L59.480218870639796,56.90390842373933L59.52143870353699,26.212193073968805L59.603878369331355,200.35308787565427L60.057296531200414,203.46398982613988L60.42827502727509,42.99013339118216L60.551934525966644,23.915375909732255L60.59315435886383,139.86086038565787L60.6755940246582,174.73816443845902L60.88169318914414,60.58809241135949L61.005352687835696,21.765889934651447L61.21145185232162,40.98614759380683L61.33511135101318,41.94967800503878L61.66487001419067,22.225674005264366L61.912189011573794,3.4010452845665666L61.99462867736816,21.35824245297638L62.24194767475128,-14.498067618190035L62.53048650503159,4.308023535021634L62.98390466690063,3.0967700961408937L63.06634433269501,21.81096565756653L63.43732282876969,42.45595042165131L63.478542661666864,64.08647147536908L63.56098232746125,39.36512211512469L63.602202160358424,59.35846250068101L64.05562032222748,55.57092758910973L64.22049965381622,41.52230553637623L64.5914781498909,-14.384817278955987L64.88001698017119,4.668426872358875L64.92123681306839,41.52129330645898L64.96245664596557,40.58788235876476L65.08611614465714,-13.780416201240435L65.12733597755431,4.181798464340465L65.20977564334869,4.749247807751809L65.33343514204024,22.93336218021128L65.53953430652619,3.6748759711810854L65.62197397232055,-14.596652916242455L65.99295246839523,150.18621737836608L66.11661196708678,160.86813123472598L66.94100862503052,2.4290481324267525L67.14710778951645,37.75877172084289L67.18832762241364,18.84446392827629L67.35320695400237,22.35541038905851L67.55930611848831,4.337362456823206L67.68296561717987,108.79158327675279L67.93028461456299,-14.631637488900461L68.17760361194611,38.19679734703453L68.34248294353485,21.382893625561163L68.75468127250672,23.013317096675014L68.83712093830108,2.9381649151067584L68.91956060409547,4.240035425579621L69.37297876596452,21.56311778822795L69.4141985988617,21.750949421072818L69.57907793045044,21.197246159937738L69.99127625942229,57.28330119432421L70.40347458839416,21.335975644196676L70.44469442129135,4.0683657304135314L70.69201341867446,62.86453451206171L70.85689275026321,20.31564563820805L70.8981125831604,64.0002834720149L71.22787124633788,3.94789574916188L71.5164100766182,45.06319825691035L71.59884974241257,20.798155395163178L72.25836706876755,19.55246701919746L72.62934556484223,-14.536771406496339L72.7117852306366,21.212209167514523L72.83544472932815,21.591847122679344L73.24764305830003,21.328314188422993L73.45374222278595,21.104042278557095L73.53618188858033,74.9475815186798L73.78350088596345,3.9079857729244796L73.907160384655,3.5043422229221037L74.11325954914093,74.95414976614285L74.27813888072967,38.73322521758188L74.73155704259872,53.97534282234784L74.89643637418747,58.72205780590671L75.34985453605651,4.517622609887038L75.55595370054245,4.314420828098665L75.67961319923401,4.037056334373055L75.7208330321312,40.55507711184658L75.80327269792556,-14.613907104479605L75.84449253082275,4.563485622737773L76.09181152820587,61.78729694012524L76.13303136110306,224.26757302305933L76.33913052558898,95.72572850247865L76.38035035848618,117.50693684987782L76.46279002428054,-14.258625176040859L76.75132885456085,69.57144397737585L77.24596684932709,39.914412053820556L77.28718668222427,3.931940756266186L77.49328584671021,41.71790884558576L77.57572551250458,3.3406680194023832L77.78182467699051,-14.63460174094875L78.11158334016801,21.687120451890813L78.52378166913986,-14.607985577037132L78.64744116783142,22.322247487569552L78.7298808336258,38.24293253726301L79.18329899549484,21.629547063597396L79.38939815998077,3.9166808279136704L79.88403615474701,60.91073282458384L80.29623448371888,-14.331076094718044L80.66721297979355,23.141924281761465L81.0794113087654,122.01116203446009L81.28551047325134,-14.60085068291492L81.4091699719429,22.83050612421971L81.45038980484009,134.9143582092315L81.49160963773728,22.412338199604687L81.65648896932602,66.16595162937281L82.35722612857819,140.4134929324805L82.48088562726974,3.869005923511077L82.56332529306411,4.239709262606282L82.64576495885849,99.1010968881443L82.9343037891388,4.548902763729903L83.01674345493316,23.54093631754246L83.47016161680222,20.8159031597123L83.5113814496994,-14.55698663962969L83.75870044708252,21.148184500548496L83.8411401128769,42.324009626037395L84.00601944446564,4.615345535498241L84.50065743923187,3.845359107944177L84.91285576820373,61.90951133093428L84.99529543399811,22.92688165934106L85.0365152668953,4.431106194159704L85.07773509979248,4.431151182156036L85.24261443138123,4.454182786873199L85.53115326166153,3.9482938929293296L85.73725242614746,55.86723652808664L85.77847225904465,4.196106896570764L85.81969209194183,41.668224102447475L85.94335159063338,210.37328229170936L86.2318904209137,63.39212674013136L86.64408874988555,175.970295681733L86.76774824857712,22.52296368256111L86.89140774726867,3.9519930309269222L86.97384741306306,3.796746203818255L87.0975069117546,4.350019829588464L87.13872674465179,21.17741095235925L87.26238624334336,58.353601617227795L87.38604574203491,21.30858245323606L87.55092507362366,3.419281168875802L87.96312340259553,4.309933275465524L88.58142089605332,-14.660101974096936L88.78752006053924,4.238885982273584L89.03483905792235,20.259858273368646L89.07605889081955,136.9426330258212L89.85923571586609,200.2862357131194L89.98289521455764,23.46717399877248L90.06533488035203,41.557742581079275L90.35387371063233,64.25164040506662L90.39509354352951,4.589875581380405L90.47753320932388,60.751421332007446L90.724852206707,215.98146791804348L91.0133910369873,3.6914079351295994L91.3431497001648,22.594474352115157L91.54924886465072,41.590633305190465L91.59046869754792,23.20030520458886L92.12632652521134,3.8635747476550684L92.24998602390289,40.96274033932035L92.29120585680008,22.727422878846696L92.70340418577194,61.40648254885658L92.82706368446351,58.64210064004316L92.95072318315506,60.74315253828342L92.99194301605225,4.354338677235397L93.28048184633255,104.34295425802556L93.48658101081848,160.30223622658755L93.56902067661287,-14.552258858125564L93.61024050951004,42.744647391650496L94.55829666614532,102.71219337693931L95.01171482801438,41.405273762743505L95.38269332408905,39.02627702562507L95.54757265567778,4.261996315984332L96.00099081754685,41.348755342963855L96.4544089794159,3.4432260299183266L96.70172797679902,20.77750815425107L96.82538747549057,78.84682612391887L96.86660730838776,4.23368312049892L96.94904697418214,21.43907013656877L96.99026680707931,66.43337827471085L97.07270647287369,3.967153985687528L97.56734446763993,42.10046877111172L97.6910039663315,40.21059502640778L97.77344363212585,37.60182659687305L97.85588329792023,22.011645862161043L98.02076262950897,4.505563577472859L98.06198246240616,62.70847115281978L98.10320229530335,4.555639716179164L98.2268617939949,38.490294536241315L98.43296095848083,21.148652375710242L98.68027995586395,22.40097873053331L98.96881878614425,4.366552918236894L99.05125845193864,22.911495764598854L99.133698117733,123.83104345448588L99.29857744932175,4.412739844661137L99.38101711511612,21.568138448617514L99.99931460857391,74.39388725514398L100.0817542743683,-14.579318399829068L100.32907327175141,22.082834867541393L100.37029310464858,4.0428417907000975L100.45273277044296,20.68873559050818L100.57639226913453,-14.56554177492095L100.74127160072327,4.336568418688118L100.78249143362045,20.661101713767227L100.86493109941482,21.74652260223471L101.11225009679794,60.37080938672225L101.35956909418105,21.196857013769552L101.56566825866699,4.62972819792248L101.85420708894729,46.43725313218217L101.89542692184448,83.77395646912889L102.06030625343323,3.6439219803115392L102.30762525081634,46.40560857556911L102.55494424819946,51.79419879425506L102.67860374689103,108.34385373975441L102.80226324558258,61.908485604618136L102.92592274427415,22.37279824963706L102.96714257717133,42.14372023077593L103.17324174165726,40.14289708954204L103.25568140745162,22.713411367392126L103.37934090614318,38.69200721535142L103.42056073904038,58.377697188057994L103.87397890090942,59.38655300558463L103.9564185667038,22.475476603043152L104.65715572595597,43.449267385248234L104.69837555885316,59.81196399760752L104.73959539175033,40.19911408974634L104.82203505754471,22.55566095828813L104.90447472333909,4.159524907361305L104.94569455623626,4.500367463897631L104.98691438913345,4.398044515662468L105.02813422203064,40.851889916382305L105.06935405492783,3.793286626901066L105.11057388782501,4.564126701685354L105.15179372072221,40.04060338350449L105.31667305231095,57.769508964577014L105.35789288520813,41.91817291121431L105.4403325510025,23.000216592145975L105.52277221679688,-14.607341580899138L105.56399204969406,3.948720154194474L106.14106971025467,62.745388302601825L106.30594904184342,3.7758414066272104L106.80058703660966,4.433416327770856L107.08912586688996,3.2288908437400914L107.74864319324493,5.370086655798613L107.83108285903931,4.156481469410117L107.91352252483368,104.13381406072264L108.4493803524971,22.957768168216116L108.53182001829148,4.133083212522907L108.61425968408584,40.1628267719128L108.65547951698304,4.254852222168355L108.69669934988022,54.81876877979827L108.90279851436615,4.850396569282967L108.98523818016052,3.9356398942637787L109.02645801305772,48.608279359902085L109.35621667623519,21.40979194856225L109.39743650913239,22.80542756566987L109.52109600782396,3.759017020702591L109.80963483810424,60.81165126148368L110.05695383548736,21.793112171226046L110.09817366838455,-14.569514478597725L110.30427283287048,42.72700759829255L110.51037199735642,24.016337971078656L110.5515918302536,54.732540287247396L110.63403149604798,3.840216979964546L110.71647116184235,-14.603285051932309L110.96379015922547,4.992088513099736L111.08744965791702,121.89246570496346L111.21110915660859,20.689010017285735L111.4584281539917,196.4389522436325L111.66452731847764,23.641129084151757L111.70574715137481,79.0040501734659L112.406484310627,177.00016089354216L112.77746280670166,163.59026491619318L112.81868263959885,184.58751243968067L113.06600163698197,21.001521383138115L113.18966113567352,141.88656188885798L113.2308809685707,4.7018754476244835L113.5606396317482,61.79390117798533L113.64307929754257,4.625899719435452L113.68429913043975,52.50454575978462L113.89039829492569,26.31961991038672L113.93161812782287,42.342868594095684L113.97283796072006,38.90178174340249L114.4674759554863,-14.63119486676635L114.71479495286941,-14.288963850620073L114.87967428445816,77.67077691686019L115.25065278053285,154.43060089379026L115.62163127660752,21.64896163341026L115.6628511095047,23.089841678419173L115.86895027399063,2.7159523307725117L115.951389939785,-14.190234494325509L116.11626927137374,3.334974788467796L116.15748910427094,22.59352735479258L116.94066592931748,21.907334444488445L117.06432542800903,80.35074784817418L117.27042459249496,4.175218969878335L117.55896342277526,23.80363472446703L117.60018325567245,61.17010661858017L118.383360080719,42.393943466320344L119.08409723997116,-14.278414552098102L119.16653690576554,77.31239354055782L119.53751540184021,201.20064373116708L120.23825256109238,228.32061359252566L120.27947239398956,157.97835428376354L120.4443517255783,140.1321919890767L121.0626492190361,-14.60396043422711L121.43362771511077,-14.148515578873521L121.68094671249389,125.87822222713022L121.88704587697983,90.23116455965598L122.21680454015731,99.94921959241076L122.2992442059517,3.378249866830079L122.58778303623198,3.69036871241455L122.71144253492355,206.55031033543503L122.75266236782075,163.63807815868446L123.61827885866165,160.8690129994539L123.65949869155884,205.32706872023428L123.90681768894196,22.36460818490658L124.36023585081101,4.226912427052426L124.40145568370819,-14.334944289170565L124.44267551660538,-14.63661586760288L124.48389534950256,2.89543081740025L124.52511518239973,218.1123333614465L124.6899945139885,4.1068034744712625L124.77243417978285,69.98272423975394L124.81365401268006,159.7358913384859L125.22585234165192,171.7694065611532L125.34951184034348,2.7556249953293004L125.43195150613785,-14.306359092041761L125.47317133903503,158.14664538040583L125.76171016931532,3.7705418206604486L125.96780933380126,-14.648298696684526L126.1739084982872,218.24546184016333L126.792205991745,162.0066334600541L127.24562415361403,55.933364383880736L127.28684398651124,37.885030532521284L127.36928365230561,90.10013252156777L127.45172331809997,106.66307520435706L127.61660264968873,-14.624781740023423L128.3173398089409,55.06281966224724L128.39977947473525,145.0419839605041L128.56465880632402,53.766418567427266L128.77075797080994,36.62488526393743L128.8944174695015,20.482546605763993L129.01807696819304,147.0835572288067L129.14173646688462,232.36048167666885L129.51271496295928,19.76188839147737L129.5539347958565,22.283175412763676L129.67759429454804,4.114797841417717L129.96613312482833,20.033303222689373L130.00735295772552,-14.608054025570603L130.70809011697767,5.0309761371206845L130.74930994987486,-13.90709775949678L130.79052978277207,40.37215591880027L130.9554091143608,237.81910920802932L130.996628947258,90.9493079449482L131.53248677492144,180.0999418113369L132.06834460258486,128.79488400469486L132.1507842683792,22.00620231460606L132.31566359996796,63.31543120400116L132.39810326576233,90.91292165352274L132.4805429315567,21.150064998794775L132.7278619289398,134.90371404930164L132.8103015947342,42.964422751284005L133.0988404250145,35.97677019372045L133.428599088192,37.6599645845203L133.6759180855751,41.555938562426746L133.7583577513695,22.362183331904816L133.92323708295822,38.38698860028651L133.9644569158554,21.793125667624935L134.12933624744414,212.9735524887388L134.3354354119301,22.015562067240904L134.45909491062164,20.09410449971891L134.5827544093132,54.71849053599595L134.62397424221038,55.61794454406613L134.9125130724907,21.765914678049416L134.99495273828506,-14.617079215129667L135.57203039884567,22.570923136040456L135.69568989753722,3.8111772283385337L135.7369097304344,58.38967299267896L136.02544856071472,216.1389978859655L136.0666683936119,3.7984231313811776L136.1078882265091,217.34897703985044L136.23154772520064,113.82232997509226L136.3964270567894,3.886871781550538L136.6849658870697,21.896316884189126L136.7674055528641,38.7875617195399L136.97350471734998,21.177134276181864L137.26204354763033,4.101093373038058L137.3032633805275,129.33288645511348L137.42692287921906,126.8408753724339L138.29253937005998,-14.46833742383454L138.5398583674431,56.90442128689741L138.62229803323746,3.5414224541908172L138.8283971977234,-14.441883216709638L139.19937569379806,113.75461404302798L139.24059552669524,145.8231015430482L139.48791452407835,168.4140218434539L139.52913435697556,189.14319489445634L139.73523352146148,36.85493588193091L140.14743185043335,196.95487458545617L140.8893888425827,3.7190631811687944L140.97182850837706,20.716866584608475L141.13670783996582,2.7386656454157063L141.34280700445174,73.79360342261683L141.63134583473206,37.67194938674056L141.67256566762924,-14.374533936815393L141.75500533342364,54.12758670070199L141.83744499921798,37.56596216620495L141.96110449790953,3.2596457627259032L142.00232433080674,20.566473962302997L142.24964332818985,20.08169006213378L142.45574249267577,37.73840565490778L142.66184165716172,3.091505375871282L142.82672098875045,79.85390041679116L143.19769948482514,37.577380119671524L143.69233747959137,-14.344664754154055L144.2281953072548,20.11159133388937L144.35185480594635,-14.083546726334697L144.39307463884353,37.89508984849895L144.4342944717407,4.691989335432671L144.64039363622666,4.1030121110811955L144.97015229940413,21.983769050239957L145.17625146389005,19.70989576412774L145.29991096258163,22.845280182211944L145.34113079547882,3.5359384174391457L145.50601012706758,133.1485433631858L146.00064812183382,55.096439191898874L146.16552745342253,38.3501434312986L146.2891869521141,55.35552056391912L146.53650594949724,43.13589000046665L146.74260511398316,138.0265738092097L146.78382494688034,90.28176705791925L146.82504477977753,78.09353811589972L146.8662646126747,72.17941611937567L147.44334227323532,4.161171468026701L147.93798026800155,19.01192049758681L148.7623769259453,3.3520915963685005L148.92725625753403,22.84340643216512L149.09213558912276,21.77848432422186L149.13335542201995,21.511237630869118L149.17457525491713,55.913920571870264L149.3394545865059,2.5415001280338783L149.42189425230026,38.06056469657149L149.46311408519745,4.033846440835451L149.50433391809463,73.80166527155777L149.66921324968337,21.454325566121643L149.83409258127213,38.61839785576895L149.9165322470665,179.97820429328888L150.12263141155242,3.6502979040903116L150.246290910244,38.70870226078662L150.36995040893555,94.00082574028843L150.61726940631866,175.56617750836944L150.69970907211302,164.31489557055505L150.8233685708046,35.054466782318194L151.0706875681877,127.53186400314598L151.48288589715958,23.37685609735592L151.89508422613144,74.32481268559079L152.05996355772018,4.589301984427292L152.22484288930895,201.65896344249973L152.26606272220613,74.51530085961849L152.3072825551033,136.459353974129L152.47216188669205,-14.614373090496992L152.55460155248642,4.305371492638441L152.63704121828079,57.77885747021278L152.9667998814583,4.078711844867741L153.04923954725265,58.225750230479555L153.2553387117386,59.647433897457766L153.4202180433273,3.6948000300523014L153.79119653940202,133.4688219066032L154.0797353696823,-14.330339240543912L154.3682741999626,38.576383566003585L154.450713865757,60.76367606220563L154.65681303024292,150.94763021852106L154.82169236183165,40.914058828500025L155.0277915263176,120.96717059180577L155.43998985528944,4.359075913248144L155.48120968818665,-14.562787419992999L155.6460890197754,23.04989233768502L155.68730885267257,130.05327024262252L155.9758476829529,173.2704400560446L156.1819468474388,170.57042247356944L156.30560634613036,114.61919335634914L156.4292658448219,37.96251335858712L156.7590245079994,56.80119183053636L156.96512367248536,3.9065574040412465L157.04756333827973,100.84712601340745L157.25366250276565,-14.441215988489171L157.50098150014878,59.552702673601985L157.58342116594315,21.911300136364257L157.66586083173752,134.6724577530067L157.7483004975319,21.81060800299577L157.99561949491502,21.834937511406853L158.16049882650375,89.29184218924502L158.44903765678407,90.2654544104528L158.73757648706436,21.41988725493696L159.1909946489334,23.267886172664156L159.31465414762496,21.99721371294087L159.35587398052215,36.88661193014142L159.5207533121109,3.954722677603764L160.30393013715744,4.283523072224529L160.34514997005462,58.49957866769424L160.6749086332321,57.452928434457284L160.83978796482086,72.63570237327454L160.92222763061523,55.04325888144633L160.96344746351244,127.00607129492924L161.3344259595871,72.60163746245932L161.37564579248428,4.160188480307061L161.49930529117586,115.19782896504601L161.66418462276457,22.031168403165083L161.87028378725051,23.550163355588158L161.9527234530449,3.069270058688998L161.9939432859421,4.394049581589062L162.03516311883928,-14.510426066807879L162.52980111360552,106.6041139363771L162.859559776783,22.20263790174756L162.90077960968017,3.855383558224691L163.1068787741661,3.2917615686004407L163.3954176044464,95.93596640689182L163.60151676893233,91.32933954508083L163.68395643472672,3.846791975627053L163.89005559921264,92.30017150811588L164.0137150979042,4.678963061097554L164.09615476369856,74.71700004232969L164.9205514216423,-14.659601948333913L164.96177125453949,-14.639440604142234L165.37396958351135,39.44896624387047L166.0747067427635,22.091447819437292L166.69300423622133,4.3294445694704855L167.18764223098756,2.9268920479283174L167.31130172967912,3.201805820554282L168.09447855472564,3.1286744584327226L168.13569838762282,20.94478027277668L168.46545705080032,73.93895064113477L168.63033638238906,20.41900555975845L168.87765537977216,3.5965541189838364L169.24863387584688,147.56771804522685L169.3722933745384,3.2589282041845493L169.53717270612717,38.62685559907753L169.57839253902435,4.126594818753335L169.61961237192153,3.8618449591964636L169.82571153640745,36.7783888061886L170.11425036668777,127.60443863881306L171.06230652332306,-14.604296447111357L171.10352635622024,71.79785492736808L171.22718585491182,37.75345413967759L171.35084535360335,4.123675097792006L171.39206518650053,55.107290296611815L171.47450485229493,56.05465652076517L171.59816435098648,21.73327813611745L171.72182384967803,20.527206189713112L171.76304368257522,3.0011953473540696L172.34012134313582,135.65829771161486L172.50500067472458,21.377159905429906L172.58744034051895,111.46925982025432L172.62866017341614,4.0909632009662L172.7110998392105,3.6711633367845833L172.83475933790206,-14.28435075335968L173.49427666425706,-14.44315729082422L173.74159566164016,2.6162476839233073L173.8652551603317,20.964565993559194L173.9476948261261,93.87677583922944L174.11257415771485,134.565395319359L174.2362336564064,140.4629257428394L174.64843198537827,20.719658089780285L175.01941048145295,72.06016193872463L175.10185014724732,21.73929303122573L175.26672947883606,35.55899816347306L175.59648814201353,70.94642110657229L175.92624680519106,137.06543226058247L176.2972253012657,55.04226464672761L176.3384451341629,-14.644262122354329L176.70942363023758,86.69578286867133L176.83308312892913,21.36355328594222L176.9979624605179,-14.481557322288165L177.28650129079818,91.3519235192346L177.49260045528413,58.65614139369534L177.9460186171532,36.50842933665763L177.98723845005037,-14.225914263327475L178.0696781158447,4.097681033517012L178.1933376145363,35.95973773831283L178.27577728033066,-14.241479934320616L178.97651443958281,4.087972623910675L179.26505326986313,22.51758311820097L179.55359210014342,4.219053024094927L179.75969126462937,2.890705953086517L180.04823009490966,118.9521942269289L180.17188959360124,3.820575220770253L180.2543292593956,56.410709518858056L180.2955490922928,134.9788260079613L180.46042842388152,3.347877345813016L180.5016482567787,4.2864023039891705L181.1199457502365,4.030990827768901L181.2023854160309,3.1011609245819374L181.449704413414,2.589512442408908L181.90312257528305,3.857262931771056L181.98556224107742,21.198208903059033L182.15044157266618,20.11799987396548L182.31532090425492,143.9633157702846L182.43898040294647,21.034414356649144L182.48020023584365,-14.49478961001426L182.52142006874084,127.51593825244792L182.6862994003296,123.05178837498951L183.34581672668455,2.3714185091379436L183.46947622537613,3.768679317612701L183.59313572406768,-14.261759574097152L184.00533405303955,100.09386499818608L184.08777371883392,3.1156324382989045L184.1702133846283,19.107983366133727L184.2114332175255,19.565052411168608L184.54119188070297,4.052418610417188L184.58241171360015,89.54301017271219L184.99461004257202,92.5129827259187L185.20070920705797,71.48555725449822L185.8602265334129,95.42272534964897L185.90144636631013,-14.64853874982114L186.18998519659044,20.606684233415834L186.35486452817915,140.6237488320922L186.5197438597679,162.81740712977384L186.60218352556228,21.19998817831357L186.6434033584595,21.087533933306656L186.97316202163697,22.877077698012513L187.13804135322573,93.32237976295097L187.26170085191725,-14.57577000676605L187.34414051771162,71.61390800800562L187.42658018350602,55.22744423718929L187.63267934799197,-14.59468490228461L187.83877851247786,19.66039547177436L188.00365784406662,3.1178784640152966L188.16853717565536,121.97707013084708L188.3334165072441,-14.400919994155227L188.49829583883286,128.75560948390552L188.6219553375244,20.956940528182578L188.78683466911315,19.762066094062845L188.82805450201033,169.32571258652374L188.86927433490754,108.88459146034943L190.06464948892594,92.95574558812311L190.64172714948654,75.05651545297451L190.68294698238373,22.00395516418975L190.7653866481781,-14.355016070345368L191.09514531135557,88.08153912178658L191.21880481004715,72.28382426124037L191.3836841416359,39.984350392903146L191.4249039745331,19.866251545345758L191.54856347322462,3.246887166968904L192.20808079957962,94.80108121646802L192.2493006324768,73.58888104655274L192.290520465374,90.1297886087434L192.33174029827117,22.351885579546646L192.57905929565428,21.854264354626885L192.78515846014022,160.6292449742548L193.11491712331772,21.202626724297875L193.23857662200928,72.00956843806063L193.52711545228956,92.05678644801249L193.8568741154671,70.77370319109188L194.1041931128502,3.7369819001039573L194.35151211023333,2.9962095526616532L194.43395177602767,19.716722692569647L194.47517160892485,3.948904604979403L195.21712860107422,73.57766104026999L195.382007932663,4.36643370004664L195.6293269300461,20.338890935907774L195.8766459274292,53.749125181640984L195.91786576032638,53.43610770082998L196.00030542612075,-14.586304666615757L196.2064045906067,-14.563685158974286L196.33006408929825,19.882847617189032L196.41250375509262,-14.558633077281034L196.49494342088698,20.28502680791113L196.65982275247575,19.876079173142347L196.82470208406448,54.3895248104887L197.0720210814476,91.53898360794255L197.15446074724198,72.0848963391026L197.31934007883072,172.26447246788186L197.4017797446251,153.61698398270295L197.52543924331664,157.54422011925374L197.64909874200822,157.09266660256796L197.81397807359696,56.108457665566974L197.89641773939132,2.811512458460531L197.9376375722885,160.78852047643412L198.06129707098006,147.17963359375253L198.5559350657463,70.713860158384L198.67959456443788,20.22021934980909L198.76203423023225,3.693962128620798L198.8032540631294,21.37251039600999L198.96813339471817,-14.201668545059528L199.05057306051253,75.275031148711L199.29789205789564,37.26506445160315L199.38033172369003,-14.15615640343326L199.42155155658722,92.88253212290826L199.66887055397035,74.29401390330857L199.7513102197647,37.53302195529778L199.91618955135345,2.953971447614588L200.039849050045,61.6436142774712L200.1222887158394,3.674036945049666L201.02912503957748,4.151256113637278L201.11156470537188,73.8792605676144L201.44132336854935,37.25836573895077L201.48254320144653,37.10046686945891L201.6062027001381,95.86863737159592L201.85352169752122,3.9699151239617927L202.43059935808182,96.3470667172846L202.55425885677337,3.1683707416875833L202.92523735284806,3.9340945565901038L203.09011668443682,54.045672556998426L203.13133651733398,2.833239411284358L203.4198753476143,114.85376076917338L203.46109518051148,72.37062410134455L203.54353484630585,-14.085353416149472L204.244272005558,21.62428571742751L204.36793150424958,4.362582727561456L204.5740306687355,22.086229211863905L204.82134966611864,54.910472311501564L204.903789331913,-14.634071726117089L204.98622899770737,2.272315576739547L205.1511083292961,74.18845406873801L205.31598766088487,37.972536684167714L205.5220868253708,3.3508645487688136L205.7281859898567,54.58238835072222L206.26404381752013,175.89075690423527L206.34648348331453,-14.332206031510054L206.63502231359482,178.04573591366702L206.79990164518355,146.79768550497656L206.88234131097795,163.898036796633L206.92356114387513,130.43601911773305L207.74795780181884,20.575314103580304L207.87161730051042,21.258222890152936L208.11893629789353,23.02922935097421L208.32503546237947,107.74141948100305L208.48991479396818,4.18405461235602L209.06699245452882,4.634269736151199L209.108212287426,58.90713842277648L209.31431145191195,55.9032314239441L209.39675111770632,21.735318341750652L209.6852899479866,20.10837694155214L210.13870810985566,4.556818401682811L210.42724694013594,41.54553733767704L210.5921262717247,21.23105688857373L211.37530309677123,138.36475757516337L211.49896259546279,154.5939253156386L211.95238075733184,185.36564281926897L212.3645790863037,163.85063744370788L212.61189808368684,3.944075143574202L212.9416567468643,3.794647513789831L212.9828765797615,-14.304254391898201L213.10653607845308,23.02419069538611L213.6423939061165,4.105319995292536L213.8897129034996,3.566290693857865L214.01337240219115,74.39139492014773L214.09581206798555,-14.470004176377964L214.13703190088273,21.24920054749049L214.42557073116302,20.408710056800093L214.5492302298546,53.77969452514197L214.59045006275178,4.064633976118581L214.7965492272377,155.33637121654405L214.8377690601349,111.89059939861008L215.04386822462084,21.697517177840876L215.1675277233124,19.612386531499077L215.20874755620954,2.8295391485868495L215.29118722200394,3.267103647816225L215.74460538387297,38.526028501720084L215.9919243812561,-14.659624477478946L216.2392433786392,4.555113356622194L216.3216830444336,3.838576042798689L216.52778220891952,113.00177591497204L216.77510120630262,4.382049033570105L216.8987607049942,2.2345447797272984L216.98120037078857,128.2351253592548L217.02242020368575,75.69960086520267L217.1460797023773,2.47598185958996L217.7231573629379,-14.411786247170062L217.97047636032104,37.846597287263194L218.0941358590126,132.20950891595132L218.50633418798446,-14.566176509858092L218.54755402088168,121.27568927298454L218.71243335247038,92.99691860235723L218.87731268405915,2.277836728588199L219.41317051172257,20.716598906030356L219.5780498433113,2.875854290800613L220.32000683546067,55.17583400780838L220.56732583284378,36.213326075982145L220.69098533153533,4.104737400740158L220.8146448302269,3.8196945807422495L221.22684315919875,4.043968740007959L221.47416215658188,36.30152504277192L221.63904148817062,93.57953114992898L222.01001998424528,54.77201275522054L222.5046579790115,122.83391150880081L222.66953731060028,38.4852108926569L222.87563647508622,4.64915176533461L223.04051580667496,3.546120325706771L223.37027446985246,108.85346876449368L223.5351538014412,20.130594263535894L223.61759346723557,60.22759459922997L223.78247279882433,4.389584522954077L223.8236926317215,20.857802730087034L224.1122314620018,3.1583856559038614L224.15345129489899,20.83223830117691L224.23589096069335,3.900938403300601L224.31833062648775,19.41778645460751L224.44199012517927,91.43366670855214L224.56564962387085,3.1192685931016526L224.60686945676804,21.116317253353625L225.0602876186371,149.42277108077735L225.14272728443146,177.73710026369778L225.34882644891738,175.5025824767683L225.51370578050614,231.93027046543838L225.5961454463005,152.99753526374252L225.84346444368362,-14.539892800209895L226.42054210424422,-14.516131774882055L226.66786110162735,20.698671189495947" fill="none"></path></g></g></g></g></g></g><g transform="translate(82, 176)" clip-path="url(#clip_1)"><clipPath id="clip_1"><rect width="247" height="23"></rect></clipPath><g><g><line x1="0" y1="0" x2="0" y2="5" style="visibility: inherit;" fill="rgb(0, 0, 0)" stroke="rgb(204, 204, 204)" stroke-width="1px"></line><line x1="20.60991644859314" y1="0" x2="20.60991644859314" y2="5" style="visibility: inherit;" fill="rgb(0, 0, 0)" stroke="rgb(204, 204, 204)" stroke-width="1px"></line><line x1="41.21983289718628" y1="0" x2="41.21983289718628" y2="5" style="visibility: inherit;" fill="rgb(0, 0, 0)" stroke="rgb(204, 204, 204)" stroke-width="1px"></line><line x1="61.82974934577942" y1="0" x2="61.82974934577942" y2="5" style="visibility: inherit;" fill="rgb(0, 0, 0)" stroke="rgb(204, 204, 204)" stroke-width="1px"></line><line x1="82.43966579437256" y1="0" x2="82.43966579437256" y2="5" style="visibility: inherit;" fill="rgb(0, 0, 0)" stroke="rgb(204, 204, 204)" stroke-width="1px"></line><line x1="103.0495822429657" y1="0" x2="103.0495822429657" y2="5" style="visibility: inherit;" fill="rgb(0, 0, 0)" stroke="rgb(204, 204, 204)" stroke-width="1px"></line><line x1="123.65949869155884" y1="0" x2="123.65949869155884" y2="5" style="visibility: inherit;" fill="rgb(0, 0, 0)" stroke="rgb(204, 204, 204)" stroke-width="1px"></line><line x1="144.26941514015198" y1="0" x2="144.26941514015198" y2="5" style="visibility: inherit;" fill="rgb(0, 0, 0)" stroke="rgb(204, 204, 204)" stroke-width="1px"></line><line x1="164.87933158874512" y1="0" x2="164.87933158874512" y2="5" style="visibility: inherit;" fill="rgb(0, 0, 0)" stroke="rgb(204, 204, 204)" stroke-width="1px"></line><line x1="185.48924803733826" y1="0" x2="185.48924803733826" y2="5" style="visibility: inherit;" fill="rgb(0, 0, 0)" stroke="rgb(204, 204, 204)" stroke-width="1px"></line><line x1="206.0991644859314" y1="0" x2="206.0991644859314" y2="5" style="visibility: inherit;" fill="rgb(0, 0, 0)" stroke="rgb(204, 204, 204)" stroke-width="1px"></line><line x1="226.70908093452454" y1="0" x2="226.70908093452454" y2="5" style="visibility: inherit;" fill="rgb(0, 0, 0)" stroke="rgb(204, 204, 204)" stroke-width="1px"></line><line x1="247.31899738311768" y1="0" x2="247.31899738311768" y2="5" style="visibility: inherit;" fill="rgb(0, 0, 0)" stroke="rgb(204, 204, 204)" stroke-width="1px"></line></g><g transform="translate(0, 8)"><text style="text-anchor: middle; visibility: hidden; font-family: Roboto, sans-serif; font-size: 12px; font-weight: 200;" x="0" y="0" dx="0em" dy="0.95em" fill="rgb(33, 33, 33)" stroke="none" stroke-width="1px">-500</text><text style="text-anchor: middle; visibility: inherit; font-family: Roboto, sans-serif; font-size: 12px; font-weight: 200;" x="20.60991644859314" y="0" dx="0em" dy="0.95em" fill="rgb(33, 33, 33)" stroke="none" stroke-width="1px">0</text><text style="text-anchor: middle; visibility: hidden; font-family: Roboto, sans-serif; font-size: 12px; font-weight: 200;" x="41.21983289718628" y="0" dx="0em" dy="0.95em" fill="rgb(33, 33, 33)" stroke="none" stroke-width="1px">500</text><text style="text-anchor: middle; visibility: inherit; font-family: Roboto, sans-serif; font-size: 12px; font-weight: 200;" x="61.82974934577942" y="0" dx="0em" dy="0.95em" fill="rgb(33, 33, 33)" stroke="none" stroke-width="1px">1k</text><text style="text-anchor: middle; visibility: hidden; font-family: Roboto, sans-serif; font-size: 12px; font-weight: 200;" x="82.43966579437256" y="0" dx="0em" dy="0.95em" fill="rgb(33, 33, 33)" stroke="none" stroke-width="1px">1.5k</text><text style="text-anchor: middle; visibility: inherit; font-family: Roboto, sans-serif; font-size: 12px; font-weight: 200;" x="103.0495822429657" y="0" dx="0em" dy="0.95em" fill="rgb(33, 33, 33)" stroke="none" stroke-width="1px">2k</text><text style="text-anchor: middle; visibility: hidden; font-family: Roboto, sans-serif; font-size: 12px; font-weight: 200;" x="123.65949869155884" y="0" dx="0em" dy="0.95em" fill="rgb(33, 33, 33)" stroke="none" stroke-width="1px">2.5k</text><text style="text-anchor: middle; visibility: inherit; font-family: Roboto, sans-serif; font-size: 12px; font-weight: 200;" x="144.26941514015198" y="0" dx="0em" dy="0.95em" fill="rgb(33, 33, 33)" stroke="none" stroke-width="1px">3k</text><text style="text-anchor: middle; visibility: hidden; font-family: Roboto, sans-serif; font-size: 12px; font-weight: 200;" x="164.87933158874512" y="0" dx="0em" dy="0.95em" fill="rgb(33, 33, 33)" stroke="none" stroke-width="1px">3.5k</text><text style="text-anchor: middle; visibility: inherit; font-family: Roboto, sans-serif; font-size: 12px; font-weight: 200;" x="185.48924803733826" y="0" dx="0em" dy="0.95em" fill="rgb(33, 33, 33)" stroke="none" stroke-width="1px">4k</text><text style="text-anchor: middle; visibility: hidden; font-family: Roboto, sans-serif; font-size: 12px; font-weight: 200;" x="206.0991644859314" y="0" dx="0em" dy="0.95em" fill="rgb(33, 33, 33)" stroke="none" stroke-width="1px">4.5k</text><text style="text-anchor: middle; visibility: inherit; font-family: Roboto, sans-serif; font-size: 12px; font-weight: 200;" x="226.70908093452454" y="0" dx="0em" dy="0.95em" fill="rgb(33, 33, 33)" stroke="none" stroke-width="1px">5k</text><text style="text-anchor: middle; visibility: hidden; font-family: Roboto, sans-serif; font-size: 12px; font-weight: 200;" x="247.31899738311768" y="0" dx="0em" dy="0.95em" fill="rgb(33, 33, 33)" stroke="none" stroke-width="1px">5.5k</text></g><line x1="0" y1="0" x2="247.31899738311768" y2="0" fill="rgb(0, 0, 0)" stroke="rgb(204, 204, 204)" stroke-width="1px"></line></g></g></g></g></svg>